<?xml version="1.0" encoding="utf-8" standalone="no"?>
<!DOCTYPE svg PUBLIC "-//W3C//DTD SVG 1.1//EN"
  "http://www.w3.org/Graphics/SVG/1.1/DTD/svg11.dtd">
<!-- Created with matplotlib (https://matplotlib.org/) -->
<svg height="277.919688pt" version="1.1" viewBox="0 0 289.71 277.919688" width="289.71pt" xmlns="http://www.w3.org/2000/svg" xmlns:xlink="http://www.w3.org/1999/xlink">
 <defs>
  <style type="text/css">
*{stroke-linecap:butt;stroke-linejoin:round;}
  </style>
 </defs>
 <g id="figure_1">
  <g id="patch_1">
   <path d="M 0 277.919688 
L 289.71 277.919688 
L 289.71 0 
L 0 0 
z
" style="fill:#ffffff;"/>
  </g>
  <g id="axes_1">
   <g id="patch_2">
    <path d="M 53.31 234.96 
L 276.51 234.96 
L 276.51 13.2 
L 53.31 13.2 
z
" style="fill:#eaeaf2;"/>
   </g>
   <g id="matplotlib.axis_1">
    <g id="xtick_1">
     <g id="line2d_1">
      <path clip-path="url(#p6941d60a12)" d="M 53.31 234.96 
L 53.31 13.2 
" style="fill:none;stroke:#ffffff;stroke-linecap:round;"/>
     </g>
     <g id="text_1">
      <!-- 0 -->
      <defs>
       <path d="M 31.78125 66.40625 
Q 24.171875 66.40625 20.328125 58.90625 
Q 16.5 51.421875 16.5 36.375 
Q 16.5 21.390625 20.328125 13.890625 
Q 24.171875 6.390625 31.78125 6.390625 
Q 39.453125 6.390625 43.28125 13.890625 
Q 47.125 21.390625 47.125 36.375 
Q 47.125 51.421875 43.28125 58.90625 
Q 39.453125 66.40625 31.78125 66.40625 
z
M 31.78125 74.21875 
Q 44.046875 74.21875 50.515625 64.515625 
Q 56.984375 54.828125 56.984375 36.375 
Q 56.984375 17.96875 50.515625 8.265625 
Q 44.046875 -1.421875 31.78125 -1.421875 
Q 19.53125 -1.421875 13.0625 8.265625 
Q 6.59375 17.96875 6.59375 36.375 
Q 6.59375 54.828125 13.0625 64.515625 
Q 19.53125 74.21875 31.78125 74.21875 
z
" id="DejaVuSans-48"/>
      </defs>
      <g style="fill:#262626;" transform="translate(49.810625 252.818281)scale(0.11 -0.11)">
       <use xlink:href="#DejaVuSans-48"/>
      </g>
     </g>
    </g>
    <g id="xtick_2">
     <g id="line2d_2">
      <path clip-path="url(#p6941d60a12)" d="M 98.400909 234.96 
L 98.400909 13.2 
" style="fill:none;stroke:#ffffff;stroke-linecap:round;"/>
     </g>
     <g id="text_2">
      <!-- 20 -->
      <defs>
       <path d="M 19.1875 8.296875 
L 53.609375 8.296875 
L 53.609375 0 
L 7.328125 0 
L 7.328125 8.296875 
Q 12.9375 14.109375 22.625 23.890625 
Q 32.328125 33.6875 34.8125 36.53125 
Q 39.546875 41.84375 41.421875 45.53125 
Q 43.3125 49.21875 43.3125 52.78125 
Q 43.3125 58.59375 39.234375 62.25 
Q 35.15625 65.921875 28.609375 65.921875 
Q 23.96875 65.921875 18.8125 64.3125 
Q 13.671875 62.703125 7.8125 59.421875 
L 7.8125 69.390625 
Q 13.765625 71.78125 18.9375 73 
Q 24.125 74.21875 28.421875 74.21875 
Q 39.75 74.21875 46.484375 68.546875 
Q 53.21875 62.890625 53.21875 53.421875 
Q 53.21875 48.921875 51.53125 44.890625 
Q 49.859375 40.875 45.40625 35.40625 
Q 44.1875 33.984375 37.640625 27.21875 
Q 31.109375 20.453125 19.1875 8.296875 
z
" id="DejaVuSans-50"/>
      </defs>
      <g style="fill:#262626;" transform="translate(91.402159 252.818281)scale(0.11 -0.11)">
       <use xlink:href="#DejaVuSans-50"/>
       <use x="63.623047" xlink:href="#DejaVuSans-48"/>
      </g>
     </g>
    </g>
    <g id="xtick_3">
     <g id="line2d_3">
      <path clip-path="url(#p6941d60a12)" d="M 143.491818 234.96 
L 143.491818 13.2 
" style="fill:none;stroke:#ffffff;stroke-linecap:round;"/>
     </g>
     <g id="text_3">
      <!-- 40 -->
      <defs>
       <path d="M 37.796875 64.3125 
L 12.890625 25.390625 
L 37.796875 25.390625 
z
M 35.203125 72.90625 
L 47.609375 72.90625 
L 47.609375 25.390625 
L 58.015625 25.390625 
L 58.015625 17.1875 
L 47.609375 17.1875 
L 47.609375 0 
L 37.796875 0 
L 37.796875 17.1875 
L 4.890625 17.1875 
L 4.890625 26.703125 
z
" id="DejaVuSans-52"/>
      </defs>
      <g style="fill:#262626;" transform="translate(136.493068 252.818281)scale(0.11 -0.11)">
       <use xlink:href="#DejaVuSans-52"/>
       <use x="63.623047" xlink:href="#DejaVuSans-48"/>
      </g>
     </g>
    </g>
    <g id="xtick_4">
     <g id="line2d_4">
      <path clip-path="url(#p6941d60a12)" d="M 188.582727 234.96 
L 188.582727 13.2 
" style="fill:none;stroke:#ffffff;stroke-linecap:round;"/>
     </g>
     <g id="text_4">
      <!-- 60 -->
      <defs>
       <path d="M 33.015625 40.375 
Q 26.375 40.375 22.484375 35.828125 
Q 18.609375 31.296875 18.609375 23.390625 
Q 18.609375 15.53125 22.484375 10.953125 
Q 26.375 6.390625 33.015625 6.390625 
Q 39.65625 6.390625 43.53125 10.953125 
Q 47.40625 15.53125 47.40625 23.390625 
Q 47.40625 31.296875 43.53125 35.828125 
Q 39.65625 40.375 33.015625 40.375 
z
M 52.59375 71.296875 
L 52.59375 62.3125 
Q 48.875 64.0625 45.09375 64.984375 
Q 41.3125 65.921875 37.59375 65.921875 
Q 27.828125 65.921875 22.671875 59.328125 
Q 17.53125 52.734375 16.796875 39.40625 
Q 19.671875 43.65625 24.015625 45.921875 
Q 28.375 48.1875 33.59375 48.1875 
Q 44.578125 48.1875 50.953125 41.515625 
Q 57.328125 34.859375 57.328125 23.390625 
Q 57.328125 12.15625 50.6875 5.359375 
Q 44.046875 -1.421875 33.015625 -1.421875 
Q 20.359375 -1.421875 13.671875 8.265625 
Q 6.984375 17.96875 6.984375 36.375 
Q 6.984375 53.65625 15.1875 63.9375 
Q 23.390625 74.21875 37.203125 74.21875 
Q 40.921875 74.21875 44.703125 73.484375 
Q 48.484375 72.75 52.59375 71.296875 
z
" id="DejaVuSans-54"/>
      </defs>
      <g style="fill:#262626;" transform="translate(181.583977 252.818281)scale(0.11 -0.11)">
       <use xlink:href="#DejaVuSans-54"/>
       <use x="63.623047" xlink:href="#DejaVuSans-48"/>
      </g>
     </g>
    </g>
    <g id="xtick_5">
     <g id="line2d_5">
      <path clip-path="url(#p6941d60a12)" d="M 233.673636 234.96 
L 233.673636 13.2 
" style="fill:none;stroke:#ffffff;stroke-linecap:round;"/>
     </g>
     <g id="text_5">
      <!-- 80 -->
      <defs>
       <path d="M 31.78125 34.625 
Q 24.75 34.625 20.71875 30.859375 
Q 16.703125 27.09375 16.703125 20.515625 
Q 16.703125 13.921875 20.71875 10.15625 
Q 24.75 6.390625 31.78125 6.390625 
Q 38.8125 6.390625 42.859375 10.171875 
Q 46.921875 13.96875 46.921875 20.515625 
Q 46.921875 27.09375 42.890625 30.859375 
Q 38.875 34.625 31.78125 34.625 
z
M 21.921875 38.8125 
Q 15.578125 40.375 12.03125 44.71875 
Q 8.5 49.078125 8.5 55.328125 
Q 8.5 64.0625 14.71875 69.140625 
Q 20.953125 74.21875 31.78125 74.21875 
Q 42.671875 74.21875 48.875 69.140625 
Q 55.078125 64.0625 55.078125 55.328125 
Q 55.078125 49.078125 51.53125 44.71875 
Q 48 40.375 41.703125 38.8125 
Q 48.828125 37.15625 52.796875 32.3125 
Q 56.78125 27.484375 56.78125 20.515625 
Q 56.78125 9.90625 50.3125 4.234375 
Q 43.84375 -1.421875 31.78125 -1.421875 
Q 19.734375 -1.421875 13.25 4.234375 
Q 6.78125 9.90625 6.78125 20.515625 
Q 6.78125 27.484375 10.78125 32.3125 
Q 14.796875 37.15625 21.921875 38.8125 
z
M 18.3125 54.390625 
Q 18.3125 48.734375 21.84375 45.5625 
Q 25.390625 42.390625 31.78125 42.390625 
Q 38.140625 42.390625 41.71875 45.5625 
Q 45.3125 48.734375 45.3125 54.390625 
Q 45.3125 60.0625 41.71875 63.234375 
Q 38.140625 66.40625 31.78125 66.40625 
Q 25.390625 66.40625 21.84375 63.234375 
Q 18.3125 60.0625 18.3125 54.390625 
z
" id="DejaVuSans-56"/>
      </defs>
      <g style="fill:#262626;" transform="translate(226.674886 252.818281)scale(0.11 -0.11)">
       <use xlink:href="#DejaVuSans-56"/>
       <use x="63.623047" xlink:href="#DejaVuSans-48"/>
      </g>
     </g>
    </g>
    <g id="text_6">
     <!-- Iteration -->
     <defs>
      <path d="M 9.8125 72.90625 
L 19.671875 72.90625 
L 19.671875 0 
L 9.8125 0 
z
" id="DejaVuSans-73"/>
      <path d="M 18.3125 70.21875 
L 18.3125 54.6875 
L 36.8125 54.6875 
L 36.8125 47.703125 
L 18.3125 47.703125 
L 18.3125 18.015625 
Q 18.3125 11.328125 20.140625 9.421875 
Q 21.96875 7.515625 27.59375 7.515625 
L 36.8125 7.515625 
L 36.8125 0 
L 27.59375 0 
Q 17.1875 0 13.234375 3.875 
Q 9.28125 7.765625 9.28125 18.015625 
L 9.28125 47.703125 
L 2.6875 47.703125 
L 2.6875 54.6875 
L 9.28125 54.6875 
L 9.28125 70.21875 
z
" id="DejaVuSans-116"/>
      <path d="M 56.203125 29.59375 
L 56.203125 25.203125 
L 14.890625 25.203125 
Q 15.484375 15.921875 20.484375 11.0625 
Q 25.484375 6.203125 34.421875 6.203125 
Q 39.59375 6.203125 44.453125 7.46875 
Q 49.3125 8.734375 54.109375 11.28125 
L 54.109375 2.78125 
Q 49.265625 0.734375 44.1875 -0.34375 
Q 39.109375 -1.421875 33.890625 -1.421875 
Q 20.796875 -1.421875 13.15625 6.1875 
Q 5.515625 13.8125 5.515625 26.8125 
Q 5.515625 40.234375 12.765625 48.109375 
Q 20.015625 56 32.328125 56 
Q 43.359375 56 49.78125 48.890625 
Q 56.203125 41.796875 56.203125 29.59375 
z
M 47.21875 32.234375 
Q 47.125 39.59375 43.09375 43.984375 
Q 39.0625 48.390625 32.421875 48.390625 
Q 24.90625 48.390625 20.390625 44.140625 
Q 15.875 39.890625 15.1875 32.171875 
z
" id="DejaVuSans-101"/>
      <path d="M 41.109375 46.296875 
Q 39.59375 47.171875 37.8125 47.578125 
Q 36.03125 48 33.890625 48 
Q 26.265625 48 22.1875 43.046875 
Q 18.109375 38.09375 18.109375 28.8125 
L 18.109375 0 
L 9.078125 0 
L 9.078125 54.6875 
L 18.109375 54.6875 
L 18.109375 46.1875 
Q 20.953125 51.171875 25.484375 53.578125 
Q 30.03125 56 36.53125 56 
Q 37.453125 56 38.578125 55.875 
Q 39.703125 55.765625 41.0625 55.515625 
z
" id="DejaVuSans-114"/>
      <path d="M 34.28125 27.484375 
Q 23.390625 27.484375 19.1875 25 
Q 14.984375 22.515625 14.984375 16.5 
Q 14.984375 11.71875 18.140625 8.90625 
Q 21.296875 6.109375 26.703125 6.109375 
Q 34.1875 6.109375 38.703125 11.40625 
Q 43.21875 16.703125 43.21875 25.484375 
L 43.21875 27.484375 
z
M 52.203125 31.203125 
L 52.203125 0 
L 43.21875 0 
L 43.21875 8.296875 
Q 40.140625 3.328125 35.546875 0.953125 
Q 30.953125 -1.421875 24.3125 -1.421875 
Q 15.921875 -1.421875 10.953125 3.296875 
Q 6 8.015625 6 15.921875 
Q 6 25.140625 12.171875 29.828125 
Q 18.359375 34.515625 30.609375 34.515625 
L 43.21875 34.515625 
L 43.21875 35.40625 
Q 43.21875 41.609375 39.140625 45 
Q 35.0625 48.390625 27.6875 48.390625 
Q 23 48.390625 18.546875 47.265625 
Q 14.109375 46.140625 10.015625 43.890625 
L 10.015625 52.203125 
Q 14.9375 54.109375 19.578125 55.046875 
Q 24.21875 56 28.609375 56 
Q 40.484375 56 46.34375 49.84375 
Q 52.203125 43.703125 52.203125 31.203125 
z
" id="DejaVuSans-97"/>
      <path d="M 9.421875 54.6875 
L 18.40625 54.6875 
L 18.40625 0 
L 9.421875 0 
z
M 9.421875 75.984375 
L 18.40625 75.984375 
L 18.40625 64.59375 
L 9.421875 64.59375 
z
" id="DejaVuSans-105"/>
      <path d="M 30.609375 48.390625 
Q 23.390625 48.390625 19.1875 42.75 
Q 14.984375 37.109375 14.984375 27.296875 
Q 14.984375 17.484375 19.15625 11.84375 
Q 23.34375 6.203125 30.609375 6.203125 
Q 37.796875 6.203125 41.984375 11.859375 
Q 46.1875 17.53125 46.1875 27.296875 
Q 46.1875 37.015625 41.984375 42.703125 
Q 37.796875 48.390625 30.609375 48.390625 
z
M 30.609375 56 
Q 42.328125 56 49.015625 48.375 
Q 55.71875 40.765625 55.71875 27.296875 
Q 55.71875 13.875 49.015625 6.21875 
Q 42.328125 -1.421875 30.609375 -1.421875 
Q 18.84375 -1.421875 12.171875 6.21875 
Q 5.515625 13.875 5.515625 27.296875 
Q 5.515625 40.765625 12.171875 48.375 
Q 18.84375 56 30.609375 56 
z
" id="DejaVuSans-111"/>
      <path d="M 54.890625 33.015625 
L 54.890625 0 
L 45.90625 0 
L 45.90625 32.71875 
Q 45.90625 40.484375 42.875 44.328125 
Q 39.84375 48.1875 33.796875 48.1875 
Q 26.515625 48.1875 22.3125 43.546875 
Q 18.109375 38.921875 18.109375 30.90625 
L 18.109375 0 
L 9.078125 0 
L 9.078125 54.6875 
L 18.109375 54.6875 
L 18.109375 46.1875 
Q 21.34375 51.125 25.703125 53.5625 
Q 30.078125 56 35.796875 56 
Q 45.21875 56 50.046875 50.171875 
Q 54.890625 44.34375 54.890625 33.015625 
z
" id="DejaVuSans-110"/>
     </defs>
     <g style="fill:#262626;" transform="translate(139.459688 268.224063)scale(0.12 -0.12)">
      <use xlink:href="#DejaVuSans-73"/>
      <use x="29.492188" xlink:href="#DejaVuSans-116"/>
      <use x="68.701172" xlink:href="#DejaVuSans-101"/>
      <use x="130.224609" xlink:href="#DejaVuSans-114"/>
      <use x="171.337891" xlink:href="#DejaVuSans-97"/>
      <use x="232.617188" xlink:href="#DejaVuSans-116"/>
      <use x="271.826172" xlink:href="#DejaVuSans-105"/>
      <use x="299.609375" xlink:href="#DejaVuSans-111"/>
      <use x="360.791016" xlink:href="#DejaVuSans-110"/>
     </g>
    </g>
   </g>
   <g id="matplotlib.axis_2">
    <g id="ytick_1">
     <g id="line2d_6">
      <path clip-path="url(#p6941d60a12)" d="M 53.31 221.998815 
L 276.51 221.998815 
" style="fill:none;stroke:#ffffff;stroke-linecap:round;"/>
     </g>
     <g id="text_7">
      <!-- 25 -->
      <defs>
       <path d="M 10.796875 72.90625 
L 49.515625 72.90625 
L 49.515625 64.59375 
L 19.828125 64.59375 
L 19.828125 46.734375 
Q 21.96875 47.46875 24.109375 47.828125 
Q 26.265625 48.1875 28.421875 48.1875 
Q 40.625 48.1875 47.75 41.5 
Q 54.890625 34.8125 54.890625 23.390625 
Q 54.890625 11.625 47.5625 5.09375 
Q 40.234375 -1.421875 26.90625 -1.421875 
Q 22.3125 -1.421875 17.546875 -0.640625 
Q 12.796875 0.140625 7.71875 1.703125 
L 7.71875 11.625 
Q 12.109375 9.234375 16.796875 8.0625 
Q 21.484375 6.890625 26.703125 6.890625 
Q 35.15625 6.890625 40.078125 11.328125 
Q 45.015625 15.765625 45.015625 23.390625 
Q 45.015625 31 40.078125 35.4375 
Q 35.15625 39.890625 26.703125 39.890625 
Q 22.75 39.890625 18.8125 39.015625 
Q 14.890625 38.140625 10.796875 36.28125 
z
" id="DejaVuSans-53"/>
      </defs>
      <g style="fill:#262626;" transform="translate(29.8125 226.177955)scale(0.11 -0.11)">
       <use xlink:href="#DejaVuSans-50"/>
       <use x="63.623047" xlink:href="#DejaVuSans-53"/>
      </g>
     </g>
    </g>
    <g id="ytick_2">
     <g id="line2d_7">
      <path clip-path="url(#p6941d60a12)" d="M 53.31 193.493887 
L 276.51 193.493887 
" style="fill:none;stroke:#ffffff;stroke-linecap:round;"/>
     </g>
     <g id="text_8">
      <!-- 50 -->
      <g style="fill:#262626;" transform="translate(29.8125 197.673028)scale(0.11 -0.11)">
       <use xlink:href="#DejaVuSans-53"/>
       <use x="63.623047" xlink:href="#DejaVuSans-48"/>
      </g>
     </g>
    </g>
    <g id="ytick_3">
     <g id="line2d_8">
      <path clip-path="url(#p6941d60a12)" d="M 53.31 164.988959 
L 276.51 164.988959 
" style="fill:none;stroke:#ffffff;stroke-linecap:round;"/>
     </g>
     <g id="text_9">
      <!-- 75 -->
      <defs>
       <path d="M 8.203125 72.90625 
L 55.078125 72.90625 
L 55.078125 68.703125 
L 28.609375 0 
L 18.3125 0 
L 43.21875 64.59375 
L 8.203125 64.59375 
z
" id="DejaVuSans-55"/>
      </defs>
      <g style="fill:#262626;" transform="translate(29.8125 169.1681)scale(0.11 -0.11)">
       <use xlink:href="#DejaVuSans-55"/>
       <use x="63.623047" xlink:href="#DejaVuSans-53"/>
      </g>
     </g>
    </g>
    <g id="ytick_4">
     <g id="line2d_9">
      <path clip-path="url(#p6941d60a12)" d="M 53.31 136.484031 
L 276.51 136.484031 
" style="fill:none;stroke:#ffffff;stroke-linecap:round;"/>
     </g>
     <g id="text_10">
      <!-- 100 -->
      <defs>
       <path d="M 12.40625 8.296875 
L 28.515625 8.296875 
L 28.515625 63.921875 
L 10.984375 60.40625 
L 10.984375 69.390625 
L 28.421875 72.90625 
L 38.28125 72.90625 
L 38.28125 8.296875 
L 54.390625 8.296875 
L 54.390625 0 
L 12.40625 0 
z
" id="DejaVuSans-49"/>
      </defs>
      <g style="fill:#262626;" transform="translate(22.81375 140.663172)scale(0.11 -0.11)">
       <use xlink:href="#DejaVuSans-49"/>
       <use x="63.623047" xlink:href="#DejaVuSans-48"/>
       <use x="127.246094" xlink:href="#DejaVuSans-48"/>
      </g>
     </g>
    </g>
    <g id="ytick_5">
     <g id="line2d_10">
      <path clip-path="url(#p6941d60a12)" d="M 53.31 107.979103 
L 276.51 107.979103 
" style="fill:none;stroke:#ffffff;stroke-linecap:round;"/>
     </g>
     <g id="text_11">
      <!-- 125 -->
      <g style="fill:#262626;" transform="translate(22.81375 112.158244)scale(0.11 -0.11)">
       <use xlink:href="#DejaVuSans-49"/>
       <use x="63.623047" xlink:href="#DejaVuSans-50"/>
       <use x="127.246094" xlink:href="#DejaVuSans-53"/>
      </g>
     </g>
    </g>
    <g id="ytick_6">
     <g id="line2d_11">
      <path clip-path="url(#p6941d60a12)" d="M 53.31 79.474176 
L 276.51 79.474176 
" style="fill:none;stroke:#ffffff;stroke-linecap:round;"/>
     </g>
     <g id="text_12">
      <!-- 150 -->
      <g style="fill:#262626;" transform="translate(22.81375 83.653316)scale(0.11 -0.11)">
       <use xlink:href="#DejaVuSans-49"/>
       <use x="63.623047" xlink:href="#DejaVuSans-53"/>
       <use x="127.246094" xlink:href="#DejaVuSans-48"/>
      </g>
     </g>
    </g>
    <g id="ytick_7">
     <g id="line2d_12">
      <path clip-path="url(#p6941d60a12)" d="M 53.31 50.969248 
L 276.51 50.969248 
" style="fill:none;stroke:#ffffff;stroke-linecap:round;"/>
     </g>
     <g id="text_13">
      <!-- 175 -->
      <g style="fill:#262626;" transform="translate(22.81375 55.148389)scale(0.11 -0.11)">
       <use xlink:href="#DejaVuSans-49"/>
       <use x="63.623047" xlink:href="#DejaVuSans-55"/>
       <use x="127.246094" xlink:href="#DejaVuSans-53"/>
      </g>
     </g>
    </g>
    <g id="ytick_8">
     <g id="line2d_13">
      <path clip-path="url(#p6941d60a12)" d="M 53.31 22.46432 
L 276.51 22.46432 
" style="fill:none;stroke:#ffffff;stroke-linecap:round;"/>
     </g>
     <g id="text_14">
      <!-- 200 -->
      <g style="fill:#262626;" transform="translate(22.81375 26.643461)scale(0.11 -0.11)">
       <use xlink:href="#DejaVuSans-50"/>
       <use x="63.623047" xlink:href="#DejaVuSans-48"/>
       <use x="127.246094" xlink:href="#DejaVuSans-48"/>
      </g>
     </g>
    </g>
    <g id="text_15">
     <!-- AverageReturn -->
     <defs>
      <path d="M 34.1875 63.1875 
L 20.796875 26.90625 
L 47.609375 26.90625 
z
M 28.609375 72.90625 
L 39.796875 72.90625 
L 67.578125 0 
L 57.328125 0 
L 50.6875 18.703125 
L 17.828125 18.703125 
L 11.1875 0 
L 0.78125 0 
z
" id="DejaVuSans-65"/>
      <path d="M 2.984375 54.6875 
L 12.5 54.6875 
L 29.59375 8.796875 
L 46.6875 54.6875 
L 56.203125 54.6875 
L 35.6875 0 
L 23.484375 0 
z
" id="DejaVuSans-118"/>
      <path d="M 45.40625 27.984375 
Q 45.40625 37.75 41.375 43.109375 
Q 37.359375 48.484375 30.078125 48.484375 
Q 22.859375 48.484375 18.828125 43.109375 
Q 14.796875 37.75 14.796875 27.984375 
Q 14.796875 18.265625 18.828125 12.890625 
Q 22.859375 7.515625 30.078125 7.515625 
Q 37.359375 7.515625 41.375 12.890625 
Q 45.40625 18.265625 45.40625 27.984375 
z
M 54.390625 6.78125 
Q 54.390625 -7.171875 48.1875 -13.984375 
Q 42 -20.796875 29.203125 -20.796875 
Q 24.46875 -20.796875 20.265625 -20.09375 
Q 16.0625 -19.390625 12.109375 -17.921875 
L 12.109375 -9.1875 
Q 16.0625 -11.328125 19.921875 -12.34375 
Q 23.78125 -13.375 27.78125 -13.375 
Q 36.625 -13.375 41.015625 -8.765625 
Q 45.40625 -4.15625 45.40625 5.171875 
L 45.40625 9.625 
Q 42.625 4.78125 38.28125 2.390625 
Q 33.9375 0 27.875 0 
Q 17.828125 0 11.671875 7.65625 
Q 5.515625 15.328125 5.515625 27.984375 
Q 5.515625 40.671875 11.671875 48.328125 
Q 17.828125 56 27.875 56 
Q 33.9375 56 38.28125 53.609375 
Q 42.625 51.21875 45.40625 46.390625 
L 45.40625 54.6875 
L 54.390625 54.6875 
z
" id="DejaVuSans-103"/>
      <path d="M 44.390625 34.1875 
Q 47.5625 33.109375 50.5625 29.59375 
Q 53.5625 26.078125 56.59375 19.921875 
L 66.609375 0 
L 56 0 
L 46.6875 18.703125 
Q 43.0625 26.03125 39.671875 28.421875 
Q 36.28125 30.8125 30.421875 30.8125 
L 19.671875 30.8125 
L 19.671875 0 
L 9.8125 0 
L 9.8125 72.90625 
L 32.078125 72.90625 
Q 44.578125 72.90625 50.734375 67.671875 
Q 56.890625 62.453125 56.890625 51.90625 
Q 56.890625 45.015625 53.6875 40.46875 
Q 50.484375 35.9375 44.390625 34.1875 
z
M 19.671875 64.796875 
L 19.671875 38.921875 
L 32.078125 38.921875 
Q 39.203125 38.921875 42.84375 42.21875 
Q 46.484375 45.515625 46.484375 51.90625 
Q 46.484375 58.296875 42.84375 61.546875 
Q 39.203125 64.796875 32.078125 64.796875 
z
" id="DejaVuSans-82"/>
      <path d="M 8.5 21.578125 
L 8.5 54.6875 
L 17.484375 54.6875 
L 17.484375 21.921875 
Q 17.484375 14.15625 20.5 10.265625 
Q 23.53125 6.390625 29.59375 6.390625 
Q 36.859375 6.390625 41.078125 11.03125 
Q 45.3125 15.671875 45.3125 23.6875 
L 45.3125 54.6875 
L 54.296875 54.6875 
L 54.296875 0 
L 45.3125 0 
L 45.3125 8.40625 
Q 42.046875 3.421875 37.71875 1 
Q 33.40625 -1.421875 27.6875 -1.421875 
Q 18.265625 -1.421875 13.375 4.4375 
Q 8.5 10.296875 8.5 21.578125 
z
M 31.109375 56 
z
" id="DejaVuSans-117"/>
     </defs>
     <g style="fill:#262626;" transform="translate(16.318125 169.347187)rotate(-90)scale(0.12 -0.12)">
      <use xlink:href="#DejaVuSans-65"/>
      <use x="68.330078" xlink:href="#DejaVuSans-118"/>
      <use x="127.509766" xlink:href="#DejaVuSans-101"/>
      <use x="189.033203" xlink:href="#DejaVuSans-114"/>
      <use x="230.146484" xlink:href="#DejaVuSans-97"/>
      <use x="291.425781" xlink:href="#DejaVuSans-103"/>
      <use x="354.902344" xlink:href="#DejaVuSans-101"/>
      <use x="416.425781" xlink:href="#DejaVuSans-82"/>
      <use x="485.845703" xlink:href="#DejaVuSans-101"/>
      <use x="547.369141" xlink:href="#DejaVuSans-116"/>
      <use x="586.578125" xlink:href="#DejaVuSans-117"/>
      <use x="649.957031" xlink:href="#DejaVuSans-114"/>
      <use x="691.054688" xlink:href="#DejaVuSans-110"/>
     </g>
    </g>
   </g>
   <g id="PolyCollection_1">
    <defs>
     <path d="M 53.31 -56.899932 
L 53.31 -53.083274 
L 55.564545 -54.853892 
L 57.819091 -56.568641 
L 60.073636 -59.771856 
L 62.328182 -62.055897 
L 64.582727 -64.153273 
L 66.837273 -66.733074 
L 69.091818 -69.39124 
L 71.346364 -72.637807 
L 73.600909 -73.803814 
L 75.855455 -77.568701 
L 78.11 -80.743054 
L 80.364545 -80.198816 
L 82.619091 -83.444311 
L 84.873636 -85.906439 
L 87.128182 -86.311477 
L 89.382727 -89.711462 
L 91.637273 -93.309655 
L 93.891818 -97.626659 
L 96.146364 -99.678572 
L 98.400909 -98.966298 
L 100.655455 -103.377988 
L 102.91 -108.493708 
L 105.164545 -110.543523 
L 107.419091 -115.572409 
L 109.673636 -119.651215 
L 111.928182 -120.862267 
L 114.182727 -126.309804 
L 116.437273 -133.375221 
L 118.691818 -137.275871 
L 120.946364 -140.200358 
L 123.200909 -142.279 
L 125.455455 -150.502379 
L 127.71 -155.874891 
L 129.964545 -155.510954 
L 132.219091 -161.822607 
L 134.473636 -172.460776 
L 136.728182 -172.471676 
L 138.982727 -176.243773 
L 141.237273 -178.461043 
L 143.491818 -177.098257 
L 145.746364 -180.292847 
L 148.000909 -183.281953 
L 150.255455 -180.401931 
L 152.51 -185.470482 
L 154.764545 -184.14359 
L 157.019091 -185.861125 
L 159.273636 -189.469557 
L 161.528182 -189.666402 
L 163.782727 -190.638703 
L 166.037273 -195.940238 
L 168.291818 -195.295218 
L 170.546364 -196.269524 
L 172.800909 -195.624475 
L 175.055455 -205.16757 
L 177.31 -203.88492 
L 179.564545 -210.622357 
L 181.819091 -212.348379 
L 184.073636 -218.537989 
L 186.328182 -220.329856 
L 188.582727 -222.660003 
L 190.837273 -228.405541 
L 193.091818 -229.797759 
L 195.346364 -228.785558 
L 197.600909 -229.785834 
L 199.855455 -231.925576 
L 202.11 -235.041969 
L 204.364545 -234.829336 
L 206.619091 -231.92375 
L 208.873636 -234.819611 
L 211.128182 -238.200639 
L 213.382727 -239.08617 
L 215.637273 -237.843292 
L 217.891818 -237.378495 
L 220.146364 -236.14859 
L 222.400909 -235.352695 
L 224.655455 -236.256515 
L 226.91 -233.16676 
L 229.164545 -236.438814 
L 231.419091 -236.082048 
L 233.673636 -235.64653 
L 235.928182 -228.950726 
L 238.182727 -231.064198 
L 240.437273 -233.529801 
L 242.691818 -228.491484 
L 244.946364 -230.925502 
L 247.200909 -229.405462 
L 249.455455 -232.231626 
L 251.71 -233.78965 
L 253.964545 -232.546336 
L 256.219091 -237.199667 
L 258.473636 -234.965684 
L 260.728182 -235.831672 
L 262.982727 -236.394805 
L 265.237273 -240.413775 
L 267.491818 -240.489508 
L 269.746364 -239.984874 
L 272.000909 -239.00117 
L 274.255455 -238.936864 
L 276.51 -241.060342 
L 276.51 -248.056718 
L 276.51 -248.056718 
L 274.255455 -247.123519 
L 272.000909 -248.32599 
L 269.746364 -248.157844 
L 267.491818 -248.313776 
L 265.237273 -248.352224 
L 262.982727 -245.531209 
L 260.728182 -246.27999 
L 258.473636 -242.980974 
L 256.219091 -245.299498 
L 253.964545 -243.656555 
L 251.71 -245.841002 
L 249.455455 -244.289098 
L 247.200909 -241.728183 
L 244.946364 -243.920892 
L 242.691818 -242.600236 
L 240.437273 -246.330266 
L 238.182727 -243.60442 
L 235.928182 -241.81799 
L 233.673636 -243.894798 
L 231.419091 -247.9256 
L 229.164545 -245.811661 
L 226.91 -244.564955 
L 224.655455 -242.374324 
L 222.400909 -242.580844 
L 220.146364 -245.457243 
L 217.891818 -244.249135 
L 215.637273 -242.924297 
L 213.382727 -243.834268 
L 211.128182 -243.808832 
L 208.873636 -242.822596 
L 206.619091 -240.542172 
L 204.364545 -241.137329 
L 202.11 -240.91122 
L 199.855455 -239.414485 
L 197.600909 -235.133008 
L 195.346364 -236.886917 
L 193.091818 -237.026963 
L 190.837273 -235.404795 
L 188.582727 -234.814457 
L 186.328182 -234.285602 
L 184.073636 -233.61769 
L 181.819091 -228.601575 
L 179.564545 -229.639898 
L 177.31 -226.119074 
L 175.055455 -229.689084 
L 172.800909 -219.972789 
L 170.546364 -222.012289 
L 168.291818 -220.06628 
L 166.037273 -223.847557 
L 163.782727 -218.807708 
L 161.528182 -217.734207 
L 159.273636 -216.501734 
L 157.019091 -214.155656 
L 154.764545 -212.701804 
L 152.51 -212.714941 
L 150.255455 -208.457739 
L 148.000909 -210.424032 
L 145.746364 -209.992627 
L 143.491818 -205.899556 
L 141.237273 -206.961754 
L 138.982727 -205.555331 
L 136.728182 -201.484656 
L 134.473636 -203.601175 
L 132.219091 -190.598215 
L 129.964545 -182.224254 
L 127.71 -184.821738 
L 125.455455 -181.063766 
L 123.200909 -168.756374 
L 120.946364 -166.269959 
L 118.691818 -164.483742 
L 116.437273 -157.901103 
L 114.182727 -151.384103 
L 111.928182 -144.5713 
L 109.673636 -140.92687 
L 107.419091 -135.920268 
L 105.164545 -129.78538 
L 102.91 -128.022929 
L 100.655455 -121.740437 
L 98.400909 -115.845525 
L 96.146364 -114.395558 
L 93.891818 -111.696698 
L 91.637273 -106.234006 
L 89.382727 -98.667313 
L 87.128182 -96.327421 
L 84.873636 -95.851964 
L 82.619091 -90.26365 
L 80.364545 -87.285819 
L 78.11 -87.956328 
L 75.855455 -84.099347 
L 73.600909 -80.00435 
L 71.346364 -80.049515 
L 69.091818 -75.465587 
L 66.837273 -73.181715 
L 64.582727 -69.35757 
L 62.328182 -67.177195 
L 60.073636 -64.579636 
L 57.819091 -60.852184 
L 55.564545 -59.161302 
L 53.31 -56.899932 
z
" id="m193536968d" style="stroke:#ffffff;stroke-opacity:0.2;"/>
    </defs>
    <g clip-path="url(#p6941d60a12)">
     <use style="fill:#4c72b0;fill-opacity:0.2;stroke:#ffffff;stroke-opacity:0.2;" x="0" xlink:href="#m193536968d" y="277.919688"/>
    </g>
   </g>
   <g id="PolyCollection_2">
    <defs>
     <path d="M 53.31 -56.990727 
L 53.31 -53.039687 
L 55.564545 -54.754316 
L 57.819091 -56.630918 
L 60.073636 -60.119227 
L 62.328182 -62.203518 
L 64.582727 -65.495001 
L 66.837273 -67.310143 
L 69.091818 -69.181009 
L 71.346364 -72.296983 
L 73.600909 -74.09492 
L 75.855455 -76.294399 
L 78.11 -80.964867 
L 80.364545 -83.681451 
L 82.619091 -84.21401 
L 84.873636 -87.77115 
L 87.128182 -90.761861 
L 89.382727 -94.65102 
L 91.637273 -94.797781 
L 93.891818 -97.388096 
L 96.146364 -101.703419 
L 98.400909 -103.763719 
L 100.655455 -107.66514 
L 102.91 -114.925936 
L 105.164545 -116.176684 
L 107.419091 -123.830692 
L 109.673636 -124.367607 
L 111.928182 -131.732827 
L 114.182727 -137.459578 
L 116.437273 -146.341384 
L 118.691818 -151.347826 
L 120.946364 -156.947639 
L 123.200909 -161.419287 
L 125.455455 -163.904429 
L 127.71 -172.166742 
L 129.964545 -174.988703 
L 132.219091 -179.979842 
L 134.473636 -185.488906 
L 136.728182 -189.129709 
L 138.982727 -188.768311 
L 141.237273 -191.139944 
L 143.491818 -196.596872 
L 145.746364 -196.729602 
L 148.000909 -200.797899 
L 150.255455 -205.789978 
L 152.51 -205.879442 
L 154.764545 -211.000997 
L 157.019091 -208.927185 
L 159.273636 -217.784421 
L 161.528182 -218.421074 
L 163.782727 -224.839475 
L 166.037273 -225.914507 
L 168.291818 -225.838641 
L 170.546364 -230.802923 
L 172.800909 -230.702716 
L 175.055455 -237.375773 
L 177.31 -235.220727 
L 179.564545 -238.534759 
L 181.819091 -239.921787 
L 184.073636 -245.231915 
L 186.328182 -240.465473 
L 188.582727 -243.838945 
L 190.837273 -239.766588 
L 193.091818 -244.766712 
L 195.346364 -244.311752 
L 197.600909 -247.489606 
L 199.855455 -244.100071 
L 202.11 -248.168639 
L 204.364545 -250.999121 
L 206.619091 -247.913823 
L 208.873636 -250.675261 
L 211.128182 -250.388644 
L 213.382727 -247.83331 
L 215.637273 -245.754276 
L 217.891818 -249.612449 
L 220.146364 -248.589248 
L 222.400909 -247.556474 
L 224.655455 -249.470051 
L 226.91 -247.249038 
L 229.164545 -248.819649 
L 231.419091 -249.060843 
L 233.673636 -249.66743 
L 235.928182 -249.710476 
L 238.182727 -251.235498 
L 240.437273 -253.521422 
L 242.691818 -250.483661 
L 244.946364 -249.219351 
L 247.200909 -251.188235 
L 249.455455 -253.446866 
L 251.71 -250.08705 
L 253.964545 -250.973358 
L 256.219091 -249.143838 
L 258.473636 -252.384628 
L 260.728182 -250.981537 
L 262.982727 -249.18055 
L 265.237273 -251.695729 
L 267.491818 -251.710262 
L 269.746364 -251.795365 
L 272.000909 -249.08436 
L 274.255455 -248.491673 
L 276.51 -249.196835 
L 276.51 -252.829176 
L 276.51 -252.829176 
L 274.255455 -252.279537 
L 272.000909 -253.230103 
L 269.746364 -254.033692 
L 267.491818 -254.082748 
L 265.237273 -254.264167 
L 262.982727 -252.817321 
L 260.728182 -253.601058 
L 258.473636 -254.034504 
L 256.219091 -251.542638 
L 253.964545 -252.863452 
L 251.71 -252.830638 
L 249.455455 -254.639687 
L 247.200909 -252.903078 
L 244.946364 -252.586687 
L 242.691818 -253.06534 
L 240.437273 -254.609694 
L 238.182727 -253.135502 
L 235.928182 -252.596751 
L 233.673636 -253.070426 
L 231.419091 -251.583081 
L 229.164545 -252.259281 
L 226.91 -251.03205 
L 224.655455 -251.884049 
L 222.400909 -251.113811 
L 220.146364 -252.802053 
L 217.891818 -252.083011 
L 215.637273 -249.819516 
L 213.382727 -251.458994 
L 211.128182 -252.499628 
L 208.873636 -252.938165 
L 206.619091 -250.660442 
L 204.364545 -252.829229 
L 202.11 -250.312947 
L 199.855455 -248.165468 
L 197.600909 -250.152154 
L 195.346364 -250.28896 
L 193.091818 -249.493329 
L 190.837273 -245.131672 
L 188.582727 -248.368241 
L 186.328182 -248.234519 
L 184.073636 -249.970569 
L 181.819091 -247.181202 
L 179.564545 -246.550705 
L 177.31 -245.102345 
L 175.055455 -245.383272 
L 172.800909 -244.79234 
L 170.546364 -246.673362 
L 168.291818 -243.959006 
L 166.037273 -245.222476 
L 163.782727 -247.835427 
L 161.528182 -240.877999 
L 159.273636 -240.878717 
L 157.019091 -233.801293 
L 154.764545 -234.900274 
L 152.51 -233.032051 
L 150.255455 -232.660683 
L 148.000909 -229.728131 
L 145.746364 -227.207603 
L 143.491818 -227.873322 
L 141.237273 -222.299293 
L 138.982727 -222.479205 
L 136.728182 -220.979368 
L 134.473636 -217.664478 
L 132.219091 -212.794416 
L 129.964545 -206.508365 
L 127.71 -203.368211 
L 125.455455 -195.50224 
L 123.200909 -191.467493 
L 120.946364 -185.377328 
L 118.691818 -181.16812 
L 116.437273 -173.728041 
L 114.182727 -164.370164 
L 111.928182 -156.831268 
L 109.673636 -151.380735 
L 107.419091 -146.724936 
L 105.164545 -140.558345 
L 102.91 -137.65687 
L 100.655455 -127.967622 
L 98.400909 -121.988674 
L 96.146364 -117.851836 
L 93.891818 -112.489444 
L 91.637273 -107.557674 
L 89.382727 -105.341946 
L 87.128182 -104.661198 
L 84.873636 -97.164749 
L 82.619091 -91.693057 
L 80.364545 -92.757515 
L 78.11 -88.392367 
L 75.855455 -83.931575 
L 73.600909 -81.409218 
L 71.346364 -78.022145 
L 69.091818 -74.793107 
L 66.837273 -72.94599 
L 64.582727 -71.111845 
L 62.328182 -66.823998 
L 60.073636 -65.098419 
L 57.819091 -61.451014 
L 55.564545 -58.97228 
L 53.31 -56.990727 
z
" id="m709bd8be36" style="stroke:#ffffff;stroke-opacity:0.2;"/>
    </defs>
    <g clip-path="url(#p6941d60a12)">
     <use style="fill:#dd8452;fill-opacity:0.2;stroke:#ffffff;stroke-opacity:0.2;" x="0" xlink:href="#m709bd8be36" y="277.919688"/>
    </g>
   </g>
   <g id="PolyCollection_3">
    <defs>
     <path d="M 53.31 -56.974792 
L 53.31 -53.119548 
L 55.564545 -54.160956 
L 57.819091 -58.067351 
L 60.073636 -59.851641 
L 62.328182 -62.531461 
L 64.582727 -64.870624 
L 66.837273 -67.655873 
L 69.091818 -70.461647 
L 71.346364 -72.078441 
L 73.600909 -75.048043 
L 75.855455 -77.128537 
L 78.11 -79.180416 
L 80.364545 -80.972916 
L 82.619091 -84.184583 
L 84.873636 -84.084734 
L 87.128182 -87.26431 
L 89.382727 -89.07542 
L 91.637273 -95.067672 
L 93.891818 -96.155607 
L 96.146364 -100.03341 
L 98.400909 -100.172342 
L 100.655455 -103.515207 
L 102.91 -107.8672 
L 105.164545 -111.980712 
L 107.419091 -112.580795 
L 109.673636 -117.428853 
L 111.928182 -119.385844 
L 114.182727 -125.876045 
L 116.437273 -131.183378 
L 118.691818 -139.539091 
L 120.946364 -147.079886 
L 123.200909 -143.731411 
L 125.455455 -153.431023 
L 127.71 -157.947998 
L 129.964545 -157.642298 
L 132.219091 -160.672957 
L 134.473636 -167.926539 
L 136.728182 -166.35395 
L 138.982727 -175.501519 
L 141.237273 -174.091687 
L 143.491818 -177.24433 
L 145.746364 -175.87146 
L 148.000909 -182.261594 
L 150.255455 -185.560255 
L 152.51 -183.629593 
L 154.764545 -187.549402 
L 157.019091 -194.876453 
L 159.273636 -195.479801 
L 161.528182 -195.59076 
L 163.782727 -196.298369 
L 166.037273 -195.832913 
L 168.291818 -203.442119 
L 170.546364 -204.251553 
L 172.800909 -205.649336 
L 175.055455 -205.337856 
L 177.31 -211.216569 
L 179.564545 -213.299843 
L 181.819091 -215.399976 
L 184.073636 -215.132065 
L 186.328182 -219.748363 
L 188.582727 -216.183464 
L 190.837273 -222.076668 
L 193.091818 -221.741507 
L 195.346364 -222.978654 
L 197.600909 -222.914702 
L 199.855455 -228.053309 
L 202.11 -229.259851 
L 204.364545 -232.072473 
L 206.619091 -234.359286 
L 208.873636 -240.62877 
L 211.128182 -242.779895 
L 213.382727 -241.880442 
L 215.637273 -243.038307 
L 217.891818 -245.234593 
L 220.146364 -243.016791 
L 222.400909 -240.959987 
L 224.655455 -236.664632 
L 226.91 -242.466004 
L 229.164545 -242.138729 
L 231.419091 -242.568807 
L 233.673636 -245.476368 
L 235.928182 -247.866442 
L 238.182727 -245.959742 
L 240.437273 -245.038307 
L 242.691818 -243.242165 
L 244.946364 -246.842643 
L 247.200909 -246.89151 
L 249.455455 -245.574492 
L 251.71 -246.012231 
L 253.964545 -248.234095 
L 256.219091 -243.399216 
L 258.473636 -244.801726 
L 260.728182 -250.851408 
L 262.982727 -249.5114 
L 265.237273 -249.280527 
L 267.491818 -251.026139 
L 269.746364 -249.600865 
L 272.000909 -251.644484 
L 274.255455 -249.635821 
L 276.51 -251.740251 
L 276.51 -253.188127 
L 276.51 -253.188127 
L 274.255455 -251.709442 
L 272.000909 -253.215147 
L 269.746364 -251.984261 
L 267.491818 -252.622415 
L 265.237273 -252.019086 
L 262.982727 -251.644476 
L 260.728182 -252.618035 
L 258.473636 -250.73957 
L 256.219091 -249.291127 
L 253.964545 -251.446815 
L 251.71 -251.986375 
L 249.455455 -250.341696 
L 247.200909 -252.539141 
L 244.946364 -251.817961 
L 242.691818 -249.766888 
L 240.437273 -253.490719 
L 238.182727 -252.056699 
L 235.928182 -251.31127 
L 233.673636 -251.183158 
L 231.419091 -253.005731 
L 229.164545 -250.392317 
L 226.91 -250.127789 
L 224.655455 -248.145642 
L 222.400909 -249.825953 
L 220.146364 -248.957528 
L 217.891818 -250.800322 
L 215.637273 -249.047849 
L 213.382727 -249.609484 
L 211.128182 -248.483187 
L 208.873636 -250.491028 
L 206.619091 -247.406854 
L 204.364545 -247.18783 
L 202.11 -246.303755 
L 199.855455 -247.463942 
L 197.600909 -245.829862 
L 195.346364 -245.002951 
L 193.091818 -245.367239 
L 190.837273 -245.41742 
L 188.582727 -241.882669 
L 186.328182 -246.17817 
L 184.073636 -240.222891 
L 181.819091 -240.994803 
L 179.564545 -240.526042 
L 177.31 -236.634178 
L 175.055455 -233.215017 
L 172.800909 -234.094632 
L 170.546364 -233.409134 
L 168.291818 -232.954582 
L 166.037273 -227.913052 
L 163.782727 -228.778905 
L 161.528182 -228.432503 
L 159.273636 -226.593348 
L 157.019091 -227.466447 
L 154.764545 -219.333719 
L 152.51 -214.872482 
L 150.255455 -214.42672 
L 148.000909 -212.331736 
L 145.746364 -205.856309 
L 143.491818 -207.991973 
L 141.237273 -204.101043 
L 138.982727 -205.553476 
L 136.728182 -198.2144 
L 134.473636 -198.481301 
L 132.219091 -189.998915 
L 129.964545 -188.77141 
L 127.71 -186.771579 
L 125.455455 -183.541656 
L 123.200909 -170.603087 
L 120.946364 -174.137049 
L 118.691818 -165.57536 
L 116.437273 -155.930738 
L 114.182727 -147.629943 
L 111.928182 -141.012314 
L 109.673636 -137.943373 
L 107.419091 -131.502769 
L 105.164545 -128.502596 
L 102.91 -126.488519 
L 100.655455 -118.145155 
L 98.400909 -114.59965 
L 96.146364 -112.057666 
L 93.891818 -108.327761 
L 91.637273 -105.971047 
L 89.382727 -97.392879 
L 87.128182 -97.540009 
L 84.873636 -92.23608 
L 82.619091 -90.618013 
L 80.364545 -88.346391 
L 78.11 -84.903736 
L 75.855455 -84.711717 
L 73.600909 -80.83685 
L 71.346364 -77.516077 
L 69.091818 -76.99181 
L 66.837273 -74.180298 
L 64.582727 -70.404943 
L 62.328182 -67.734661 
L 60.073636 -64.684301 
L 57.819091 -63.212419 
L 55.564545 -57.976279 
L 53.31 -56.974792 
z
" id="m4011d459cb" style="stroke:#ffffff;stroke-opacity:0.2;"/>
    </defs>
    <g clip-path="url(#p6941d60a12)">
     <use style="fill:#55a868;fill-opacity:0.2;stroke:#ffffff;stroke-opacity:0.2;" x="0" xlink:href="#m4011d459cb" y="277.919688"/>
    </g>
   </g>
   <g id="line2d_14">
    <path clip-path="url(#p6941d60a12)" d="M 53.31 222.898957 
L 55.564545 220.926901 
L 57.819091 219.18933 
L 60.073636 215.736779 
L 62.328182 213.320069 
L 64.582727 211.191346 
L 66.837273 208.039726 
L 69.091818 205.562604 
L 71.346364 201.636801 
L 73.600909 201.070966 
L 75.855455 197.120285 
L 78.11 193.628464 
L 80.364545 194.227933 
L 82.619091 191.171767 
L 84.873636 187.227664 
L 87.128182 186.791452 
L 89.382727 183.870525 
L 91.637273 178.383242 
L 93.891818 173.459393 
L 96.146364 171.155212 
L 98.400909 170.857808 
L 100.655455 165.716697 
L 102.91 159.97423 
L 105.164545 158.064606 
L 107.419091 152.403718 
L 109.673636 147.889877 
L 111.928182 145.462187 
L 114.182727 139.34437 
L 116.437273 132.390269 
L 118.691818 127.107078 
L 120.946364 124.739024 
L 123.200909 122.538384 
L 125.455455 112.241431 
L 127.71 107.730567 
L 129.964545 109.175489 
L 132.219091 101.889775 
L 134.473636 89.840619 
L 136.728182 90.787146 
L 138.982727 87.00073 
L 141.237273 84.959275 
L 143.491818 86.293734 
L 145.746364 82.432956 
L 148.000909 80.754832 
L 150.255455 83.168199 
L 152.51 78.585078 
L 154.764545 79.434198 
L 157.019091 77.502313 
L 159.273636 74.842847 
L 161.528182 73.798012 
L 163.782727 72.712783 
L 166.037273 67.634607 
L 168.291818 70.018118 
L 170.546364 68.477223 
L 172.800909 69.877053 
L 175.055455 60.129155 
L 177.31 62.818522 
L 179.564545 57.445101 
L 181.819091 57.271765 
L 184.073636 51.826393 
L 186.328182 50.540306 
L 188.582727 49.142139 
L 190.837273 45.997313 
L 193.091818 44.480507 
L 195.346364 45.057609 
L 197.600909 45.444582 
L 199.855455 42.287339 
L 202.11 39.826208 
L 204.364545 39.895688 
L 206.619091 41.674079 
L 208.873636 38.881964 
L 211.128182 36.830927 
L 213.382727 36.400977 
L 215.637273 37.398869 
L 217.891818 37.03072 
L 220.146364 37.026397 
L 222.400909 38.832603 
L 224.655455 38.601126 
L 226.91 39.120956 
L 229.164545 36.849359 
L 231.419091 36.059183 
L 233.673636 38.241781 
L 235.928182 42.606167 
L 238.182727 40.792054 
L 240.437273 38.215295 
L 242.691818 42.67222 
L 244.946364 40.702718 
L 247.200909 42.583771 
L 249.455455 39.870651 
L 251.71 38.331016 
L 253.964545 40.007941 
L 256.219091 36.836312 
L 258.473636 39.064799 
L 260.728182 36.926529 
L 262.982727 37.115382 
L 265.237273 33.649699 
L 267.491818 33.577877 
L 269.746364 33.861347 
L 272.000909 34.323147 
L 274.255455 34.998792 
L 276.51 33.351922 
" style="fill:none;stroke:#4c72b0;stroke-linecap:round;stroke-width:1.5;"/>
   </g>
   <g id="line2d_15">
    <path clip-path="url(#p6941d60a12)" d="M 53.31 222.898957 
L 55.564545 221.073924 
L 57.819091 218.847016 
L 60.073636 215.252772 
L 62.328182 213.399802 
L 64.582727 209.567893 
L 66.837273 207.76112 
L 69.091818 205.906158 
L 71.346364 202.728863 
L 73.600909 200.11663 
L 75.855455 197.762725 
L 78.11 193.187828 
L 80.364545 189.665516 
L 82.619091 189.929911 
L 84.873636 185.434196 
L 87.128182 180.264748 
L 89.382727 177.921484 
L 91.637273 176.740868 
L 93.891818 172.977606 
L 96.146364 168.157987 
L 98.400909 165.035076 
L 100.655455 160.059461 
L 102.91 151.669341 
L 105.164545 149.560978 
L 107.419091 142.655681 
L 109.673636 140.156359 
L 111.928182 133.628667 
L 114.182727 127.12123 
L 116.437273 117.975415 
L 118.691818 111.667583 
L 120.946364 106.700617 
L 123.200909 101.465077 
L 125.455455 98.172102 
L 127.71 90.12059 
L 129.964545 87.098148 
L 132.219091 81.244513 
L 134.473636 76.090702 
L 136.728182 72.720493 
L 138.982727 72.015591 
L 141.237273 70.951162 
L 143.491818 65.436158 
L 145.746364 65.655288 
L 148.000909 62.509694 
L 150.255455 58.247264 
L 152.51 58.07205 
L 154.764545 54.740733 
L 157.019091 56.248739 
L 159.273636 48.636048 
L 161.528182 48.276401 
L 163.782727 41.667318 
L 166.037273 42.341289 
L 168.291818 43.045025 
L 170.546364 39.187474 
L 172.800909 40.144259 
L 175.055455 36.482195 
L 177.31 37.704196 
L 179.564545 35.296436 
L 181.819091 34.339223 
L 184.073636 30.28058 
L 186.328182 33.538025 
L 188.582727 31.843103 
L 190.837273 35.435264 
L 193.091818 30.828324 
L 195.346364 30.720194 
L 197.600909 29.109769 
L 199.855455 31.780118 
L 202.11 28.656469 
L 204.364545 26.007704 
L 206.619091 28.617002 
L 208.873636 26.090372 
L 211.128182 26.471575 
L 213.382727 28.260577 
L 215.637273 30.119637 
L 217.891818 27.056294 
L 220.146364 27.219481 
L 222.400909 28.57152 
L 224.655455 27.221476 
L 226.91 28.732039 
L 229.164545 27.377074 
L 231.419091 27.588063 
L 233.673636 26.545849 
L 235.928182 26.74818 
L 238.182727 25.728179 
L 240.437273 23.845712 
L 242.691818 26.138775 
L 244.946364 26.988074 
L 247.200909 25.869645 
L 249.455455 23.876411 
L 251.71 26.471741 
L 253.964545 25.99032 
L 256.219091 27.578641 
L 258.473636 24.706221 
L 260.728182 25.622436 
L 262.982727 26.949257 
L 265.237273 25.044545 
L 267.491818 25.05786 
L 269.746364 25.024893 
L 272.000909 26.767938 
L 274.255455 27.531479 
L 276.51 26.906682 
" style="fill:none;stroke:#dd8452;stroke-linecap:round;stroke-width:1.5;"/>
   </g>
   <g id="line2d_16">
    <path clip-path="url(#p6941d60a12)" d="M 53.31 222.898957 
L 55.564545 221.889564 
L 57.819091 217.329699 
L 60.073636 215.681957 
L 62.328182 212.835467 
L 64.582727 210.350921 
L 66.837273 207.045796 
L 69.091818 204.227932 
L 71.346364 203.162307 
L 73.600909 200.029966 
L 75.855455 197.025025 
L 78.11 195.946445 
L 80.364545 193.32109 
L 82.619091 190.523562 
L 84.873636 189.829524 
L 87.128182 185.585373 
L 89.382727 184.797164 
L 91.637273 177.514846 
L 93.891818 175.739257 
L 96.146364 171.97709 
L 98.400909 170.666054 
L 100.655455 167.258551 
L 102.91 160.961294 
L 105.164545 157.708627 
L 107.419091 155.984537 
L 109.673636 150.516135 
L 111.928182 147.929707 
L 114.182727 141.378206 
L 116.437273 134.479606 
L 118.691818 125.474205 
L 120.946364 117.362551 
L 123.200909 120.933572 
L 125.455455 109.456194 
L 127.71 105.806213 
L 129.964545 104.758225 
L 132.219091 102.706966 
L 134.473636 94.826368 
L 136.728182 95.772574 
L 138.982727 87.697798 
L 141.237273 89.067026 
L 143.491818 85.554237 
L 145.746364 87.226152 
L 148.000909 80.670574 
L 150.255455 78.013692 
L 152.51 78.780752 
L 154.764545 74.752528 
L 157.019091 66.814308 
L 159.273636 67.016886 
L 161.528182 66.266126 
L 163.782727 65.553592 
L 166.037273 66.445971 
L 168.291818 59.739367 
L 170.546364 59.351685 
L 172.800909 58.160682 
L 175.055455 58.742533 
L 177.31 54.32734 
L 179.564545 51.540739 
L 181.819091 50.100466 
L 184.073636 50.595594 
L 186.328182 45.212884 
L 188.582727 48.968543 
L 190.837273 44.25436 
L 193.091818 44.483722 
L 195.346364 44.004184 
L 197.600909 43.716556 
L 199.855455 40.365545 
L 202.11 40.383757 
L 204.364545 38.397795 
L 206.619091 37.205548 
L 208.873636 32.433159 
L 211.128182 32.365877 
L 213.382727 32.190595 
L 215.637273 31.953002 
L 217.891818 29.930386 
L 220.146364 31.986039 
L 222.400909 32.639978 
L 224.655455 35.602775 
L 226.91 31.728522 
L 229.164545 31.704545 
L 231.419091 30.20697 
L 233.673636 29.635191 
L 235.928182 28.323015 
L 238.182727 28.946197 
L 240.437273 28.762264 
L 242.691818 31.441474 
L 244.946364 28.618063 
L 247.200909 28.237115 
L 249.455455 29.990099 
L 251.71 28.998982 
L 253.964545 28.087665 
L 256.219091 31.590035 
L 258.473636 30.175303 
L 260.728182 26.199844 
L 262.982727 27.338257 
L 265.237273 27.269716 
L 267.491818 26.091024 
L 269.746364 27.150174 
L 272.000909 25.490223 
L 274.255455 27.253147 
L 276.51 25.446376 
" style="fill:none;stroke:#55a868;stroke-linecap:round;stroke-width:1.5;"/>
   </g>
   <g id="patch_3">
    <path d="M 53.31 234.96 
L 53.31 13.2 
" style="fill:none;stroke:#ffffff;stroke-linecap:square;stroke-linejoin:miter;stroke-width:1.25;"/>
   </g>
   <g id="patch_4">
    <path d="M 276.51 234.96 
L 276.51 13.2 
" style="fill:none;stroke:#ffffff;stroke-linecap:square;stroke-linejoin:miter;stroke-width:1.25;"/>
   </g>
   <g id="patch_5">
    <path d="M 53.31 234.96 
L 276.51 234.96 
" style="fill:none;stroke:#ffffff;stroke-linecap:square;stroke-linejoin:miter;stroke-width:1.25;"/>
   </g>
   <g id="patch_6">
    <path d="M 53.31 13.2 
L 276.51 13.2 
" style="fill:none;stroke:#ffffff;stroke-linecap:square;stroke-linejoin:miter;stroke-width:1.25;"/>
   </g>
   <g id="legend_1">
    <g id="patch_7">
     <path d="M 58.1736 49.933207 
L 128.887956 49.933207 
Q 130.277556 49.933207 130.277556 48.543607 
L 130.277556 18.0636 
Q 130.277556 16.674 128.887956 16.674 
L 58.1736 16.674 
Q 56.784 16.674 56.784 18.0636 
L 56.784 48.543607 
Q 56.784 49.933207 58.1736 49.933207 
z
" style="fill:#eaeaf2;opacity:0.8;stroke:#cccccc;stroke-linejoin:miter;"/>
    </g>
    <g id="line2d_17">
     <path d="M 59.5632 22.300794 
L 73.4592 22.300794 
" style="fill:none;stroke:#4c72b0;stroke-linecap:round;stroke-width:1.5;"/>
    </g>
    <g id="line2d_18"/>
    <g id="text_16">
     <!-- lb_no_rtg_dna -->
     <defs>
      <path d="M 9.421875 75.984375 
L 18.40625 75.984375 
L 18.40625 0 
L 9.421875 0 
z
" id="DejaVuSans-108"/>
      <path d="M 48.6875 27.296875 
Q 48.6875 37.203125 44.609375 42.84375 
Q 40.53125 48.484375 33.40625 48.484375 
Q 26.265625 48.484375 22.1875 42.84375 
Q 18.109375 37.203125 18.109375 27.296875 
Q 18.109375 17.390625 22.1875 11.75 
Q 26.265625 6.109375 33.40625 6.109375 
Q 40.53125 6.109375 44.609375 11.75 
Q 48.6875 17.390625 48.6875 27.296875 
z
M 18.109375 46.390625 
Q 20.953125 51.265625 25.265625 53.625 
Q 29.59375 56 35.59375 56 
Q 45.5625 56 51.78125 48.09375 
Q 58.015625 40.1875 58.015625 27.296875 
Q 58.015625 14.40625 51.78125 6.484375 
Q 45.5625 -1.421875 35.59375 -1.421875 
Q 29.59375 -1.421875 25.265625 0.953125 
Q 20.953125 3.328125 18.109375 8.203125 
L 18.109375 0 
L 9.078125 0 
L 9.078125 75.984375 
L 18.109375 75.984375 
z
" id="DejaVuSans-98"/>
      <path d="M 50.984375 -16.609375 
L 50.984375 -23.578125 
L -0.984375 -23.578125 
L -0.984375 -16.609375 
z
" id="DejaVuSans-95"/>
      <path d="M 45.40625 46.390625 
L 45.40625 75.984375 
L 54.390625 75.984375 
L 54.390625 0 
L 45.40625 0 
L 45.40625 8.203125 
Q 42.578125 3.328125 38.25 0.953125 
Q 33.9375 -1.421875 27.875 -1.421875 
Q 17.96875 -1.421875 11.734375 6.484375 
Q 5.515625 14.40625 5.515625 27.296875 
Q 5.515625 40.1875 11.734375 48.09375 
Q 17.96875 56 27.875 56 
Q 33.9375 56 38.25 53.625 
Q 42.578125 51.265625 45.40625 46.390625 
z
M 14.796875 27.296875 
Q 14.796875 17.390625 18.875 11.75 
Q 22.953125 6.109375 30.078125 6.109375 
Q 37.203125 6.109375 41.296875 11.75 
Q 45.40625 17.390625 45.40625 27.296875 
Q 45.40625 37.203125 41.296875 42.84375 
Q 37.203125 48.484375 30.078125 48.484375 
Q 22.953125 48.484375 18.875 42.84375 
Q 14.796875 37.203125 14.796875 27.296875 
z
" id="DejaVuSans-100"/>
     </defs>
     <g style="fill:#262626;" transform="translate(79.0176 24.732594)scale(0.06948 -0.06948)">
      <use xlink:href="#DejaVuSans-108"/>
      <use x="27.783203" xlink:href="#DejaVuSans-98"/>
      <use x="91.259766" xlink:href="#DejaVuSans-95"/>
      <use x="141.259766" xlink:href="#DejaVuSans-110"/>
      <use x="204.638672" xlink:href="#DejaVuSans-111"/>
      <use x="265.820312" xlink:href="#DejaVuSans-95"/>
      <use x="315.820312" xlink:href="#DejaVuSans-114"/>
      <use x="356.933594" xlink:href="#DejaVuSans-116"/>
      <use x="396.142578" xlink:href="#DejaVuSans-103"/>
      <use x="459.619141" xlink:href="#DejaVuSans-95"/>
      <use x="509.619141" xlink:href="#DejaVuSans-100"/>
      <use x="573.095703" xlink:href="#DejaVuSans-110"/>
      <use x="636.474609" xlink:href="#DejaVuSans-97"/>
     </g>
    </g>
    <g id="line2d_19">
     <path d="M 59.5632 32.692397 
L 73.4592 32.692397 
" style="fill:none;stroke:#dd8452;stroke-linecap:round;stroke-width:1.5;"/>
    </g>
    <g id="line2d_20"/>
    <g id="text_17">
     <!-- lb_rtg_dna -->
     <g style="fill:#262626;" transform="translate(79.0176 35.124197)scale(0.06948 -0.06948)">
      <use xlink:href="#DejaVuSans-108"/>
      <use x="27.783203" xlink:href="#DejaVuSans-98"/>
      <use x="91.259766" xlink:href="#DejaVuSans-95"/>
      <use x="141.259766" xlink:href="#DejaVuSans-114"/>
      <use x="182.373047" xlink:href="#DejaVuSans-116"/>
      <use x="221.582031" xlink:href="#DejaVuSans-103"/>
      <use x="285.058594" xlink:href="#DejaVuSans-95"/>
      <use x="335.058594" xlink:href="#DejaVuSans-100"/>
      <use x="398.535156" xlink:href="#DejaVuSans-110"/>
      <use x="461.914062" xlink:href="#DejaVuSans-97"/>
     </g>
    </g>
    <g id="line2d_21">
     <path d="M 59.5632 43.083999 
L 73.4592 43.083999 
" style="fill:none;stroke:#55a868;stroke-linecap:round;stroke-width:1.5;"/>
    </g>
    <g id="line2d_22"/>
    <g id="text_18">
     <!-- lb_rtg_na -->
     <g style="fill:#262626;" transform="translate(79.0176 45.515799)scale(0.06948 -0.06948)">
      <use xlink:href="#DejaVuSans-108"/>
      <use x="27.783203" xlink:href="#DejaVuSans-98"/>
      <use x="91.259766" xlink:href="#DejaVuSans-95"/>
      <use x="141.259766" xlink:href="#DejaVuSans-114"/>
      <use x="182.373047" xlink:href="#DejaVuSans-116"/>
      <use x="221.582031" xlink:href="#DejaVuSans-103"/>
      <use x="285.058594" xlink:href="#DejaVuSans-95"/>
      <use x="335.058594" xlink:href="#DejaVuSans-110"/>
      <use x="398.4375" xlink:href="#DejaVuSans-97"/>
     </g>
    </g>
   </g>
  </g>
 </g>
 <defs>
  <clipPath id="p6941d60a12">
   <rect height="221.76" width="223.2" x="53.31" y="13.2"/>
  </clipPath>
 </defs>
</svg>
