<?xml version="1.0" encoding="utf-8" standalone="no"?>
<!DOCTYPE svg PUBLIC "-//W3C//DTD SVG 1.1//EN"
  "http://www.w3.org/Graphics/SVG/1.1/DTD/svg11.dtd">
<!-- Created with matplotlib (https://matplotlib.org/) -->
<svg height="277.919688pt" version="1.1" viewBox="0 0 289.71 277.919688" width="289.71pt" xmlns="http://www.w3.org/2000/svg" xmlns:xlink="http://www.w3.org/1999/xlink">
 <defs>
  <style type="text/css">
*{stroke-linecap:butt;stroke-linejoin:round;}
  </style>
 </defs>
 <g id="figure_1">
  <g id="patch_1">
   <path d="M 0 277.919688 
L 289.71 277.919688 
L 289.71 0 
L 0 0 
z
" style="fill:#ffffff;"/>
  </g>
  <g id="axes_1">
   <g id="patch_2">
    <path d="M 53.31 234.96 
L 276.51 234.96 
L 276.51 13.2 
L 53.31 13.2 
z
" style="fill:#eaeaf2;"/>
   </g>
   <g id="matplotlib.axis_1">
    <g id="xtick_1">
     <g id="line2d_1">
      <path clip-path="url(#pa268eaff0c)" d="M 53.31 234.96 
L 53.31 13.2 
" style="fill:none;stroke:#ffffff;stroke-linecap:round;"/>
     </g>
     <g id="text_1">
      <!-- 0 -->
      <defs>
       <path d="M 31.78125 66.40625 
Q 24.171875 66.40625 20.328125 58.90625 
Q 16.5 51.421875 16.5 36.375 
Q 16.5 21.390625 20.328125 13.890625 
Q 24.171875 6.390625 31.78125 6.390625 
Q 39.453125 6.390625 43.28125 13.890625 
Q 47.125 21.390625 47.125 36.375 
Q 47.125 51.421875 43.28125 58.90625 
Q 39.453125 66.40625 31.78125 66.40625 
z
M 31.78125 74.21875 
Q 44.046875 74.21875 50.515625 64.515625 
Q 56.984375 54.828125 56.984375 36.375 
Q 56.984375 17.96875 50.515625 8.265625 
Q 44.046875 -1.421875 31.78125 -1.421875 
Q 19.53125 -1.421875 13.0625 8.265625 
Q 6.59375 17.96875 6.59375 36.375 
Q 6.59375 54.828125 13.0625 64.515625 
Q 19.53125 74.21875 31.78125 74.21875 
z
" id="DejaVuSans-48"/>
      </defs>
      <g style="fill:#262626;" transform="translate(49.810625 252.818281)scale(0.11 -0.11)">
       <use xlink:href="#DejaVuSans-48"/>
      </g>
     </g>
    </g>
    <g id="xtick_2">
     <g id="line2d_2">
      <path clip-path="url(#pa268eaff0c)" d="M 98.400909 234.96 
L 98.400909 13.2 
" style="fill:none;stroke:#ffffff;stroke-linecap:round;"/>
     </g>
     <g id="text_2">
      <!-- 20 -->
      <defs>
       <path d="M 19.1875 8.296875 
L 53.609375 8.296875 
L 53.609375 0 
L 7.328125 0 
L 7.328125 8.296875 
Q 12.9375 14.109375 22.625 23.890625 
Q 32.328125 33.6875 34.8125 36.53125 
Q 39.546875 41.84375 41.421875 45.53125 
Q 43.3125 49.21875 43.3125 52.78125 
Q 43.3125 58.59375 39.234375 62.25 
Q 35.15625 65.921875 28.609375 65.921875 
Q 23.96875 65.921875 18.8125 64.3125 
Q 13.671875 62.703125 7.8125 59.421875 
L 7.8125 69.390625 
Q 13.765625 71.78125 18.9375 73 
Q 24.125 74.21875 28.421875 74.21875 
Q 39.75 74.21875 46.484375 68.546875 
Q 53.21875 62.890625 53.21875 53.421875 
Q 53.21875 48.921875 51.53125 44.890625 
Q 49.859375 40.875 45.40625 35.40625 
Q 44.1875 33.984375 37.640625 27.21875 
Q 31.109375 20.453125 19.1875 8.296875 
z
" id="DejaVuSans-50"/>
      </defs>
      <g style="fill:#262626;" transform="translate(91.402159 252.818281)scale(0.11 -0.11)">
       <use xlink:href="#DejaVuSans-50"/>
       <use x="63.623047" xlink:href="#DejaVuSans-48"/>
      </g>
     </g>
    </g>
    <g id="xtick_3">
     <g id="line2d_3">
      <path clip-path="url(#pa268eaff0c)" d="M 143.491818 234.96 
L 143.491818 13.2 
" style="fill:none;stroke:#ffffff;stroke-linecap:round;"/>
     </g>
     <g id="text_3">
      <!-- 40 -->
      <defs>
       <path d="M 37.796875 64.3125 
L 12.890625 25.390625 
L 37.796875 25.390625 
z
M 35.203125 72.90625 
L 47.609375 72.90625 
L 47.609375 25.390625 
L 58.015625 25.390625 
L 58.015625 17.1875 
L 47.609375 17.1875 
L 47.609375 0 
L 37.796875 0 
L 37.796875 17.1875 
L 4.890625 17.1875 
L 4.890625 26.703125 
z
" id="DejaVuSans-52"/>
      </defs>
      <g style="fill:#262626;" transform="translate(136.493068 252.818281)scale(0.11 -0.11)">
       <use xlink:href="#DejaVuSans-52"/>
       <use x="63.623047" xlink:href="#DejaVuSans-48"/>
      </g>
     </g>
    </g>
    <g id="xtick_4">
     <g id="line2d_4">
      <path clip-path="url(#pa268eaff0c)" d="M 188.582727 234.96 
L 188.582727 13.2 
" style="fill:none;stroke:#ffffff;stroke-linecap:round;"/>
     </g>
     <g id="text_4">
      <!-- 60 -->
      <defs>
       <path d="M 33.015625 40.375 
Q 26.375 40.375 22.484375 35.828125 
Q 18.609375 31.296875 18.609375 23.390625 
Q 18.609375 15.53125 22.484375 10.953125 
Q 26.375 6.390625 33.015625 6.390625 
Q 39.65625 6.390625 43.53125 10.953125 
Q 47.40625 15.53125 47.40625 23.390625 
Q 47.40625 31.296875 43.53125 35.828125 
Q 39.65625 40.375 33.015625 40.375 
z
M 52.59375 71.296875 
L 52.59375 62.3125 
Q 48.875 64.0625 45.09375 64.984375 
Q 41.3125 65.921875 37.59375 65.921875 
Q 27.828125 65.921875 22.671875 59.328125 
Q 17.53125 52.734375 16.796875 39.40625 
Q 19.671875 43.65625 24.015625 45.921875 
Q 28.375 48.1875 33.59375 48.1875 
Q 44.578125 48.1875 50.953125 41.515625 
Q 57.328125 34.859375 57.328125 23.390625 
Q 57.328125 12.15625 50.6875 5.359375 
Q 44.046875 -1.421875 33.015625 -1.421875 
Q 20.359375 -1.421875 13.671875 8.265625 
Q 6.984375 17.96875 6.984375 36.375 
Q 6.984375 53.65625 15.1875 63.9375 
Q 23.390625 74.21875 37.203125 74.21875 
Q 40.921875 74.21875 44.703125 73.484375 
Q 48.484375 72.75 52.59375 71.296875 
z
" id="DejaVuSans-54"/>
      </defs>
      <g style="fill:#262626;" transform="translate(181.583977 252.818281)scale(0.11 -0.11)">
       <use xlink:href="#DejaVuSans-54"/>
       <use x="63.623047" xlink:href="#DejaVuSans-48"/>
      </g>
     </g>
    </g>
    <g id="xtick_5">
     <g id="line2d_5">
      <path clip-path="url(#pa268eaff0c)" d="M 233.673636 234.96 
L 233.673636 13.2 
" style="fill:none;stroke:#ffffff;stroke-linecap:round;"/>
     </g>
     <g id="text_5">
      <!-- 80 -->
      <defs>
       <path d="M 31.78125 34.625 
Q 24.75 34.625 20.71875 30.859375 
Q 16.703125 27.09375 16.703125 20.515625 
Q 16.703125 13.921875 20.71875 10.15625 
Q 24.75 6.390625 31.78125 6.390625 
Q 38.8125 6.390625 42.859375 10.171875 
Q 46.921875 13.96875 46.921875 20.515625 
Q 46.921875 27.09375 42.890625 30.859375 
Q 38.875 34.625 31.78125 34.625 
z
M 21.921875 38.8125 
Q 15.578125 40.375 12.03125 44.71875 
Q 8.5 49.078125 8.5 55.328125 
Q 8.5 64.0625 14.71875 69.140625 
Q 20.953125 74.21875 31.78125 74.21875 
Q 42.671875 74.21875 48.875 69.140625 
Q 55.078125 64.0625 55.078125 55.328125 
Q 55.078125 49.078125 51.53125 44.71875 
Q 48 40.375 41.703125 38.8125 
Q 48.828125 37.15625 52.796875 32.3125 
Q 56.78125 27.484375 56.78125 20.515625 
Q 56.78125 9.90625 50.3125 4.234375 
Q 43.84375 -1.421875 31.78125 -1.421875 
Q 19.734375 -1.421875 13.25 4.234375 
Q 6.78125 9.90625 6.78125 20.515625 
Q 6.78125 27.484375 10.78125 32.3125 
Q 14.796875 37.15625 21.921875 38.8125 
z
M 18.3125 54.390625 
Q 18.3125 48.734375 21.84375 45.5625 
Q 25.390625 42.390625 31.78125 42.390625 
Q 38.140625 42.390625 41.71875 45.5625 
Q 45.3125 48.734375 45.3125 54.390625 
Q 45.3125 60.0625 41.71875 63.234375 
Q 38.140625 66.40625 31.78125 66.40625 
Q 25.390625 66.40625 21.84375 63.234375 
Q 18.3125 60.0625 18.3125 54.390625 
z
" id="DejaVuSans-56"/>
      </defs>
      <g style="fill:#262626;" transform="translate(226.674886 252.818281)scale(0.11 -0.11)">
       <use xlink:href="#DejaVuSans-56"/>
       <use x="63.623047" xlink:href="#DejaVuSans-48"/>
      </g>
     </g>
    </g>
    <g id="text_6">
     <!-- Iteration -->
     <defs>
      <path d="M 9.8125 72.90625 
L 19.671875 72.90625 
L 19.671875 0 
L 9.8125 0 
z
" id="DejaVuSans-73"/>
      <path d="M 18.3125 70.21875 
L 18.3125 54.6875 
L 36.8125 54.6875 
L 36.8125 47.703125 
L 18.3125 47.703125 
L 18.3125 18.015625 
Q 18.3125 11.328125 20.140625 9.421875 
Q 21.96875 7.515625 27.59375 7.515625 
L 36.8125 7.515625 
L 36.8125 0 
L 27.59375 0 
Q 17.1875 0 13.234375 3.875 
Q 9.28125 7.765625 9.28125 18.015625 
L 9.28125 47.703125 
L 2.6875 47.703125 
L 2.6875 54.6875 
L 9.28125 54.6875 
L 9.28125 70.21875 
z
" id="DejaVuSans-116"/>
      <path d="M 56.203125 29.59375 
L 56.203125 25.203125 
L 14.890625 25.203125 
Q 15.484375 15.921875 20.484375 11.0625 
Q 25.484375 6.203125 34.421875 6.203125 
Q 39.59375 6.203125 44.453125 7.46875 
Q 49.3125 8.734375 54.109375 11.28125 
L 54.109375 2.78125 
Q 49.265625 0.734375 44.1875 -0.34375 
Q 39.109375 -1.421875 33.890625 -1.421875 
Q 20.796875 -1.421875 13.15625 6.1875 
Q 5.515625 13.8125 5.515625 26.8125 
Q 5.515625 40.234375 12.765625 48.109375 
Q 20.015625 56 32.328125 56 
Q 43.359375 56 49.78125 48.890625 
Q 56.203125 41.796875 56.203125 29.59375 
z
M 47.21875 32.234375 
Q 47.125 39.59375 43.09375 43.984375 
Q 39.0625 48.390625 32.421875 48.390625 
Q 24.90625 48.390625 20.390625 44.140625 
Q 15.875 39.890625 15.1875 32.171875 
z
" id="DejaVuSans-101"/>
      <path d="M 41.109375 46.296875 
Q 39.59375 47.171875 37.8125 47.578125 
Q 36.03125 48 33.890625 48 
Q 26.265625 48 22.1875 43.046875 
Q 18.109375 38.09375 18.109375 28.8125 
L 18.109375 0 
L 9.078125 0 
L 9.078125 54.6875 
L 18.109375 54.6875 
L 18.109375 46.1875 
Q 20.953125 51.171875 25.484375 53.578125 
Q 30.03125 56 36.53125 56 
Q 37.453125 56 38.578125 55.875 
Q 39.703125 55.765625 41.0625 55.515625 
z
" id="DejaVuSans-114"/>
      <path d="M 34.28125 27.484375 
Q 23.390625 27.484375 19.1875 25 
Q 14.984375 22.515625 14.984375 16.5 
Q 14.984375 11.71875 18.140625 8.90625 
Q 21.296875 6.109375 26.703125 6.109375 
Q 34.1875 6.109375 38.703125 11.40625 
Q 43.21875 16.703125 43.21875 25.484375 
L 43.21875 27.484375 
z
M 52.203125 31.203125 
L 52.203125 0 
L 43.21875 0 
L 43.21875 8.296875 
Q 40.140625 3.328125 35.546875 0.953125 
Q 30.953125 -1.421875 24.3125 -1.421875 
Q 15.921875 -1.421875 10.953125 3.296875 
Q 6 8.015625 6 15.921875 
Q 6 25.140625 12.171875 29.828125 
Q 18.359375 34.515625 30.609375 34.515625 
L 43.21875 34.515625 
L 43.21875 35.40625 
Q 43.21875 41.609375 39.140625 45 
Q 35.0625 48.390625 27.6875 48.390625 
Q 23 48.390625 18.546875 47.265625 
Q 14.109375 46.140625 10.015625 43.890625 
L 10.015625 52.203125 
Q 14.9375 54.109375 19.578125 55.046875 
Q 24.21875 56 28.609375 56 
Q 40.484375 56 46.34375 49.84375 
Q 52.203125 43.703125 52.203125 31.203125 
z
" id="DejaVuSans-97"/>
      <path d="M 9.421875 54.6875 
L 18.40625 54.6875 
L 18.40625 0 
L 9.421875 0 
z
M 9.421875 75.984375 
L 18.40625 75.984375 
L 18.40625 64.59375 
L 9.421875 64.59375 
z
" id="DejaVuSans-105"/>
      <path d="M 30.609375 48.390625 
Q 23.390625 48.390625 19.1875 42.75 
Q 14.984375 37.109375 14.984375 27.296875 
Q 14.984375 17.484375 19.15625 11.84375 
Q 23.34375 6.203125 30.609375 6.203125 
Q 37.796875 6.203125 41.984375 11.859375 
Q 46.1875 17.53125 46.1875 27.296875 
Q 46.1875 37.015625 41.984375 42.703125 
Q 37.796875 48.390625 30.609375 48.390625 
z
M 30.609375 56 
Q 42.328125 56 49.015625 48.375 
Q 55.71875 40.765625 55.71875 27.296875 
Q 55.71875 13.875 49.015625 6.21875 
Q 42.328125 -1.421875 30.609375 -1.421875 
Q 18.84375 -1.421875 12.171875 6.21875 
Q 5.515625 13.875 5.515625 27.296875 
Q 5.515625 40.765625 12.171875 48.375 
Q 18.84375 56 30.609375 56 
z
" id="DejaVuSans-111"/>
      <path d="M 54.890625 33.015625 
L 54.890625 0 
L 45.90625 0 
L 45.90625 32.71875 
Q 45.90625 40.484375 42.875 44.328125 
Q 39.84375 48.1875 33.796875 48.1875 
Q 26.515625 48.1875 22.3125 43.546875 
Q 18.109375 38.921875 18.109375 30.90625 
L 18.109375 0 
L 9.078125 0 
L 9.078125 54.6875 
L 18.109375 54.6875 
L 18.109375 46.1875 
Q 21.34375 51.125 25.703125 53.5625 
Q 30.078125 56 35.796875 56 
Q 45.21875 56 50.046875 50.171875 
Q 54.890625 44.34375 54.890625 33.015625 
z
" id="DejaVuSans-110"/>
     </defs>
     <g style="fill:#262626;" transform="translate(139.459688 268.224063)scale(0.12 -0.12)">
      <use xlink:href="#DejaVuSans-73"/>
      <use x="29.492188" xlink:href="#DejaVuSans-116"/>
      <use x="68.701172" xlink:href="#DejaVuSans-101"/>
      <use x="130.224609" xlink:href="#DejaVuSans-114"/>
      <use x="171.337891" xlink:href="#DejaVuSans-97"/>
      <use x="232.617188" xlink:href="#DejaVuSans-116"/>
      <use x="271.826172" xlink:href="#DejaVuSans-105"/>
      <use x="299.609375" xlink:href="#DejaVuSans-111"/>
      <use x="360.791016" xlink:href="#DejaVuSans-110"/>
     </g>
    </g>
   </g>
   <g id="matplotlib.axis_2">
    <g id="ytick_1">
     <g id="line2d_6">
      <path clip-path="url(#pa268eaff0c)" d="M 53.31 222.323688 
L 276.51 222.323688 
" style="fill:none;stroke:#ffffff;stroke-linecap:round;"/>
     </g>
     <g id="text_7">
      <!-- 25 -->
      <defs>
       <path d="M 10.796875 72.90625 
L 49.515625 72.90625 
L 49.515625 64.59375 
L 19.828125 64.59375 
L 19.828125 46.734375 
Q 21.96875 47.46875 24.109375 47.828125 
Q 26.265625 48.1875 28.421875 48.1875 
Q 40.625 48.1875 47.75 41.5 
Q 54.890625 34.8125 54.890625 23.390625 
Q 54.890625 11.625 47.5625 5.09375 
Q 40.234375 -1.421875 26.90625 -1.421875 
Q 22.3125 -1.421875 17.546875 -0.640625 
Q 12.796875 0.140625 7.71875 1.703125 
L 7.71875 11.625 
Q 12.109375 9.234375 16.796875 8.0625 
Q 21.484375 6.890625 26.703125 6.890625 
Q 35.15625 6.890625 40.078125 11.328125 
Q 45.015625 15.765625 45.015625 23.390625 
Q 45.015625 31 40.078125 35.4375 
Q 35.15625 39.890625 26.703125 39.890625 
Q 22.75 39.890625 18.8125 39.015625 
Q 14.890625 38.140625 10.796875 36.28125 
z
" id="DejaVuSans-53"/>
      </defs>
      <g style="fill:#262626;" transform="translate(29.8125 226.502829)scale(0.11 -0.11)">
       <use xlink:href="#DejaVuSans-50"/>
       <use x="63.623047" xlink:href="#DejaVuSans-53"/>
      </g>
     </g>
    </g>
    <g id="ytick_2">
     <g id="line2d_7">
      <path clip-path="url(#pa268eaff0c)" d="M 53.31 193.758291 
L 276.51 193.758291 
" style="fill:none;stroke:#ffffff;stroke-linecap:round;"/>
     </g>
     <g id="text_8">
      <!-- 50 -->
      <g style="fill:#262626;" transform="translate(29.8125 197.937431)scale(0.11 -0.11)">
       <use xlink:href="#DejaVuSans-53"/>
       <use x="63.623047" xlink:href="#DejaVuSans-48"/>
      </g>
     </g>
    </g>
    <g id="ytick_3">
     <g id="line2d_8">
      <path clip-path="url(#pa268eaff0c)" d="M 53.31 165.192894 
L 276.51 165.192894 
" style="fill:none;stroke:#ffffff;stroke-linecap:round;"/>
     </g>
     <g id="text_9">
      <!-- 75 -->
      <defs>
       <path d="M 8.203125 72.90625 
L 55.078125 72.90625 
L 55.078125 68.703125 
L 28.609375 0 
L 18.3125 0 
L 43.21875 64.59375 
L 8.203125 64.59375 
z
" id="DejaVuSans-55"/>
      </defs>
      <g style="fill:#262626;" transform="translate(29.8125 169.372034)scale(0.11 -0.11)">
       <use xlink:href="#DejaVuSans-55"/>
       <use x="63.623047" xlink:href="#DejaVuSans-53"/>
      </g>
     </g>
    </g>
    <g id="ytick_4">
     <g id="line2d_9">
      <path clip-path="url(#pa268eaff0c)" d="M 53.31 136.627496 
L 276.51 136.627496 
" style="fill:none;stroke:#ffffff;stroke-linecap:round;"/>
     </g>
     <g id="text_10">
      <!-- 100 -->
      <defs>
       <path d="M 12.40625 8.296875 
L 28.515625 8.296875 
L 28.515625 63.921875 
L 10.984375 60.40625 
L 10.984375 69.390625 
L 28.421875 72.90625 
L 38.28125 72.90625 
L 38.28125 8.296875 
L 54.390625 8.296875 
L 54.390625 0 
L 12.40625 0 
z
" id="DejaVuSans-49"/>
      </defs>
      <g style="fill:#262626;" transform="translate(22.81375 140.806637)scale(0.11 -0.11)">
       <use xlink:href="#DejaVuSans-49"/>
       <use x="63.623047" xlink:href="#DejaVuSans-48"/>
       <use x="127.246094" xlink:href="#DejaVuSans-48"/>
      </g>
     </g>
    </g>
    <g id="ytick_5">
     <g id="line2d_10">
      <path clip-path="url(#pa268eaff0c)" d="M 53.31 108.062099 
L 276.51 108.062099 
" style="fill:none;stroke:#ffffff;stroke-linecap:round;"/>
     </g>
     <g id="text_11">
      <!-- 125 -->
      <g style="fill:#262626;" transform="translate(22.81375 112.24124)scale(0.11 -0.11)">
       <use xlink:href="#DejaVuSans-49"/>
       <use x="63.623047" xlink:href="#DejaVuSans-50"/>
       <use x="127.246094" xlink:href="#DejaVuSans-53"/>
      </g>
     </g>
    </g>
    <g id="ytick_6">
     <g id="line2d_11">
      <path clip-path="url(#pa268eaff0c)" d="M 53.31 79.496702 
L 276.51 79.496702 
" style="fill:none;stroke:#ffffff;stroke-linecap:round;"/>
     </g>
     <g id="text_12">
      <!-- 150 -->
      <g style="fill:#262626;" transform="translate(22.81375 83.675842)scale(0.11 -0.11)">
       <use xlink:href="#DejaVuSans-49"/>
       <use x="63.623047" xlink:href="#DejaVuSans-53"/>
       <use x="127.246094" xlink:href="#DejaVuSans-48"/>
      </g>
     </g>
    </g>
    <g id="ytick_7">
     <g id="line2d_12">
      <path clip-path="url(#pa268eaff0c)" d="M 53.31 50.931305 
L 276.51 50.931305 
" style="fill:none;stroke:#ffffff;stroke-linecap:round;"/>
     </g>
     <g id="text_13">
      <!-- 175 -->
      <g style="fill:#262626;" transform="translate(22.81375 55.110445)scale(0.11 -0.11)">
       <use xlink:href="#DejaVuSans-49"/>
       <use x="63.623047" xlink:href="#DejaVuSans-55"/>
       <use x="127.246094" xlink:href="#DejaVuSans-53"/>
      </g>
     </g>
    </g>
    <g id="ytick_8">
     <g id="line2d_13">
      <path clip-path="url(#pa268eaff0c)" d="M 53.31 22.365907 
L 276.51 22.365907 
" style="fill:none;stroke:#ffffff;stroke-linecap:round;"/>
     </g>
     <g id="text_14">
      <!-- 200 -->
      <g style="fill:#262626;" transform="translate(22.81375 26.545048)scale(0.11 -0.11)">
       <use xlink:href="#DejaVuSans-50"/>
       <use x="63.623047" xlink:href="#DejaVuSans-48"/>
       <use x="127.246094" xlink:href="#DejaVuSans-48"/>
      </g>
     </g>
    </g>
    <g id="text_15">
     <!-- AverageReturn -->
     <defs>
      <path d="M 34.1875 63.1875 
L 20.796875 26.90625 
L 47.609375 26.90625 
z
M 28.609375 72.90625 
L 39.796875 72.90625 
L 67.578125 0 
L 57.328125 0 
L 50.6875 18.703125 
L 17.828125 18.703125 
L 11.1875 0 
L 0.78125 0 
z
" id="DejaVuSans-65"/>
      <path d="M 2.984375 54.6875 
L 12.5 54.6875 
L 29.59375 8.796875 
L 46.6875 54.6875 
L 56.203125 54.6875 
L 35.6875 0 
L 23.484375 0 
z
" id="DejaVuSans-118"/>
      <path d="M 45.40625 27.984375 
Q 45.40625 37.75 41.375 43.109375 
Q 37.359375 48.484375 30.078125 48.484375 
Q 22.859375 48.484375 18.828125 43.109375 
Q 14.796875 37.75 14.796875 27.984375 
Q 14.796875 18.265625 18.828125 12.890625 
Q 22.859375 7.515625 30.078125 7.515625 
Q 37.359375 7.515625 41.375 12.890625 
Q 45.40625 18.265625 45.40625 27.984375 
z
M 54.390625 6.78125 
Q 54.390625 -7.171875 48.1875 -13.984375 
Q 42 -20.796875 29.203125 -20.796875 
Q 24.46875 -20.796875 20.265625 -20.09375 
Q 16.0625 -19.390625 12.109375 -17.921875 
L 12.109375 -9.1875 
Q 16.0625 -11.328125 19.921875 -12.34375 
Q 23.78125 -13.375 27.78125 -13.375 
Q 36.625 -13.375 41.015625 -8.765625 
Q 45.40625 -4.15625 45.40625 5.171875 
L 45.40625 9.625 
Q 42.625 4.78125 38.28125 2.390625 
Q 33.9375 0 27.875 0 
Q 17.828125 0 11.671875 7.65625 
Q 5.515625 15.328125 5.515625 27.984375 
Q 5.515625 40.671875 11.671875 48.328125 
Q 17.828125 56 27.875 56 
Q 33.9375 56 38.28125 53.609375 
Q 42.625 51.21875 45.40625 46.390625 
L 45.40625 54.6875 
L 54.390625 54.6875 
z
" id="DejaVuSans-103"/>
      <path d="M 44.390625 34.1875 
Q 47.5625 33.109375 50.5625 29.59375 
Q 53.5625 26.078125 56.59375 19.921875 
L 66.609375 0 
L 56 0 
L 46.6875 18.703125 
Q 43.0625 26.03125 39.671875 28.421875 
Q 36.28125 30.8125 30.421875 30.8125 
L 19.671875 30.8125 
L 19.671875 0 
L 9.8125 0 
L 9.8125 72.90625 
L 32.078125 72.90625 
Q 44.578125 72.90625 50.734375 67.671875 
Q 56.890625 62.453125 56.890625 51.90625 
Q 56.890625 45.015625 53.6875 40.46875 
Q 50.484375 35.9375 44.390625 34.1875 
z
M 19.671875 64.796875 
L 19.671875 38.921875 
L 32.078125 38.921875 
Q 39.203125 38.921875 42.84375 42.21875 
Q 46.484375 45.515625 46.484375 51.90625 
Q 46.484375 58.296875 42.84375 61.546875 
Q 39.203125 64.796875 32.078125 64.796875 
z
" id="DejaVuSans-82"/>
      <path d="M 8.5 21.578125 
L 8.5 54.6875 
L 17.484375 54.6875 
L 17.484375 21.921875 
Q 17.484375 14.15625 20.5 10.265625 
Q 23.53125 6.390625 29.59375 6.390625 
Q 36.859375 6.390625 41.078125 11.03125 
Q 45.3125 15.671875 45.3125 23.6875 
L 45.3125 54.6875 
L 54.296875 54.6875 
L 54.296875 0 
L 45.3125 0 
L 45.3125 8.40625 
Q 42.046875 3.421875 37.71875 1 
Q 33.40625 -1.421875 27.6875 -1.421875 
Q 18.265625 -1.421875 13.375 4.4375 
Q 8.5 10.296875 8.5 21.578125 
z
M 31.109375 56 
z
" id="DejaVuSans-117"/>
     </defs>
     <g style="fill:#262626;" transform="translate(16.318125 169.347187)rotate(-90)scale(0.12 -0.12)">
      <use xlink:href="#DejaVuSans-65"/>
      <use x="68.330078" xlink:href="#DejaVuSans-118"/>
      <use x="127.509766" xlink:href="#DejaVuSans-101"/>
      <use x="189.033203" xlink:href="#DejaVuSans-114"/>
      <use x="230.146484" xlink:href="#DejaVuSans-97"/>
      <use x="291.425781" xlink:href="#DejaVuSans-103"/>
      <use x="354.902344" xlink:href="#DejaVuSans-101"/>
      <use x="416.425781" xlink:href="#DejaVuSans-82"/>
      <use x="485.845703" xlink:href="#DejaVuSans-101"/>
      <use x="547.369141" xlink:href="#DejaVuSans-116"/>
      <use x="586.578125" xlink:href="#DejaVuSans-117"/>
      <use x="649.957031" xlink:href="#DejaVuSans-114"/>
      <use x="691.054688" xlink:href="#DejaVuSans-110"/>
     </g>
    </g>
   </g>
   <g id="PolyCollection_1">
    <defs>
     <path d="M 53.31 -57.984762 
L 53.31 -53.039687 
L 55.564545 -54.419921 
L 57.819091 -58.592374 
L 60.073636 -57.264239 
L 62.328182 -61.025453 
L 64.582727 -63.611291 
L 66.837273 -66.293014 
L 69.091818 -66.66107 
L 71.346364 -69.805766 
L 73.600909 -71.495446 
L 75.855455 -74.189946 
L 78.11 -77.495273 
L 80.364545 -79.428204 
L 82.619091 -81.714134 
L 84.873636 -82.931121 
L 87.128182 -85.941657 
L 89.382727 -89.646736 
L 91.637273 -87.380836 
L 93.891818 -90.185616 
L 96.146364 -95.760933 
L 98.400909 -95.348075 
L 100.655455 -90.867194 
L 102.91 -98.153383 
L 105.164545 -110.717293 
L 107.419091 -101.671017 
L 109.673636 -119.369666 
L 111.928182 -113.894215 
L 114.182727 -114.258496 
L 116.437273 -111.606586 
L 118.691818 -115.754665 
L 120.946364 -119.715698 
L 123.200909 -122.739561 
L 125.455455 -121.533749 
L 127.71 -119.040592 
L 129.964545 -126.748138 
L 132.219091 -127.789722 
L 134.473636 -130.711151 
L 136.728182 -139.204084 
L 138.982727 -138.521692 
L 141.237273 -143.517291 
L 143.491818 -137.141242 
L 145.746364 -153.584099 
L 148.000909 -146.85062 
L 150.255455 -146.458607 
L 152.51 -148.391354 
L 154.764545 -149.731422 
L 157.019091 -154.385233 
L 159.273636 -147.821277 
L 161.528182 -158.113824 
L 163.782727 -164.71749 
L 166.037273 -153.69601 
L 168.291818 -161.546671 
L 170.546364 -154.68316 
L 172.800909 -166.275695 
L 175.055455 -178.381058 
L 177.31 -173.859697 
L 179.564545 -166.816362 
L 181.819091 -169.24835 
L 184.073636 -168.277099 
L 186.328182 -184.280351 
L 188.582727 -173.959254 
L 190.837273 -172.042803 
L 193.091818 -186.496617 
L 195.346364 -182.784144 
L 197.600909 -182.095446 
L 199.855455 -190.642621 
L 202.11 -184.827991 
L 204.364545 -189.956643 
L 206.619091 -195.073609 
L 208.873636 -193.20763 
L 211.128182 -198.18543 
L 213.382727 -194.620289 
L 215.637273 -200.191213 
L 217.891818 -204.607077 
L 220.146364 -199.480591 
L 222.400909 -204.2278 
L 224.655455 -204.99474 
L 226.91 -209.44085 
L 229.164545 -208.041716 
L 231.419091 -207.475224 
L 233.673636 -206.766805 
L 235.928182 -210.248625 
L 238.182727 -214.778715 
L 240.437273 -203.826143 
L 242.691818 -209.250632 
L 244.946364 -218.334431 
L 247.200909 -212.890059 
L 249.455455 -216.293931 
L 251.71 -212.402839 
L 253.964545 -208.836243 
L 256.219091 -210.607724 
L 258.473636 -215.176956 
L 260.728182 -213.978468 
L 262.982727 -219.917194 
L 265.237273 -216.539922 
L 267.491818 -218.217987 
L 269.746364 -215.287671 
L 272.000909 -204.616725 
L 274.255455 -218.467353 
L 276.51 -211.396436 
L 276.51 -230.835951 
L 276.51 -230.835951 
L 274.255455 -240.680731 
L 272.000909 -228.816569 
L 269.746364 -238.526084 
L 267.491818 -241.018942 
L 265.237273 -242.499394 
L 262.982727 -244.290851 
L 260.728182 -241.540413 
L 258.473636 -240.814033 
L 256.219091 -235.874969 
L 253.964545 -234.469795 
L 251.71 -236.790179 
L 249.455455 -240.199522 
L 247.200909 -240.006587 
L 244.946364 -243.880055 
L 242.691818 -235.315333 
L 240.437273 -230.021755 
L 238.182727 -239.078347 
L 235.928182 -236.191773 
L 233.673636 -231.905225 
L 231.419091 -233.978391 
L 229.164545 -234.76293 
L 226.91 -236.088502 
L 224.655455 -232.87351 
L 222.400909 -230.954103 
L 220.146364 -227.077202 
L 217.891818 -233.092236 
L 215.637273 -227.350213 
L 213.382727 -224.616277 
L 211.128182 -227.091218 
L 208.873636 -225.601248 
L 206.619091 -225.699537 
L 204.364545 -221.721518 
L 202.11 -216.955564 
L 199.855455 -214.77186 
L 197.600909 -211.67485 
L 195.346364 -214.599488 
L 193.091818 -215.451397 
L 190.837273 -201.459538 
L 188.582727 -209.974291 
L 186.328182 -217.861763 
L 184.073636 -199.576011 
L 181.819091 -206.278953 
L 179.564545 -197.04078 
L 177.31 -207.3374 
L 175.055455 -212.416595 
L 172.800909 -198.754841 
L 170.546364 -191.263499 
L 168.291818 -198.692605 
L 166.037273 -188.498117 
L 163.782727 -203.867222 
L 161.528182 -191.804139 
L 159.273636 -184.624419 
L 157.019091 -190.80294 
L 154.764545 -184.797457 
L 152.51 -185.69415 
L 150.255455 -182.7695 
L 148.000909 -185.498556 
L 145.746364 -191.4755 
L 143.491818 -168.35842 
L 141.237273 -174.590119 
L 138.982727 -170.875936 
L 136.728182 -167.963026 
L 134.473636 -159.657095 
L 132.219091 -156.291412 
L 129.964545 -154.242514 
L 127.71 -145.335303 
L 125.455455 -149.147382 
L 123.200909 -144.97961 
L 120.946364 -143.229598 
L 118.691818 -141.686338 
L 116.437273 -129.494094 
L 114.182727 -135.98824 
L 111.928182 -136.371261 
L 109.673636 -148.796571 
L 107.419091 -112.992808 
L 105.164545 -134.681632 
L 102.91 -110.476261 
L 100.655455 -105.79022 
L 98.400909 -106.355772 
L 96.146364 -111.999525 
L 93.891818 -98.228281 
L 91.637273 -95.359174 
L 89.382727 -98.510043 
L 87.128182 -99.812353 
L 84.873636 -90.969116 
L 82.619091 -88.086725 
L 80.364545 -89.717408 
L 78.11 -85.407591 
L 75.855455 -83.045459 
L 73.600909 -78.08982 
L 71.346364 -76.725813 
L 69.091818 -71.881925 
L 66.837273 -71.881892 
L 64.582727 -69.997032 
L 62.328182 -67.544034 
L 60.073636 -61.386189 
L 57.819091 -64.144985 
L 55.564545 -58.408862 
L 53.31 -57.984762 
z
" id="m3055a21f86" style="stroke:#ffffff;stroke-opacity:0.2;"/>
    </defs>
    <g clip-path="url(#pa268eaff0c)">
     <use style="fill:#4c72b0;fill-opacity:0.2;stroke:#ffffff;stroke-opacity:0.2;" x="0" xlink:href="#m3055a21f86" y="277.919688"/>
    </g>
   </g>
   <g id="PolyCollection_2">
    <defs>
     <path d="M 53.31 -57.832713 
L 53.31 -53.079511 
L 55.564545 -56.28395 
L 57.819091 -57.354431 
L 60.073636 -58.201408 
L 62.328182 -62.585402 
L 64.582727 -62.890708 
L 66.837273 -65.575646 
L 69.091818 -70.847927 
L 71.346364 -70.001361 
L 73.600909 -74.031682 
L 75.855455 -77.951998 
L 78.11 -78.941736 
L 80.364545 -79.154165 
L 82.619091 -81.626546 
L 84.873636 -87.18611 
L 87.128182 -87.305698 
L 89.382727 -90.09916 
L 91.637273 -95.215345 
L 93.891818 -95.423544 
L 96.146364 -93.278536 
L 98.400909 -100.52323 
L 100.655455 -101.26915 
L 102.91 -101.349053 
L 105.164545 -109.562467 
L 107.419091 -114.449255 
L 109.673636 -120.885395 
L 111.928182 -120.665501 
L 114.182727 -124.035249 
L 116.437273 -131.918572 
L 118.691818 -141.24761 
L 120.946364 -145.612938 
L 123.200909 -138.348162 
L 125.455455 -150.170331 
L 127.71 -159.955116 
L 129.964545 -165.526693 
L 132.219091 -164.01363 
L 134.473636 -160.806748 
L 136.728182 -164.641662 
L 138.982727 -175.701853 
L 141.237273 -177.121648 
L 143.491818 -185.453423 
L 145.746364 -183.406029 
L 148.000909 -171.448458 
L 150.255455 -183.194524 
L 152.51 -192.59434 
L 154.764545 -188.103866 
L 157.019091 -193.315746 
L 159.273636 -199.402371 
L 161.528182 -198.661256 
L 163.782727 -194.299031 
L 166.037273 -190.562331 
L 168.291818 -201.095355 
L 170.546364 -203.813213 
L 172.800909 -212.987136 
L 175.055455 -209.576948 
L 177.31 -215.352742 
L 179.564545 -211.331561 
L 181.819091 -219.022637 
L 184.073636 -230.24756 
L 186.328182 -220.2279 
L 188.582727 -213.665458 
L 190.837273 -229.771959 
L 193.091818 -235.003995 
L 195.346364 -234.843484 
L 197.600909 -229.744264 
L 199.855455 -236.665794 
L 202.11 -232.309709 
L 204.364545 -236.640441 
L 206.619091 -241.472397 
L 208.873636 -239.344631 
L 211.128182 -232.47294 
L 213.382727 -237.448759 
L 215.637273 -247.09842 
L 217.891818 -239.423853 
L 220.146364 -245.346412 
L 222.400909 -239.558571 
L 224.655455 -244.467357 
L 226.91 -243.83892 
L 229.164545 -236.742621 
L 231.419091 -249.326525 
L 233.673636 -250.069224 
L 235.928182 -251.421319 
L 238.182727 -246.260504 
L 240.437273 -247.460253 
L 242.691818 -247.441207 
L 244.946364 -240.422283 
L 247.200909 -236.706059 
L 249.455455 -242.451785 
L 251.71 -233.708056 
L 253.964545 -241.618001 
L 256.219091 -240.240007 
L 258.473636 -239.835738 
L 260.728182 -230.958973 
L 262.982727 -236.986273 
L 265.237273 -237.466934 
L 267.491818 -235.359407 
L 269.746364 -237.228399 
L 272.000909 -228.910265 
L 274.255455 -228.088453 
L 276.51 -232.881018 
L 276.51 -246.679465 
L 276.51 -246.679465 
L 274.255455 -242.36745 
L 272.000909 -242.013783 
L 269.746364 -249.94408 
L 267.491818 -248.262803 
L 265.237273 -247.498339 
L 262.982727 -248.507649 
L 260.728182 -247.419443 
L 258.473636 -248.679042 
L 256.219091 -249.764525 
L 253.964545 -248.564781 
L 251.71 -247.419443 
L 249.455455 -250.716707 
L 247.200909 -247.136511 
L 244.946364 -248.56478 
L 242.691818 -253.38281 
L 240.437273 -252.716284 
L 238.182727 -253.497072 
L 235.928182 -253.877943 
L 233.673636 -254.639688 
L 231.419091 -253.420898 
L 229.164545 -247.914576 
L 226.91 -249.098001 
L 224.655455 -249.764525 
L 222.400909 -247.136509 
L 220.146364 -250.297747 
L 217.891818 -246.717551 
L 215.637273 -250.79288 
L 213.382727 -245.765372 
L 211.128182 -239.67142 
L 208.873636 -246.434944 
L 206.619091 -249.097998 
L 204.364545 -244.279972 
L 202.11 -239.063332 
L 199.855455 -248.417871 
L 197.600909 -240.966385 
L 195.346364 -244.299012 
L 193.091818 -244.206843 
L 190.837273 -243.475377 
L 188.582727 -227.025194 
L 186.328182 -231.099077 
L 184.073636 -240.694331 
L 181.819091 -236.377638 
L 179.564545 -227.476362 
L 177.31 -229.716512 
L 175.055455 -231.1894 
L 172.800909 -237.478012 
L 170.546364 -232.120101 
L 168.291818 -228.321433 
L 166.037273 -220.841491 
L 163.782727 -222.730781 
L 161.528182 -224.730298 
L 159.273636 -229.499417 
L 157.019091 -221.935085 
L 154.764545 -218.439063 
L 152.51 -220.374704 
L 150.255455 -210.14557 
L 148.000909 -199.468884 
L 145.746364 -215.452533 
L 143.491818 -215.044782 
L 141.237273 -209.302041 
L 138.982727 -209.443156 
L 136.728182 -194.8204 
L 134.473636 -189.687711 
L 132.219091 -197.283253 
L 129.964545 -195.448403 
L 127.71 -194.469228 
L 125.455455 -179.398858 
L 123.200909 -167.388399 
L 120.946364 -172.973351 
L 118.691818 -171.186578 
L 116.437273 -160.719476 
L 114.182727 -146.285411 
L 111.928182 -143.587001 
L 109.673636 -150.507046 
L 107.419091 -131.793134 
L 105.164545 -129.549126 
L 102.91 -122.432355 
L 100.655455 -117.793222 
L 98.400909 -118.166007 
L 96.146364 -110.339181 
L 93.891818 -109.710236 
L 91.637273 -108.95243 
L 89.382727 -100.228528 
L 87.128182 -95.244106 
L 84.873636 -94.742268 
L 82.619091 -92.043103 
L 80.364545 -85.153052 
L 78.11 -88.532614 
L 75.855455 -86.276903 
L 73.600909 -79.78186 
L 71.346364 -76.401802 
L 69.091818 -77.509948 
L 66.837273 -70.918827 
L 64.582727 -68.589768 
L 62.328182 -68.277145 
L 60.073636 -63.067164 
L 57.819091 -62.98252 
L 55.564545 -63.433841 
L 53.31 -57.832713 
z
" id="m7f0bc8eed6" style="stroke:#ffffff;stroke-opacity:0.2;"/>
    </defs>
    <g clip-path="url(#pa268eaff0c)">
     <use style="fill:#dd8452;fill-opacity:0.2;stroke:#ffffff;stroke-opacity:0.2;" x="0" xlink:href="#m7f0bc8eed6" y="277.919688"/>
    </g>
   </g>
   <g id="PolyCollection_3">
    <defs>
     <path d="M 53.31 -57.884782 
L 53.31 -53.064195 
L 55.564545 -54.039475 
L 57.819091 -57.503508 
L 60.073636 -57.452269 
L 62.328182 -62.710419 
L 64.582727 -63.098209 
L 66.837273 -68.020735 
L 69.091818 -68.735318 
L 71.346364 -71.73154 
L 73.600909 -72.529672 
L 75.855455 -75.692486 
L 78.11 -79.498913 
L 80.364545 -81.036617 
L 82.619091 -79.366385 
L 84.873636 -83.270039 
L 87.128182 -86.014877 
L 89.382727 -92.163096 
L 91.637273 -84.494555 
L 93.891818 -95.520567 
L 96.146364 -91.962885 
L 98.400909 -98.568641 
L 100.655455 -100.457513 
L 102.91 -104.042583 
L 105.164545 -103.104341 
L 107.419091 -104.662885 
L 109.673636 -115.919558 
L 111.928182 -113.119549 
L 114.182727 -127.068937 
L 116.437273 -117.67201 
L 118.691818 -139.614841 
L 120.946364 -120.350197 
L 123.200909 -128.912171 
L 125.455455 -139.93979 
L 127.71 -135.671075 
L 129.964545 -148.698305 
L 132.219091 -144.204413 
L 134.473636 -154.206997 
L 136.728182 -159.912516 
L 138.982727 -158.609842 
L 141.237273 -159.004139 
L 143.491818 -156.146931 
L 145.746364 -171.85126 
L 148.000909 -172.730015 
L 150.255455 -169.884895 
L 152.51 -176.359994 
L 154.764545 -184.022124 
L 157.019091 -179.980773 
L 159.273636 -183.471366 
L 161.528182 -182.390961 
L 163.782727 -188.443741 
L 166.037273 -187.952675 
L 168.291818 -189.272809 
L 170.546364 -184.680143 
L 172.800909 -187.389997 
L 175.055455 -193.509523 
L 177.31 -193.779067 
L 179.564545 -196.085075 
L 181.819091 -199.764199 
L 184.073636 -208.607961 
L 186.328182 -202.676946 
L 188.582727 -197.49393 
L 190.837273 -201.200827 
L 193.091818 -209.24961 
L 195.346364 -212.347855 
L 197.600909 -198.646648 
L 199.855455 -209.475279 
L 202.11 -203.575012 
L 204.364545 -217.377679 
L 206.619091 -221.404798 
L 208.873636 -217.017702 
L 211.128182 -226.052527 
L 213.382727 -227.415721 
L 215.637273 -228.086566 
L 217.891818 -239.652377 
L 220.146364 -227.559692 
L 222.400909 -228.260279 
L 224.655455 -225.209165 
L 226.91 -227.873529 
L 229.164545 -220.832596 
L 231.419091 -225.282622 
L 233.673636 -235.691309 
L 235.928182 -242.985007 
L 238.182727 -236.542831 
L 240.437273 -232.355957 
L 242.691818 -238.740678 
L 244.946364 -241.823348 
L 247.200909 -239.728549 
L 249.455455 -242.16613 
L 251.71 -238.474394 
L 253.964545 -249.231306 
L 256.219091 -246.450942 
L 258.473636 -244.81319 
L 260.728182 -241.518646 
L 262.982727 -236.583636 
L 265.237273 -242.897948 
L 267.491818 -241.747172 
L 269.746364 -248.812346 
L 272.000909 -240.585512 
L 274.255455 -237.252881 
L 276.51 -240.971826 
L 276.51 -249.15513 
L 276.51 -249.15513 
L 274.255455 -246.565201 
L 272.000909 -248.298168 
L 269.746364 -253.363767 
L 267.491818 -249.174175 
L 265.237273 -251.649842 
L 262.982727 -247.994779 
L 260.728182 -249.136087 
L 258.473636 -250.453143 
L 256.219091 -251.15471 
L 253.964545 -252.887677 
L 251.71 -247.403122 
L 249.455455 -246.927032 
L 247.200909 -246.29859 
L 244.946364 -249.383657 
L 242.691818 -248.812782 
L 240.437273 -240.988041 
L 238.182727 -248.850434 
L 235.928182 -249.751578 
L 233.673636 -249.383656 
L 231.419091 -240.395077 
L 229.164545 -237.807866 
L 226.91 -240.272654 
L 224.655455 -242.054589 
L 222.400909 -239.842814 
L 220.146364 -238.629355 
L 217.891818 -246.45094 
L 215.637273 -245.536849 
L 213.382727 -239.674032 
L 211.128182 -240.297138 
L 208.873636 -237.450067 
L 206.619091 -241.728125 
L 204.364545 -237.997326 
L 202.11 -225.703213 
L 199.855455 -232.406209 
L 197.600909 -227.120275 
L 195.346364 -237.533776 
L 193.091818 -237.379395 
L 190.837273 -230.700254 
L 188.582727 -226.435356 
L 186.328182 -232.341921 
L 184.073636 -236.120932 
L 181.819091 -229.19206 
L 179.564545 -224.526635 
L 177.31 -220.119952 
L 175.055455 -219.98181 
L 172.800909 -218.587437 
L 170.546364 -212.271052 
L 168.291818 -217.496825 
L 166.037273 -218.411649 
L 163.782727 -219.755407 
L 161.528182 -214.898855 
L 159.273636 -215.543703 
L 157.019091 -208.541655 
L 154.764545 -218.567123 
L 152.51 -207.533018 
L 150.255455 -194.726282 
L 148.000909 -202.719796 
L 145.746364 -204.351129 
L 143.491818 -180.663833 
L 141.237273 -189.336005 
L 138.982727 -183.987807 
L 136.728182 -190.882643 
L 134.473636 -184.88446 
L 132.219091 -172.489962 
L 129.964545 -178.52516 
L 127.71 -159.778251 
L 125.455455 -166.478643 
L 123.200909 -155.99156 
L 120.946364 -145.211379 
L 118.691818 -165.482147 
L 116.437273 -136.636532 
L 114.182727 -154.95087 
L 111.928182 -134.672789 
L 109.673636 -137.261489 
L 107.419091 -119.149242 
L 105.164545 -120.009778 
L 102.91 -120.854997 
L 100.655455 -112.030079 
L 98.400909 -109.955011 
L 96.146364 -101.892891 
L 93.891818 -103.965881 
L 91.637273 -93.362064 
L 89.382727 -100.143879 
L 87.128182 -93.535799 
L 84.873636 -89.807094 
L 82.619091 -85.591416 
L 80.364545 -90.089505 
L 78.11 -87.965863 
L 75.855455 -83.001619 
L 73.600909 -77.813411 
L 71.346364 -78.185878 
L 69.091818 -74.027323 
L 66.837273 -73.255955 
L 64.582727 -69.734905 
L 62.328182 -68.623182 
L 60.073636 -61.831273 
L 57.819091 -63.500957 
L 55.564545 -57.883686 
L 53.31 -57.884782 
z
" id="m2760b02d98" style="stroke:#ffffff;stroke-opacity:0.2;"/>
    </defs>
    <g clip-path="url(#pa268eaff0c)">
     <use style="fill:#55a868;fill-opacity:0.2;stroke:#ffffff;stroke-opacity:0.2;" x="0" xlink:href="#m2760b02d98" y="277.919688"/>
    </g>
   </g>
   <g id="line2d_14">
    <path clip-path="url(#pa268eaff0c)" d="M 53.31 222.414565 
L 55.564545 221.509708 
L 57.819091 216.499675 
L 60.073636 218.575718 
L 62.328182 213.544406 
L 64.582727 211.035247 
L 66.837273 208.772951 
L 69.091818 208.579572 
L 71.346364 204.56748 
L 73.600909 203.036933 
L 75.855455 199.142976 
L 78.11 196.418288 
L 80.364545 193.268859 
L 82.619091 192.992077 
L 84.873636 190.889774 
L 87.128182 184.977148 
L 89.382727 183.79302 
L 91.637273 186.525434 
L 93.891818 183.610151 
L 96.146364 173.939582 
L 98.400909 177.004054 
L 100.655455 179.690222 
L 102.91 173.504236 
L 105.164545 155.193686 
L 107.419091 170.368953 
L 109.673636 143.567639 
L 111.928182 152.426549 
L 114.182727 152.414107 
L 116.437273 157.280999 
L 118.691818 149.09964 
L 120.946364 146.354611 
L 123.200909 143.678092 
L 125.455455 142.004576 
L 127.71 145.367361 
L 129.964545 137.148247 
L 132.219091 135.44123 
L 134.473636 132.629171 
L 136.728182 124.059621 
L 138.982727 122.777218 
L 141.237273 118.518331 
L 143.491818 124.376073 
L 145.746364 104.94337 
L 148.000909 109.523756 
L 150.255455 112.635431 
L 152.51 110.346049 
L 154.764545 110.071523 
L 157.019091 104.240845 
L 159.273636 111.460066 
L 161.528182 102.210194 
L 163.782727 92.987668 
L 166.037273 106.117447 
L 168.291818 97.185399 
L 170.546364 104.517723 
L 172.800909 94.947758 
L 175.055455 81.989667 
L 177.31 86.821776 
L 179.564545 95.528304 
L 181.819091 89.637261 
L 184.073636 93.592933 
L 186.328182 76.247243 
L 188.582727 85.590652 
L 190.837273 90.744606 
L 193.091818 76.58049 
L 195.346364 78.970011 
L 197.600909 80.730289 
L 199.855455 75.102528 
L 202.11 76.803664 
L 204.364545 71.880308 
L 206.619091 67.219462 
L 208.873636 68.234317 
L 211.128182 64.861969 
L 213.382727 68.16576 
L 215.637273 63.88095 
L 217.891818 58.805197 
L 220.146364 64.459877 
L 222.400909 60.249202 
L 224.655455 58.833989 
L 226.91 55.199791 
L 229.164545 56.601536 
L 231.419091 57.247658 
L 233.673636 58.54058 
L 235.928182 54.835241 
L 238.182727 51.133984 
L 240.437273 60.918312 
L 242.691818 55.711247 
L 244.946364 46.831488 
L 247.200909 51.304643 
L 249.455455 49.621379 
L 251.71 53.238299 
L 253.964545 56.429465 
L 256.219091 54.513437 
L 258.473636 49.819454 
L 260.728182 50.096524 
L 262.982727 46.125414 
L 265.237273 48.398506 
L 267.491818 48.289688 
L 269.746364 50.955789 
L 272.000909 61.161799 
L 274.255455 48.554935 
L 276.51 56.696755 
" style="fill:none;stroke:#4c72b0;stroke-linecap:round;stroke-width:1.5;"/>
   </g>
   <g id="line2d_15">
    <path clip-path="url(#pa268eaff0c)" d="M 53.31 222.414565 
L 55.564545 218.002361 
L 57.819091 217.697234 
L 60.073636 217.257242 
L 62.328182 212.479618 
L 64.582727 212.166989 
L 66.837273 209.64937 
L 69.091818 203.708584 
L 71.346364 204.68137 
L 73.600909 200.97851 
L 75.855455 195.763044 
L 78.11 194.097659 
L 80.364545 195.75391 
L 82.619091 191.027375 
L 84.873636 186.949218 
L 87.128182 186.583751 
L 89.382727 182.730267 
L 91.637273 175.791053 
L 93.891818 175.320494 
L 96.146364 176.072438 
L 98.400909 168.62391 
L 100.655455 168.30672 
L 102.91 165.985326 
L 105.164545 158.231768 
L 107.419091 154.70407 
L 109.673636 142.127257 
L 111.928182 145.696603 
L 114.182727 142.471314 
L 116.437273 131.554071 
L 118.691818 121.761627 
L 120.946364 118.726519 
L 123.200909 124.842529 
L 125.455455 112.93798 
L 127.71 100.275349 
L 129.964545 96.995704 
L 132.219091 96.999449 
L 134.473636 102.607653 
L 136.728182 97.974546 
L 138.982727 85.048002 
L 141.237273 84.400153 
L 143.491818 77.424578 
L 145.746364 78.237513 
L 148.000909 92.265162 
L 150.255455 81.12357 
L 152.51 71.182809 
L 154.764545 74.326469 
L 157.019091 70.135564 
L 159.273636 63.279717 
L 161.528182 65.885437 
L 163.782727 69.222993 
L 166.037273 71.820772 
L 168.291818 63.101031 
L 170.546364 59.658962 
L 172.800909 52.315717 
L 175.055455 57.267745 
L 177.31 55.270527 
L 179.564545 58.266944 
L 181.819091 50.031495 
L 184.073636 42.407934 
L 186.328182 52.106571 
L 188.582727 57.593842 
L 190.837273 41.419707 
L 193.091818 38.335325 
L 195.346364 38.319003 
L 197.600909 42.554841 
L 199.855455 35.454302 
L 202.11 42.239261 
L 204.364545 37.46748 
L 206.619091 32.644011 
L 208.873636 35.0299 
L 211.128182 41.80942 
L 213.382727 36.357511 
L 215.637273 28.974037 
L 217.891818 34.858507 
L 220.146364 30.059521 
L 222.400909 34.542928 
L 224.655455 30.783179 
L 226.91 31.430661 
L 229.164545 35.620252 
L 231.419091 26.555498 
L 233.673636 25.565232 
L 235.928182 25.279578 
L 238.182727 28.0409 
L 240.437273 27.793332 
L 242.691818 27.56481 
L 244.946364 33.435677 
L 247.200909 35.905906 
L 249.455455 31.37353 
L 251.71 37.418511 
L 253.964545 32.815402 
L 256.219091 32.984073 
L 258.473636 33.612512 
L 260.728182 38.698514 
L 262.982727 35.163205 
L 265.237273 35.331876 
L 267.491818 35.756277 
L 269.746364 34.162055 
L 272.000909 42.318836 
L 274.255455 42.663662 
L 276.51 38.044229 
" style="fill:none;stroke:#dd8452;stroke-linecap:round;stroke-width:1.5;"/>
   </g>
   <g id="line2d_16">
    <path clip-path="url(#pa268eaff0c)" d="M 53.31 222.414565 
L 55.564545 221.930755 
L 57.819091 217.439466 
L 60.073636 218.278138 
L 62.328182 212.293839 
L 64.582727 211.462691 
L 66.837273 207.275612 
L 69.091818 206.505297 
L 71.346364 202.923313 
L 73.600909 202.730067 
L 75.855455 198.545433 
L 78.11 194.193361 
L 80.364545 192.413601 
L 82.619091 195.44523 
L 84.873636 191.395615 
L 87.128182 188.136038 
L 89.382727 181.834512 
L 91.637273 188.935959 
L 93.891818 178.257248 
L 96.146364 180.999995 
L 98.400909 173.675668 
L 100.655455 171.706028 
L 102.91 165.530079 
L 105.164545 166.388414 
L 107.419091 165.899666 
L 109.673636 151.355122 
L 111.928182 154.073881 
L 114.182727 136.961199 
L 116.437273 150.878444 
L 118.691818 125.34078 
L 120.946364 145.171428 
L 123.200909 135.428738 
L 125.455455 124.991496 
L 127.71 130.27587 
L 129.964545 114.474447 
L 132.219091 119.744891 
L 134.473636 108.516215 
L 136.728182 102.477762 
L 138.982727 106.540032 
L 141.237273 104.122525 
L 143.491818 109.506179 
L 145.746364 90.217885 
L 148.000909 90.368422 
L 150.255455 95.657194 
L 152.51 85.946633 
L 154.764545 76.602161 
L 157.019091 83.712219 
L 159.273636 78.336332 
L 161.528182 79.397855 
L 163.782727 73.717423 
L 166.037273 74.803814 
L 168.291818 74.657997 
L 170.546364 79.484462 
L 172.800909 74.926236 
L 175.055455 71.140641 
L 177.31 70.957011 
L 179.564545 67.519267 
L 181.819091 63.580458 
L 184.073636 55.49415 
L 186.328182 60.362646 
L 188.582727 65.930859 
L 190.837273 61.896606 
L 193.091818 54.616808 
L 195.346364 52.954687 
L 197.600909 64.855313 
L 199.855455 57.01764 
L 202.11 63.438579 
L 204.364545 50.402436 
L 206.619091 46.277051 
L 208.873636 50.746308 
L 211.128182 44.706769 
L 213.382727 44.459201 
L 215.637273 41.079414 
L 217.891818 34.763289 
L 220.146364 44.739413 
L 222.400909 43.991272 
L 224.655455 43.958627 
L 226.91 43.735545 
L 229.164545 48.516169 
L 231.419091 45.057714 
L 233.673636 35.467902 
L 235.928182 31.525877 
L 238.182727 35.206732 
L 240.437273 41.240833 
L 242.691818 34.102204 
L 244.946364 32.268576 
L 247.200909 34.877552 
L 249.455455 33.354063 
L 251.71 34.912916 
L 253.964545 26.860196 
L 256.219091 29.069253 
L 258.473636 30.249957 
L 260.728182 32.516146 
L 262.982727 35.61209 
L 265.237273 30.660755 
L 267.491818 32.420927 
L 269.746364 26.898283 
L 272.000909 33.487369 
L 274.255455 36.115386 
L 276.51 32.875253 
" style="fill:none;stroke:#55a868;stroke-linecap:round;stroke-width:1.5;"/>
   </g>
   <g id="patch_3">
    <path d="M 53.31 234.96 
L 53.31 13.2 
" style="fill:none;stroke:#ffffff;stroke-linecap:square;stroke-linejoin:miter;stroke-width:1.25;"/>
   </g>
   <g id="patch_4">
    <path d="M 276.51 234.96 
L 276.51 13.2 
" style="fill:none;stroke:#ffffff;stroke-linecap:square;stroke-linejoin:miter;stroke-width:1.25;"/>
   </g>
   <g id="patch_5">
    <path d="M 53.31 234.96 
L 276.51 234.96 
" style="fill:none;stroke:#ffffff;stroke-linecap:square;stroke-linejoin:miter;stroke-width:1.25;"/>
   </g>
   <g id="patch_6">
    <path d="M 53.31 13.2 
L 276.51 13.2 
" style="fill:none;stroke:#ffffff;stroke-linecap:square;stroke-linejoin:miter;stroke-width:1.25;"/>
   </g>
   <g id="legend_1">
    <g id="patch_7">
     <path d="M 58.1736 49.933207 
L 130.577188 49.933207 
Q 131.966788 49.933207 131.966788 48.543607 
L 131.966788 18.0636 
Q 131.966788 16.674 130.577188 16.674 
L 58.1736 16.674 
Q 56.784 16.674 56.784 18.0636 
L 56.784 48.543607 
Q 56.784 49.933207 58.1736 49.933207 
z
" style="fill:#eaeaf2;opacity:0.8;stroke:#cccccc;stroke-linejoin:miter;"/>
    </g>
    <g id="line2d_17">
     <path d="M 59.5632 22.300794 
L 73.4592 22.300794 
" style="fill:none;stroke:#4c72b0;stroke-linecap:round;stroke-width:1.5;"/>
    </g>
    <g id="line2d_18"/>
    <g id="text_16">
     <!-- sb_no_rtg_dna -->
     <defs>
      <path d="M 44.28125 53.078125 
L 44.28125 44.578125 
Q 40.484375 46.53125 36.375 47.5 
Q 32.28125 48.484375 27.875 48.484375 
Q 21.1875 48.484375 17.84375 46.4375 
Q 14.5 44.390625 14.5 40.28125 
Q 14.5 37.15625 16.890625 35.375 
Q 19.28125 33.59375 26.515625 31.984375 
L 29.59375 31.296875 
Q 39.15625 29.25 43.1875 25.515625 
Q 47.21875 21.78125 47.21875 15.09375 
Q 47.21875 7.46875 41.1875 3.015625 
Q 35.15625 -1.421875 24.609375 -1.421875 
Q 20.21875 -1.421875 15.453125 -0.5625 
Q 10.6875 0.296875 5.421875 2 
L 5.421875 11.28125 
Q 10.40625 8.6875 15.234375 7.390625 
Q 20.0625 6.109375 24.8125 6.109375 
Q 31.15625 6.109375 34.5625 8.28125 
Q 37.984375 10.453125 37.984375 14.40625 
Q 37.984375 18.0625 35.515625 20.015625 
Q 33.0625 21.96875 24.703125 23.78125 
L 21.578125 24.515625 
Q 13.234375 26.265625 9.515625 29.90625 
Q 5.8125 33.546875 5.8125 39.890625 
Q 5.8125 47.609375 11.28125 51.796875 
Q 16.75 56 26.8125 56 
Q 31.78125 56 36.171875 55.265625 
Q 40.578125 54.546875 44.28125 53.078125 
z
" id="DejaVuSans-115"/>
      <path d="M 48.6875 27.296875 
Q 48.6875 37.203125 44.609375 42.84375 
Q 40.53125 48.484375 33.40625 48.484375 
Q 26.265625 48.484375 22.1875 42.84375 
Q 18.109375 37.203125 18.109375 27.296875 
Q 18.109375 17.390625 22.1875 11.75 
Q 26.265625 6.109375 33.40625 6.109375 
Q 40.53125 6.109375 44.609375 11.75 
Q 48.6875 17.390625 48.6875 27.296875 
z
M 18.109375 46.390625 
Q 20.953125 51.265625 25.265625 53.625 
Q 29.59375 56 35.59375 56 
Q 45.5625 56 51.78125 48.09375 
Q 58.015625 40.1875 58.015625 27.296875 
Q 58.015625 14.40625 51.78125 6.484375 
Q 45.5625 -1.421875 35.59375 -1.421875 
Q 29.59375 -1.421875 25.265625 0.953125 
Q 20.953125 3.328125 18.109375 8.203125 
L 18.109375 0 
L 9.078125 0 
L 9.078125 75.984375 
L 18.109375 75.984375 
z
" id="DejaVuSans-98"/>
      <path d="M 50.984375 -16.609375 
L 50.984375 -23.578125 
L -0.984375 -23.578125 
L -0.984375 -16.609375 
z
" id="DejaVuSans-95"/>
      <path d="M 45.40625 46.390625 
L 45.40625 75.984375 
L 54.390625 75.984375 
L 54.390625 0 
L 45.40625 0 
L 45.40625 8.203125 
Q 42.578125 3.328125 38.25 0.953125 
Q 33.9375 -1.421875 27.875 -1.421875 
Q 17.96875 -1.421875 11.734375 6.484375 
Q 5.515625 14.40625 5.515625 27.296875 
Q 5.515625 40.1875 11.734375 48.09375 
Q 17.96875 56 27.875 56 
Q 33.9375 56 38.25 53.625 
Q 42.578125 51.265625 45.40625 46.390625 
z
M 14.796875 27.296875 
Q 14.796875 17.390625 18.875 11.75 
Q 22.953125 6.109375 30.078125 6.109375 
Q 37.203125 6.109375 41.296875 11.75 
Q 45.40625 17.390625 45.40625 27.296875 
Q 45.40625 37.203125 41.296875 42.84375 
Q 37.203125 48.484375 30.078125 48.484375 
Q 22.953125 48.484375 18.875 42.84375 
Q 14.796875 37.203125 14.796875 27.296875 
z
" id="DejaVuSans-100"/>
     </defs>
     <g style="fill:#262626;" transform="translate(79.0176 24.732594)scale(0.06948 -0.06948)">
      <use xlink:href="#DejaVuSans-115"/>
      <use x="52.099609" xlink:href="#DejaVuSans-98"/>
      <use x="115.576172" xlink:href="#DejaVuSans-95"/>
      <use x="165.576172" xlink:href="#DejaVuSans-110"/>
      <use x="228.955078" xlink:href="#DejaVuSans-111"/>
      <use x="290.136719" xlink:href="#DejaVuSans-95"/>
      <use x="340.136719" xlink:href="#DejaVuSans-114"/>
      <use x="381.25" xlink:href="#DejaVuSans-116"/>
      <use x="420.458984" xlink:href="#DejaVuSans-103"/>
      <use x="483.935547" xlink:href="#DejaVuSans-95"/>
      <use x="533.935547" xlink:href="#DejaVuSans-100"/>
      <use x="597.412109" xlink:href="#DejaVuSans-110"/>
      <use x="660.791016" xlink:href="#DejaVuSans-97"/>
     </g>
    </g>
    <g id="line2d_19">
     <path d="M 59.5632 32.692397 
L 73.4592 32.692397 
" style="fill:none;stroke:#dd8452;stroke-linecap:round;stroke-width:1.5;"/>
    </g>
    <g id="line2d_20"/>
    <g id="text_17">
     <!-- sb_rtg_dna -->
     <g style="fill:#262626;" transform="translate(79.0176 35.124197)scale(0.06948 -0.06948)">
      <use xlink:href="#DejaVuSans-115"/>
      <use x="52.099609" xlink:href="#DejaVuSans-98"/>
      <use x="115.576172" xlink:href="#DejaVuSans-95"/>
      <use x="165.576172" xlink:href="#DejaVuSans-114"/>
      <use x="206.689453" xlink:href="#DejaVuSans-116"/>
      <use x="245.898438" xlink:href="#DejaVuSans-103"/>
      <use x="309.375" xlink:href="#DejaVuSans-95"/>
      <use x="359.375" xlink:href="#DejaVuSans-100"/>
      <use x="422.851562" xlink:href="#DejaVuSans-110"/>
      <use x="486.230469" xlink:href="#DejaVuSans-97"/>
     </g>
    </g>
    <g id="line2d_21">
     <path d="M 59.5632 43.083999 
L 73.4592 43.083999 
" style="fill:none;stroke:#55a868;stroke-linecap:round;stroke-width:1.5;"/>
    </g>
    <g id="line2d_22"/>
    <g id="text_18">
     <!-- sb_rtg_na -->
     <g style="fill:#262626;" transform="translate(79.0176 45.515799)scale(0.06948 -0.06948)">
      <use xlink:href="#DejaVuSans-115"/>
      <use x="52.099609" xlink:href="#DejaVuSans-98"/>
      <use x="115.576172" xlink:href="#DejaVuSans-95"/>
      <use x="165.576172" xlink:href="#DejaVuSans-114"/>
      <use x="206.689453" xlink:href="#DejaVuSans-116"/>
      <use x="245.898438" xlink:href="#DejaVuSans-103"/>
      <use x="309.375" xlink:href="#DejaVuSans-95"/>
      <use x="359.375" xlink:href="#DejaVuSans-110"/>
      <use x="422.753906" xlink:href="#DejaVuSans-97"/>
     </g>
    </g>
   </g>
  </g>
 </g>
 <defs>
  <clipPath id="pa268eaff0c">
   <rect height="221.76" width="223.2" x="53.31" y="13.2"/>
  </clipPath>
 </defs>
</svg>
