<?xml version="1.0" encoding="utf-8" standalone="no"?>
<!DOCTYPE svg PUBLIC "-//W3C//DTD SVG 1.1//EN"
  "http://www.w3.org/Graphics/SVG/1.1/DTD/svg11.dtd">
<!-- Created with matplotlib (https://matplotlib.org/) -->
<svg height="277.919688pt" version="1.1" viewBox="0 0 298.927656 277.919688" width="298.927656pt" xmlns="http://www.w3.org/2000/svg" xmlns:xlink="http://www.w3.org/1999/xlink">
 <defs>
  <style type="text/css">
*{stroke-linecap:butt;stroke-linejoin:round;}
  </style>
 </defs>
 <g id="figure_1">
  <g id="patch_1">
   <path d="M 0 277.919688 
L 298.927656 277.919688 
L 298.927656 0 
L 0 0 
z
" style="fill:#ffffff;"/>
  </g>
  <g id="axes_1">
   <g id="patch_2">
    <path d="M 62.527656 234.96 
L 285.727656 234.96 
L 285.727656 13.2 
L 62.527656 13.2 
z
" style="fill:#eaeaf2;"/>
   </g>
   <g id="matplotlib.axis_1">
    <g id="xtick_1">
     <g id="line2d_1">
      <path clip-path="url(#pa96cf8905b)" d="M 62.527656 234.96 
L 62.527656 13.2 
" style="fill:none;stroke:#ffffff;stroke-linecap:round;"/>
     </g>
     <g id="text_1">
      <!-- 0 -->
      <defs>
       <path d="M 31.78125 66.40625 
Q 24.171875 66.40625 20.328125 58.90625 
Q 16.5 51.421875 16.5 36.375 
Q 16.5 21.390625 20.328125 13.890625 
Q 24.171875 6.390625 31.78125 6.390625 
Q 39.453125 6.390625 43.28125 13.890625 
Q 47.125 21.390625 47.125 36.375 
Q 47.125 51.421875 43.28125 58.90625 
Q 39.453125 66.40625 31.78125 66.40625 
z
M 31.78125 74.21875 
Q 44.046875 74.21875 50.515625 64.515625 
Q 56.984375 54.828125 56.984375 36.375 
Q 56.984375 17.96875 50.515625 8.265625 
Q 44.046875 -1.421875 31.78125 -1.421875 
Q 19.53125 -1.421875 13.0625 8.265625 
Q 6.59375 17.96875 6.59375 36.375 
Q 6.59375 54.828125 13.0625 64.515625 
Q 19.53125 74.21875 31.78125 74.21875 
z
" id="DejaVuSans-48"/>
      </defs>
      <g style="fill:#262626;" transform="translate(59.028281 252.818281)scale(0.11 -0.11)">
       <use xlink:href="#DejaVuSans-48"/>
      </g>
     </g>
    </g>
    <g id="xtick_2">
     <g id="line2d_2">
      <path clip-path="url(#pa96cf8905b)" d="M 107.618565 234.96 
L 107.618565 13.2 
" style="fill:none;stroke:#ffffff;stroke-linecap:round;"/>
     </g>
     <g id="text_2">
      <!-- 20 -->
      <defs>
       <path d="M 19.1875 8.296875 
L 53.609375 8.296875 
L 53.609375 0 
L 7.328125 0 
L 7.328125 8.296875 
Q 12.9375 14.109375 22.625 23.890625 
Q 32.328125 33.6875 34.8125 36.53125 
Q 39.546875 41.84375 41.421875 45.53125 
Q 43.3125 49.21875 43.3125 52.78125 
Q 43.3125 58.59375 39.234375 62.25 
Q 35.15625 65.921875 28.609375 65.921875 
Q 23.96875 65.921875 18.8125 64.3125 
Q 13.671875 62.703125 7.8125 59.421875 
L 7.8125 69.390625 
Q 13.765625 71.78125 18.9375 73 
Q 24.125 74.21875 28.421875 74.21875 
Q 39.75 74.21875 46.484375 68.546875 
Q 53.21875 62.890625 53.21875 53.421875 
Q 53.21875 48.921875 51.53125 44.890625 
Q 49.859375 40.875 45.40625 35.40625 
Q 44.1875 33.984375 37.640625 27.21875 
Q 31.109375 20.453125 19.1875 8.296875 
z
" id="DejaVuSans-50"/>
      </defs>
      <g style="fill:#262626;" transform="translate(100.619815 252.818281)scale(0.11 -0.11)">
       <use xlink:href="#DejaVuSans-50"/>
       <use x="63.623047" xlink:href="#DejaVuSans-48"/>
      </g>
     </g>
    </g>
    <g id="xtick_3">
     <g id="line2d_3">
      <path clip-path="url(#pa96cf8905b)" d="M 152.709474 234.96 
L 152.709474 13.2 
" style="fill:none;stroke:#ffffff;stroke-linecap:round;"/>
     </g>
     <g id="text_3">
      <!-- 40 -->
      <defs>
       <path d="M 37.796875 64.3125 
L 12.890625 25.390625 
L 37.796875 25.390625 
z
M 35.203125 72.90625 
L 47.609375 72.90625 
L 47.609375 25.390625 
L 58.015625 25.390625 
L 58.015625 17.1875 
L 47.609375 17.1875 
L 47.609375 0 
L 37.796875 0 
L 37.796875 17.1875 
L 4.890625 17.1875 
L 4.890625 26.703125 
z
" id="DejaVuSans-52"/>
      </defs>
      <g style="fill:#262626;" transform="translate(145.710724 252.818281)scale(0.11 -0.11)">
       <use xlink:href="#DejaVuSans-52"/>
       <use x="63.623047" xlink:href="#DejaVuSans-48"/>
      </g>
     </g>
    </g>
    <g id="xtick_4">
     <g id="line2d_4">
      <path clip-path="url(#pa96cf8905b)" d="M 197.800384 234.96 
L 197.800384 13.2 
" style="fill:none;stroke:#ffffff;stroke-linecap:round;"/>
     </g>
     <g id="text_4">
      <!-- 60 -->
      <defs>
       <path d="M 33.015625 40.375 
Q 26.375 40.375 22.484375 35.828125 
Q 18.609375 31.296875 18.609375 23.390625 
Q 18.609375 15.53125 22.484375 10.953125 
Q 26.375 6.390625 33.015625 6.390625 
Q 39.65625 6.390625 43.53125 10.953125 
Q 47.40625 15.53125 47.40625 23.390625 
Q 47.40625 31.296875 43.53125 35.828125 
Q 39.65625 40.375 33.015625 40.375 
z
M 52.59375 71.296875 
L 52.59375 62.3125 
Q 48.875 64.0625 45.09375 64.984375 
Q 41.3125 65.921875 37.59375 65.921875 
Q 27.828125 65.921875 22.671875 59.328125 
Q 17.53125 52.734375 16.796875 39.40625 
Q 19.671875 43.65625 24.015625 45.921875 
Q 28.375 48.1875 33.59375 48.1875 
Q 44.578125 48.1875 50.953125 41.515625 
Q 57.328125 34.859375 57.328125 23.390625 
Q 57.328125 12.15625 50.6875 5.359375 
Q 44.046875 -1.421875 33.015625 -1.421875 
Q 20.359375 -1.421875 13.671875 8.265625 
Q 6.984375 17.96875 6.984375 36.375 
Q 6.984375 53.65625 15.1875 63.9375 
Q 23.390625 74.21875 37.203125 74.21875 
Q 40.921875 74.21875 44.703125 73.484375 
Q 48.484375 72.75 52.59375 71.296875 
z
" id="DejaVuSans-54"/>
      </defs>
      <g style="fill:#262626;" transform="translate(190.801634 252.818281)scale(0.11 -0.11)">
       <use xlink:href="#DejaVuSans-54"/>
       <use x="63.623047" xlink:href="#DejaVuSans-48"/>
      </g>
     </g>
    </g>
    <g id="xtick_5">
     <g id="line2d_5">
      <path clip-path="url(#pa96cf8905b)" d="M 242.891293 234.96 
L 242.891293 13.2 
" style="fill:none;stroke:#ffffff;stroke-linecap:round;"/>
     </g>
     <g id="text_5">
      <!-- 80 -->
      <defs>
       <path d="M 31.78125 34.625 
Q 24.75 34.625 20.71875 30.859375 
Q 16.703125 27.09375 16.703125 20.515625 
Q 16.703125 13.921875 20.71875 10.15625 
Q 24.75 6.390625 31.78125 6.390625 
Q 38.8125 6.390625 42.859375 10.171875 
Q 46.921875 13.96875 46.921875 20.515625 
Q 46.921875 27.09375 42.890625 30.859375 
Q 38.875 34.625 31.78125 34.625 
z
M 21.921875 38.8125 
Q 15.578125 40.375 12.03125 44.71875 
Q 8.5 49.078125 8.5 55.328125 
Q 8.5 64.0625 14.71875 69.140625 
Q 20.953125 74.21875 31.78125 74.21875 
Q 42.671875 74.21875 48.875 69.140625 
Q 55.078125 64.0625 55.078125 55.328125 
Q 55.078125 49.078125 51.53125 44.71875 
Q 48 40.375 41.703125 38.8125 
Q 48.828125 37.15625 52.796875 32.3125 
Q 56.78125 27.484375 56.78125 20.515625 
Q 56.78125 9.90625 50.3125 4.234375 
Q 43.84375 -1.421875 31.78125 -1.421875 
Q 19.734375 -1.421875 13.25 4.234375 
Q 6.78125 9.90625 6.78125 20.515625 
Q 6.78125 27.484375 10.78125 32.3125 
Q 14.796875 37.15625 21.921875 38.8125 
z
M 18.3125 54.390625 
Q 18.3125 48.734375 21.84375 45.5625 
Q 25.390625 42.390625 31.78125 42.390625 
Q 38.140625 42.390625 41.71875 45.5625 
Q 45.3125 48.734375 45.3125 54.390625 
Q 45.3125 60.0625 41.71875 63.234375 
Q 38.140625 66.40625 31.78125 66.40625 
Q 25.390625 66.40625 21.84375 63.234375 
Q 18.3125 60.0625 18.3125 54.390625 
z
" id="DejaVuSans-56"/>
      </defs>
      <g style="fill:#262626;" transform="translate(235.892543 252.818281)scale(0.11 -0.11)">
       <use xlink:href="#DejaVuSans-56"/>
       <use x="63.623047" xlink:href="#DejaVuSans-48"/>
      </g>
     </g>
    </g>
    <g id="text_6">
     <!-- Iteration -->
     <defs>
      <path d="M 9.8125 72.90625 
L 19.671875 72.90625 
L 19.671875 0 
L 9.8125 0 
z
" id="DejaVuSans-73"/>
      <path d="M 18.3125 70.21875 
L 18.3125 54.6875 
L 36.8125 54.6875 
L 36.8125 47.703125 
L 18.3125 47.703125 
L 18.3125 18.015625 
Q 18.3125 11.328125 20.140625 9.421875 
Q 21.96875 7.515625 27.59375 7.515625 
L 36.8125 7.515625 
L 36.8125 0 
L 27.59375 0 
Q 17.1875 0 13.234375 3.875 
Q 9.28125 7.765625 9.28125 18.015625 
L 9.28125 47.703125 
L 2.6875 47.703125 
L 2.6875 54.6875 
L 9.28125 54.6875 
L 9.28125 70.21875 
z
" id="DejaVuSans-116"/>
      <path d="M 56.203125 29.59375 
L 56.203125 25.203125 
L 14.890625 25.203125 
Q 15.484375 15.921875 20.484375 11.0625 
Q 25.484375 6.203125 34.421875 6.203125 
Q 39.59375 6.203125 44.453125 7.46875 
Q 49.3125 8.734375 54.109375 11.28125 
L 54.109375 2.78125 
Q 49.265625 0.734375 44.1875 -0.34375 
Q 39.109375 -1.421875 33.890625 -1.421875 
Q 20.796875 -1.421875 13.15625 6.1875 
Q 5.515625 13.8125 5.515625 26.8125 
Q 5.515625 40.234375 12.765625 48.109375 
Q 20.015625 56 32.328125 56 
Q 43.359375 56 49.78125 48.890625 
Q 56.203125 41.796875 56.203125 29.59375 
z
M 47.21875 32.234375 
Q 47.125 39.59375 43.09375 43.984375 
Q 39.0625 48.390625 32.421875 48.390625 
Q 24.90625 48.390625 20.390625 44.140625 
Q 15.875 39.890625 15.1875 32.171875 
z
" id="DejaVuSans-101"/>
      <path d="M 41.109375 46.296875 
Q 39.59375 47.171875 37.8125 47.578125 
Q 36.03125 48 33.890625 48 
Q 26.265625 48 22.1875 43.046875 
Q 18.109375 38.09375 18.109375 28.8125 
L 18.109375 0 
L 9.078125 0 
L 9.078125 54.6875 
L 18.109375 54.6875 
L 18.109375 46.1875 
Q 20.953125 51.171875 25.484375 53.578125 
Q 30.03125 56 36.53125 56 
Q 37.453125 56 38.578125 55.875 
Q 39.703125 55.765625 41.0625 55.515625 
z
" id="DejaVuSans-114"/>
      <path d="M 34.28125 27.484375 
Q 23.390625 27.484375 19.1875 25 
Q 14.984375 22.515625 14.984375 16.5 
Q 14.984375 11.71875 18.140625 8.90625 
Q 21.296875 6.109375 26.703125 6.109375 
Q 34.1875 6.109375 38.703125 11.40625 
Q 43.21875 16.703125 43.21875 25.484375 
L 43.21875 27.484375 
z
M 52.203125 31.203125 
L 52.203125 0 
L 43.21875 0 
L 43.21875 8.296875 
Q 40.140625 3.328125 35.546875 0.953125 
Q 30.953125 -1.421875 24.3125 -1.421875 
Q 15.921875 -1.421875 10.953125 3.296875 
Q 6 8.015625 6 15.921875 
Q 6 25.140625 12.171875 29.828125 
Q 18.359375 34.515625 30.609375 34.515625 
L 43.21875 34.515625 
L 43.21875 35.40625 
Q 43.21875 41.609375 39.140625 45 
Q 35.0625 48.390625 27.6875 48.390625 
Q 23 48.390625 18.546875 47.265625 
Q 14.109375 46.140625 10.015625 43.890625 
L 10.015625 52.203125 
Q 14.9375 54.109375 19.578125 55.046875 
Q 24.21875 56 28.609375 56 
Q 40.484375 56 46.34375 49.84375 
Q 52.203125 43.703125 52.203125 31.203125 
z
" id="DejaVuSans-97"/>
      <path d="M 9.421875 54.6875 
L 18.40625 54.6875 
L 18.40625 0 
L 9.421875 0 
z
M 9.421875 75.984375 
L 18.40625 75.984375 
L 18.40625 64.59375 
L 9.421875 64.59375 
z
" id="DejaVuSans-105"/>
      <path d="M 30.609375 48.390625 
Q 23.390625 48.390625 19.1875 42.75 
Q 14.984375 37.109375 14.984375 27.296875 
Q 14.984375 17.484375 19.15625 11.84375 
Q 23.34375 6.203125 30.609375 6.203125 
Q 37.796875 6.203125 41.984375 11.859375 
Q 46.1875 17.53125 46.1875 27.296875 
Q 46.1875 37.015625 41.984375 42.703125 
Q 37.796875 48.390625 30.609375 48.390625 
z
M 30.609375 56 
Q 42.328125 56 49.015625 48.375 
Q 55.71875 40.765625 55.71875 27.296875 
Q 55.71875 13.875 49.015625 6.21875 
Q 42.328125 -1.421875 30.609375 -1.421875 
Q 18.84375 -1.421875 12.171875 6.21875 
Q 5.515625 13.875 5.515625 27.296875 
Q 5.515625 40.765625 12.171875 48.375 
Q 18.84375 56 30.609375 56 
z
" id="DejaVuSans-111"/>
      <path d="M 54.890625 33.015625 
L 54.890625 0 
L 45.90625 0 
L 45.90625 32.71875 
Q 45.90625 40.484375 42.875 44.328125 
Q 39.84375 48.1875 33.796875 48.1875 
Q 26.515625 48.1875 22.3125 43.546875 
Q 18.109375 38.921875 18.109375 30.90625 
L 18.109375 0 
L 9.078125 0 
L 9.078125 54.6875 
L 18.109375 54.6875 
L 18.109375 46.1875 
Q 21.34375 51.125 25.703125 53.5625 
Q 30.078125 56 35.796875 56 
Q 45.21875 56 50.046875 50.171875 
Q 54.890625 44.34375 54.890625 33.015625 
z
" id="DejaVuSans-110"/>
     </defs>
     <g style="fill:#262626;" transform="translate(148.677344 268.224063)scale(0.12 -0.12)">
      <use xlink:href="#DejaVuSans-73"/>
      <use x="29.492188" xlink:href="#DejaVuSans-116"/>
      <use x="68.701172" xlink:href="#DejaVuSans-101"/>
      <use x="130.224609" xlink:href="#DejaVuSans-114"/>
      <use x="171.337891" xlink:href="#DejaVuSans-97"/>
      <use x="232.617188" xlink:href="#DejaVuSans-116"/>
      <use x="271.826172" xlink:href="#DejaVuSans-105"/>
      <use x="299.609375" xlink:href="#DejaVuSans-111"/>
      <use x="360.791016" xlink:href="#DejaVuSans-110"/>
     </g>
    </g>
   </g>
   <g id="matplotlib.axis_2">
    <g id="ytick_1">
     <g id="line2d_6">
      <path clip-path="url(#pa96cf8905b)" d="M 62.527656 213.675119 
L 285.727656 213.675119 
" style="fill:none;stroke:#ffffff;stroke-linecap:round;"/>
     </g>
     <g id="text_7">
      <!-- −200 -->
      <defs>
       <path d="M 10.59375 35.5 
L 73.1875 35.5 
L 73.1875 27.203125 
L 10.59375 27.203125 
z
" id="DejaVuSans-8722"/>
      </defs>
      <g style="fill:#262626;" transform="translate(22.81375 217.854259)scale(0.11 -0.11)">
       <use xlink:href="#DejaVuSans-8722"/>
       <use x="83.789062" xlink:href="#DejaVuSans-50"/>
       <use x="147.412109" xlink:href="#DejaVuSans-48"/>
       <use x="211.035156" xlink:href="#DejaVuSans-48"/>
      </g>
     </g>
    </g>
    <g id="ytick_2">
     <g id="line2d_7">
      <path clip-path="url(#pa96cf8905b)" d="M 62.527656 170.12365 
L 285.727656 170.12365 
" style="fill:none;stroke:#ffffff;stroke-linecap:round;"/>
     </g>
     <g id="text_8">
      <!-- −100 -->
      <defs>
       <path d="M 12.40625 8.296875 
L 28.515625 8.296875 
L 28.515625 63.921875 
L 10.984375 60.40625 
L 10.984375 69.390625 
L 28.421875 72.90625 
L 38.28125 72.90625 
L 38.28125 8.296875 
L 54.390625 8.296875 
L 54.390625 0 
L 12.40625 0 
z
" id="DejaVuSans-49"/>
      </defs>
      <g style="fill:#262626;" transform="translate(22.81375 174.302791)scale(0.11 -0.11)">
       <use xlink:href="#DejaVuSans-8722"/>
       <use x="83.789062" xlink:href="#DejaVuSans-49"/>
       <use x="147.412109" xlink:href="#DejaVuSans-48"/>
       <use x="211.035156" xlink:href="#DejaVuSans-48"/>
      </g>
     </g>
    </g>
    <g id="ytick_3">
     <g id="line2d_8">
      <path clip-path="url(#pa96cf8905b)" d="M 62.527656 126.572181 
L 285.727656 126.572181 
" style="fill:none;stroke:#ffffff;stroke-linecap:round;"/>
     </g>
     <g id="text_9">
      <!-- 0 -->
      <g style="fill:#262626;" transform="translate(46.028906 130.751322)scale(0.11 -0.11)">
       <use xlink:href="#DejaVuSans-48"/>
      </g>
     </g>
    </g>
    <g id="ytick_4">
     <g id="line2d_9">
      <path clip-path="url(#pa96cf8905b)" d="M 62.527656 83.020713 
L 285.727656 83.020713 
" style="fill:none;stroke:#ffffff;stroke-linecap:round;"/>
     </g>
     <g id="text_10">
      <!-- 100 -->
      <g style="fill:#262626;" transform="translate(32.031406 87.199853)scale(0.11 -0.11)">
       <use xlink:href="#DejaVuSans-49"/>
       <use x="63.623047" xlink:href="#DejaVuSans-48"/>
       <use x="127.246094" xlink:href="#DejaVuSans-48"/>
      </g>
     </g>
    </g>
    <g id="ytick_5">
     <g id="line2d_10">
      <path clip-path="url(#pa96cf8905b)" d="M 62.527656 39.469244 
L 285.727656 39.469244 
" style="fill:none;stroke:#ffffff;stroke-linecap:round;"/>
     </g>
     <g id="text_11">
      <!-- 200 -->
      <g style="fill:#262626;" transform="translate(32.031406 43.648384)scale(0.11 -0.11)">
       <use xlink:href="#DejaVuSans-50"/>
       <use x="63.623047" xlink:href="#DejaVuSans-48"/>
       <use x="127.246094" xlink:href="#DejaVuSans-48"/>
      </g>
     </g>
    </g>
    <g id="text_12">
     <!-- AverageReturn -->
     <defs>
      <path d="M 34.1875 63.1875 
L 20.796875 26.90625 
L 47.609375 26.90625 
z
M 28.609375 72.90625 
L 39.796875 72.90625 
L 67.578125 0 
L 57.328125 0 
L 50.6875 18.703125 
L 17.828125 18.703125 
L 11.1875 0 
L 0.78125 0 
z
" id="DejaVuSans-65"/>
      <path d="M 2.984375 54.6875 
L 12.5 54.6875 
L 29.59375 8.796875 
L 46.6875 54.6875 
L 56.203125 54.6875 
L 35.6875 0 
L 23.484375 0 
z
" id="DejaVuSans-118"/>
      <path d="M 45.40625 27.984375 
Q 45.40625 37.75 41.375 43.109375 
Q 37.359375 48.484375 30.078125 48.484375 
Q 22.859375 48.484375 18.828125 43.109375 
Q 14.796875 37.75 14.796875 27.984375 
Q 14.796875 18.265625 18.828125 12.890625 
Q 22.859375 7.515625 30.078125 7.515625 
Q 37.359375 7.515625 41.375 12.890625 
Q 45.40625 18.265625 45.40625 27.984375 
z
M 54.390625 6.78125 
Q 54.390625 -7.171875 48.1875 -13.984375 
Q 42 -20.796875 29.203125 -20.796875 
Q 24.46875 -20.796875 20.265625 -20.09375 
Q 16.0625 -19.390625 12.109375 -17.921875 
L 12.109375 -9.1875 
Q 16.0625 -11.328125 19.921875 -12.34375 
Q 23.78125 -13.375 27.78125 -13.375 
Q 36.625 -13.375 41.015625 -8.765625 
Q 45.40625 -4.15625 45.40625 5.171875 
L 45.40625 9.625 
Q 42.625 4.78125 38.28125 2.390625 
Q 33.9375 0 27.875 0 
Q 17.828125 0 11.671875 7.65625 
Q 5.515625 15.328125 5.515625 27.984375 
Q 5.515625 40.671875 11.671875 48.328125 
Q 17.828125 56 27.875 56 
Q 33.9375 56 38.28125 53.609375 
Q 42.625 51.21875 45.40625 46.390625 
L 45.40625 54.6875 
L 54.390625 54.6875 
z
" id="DejaVuSans-103"/>
      <path d="M 44.390625 34.1875 
Q 47.5625 33.109375 50.5625 29.59375 
Q 53.5625 26.078125 56.59375 19.921875 
L 66.609375 0 
L 56 0 
L 46.6875 18.703125 
Q 43.0625 26.03125 39.671875 28.421875 
Q 36.28125 30.8125 30.421875 30.8125 
L 19.671875 30.8125 
L 19.671875 0 
L 9.8125 0 
L 9.8125 72.90625 
L 32.078125 72.90625 
Q 44.578125 72.90625 50.734375 67.671875 
Q 56.890625 62.453125 56.890625 51.90625 
Q 56.890625 45.015625 53.6875 40.46875 
Q 50.484375 35.9375 44.390625 34.1875 
z
M 19.671875 64.796875 
L 19.671875 38.921875 
L 32.078125 38.921875 
Q 39.203125 38.921875 42.84375 42.21875 
Q 46.484375 45.515625 46.484375 51.90625 
Q 46.484375 58.296875 42.84375 61.546875 
Q 39.203125 64.796875 32.078125 64.796875 
z
" id="DejaVuSans-82"/>
      <path d="M 8.5 21.578125 
L 8.5 54.6875 
L 17.484375 54.6875 
L 17.484375 21.921875 
Q 17.484375 14.15625 20.5 10.265625 
Q 23.53125 6.390625 29.59375 6.390625 
Q 36.859375 6.390625 41.078125 11.03125 
Q 45.3125 15.671875 45.3125 23.6875 
L 45.3125 54.6875 
L 54.296875 54.6875 
L 54.296875 0 
L 45.3125 0 
L 45.3125 8.40625 
Q 42.046875 3.421875 37.71875 1 
Q 33.40625 -1.421875 27.6875 -1.421875 
Q 18.265625 -1.421875 13.375 4.4375 
Q 8.5 10.296875 8.5 21.578125 
z
M 31.109375 56 
z
" id="DejaVuSans-117"/>
     </defs>
     <g style="fill:#262626;" transform="translate(16.318125 169.347187)rotate(-90)scale(0.12 -0.12)">
      <use xlink:href="#DejaVuSans-65"/>
      <use x="68.330078" xlink:href="#DejaVuSans-118"/>
      <use x="127.509766" xlink:href="#DejaVuSans-101"/>
      <use x="189.033203" xlink:href="#DejaVuSans-114"/>
      <use x="230.146484" xlink:href="#DejaVuSans-97"/>
      <use x="291.425781" xlink:href="#DejaVuSans-103"/>
      <use x="354.902344" xlink:href="#DejaVuSans-101"/>
      <use x="416.425781" xlink:href="#DejaVuSans-82"/>
      <use x="485.845703" xlink:href="#DejaVuSans-101"/>
      <use x="547.369141" xlink:href="#DejaVuSans-116"/>
      <use x="586.578125" xlink:href="#DejaVuSans-117"/>
      <use x="649.957031" xlink:href="#DejaVuSans-114"/>
      <use x="691.054688" xlink:href="#DejaVuSans-110"/>
     </g>
    </g>
   </g>
   <g id="PolyCollection_1">
    <defs>
     <path d="M 62.527656 -82.07589 
L 62.527656 -67.764454 
L 64.782202 -75.839105 
L 67.036747 -74.393141 
L 69.291293 -71.072575 
L 71.545838 -62.833016 
L 73.800384 -60.877361 
L 76.054929 -63.967846 
L 78.309474 -67.540113 
L 80.56402 -69.725184 
L 82.818565 -67.206588 
L 85.073111 -67.90686 
L 87.327656 -62.486556 
L 89.582202 -62.93817 
L 91.836747 -61.616306 
L 94.091293 -67.418259 
L 96.345838 -64.726747 
L 98.600384 -66.206533 
L 100.854929 -67.882774 
L 103.109474 -72.735115 
L 105.36402 -75.57409 
L 107.618565 -79.063487 
L 109.873111 -80.473325 
L 112.127656 -83.491385 
L 114.382202 -86.273462 
L 116.636747 -90.058273 
L 118.891293 -93.958055 
L 121.145838 -97.861571 
L 123.400384 -100.419608 
L 125.654929 -102.180913 
L 127.909474 -104.387164 
L 130.16402 -104.972687 
L 132.418565 -106.49968 
L 134.673111 -108.867393 
L 136.927656 -108.342033 
L 139.182202 -110.699235 
L 141.436747 -108.539187 
L 143.691293 -109.946094 
L 145.945838 -109.546754 
L 148.200384 -108.238896 
L 150.454929 -106.72766 
L 152.709474 -104.835521 
L 154.96402 -103.317437 
L 157.218565 -103.960116 
L 159.473111 -102.869966 
L 161.727656 -104.695543 
L 163.982202 -106.074466 
L 166.236747 -107.510635 
L 168.491293 -111.08211 
L 170.745838 -110.979547 
L 173.000384 -111.720692 
L 175.254929 -114.774585 
L 177.509474 -115.191434 
L 179.76402 -115.528096 
L 182.018565 -113.840832 
L 184.273111 -115.862851 
L 186.527656 -117.879426 
L 188.782202 -115.06116 
L 191.036747 -112.596404 
L 193.291293 -113.331187 
L 195.545838 -112.254634 
L 197.800384 -112.676452 
L 200.054929 -114.618462 
L 202.309474 -115.820867 
L 204.56402 -120.295776 
L 206.818565 -123.985747 
L 209.073111 -125.139039 
L 211.327656 -127.512616 
L 213.582202 -127.508335 
L 215.836747 -130.013191 
L 218.091293 -132.309472 
L 220.345838 -131.386502 
L 222.600384 -130.213494 
L 224.854929 -129.850955 
L 227.109474 -127.510871 
L 229.36402 -126.646263 
L 231.618565 -127.248819 
L 233.873111 -125.271244 
L 236.127656 -125.606129 
L 238.382202 -125.867196 
L 240.636747 -128.205213 
L 242.891293 -129.64646 
L 245.145838 -130.091078 
L 247.400384 -130.997427 
L 249.654929 -133.343182 
L 251.909474 -135.922188 
L 254.16402 -138.176046 
L 256.418565 -141.240067 
L 258.673111 -139.976807 
L 260.927656 -138.706164 
L 263.182202 -138.72316 
L 265.436747 -140.196244 
L 267.691293 -140.101115 
L 269.945838 -141.492151 
L 272.200384 -143.989026 
L 274.454929 -141.604746 
L 276.709474 -142.004226 
L 278.96402 -144.62559 
L 281.218565 -149.00564 
L 283.473111 -155.428881 
L 285.727656 -155.349132 
L 285.727656 -183.091822 
L 285.727656 -183.091822 
L 283.473111 -180.650936 
L 281.218565 -172.644023 
L 278.96402 -173.843553 
L 276.709474 -176.017073 
L 274.454929 -172.836271 
L 272.200384 -159.51164 
L 269.945838 -145.907554 
L 267.691293 -144.805143 
L 265.436747 -147.733736 
L 263.182202 -150.084756 
L 260.927656 -155.336675 
L 258.673111 -156.239986 
L 256.418565 -157.48257 
L 254.16402 -156.367494 
L 251.909474 -154.339035 
L 249.654929 -151.338402 
L 247.400384 -146.785191 
L 245.145838 -142.981885 
L 242.891293 -142.306877 
L 240.636747 -143.700886 
L 238.382202 -143.822118 
L 236.127656 -142.722113 
L 233.873111 -143.952461 
L 231.618565 -144.563539 
L 229.36402 -142.735183 
L 227.109474 -139.413936 
L 224.854929 -136.994292 
L 222.600384 -135.172693 
L 220.345838 -135.471216 
L 218.091293 -136.676677 
L 215.836747 -134.199845 
L 213.582202 -135.246157 
L 211.327656 -135.83806 
L 209.073111 -135.694881 
L 206.818565 -134.178545 
L 204.56402 -133.25521 
L 202.309474 -131.836299 
L 200.054929 -132.129729 
L 197.800384 -131.710223 
L 195.545838 -130.32092 
L 193.291293 -129.161713 
L 191.036747 -128.646222 
L 188.782202 -129.417414 
L 186.527656 -129.928483 
L 184.273111 -127.459848 
L 182.018565 -128.739742 
L 179.76402 -128.441228 
L 177.509474 -129.207033 
L 175.254929 -126.602675 
L 173.000384 -125.06202 
L 170.745838 -124.18181 
L 168.491293 -124.92903 
L 166.236747 -124.268629 
L 163.982202 -123.139783 
L 161.727656 -123.388266 
L 159.473111 -123.654181 
L 157.218565 -122.152754 
L 154.96402 -120.094432 
L 152.709474 -117.011765 
L 150.454929 -116.556163 
L 148.200384 -116.101832 
L 145.945838 -115.834804 
L 143.691293 -115.512681 
L 141.436747 -114.695178 
L 139.182202 -116.013282 
L 136.927656 -113.762258 
L 134.673111 -114.861211 
L 132.418565 -114.154279 
L 130.16402 -114.109459 
L 127.909474 -112.127967 
L 125.654929 -112.409245 
L 123.400384 -110.345223 
L 121.145838 -109.022884 
L 118.891293 -107.889156 
L 116.636747 -103.659441 
L 114.382202 -100.225651 
L 112.127656 -99.016461 
L 109.873111 -95.12595 
L 107.618565 -91.017155 
L 105.36402 -89.391955 
L 103.109474 -87.409257 
L 100.854929 -87.748539 
L 98.600384 -85.015391 
L 96.345838 -81.235559 
L 94.091293 -76.694501 
L 91.836747 -77.093775 
L 89.582202 -75.300928 
L 87.327656 -75.476138 
L 85.073111 -75.209637 
L 82.818565 -76.06185 
L 80.56402 -77.03864 
L 78.309474 -75.813277 
L 76.054929 -78.306499 
L 73.800384 -82.775791 
L 71.545838 -83.097224 
L 69.291293 -85.276254 
L 67.036747 -84.847883 
L 64.782202 -87.492029 
L 62.527656 -82.07589 
z
" id="mad6da2c107" style="stroke:#ffffff;stroke-opacity:0.2;"/>
    </defs>
    <g clip-path="url(#pa96cf8905b)">
     <use style="fill:#4c72b0;fill-opacity:0.2;stroke:#ffffff;stroke-opacity:0.2;" x="0" xlink:href="#mad6da2c107" y="277.919688"/>
    </g>
   </g>
   <g id="PolyCollection_2">
    <defs>
     <path d="M 62.527656 -82.07589 
L 62.527656 -67.764454 
L 64.782202 -62.72081 
L 67.036747 -60.634576 
L 69.291293 -63.308346 
L 71.545838 -58.249535 
L 73.800384 -53.640135 
L 76.054929 -53.039687 
L 78.309474 -56.457659 
L 80.56402 -61.821467 
L 82.818565 -65.608778 
L 85.073111 -66.754949 
L 87.327656 -72.085424 
L 89.582202 -71.315193 
L 91.836747 -72.275253 
L 94.091293 -75.47066 
L 96.345838 -75.094494 
L 98.600384 -77.894607 
L 100.854929 -78.265652 
L 103.109474 -76.626592 
L 105.36402 -76.159769 
L 107.618565 -77.118302 
L 109.873111 -75.864562 
L 112.127656 -74.642717 
L 114.382202 -75.151906 
L 116.636747 -80.060132 
L 118.891293 -82.026861 
L 121.145838 -87.310465 
L 123.400384 -89.486756 
L 125.654929 -93.182766 
L 127.909474 -97.889881 
L 130.16402 -99.395682 
L 132.418565 -99.174275 
L 134.673111 -98.890967 
L 136.927656 -97.196311 
L 139.182202 -96.592849 
L 141.436747 -96.346094 
L 143.691293 -96.529071 
L 145.945838 -95.47228 
L 148.200384 -96.527735 
L 150.454929 -96.568507 
L 152.709474 -96.819256 
L 154.96402 -94.504396 
L 157.218565 -91.512833 
L 159.473111 -87.706424 
L 161.727656 -87.982433 
L 163.982202 -88.364248 
L 166.236747 -89.987424 
L 168.491293 -92.552976 
L 170.745838 -93.672849 
L 173.000384 -96.270288 
L 175.254929 -97.683359 
L 177.509474 -100.331741 
L 179.76402 -103.037591 
L 182.018565 -102.083339 
L 184.273111 -106.055867 
L 186.527656 -106.50028 
L 188.782202 -107.288699 
L 191.036747 -108.06152 
L 193.291293 -106.952772 
L 195.545838 -110.735583 
L 197.800384 -115.422875 
L 200.054929 -116.321508 
L 202.309474 -118.74604 
L 204.56402 -118.195259 
L 206.818565 -119.662717 
L 209.073111 -119.508139 
L 211.327656 -119.801458 
L 213.582202 -119.129499 
L 215.836747 -119.615723 
L 218.091293 -118.229017 
L 220.345838 -114.920294 
L 222.600384 -113.226153 
L 224.854929 -110.702834 
L 227.109474 -111.329035 
L 229.36402 -112.790219 
L 231.618565 -111.219965 
L 233.873111 -113.884749 
L 236.127656 -115.077498 
L 238.382202 -114.522256 
L 240.636747 -116.660389 
L 242.891293 -116.127786 
L 245.145838 -115.793006 
L 247.400384 -115.306604 
L 249.654929 -114.199304 
L 251.909474 -113.483578 
L 254.16402 -115.13998 
L 256.418565 -115.004973 
L 258.673111 -115.813613 
L 260.927656 -115.940083 
L 263.182202 -120.064896 
L 265.436747 -122.352052 
L 267.691293 -125.250327 
L 269.945838 -127.122203 
L 272.200384 -126.168936 
L 274.454929 -127.755714 
L 276.709474 -128.028572 
L 278.96402 -127.430236 
L 281.218565 -127.368627 
L 283.473111 -125.985501 
L 285.727656 -125.959553 
L 285.727656 -131.557388 
L 285.727656 -131.557388 
L 283.473111 -131.842758 
L 281.218565 -132.280185 
L 278.96402 -132.805074 
L 276.709474 -133.965124 
L 274.454929 -134.92362 
L 272.200384 -134.369675 
L 269.945838 -133.345983 
L 267.691293 -130.147177 
L 265.436747 -128.218012 
L 263.182202 -126.057032 
L 260.927656 -124.048084 
L 258.673111 -122.108532 
L 256.418565 -123.202394 
L 254.16402 -123.172915 
L 251.909474 -122.723663 
L 249.654929 -121.015623 
L 247.400384 -121.159837 
L 245.145838 -123.329539 
L 242.891293 -124.834924 
L 240.636747 -126.946135 
L 238.382202 -127.853638 
L 236.127656 -127.471222 
L 233.873111 -126.439603 
L 231.618565 -128.097045 
L 229.36402 -128.490202 
L 227.109474 -130.308719 
L 224.854929 -131.40357 
L 222.600384 -131.236924 
L 220.345838 -130.12166 
L 218.091293 -128.738126 
L 215.836747 -128.923828 
L 213.582202 -128.784133 
L 211.327656 -129.306526 
L 209.073111 -129.630686 
L 206.818565 -129.637589 
L 204.56402 -129.391212 
L 202.309474 -128.208369 
L 200.054929 -126.809092 
L 197.800384 -125.642959 
L 195.545838 -122.181122 
L 193.291293 -120.810686 
L 191.036747 -119.056692 
L 188.782202 -117.730114 
L 186.527656 -116.291006 
L 184.273111 -114.885852 
L 182.018565 -113.931124 
L 179.76402 -115.582369 
L 177.509474 -116.436833 
L 175.254929 -116.636196 
L 173.000384 -115.479382 
L 170.745838 -112.926112 
L 168.491293 -110.381011 
L 166.236747 -109.523559 
L 163.982202 -104.953774 
L 161.727656 -102.428531 
L 159.473111 -100.830391 
L 157.218565 -101.465264 
L 154.96402 -104.721954 
L 152.709474 -105.171181 
L 150.454929 -105.125033 
L 148.200384 -103.477349 
L 145.945838 -103.99055 
L 143.691293 -104.407073 
L 141.436747 -102.789266 
L 139.182202 -102.570184 
L 136.927656 -102.610078 
L 134.673111 -105.091125 
L 132.418565 -102.885627 
L 130.16402 -100.972164 
L 127.909474 -99.443651 
L 125.654929 -97.485221 
L 123.400384 -92.631129 
L 121.145838 -90.859398 
L 118.891293 -87.714805 
L 116.636747 -85.729886 
L 114.382202 -85.22643 
L 112.127656 -87.513457 
L 109.873111 -87.997737 
L 107.618565 -87.244065 
L 105.36402 -88.720645 
L 103.109474 -88.426555 
L 100.854929 -86.947539 
L 98.600384 -85.674554 
L 96.345838 -85.324836 
L 94.091293 -82.317612 
L 91.836747 -81.864201 
L 89.582202 -78.187929 
L 87.327656 -78.27344 
L 85.073111 -76.190729 
L 82.818565 -77.902013 
L 80.56402 -77.25827 
L 78.309474 -76.673676 
L 76.054929 -75.632012 
L 73.800384 -76.852109 
L 71.545838 -74.549276 
L 69.291293 -78.319111 
L 67.036747 -71.371418 
L 64.782202 -77.883338 
L 62.527656 -82.07589 
z
" id="mc0276a5892" style="stroke:#ffffff;stroke-opacity:0.2;"/>
    </defs>
    <g clip-path="url(#pa96cf8905b)">
     <use style="fill:#dd8452;fill-opacity:0.2;stroke:#ffffff;stroke-opacity:0.2;" x="0" xlink:href="#mc0276a5892" y="277.919688"/>
    </g>
   </g>
   <g id="PolyCollection_3">
    <defs>
     <path d="M 62.527656 -82.07589 
L 62.527656 -67.764454 
L 64.782202 -92.587057 
L 67.036747 -94.409711 
L 69.291293 -99.841264 
L 71.545838 -102.476214 
L 73.800384 -107.3391 
L 76.054929 -110.331823 
L 78.309474 -112.48857 
L 80.56402 -113.952647 
L 82.818565 -115.027949 
L 85.073111 -117.713053 
L 87.327656 -121.123644 
L 89.582202 -124.307627 
L 91.836747 -125.884695 
L 94.091293 -128.38337 
L 96.345838 -129.311775 
L 98.600384 -129.972096 
L 100.854929 -129.833773 
L 103.109474 -129.815183 
L 105.36402 -132.677474 
L 107.618565 -135.21736 
L 109.873111 -135.705666 
L 112.127656 -136.973511 
L 114.382202 -137.62814 
L 116.636747 -137.880213 
L 118.891293 -137.608955 
L 121.145838 -137.738953 
L 123.400384 -139.381702 
L 125.654929 -139.979917 
L 127.909474 -138.786642 
L 130.16402 -137.93703 
L 132.418565 -139.728834 
L 134.673111 -142.681502 
L 136.927656 -144.541369 
L 139.182202 -145.305131 
L 141.436747 -146.004459 
L 143.691293 -147.286812 
L 145.945838 -147.470624 
L 148.200384 -149.187456 
L 150.454929 -150.860218 
L 152.709474 -152.811766 
L 154.96402 -153.83655 
L 157.218565 -154.099641 
L 159.473111 -156.021812 
L 161.727656 -158.797813 
L 163.982202 -158.409664 
L 166.236747 -159.513528 
L 168.491293 -161.401667 
L 170.745838 -164.164513 
L 173.000384 -167.690186 
L 175.254929 -170.154502 
L 177.509474 -170.121858 
L 179.76402 -171.141556 
L 182.018565 -172.723074 
L 184.273111 -174.458185 
L 186.527656 -178.533602 
L 188.782202 -181.232079 
L 191.036747 -180.821785 
L 193.291293 -182.547268 
L 195.545838 -184.33914 
L 197.800384 -187.467127 
L 200.054929 -189.921045 
L 202.309474 -190.704867 
L 204.56402 -189.558946 
L 206.818565 -191.743289 
L 209.073111 -192.089538 
L 211.327656 -195.495481 
L 213.582202 -195.269605 
L 215.836747 -198.708917 
L 218.091293 -200.997752 
L 220.345838 -200.845539 
L 222.600384 -203.046604 
L 224.854929 -200.930457 
L 227.109474 -201.082228 
L 229.36402 -203.741784 
L 231.618565 -205.478424 
L 233.873111 -206.255957 
L 236.127656 -205.499847 
L 238.382202 -205.203228 
L 240.636747 -206.060001 
L 242.891293 -203.859198 
L 245.145838 -202.487733 
L 247.400384 -200.037141 
L 249.654929 -198.766504 
L 251.909474 -197.872874 
L 254.16402 -199.364217 
L 256.418565 -202.521292 
L 258.673111 -205.221479 
L 260.927656 -202.950019 
L 263.182202 -200.568038 
L 265.436747 -204.406637 
L 267.691293 -206.711543 
L 269.945838 -207.581822 
L 272.200384 -208.179803 
L 274.454929 -209.901994 
L 276.709474 -206.180115 
L 278.96402 -203.291169 
L 281.218565 -201.239014 
L 283.473111 -201.520409 
L 285.727656 -203.207952 
L 285.727656 -235.938177 
L 285.727656 -235.938177 
L 283.473111 -231.143473 
L 281.218565 -229.844176 
L 278.96402 -226.228688 
L 276.709474 -228.09803 
L 274.454929 -221.474575 
L 272.200384 -232.922211 
L 269.945838 -238.952238 
L 267.691293 -234.268778 
L 265.436747 -231.54826 
L 263.182202 -226.999418 
L 260.927656 -230.988216 
L 258.673111 -243.904588 
L 256.418565 -233.170525 
L 254.16402 -223.120748 
L 251.909474 -237.136921 
L 249.654929 -247.365419 
L 247.400384 -246.055594 
L 245.145838 -239.155607 
L 242.891293 -243.11069 
L 240.636747 -254.237466 
L 238.382202 -254.639688 
L 236.127656 -245.53821 
L 233.873111 -243.879891 
L 231.618565 -243.608144 
L 229.36402 -243.999737 
L 227.109474 -243.240483 
L 224.854929 -237.716993 
L 222.600384 -238.494881 
L 220.345838 -229.07212 
L 218.091293 -223.481963 
L 215.836747 -226.649947 
L 213.582202 -232.34776 
L 211.327656 -241.038253 
L 209.073111 -240.478056 
L 206.818565 -233.249116 
L 204.56402 -231.312166 
L 202.309474 -232.750159 
L 200.054929 -235.22632 
L 197.800384 -235.089564 
L 195.545838 -228.324524 
L 193.291293 -220.514437 
L 191.036747 -213.97994 
L 188.782202 -215.714039 
L 186.527656 -219.342783 
L 184.273111 -219.192838 
L 182.018565 -216.297925 
L 179.76402 -215.939561 
L 177.509474 -217.645784 
L 175.254929 -213.617488 
L 173.000384 -206.921158 
L 170.745838 -203.742454 
L 168.491293 -203.779086 
L 166.236747 -205.470009 
L 163.982202 -205.03748 
L 161.727656 -206.686103 
L 159.473111 -206.215502 
L 157.218565 -204.458817 
L 154.96402 -202.730012 
L 152.709474 -200.356936 
L 150.454929 -196.24348 
L 148.200384 -196.630319 
L 145.945838 -194.971313 
L 143.691293 -195.084823 
L 141.436747 -189.774404 
L 139.182202 -185.602941 
L 136.927656 -182.911827 
L 134.673111 -180.795116 
L 132.418565 -178.542044 
L 130.16402 -176.463959 
L 127.909474 -175.362556 
L 125.654929 -173.088314 
L 123.400384 -167.959444 
L 121.145838 -166.060672 
L 118.891293 -166.79632 
L 116.636747 -168.267794 
L 114.382202 -166.427909 
L 112.127656 -164.005605 
L 109.873111 -158.284666 
L 107.618565 -153.159341 
L 105.36402 -150.432185 
L 103.109474 -148.886859 
L 100.854929 -145.860766 
L 98.600384 -144.695218 
L 96.345838 -142.940942 
L 94.091293 -140.545147 
L 91.836747 -135.676754 
L 89.582202 -132.617686 
L 87.327656 -129.714766 
L 85.073111 -127.310561 
L 82.818565 -124.888596 
L 80.56402 -123.298848 
L 78.309474 -121.433742 
L 76.054929 -120.107798 
L 73.800384 -115.582143 
L 71.545838 -114.701838 
L 69.291293 -111.378199 
L 67.036747 -108.067434 
L 64.782202 -102.831357 
L 62.527656 -82.07589 
z
" id="m3d693e87f2" style="stroke:#ffffff;stroke-opacity:0.2;"/>
    </defs>
    <g clip-path="url(#pa96cf8905b)">
     <use style="fill:#55a868;fill-opacity:0.2;stroke:#ffffff;stroke-opacity:0.2;" x="0" xlink:href="#m3d693e87f2" y="277.919688"/>
    </g>
   </g>
   <g id="PolyCollection_4">
    <defs>
     <path d="M 62.527656 -82.07589 
L 62.527656 -67.764454 
L 64.782202 -91.254478 
L 67.036747 -93.830253 
L 69.291293 -99.120708 
L 71.545838 -101.904126 
L 73.800384 -103.747355 
L 76.054929 -109.096983 
L 78.309474 -110.105994 
L 80.56402 -112.557524 
L 82.818565 -111.931674 
L 85.073111 -115.359772 
L 87.327656 -115.584573 
L 89.582202 -117.232403 
L 91.836747 -121.214421 
L 94.091293 -122.569279 
L 96.345838 -124.779179 
L 98.600384 -128.267089 
L 100.854929 -129.207085 
L 103.109474 -130.89587 
L 105.36402 -132.226274 
L 107.618565 -135.41793 
L 109.873111 -134.908805 
L 112.127656 -137.683689 
L 114.382202 -140.058052 
L 116.636747 -140.658675 
L 118.891293 -141.906026 
L 121.145838 -142.231684 
L 123.400384 -142.724815 
L 125.654929 -144.750649 
L 127.909474 -148.110956 
L 130.16402 -149.63484 
L 132.418565 -152.166133 
L 134.673111 -154.764603 
L 136.927656 -153.669234 
L 139.182202 -155.900964 
L 141.436747 -157.139698 
L 143.691293 -159.005812 
L 145.945838 -161.691179 
L 148.200384 -165.363665 
L 150.454929 -167.392681 
L 152.709474 -166.983578 
L 154.96402 -169.15355 
L 157.218565 -175.449772 
L 159.473111 -177.692361 
L 161.727656 -179.80353 
L 163.982202 -182.873338 
L 166.236747 -184.352523 
L 168.491293 -184.611879 
L 170.745838 -184.275971 
L 173.000384 -187.404209 
L 175.254929 -185.223938 
L 177.509474 -190.880159 
L 179.76402 -196.756086 
L 182.018565 -195.952531 
L 184.273111 -193.065887 
L 186.527656 -195.843956 
L 188.782202 -199.599526 
L 191.036747 -202.069874 
L 193.291293 -203.194995 
L 195.545838 -200.32394 
L 197.800384 -202.435563 
L 200.054929 -205.475505 
L 202.309474 -208.837219 
L 204.56402 -203.723793 
L 206.818565 -202.042146 
L 209.073111 -203.126104 
L 211.327656 -205.249851 
L 213.582202 -205.864908 
L 215.836747 -206.331177 
L 218.091293 -207.277859 
L 220.345838 -213.661566 
L 222.600384 -219.526895 
L 224.854929 -218.223117 
L 227.109474 -213.411149 
L 229.36402 -212.818217 
L 231.618565 -212.245659 
L 233.873111 -212.876161 
L 236.127656 -219.216013 
L 238.382202 -219.811825 
L 240.636747 -218.381957 
L 242.891293 -221.161671 
L 245.145838 -208.98415 
L 247.400384 -205.912465 
L 249.654929 -210.435408 
L 251.909474 -212.252821 
L 254.16402 -213.415296 
L 256.418565 -214.934634 
L 258.673111 -218.007799 
L 260.927656 -219.796981 
L 263.182202 -223.946308 
L 265.436747 -226.297668 
L 267.691293 -222.80153 
L 269.945838 -219.053739 
L 272.200384 -218.926415 
L 274.454929 -219.254044 
L 276.709474 -220.934682 
L 278.96402 -219.018854 
L 281.218565 -217.639299 
L 283.473111 -215.986046 
L 285.727656 -220.549071 
L 285.727656 -246.231114 
L 285.727656 -246.231114 
L 283.473111 -248.079019 
L 281.218565 -243.378078 
L 278.96402 -241.320975 
L 276.709474 -237.033485 
L 274.454929 -237.157785 
L 272.200384 -238.470871 
L 269.945838 -245.989114 
L 267.691293 -249.612318 
L 265.436747 -246.950738 
L 263.182202 -242.288186 
L 260.927656 -237.833428 
L 258.673111 -233.207245 
L 256.418565 -235.015327 
L 254.16402 -233.302471 
L 251.909474 -227.230334 
L 249.654929 -227.675969 
L 247.400384 -230.777793 
L 245.145838 -238.163834 
L 242.891293 -244.192735 
L 240.636747 -243.580625 
L 238.382202 -242.406581 
L 236.127656 -240.946175 
L 233.873111 -237.480067 
L 231.618565 -234.990547 
L 229.36402 -239.01118 
L 227.109474 -242.188243 
L 224.854929 -239.536927 
L 222.600384 -238.656387 
L 220.345838 -234.308896 
L 218.091293 -224.993232 
L 215.836747 -224.872867 
L 213.582202 -230.936815 
L 211.327656 -228.520973 
L 209.073111 -224.003941 
L 206.818565 -218.922187 
L 204.56402 -221.947536 
L 202.309474 -227.041713 
L 200.054929 -226.660307 
L 197.800384 -222.196853 
L 195.545838 -217.877322 
L 193.291293 -216.778942 
L 191.036747 -218.558524 
L 188.782202 -214.640693 
L 186.527656 -213.847921 
L 184.273111 -212.463781 
L 182.018565 -214.616465 
L 179.76402 -213.723184 
L 177.509474 -202.532578 
L 175.254929 -193.440886 
L 173.000384 -200.52291 
L 170.745838 -209.33866 
L 168.491293 -209.105623 
L 166.236747 -207.867198 
L 163.982202 -203.208532 
L 161.727656 -199.264649 
L 159.473111 -196.447971 
L 157.218565 -195.490973 
L 154.96402 -193.661334 
L 152.709474 -190.79326 
L 150.454929 -187.155757 
L 148.200384 -183.979318 
L 145.945838 -177.226201 
L 143.691293 -170.031241 
L 141.436747 -166.650691 
L 139.182202 -166.786509 
L 136.927656 -166.487649 
L 134.673111 -166.739279 
L 132.418565 -166.005451 
L 130.16402 -163.489027 
L 127.909474 -162.380317 
L 125.654929 -158.144924 
L 123.400384 -154.367766 
L 121.145838 -152.137421 
L 118.891293 -152.374428 
L 116.636747 -149.393461 
L 114.382202 -147.818845 
L 112.127656 -142.882701 
L 109.873111 -143.278958 
L 107.618565 -143.024247 
L 105.36402 -143.753583 
L 103.109474 -140.759832 
L 100.854929 -137.12276 
L 98.600384 -134.312987 
L 96.345838 -130.321405 
L 94.091293 -129.27802 
L 91.836747 -128.018187 
L 89.582202 -125.4774 
L 87.327656 -123.53569 
L 85.073111 -122.48757 
L 82.818565 -120.737898 
L 80.56402 -118.459866 
L 78.309474 -116.430628 
L 76.054929 -113.951804 
L 73.800384 -109.120165 
L 71.545838 -106.479111 
L 69.291293 -103.659488 
L 67.036747 -100.002727 
L 64.782202 -101.305957 
L 62.527656 -82.07589 
z
" id="md223ae91b2" style="stroke:#ffffff;stroke-opacity:0.2;"/>
    </defs>
    <g clip-path="url(#pa96cf8905b)">
     <use style="fill:#c44e52;fill-opacity:0.2;stroke:#ffffff;stroke-opacity:0.2;" x="0" xlink:href="#md223ae91b2" y="277.919688"/>
    </g>
   </g>
   <g id="line2d_11">
    <path clip-path="url(#pa96cf8905b)" d="M 62.527656 202.999516 
L 64.782202 196.25412 
L 67.036747 198.299175 
L 69.291293 199.745273 
L 71.545838 204.954567 
L 73.800384 206.093111 
L 76.054929 206.782515 
L 78.309474 206.242992 
L 80.56402 204.537775 
L 82.818565 206.285468 
L 85.073111 206.361439 
L 87.327656 208.938341 
L 89.582202 208.800139 
L 91.836747 208.564647 
L 94.091293 205.863308 
L 96.345838 204.938534 
L 98.600384 202.308725 
L 100.854929 200.104031 
L 103.109474 197.847502 
L 105.36402 195.436665 
L 107.618565 192.879366 
L 109.873111 190.12005 
L 112.127656 186.665764 
L 114.382202 184.670131 
L 116.636747 181.060831 
L 118.891293 176.996082 
L 121.145838 174.47746 
L 123.400384 172.537272 
L 125.654929 170.624609 
L 127.909474 169.662122 
L 130.16402 168.378615 
L 132.418565 167.592708 
L 134.673111 166.055385 
L 136.927656 166.867542 
L 139.182202 164.563429 
L 141.436747 166.302505 
L 143.691293 165.1903 
L 145.945838 165.228908 
L 148.200384 165.749323 
L 150.454929 166.277776 
L 152.709474 166.996045 
L 154.96402 166.213753 
L 157.218565 164.863253 
L 159.473111 164.657614 
L 161.727656 163.877783 
L 163.982202 163.312563 
L 166.236747 162.030056 
L 168.491293 159.914117 
L 170.745838 160.339009 
L 173.000384 159.528331 
L 175.254929 157.231057 
L 177.509474 155.720454 
L 179.76402 155.935026 
L 182.018565 156.629401 
L 184.273111 156.258338 
L 186.527656 154.015733 
L 188.782202 155.680401 
L 191.036747 157.298374 
L 193.291293 156.673238 
L 195.545838 156.63191 
L 197.800384 155.72635 
L 200.054929 154.545592 
L 202.309474 154.091104 
L 204.56402 151.144195 
L 206.818565 148.837541 
L 209.073111 147.502727 
L 211.327656 146.24435 
L 213.582202 146.542441 
L 215.836747 145.81317 
L 218.091293 143.426613 
L 220.345838 144.490829 
L 222.600384 145.226594 
L 224.854929 144.497064 
L 227.109474 144.457284 
L 229.36402 143.228965 
L 231.618565 142.013509 
L 233.873111 143.307835 
L 236.127656 143.755566 
L 238.382202 143.07503 
L 240.636747 141.966638 
L 242.891293 141.943019 
L 245.145838 141.383206 
L 247.400384 139.028379 
L 249.654929 135.578895 
L 251.909474 132.789076 
L 254.16402 130.647917 
L 256.418565 128.558369 
L 258.673111 129.811291 
L 260.927656 130.898268 
L 263.182202 133.51573 
L 265.436747 133.954697 
L 267.691293 135.466558 
L 269.945838 134.219835 
L 272.200384 126.169354 
L 274.454929 120.699179 
L 276.709474 118.909038 
L 278.96402 118.685116 
L 281.218565 117.094856 
L 283.473111 109.879779 
L 285.727656 108.69921 
" style="fill:none;stroke:#4c72b0;stroke-linecap:round;stroke-width:1.5;"/>
   </g>
   <g id="line2d_12">
    <path clip-path="url(#pa96cf8905b)" d="M 62.527656 202.999516 
L 64.782202 207.617613 
L 67.036747 211.91669 
L 69.291293 207.105959 
L 71.545838 211.520282 
L 73.800384 212.673566 
L 76.054929 213.583838 
L 78.309474 211.35402 
L 80.56402 208.379819 
L 82.818565 206.164292 
L 85.073111 206.446848 
L 87.327656 202.740255 
L 89.582202 203.168127 
L 91.836747 200.84996 
L 94.091293 199.025552 
L 96.345838 197.710023 
L 98.600384 196.135107 
L 100.854929 195.313092 
L 103.109474 195.393114 
L 105.36402 195.479481 
L 107.618565 195.738504 
L 109.873111 195.988538 
L 112.127656 196.841601 
L 114.382202 197.73052 
L 116.636747 195.024678 
L 118.891293 193.048854 
L 121.145838 188.834756 
L 123.400384 186.860745 
L 125.654929 182.585694 
L 127.909474 179.252921 
L 130.16402 177.735764 
L 132.418565 176.889737 
L 134.673111 175.928641 
L 136.927656 178.016493 
L 139.182202 178.338171 
L 141.436747 178.352008 
L 143.691293 177.451616 
L 145.945838 178.188273 
L 148.200384 177.917145 
L 150.454929 177.072918 
L 152.709474 176.924469 
L 154.96402 178.306512 
L 157.218565 181.430639 
L 159.473111 183.65128 
L 161.727656 182.714205 
L 163.982202 181.260677 
L 166.236747 178.164196 
L 168.491293 176.452694 
L 170.745838 174.620207 
L 173.000384 172.044853 
L 175.254929 170.75991 
L 177.509474 169.5354 
L 179.76402 168.609707 
L 182.018565 169.912456 
L 184.273111 167.448828 
L 186.527656 166.524045 
L 188.782202 165.410281 
L 191.036747 164.360582 
L 193.291293 164.037958 
L 195.545838 161.461335 
L 197.800384 157.386771 
L 200.054929 156.354387 
L 202.309474 154.442483 
L 204.56402 154.126452 
L 206.818565 153.269535 
L 209.073111 153.350275 
L 211.327656 153.365695 
L 213.582202 153.962871 
L 215.836747 153.649912 
L 218.091293 154.436116 
L 220.345838 155.39871 
L 222.600384 155.688149 
L 224.854929 156.866486 
L 227.109474 157.100811 
L 229.36402 157.279477 
L 231.618565 158.261182 
L 233.873111 157.757512 
L 236.127656 156.645328 
L 238.382202 156.731741 
L 240.636747 156.116425 
L 242.891293 157.438332 
L 245.145838 158.358415 
L 247.400384 159.686467 
L 249.654929 160.312224 
L 251.909474 159.816067 
L 254.16402 158.76324 
L 256.418565 158.816004 
L 258.673111 158.958615 
L 260.927656 157.925604 
L 263.182202 154.858723 
L 265.436747 152.634655 
L 267.691293 150.220936 
L 269.945838 147.685595 
L 272.200384 147.650382 
L 274.454929 146.58002 
L 276.709474 146.922839 
L 278.96402 147.802032 
L 281.218565 148.095282 
L 283.473111 149.005558 
L 285.727656 149.161217 
" style="fill:none;stroke:#dd8452;stroke-linecap:round;stroke-width:1.5;"/>
   </g>
   <g id="line2d_13">
    <path clip-path="url(#pa96cf8905b)" d="M 62.527656 202.999516 
L 64.782202 180.21048 
L 67.036747 176.681115 
L 69.291293 172.309956 
L 71.545838 169.330661 
L 73.800384 166.459066 
L 76.054929 162.699877 
L 78.309474 160.958532 
L 80.56402 159.29394 
L 82.818565 157.961415 
L 85.073111 155.40788 
L 87.327656 152.500482 
L 89.582202 149.457031 
L 91.836747 147.138963 
L 94.091293 143.455429 
L 96.345838 141.793329 
L 98.600384 140.586031 
L 100.854929 140.072418 
L 103.109474 138.568667 
L 105.36402 136.364858 
L 107.618565 133.731337 
L 109.873111 130.924521 
L 112.127656 127.430129 
L 114.382202 125.891663 
L 116.636747 124.845684 
L 118.891293 125.71705 
L 121.145838 126.019875 
L 123.400384 124.249115 
L 125.654929 121.385572 
L 127.909474 120.845089 
L 130.16402 120.719193 
L 132.418565 118.784249 
L 134.673111 116.181378 
L 136.927656 114.19309 
L 139.182202 112.465651 
L 141.436747 110.030256 
L 143.691293 106.73387 
L 145.945838 106.698719 
L 148.200384 105.0108 
L 150.454929 104.367838 
L 152.709474 101.335336 
L 154.96402 99.636406 
L 157.218565 98.640459 
L 159.473111 96.801031 
L 161.727656 95.177729 
L 163.982202 96.196116 
L 166.236747 95.427919 
L 168.491293 95.329311 
L 170.745838 93.966204 
L 173.000384 90.614015 
L 175.254929 86.033693 
L 177.509474 84.035866 
L 179.76402 84.379129 
L 182.018565 83.409188 
L 184.273111 81.094176 
L 186.527656 78.981495 
L 188.782202 79.446628 
L 191.036747 80.518825 
L 193.291293 76.388835 
L 195.545838 71.587856 
L 197.800384 66.641342 
L 200.054929 65.346005 
L 202.309474 66.192175 
L 204.56402 67.484132 
L 206.818565 65.423485 
L 209.073111 61.63589 
L 211.327656 59.652821 
L 213.582202 64.111005 
L 215.836747 65.240256 
L 218.091293 65.67983 
L 220.345838 62.960858 
L 222.600384 57.148945 
L 224.854929 58.595962 
L 227.109474 55.758332 
L 229.36402 54.048927 
L 231.618565 53.376404 
L 233.873111 52.851764 
L 236.127656 52.400659 
L 238.382202 47.99823 
L 240.636747 47.770954 
L 242.891293 54.434744 
L 245.145838 57.098017 
L 247.400384 54.87332 
L 249.654929 54.853726 
L 251.909474 60.41479 
L 254.16402 66.677205 
L 256.418565 60.073779 
L 258.673111 53.356654 
L 260.927656 60.95057 
L 263.182202 64.135959 
L 265.436747 59.942239 
L 267.691293 57.429527 
L 269.945838 54.652658 
L 272.200384 57.36868 
L 274.454929 62.231403 
L 276.709474 60.780615 
L 278.96402 63.159759 
L 281.218565 62.378092 
L 283.473111 61.587746 
L 285.727656 58.346623 
" style="fill:none;stroke:#55a868;stroke-linecap:round;stroke-width:1.5;"/>
   </g>
   <g id="line2d_14">
    <path clip-path="url(#pa96cf8905b)" d="M 62.527656 202.999516 
L 64.782202 181.63947 
L 67.036747 181.003197 
L 69.291293 176.529589 
L 71.545838 173.728069 
L 73.800384 171.485927 
L 76.054929 166.395294 
L 78.309474 164.651377 
L 80.56402 162.410993 
L 82.818565 161.584901 
L 85.073111 158.996016 
L 87.327656 158.359556 
L 89.582202 156.564786 
L 91.836747 153.303384 
L 94.091293 151.996038 
L 96.345838 150.369395 
L 98.600384 146.629649 
L 100.854929 144.754765 
L 103.109474 142.091836 
L 105.36402 139.929759 
L 107.618565 138.698599 
L 109.873111 138.825806 
L 112.127656 137.636493 
L 114.382202 133.981239 
L 116.636747 132.89362 
L 118.891293 130.779461 
L 121.145838 130.735135 
L 123.400384 129.373397 
L 125.654929 126.471901 
L 127.909474 122.674051 
L 130.16402 121.357754 
L 132.418565 118.833896 
L 134.673111 117.167747 
L 136.927656 117.841246 
L 139.182202 116.575951 
L 141.436747 116.024493 
L 143.691293 113.401161 
L 145.945838 108.460998 
L 148.200384 103.248196 
L 150.454929 100.645468 
L 152.709474 99.031268 
L 154.96402 96.512245 
L 157.218565 92.449315 
L 159.473111 90.849522 
L 161.727656 88.385598 
L 163.982202 84.878752 
L 166.236747 81.809827 
L 168.491293 81.060937 
L 170.745838 81.112372 
L 173.000384 83.956128 
L 175.254929 88.587275 
L 177.509474 81.213319 
L 179.76402 72.680053 
L 182.018565 72.63519 
L 184.273111 75.154853 
L 186.527656 73.073749 
L 188.782202 70.799578 
L 191.036747 67.605489 
L 193.291293 67.932719 
L 195.545838 68.819056 
L 197.800384 65.603479 
L 200.054929 61.851781 
L 202.309474 59.980222 
L 204.56402 65.084023 
L 206.818565 67.437521 
L 209.073111 64.354665 
L 211.327656 61.034275 
L 213.582202 59.518826 
L 215.836747 62.317665 
L 218.091293 61.784142 
L 220.345838 53.934456 
L 222.600384 48.828046 
L 224.854929 49.039665 
L 227.109474 50.119991 
L 229.36402 52.004989 
L 231.618565 54.301585 
L 233.873111 52.741573 
L 236.127656 47.838593 
L 238.382202 46.810485 
L 240.636747 46.938396 
L 242.891293 45.242485 
L 245.145838 54.345695 
L 247.400384 59.574559 
L 249.654929 58.863999 
L 251.909474 58.17811 
L 254.16402 54.560804 
L 256.418565 52.944707 
L 258.673111 52.312165 
L 260.927656 49.104483 
L 263.182202 44.80244 
L 265.436747 41.295485 
L 267.691293 41.712764 
L 269.945838 45.398261 
L 272.200384 49.221045 
L 274.454929 49.713773 
L 276.709474 48.935604 
L 278.96402 47.749773 
L 281.218565 47.410999 
L 283.473111 45.887155 
L 285.727656 44.529595 
" style="fill:none;stroke:#c44e52;stroke-linecap:round;stroke-width:1.5;"/>
   </g>
   <g id="patch_3">
    <path d="M 62.527656 234.96 
L 62.527656 13.2 
" style="fill:none;stroke:#ffffff;stroke-linecap:square;stroke-linejoin:miter;stroke-width:1.25;"/>
   </g>
   <g id="patch_4">
    <path d="M 285.727656 234.96 
L 285.727656 13.2 
" style="fill:none;stroke:#ffffff;stroke-linecap:square;stroke-linejoin:miter;stroke-width:1.25;"/>
   </g>
   <g id="patch_5">
    <path d="M 62.527656 234.96 
L 285.727656 234.96 
" style="fill:none;stroke:#ffffff;stroke-linecap:square;stroke-linejoin:miter;stroke-width:1.25;"/>
   </g>
   <g id="patch_6">
    <path d="M 62.527656 13.2 
L 285.727656 13.2 
" style="fill:none;stroke:#ffffff;stroke-linecap:square;stroke-linejoin:miter;stroke-width:1.25;"/>
   </g>
   <g id="legend_1">
    <g id="patch_7">
     <path d="M 67.391256 60.32481 
L 200.092628 60.32481 
Q 201.482228 60.32481 201.482228 58.93521 
L 201.482228 18.0636 
Q 201.482228 16.674 200.092628 16.674 
L 67.391256 16.674 
Q 66.001656 16.674 66.001656 18.0636 
L 66.001656 58.93521 
Q 66.001656 60.32481 67.391256 60.32481 
z
" style="fill:#eaeaf2;opacity:0.8;stroke:#cccccc;stroke-linejoin:miter;"/>
    </g>
    <g id="line2d_15">
     <path d="M 68.780856 22.300794 
L 82.676856 22.300794 
" style="fill:none;stroke:#4c72b0;stroke-linecap:round;stroke-width:1.5;"/>
    </g>
    <g id="line2d_16"/>
    <g id="text_13">
     <!-- hc_dc0.95_b50000_r0.02 -->
     <defs>
      <path d="M 54.890625 33.015625 
L 54.890625 0 
L 45.90625 0 
L 45.90625 32.71875 
Q 45.90625 40.484375 42.875 44.328125 
Q 39.84375 48.1875 33.796875 48.1875 
Q 26.515625 48.1875 22.3125 43.546875 
Q 18.109375 38.921875 18.109375 30.90625 
L 18.109375 0 
L 9.078125 0 
L 9.078125 75.984375 
L 18.109375 75.984375 
L 18.109375 46.1875 
Q 21.34375 51.125 25.703125 53.5625 
Q 30.078125 56 35.796875 56 
Q 45.21875 56 50.046875 50.171875 
Q 54.890625 44.34375 54.890625 33.015625 
z
" id="DejaVuSans-104"/>
      <path d="M 48.78125 52.59375 
L 48.78125 44.1875 
Q 44.96875 46.296875 41.140625 47.34375 
Q 37.3125 48.390625 33.40625 48.390625 
Q 24.65625 48.390625 19.8125 42.84375 
Q 14.984375 37.3125 14.984375 27.296875 
Q 14.984375 17.28125 19.8125 11.734375 
Q 24.65625 6.203125 33.40625 6.203125 
Q 37.3125 6.203125 41.140625 7.25 
Q 44.96875 8.296875 48.78125 10.40625 
L 48.78125 2.09375 
Q 45.015625 0.34375 40.984375 -0.53125 
Q 36.96875 -1.421875 32.421875 -1.421875 
Q 20.0625 -1.421875 12.78125 6.34375 
Q 5.515625 14.109375 5.515625 27.296875 
Q 5.515625 40.671875 12.859375 48.328125 
Q 20.21875 56 33.015625 56 
Q 37.15625 56 41.109375 55.140625 
Q 45.0625 54.296875 48.78125 52.59375 
z
" id="DejaVuSans-99"/>
      <path d="M 50.984375 -16.609375 
L 50.984375 -23.578125 
L -0.984375 -23.578125 
L -0.984375 -16.609375 
z
" id="DejaVuSans-95"/>
      <path d="M 45.40625 46.390625 
L 45.40625 75.984375 
L 54.390625 75.984375 
L 54.390625 0 
L 45.40625 0 
L 45.40625 8.203125 
Q 42.578125 3.328125 38.25 0.953125 
Q 33.9375 -1.421875 27.875 -1.421875 
Q 17.96875 -1.421875 11.734375 6.484375 
Q 5.515625 14.40625 5.515625 27.296875 
Q 5.515625 40.1875 11.734375 48.09375 
Q 17.96875 56 27.875 56 
Q 33.9375 56 38.25 53.625 
Q 42.578125 51.265625 45.40625 46.390625 
z
M 14.796875 27.296875 
Q 14.796875 17.390625 18.875 11.75 
Q 22.953125 6.109375 30.078125 6.109375 
Q 37.203125 6.109375 41.296875 11.75 
Q 45.40625 17.390625 45.40625 27.296875 
Q 45.40625 37.203125 41.296875 42.84375 
Q 37.203125 48.484375 30.078125 48.484375 
Q 22.953125 48.484375 18.875 42.84375 
Q 14.796875 37.203125 14.796875 27.296875 
z
" id="DejaVuSans-100"/>
      <path d="M 10.6875 12.40625 
L 21 12.40625 
L 21 0 
L 10.6875 0 
z
" id="DejaVuSans-46"/>
      <path d="M 10.984375 1.515625 
L 10.984375 10.5 
Q 14.703125 8.734375 18.5 7.8125 
Q 22.3125 6.890625 25.984375 6.890625 
Q 35.75 6.890625 40.890625 13.453125 
Q 46.046875 20.015625 46.78125 33.40625 
Q 43.953125 29.203125 39.59375 26.953125 
Q 35.25 24.703125 29.984375 24.703125 
Q 19.046875 24.703125 12.671875 31.3125 
Q 6.296875 37.9375 6.296875 49.421875 
Q 6.296875 60.640625 12.9375 67.421875 
Q 19.578125 74.21875 30.609375 74.21875 
Q 43.265625 74.21875 49.921875 64.515625 
Q 56.59375 54.828125 56.59375 36.375 
Q 56.59375 19.140625 48.40625 8.859375 
Q 40.234375 -1.421875 26.421875 -1.421875 
Q 22.703125 -1.421875 18.890625 -0.6875 
Q 15.09375 0.046875 10.984375 1.515625 
z
M 30.609375 32.421875 
Q 37.25 32.421875 41.125 36.953125 
Q 45.015625 41.5 45.015625 49.421875 
Q 45.015625 57.28125 41.125 61.84375 
Q 37.25 66.40625 30.609375 66.40625 
Q 23.96875 66.40625 20.09375 61.84375 
Q 16.21875 57.28125 16.21875 49.421875 
Q 16.21875 41.5 20.09375 36.953125 
Q 23.96875 32.421875 30.609375 32.421875 
z
" id="DejaVuSans-57"/>
      <path d="M 10.796875 72.90625 
L 49.515625 72.90625 
L 49.515625 64.59375 
L 19.828125 64.59375 
L 19.828125 46.734375 
Q 21.96875 47.46875 24.109375 47.828125 
Q 26.265625 48.1875 28.421875 48.1875 
Q 40.625 48.1875 47.75 41.5 
Q 54.890625 34.8125 54.890625 23.390625 
Q 54.890625 11.625 47.5625 5.09375 
Q 40.234375 -1.421875 26.90625 -1.421875 
Q 22.3125 -1.421875 17.546875 -0.640625 
Q 12.796875 0.140625 7.71875 1.703125 
L 7.71875 11.625 
Q 12.109375 9.234375 16.796875 8.0625 
Q 21.484375 6.890625 26.703125 6.890625 
Q 35.15625 6.890625 40.078125 11.328125 
Q 45.015625 15.765625 45.015625 23.390625 
Q 45.015625 31 40.078125 35.4375 
Q 35.15625 39.890625 26.703125 39.890625 
Q 22.75 39.890625 18.8125 39.015625 
Q 14.890625 38.140625 10.796875 36.28125 
z
" id="DejaVuSans-53"/>
      <path d="M 48.6875 27.296875 
Q 48.6875 37.203125 44.609375 42.84375 
Q 40.53125 48.484375 33.40625 48.484375 
Q 26.265625 48.484375 22.1875 42.84375 
Q 18.109375 37.203125 18.109375 27.296875 
Q 18.109375 17.390625 22.1875 11.75 
Q 26.265625 6.109375 33.40625 6.109375 
Q 40.53125 6.109375 44.609375 11.75 
Q 48.6875 17.390625 48.6875 27.296875 
z
M 18.109375 46.390625 
Q 20.953125 51.265625 25.265625 53.625 
Q 29.59375 56 35.59375 56 
Q 45.5625 56 51.78125 48.09375 
Q 58.015625 40.1875 58.015625 27.296875 
Q 58.015625 14.40625 51.78125 6.484375 
Q 45.5625 -1.421875 35.59375 -1.421875 
Q 29.59375 -1.421875 25.265625 0.953125 
Q 20.953125 3.328125 18.109375 8.203125 
L 18.109375 0 
L 9.078125 0 
L 9.078125 75.984375 
L 18.109375 75.984375 
z
" id="DejaVuSans-98"/>
     </defs>
     <g style="fill:#262626;" transform="translate(88.235256 24.732594)scale(0.06948 -0.06948)">
      <use xlink:href="#DejaVuSans-104"/>
      <use x="63.378906" xlink:href="#DejaVuSans-99"/>
      <use x="118.359375" xlink:href="#DejaVuSans-95"/>
      <use x="168.359375" xlink:href="#DejaVuSans-100"/>
      <use x="231.835938" xlink:href="#DejaVuSans-99"/>
      <use x="286.816406" xlink:href="#DejaVuSans-48"/>
      <use x="350.439453" xlink:href="#DejaVuSans-46"/>
      <use x="382.226562" xlink:href="#DejaVuSans-57"/>
      <use x="445.849609" xlink:href="#DejaVuSans-53"/>
      <use x="509.472656" xlink:href="#DejaVuSans-95"/>
      <use x="559.472656" xlink:href="#DejaVuSans-98"/>
      <use x="622.949219" xlink:href="#DejaVuSans-53"/>
      <use x="686.572266" xlink:href="#DejaVuSans-48"/>
      <use x="750.195312" xlink:href="#DejaVuSans-48"/>
      <use x="813.818359" xlink:href="#DejaVuSans-48"/>
      <use x="877.441406" xlink:href="#DejaVuSans-48"/>
      <use x="941.064453" xlink:href="#DejaVuSans-95"/>
      <use x="991.064453" xlink:href="#DejaVuSans-114"/>
      <use x="1032.177734" xlink:href="#DejaVuSans-48"/>
      <use x="1095.800781" xlink:href="#DejaVuSans-46"/>
      <use x="1127.587891" xlink:href="#DejaVuSans-48"/>
      <use x="1191.210938" xlink:href="#DejaVuSans-50"/>
     </g>
    </g>
    <g id="line2d_17">
     <path d="M 68.780856 32.692397 
L 82.676856 32.692397 
" style="fill:none;stroke:#dd8452;stroke-linecap:round;stroke-width:1.5;"/>
    </g>
    <g id="line2d_18"/>
    <g id="text_14">
     <!-- hc_dc0.95_bl_b50000_r0.02 -->
     <defs>
      <path d="M 9.421875 75.984375 
L 18.40625 75.984375 
L 18.40625 0 
L 9.421875 0 
z
" id="DejaVuSans-108"/>
     </defs>
     <g style="fill:#262626;" transform="translate(88.235256 35.124197)scale(0.06948 -0.06948)">
      <use xlink:href="#DejaVuSans-104"/>
      <use x="63.378906" xlink:href="#DejaVuSans-99"/>
      <use x="118.359375" xlink:href="#DejaVuSans-95"/>
      <use x="168.359375" xlink:href="#DejaVuSans-100"/>
      <use x="231.835938" xlink:href="#DejaVuSans-99"/>
      <use x="286.816406" xlink:href="#DejaVuSans-48"/>
      <use x="350.439453" xlink:href="#DejaVuSans-46"/>
      <use x="382.226562" xlink:href="#DejaVuSans-57"/>
      <use x="445.849609" xlink:href="#DejaVuSans-53"/>
      <use x="509.472656" xlink:href="#DejaVuSans-95"/>
      <use x="559.472656" xlink:href="#DejaVuSans-98"/>
      <use x="622.949219" xlink:href="#DejaVuSans-108"/>
      <use x="650.732422" xlink:href="#DejaVuSans-95"/>
      <use x="700.732422" xlink:href="#DejaVuSans-98"/>
      <use x="764.208984" xlink:href="#DejaVuSans-53"/>
      <use x="827.832031" xlink:href="#DejaVuSans-48"/>
      <use x="891.455078" xlink:href="#DejaVuSans-48"/>
      <use x="955.078125" xlink:href="#DejaVuSans-48"/>
      <use x="1018.701172" xlink:href="#DejaVuSans-48"/>
      <use x="1082.324219" xlink:href="#DejaVuSans-95"/>
      <use x="1132.324219" xlink:href="#DejaVuSans-114"/>
      <use x="1173.4375" xlink:href="#DejaVuSans-48"/>
      <use x="1237.060547" xlink:href="#DejaVuSans-46"/>
      <use x="1268.847656" xlink:href="#DejaVuSans-48"/>
      <use x="1332.470703" xlink:href="#DejaVuSans-50"/>
     </g>
    </g>
    <g id="line2d_19">
     <path d="M 68.780856 43.083999 
L 82.676856 43.083999 
" style="fill:none;stroke:#55a868;stroke-linecap:round;stroke-width:1.5;"/>
    </g>
    <g id="line2d_20"/>
    <g id="text_15">
     <!-- hc_dc0.95_rtg_b50000_r0.02 -->
     <g style="fill:#262626;" transform="translate(88.235256 45.515799)scale(0.06948 -0.06948)">
      <use xlink:href="#DejaVuSans-104"/>
      <use x="63.378906" xlink:href="#DejaVuSans-99"/>
      <use x="118.359375" xlink:href="#DejaVuSans-95"/>
      <use x="168.359375" xlink:href="#DejaVuSans-100"/>
      <use x="231.835938" xlink:href="#DejaVuSans-99"/>
      <use x="286.816406" xlink:href="#DejaVuSans-48"/>
      <use x="350.439453" xlink:href="#DejaVuSans-46"/>
      <use x="382.226562" xlink:href="#DejaVuSans-57"/>
      <use x="445.849609" xlink:href="#DejaVuSans-53"/>
      <use x="509.472656" xlink:href="#DejaVuSans-95"/>
      <use x="559.472656" xlink:href="#DejaVuSans-114"/>
      <use x="600.585938" xlink:href="#DejaVuSans-116"/>
      <use x="639.794922" xlink:href="#DejaVuSans-103"/>
      <use x="703.271484" xlink:href="#DejaVuSans-95"/>
      <use x="753.271484" xlink:href="#DejaVuSans-98"/>
      <use x="816.748047" xlink:href="#DejaVuSans-53"/>
      <use x="880.371094" xlink:href="#DejaVuSans-48"/>
      <use x="943.994141" xlink:href="#DejaVuSans-48"/>
      <use x="1007.617188" xlink:href="#DejaVuSans-48"/>
      <use x="1071.240234" xlink:href="#DejaVuSans-48"/>
      <use x="1134.863281" xlink:href="#DejaVuSans-95"/>
      <use x="1184.863281" xlink:href="#DejaVuSans-114"/>
      <use x="1225.976562" xlink:href="#DejaVuSans-48"/>
      <use x="1289.599609" xlink:href="#DejaVuSans-46"/>
      <use x="1321.386719" xlink:href="#DejaVuSans-48"/>
      <use x="1385.009766" xlink:href="#DejaVuSans-50"/>
     </g>
    </g>
    <g id="line2d_21">
     <path d="M 68.780856 53.475602 
L 82.676856 53.475602 
" style="fill:none;stroke:#c44e52;stroke-linecap:round;stroke-width:1.5;"/>
    </g>
    <g id="line2d_22"/>
    <g id="text_16">
     <!-- hc_dc0.95_rtg_bl_b50000_r0.02 -->
     <g style="fill:#262626;" transform="translate(88.235256 55.907402)scale(0.06948 -0.06948)">
      <use xlink:href="#DejaVuSans-104"/>
      <use x="63.378906" xlink:href="#DejaVuSans-99"/>
      <use x="118.359375" xlink:href="#DejaVuSans-95"/>
      <use x="168.359375" xlink:href="#DejaVuSans-100"/>
      <use x="231.835938" xlink:href="#DejaVuSans-99"/>
      <use x="286.816406" xlink:href="#DejaVuSans-48"/>
      <use x="350.439453" xlink:href="#DejaVuSans-46"/>
      <use x="382.226562" xlink:href="#DejaVuSans-57"/>
      <use x="445.849609" xlink:href="#DejaVuSans-53"/>
      <use x="509.472656" xlink:href="#DejaVuSans-95"/>
      <use x="559.472656" xlink:href="#DejaVuSans-114"/>
      <use x="600.585938" xlink:href="#DejaVuSans-116"/>
      <use x="639.794922" xlink:href="#DejaVuSans-103"/>
      <use x="703.271484" xlink:href="#DejaVuSans-95"/>
      <use x="753.271484" xlink:href="#DejaVuSans-98"/>
      <use x="816.748047" xlink:href="#DejaVuSans-108"/>
      <use x="844.53125" xlink:href="#DejaVuSans-95"/>
      <use x="894.53125" xlink:href="#DejaVuSans-98"/>
      <use x="958.007812" xlink:href="#DejaVuSans-53"/>
      <use x="1021.630859" xlink:href="#DejaVuSans-48"/>
      <use x="1085.253906" xlink:href="#DejaVuSans-48"/>
      <use x="1148.876953" xlink:href="#DejaVuSans-48"/>
      <use x="1212.5" xlink:href="#DejaVuSans-48"/>
      <use x="1276.123047" xlink:href="#DejaVuSans-95"/>
      <use x="1326.123047" xlink:href="#DejaVuSans-114"/>
      <use x="1367.236328" xlink:href="#DejaVuSans-48"/>
      <use x="1430.859375" xlink:href="#DejaVuSans-46"/>
      <use x="1462.646484" xlink:href="#DejaVuSans-48"/>
      <use x="1526.269531" xlink:href="#DejaVuSans-50"/>
     </g>
    </g>
   </g>
  </g>
 </g>
 <defs>
  <clipPath id="pa96cf8905b">
   <rect height="221.76" width="223.2" x="62.527656" y="13.2"/>
  </clipPath>
 </defs>
</svg>
