<?xml version="1.0" encoding="utf-8" standalone="no"?>
<!DOCTYPE svg PUBLIC "-//W3C//DTD SVG 1.1//EN"
  "http://www.w3.org/Graphics/SVG/1.1/DTD/svg11.dtd">
<!-- Created with matplotlib (https://matplotlib.org/) -->
<svg height="255.314531pt" version="1.1" viewBox="0 0 254.783594 255.314531" width="254.783594pt" xmlns="http://www.w3.org/2000/svg" xmlns:xlink="http://www.w3.org/1999/xlink">
 <defs>
  <style type="text/css">
*{stroke-linecap:butt;stroke-linejoin:round;}
  </style>
 </defs>
 <g id="figure_1">
  <g id="patch_1">
   <path d="M 0 255.314531 
L 254.783594 255.314531 
L 254.783594 0 
L 0 0 
z
" style="fill:#ffffff;"/>
  </g>
  <g id="axes_1">
   <g id="patch_2">
    <path d="M 50.503594 217.909375 
L 247.583594 217.909375 
L 247.583594 21.789375 
L 50.503594 21.789375 
z
" style="fill:#eaeaf2;"/>
   </g>
   <g id="matplotlib.axis_1">
    <g id="xtick_1">
     <g id="line2d_1">
      <path clip-path="url(#p4f60233f52)" d="M 59.461776 217.909375 
L 59.461776 21.789375 
" style="fill:none;stroke:#ffffff;stroke-linecap:round;"/>
     </g>
     <g id="line2d_2"/>
     <g id="text_1">
      <!-- 0 -->
      <defs>
       <path d="M 4.15625 35.296875 
Q 4.15625 48 6.765625 55.734375 
Q 9.375 63.484375 14.515625 67.671875 
Q 19.671875 71.875 27.484375 71.875 
Q 33.25 71.875 37.59375 69.546875 
Q 41.9375 67.234375 44.765625 62.859375 
Q 47.609375 58.5 49.21875 52.21875 
Q 50.828125 45.953125 50.828125 35.296875 
Q 50.828125 22.703125 48.234375 14.96875 
Q 45.65625 7.234375 40.5 3 
Q 35.359375 -1.21875 27.484375 -1.21875 
Q 17.140625 -1.21875 11.234375 6.203125 
Q 4.15625 15.140625 4.15625 35.296875 
z
M 13.1875 35.296875 
Q 13.1875 17.671875 17.3125 11.828125 
Q 21.4375 6 27.484375 6 
Q 33.546875 6 37.671875 11.859375 
Q 41.796875 17.71875 41.796875 35.296875 
Q 41.796875 52.984375 37.671875 58.78125 
Q 33.546875 64.59375 27.390625 64.59375 
Q 21.34375 64.59375 17.71875 59.46875 
Q 13.1875 52.9375 13.1875 35.296875 
z
" id="ArialMT-48"/>
      </defs>
      <g style="fill:#262626;" transform="translate(56.681307 232.067188)scale(0.1 -0.1)">
       <use xlink:href="#ArialMT-48"/>
      </g>
     </g>
    </g>
    <g id="xtick_2">
     <g id="line2d_3">
      <path clip-path="url(#p4f60233f52)" d="M 104.252685 217.909375 
L 104.252685 21.789375 
" style="fill:none;stroke:#ffffff;stroke-linecap:round;"/>
     </g>
     <g id="line2d_4"/>
     <g id="text_2">
      <!-- 50 -->
      <defs>
       <path d="M 4.15625 18.75 
L 13.375 19.53125 
Q 14.40625 12.796875 18.140625 9.390625 
Q 21.875 6 27.15625 6 
Q 33.5 6 37.890625 10.78125 
Q 42.28125 15.578125 42.28125 23.484375 
Q 42.28125 31 38.0625 35.34375 
Q 33.84375 39.703125 27 39.703125 
Q 22.75 39.703125 19.328125 37.765625 
Q 15.921875 35.84375 13.96875 32.765625 
L 5.71875 33.84375 
L 12.640625 70.609375 
L 48.25 70.609375 
L 48.25 62.203125 
L 19.671875 62.203125 
L 15.828125 42.96875 
Q 22.265625 47.46875 29.34375 47.46875 
Q 38.71875 47.46875 45.15625 40.96875 
Q 51.609375 34.46875 51.609375 24.265625 
Q 51.609375 14.546875 45.953125 7.46875 
Q 39.0625 -1.21875 27.15625 -1.21875 
Q 17.390625 -1.21875 11.203125 4.25 
Q 5.03125 9.71875 4.15625 18.75 
z
" id="ArialMT-53"/>
      </defs>
      <g style="fill:#262626;" transform="translate(98.691747 232.067188)scale(0.1 -0.1)">
       <use xlink:href="#ArialMT-53"/>
       <use x="55.615234" xlink:href="#ArialMT-48"/>
      </g>
     </g>
    </g>
    <g id="xtick_3">
     <g id="line2d_5">
      <path clip-path="url(#p4f60233f52)" d="M 149.043594 217.909375 
L 149.043594 21.789375 
" style="fill:none;stroke:#ffffff;stroke-linecap:round;"/>
     </g>
     <g id="line2d_6"/>
     <g id="text_3">
      <!-- 100 -->
      <defs>
       <path d="M 37.25 0 
L 28.46875 0 
L 28.46875 56 
Q 25.296875 52.984375 20.140625 49.953125 
Q 14.984375 46.921875 10.890625 45.40625 
L 10.890625 53.90625 
Q 18.265625 57.375 23.78125 62.296875 
Q 29.296875 67.234375 31.59375 71.875 
L 37.25 71.875 
z
" id="ArialMT-49"/>
      </defs>
      <g style="fill:#262626;" transform="translate(140.702188 232.067188)scale(0.1 -0.1)">
       <use xlink:href="#ArialMT-49"/>
       <use x="55.615234" xlink:href="#ArialMT-48"/>
       <use x="111.230469" xlink:href="#ArialMT-48"/>
      </g>
     </g>
    </g>
    <g id="xtick_4">
     <g id="line2d_7">
      <path clip-path="url(#p4f60233f52)" d="M 193.834503 217.909375 
L 193.834503 21.789375 
" style="fill:none;stroke:#ffffff;stroke-linecap:round;"/>
     </g>
     <g id="line2d_8"/>
     <g id="text_4">
      <!-- 150 -->
      <g style="fill:#262626;" transform="translate(185.493097 232.067188)scale(0.1 -0.1)">
       <use xlink:href="#ArialMT-49"/>
       <use x="55.615234" xlink:href="#ArialMT-53"/>
       <use x="111.230469" xlink:href="#ArialMT-48"/>
      </g>
     </g>
    </g>
    <g id="xtick_5">
     <g id="line2d_9">
      <path clip-path="url(#p4f60233f52)" d="M 238.625412 217.909375 
L 238.625412 21.789375 
" style="fill:none;stroke:#ffffff;stroke-linecap:round;"/>
     </g>
     <g id="line2d_10"/>
     <g id="text_5">
      <!-- 200 -->
      <defs>
       <path d="M 50.34375 8.453125 
L 50.34375 0 
L 3.03125 0 
Q 2.9375 3.171875 4.046875 6.109375 
Q 5.859375 10.9375 9.828125 15.625 
Q 13.8125 20.3125 21.34375 26.46875 
Q 33.015625 36.03125 37.109375 41.625 
Q 41.21875 47.21875 41.21875 52.203125 
Q 41.21875 57.421875 37.46875 61 
Q 33.734375 64.59375 27.734375 64.59375 
Q 21.390625 64.59375 17.578125 60.78125 
Q 13.765625 56.984375 13.71875 50.25 
L 4.6875 51.171875 
Q 5.609375 61.28125 11.65625 66.578125 
Q 17.71875 71.875 27.9375 71.875 
Q 38.234375 71.875 44.234375 66.15625 
Q 50.25 60.453125 50.25 52 
Q 50.25 47.703125 48.484375 43.546875 
Q 46.734375 39.40625 42.65625 34.8125 
Q 38.578125 30.21875 29.109375 22.21875 
Q 21.1875 15.578125 18.9375 13.203125 
Q 16.703125 10.84375 15.234375 8.453125 
z
" id="ArialMT-50"/>
      </defs>
      <g style="fill:#262626;" transform="translate(230.284006 232.067188)scale(0.1 -0.1)">
       <use xlink:href="#ArialMT-50"/>
       <use x="55.615234" xlink:href="#ArialMT-48"/>
       <use x="111.230469" xlink:href="#ArialMT-48"/>
      </g>
     </g>
    </g>
    <g id="text_6">
     <!-- Epoch -->
     <defs>
      <path d="M 7.90625 0 
L 7.90625 71.578125 
L 59.671875 71.578125 
L 59.671875 63.140625 
L 17.390625 63.140625 
L 17.390625 41.21875 
L 56.984375 41.21875 
L 56.984375 32.8125 
L 17.390625 32.8125 
L 17.390625 8.453125 
L 61.328125 8.453125 
L 61.328125 0 
z
" id="ArialMT-69"/>
      <path d="M 6.59375 -19.875 
L 6.59375 51.859375 
L 14.59375 51.859375 
L 14.59375 45.125 
Q 17.4375 49.078125 21 51.046875 
Q 24.5625 53.03125 29.640625 53.03125 
Q 36.28125 53.03125 41.359375 49.609375 
Q 46.4375 46.1875 49.015625 39.953125 
Q 51.609375 33.734375 51.609375 26.3125 
Q 51.609375 18.359375 48.75 11.984375 
Q 45.90625 5.609375 40.453125 2.21875 
Q 35.015625 -1.171875 29 -1.171875 
Q 24.609375 -1.171875 21.109375 0.6875 
Q 17.625 2.546875 15.375 5.375 
L 15.375 -19.875 
z
M 14.546875 25.640625 
Q 14.546875 15.625 18.59375 10.84375 
Q 22.65625 6.0625 28.421875 6.0625 
Q 34.28125 6.0625 38.453125 11.015625 
Q 42.625 15.96875 42.625 26.375 
Q 42.625 36.28125 38.546875 41.203125 
Q 34.46875 46.140625 28.8125 46.140625 
Q 23.1875 46.140625 18.859375 40.890625 
Q 14.546875 35.640625 14.546875 25.640625 
z
" id="ArialMT-112"/>
      <path d="M 3.328125 25.921875 
Q 3.328125 40.328125 11.328125 47.265625 
Q 18.015625 53.03125 27.640625 53.03125 
Q 38.328125 53.03125 45.109375 46.015625 
Q 51.90625 39.015625 51.90625 26.65625 
Q 51.90625 16.65625 48.90625 10.90625 
Q 45.90625 5.171875 40.15625 2 
Q 34.421875 -1.171875 27.640625 -1.171875 
Q 16.75 -1.171875 10.03125 5.8125 
Q 3.328125 12.796875 3.328125 25.921875 
z
M 12.359375 25.921875 
Q 12.359375 15.96875 16.703125 11.015625 
Q 21.046875 6.0625 27.640625 6.0625 
Q 34.1875 6.0625 38.53125 11.03125 
Q 42.875 16.015625 42.875 26.21875 
Q 42.875 35.84375 38.5 40.796875 
Q 34.125 45.75 27.640625 45.75 
Q 21.046875 45.75 16.703125 40.8125 
Q 12.359375 35.890625 12.359375 25.921875 
z
" id="ArialMT-111"/>
      <path d="M 40.4375 19 
L 49.078125 17.875 
Q 47.65625 8.9375 41.8125 3.875 
Q 35.984375 -1.171875 27.484375 -1.171875 
Q 16.84375 -1.171875 10.375 5.78125 
Q 3.90625 12.75 3.90625 25.734375 
Q 3.90625 34.125 6.6875 40.421875 
Q 9.46875 46.734375 15.15625 49.875 
Q 20.84375 53.03125 27.546875 53.03125 
Q 35.984375 53.03125 41.359375 48.75 
Q 46.734375 44.484375 48.25 36.625 
L 39.703125 35.296875 
Q 38.484375 40.53125 35.375 43.15625 
Q 32.28125 45.796875 27.875 45.796875 
Q 21.234375 45.796875 17.078125 41.03125 
Q 12.9375 36.28125 12.9375 25.984375 
Q 12.9375 15.53125 16.9375 10.796875 
Q 20.953125 6.0625 27.390625 6.0625 
Q 32.5625 6.0625 36.03125 9.234375 
Q 39.5 12.40625 40.4375 19 
z
" id="ArialMT-99"/>
      <path d="M 6.59375 0 
L 6.59375 71.578125 
L 15.375 71.578125 
L 15.375 45.90625 
Q 21.53125 53.03125 30.90625 53.03125 
Q 36.671875 53.03125 40.921875 50.75 
Q 45.171875 48.484375 47 44.484375 
Q 48.828125 40.484375 48.828125 32.859375 
L 48.828125 0 
L 40.046875 0 
L 40.046875 32.859375 
Q 40.046875 39.453125 37.1875 42.453125 
Q 34.328125 45.453125 29.109375 45.453125 
Q 25.203125 45.453125 21.75 43.421875 
Q 18.3125 41.40625 16.84375 37.9375 
Q 15.375 34.46875 15.375 28.375 
L 15.375 0 
z
" id="ArialMT-104"/>
     </defs>
     <g style="fill:#262626;" transform="translate(133.449375 245.928281)scale(0.11 -0.11)">
      <use xlink:href="#ArialMT-69"/>
      <use x="66.699219" xlink:href="#ArialMT-112"/>
      <use x="122.314453" xlink:href="#ArialMT-111"/>
      <use x="177.929688" xlink:href="#ArialMT-99"/>
      <use x="227.929688" xlink:href="#ArialMT-104"/>
     </g>
    </g>
   </g>
   <g id="matplotlib.axis_2">
    <g id="ytick_1">
     <g id="line2d_11">
      <path clip-path="url(#p4f60233f52)" d="M 50.503594 199.751649 
L 247.583594 199.751649 
" style="fill:none;stroke:#ffffff;stroke-linecap:round;"/>
     </g>
     <g id="line2d_12"/>
     <g id="text_7">
      <!-- 0 -->
      <g style="fill:#262626;" transform="translate(37.942656 203.330555)scale(0.1 -0.1)">
       <use xlink:href="#ArialMT-48"/>
      </g>
     </g>
    </g>
    <g id="ytick_2">
     <g id="line2d_13">
      <path clip-path="url(#p4f60233f52)" d="M 50.503594 164.420016 
L 247.583594 164.420016 
" style="fill:none;stroke:#ffffff;stroke-linecap:round;"/>
     </g>
     <g id="line2d_14"/>
     <g id="text_8">
      <!-- 1000 -->
      <g style="fill:#262626;" transform="translate(21.259844 167.998923)scale(0.1 -0.1)">
       <use xlink:href="#ArialMT-49"/>
       <use x="55.615234" xlink:href="#ArialMT-48"/>
       <use x="111.230469" xlink:href="#ArialMT-48"/>
       <use x="166.845703" xlink:href="#ArialMT-48"/>
      </g>
     </g>
    </g>
    <g id="ytick_3">
     <g id="line2d_15">
      <path clip-path="url(#p4f60233f52)" d="M 50.503594 129.088384 
L 247.583594 129.088384 
" style="fill:none;stroke:#ffffff;stroke-linecap:round;"/>
     </g>
     <g id="line2d_16"/>
     <g id="text_9">
      <!-- 2000 -->
      <g style="fill:#262626;" transform="translate(21.259844 132.66729)scale(0.1 -0.1)">
       <use xlink:href="#ArialMT-50"/>
       <use x="55.615234" xlink:href="#ArialMT-48"/>
       <use x="111.230469" xlink:href="#ArialMT-48"/>
       <use x="166.845703" xlink:href="#ArialMT-48"/>
      </g>
     </g>
    </g>
    <g id="ytick_4">
     <g id="line2d_17">
      <path clip-path="url(#p4f60233f52)" d="M 50.503594 93.756752 
L 247.583594 93.756752 
" style="fill:none;stroke:#ffffff;stroke-linecap:round;"/>
     </g>
     <g id="line2d_18"/>
     <g id="text_10">
      <!-- 3000 -->
      <defs>
       <path d="M 4.203125 18.890625 
L 12.984375 20.0625 
Q 14.5 12.59375 18.140625 9.296875 
Q 21.78125 6 27 6 
Q 33.203125 6 37.46875 10.296875 
Q 41.75 14.59375 41.75 20.953125 
Q 41.75 27 37.796875 30.921875 
Q 33.84375 34.859375 27.734375 34.859375 
Q 25.25 34.859375 21.53125 33.890625 
L 22.515625 41.609375 
Q 23.390625 41.5 23.921875 41.5 
Q 29.546875 41.5 34.03125 44.421875 
Q 38.53125 47.359375 38.53125 53.46875 
Q 38.53125 58.296875 35.25 61.46875 
Q 31.984375 64.65625 26.8125 64.65625 
Q 21.6875 64.65625 18.265625 61.421875 
Q 14.84375 58.203125 13.875 51.765625 
L 5.078125 53.328125 
Q 6.6875 62.15625 12.390625 67.015625 
Q 18.109375 71.875 26.609375 71.875 
Q 32.46875 71.875 37.390625 69.359375 
Q 42.328125 66.84375 44.9375 62.5 
Q 47.5625 58.15625 47.5625 53.265625 
Q 47.5625 48.640625 45.0625 44.828125 
Q 42.578125 41.015625 37.703125 38.765625 
Q 44.046875 37.3125 47.5625 32.6875 
Q 51.078125 28.078125 51.078125 21.140625 
Q 51.078125 11.765625 44.234375 5.25 
Q 37.40625 -1.265625 26.953125 -1.265625 
Q 17.53125 -1.265625 11.296875 4.34375 
Q 5.078125 9.96875 4.203125 18.890625 
z
" id="ArialMT-51"/>
      </defs>
      <g style="fill:#262626;" transform="translate(21.259844 97.335658)scale(0.1 -0.1)">
       <use xlink:href="#ArialMT-51"/>
       <use x="55.615234" xlink:href="#ArialMT-48"/>
       <use x="111.230469" xlink:href="#ArialMT-48"/>
       <use x="166.845703" xlink:href="#ArialMT-48"/>
      </g>
     </g>
    </g>
    <g id="ytick_5">
     <g id="line2d_19">
      <path clip-path="url(#p4f60233f52)" d="M 50.503594 58.425119 
L 247.583594 58.425119 
" style="fill:none;stroke:#ffffff;stroke-linecap:round;"/>
     </g>
     <g id="line2d_20"/>
     <g id="text_11">
      <!-- 4000 -->
      <defs>
       <path d="M 32.328125 0 
L 32.328125 17.140625 
L 1.265625 17.140625 
L 1.265625 25.203125 
L 33.9375 71.578125 
L 41.109375 71.578125 
L 41.109375 25.203125 
L 50.78125 25.203125 
L 50.78125 17.140625 
L 41.109375 17.140625 
L 41.109375 0 
z
M 32.328125 25.203125 
L 32.328125 57.46875 
L 9.90625 25.203125 
z
" id="ArialMT-52"/>
      </defs>
      <g style="fill:#262626;" transform="translate(21.259844 62.004026)scale(0.1 -0.1)">
       <use xlink:href="#ArialMT-52"/>
       <use x="55.615234" xlink:href="#ArialMT-48"/>
       <use x="111.230469" xlink:href="#ArialMT-48"/>
       <use x="166.845703" xlink:href="#ArialMT-48"/>
      </g>
     </g>
    </g>
    <g id="ytick_6">
     <g id="line2d_21">
      <path clip-path="url(#p4f60233f52)" d="M 50.503594 23.093487 
L 247.583594 23.093487 
" style="fill:none;stroke:#ffffff;stroke-linecap:round;"/>
     </g>
     <g id="line2d_22"/>
     <g id="text_12">
      <!-- 5000 -->
      <g style="fill:#262626;" transform="translate(21.259844 26.672393)scale(0.1 -0.1)">
       <use xlink:href="#ArialMT-53"/>
       <use x="55.615234" xlink:href="#ArialMT-48"/>
       <use x="111.230469" xlink:href="#ArialMT-48"/>
       <use x="166.845703" xlink:href="#ArialMT-48"/>
      </g>
     </g>
    </g>
    <g id="text_13">
     <!-- Score -->
     <defs>
      <path d="M 4.5 23 
L 13.421875 23.78125 
Q 14.0625 18.40625 16.375 14.96875 
Q 18.703125 11.53125 23.578125 9.40625 
Q 28.46875 7.28125 34.578125 7.28125 
Q 39.984375 7.28125 44.140625 8.890625 
Q 48.296875 10.5 50.3125 13.296875 
Q 52.34375 16.109375 52.34375 19.4375 
Q 52.34375 22.796875 50.390625 25.3125 
Q 48.4375 27.828125 43.953125 29.546875 
Q 41.0625 30.671875 31.203125 33.03125 
Q 21.34375 35.40625 17.390625 37.5 
Q 12.25 40.1875 9.734375 44.15625 
Q 7.234375 48.140625 7.234375 53.078125 
Q 7.234375 58.5 10.296875 63.203125 
Q 13.375 67.921875 19.28125 70.359375 
Q 25.203125 72.796875 32.421875 72.796875 
Q 40.375 72.796875 46.453125 70.234375 
Q 52.546875 67.671875 55.8125 62.6875 
Q 59.078125 57.71875 59.328125 51.421875 
L 50.25 50.734375 
Q 49.515625 57.515625 45.28125 60.984375 
Q 41.0625 64.453125 32.8125 64.453125 
Q 24.21875 64.453125 20.28125 61.296875 
Q 16.359375 58.15625 16.359375 53.71875 
Q 16.359375 49.859375 19.140625 47.359375 
Q 21.875 44.875 33.421875 42.265625 
Q 44.96875 39.65625 49.265625 37.703125 
Q 55.515625 34.8125 58.484375 30.390625 
Q 61.46875 25.984375 61.46875 20.21875 
Q 61.46875 14.5 58.203125 9.4375 
Q 54.9375 4.390625 48.796875 1.578125 
Q 42.671875 -1.21875 35.015625 -1.21875 
Q 25.296875 -1.21875 18.71875 1.609375 
Q 12.15625 4.4375 8.421875 10.125 
Q 4.6875 15.828125 4.5 23 
z
" id="ArialMT-83"/>
      <path d="M 6.5 0 
L 6.5 51.859375 
L 14.40625 51.859375 
L 14.40625 44 
Q 17.4375 49.515625 20 51.265625 
Q 22.5625 53.03125 25.640625 53.03125 
Q 30.078125 53.03125 34.671875 50.203125 
L 31.640625 42.046875 
Q 28.421875 43.953125 25.203125 43.953125 
Q 22.3125 43.953125 20.015625 42.21875 
Q 17.71875 40.484375 16.75 37.40625 
Q 15.28125 32.71875 15.28125 27.15625 
L 15.28125 0 
z
" id="ArialMT-114"/>
      <path d="M 42.09375 16.703125 
L 51.171875 15.578125 
Q 49.03125 7.625 43.21875 3.21875 
Q 37.40625 -1.171875 28.375 -1.171875 
Q 17 -1.171875 10.328125 5.828125 
Q 3.65625 12.84375 3.65625 25.484375 
Q 3.65625 38.578125 10.390625 45.796875 
Q 17.140625 53.03125 27.875 53.03125 
Q 38.28125 53.03125 44.875 45.953125 
Q 51.46875 38.875 51.46875 26.03125 
Q 51.46875 25.25 51.421875 23.6875 
L 12.75 23.6875 
Q 13.234375 15.140625 17.578125 10.59375 
Q 21.921875 6.0625 28.421875 6.0625 
Q 33.25 6.0625 36.671875 8.59375 
Q 40.09375 11.140625 42.09375 16.703125 
z
M 13.234375 30.90625 
L 42.1875 30.90625 
Q 41.609375 37.453125 38.875 40.71875 
Q 34.671875 45.796875 27.984375 45.796875 
Q 21.921875 45.796875 17.796875 41.75 
Q 13.671875 37.703125 13.234375 30.90625 
z
" id="ArialMT-101"/>
     </defs>
     <g style="fill:#262626;" transform="translate(15.073594 134.216406)rotate(-90)scale(0.11 -0.11)">
      <use xlink:href="#ArialMT-83"/>
      <use x="66.699219" xlink:href="#ArialMT-99"/>
      <use x="116.699219" xlink:href="#ArialMT-111"/>
      <use x="172.314453" xlink:href="#ArialMT-114"/>
      <use x="205.615234" xlink:href="#ArialMT-101"/>
     </g>
    </g>
   </g>
   <g id="PolyCollection_1">
    <path clip-path="url(#p4f60233f52)" d="M 59.461776 202.040774 
L 59.461776 208.180477 
L 60.357594 211.964897 
L 61.253412 106.1669 
L 62.14923 80.09358 
L 63.045048 82.059085 
L 63.940866 81.181258 
L 64.836685 66.153398 
L 65.732503 63.860195 
L 66.628321 64.186336 
L 67.524139 66.513058 
L 68.419957 59.004667 
L 69.315776 60.763658 
L 70.211594 56.672791 
L 71.107412 49.367705 
L 72.00323 47.975977 
L 72.899048 54.882428 
L 73.794866 63.021006 
L 74.690685 52.51523 
L 75.586503 50.900833 
L 76.482321 65.655523 
L 77.378139 57.311281 
L 78.273957 54.774205 
L 79.169776 35.570599 
L 80.065594 35.159083 
L 80.961412 52.94103 
L 81.85723 46.683411 
L 82.753048 47.487249 
L 83.648866 55.342995 
L 84.544685 48.281255 
L 85.440503 46.661447 
L 86.336321 49.333793 
L 87.232139 49.13352 
L 88.127957 46.314018 
L 89.023776 45.321259 
L 89.919594 48.034604 
L 90.815412 43.527321 
L 91.71123 45.293689 
L 92.607048 43.283263 
L 93.502866 37.845826 
L 94.398685 48.708919 
L 95.294503 47.046012 
L 96.190321 46.884954 
L 97.086139 42.174008 
L 97.981957 44.217065 
L 98.877776 41.438437 
L 99.773594 37.158361 
L 100.669412 42.073398 
L 101.56523 41.116321 
L 102.461048 48.484674 
L 103.356866 40.106711 
L 104.252685 39.750279 
L 105.148503 42.212775 
L 106.044321 48.68888 
L 106.940139 45.51654 
L 107.835957 45.346025 
L 108.731776 40.451313 
L 109.627594 40.448359 
L 110.523412 43.47576 
L 111.41923 43.056094 
L 112.315048 39.017932 
L 113.210866 32.955496 
L 114.106685 47.008178 
L 115.002503 42.255021 
L 115.898321 39.159423 
L 116.794139 53.144096 
L 117.689957 44.267644 
L 118.585776 45.994058 
L 119.481594 45.341627 
L 120.377412 43.405157 
L 121.27323 44.990378 
L 122.169048 43.348644 
L 123.064866 32.338896 
L 123.960685 46.291795 
L 124.856503 41.50285 
L 125.752321 43.08812 
L 126.648139 40.926095 
L 127.543957 45.226835 
L 128.439776 43.465009 
L 129.335594 34.373359 
L 130.231412 43.068488 
L 131.12723 33.852141 
L 132.023048 38.212077 
L 132.918866 47.527392 
L 133.814685 43.893928 
L 134.710503 36.833852 
L 135.606321 36.552519 
L 136.502139 41.658593 
L 137.397957 41.179458 
L 138.293776 35.275503 
L 139.189594 47.489092 
L 140.085412 38.728519 
L 140.98123 32.246278 
L 141.877048 44.32624 
L 142.772866 46.984894 
L 143.668685 42.638173 
L 144.564503 44.882338 
L 145.460321 43.137689 
L 146.356139 38.830053 
L 147.251957 40.914603 
L 148.147776 39.858271 
L 149.043594 36.478254 
L 149.939412 47.967349 
L 150.83523 40.903501 
L 151.731048 44.993627 
L 152.626866 50.844952 
L 153.522685 34.908463 
L 154.418503 38.923959 
L 155.314321 33.242536 
L 156.210139 43.409879 
L 157.105957 34.042306 
L 158.001776 40.384084 
L 158.897594 32.712798 
L 159.793412 34.763285 
L 160.68923 43.249994 
L 161.585048 37.81932 
L 162.480866 36.917264 
L 163.376685 42.133529 
L 164.272503 34.405171 
L 165.168321 39.530462 
L 166.064139 39.587013 
L 166.959957 38.336627 
L 167.855776 44.152151 
L 168.751594 41.706795 
L 169.647412 34.885349 
L 170.54323 42.500563 
L 171.439048 44.254365 
L 172.334866 50.356565 
L 173.230685 42.497445 
L 174.126503 39.881539 
L 175.022321 37.466921 
L 175.918139 45.971463 
L 176.813957 48.007346 
L 177.709776 45.196352 
L 178.605594 40.188867 
L 179.501412 36.580262 
L 180.39723 48.413525 
L 181.293048 37.829052 
L 182.188866 51.790328 
L 183.084685 45.070465 
L 183.980503 47.012105 
L 184.876321 42.760375 
L 185.772139 39.821445 
L 186.667957 42.961392 
L 187.563776 46.247345 
L 188.459594 47.435869 
L 189.355412 47.057153 
L 190.25123 34.544181 
L 191.147048 41.795214 
L 192.042866 48.620831 
L 192.938685 41.742195 
L 193.834503 39.381377 
L 194.730321 38.976967 
L 195.626139 35.606825 
L 196.521957 38.931756 
L 197.417776 37.212758 
L 198.313594 42.214134 
L 199.209412 42.004424 
L 200.10523 40.403115 
L 201.001048 43.348179 
L 201.896866 45.071054 
L 202.792685 40.05034 
L 203.688503 45.368655 
L 204.584321 44.371227 
L 205.480139 46.203074 
L 206.375957 44.541547 
L 207.271776 39.354256 
L 208.167594 37.919453 
L 209.063412 47.12109 
L 209.95923 44.202574 
L 210.855048 41.721356 
L 211.750866 39.437913 
L 212.646685 42.401455 
L 213.542503 40.230792 
L 214.438321 35.993055 
L 215.334139 49.121127 
L 216.229957 40.248994 
L 217.125776 44.870005 
L 218.021594 52.748443 
L 218.917412 43.752183 
L 219.81323 41.383239 
L 220.709048 34.755182 
L 221.604866 39.345749 
L 222.500685 43.781546 
L 223.396503 36.818678 
L 224.292321 33.392078 
L 225.188139 38.764242 
L 226.083957 40.984421 
L 226.979776 44.32532 
L 227.875594 40.585281 
L 228.771412 37.832094 
L 229.66723 34.210768 
L 230.563048 39.662238 
L 231.458866 39.574718 
L 232.354685 41.628815 
L 233.250503 38.758253 
L 234.146321 44.825557 
L 235.042139 42.454606 
L 235.937957 41.831383 
L 236.833776 35.879861 
L 237.729594 43.529542 
L 238.625412 35.884415 
L 238.625412 30.706144 
L 238.625412 30.706144 
L 237.729594 30.147545 
L 236.833776 28.347964 
L 235.937957 28.651595 
L 235.042139 27.210001 
L 234.146321 27.706954 
L 233.250503 27.397842 
L 232.354685 30.868562 
L 231.458866 29.283334 
L 230.563048 27.959436 
L 229.66723 29.993548 
L 228.771412 26.785736 
L 227.875594 27.896783 
L 226.979776 28.300494 
L 226.083957 30.325148 
L 225.188139 28.562012 
L 224.292321 29.068577 
L 223.396503 28.232903 
L 222.500685 30.079296 
L 221.604866 29.707584 
L 220.709048 29.57574 
L 219.81323 29.394406 
L 218.917412 30.932843 
L 218.021594 27.770429 
L 217.125776 28.75254 
L 216.229957 31.561797 
L 215.334139 28.603107 
L 214.438321 28.958392 
L 213.542503 30.212502 
L 212.646685 29.319023 
L 211.750866 28.241615 
L 210.855048 29.477204 
L 209.95923 29.823243 
L 209.063412 28.322714 
L 208.167594 31.414627 
L 207.271776 30.344799 
L 206.375957 28.759559 
L 205.480139 27.535845 
L 204.584321 29.272408 
L 203.688503 28.870096 
L 202.792685 28.370512 
L 201.896866 28.507116 
L 201.001048 29.809493 
L 200.10523 28.788125 
L 199.209412 26.454688 
L 198.313594 28.518458 
L 197.417776 30.274871 
L 196.521957 28.004745 
L 195.626139 29.630326 
L 194.730321 28.460182 
L 193.834503 30.282134 
L 192.938685 26.487378 
L 192.042866 30.62606 
L 191.147048 28.625169 
L 190.25123 29.811691 
L 189.355412 27.456674 
L 188.459594 30.641032 
L 187.563776 33.884084 
L 186.667957 26.853733 
L 185.772139 30.653646 
L 184.876321 29.525898 
L 183.980503 33.009471 
L 183.084685 30.686225 
L 182.188866 26.086826 
L 181.293048 28.410881 
L 180.39723 29.641895 
L 179.501412 31.258067 
L 178.605594 28.916493 
L 177.709776 30.884857 
L 176.813957 33.805593 
L 175.918139 29.993503 
L 175.022321 29.427105 
L 174.126503 29.765909 
L 173.230685 28.941265 
L 172.334866 29.018001 
L 171.439048 29.655153 
L 170.54323 29.687379 
L 169.647412 27.806536 
L 168.751594 27.680299 
L 167.855776 26.724287 
L 166.959957 29.108282 
L 166.064139 29.262179 
L 165.168321 29.609751 
L 164.272503 29.445948 
L 163.376685 29.824644 
L 162.480866 30.217205 
L 161.585048 29.761489 
L 160.68923 28.363378 
L 159.793412 29.190351 
L 158.897594 30.24715 
L 158.001776 27.500904 
L 157.105957 29.381848 
L 156.210139 30.694221 
L 155.314321 30.771954 
L 154.418503 29.659864 
L 153.522685 28.753382 
L 152.626866 29.859277 
L 151.731048 28.60233 
L 150.83523 29.657466 
L 149.939412 31.06692 
L 149.043594 30.872019 
L 148.147776 28.666783 
L 147.251957 29.253281 
L 146.356139 30.109051 
L 145.460321 30.417212 
L 144.564503 29.377335 
L 143.668685 27.828528 
L 142.772866 31.110532 
L 141.877048 26.956343 
L 140.98123 29.694074 
L 140.085412 29.871665 
L 139.189594 30.801595 
L 138.293776 30.379356 
L 137.397957 28.288328 
L 136.502139 31.833709 
L 135.606321 31.11656 
L 134.710503 29.005112 
L 133.814685 27.697242 
L 132.918866 29.024366 
L 132.023048 28.0934 
L 131.12723 30.983072 
L 130.231412 30.037851 
L 129.335594 31.238486 
L 128.439776 29.727164 
L 127.543957 30.217919 
L 126.648139 29.341897 
L 125.752321 31.222637 
L 124.856503 30.452362 
L 123.960685 30.936962 
L 123.064866 31.255319 
L 122.169048 27.299917 
L 121.27323 30.041303 
L 120.377412 30.362111 
L 119.481594 30.497585 
L 118.585776 27.402608 
L 117.689957 30.13995 
L 116.794139 30.337735 
L 115.898321 30.886414 
L 115.002503 29.541799 
L 114.106685 32.504374 
L 113.210866 30.583334 
L 112.315048 30.878925 
L 111.41923 30.375111 
L 110.523412 29.519792 
L 109.627594 29.705041 
L 108.731776 28.648028 
L 107.835957 31.711065 
L 106.940139 26.854005 
L 106.044321 30.726362 
L 105.148503 31.302717 
L 104.252685 28.659752 
L 103.356866 28.625101 
L 102.461048 32.218723 
L 101.56523 28.910746 
L 100.669412 29.480545 
L 99.773594 31.567863 
L 98.877776 29.713156 
L 97.981957 31.020336 
L 97.086139 31.578443 
L 96.190321 30.34623 
L 95.294503 30.225606 
L 94.398685 30.036226 
L 93.502866 29.686555 
L 92.607048 31.737412 
L 91.71123 30.276465 
L 90.815412 31.63832 
L 89.919594 33.027724 
L 89.023776 30.095195 
L 88.127957 27.757015 
L 87.232139 31.254759 
L 86.336321 30.80365 
L 85.440503 31.662444 
L 84.544685 31.250594 
L 83.648866 32.025195 
L 82.753048 32.412255 
L 81.85723 30.795042 
L 80.961412 30.9026 
L 80.065594 29.561619 
L 79.169776 32.045684 
L 78.273957 28.897318 
L 77.378139 34.77024 
L 76.482321 31.443947 
L 75.586503 32.721744 
L 74.690685 34.135486 
L 73.794866 33.505714 
L 72.899048 30.612145 
L 72.00323 30.336717 
L 71.107412 32.182336 
L 70.211594 39.978242 
L 69.315776 33.554629 
L 68.419957 37.262536 
L 67.524139 40.038112 
L 66.628321 39.701867 
L 65.732503 36.786351 
L 64.836685 44.468884 
L 63.940866 47.616597 
L 63.045048 50.545917 
L 62.14923 57.902458 
L 61.253412 72.467787 
L 60.357594 206.024762 
L 59.461776 202.040774 
z
" style="fill:#4c72b0;fill-opacity:0.25;"/>
   </g>
   <g id="PolyCollection_2">
    <path clip-path="url(#p4f60233f52)" d="M 59.461776 202.040774 
L 59.461776 208.180477 
L 60.357594 211.964897 
L 61.253412 106.1669 
L 62.14923 80.09358 
L 63.045048 82.059085 
L 63.940866 81.181258 
L 64.836685 69.804752 
L 65.732503 79.643802 
L 66.628321 66.686681 
L 67.524139 57.213355 
L 68.419957 69.190099 
L 69.315776 60.974985 
L 70.211594 65.630744 
L 71.107412 49.733048 
L 72.00323 49.795953 
L 72.899048 56.479651 
L 73.794866 57.05455 
L 74.690685 43.123907 
L 75.586503 42.131299 
L 76.482321 54.232143 
L 77.378139 39.953415 
L 78.273957 54.825744 
L 79.169776 49.565352 
L 80.065594 44.23533 
L 80.961412 37.792223 
L 81.85723 51.127289 
L 82.753048 42.069476 
L 83.648866 46.015889 
L 84.544685 52.210968 
L 85.440503 35.144795 
L 86.336321 41.460678 
L 87.232139 41.60597 
L 88.127957 40.494522 
L 89.023776 42.435949 
L 89.919594 39.632155 
L 90.815412 44.43394 
L 91.71123 46.208476 
L 92.607048 42.905162 
L 93.502866 40.161213 
L 94.398685 45.332192 
L 95.294503 48.793526 
L 96.190321 38.305366 
L 97.086139 44.411057 
L 97.981957 44.921936 
L 98.877776 39.149205 
L 99.773594 44.549846 
L 100.669412 44.011618 
L 101.56523 45.543936 
L 102.461048 45.945392 
L 103.356866 49.60799 
L 104.252685 39.719122 
L 105.148503 41.190159 
L 106.044321 48.756247 
L 106.940139 48.745062 
L 107.835957 43.660708 
L 108.731776 35.874251 
L 109.627594 40.883817 
L 110.523412 45.607364 
L 111.41923 41.90449 
L 112.315048 41.73726 
L 113.210866 46.790502 
L 114.106685 45.48502 
L 115.002503 43.811211 
L 115.898321 38.607729 
L 116.794139 47.183523 
L 117.689957 45.468675 
L 118.585776 42.616348 
L 119.481594 38.595493 
L 120.377412 43.087836 
L 121.27323 46.204324 
L 122.169048 46.532581 
L 123.064866 49.516522 
L 123.960685 44.279045 
L 124.856503 56.416148 
L 125.752321 49.731203 
L 126.648139 45.23609 
L 127.543957 44.462013 
L 128.439776 44.173812 
L 129.335594 36.194744 
L 130.231412 37.861301 
L 131.12723 39.426892 
L 132.023048 44.116744 
L 132.918866 42.430291 
L 133.814685 35.406645 
L 134.710503 45.962207 
L 135.606321 38.319321 
L 136.502139 35.514855 
L 137.397957 51.81317 
L 138.293776 42.526883 
L 139.189594 39.850619 
L 140.085412 41.979774 
L 140.98123 51.353232 
L 141.877048 40.00834 
L 142.772866 40.631825 
L 143.668685 52.417337 
L 144.564503 40.496541 
L 145.460321 44.107527 
L 146.356139 40.819976 
L 147.251957 42.956473 
L 148.147776 37.386684 
L 149.043594 38.858853 
L 149.939412 37.314804 
L 150.83523 49.035611 
L 151.731048 42.652187 
L 152.626866 52.000194 
L 153.522685 53.404845 
L 154.418503 38.166526 
L 155.314321 44.031948 
L 156.210139 36.475218 
L 157.105957 34.57502 
L 158.001776 46.113706 
L 158.897594 42.235608 
L 159.793412 41.002074 
L 160.68923 33.743452 
L 161.585048 41.715362 
L 162.480866 33.529292 
L 163.376685 33.875055 
L 164.272503 32.852018 
L 165.168321 41.400908 
L 166.064139 38.67898 
L 166.959957 45.766979 
L 167.855776 45.579071 
L 168.751594 39.441231 
L 169.647412 37.089359 
L 170.54323 44.197343 
L 171.439048 38.323155 
L 172.334866 43.80688 
L 173.230685 43.551801 
L 174.126503 39.463749 
L 175.022321 42.438241 
L 175.918139 40.663979 
L 176.813957 35.977673 
L 177.709776 49.522137 
L 178.605594 39.028208 
L 179.501412 41.82107 
L 180.39723 42.644114 
L 181.293048 43.696634 
L 182.188866 33.839645 
L 183.084685 43.952261 
L 183.980503 39.984448 
L 184.876321 48.97617 
L 185.772139 41.61352 
L 186.667957 42.601215 
L 187.563776 41.2023 
L 188.459594 40.420247 
L 189.355412 42.232664 
L 190.25123 44.158101 
L 191.147048 38.240654 
L 192.042866 41.747885 
L 192.938685 39.330362 
L 193.834503 40.69421 
L 194.730321 41.828176 
L 195.626139 31.700371 
L 196.521957 42.7168 
L 197.417776 42.079506 
L 198.313594 46.502241 
L 199.209412 41.608392 
L 200.10523 42.206951 
L 201.001048 42.223598 
L 201.896866 45.929348 
L 202.792685 47.583197 
L 203.688503 45.916835 
L 204.584321 34.620842 
L 205.480139 38.891416 
L 206.375957 43.699775 
L 207.271776 33.907239 
L 208.167594 43.606389 
L 209.063412 40.6254 
L 209.95923 48.018464 
L 210.855048 43.777713 
L 211.750866 33.092806 
L 212.646685 38.01548 
L 213.542503 42.189007 
L 214.438321 47.029267 
L 215.334139 38.088108 
L 216.229957 50.515329 
L 217.125776 42.034046 
L 218.021594 41.276247 
L 218.917412 53.753863 
L 219.81323 40.620208 
L 220.709048 41.313093 
L 221.604866 42.652755 
L 222.500685 46.526005 
L 223.396503 40.968424 
L 224.292321 40.977036 
L 225.188139 38.958713 
L 226.083957 44.356349 
L 226.979776 39.870892 
L 227.875594 39.403341 
L 228.771412 34.26088 
L 229.66723 41.574414 
L 230.563048 50.418827 
L 231.458866 39.286062 
L 232.354685 36.238451 
L 233.250503 43.238637 
L 234.146321 42.008949 
L 235.042139 50.783686 
L 235.937957 36.215015 
L 236.833776 38.712238 
L 237.729594 34.694219 
L 238.625412 37.9514 
L 238.625412 30.441271 
L 238.625412 30.441271 
L 237.729594 29.399931 
L 236.833776 29.679325 
L 235.937957 29.316658 
L 235.042139 27.382451 
L 234.146321 28.817336 
L 233.250503 28.425636 
L 232.354685 29.528695 
L 231.458866 29.381162 
L 230.563048 27.528436 
L 229.66723 29.662476 
L 228.771412 30.555804 
L 227.875594 30.885679 
L 226.979776 28.801997 
L 226.083957 28.209351 
L 225.188139 29.370161 
L 224.292321 29.697819 
L 223.396503 31.213152 
L 222.500685 29.896965 
L 221.604866 29.615651 
L 220.709048 28.961094 
L 219.81323 29.717124 
L 218.917412 26.514448 
L 218.021594 29.053741 
L 217.125776 28.800356 
L 216.229957 30.839165 
L 215.334139 29.31958 
L 214.438321 28.972897 
L 213.542503 31.04489 
L 212.646685 29.269404 
L 211.750866 30.93988 
L 210.855048 28.156445 
L 209.95923 29.183006 
L 209.063412 29.807804 
L 208.167594 26.813679 
L 207.271776 30.712906 
L 206.375957 28.081207 
L 205.480139 29.297811 
L 204.584321 30.427593 
L 203.688503 32.490033 
L 202.792685 27.593288 
L 201.896866 31.036461 
L 201.001048 29.289166 
L 200.10523 30.953456 
L 199.209412 29.905038 
L 198.313594 26.989099 
L 197.417776 30.653897 
L 196.521957 29.328265 
L 195.626139 29.70747 
L 194.730321 29.545087 
L 193.834503 29.591423 
L 192.938685 29.35522 
L 192.042866 29.537576 
L 191.147048 30.101512 
L 190.25123 28.505028 
L 189.355412 30.262448 
L 188.459594 28.562939 
L 187.563776 29.952619 
L 186.667957 29.59009 
L 185.772139 32.524295 
L 184.876321 24.556073 
L 183.980503 29.137936 
L 183.084685 28.691159 
L 182.188866 30.605453 
L 181.293048 29.711428 
L 180.39723 32.72183 
L 179.501412 28.620046 
L 178.605594 29.278538 
L 177.709776 31.386214 
L 176.813957 31.849759 
L 175.918139 29.270399 
L 175.022321 30.488378 
L 174.126503 29.239066 
L 173.230685 32.72 
L 172.334866 26.387004 
L 171.439048 28.676337 
L 170.54323 28.446914 
L 169.647412 29.35285 
L 168.751594 28.453169 
L 167.855776 26.271749 
L 166.959957 30.046962 
L 166.064139 29.056965 
L 165.168321 28.551392 
L 164.272503 29.603348 
L 163.376685 30.083099 
L 162.480866 31.02705 
L 161.585048 28.474423 
L 160.68923 29.818656 
L 159.793412 29.166755 
L 158.897594 28.521548 
L 158.001776 27.333363 
L 157.105957 29.598522 
L 156.210139 29.811718 
L 155.314321 27.35532 
L 154.418503 28.987799 
L 153.522685 29.345642 
L 152.626866 31.11649 
L 151.731048 30.582689 
L 150.83523 30.082409 
L 149.939412 29.415969 
L 149.043594 28.883419 
L 148.147776 29.219405 
L 147.251957 28.756226 
L 146.356139 29.942304 
L 145.460321 29.62769 
L 144.564503 30.143709 
L 143.668685 25.193923 
L 142.772866 28.536222 
L 141.877048 28.24087 
L 140.98123 29.925388 
L 140.085412 30.277071 
L 139.189594 28.843887 
L 138.293776 28.555787 
L 137.397957 33.23114 
L 136.502139 30.646096 
L 135.606321 28.073066 
L 134.710503 30.436342 
L 133.814685 30.099662 
L 132.918866 26.849983 
L 132.023048 30.038746 
L 131.12723 30.323945 
L 130.231412 29.91321 
L 129.335594 31.251051 
L 128.439776 30.166229 
L 127.543957 31.127321 
L 126.648139 29.682225 
L 125.752321 27.862836 
L 124.856503 30.148473 
L 123.960685 30.562705 
L 123.064866 32.893496 
L 122.169048 29.551595 
L 121.27323 28.646303 
L 120.377412 29.888268 
L 119.481594 28.475076 
L 118.585776 29.199576 
L 117.689957 30.487077 
L 116.794139 32.629157 
L 115.898321 30.461874 
L 115.002503 27.128912 
L 114.106685 30.947682 
L 113.210866 32.204591 
L 112.315048 30.191694 
L 111.41923 30.192686 
L 110.523412 34.339471 
L 109.627594 27.685591 
L 108.731776 30.928289 
L 107.835957 29.37533 
L 106.940139 29.769542 
L 106.044321 29.012295 
L 105.148503 30.633232 
L 104.252685 30.696611 
L 103.356866 26.974609 
L 102.461048 30.540227 
L 101.56523 30.643886 
L 100.669412 29.556569 
L 99.773594 29.963151 
L 98.877776 28.466199 
L 97.981957 33.892765 
L 97.086139 27.24057 
L 96.190321 29.156289 
L 95.294503 27.507146 
L 94.398685 32.877099 
L 93.502866 30.036151 
L 92.607048 29.184078 
L 91.71123 31.916583 
L 90.815412 32.642699 
L 89.919594 30.004394 
L 89.023776 30.849666 
L 88.127957 28.311659 
L 87.232139 30.225206 
L 86.336321 30.067653 
L 85.440503 32.781016 
L 84.544685 29.086236 
L 83.648866 33.331928 
L 82.753048 30.159473 
L 81.85723 31.48147 
L 80.961412 30.74931 
L 80.065594 33.386943 
L 79.169776 28.244709 
L 78.273957 32.161714 
L 77.378139 31.083445 
L 76.482321 33.064789 
L 75.586503 29.142708 
L 74.690685 28.814796 
L 73.794866 32.398817 
L 72.899048 30.497048 
L 72.00323 31.127905 
L 71.107412 28.494458 
L 70.211594 37.996063 
L 69.315776 35.968399 
L 68.419957 36.916823 
L 67.524139 35.017133 
L 66.628321 40.329392 
L 65.732503 42.823117 
L 64.836685 42.189527 
L 63.940866 47.616597 
L 63.045048 50.545917 
L 62.14923 57.902458 
L 61.253412 72.467787 
L 60.357594 206.024762 
L 59.461776 202.040774 
z
" style="fill:#55a868;fill-opacity:0.25;"/>
   </g>
   <g id="line2d_23">
    <path clip-path="url(#p4f60233f52)" d="M 59.461776 205.110626 
L 60.357594 208.99483 
L 61.253412 89.317344 
L 62.14923 68.998019 
L 63.045048 66.302501 
L 63.940866 64.398928 
L 64.836685 55.311141 
L 65.732503 50.323273 
L 66.628321 51.944102 
L 67.524139 53.275585 
L 68.419957 48.133601 
L 69.315776 47.159144 
L 70.211594 48.325516 
L 71.107412 40.77502 
L 72.00323 39.156347 
L 72.899048 42.747287 
L 73.794866 48.26336 
L 74.690685 43.325358 
L 75.586503 41.811288 
L 76.482321 48.549735 
L 77.378139 46.04076 
L 78.273957 41.835762 
L 79.169776 33.808141 
L 80.065594 32.360351 
L 80.961412 41.921815 
L 81.85723 38.739226 
L 82.753048 39.949752 
L 83.648866 43.684095 
L 84.544685 39.765925 
L 85.440503 39.161945 
L 86.336321 40.068721 
L 87.232139 40.194139 
L 88.127957 37.035516 
L 89.023776 37.708227 
L 89.919594 40.531164 
L 90.815412 37.58282 
L 91.71123 37.785077 
L 92.607048 37.510338 
L 93.502866 33.766191 
L 94.398685 39.372572 
L 95.294503 38.635809 
L 96.190321 38.615592 
L 97.086139 36.876226 
L 97.981957 37.618701 
L 98.877776 35.575796 
L 99.773594 34.363112 
L 100.669412 35.776972 
L 101.56523 35.013534 
L 102.461048 40.351699 
L 103.356866 34.365906 
L 104.252685 34.205015 
L 105.148503 36.757746 
L 106.044321 39.707621 
L 106.940139 36.185272 
L 107.835957 38.528545 
L 108.731776 34.54967 
L 109.627594 35.0767 
L 110.523412 36.497776 
L 111.41923 36.715602 
L 112.315048 34.948428 
L 113.210866 31.769415 
L 114.106685 39.756276 
L 115.002503 35.89841 
L 115.898321 35.022919 
L 116.794139 41.740915 
L 117.689957 37.203797 
L 118.585776 36.698333 
L 119.481594 37.919606 
L 120.377412 36.883634 
L 121.27323 37.515841 
L 122.169048 35.324281 
L 123.064866 31.797107 
L 123.960685 38.614379 
L 124.856503 35.977606 
L 125.752321 37.155378 
L 126.648139 35.133996 
L 127.543957 37.722377 
L 128.439776 36.596087 
L 129.335594 32.805922 
L 130.231412 36.55317 
L 131.12723 32.417606 
L 132.023048 33.152738 
L 132.918866 38.275879 
L 133.814685 35.795585 
L 134.710503 32.919482 
L 135.606321 33.83454 
L 136.502139 36.746151 
L 138.293776 32.827429 
L 139.189594 39.145343 
L 140.085412 34.300092 
L 140.98123 30.970176 
L 141.877048 35.641291 
L 142.772866 39.047713 
L 143.668685 35.233351 
L 144.564503 37.129836 
L 145.460321 36.777451 
L 146.356139 34.469552 
L 147.251957 35.083942 
L 148.147776 34.262527 
L 149.043594 33.675137 
L 149.939412 39.517134 
L 150.83523 35.280483 
L 151.731048 36.797979 
L 152.626866 40.352115 
L 153.522685 31.830923 
L 154.418503 34.291911 
L 155.314321 32.007245 
L 156.210139 37.05205 
L 157.105957 31.712077 
L 158.001776 33.942494 
L 158.897594 31.479974 
L 159.793412 31.976818 
L 160.68923 35.806686 
L 161.585048 33.790405 
L 162.480866 33.567234 
L 163.376685 35.979087 
L 164.272503 31.925559 
L 165.168321 34.570107 
L 166.064139 34.424596 
L 166.959957 33.722454 
L 167.855776 35.438219 
L 168.751594 34.693547 
L 169.647412 31.345943 
L 170.54323 36.093971 
L 171.439048 36.954759 
L 172.334866 39.687283 
L 173.230685 35.719355 
L 174.126503 34.823724 
L 175.022321 33.447013 
L 175.918139 37.982483 
L 176.813957 40.90647 
L 177.709776 38.040604 
L 178.605594 34.55268 
L 179.501412 33.919165 
L 180.39723 39.02771 
L 181.293048 33.119967 
L 182.188866 38.938577 
L 183.084685 37.878345 
L 183.980503 40.010788 
L 184.876321 36.143137 
L 185.772139 35.237546 
L 186.667957 34.907562 
L 187.563776 40.065715 
L 188.459594 39.038451 
L 189.355412 37.256914 
L 190.25123 32.177936 
L 191.147048 35.210192 
L 192.042866 39.623445 
L 192.938685 34.114786 
L 193.834503 34.831755 
L 195.626139 32.618575 
L 196.521957 33.468251 
L 197.417776 33.743814 
L 198.313594 35.366296 
L 199.209412 34.229556 
L 200.10523 34.59562 
L 201.001048 36.578836 
L 201.896866 36.789085 
L 202.792685 34.210426 
L 203.688503 37.119376 
L 204.584321 36.821818 
L 205.480139 36.86946 
L 206.375957 36.650553 
L 207.271776 34.849528 
L 208.167594 34.66704 
L 209.063412 37.721902 
L 209.95923 37.012909 
L 210.855048 35.59928 
L 211.750866 33.839764 
L 212.646685 35.860239 
L 213.542503 35.221647 
L 214.438321 32.475724 
L 215.334139 38.862117 
L 216.229957 35.905396 
L 217.125776 36.811273 
L 218.021594 40.259436 
L 218.917412 37.342513 
L 219.81323 35.388822 
L 220.709048 32.165461 
L 222.500685 36.930421 
L 223.396503 32.525791 
L 224.292321 31.230328 
L 225.188139 33.663127 
L 226.083957 35.654785 
L 226.979776 36.312907 
L 228.771412 32.308915 
L 229.66723 32.102158 
L 230.563048 33.810837 
L 231.458866 34.429026 
L 232.354685 36.248689 
L 233.250503 33.078048 
L 234.146321 36.266255 
L 235.042139 34.832303 
L 235.937957 35.241489 
L 236.833776 32.113912 
L 237.729594 36.838544 
L 238.625412 33.295279 
L 238.625412 33.295279 
" style="fill:none;stroke:#4c72b0;stroke-linecap:round;stroke-width:1.75;"/>
   </g>
   <g id="line2d_24">
    <path clip-path="url(#p4f60233f52)" d="M 59.461776 205.110626 
L 60.357594 208.99483 
L 61.253412 89.317344 
L 62.14923 68.998019 
L 63.045048 66.302501 
L 63.940866 64.398928 
L 64.836685 55.997139 
L 65.732503 61.233459 
L 67.524139 46.115244 
L 68.419957 53.053461 
L 69.315776 48.471692 
L 70.211594 51.813404 
L 71.107412 39.113753 
L 72.00323 40.461929 
L 72.899048 43.488349 
L 73.794866 44.726683 
L 74.690685 35.969352 
L 75.586503 35.637003 
L 76.482321 43.648466 
L 77.378139 35.51843 
L 78.273957 43.493729 
L 79.169776 38.905031 
L 80.065594 38.811137 
L 80.961412 34.270766 
L 81.85723 41.30438 
L 82.753048 36.114474 
L 83.648866 39.673908 
L 84.544685 40.648602 
L 85.440503 33.962905 
L 86.336321 35.764166 
L 87.232139 35.915588 
L 88.127957 34.403091 
L 89.023776 36.642807 
L 89.919594 34.818274 
L 90.815412 38.53832 
L 91.71123 39.06253 
L 92.607048 36.04462 
L 93.502866 35.098682 
L 94.398685 39.104646 
L 95.294503 38.150336 
L 96.190321 33.730828 
L 97.086139 35.825814 
L 97.981957 39.40735 
L 98.877776 33.807702 
L 99.773594 37.256499 
L 100.669412 36.784093 
L 101.56523 38.093911 
L 103.356866 38.2913 
L 104.252685 35.207866 
L 105.148503 35.911696 
L 106.044321 38.884271 
L 106.940139 39.257302 
L 107.835957 36.518019 
L 108.731776 33.40127 
L 109.627594 34.284704 
L 110.523412 39.973418 
L 111.41923 36.048588 
L 112.315048 35.964477 
L 113.210866 39.497546 
L 114.106685 38.216351 
L 115.002503 35.470062 
L 115.898321 34.534801 
L 116.794139 39.90634 
L 118.585776 35.907962 
L 119.481594 33.535285 
L 120.377412 36.488052 
L 121.27323 37.425313 
L 122.169048 38.042088 
L 123.064866 41.205009 
L 123.960685 37.420875 
L 124.856503 43.28231 
L 125.752321 38.797019 
L 126.648139 37.459157 
L 127.543957 37.794667 
L 128.439776 37.17002 
L 129.335594 33.722897 
L 130.231412 33.887255 
L 131.12723 34.875419 
L 132.023048 37.077745 
L 132.918866 34.640137 
L 133.814685 32.753153 
L 134.710503 38.199275 
L 135.606321 33.196193 
L 136.502139 33.080475 
L 137.397957 42.522155 
L 138.293776 35.541335 
L 139.189594 34.347253 
L 140.085412 36.128423 
L 140.98123 40.63931 
L 141.877048 34.124605 
L 142.772866 34.584024 
L 143.668685 38.80563 
L 144.564503 35.320125 
L 145.460321 36.867609 
L 146.356139 35.38114 
L 147.251957 35.856349 
L 148.147776 33.303045 
L 149.043594 33.871136 
L 149.939412 33.365386 
L 150.83523 39.55901 
L 151.731048 36.617438 
L 152.626866 41.558342 
L 153.522685 41.375244 
L 154.418503 33.577162 
L 155.314321 35.693634 
L 156.210139 33.143468 
L 157.105957 32.086771 
L 158.001776 36.723534 
L 158.897594 35.378578 
L 159.793412 35.084415 
L 160.68923 31.781054 
L 161.585048 35.094893 
L 162.480866 32.278171 
L 163.376685 31.979077 
L 164.272503 31.227683 
L 165.168321 34.97615 
L 166.064139 33.867972 
L 166.959957 37.90697 
L 168.751594 33.9472 
L 169.647412 33.221105 
L 170.54323 36.322128 
L 171.439048 33.499746 
L 172.334866 35.096942 
L 173.230685 38.135901 
L 174.126503 34.351408 
L 175.022321 36.46331 
L 175.918139 34.967189 
L 176.813957 33.913716 
L 177.709776 40.454176 
L 178.605594 34.153373 
L 179.501412 35.220558 
L 180.39723 37.682972 
L 181.293048 36.704031 
L 182.188866 32.222549 
L 183.084685 36.32171 
L 183.980503 34.561192 
L 184.876321 36.766121 
L 185.772139 37.068907 
L 186.667957 36.095652 
L 187.563776 35.577459 
L 188.459594 34.491593 
L 189.355412 36.247556 
L 190.25123 36.331565 
L 191.147048 34.171083 
L 192.042866 35.64273 
L 192.938685 34.342791 
L 193.834503 35.142817 
L 194.730321 35.686631 
L 195.626139 30.70392 
L 196.521957 36.022533 
L 198.313594 36.74567 
L 199.209412 35.756715 
L 200.10523 36.580203 
L 201.001048 35.756382 
L 201.896866 38.482905 
L 202.792685 37.588242 
L 203.688503 39.203434 
L 204.584321 32.524217 
L 205.480139 34.094613 
L 206.375957 35.890491 
L 207.271776 32.310072 
L 208.167594 35.210034 
L 209.063412 35.216602 
L 209.95923 38.600735 
L 210.855048 35.967079 
L 211.750866 32.016343 
L 212.646685 33.642442 
L 213.542503 36.616949 
L 214.438321 38.001082 
L 215.334139 33.703844 
L 216.229957 40.677247 
L 217.125776 35.417201 
L 218.021594 35.164994 
L 218.917412 40.134156 
L 219.81323 35.168666 
L 220.709048 35.137094 
L 221.604866 36.134203 
L 222.500685 38.211485 
L 223.396503 36.090788 
L 224.292321 35.337428 
L 225.188139 34.164437 
L 226.083957 36.28285 
L 226.979776 34.336444 
L 227.875594 35.14451 
L 228.771412 32.408342 
L 230.563048 38.973632 
L 231.458866 34.333612 
L 232.354685 32.883573 
L 233.250503 35.832136 
L 234.146321 35.413142 
L 235.042139 39.083069 
L 235.937957 32.765837 
L 236.833776 34.195782 
L 237.729594 32.047075 
L 238.625412 34.196336 
L 238.625412 34.196336 
" style="fill:none;stroke:#55a868;stroke-linecap:round;stroke-width:1.75;"/>
   </g>
   <g id="line2d_25">
    <path clip-path="url(#p4f60233f52)" d="M 59.461776 31.276344 
L 238.625412 31.276344 
" style="fill:none;stroke:#c44e52;stroke-linecap:round;stroke-width:1.75;"/>
   </g>
   <g id="patch_3">
    <path d="M 50.503594 217.909375 
L 50.503594 21.789375 
" style="fill:none;"/>
   </g>
   <g id="patch_4">
    <path d="M 247.583594 217.909375 
L 247.583594 21.789375 
" style="fill:none;"/>
   </g>
   <g id="patch_5">
    <path d="M 50.503594 217.909375 
L 247.583594 217.909375 
" style="fill:none;"/>
   </g>
   <g id="patch_6">
    <path d="M 50.503594 21.789375 
L 247.583594 21.789375 
" style="fill:none;"/>
   </g>
   <g id="text_14">
    <!-- Ant -->
    <defs>
     <path d="M -0.140625 0 
L 27.34375 71.578125 
L 37.546875 71.578125 
L 66.84375 0 
L 56.0625 0 
L 47.703125 21.6875 
L 17.78125 21.6875 
L 9.90625 0 
z
M 20.515625 29.390625 
L 44.78125 29.390625 
L 37.3125 49.21875 
Q 33.890625 58.25 32.234375 64.0625 
Q 30.859375 57.171875 28.375 50.390625 
z
" id="ArialMT-65"/>
     <path d="M 6.59375 0 
L 6.59375 51.859375 
L 14.5 51.859375 
L 14.5 44.484375 
Q 20.21875 53.03125 31 53.03125 
Q 35.6875 53.03125 39.625 51.34375 
Q 43.5625 49.65625 45.515625 46.921875 
Q 47.46875 44.1875 48.25 40.4375 
Q 48.734375 37.984375 48.734375 31.890625 
L 48.734375 0 
L 39.9375 0 
L 39.9375 31.546875 
Q 39.9375 36.921875 38.90625 39.578125 
Q 37.890625 42.234375 35.28125 43.8125 
Q 32.671875 45.40625 29.15625 45.40625 
Q 23.53125 45.40625 19.453125 41.84375 
Q 15.375 38.28125 15.375 28.328125 
L 15.375 0 
z
" id="ArialMT-110"/>
     <path d="M 25.78125 7.859375 
L 27.046875 0.09375 
Q 23.34375 -0.6875 20.40625 -0.6875 
Q 15.625 -0.6875 12.984375 0.828125 
Q 10.359375 2.34375 9.28125 4.8125 
Q 8.203125 7.28125 8.203125 15.1875 
L 8.203125 45.015625 
L 1.765625 45.015625 
L 1.765625 51.859375 
L 8.203125 51.859375 
L 8.203125 64.703125 
L 16.9375 69.96875 
L 16.9375 51.859375 
L 25.78125 51.859375 
L 25.78125 45.015625 
L 16.9375 45.015625 
L 16.9375 14.703125 
Q 16.9375 10.9375 17.40625 9.859375 
Q 17.875 8.796875 18.921875 8.15625 
Q 19.96875 7.515625 21.921875 7.515625 
Q 23.390625 7.515625 25.78125 7.859375 
z
" id="ArialMT-116"/>
    </defs>
    <g style="fill:#262626;" transform="translate(140.037969 15.789375)scale(0.12 -0.12)">
     <use xlink:href="#ArialMT-65"/>
     <use x="66.699219" xlink:href="#ArialMT-110"/>
     <use x="122.314453" xlink:href="#ArialMT-116"/>
    </g>
   </g>
   <g id="legend_1">
    <g id="line2d_26">
     <path d="M 176.678906 175.014063 
L 196.678906 175.014063 
" style="fill:none;stroke:#4c72b0;stroke-linecap:round;stroke-width:1.75;"/>
    </g>
    <g id="line2d_27"/>
    <g id="text_15">
     <!-- BC -->
     <defs>
      <path d="M 7.328125 0 
L 7.328125 71.578125 
L 34.1875 71.578125 
Q 42.390625 71.578125 47.34375 69.40625 
Q 52.296875 67.234375 55.09375 62.71875 
Q 57.90625 58.203125 57.90625 53.265625 
Q 57.90625 48.6875 55.421875 44.625 
Q 52.9375 40.578125 47.90625 38.09375 
Q 54.390625 36.1875 57.875 31.59375 
Q 61.375 27 61.375 20.75 
Q 61.375 15.71875 59.25 11.390625 
Q 57.125 7.078125 54 4.734375 
Q 50.875 2.390625 46.15625 1.1875 
Q 41.453125 0 34.625 0 
z
M 16.796875 41.5 
L 32.28125 41.5 
Q 38.578125 41.5 41.3125 42.328125 
Q 44.921875 43.40625 46.75 45.890625 
Q 48.578125 48.390625 48.578125 52.15625 
Q 48.578125 55.71875 46.875 58.421875 
Q 45.171875 61.140625 41.984375 62.140625 
Q 38.8125 63.140625 31.109375 63.140625 
L 16.796875 63.140625 
z
M 16.796875 8.453125 
L 34.625 8.453125 
Q 39.203125 8.453125 41.0625 8.796875 
Q 44.34375 9.375 46.53125 10.734375 
Q 48.734375 12.109375 50.140625 14.71875 
Q 51.5625 17.328125 51.5625 20.75 
Q 51.5625 24.75 49.515625 27.703125 
Q 47.46875 30.671875 43.828125 31.859375 
Q 40.1875 33.0625 33.34375 33.0625 
L 16.796875 33.0625 
z
" id="ArialMT-66"/>
      <path d="M 58.796875 25.09375 
L 68.265625 22.703125 
Q 65.28125 11.03125 57.546875 4.90625 
Q 49.8125 -1.21875 38.625 -1.21875 
Q 27.046875 -1.21875 19.796875 3.484375 
Q 12.546875 8.203125 8.765625 17.140625 
Q 4.984375 26.078125 4.984375 36.328125 
Q 4.984375 47.515625 9.25 55.828125 
Q 13.53125 64.15625 21.40625 68.46875 
Q 29.296875 72.796875 38.765625 72.796875 
Q 49.515625 72.796875 56.828125 67.328125 
Q 64.15625 61.859375 67.046875 51.953125 
L 57.71875 49.75 
Q 55.21875 57.5625 50.484375 61.125 
Q 45.75 64.703125 38.578125 64.703125 
Q 30.328125 64.703125 24.78125 60.734375 
Q 19.234375 56.78125 16.984375 50.109375 
Q 14.75 43.453125 14.75 36.375 
Q 14.75 27.25 17.40625 20.4375 
Q 20.0625 13.625 25.671875 10.25 
Q 31.296875 6.890625 37.84375 6.890625 
Q 45.796875 6.890625 51.3125 11.46875 
Q 56.84375 16.0625 58.796875 25.09375 
z
" id="ArialMT-67"/>
     </defs>
     <g style="fill:#262626;" transform="translate(204.678906 178.514063)scale(0.1 -0.1)">
      <use xlink:href="#ArialMT-66"/>
      <use x="66.699219" xlink:href="#ArialMT-67"/>
     </g>
    </g>
    <g id="line2d_28">
     <path d="M 176.678906 189.159375 
L 196.678906 189.159375 
" style="fill:none;stroke:#55a868;stroke-linecap:round;stroke-width:1.75;"/>
    </g>
    <g id="line2d_29"/>
    <g id="text_16">
     <!-- DAgger -->
     <defs>
      <path d="M 7.71875 0 
L 7.71875 71.578125 
L 32.375 71.578125 
Q 40.71875 71.578125 45.125 70.5625 
Q 51.265625 69.140625 55.609375 65.4375 
Q 61.28125 60.640625 64.078125 53.1875 
Q 66.890625 45.75 66.890625 36.1875 
Q 66.890625 28.03125 64.984375 21.734375 
Q 63.09375 15.4375 60.109375 11.296875 
Q 57.125 7.171875 53.578125 4.796875 
Q 50.046875 2.4375 45.046875 1.21875 
Q 40.046875 0 33.546875 0 
z
M 17.1875 8.453125 
L 32.46875 8.453125 
Q 39.546875 8.453125 43.578125 9.765625 
Q 47.609375 11.078125 50 13.484375 
Q 53.375 16.84375 55.25 22.53125 
Q 57.125 28.21875 57.125 36.328125 
Q 57.125 47.5625 53.4375 53.59375 
Q 49.75 59.625 44.484375 61.671875 
Q 40.671875 63.140625 32.234375 63.140625 
L 17.1875 63.140625 
z
" id="ArialMT-68"/>
      <path d="M 4.984375 -4.296875 
L 13.53125 -5.5625 
Q 14.0625 -9.515625 16.5 -11.328125 
Q 19.78125 -13.765625 25.4375 -13.765625 
Q 31.546875 -13.765625 34.859375 -11.328125 
Q 38.1875 -8.890625 39.359375 -4.5 
Q 40.046875 -1.8125 39.984375 6.78125 
Q 34.234375 0 25.640625 0 
Q 14.9375 0 9.078125 7.71875 
Q 3.21875 15.4375 3.21875 26.21875 
Q 3.21875 33.640625 5.90625 39.90625 
Q 8.59375 46.1875 13.6875 49.609375 
Q 18.796875 53.03125 25.6875 53.03125 
Q 34.859375 53.03125 40.828125 45.609375 
L 40.828125 51.859375 
L 48.921875 51.859375 
L 48.921875 7.03125 
Q 48.921875 -5.078125 46.453125 -10.125 
Q 44 -15.1875 38.640625 -18.109375 
Q 33.296875 -21.046875 25.484375 -21.046875 
Q 16.21875 -21.046875 10.5 -16.875 
Q 4.78125 -12.703125 4.984375 -4.296875 
z
M 12.25 26.859375 
Q 12.25 16.65625 16.296875 11.96875 
Q 20.359375 7.28125 26.46875 7.28125 
Q 32.515625 7.28125 36.609375 11.9375 
Q 40.71875 16.609375 40.71875 26.5625 
Q 40.71875 36.078125 36.5 40.90625 
Q 32.28125 45.75 26.3125 45.75 
Q 20.453125 45.75 16.34375 40.984375 
Q 12.25 36.234375 12.25 26.859375 
z
" id="ArialMT-103"/>
     </defs>
     <g style="fill:#262626;" transform="translate(204.678906 192.659375)scale(0.1 -0.1)">
      <use xlink:href="#ArialMT-68"/>
      <use x="72.216797" xlink:href="#ArialMT-65"/>
      <use x="138.916016" xlink:href="#ArialMT-103"/>
      <use x="194.53125" xlink:href="#ArialMT-103"/>
      <use x="250.146484" xlink:href="#ArialMT-101"/>
      <use x="305.761719" xlink:href="#ArialMT-114"/>
     </g>
    </g>
    <g id="line2d_30">
     <path d="M 176.678906 203.421875 
L 196.678906 203.421875 
" style="fill:none;stroke:#c44e52;stroke-linecap:round;stroke-width:1.75;"/>
    </g>
    <g id="line2d_31"/>
    <g id="text_17">
     <!-- Expert -->
     <defs>
      <path d="M 0.734375 0 
L 19.671875 26.953125 
L 2.15625 51.859375 
L 13.140625 51.859375 
L 21.09375 39.703125 
Q 23.34375 36.234375 24.703125 33.890625 
Q 26.859375 37.109375 28.65625 39.59375 
L 37.40625 51.859375 
L 47.90625 51.859375 
L 29.984375 27.4375 
L 49.265625 0 
L 38.484375 0 
L 27.828125 16.109375 
L 25 20.453125 
L 11.375 0 
z
" id="ArialMT-120"/>
     </defs>
     <g style="fill:#262626;" transform="translate(204.678906 206.921875)scale(0.1 -0.1)">
      <use xlink:href="#ArialMT-69"/>
      <use x="66.699219" xlink:href="#ArialMT-120"/>
      <use x="116.699219" xlink:href="#ArialMT-112"/>
      <use x="172.314453" xlink:href="#ArialMT-101"/>
      <use x="227.929688" xlink:href="#ArialMT-114"/>
      <use x="261.230469" xlink:href="#ArialMT-116"/>
     </g>
    </g>
   </g>
  </g>
 </g>
 <defs>
  <clipPath id="p4f60233f52">
   <rect height="196.12" width="197.08" x="50.503594" y="21.789375"/>
  </clipPath>
 </defs>
</svg>
