<?xml version="1.0" encoding="utf-8" standalone="no"?>
<!DOCTYPE svg PUBLIC "-//W3C//DTD SVG 1.1//EN"
  "http://www.w3.org/Graphics/SVG/1.1/DTD/svg11.dtd">
<!-- Created with matplotlib (https://matplotlib.org/) -->
<svg height="255.314531pt" version="1.1" viewBox="0 0 254.783594 255.314531" width="254.783594pt" xmlns="http://www.w3.org/2000/svg" xmlns:xlink="http://www.w3.org/1999/xlink">
 <defs>
  <style type="text/css">
*{stroke-linecap:butt;stroke-linejoin:round;}
  </style>
 </defs>
 <g id="figure_1">
  <g id="patch_1">
   <path d="M 0 255.314531 
L 254.783594 255.314531 
L 254.783594 0 
L 0 0 
z
" style="fill:#ffffff;"/>
  </g>
  <g id="axes_1">
   <g id="patch_2">
    <path d="M 50.503594 217.909375 
L 247.583594 217.909375 
L 247.583594 21.789375 
L 50.503594 21.789375 
z
" style="fill:#eaeaf2;"/>
   </g>
   <g id="matplotlib.axis_1">
    <g id="xtick_1">
     <g id="line2d_1">
      <path clip-path="url(#p79b68c5452)" d="M 59.461776 217.909375 
L 59.461776 21.789375 
" style="fill:none;stroke:#ffffff;stroke-linecap:round;"/>
     </g>
     <g id="line2d_2"/>
     <g id="text_1">
      <!-- 0 -->
      <defs>
       <path d="M 4.15625 35.296875 
Q 4.15625 48 6.765625 55.734375 
Q 9.375 63.484375 14.515625 67.671875 
Q 19.671875 71.875 27.484375 71.875 
Q 33.25 71.875 37.59375 69.546875 
Q 41.9375 67.234375 44.765625 62.859375 
Q 47.609375 58.5 49.21875 52.21875 
Q 50.828125 45.953125 50.828125 35.296875 
Q 50.828125 22.703125 48.234375 14.96875 
Q 45.65625 7.234375 40.5 3 
Q 35.359375 -1.21875 27.484375 -1.21875 
Q 17.140625 -1.21875 11.234375 6.203125 
Q 4.15625 15.140625 4.15625 35.296875 
z
M 13.1875 35.296875 
Q 13.1875 17.671875 17.3125 11.828125 
Q 21.4375 6 27.484375 6 
Q 33.546875 6 37.671875 11.859375 
Q 41.796875 17.71875 41.796875 35.296875 
Q 41.796875 52.984375 37.671875 58.78125 
Q 33.546875 64.59375 27.390625 64.59375 
Q 21.34375 64.59375 17.71875 59.46875 
Q 13.1875 52.9375 13.1875 35.296875 
z
" id="ArialMT-48"/>
      </defs>
      <g style="fill:#262626;" transform="translate(56.681307 232.067188)scale(0.1 -0.1)">
       <use xlink:href="#ArialMT-48"/>
      </g>
     </g>
    </g>
    <g id="xtick_2">
     <g id="line2d_3">
      <path clip-path="url(#p79b68c5452)" d="M 104.252685 217.909375 
L 104.252685 21.789375 
" style="fill:none;stroke:#ffffff;stroke-linecap:round;"/>
     </g>
     <g id="line2d_4"/>
     <g id="text_2">
      <!-- 50 -->
      <defs>
       <path d="M 4.15625 18.75 
L 13.375 19.53125 
Q 14.40625 12.796875 18.140625 9.390625 
Q 21.875 6 27.15625 6 
Q 33.5 6 37.890625 10.78125 
Q 42.28125 15.578125 42.28125 23.484375 
Q 42.28125 31 38.0625 35.34375 
Q 33.84375 39.703125 27 39.703125 
Q 22.75 39.703125 19.328125 37.765625 
Q 15.921875 35.84375 13.96875 32.765625 
L 5.71875 33.84375 
L 12.640625 70.609375 
L 48.25 70.609375 
L 48.25 62.203125 
L 19.671875 62.203125 
L 15.828125 42.96875 
Q 22.265625 47.46875 29.34375 47.46875 
Q 38.71875 47.46875 45.15625 40.96875 
Q 51.609375 34.46875 51.609375 24.265625 
Q 51.609375 14.546875 45.953125 7.46875 
Q 39.0625 -1.21875 27.15625 -1.21875 
Q 17.390625 -1.21875 11.203125 4.25 
Q 5.03125 9.71875 4.15625 18.75 
z
" id="ArialMT-53"/>
      </defs>
      <g style="fill:#262626;" transform="translate(98.691747 232.067188)scale(0.1 -0.1)">
       <use xlink:href="#ArialMT-53"/>
       <use x="55.615234" xlink:href="#ArialMT-48"/>
      </g>
     </g>
    </g>
    <g id="xtick_3">
     <g id="line2d_5">
      <path clip-path="url(#p79b68c5452)" d="M 149.043594 217.909375 
L 149.043594 21.789375 
" style="fill:none;stroke:#ffffff;stroke-linecap:round;"/>
     </g>
     <g id="line2d_6"/>
     <g id="text_3">
      <!-- 100 -->
      <defs>
       <path d="M 37.25 0 
L 28.46875 0 
L 28.46875 56 
Q 25.296875 52.984375 20.140625 49.953125 
Q 14.984375 46.921875 10.890625 45.40625 
L 10.890625 53.90625 
Q 18.265625 57.375 23.78125 62.296875 
Q 29.296875 67.234375 31.59375 71.875 
L 37.25 71.875 
z
" id="ArialMT-49"/>
      </defs>
      <g style="fill:#262626;" transform="translate(140.702188 232.067188)scale(0.1 -0.1)">
       <use xlink:href="#ArialMT-49"/>
       <use x="55.615234" xlink:href="#ArialMT-48"/>
       <use x="111.230469" xlink:href="#ArialMT-48"/>
      </g>
     </g>
    </g>
    <g id="xtick_4">
     <g id="line2d_7">
      <path clip-path="url(#p79b68c5452)" d="M 193.834503 217.909375 
L 193.834503 21.789375 
" style="fill:none;stroke:#ffffff;stroke-linecap:round;"/>
     </g>
     <g id="line2d_8"/>
     <g id="text_4">
      <!-- 150 -->
      <g style="fill:#262626;" transform="translate(185.493097 232.067188)scale(0.1 -0.1)">
       <use xlink:href="#ArialMT-49"/>
       <use x="55.615234" xlink:href="#ArialMT-53"/>
       <use x="111.230469" xlink:href="#ArialMT-48"/>
      </g>
     </g>
    </g>
    <g id="xtick_5">
     <g id="line2d_9">
      <path clip-path="url(#p79b68c5452)" d="M 238.625412 217.909375 
L 238.625412 21.789375 
" style="fill:none;stroke:#ffffff;stroke-linecap:round;"/>
     </g>
     <g id="line2d_10"/>
     <g id="text_5">
      <!-- 200 -->
      <defs>
       <path d="M 50.34375 8.453125 
L 50.34375 0 
L 3.03125 0 
Q 2.9375 3.171875 4.046875 6.109375 
Q 5.859375 10.9375 9.828125 15.625 
Q 13.8125 20.3125 21.34375 26.46875 
Q 33.015625 36.03125 37.109375 41.625 
Q 41.21875 47.21875 41.21875 52.203125 
Q 41.21875 57.421875 37.46875 61 
Q 33.734375 64.59375 27.734375 64.59375 
Q 21.390625 64.59375 17.578125 60.78125 
Q 13.765625 56.984375 13.71875 50.25 
L 4.6875 51.171875 
Q 5.609375 61.28125 11.65625 66.578125 
Q 17.71875 71.875 27.9375 71.875 
Q 38.234375 71.875 44.234375 66.15625 
Q 50.25 60.453125 50.25 52 
Q 50.25 47.703125 48.484375 43.546875 
Q 46.734375 39.40625 42.65625 34.8125 
Q 38.578125 30.21875 29.109375 22.21875 
Q 21.1875 15.578125 18.9375 13.203125 
Q 16.703125 10.84375 15.234375 8.453125 
z
" id="ArialMT-50"/>
      </defs>
      <g style="fill:#262626;" transform="translate(230.284006 232.067188)scale(0.1 -0.1)">
       <use xlink:href="#ArialMT-50"/>
       <use x="55.615234" xlink:href="#ArialMT-48"/>
       <use x="111.230469" xlink:href="#ArialMT-48"/>
      </g>
     </g>
    </g>
    <g id="text_6">
     <!-- Epoch -->
     <defs>
      <path d="M 7.90625 0 
L 7.90625 71.578125 
L 59.671875 71.578125 
L 59.671875 63.140625 
L 17.390625 63.140625 
L 17.390625 41.21875 
L 56.984375 41.21875 
L 56.984375 32.8125 
L 17.390625 32.8125 
L 17.390625 8.453125 
L 61.328125 8.453125 
L 61.328125 0 
z
" id="ArialMT-69"/>
      <path d="M 6.59375 -19.875 
L 6.59375 51.859375 
L 14.59375 51.859375 
L 14.59375 45.125 
Q 17.4375 49.078125 21 51.046875 
Q 24.5625 53.03125 29.640625 53.03125 
Q 36.28125 53.03125 41.359375 49.609375 
Q 46.4375 46.1875 49.015625 39.953125 
Q 51.609375 33.734375 51.609375 26.3125 
Q 51.609375 18.359375 48.75 11.984375 
Q 45.90625 5.609375 40.453125 2.21875 
Q 35.015625 -1.171875 29 -1.171875 
Q 24.609375 -1.171875 21.109375 0.6875 
Q 17.625 2.546875 15.375 5.375 
L 15.375 -19.875 
z
M 14.546875 25.640625 
Q 14.546875 15.625 18.59375 10.84375 
Q 22.65625 6.0625 28.421875 6.0625 
Q 34.28125 6.0625 38.453125 11.015625 
Q 42.625 15.96875 42.625 26.375 
Q 42.625 36.28125 38.546875 41.203125 
Q 34.46875 46.140625 28.8125 46.140625 
Q 23.1875 46.140625 18.859375 40.890625 
Q 14.546875 35.640625 14.546875 25.640625 
z
" id="ArialMT-112"/>
      <path d="M 3.328125 25.921875 
Q 3.328125 40.328125 11.328125 47.265625 
Q 18.015625 53.03125 27.640625 53.03125 
Q 38.328125 53.03125 45.109375 46.015625 
Q 51.90625 39.015625 51.90625 26.65625 
Q 51.90625 16.65625 48.90625 10.90625 
Q 45.90625 5.171875 40.15625 2 
Q 34.421875 -1.171875 27.640625 -1.171875 
Q 16.75 -1.171875 10.03125 5.8125 
Q 3.328125 12.796875 3.328125 25.921875 
z
M 12.359375 25.921875 
Q 12.359375 15.96875 16.703125 11.015625 
Q 21.046875 6.0625 27.640625 6.0625 
Q 34.1875 6.0625 38.53125 11.03125 
Q 42.875 16.015625 42.875 26.21875 
Q 42.875 35.84375 38.5 40.796875 
Q 34.125 45.75 27.640625 45.75 
Q 21.046875 45.75 16.703125 40.8125 
Q 12.359375 35.890625 12.359375 25.921875 
z
" id="ArialMT-111"/>
      <path d="M 40.4375 19 
L 49.078125 17.875 
Q 47.65625 8.9375 41.8125 3.875 
Q 35.984375 -1.171875 27.484375 -1.171875 
Q 16.84375 -1.171875 10.375 5.78125 
Q 3.90625 12.75 3.90625 25.734375 
Q 3.90625 34.125 6.6875 40.421875 
Q 9.46875 46.734375 15.15625 49.875 
Q 20.84375 53.03125 27.546875 53.03125 
Q 35.984375 53.03125 41.359375 48.75 
Q 46.734375 44.484375 48.25 36.625 
L 39.703125 35.296875 
Q 38.484375 40.53125 35.375 43.15625 
Q 32.28125 45.796875 27.875 45.796875 
Q 21.234375 45.796875 17.078125 41.03125 
Q 12.9375 36.28125 12.9375 25.984375 
Q 12.9375 15.53125 16.9375 10.796875 
Q 20.953125 6.0625 27.390625 6.0625 
Q 32.5625 6.0625 36.03125 9.234375 
Q 39.5 12.40625 40.4375 19 
z
" id="ArialMT-99"/>
      <path d="M 6.59375 0 
L 6.59375 71.578125 
L 15.375 71.578125 
L 15.375 45.90625 
Q 21.53125 53.03125 30.90625 53.03125 
Q 36.671875 53.03125 40.921875 50.75 
Q 45.171875 48.484375 47 44.484375 
Q 48.828125 40.484375 48.828125 32.859375 
L 48.828125 0 
L 40.046875 0 
L 40.046875 32.859375 
Q 40.046875 39.453125 37.1875 42.453125 
Q 34.328125 45.453125 29.109375 45.453125 
Q 25.203125 45.453125 21.75 43.421875 
Q 18.3125 41.40625 16.84375 37.9375 
Q 15.375 34.46875 15.375 28.375 
L 15.375 0 
z
" id="ArialMT-104"/>
     </defs>
     <g style="fill:#262626;" transform="translate(133.449375 245.928281)scale(0.11 -0.11)">
      <use xlink:href="#ArialMT-69"/>
      <use x="66.699219" xlink:href="#ArialMT-112"/>
      <use x="122.314453" xlink:href="#ArialMT-111"/>
      <use x="177.929688" xlink:href="#ArialMT-99"/>
      <use x="227.929688" xlink:href="#ArialMT-104"/>
     </g>
    </g>
   </g>
   <g id="matplotlib.axis_2">
    <g id="ytick_1">
     <g id="line2d_11">
      <path clip-path="url(#p79b68c5452)" d="M 50.503594 195.086247 
L 247.583594 195.086247 
" style="fill:none;stroke:#ffffff;stroke-linecap:round;"/>
     </g>
     <g id="line2d_12"/>
     <g id="text_7">
      <!-- 0 -->
      <g style="fill:#262626;" transform="translate(37.942656 198.665154)scale(0.1 -0.1)">
       <use xlink:href="#ArialMT-48"/>
      </g>
     </g>
    </g>
    <g id="ytick_2">
     <g id="line2d_13">
      <path clip-path="url(#p79b68c5452)" d="M 50.503594 156.104252 
L 247.583594 156.104252 
" style="fill:none;stroke:#ffffff;stroke-linecap:round;"/>
     </g>
     <g id="line2d_14"/>
     <g id="text_8">
      <!-- 1000 -->
      <g style="fill:#262626;" transform="translate(21.259844 159.683159)scale(0.1 -0.1)">
       <use xlink:href="#ArialMT-49"/>
       <use x="55.615234" xlink:href="#ArialMT-48"/>
       <use x="111.230469" xlink:href="#ArialMT-48"/>
       <use x="166.845703" xlink:href="#ArialMT-48"/>
      </g>
     </g>
    </g>
    <g id="ytick_3">
     <g id="line2d_15">
      <path clip-path="url(#p79b68c5452)" d="M 50.503594 117.122257 
L 247.583594 117.122257 
" style="fill:none;stroke:#ffffff;stroke-linecap:round;"/>
     </g>
     <g id="line2d_16"/>
     <g id="text_9">
      <!-- 2000 -->
      <g style="fill:#262626;" transform="translate(21.259844 120.701163)scale(0.1 -0.1)">
       <use xlink:href="#ArialMT-50"/>
       <use x="55.615234" xlink:href="#ArialMT-48"/>
       <use x="111.230469" xlink:href="#ArialMT-48"/>
       <use x="166.845703" xlink:href="#ArialMT-48"/>
      </g>
     </g>
    </g>
    <g id="ytick_4">
     <g id="line2d_17">
      <path clip-path="url(#p79b68c5452)" d="M 50.503594 78.140262 
L 247.583594 78.140262 
" style="fill:none;stroke:#ffffff;stroke-linecap:round;"/>
     </g>
     <g id="line2d_18"/>
     <g id="text_10">
      <!-- 3000 -->
      <defs>
       <path d="M 4.203125 18.890625 
L 12.984375 20.0625 
Q 14.5 12.59375 18.140625 9.296875 
Q 21.78125 6 27 6 
Q 33.203125 6 37.46875 10.296875 
Q 41.75 14.59375 41.75 20.953125 
Q 41.75 27 37.796875 30.921875 
Q 33.84375 34.859375 27.734375 34.859375 
Q 25.25 34.859375 21.53125 33.890625 
L 22.515625 41.609375 
Q 23.390625 41.5 23.921875 41.5 
Q 29.546875 41.5 34.03125 44.421875 
Q 38.53125 47.359375 38.53125 53.46875 
Q 38.53125 58.296875 35.25 61.46875 
Q 31.984375 64.65625 26.8125 64.65625 
Q 21.6875 64.65625 18.265625 61.421875 
Q 14.84375 58.203125 13.875 51.765625 
L 5.078125 53.328125 
Q 6.6875 62.15625 12.390625 67.015625 
Q 18.109375 71.875 26.609375 71.875 
Q 32.46875 71.875 37.390625 69.359375 
Q 42.328125 66.84375 44.9375 62.5 
Q 47.5625 58.15625 47.5625 53.265625 
Q 47.5625 48.640625 45.0625 44.828125 
Q 42.578125 41.015625 37.703125 38.765625 
Q 44.046875 37.3125 47.5625 32.6875 
Q 51.078125 28.078125 51.078125 21.140625 
Q 51.078125 11.765625 44.234375 5.25 
Q 37.40625 -1.265625 26.953125 -1.265625 
Q 17.53125 -1.265625 11.296875 4.34375 
Q 5.078125 9.96875 4.203125 18.890625 
z
" id="ArialMT-51"/>
      </defs>
      <g style="fill:#262626;" transform="translate(21.259844 81.719168)scale(0.1 -0.1)">
       <use xlink:href="#ArialMT-51"/>
       <use x="55.615234" xlink:href="#ArialMT-48"/>
       <use x="111.230469" xlink:href="#ArialMT-48"/>
       <use x="166.845703" xlink:href="#ArialMT-48"/>
      </g>
     </g>
    </g>
    <g id="ytick_5">
     <g id="line2d_19">
      <path clip-path="url(#p79b68c5452)" d="M 50.503594 39.158267 
L 247.583594 39.158267 
" style="fill:none;stroke:#ffffff;stroke-linecap:round;"/>
     </g>
     <g id="line2d_20"/>
     <g id="text_11">
      <!-- 4000 -->
      <defs>
       <path d="M 32.328125 0 
L 32.328125 17.140625 
L 1.265625 17.140625 
L 1.265625 25.203125 
L 33.9375 71.578125 
L 41.109375 71.578125 
L 41.109375 25.203125 
L 50.78125 25.203125 
L 50.78125 17.140625 
L 41.109375 17.140625 
L 41.109375 0 
z
M 32.328125 25.203125 
L 32.328125 57.46875 
L 9.90625 25.203125 
z
" id="ArialMT-52"/>
      </defs>
      <g style="fill:#262626;" transform="translate(21.259844 42.737173)scale(0.1 -0.1)">
       <use xlink:href="#ArialMT-52"/>
       <use x="55.615234" xlink:href="#ArialMT-48"/>
       <use x="111.230469" xlink:href="#ArialMT-48"/>
       <use x="166.845703" xlink:href="#ArialMT-48"/>
      </g>
     </g>
    </g>
    <g id="text_12">
     <!-- Score -->
     <defs>
      <path d="M 4.5 23 
L 13.421875 23.78125 
Q 14.0625 18.40625 16.375 14.96875 
Q 18.703125 11.53125 23.578125 9.40625 
Q 28.46875 7.28125 34.578125 7.28125 
Q 39.984375 7.28125 44.140625 8.890625 
Q 48.296875 10.5 50.3125 13.296875 
Q 52.34375 16.109375 52.34375 19.4375 
Q 52.34375 22.796875 50.390625 25.3125 
Q 48.4375 27.828125 43.953125 29.546875 
Q 41.0625 30.671875 31.203125 33.03125 
Q 21.34375 35.40625 17.390625 37.5 
Q 12.25 40.1875 9.734375 44.15625 
Q 7.234375 48.140625 7.234375 53.078125 
Q 7.234375 58.5 10.296875 63.203125 
Q 13.375 67.921875 19.28125 70.359375 
Q 25.203125 72.796875 32.421875 72.796875 
Q 40.375 72.796875 46.453125 70.234375 
Q 52.546875 67.671875 55.8125 62.6875 
Q 59.078125 57.71875 59.328125 51.421875 
L 50.25 50.734375 
Q 49.515625 57.515625 45.28125 60.984375 
Q 41.0625 64.453125 32.8125 64.453125 
Q 24.21875 64.453125 20.28125 61.296875 
Q 16.359375 58.15625 16.359375 53.71875 
Q 16.359375 49.859375 19.140625 47.359375 
Q 21.875 44.875 33.421875 42.265625 
Q 44.96875 39.65625 49.265625 37.703125 
Q 55.515625 34.8125 58.484375 30.390625 
Q 61.46875 25.984375 61.46875 20.21875 
Q 61.46875 14.5 58.203125 9.4375 
Q 54.9375 4.390625 48.796875 1.578125 
Q 42.671875 -1.21875 35.015625 -1.21875 
Q 25.296875 -1.21875 18.71875 1.609375 
Q 12.15625 4.4375 8.421875 10.125 
Q 4.6875 15.828125 4.5 23 
z
" id="ArialMT-83"/>
      <path d="M 6.5 0 
L 6.5 51.859375 
L 14.40625 51.859375 
L 14.40625 44 
Q 17.4375 49.515625 20 51.265625 
Q 22.5625 53.03125 25.640625 53.03125 
Q 30.078125 53.03125 34.671875 50.203125 
L 31.640625 42.046875 
Q 28.421875 43.953125 25.203125 43.953125 
Q 22.3125 43.953125 20.015625 42.21875 
Q 17.71875 40.484375 16.75 37.40625 
Q 15.28125 32.71875 15.28125 27.15625 
L 15.28125 0 
z
" id="ArialMT-114"/>
      <path d="M 42.09375 16.703125 
L 51.171875 15.578125 
Q 49.03125 7.625 43.21875 3.21875 
Q 37.40625 -1.171875 28.375 -1.171875 
Q 17 -1.171875 10.328125 5.828125 
Q 3.65625 12.84375 3.65625 25.484375 
Q 3.65625 38.578125 10.390625 45.796875 
Q 17.140625 53.03125 27.875 53.03125 
Q 38.28125 53.03125 44.875 45.953125 
Q 51.46875 38.875 51.46875 26.03125 
Q 51.46875 25.25 51.421875 23.6875 
L 12.75 23.6875 
Q 13.234375 15.140625 17.578125 10.59375 
Q 21.921875 6.0625 28.421875 6.0625 
Q 33.25 6.0625 36.671875 8.59375 
Q 40.09375 11.140625 42.09375 16.703125 
z
M 13.234375 30.90625 
L 42.1875 30.90625 
Q 41.609375 37.453125 38.875 40.71875 
Q 34.671875 45.796875 27.984375 45.796875 
Q 21.921875 45.796875 17.796875 41.75 
Q 13.671875 37.703125 13.234375 30.90625 
z
" id="ArialMT-101"/>
     </defs>
     <g style="fill:#262626;" transform="translate(15.073594 134.216406)rotate(-90)scale(0.11 -0.11)">
      <use xlink:href="#ArialMT-83"/>
      <use x="66.699219" xlink:href="#ArialMT-99"/>
      <use x="116.699219" xlink:href="#ArialMT-111"/>
      <use x="172.314453" xlink:href="#ArialMT-114"/>
      <use x="205.615234" xlink:href="#ArialMT-101"/>
     </g>
    </g>
   </g>
   <g id="PolyCollection_1">
    <path clip-path="url(#p79b68c5452)" d="M 59.461776 207.422816 
L 59.461776 210.566843 
L 60.357594 202.359396 
L 61.253412 150.479693 
L 62.14923 138.369482 
L 63.045048 151.810132 
L 63.940866 162.254788 
L 64.836685 144.863771 
L 65.732503 144.706396 
L 66.628321 132.318624 
L 67.524139 136.141942 
L 68.419957 137.939248 
L 69.315776 135.46788 
L 70.211594 131.887928 
L 71.107412 104.614821 
L 72.00323 118.145583 
L 72.899048 112.342539 
L 73.794866 102.820522 
L 74.690685 114.428771 
L 75.586503 98.489301 
L 76.482321 99.741707 
L 77.378139 105.430474 
L 78.273957 83.585692 
L 79.169776 87.842133 
L 80.065594 90.640283 
L 80.961412 70.128862 
L 81.85723 85.126199 
L 82.753048 79.087938 
L 83.648866 71.234941 
L 84.544685 73.978654 
L 85.440503 69.907377 
L 86.336321 67.472914 
L 87.232139 67.820929 
L 88.127957 64.608287 
L 89.023776 63.41532 
L 89.919594 61.137193 
L 90.815412 72.957012 
L 91.71123 55.453172 
L 92.607048 59.303335 
L 93.502866 55.335169 
L 94.398685 56.691756 
L 95.294503 57.976778 
L 96.190321 61.178896 
L 97.086139 49.324585 
L 97.981957 50.077857 
L 98.877776 72.30604 
L 99.773594 52.851303 
L 100.669412 53.253146 
L 101.56523 57.566249 
L 102.461048 53.019789 
L 103.356866 47.261101 
L 104.252685 56.356906 
L 105.148503 52.708275 
L 106.044321 42.908338 
L 106.940139 46.645257 
L 107.835957 50.578735 
L 108.731776 43.178022 
L 109.627594 46.41953 
L 110.523412 45.273611 
L 111.41923 51.597434 
L 112.315048 43.281326 
L 113.210866 52.045243 
L 114.106685 42.63064 
L 115.002503 43.889805 
L 115.898321 46.423923 
L 116.794139 42.412718 
L 117.689957 42.896738 
L 118.585776 43.569148 
L 119.481594 41.043135 
L 120.377412 39.316676 
L 121.27323 42.988158 
L 122.169048 38.294012 
L 123.064866 39.083164 
L 123.960685 42.16323 
L 124.856503 39.331383 
L 125.752321 35.727206 
L 126.648139 35.374213 
L 127.543957 34.586961 
L 128.439776 39.090094 
L 129.335594 34.406714 
L 130.231412 35.644624 
L 131.12723 45.155807 
L 132.023048 37.122022 
L 132.918866 39.767173 
L 133.814685 35.24859 
L 134.710503 34.816957 
L 135.606321 39.92405 
L 136.502139 34.790148 
L 137.397957 35.716934 
L 138.293776 43.04449 
L 139.189594 35.906396 
L 140.085412 36.394925 
L 140.98123 37.766699 
L 141.877048 39.01146 
L 142.772866 34.545653 
L 143.668685 40.366833 
L 144.564503 34.445946 
L 145.460321 34.702295 
L 146.356139 40.801792 
L 147.251957 37.712536 
L 148.147776 35.690992 
L 149.043594 33.60954 
L 149.939412 34.736134 
L 150.83523 34.294104 
L 151.731048 39.655852 
L 152.626866 33.496728 
L 153.522685 32.486947 
L 154.418503 34.309149 
L 155.314321 34.705319 
L 156.210139 33.408698 
L 157.105957 42.11182 
L 158.001776 33.74072 
L 158.897594 37.773138 
L 159.793412 33.924709 
L 160.68923 34.081854 
L 161.585048 33.085583 
L 162.480866 33.924681 
L 163.376685 36.697408 
L 164.272503 34.706544 
L 165.168321 33.607829 
L 166.064139 36.417037 
L 166.959957 38.971161 
L 167.855776 33.228601 
L 168.751594 41.437985 
L 169.647412 34.397218 
L 170.54323 33.420164 
L 171.439048 33.908403 
L 172.334866 34.354859 
L 173.230685 33.362004 
L 174.126503 32.654323 
L 175.022321 33.689688 
L 175.918139 33.28741 
L 176.813957 34.880512 
L 177.709776 33.676417 
L 178.605594 33.436891 
L 179.501412 33.237808 
L 180.39723 33.293462 
L 181.293048 32.949287 
L 182.188866 33.885282 
L 183.084685 33.800383 
L 183.980503 33.653016 
L 184.876321 34.059589 
L 185.772139 33.637882 
L 186.667957 32.776186 
L 187.563776 32.378981 
L 188.459594 33.55952 
L 189.355412 32.931475 
L 190.25123 32.873512 
L 191.147048 32.449539 
L 192.042866 33.017915 
L 192.938685 33.060389 
L 193.834503 33.300958 
L 194.730321 37.093119 
L 195.626139 31.801079 
L 196.521957 33.705082 
L 197.417776 33.407826 
L 198.313594 32.3348 
L 199.209412 33.643052 
L 200.10523 37.909897 
L 201.001048 32.978329 
L 201.896866 32.767495 
L 202.792685 32.424928 
L 203.688503 33.550802 
L 204.584321 32.052938 
L 205.480139 32.844932 
L 206.375957 38.00228 
L 207.271776 34.185367 
L 208.167594 36.010702 
L 209.063412 32.427681 
L 209.95923 32.770737 
L 210.855048 32.922781 
L 211.750866 32.208524 
L 212.646685 31.981572 
L 213.542503 33.01265 
L 214.438321 32.837561 
L 215.334139 32.366551 
L 216.229957 34.080121 
L 217.125776 32.22466 
L 218.021594 33.985252 
L 218.917412 32.164764 
L 219.81323 32.125579 
L 220.709048 33.107193 
L 221.604866 33.693262 
L 222.500685 32.824303 
L 223.396503 32.420921 
L 224.292321 33.461851 
L 225.188139 32.988231 
L 226.083957 32.453574 
L 226.979776 32.968908 
L 227.875594 32.504695 
L 228.771412 33.426955 
L 229.66723 33.857923 
L 230.563048 32.43821 
L 231.458866 32.165313 
L 232.354685 32.983292 
L 233.250503 32.522772 
L 234.146321 33.563611 
L 235.042139 33.552239 
L 235.937957 32.725856 
L 236.833776 33.701559 
L 237.729594 37.792507 
L 238.625412 33.707775 
L 238.625412 29.748136 
L 238.625412 29.748136 
L 237.729594 28.328964 
L 236.833776 30.330764 
L 235.937957 30.337797 
L 235.042139 30.343331 
L 234.146321 30.333562 
L 233.250503 30.138716 
L 232.354685 30.47169 
L 231.458866 29.665734 
L 230.563048 30.476993 
L 229.66723 31.750369 
L 228.771412 30.045417 
L 227.875594 30.2822 
L 226.979776 29.288838 
L 226.083957 30.710155 
L 225.188139 29.666335 
L 224.292321 30.545499 
L 223.396503 30.603102 
L 222.500685 29.55841 
L 221.604866 30.847576 
L 220.709048 29.875216 
L 219.81323 30.010703 
L 218.917412 30.134758 
L 218.021594 30.29528 
L 217.125776 30.109726 
L 216.229957 31.381372 
L 215.334139 30.514925 
L 214.438321 30.709776 
L 213.542503 30.391369 
L 212.646685 29.908071 
L 211.750866 30.561814 
L 210.855048 30.190677 
L 209.95923 29.994768 
L 209.063412 30.76123 
L 208.167594 29.385231 
L 207.271776 30.230076 
L 206.375957 28.878459 
L 205.480139 31.285051 
L 204.584321 30.825021 
L 203.688503 31.313344 
L 202.792685 30.235641 
L 201.896866 30.43292 
L 201.001048 31.310045 
L 200.10523 29.442745 
L 199.209412 30.192807 
L 198.313594 30.677867 
L 197.417776 30.961091 
L 196.521957 30.479085 
L 195.626139 29.882839 
L 194.730321 29.469434 
L 193.834503 29.992955 
L 192.938685 30.859928 
L 192.042866 29.155286 
L 191.147048 30.031257 
L 190.25123 30.724654 
L 189.355412 29.950008 
L 188.459594 30.053524 
L 187.563776 29.02886 
L 186.667957 30.928052 
L 185.772139 29.162041 
L 184.876321 30.645023 
L 183.980503 30.046018 
L 183.084685 30.624229 
L 182.188866 31.263723 
L 181.293048 30.167257 
L 180.39723 30.672391 
L 179.501412 31.085813 
L 178.605594 30.797976 
L 177.709776 29.54045 
L 176.813957 30.837726 
L 175.918139 29.804197 
L 175.022321 30.654082 
L 174.126503 30.141698 
L 173.230685 31.43626 
L 172.334866 30.946063 
L 171.439048 30.958282 
L 170.54323 29.598594 
L 169.647412 31.656492 
L 168.751594 29.771983 
L 167.855776 30.558675 
L 166.959957 29.486474 
L 166.064139 30.004112 
L 165.168321 30.270317 
L 164.272503 30.836447 
L 163.376685 29.53224 
L 162.480866 31.579866 
L 161.585048 30.865989 
L 160.68923 31.307465 
L 159.793412 31.001735 
L 158.897594 30.528633 
L 158.001776 30.701563 
L 157.105957 29.217444 
L 156.210139 30.704762 
L 155.314321 31.029092 
L 154.418503 31.578646 
L 153.522685 30.681854 
L 152.626866 31.268616 
L 151.731048 29.283444 
L 150.83523 31.669188 
L 149.939412 32.051832 
L 149.043594 30.977151 
L 148.147776 30.636465 
L 147.251957 29.372881 
L 146.356139 29.176975 
L 145.460321 30.883839 
L 144.564503 31.787706 
L 143.668685 27.680958 
L 142.772866 31.024644 
L 141.877048 30.763624 
L 140.98123 30.664956 
L 140.085412 30.216569 
L 139.189594 31.536719 
L 138.293776 26.255997 
L 137.397957 32.162917 
L 136.502139 32.059039 
L 135.606321 30.832646 
L 134.710503 31.670761 
L 133.814685 31.137011 
L 132.918866 30.103642 
L 132.023048 33.18441 
L 131.12723 27.432935 
L 130.231412 32.436925 
L 129.335594 31.56155 
L 128.439776 30.527893 
L 127.543957 32.537768 
L 126.648139 31.989079 
L 125.752321 33.348481 
L 124.856503 31.490602 
L 123.960685 30.679094 
L 123.064866 32.640579 
L 122.169048 32.906344 
L 121.27323 30.519052 
L 120.377412 33.697104 
L 119.481594 31.335667 
L 118.585776 30.40387 
L 117.689957 30.357784 
L 116.794139 32.544799 
L 115.898321 32.596355 
L 115.002503 31.404295 
L 114.106685 32.307709 
L 113.210866 35.83172 
L 112.315048 32.932511 
L 111.41923 26.676732 
L 110.523412 31.547331 
L 109.627594 33.746534 
L 108.731776 32.312947 
L 107.835957 34.773108 
L 106.940139 31.94259 
L 106.044321 34.331834 
L 105.148503 30.081589 
L 104.252685 33.178277 
L 103.356866 35.754555 
L 102.461048 38.495569 
L 101.56523 35.838798 
L 100.669412 35.979003 
L 99.773594 32.889777 
L 98.877776 25.554783 
L 97.981957 37.905815 
L 97.086139 39.523261 
L 96.190321 37.737148 
L 95.294503 36.908542 
L 94.398685 39.437077 
L 93.502866 37.479562 
L 92.607048 37.879307 
L 91.71123 40.592774 
L 90.815412 41.191879 
L 89.919594 37.586801 
L 89.023776 39.326273 
L 88.127957 39.043154 
L 87.232139 43.931877 
L 86.336321 39.508582 
L 85.440503 45.939537 
L 84.544685 49.76711 
L 83.648866 47.190154 
L 82.753048 46.148345 
L 81.85723 40.080098 
L 80.961412 47.803304 
L 80.065594 49.245742 
L 79.169776 62.570527 
L 78.273957 57.912676 
L 77.378139 49.039348 
L 76.482321 73.685866 
L 75.586503 52.804064 
L 74.690685 74.244888 
L 73.794866 66.467106 
L 72.899048 67.550613 
L 72.00323 71.226577 
L 71.107412 73.125268 
L 70.211594 82.334519 
L 69.315776 91.659892 
L 68.419957 97.732159 
L 67.524139 93.429983 
L 66.628321 104.564577 
L 65.732503 95.498917 
L 64.836685 105.788129 
L 63.940866 108.470931 
L 63.045048 103.188833 
L 62.14923 112.69332 
L 61.253412 126.760574 
L 60.357594 196.14704 
L 59.461776 207.422816 
z
" style="fill:#4c72b0;fill-opacity:0.25;"/>
   </g>
   <g id="PolyCollection_2">
    <path clip-path="url(#p79b68c5452)" d="M 59.461776 207.422816 
L 59.461776 210.566843 
L 60.357594 202.359396 
L 61.253412 150.479693 
L 62.14923 138.369482 
L 63.045048 151.810132 
L 63.940866 162.254788 
L 64.836685 131.672127 
L 65.732503 136.284024 
L 66.628321 133.93236 
L 67.524139 134.505935 
L 68.419957 128.259786 
L 69.315776 119.523707 
L 70.211594 109.323681 
L 71.107412 107.92985 
L 72.00323 104.101872 
L 72.899048 97.707457 
L 73.794866 84.393822 
L 74.690685 92.438449 
L 75.586503 90.880878 
L 76.482321 78.725541 
L 77.378139 70.768403 
L 78.273957 78.618585 
L 79.169776 65.593096 
L 80.065594 60.56403 
L 80.961412 65.272782 
L 81.85723 62.338388 
L 82.753048 55.639817 
L 83.648866 56.520254 
L 84.544685 63.504629 
L 85.440503 56.474165 
L 86.336321 65.407133 
L 87.232139 52.611973 
L 88.127957 53.835672 
L 89.023776 47.774501 
L 89.919594 45.625452 
L 90.815412 46.795211 
L 91.71123 42.735732 
L 92.607048 52.70941 
L 93.502866 41.178101 
L 94.398685 53.126715 
L 95.294503 43.860313 
L 96.190321 41.235741 
L 97.086139 47.612288 
L 97.981957 39.102882 
L 98.877776 42.434699 
L 99.773594 39.166914 
L 100.669412 39.353238 
L 101.56523 42.356456 
L 102.461048 38.608666 
L 103.356866 39.695135 
L 104.252685 40.837418 
L 105.148503 38.668035 
L 106.044321 38.341659 
L 106.940139 38.522728 
L 107.835957 38.188458 
L 108.731776 37.726853 
L 109.627594 36.925702 
L 110.523412 35.540247 
L 111.41923 41.277069 
L 112.315048 42.618155 
L 113.210866 35.577448 
L 114.106685 37.71299 
L 115.002503 40.420331 
L 115.898321 35.304915 
L 116.794139 36.477983 
L 117.689957 41.784345 
L 118.585776 36.498013 
L 119.481594 34.580123 
L 120.377412 35.749196 
L 121.27323 42.177398 
L 122.169048 35.066255 
L 123.064866 34.888903 
L 123.960685 36.874671 
L 124.856503 35.317136 
L 125.752321 40.02737 
L 126.648139 34.466636 
L 127.543957 35.017236 
L 128.439776 35.314874 
L 129.335594 34.857655 
L 130.231412 34.526229 
L 131.12723 43.042624 
L 132.023048 34.419719 
L 132.918866 34.550493 
L 133.814685 34.679748 
L 134.710503 34.610821 
L 135.606321 33.54093 
L 136.502139 35.159569 
L 137.397957 34.553895 
L 138.293776 34.252632 
L 139.189594 37.598745 
L 140.085412 34.112664 
L 140.98123 36.822824 
L 141.877048 34.512909 
L 142.772866 35.044351 
L 143.668685 33.602062 
L 144.564503 33.817447 
L 145.460321 33.477285 
L 146.356139 35.085155 
L 147.251957 34.430594 
L 148.147776 34.5116 
L 149.043594 32.432509 
L 149.939412 33.513999 
L 150.83523 33.750402 
L 151.731048 34.315924 
L 152.626866 33.712116 
L 153.522685 33.941518 
L 154.418503 33.020271 
L 155.314321 33.253428 
L 156.210139 34.11888 
L 157.105957 33.594235 
L 158.001776 33.996257 
L 158.897594 33.60514 
L 159.793412 34.027048 
L 160.68923 34.661096 
L 161.585048 33.240579 
L 162.480866 32.981331 
L 163.376685 34.398012 
L 164.272503 33.25438 
L 165.168321 33.913077 
L 166.064139 34.41946 
L 166.959957 33.768735 
L 167.855776 32.969154 
L 168.751594 32.940513 
L 169.647412 34.252877 
L 170.54323 33.78933 
L 171.439048 33.383235 
L 172.334866 33.794823 
L 173.230685 33.134342 
L 174.126503 35.313103 
L 175.022321 33.249116 
L 175.918139 33.57496 
L 176.813957 32.712208 
L 177.709776 34.269521 
L 178.605594 33.215696 
L 179.501412 33.320306 
L 180.39723 34.342554 
L 181.293048 33.4818 
L 182.188866 33.720064 
L 183.084685 33.039277 
L 183.980503 33.046101 
L 184.876321 33.092681 
L 185.772139 33.361075 
L 186.667957 32.536321 
L 187.563776 33.912391 
L 188.459594 34.044036 
L 189.355412 35.881054 
L 190.25123 33.805745 
L 191.147048 33.701869 
L 192.042866 33.228929 
L 192.938685 33.149895 
L 193.834503 32.831485 
L 194.730321 33.633886 
L 195.626139 33.22156 
L 196.521957 33.994662 
L 197.417776 34.052247 
L 198.313594 34.266163 
L 199.209412 33.704918 
L 200.10523 33.743548 
L 201.001048 32.473854 
L 201.896866 33.539378 
L 202.792685 34.510842 
L 203.688503 32.884107 
L 204.584321 32.722464 
L 205.480139 32.987836 
L 206.375957 33.430696 
L 207.271776 33.729729 
L 208.167594 33.266644 
L 209.063412 33.425761 
L 209.95923 33.852301 
L 210.855048 33.294181 
L 211.750866 32.542406 
L 212.646685 33.70398 
L 213.542503 33.932888 
L 214.438321 33.925867 
L 215.334139 34.026815 
L 216.229957 33.821159 
L 217.125776 33.371702 
L 218.021594 33.576496 
L 218.917412 33.755774 
L 219.81323 33.527864 
L 220.709048 33.467704 
L 221.604866 32.924312 
L 222.500685 33.728096 
L 223.396503 32.770093 
L 224.292321 32.495896 
L 225.188139 33.802953 
L 226.083957 33.146576 
L 226.979776 32.822482 
L 227.875594 33.634343 
L 228.771412 33.351202 
L 229.66723 33.469903 
L 230.563048 34.249783 
L 231.458866 33.011622 
L 232.354685 33.002398 
L 233.250503 33.127972 
L 234.146321 33.719102 
L 235.042139 33.158328 
L 235.937957 33.639095 
L 236.833776 33.260112 
L 237.729594 33.193773 
L 238.625412 32.775337 
L 238.625412 31.121095 
L 238.625412 31.121095 
L 237.729594 31.040895 
L 236.833776 30.603142 
L 235.937957 30.242846 
L 235.042139 31.346626 
L 234.146321 30.902086 
L 233.250503 30.48737 
L 232.354685 29.731019 
L 231.458866 30.793475 
L 230.563048 31.771776 
L 229.66723 30.552759 
L 228.771412 31.221419 
L 227.875594 30.650964 
L 226.979776 31.312194 
L 226.083957 31.302507 
L 225.188139 30.43074 
L 224.292321 30.891164 
L 223.396503 31.020861 
L 222.500685 30.896503 
L 221.604866 31.334881 
L 220.709048 31.738444 
L 219.81323 31.094473 
L 218.917412 30.428099 
L 218.021594 30.727942 
L 217.125776 30.625077 
L 216.229957 30.294348 
L 215.334139 30.815625 
L 214.438321 30.841527 
L 213.542503 30.978863 
L 212.646685 31.433889 
L 211.750866 29.989015 
L 210.855048 31.255186 
L 209.95923 30.716098 
L 209.063412 30.760697 
L 208.167594 30.694572 
L 207.271776 30.43787 
L 206.375957 30.149693 
L 205.480139 30.959891 
L 204.584321 30.730284 
L 203.688503 30.510574 
L 202.792685 31.03644 
L 201.896866 30.328395 
L 201.001048 31.10847 
L 200.10523 31.561949 
L 199.209412 31.232592 
L 198.313594 31.648222 
L 197.417776 31.182652 
L 196.521957 32.064007 
L 195.626139 30.52944 
L 194.730321 31.189535 
L 193.834503 29.851821 
L 192.938685 30.781374 
L 192.042866 31.31248 
L 191.147048 31.195014 
L 190.25123 30.629715 
L 189.355412 29.570674 
L 188.459594 31.560549 
L 187.563776 31.267308 
L 186.667957 30.814833 
L 185.772139 30.948759 
L 184.876321 30.422691 
L 183.980503 31.157678 
L 183.084685 30.194328 
L 182.188866 31.338289 
L 181.293048 30.995545 
L 180.39723 30.4722 
L 179.501412 30.919616 
L 178.605594 29.98786 
L 177.709776 30.734376 
L 176.813957 31.451637 
L 175.918139 30.58485 
L 175.022321 31.487358 
L 174.126503 30.718173 
L 173.230685 30.465898 
L 172.334866 30.330622 
L 171.439048 30.786289 
L 170.54323 29.826745 
L 169.647412 31.921029 
L 168.751594 30.772629 
L 167.855776 31.174009 
L 166.959957 30.926384 
L 166.064139 31.380115 
L 165.168321 31.454227 
L 164.272503 31.763933 
L 163.376685 31.09615 
L 162.480866 31.484526 
L 161.585048 30.772549 
L 160.68923 31.72634 
L 159.793412 31.203552 
L 158.897594 30.249883 
L 158.001776 30.921357 
L 157.105957 31.408974 
L 156.210139 31.70409 
L 155.314321 31.074047 
L 154.418503 31.193029 
L 153.522685 31.909562 
L 152.626866 32.108015 
L 151.731048 31.563191 
L 150.83523 31.998043 
L 149.939412 32.230375 
L 149.043594 31.002324 
L 148.147776 31.558755 
L 147.251957 31.981503 
L 146.356139 31.95188 
L 145.460321 31.504363 
L 144.564503 31.147082 
L 143.668685 30.8253 
L 142.772866 31.589547 
L 141.877048 31.383801 
L 140.98123 29.830899 
L 140.085412 31.542808 
L 139.189594 29.882927 
L 138.293776 31.265422 
L 137.397957 30.907164 
L 136.502139 31.416826 
L 135.606321 31.836554 
L 134.710503 31.790783 
L 133.814685 31.836165 
L 132.918866 32.088754 
L 132.023048 32.409907 
L 131.12723 28.313333 
L 130.231412 31.949261 
L 129.335594 31.527367 
L 128.439776 31.909442 
L 127.543957 31.692926 
L 126.648139 30.469514 
L 125.752321 31.507012 
L 124.856503 31.745854 
L 123.960685 31.535185 
L 123.064866 32.301353 
L 122.169048 32.17185 
L 121.27323 29.8332 
L 120.377412 32.844553 
L 119.481594 32.141508 
L 118.585776 31.571483 
L 117.689957 32.801518 
L 116.794139 33.47169 
L 115.898321 32.752253 
L 115.002503 31.55795 
L 114.106685 33.195032 
L 113.210866 32.61395 
L 112.315048 30.605247 
L 111.41923 31.835045 
L 110.523412 33.304993 
L 109.627594 34.091497 
L 108.731776 33.186054 
L 107.835957 33.164693 
L 106.940139 34.381371 
L 106.044321 33.843001 
L 105.148503 33.860879 
L 104.252685 34.475045 
L 103.356866 34.227048 
L 102.461048 33.440141 
L 101.56523 34.24105 
L 100.669412 33.43003 
L 99.773594 32.416861 
L 98.877776 34.900969 
L 97.981957 33.755832 
L 97.086139 35.75088 
L 96.190321 34.582801 
L 95.294503 34.948923 
L 94.398685 33.638183 
L 93.502866 35.633773 
L 92.607048 36.01848 
L 91.71123 36.987221 
L 90.815412 35.840182 
L 89.919594 36.597594 
L 89.023776 37.162675 
L 88.127957 40.669428 
L 87.232139 35.558506 
L 86.336321 33.196029 
L 85.440503 37.855253 
L 84.544685 40.790799 
L 83.648866 40.995609 
L 82.753048 38.849635 
L 81.85723 39.407038 
L 80.961412 43.652639 
L 80.065594 42.102221 
L 79.169776 45.31607 
L 78.273957 47.354977 
L 77.378139 48.543287 
L 76.482321 54.659409 
L 75.586503 53.102158 
L 74.690685 63.629341 
L 73.794866 53.315144 
L 72.899048 59.47567 
L 72.00323 64.106287 
L 71.107412 74.889226 
L 70.211594 67.860047 
L 69.315776 81.686994 
L 68.419957 84.382908 
L 67.524139 100.317997 
L 66.628321 100.288914 
L 65.732503 100.803301 
L 64.836685 111.121003 
L 63.940866 108.470931 
L 63.045048 103.188833 
L 62.14923 112.69332 
L 61.253412 126.760574 
L 60.357594 196.14704 
L 59.461776 207.422816 
z
" style="fill:#55a868;fill-opacity:0.25;"/>
   </g>
   <g id="line2d_21">
    <path clip-path="url(#p79b68c5452)" d="M 59.461776 208.99483 
L 60.357594 199.253218 
L 61.253412 138.620134 
L 62.14923 125.531401 
L 63.045048 127.499482 
L 63.940866 135.362859 
L 64.836685 125.32595 
L 65.732503 120.102656 
L 66.628321 118.441601 
L 67.524139 114.785962 
L 68.419957 117.835704 
L 69.315776 113.563886 
L 70.211594 107.111224 
L 71.107412 88.870045 
L 72.00323 94.68608 
L 73.794866 84.643814 
L 74.690685 94.336829 
L 75.586503 75.646682 
L 76.482321 86.713786 
L 77.378139 77.234911 
L 78.273957 70.749184 
L 79.169776 75.20633 
L 80.065594 69.943013 
L 80.961412 58.966083 
L 81.85723 62.603149 
L 82.753048 62.618142 
L 83.648866 59.212547 
L 84.544685 61.872882 
L 86.336321 53.490748 
L 87.232139 55.876403 
L 88.127957 51.82572 
L 89.023776 51.370797 
L 89.919594 49.361997 
L 90.815412 57.074446 
L 91.71123 48.022973 
L 92.607048 48.591321 
L 93.502866 46.407366 
L 94.398685 48.064417 
L 95.294503 47.44266 
L 96.190321 49.458022 
L 97.086139 44.423923 
L 97.981957 43.991836 
L 98.877776 48.930412 
L 99.773594 42.87054 
L 100.669412 44.616074 
L 101.56523 46.702523 
L 102.461048 45.757679 
L 103.356866 41.507828 
L 104.252685 44.767592 
L 105.148503 41.394932 
L 106.044321 38.620086 
L 106.940139 39.293923 
L 107.835957 42.675921 
L 108.731776 37.745484 
L 109.627594 40.083032 
L 110.523412 38.410471 
L 111.41923 39.137083 
L 112.315048 38.106919 
L 113.210866 43.938481 
L 114.106685 37.469174 
L 115.002503 37.64705 
L 115.898321 39.510139 
L 116.794139 37.478758 
L 117.689957 36.627261 
L 118.585776 36.986509 
L 119.481594 36.189401 
L 121.27323 36.753605 
L 122.169048 35.600178 
L 123.064866 35.861871 
L 123.960685 36.421162 
L 125.752321 34.537844 
L 126.648139 33.681646 
L 127.543957 33.562365 
L 128.439776 34.808994 
L 129.335594 32.984132 
L 130.231412 34.040775 
L 131.12723 36.294371 
L 132.023048 35.153216 
L 132.918866 34.935407 
L 133.814685 33.1928 
L 134.710503 33.243859 
L 135.606321 35.378348 
L 136.502139 33.424594 
L 137.397957 33.939926 
L 138.293776 34.650243 
L 139.189594 33.721557 
L 140.085412 33.305747 
L 140.98123 34.215828 
L 141.877048 34.887542 
L 142.772866 32.785148 
L 143.668685 34.023896 
L 144.564503 33.116826 
L 145.460321 32.793067 
L 146.356139 34.989384 
L 147.251957 33.542709 
L 148.147776 33.163729 
L 149.043594 32.293346 
L 149.939412 33.393983 
L 150.83523 32.981646 
L 151.731048 34.469648 
L 152.626866 32.382672 
L 153.522685 31.5844 
L 154.418503 32.943897 
L 155.314321 32.867206 
L 156.210139 32.05673 
L 157.105957 35.664632 
L 158.001776 32.221141 
L 158.897594 34.150885 
L 159.793412 32.463222 
L 160.68923 32.69466 
L 161.585048 31.975786 
L 162.480866 32.752274 
L 163.376685 33.114824 
L 164.272503 32.771495 
L 165.168321 31.939073 
L 166.064139 33.210575 
L 166.959957 34.228817 
L 167.855776 31.893638 
L 168.751594 35.604984 
L 169.647412 33.026855 
L 170.54323 31.509379 
L 171.439048 32.433342 
L 172.334866 32.650461 
L 173.230685 32.399132 
L 174.126503 31.398011 
L 175.022321 32.171885 
L 175.918139 31.545803 
L 176.813957 32.859119 
L 177.709776 31.608433 
L 178.605594 32.117433 
L 179.501412 32.16181 
L 180.39723 31.982926 
L 181.293048 31.558272 
L 182.188866 32.574503 
L 183.980503 31.849517 
L 184.876321 32.352306 
L 185.772139 31.399961 
L 186.667957 31.852119 
L 187.563776 30.70392 
L 188.459594 31.806522 
L 189.355412 31.440742 
L 190.25123 31.799083 
L 191.147048 31.240398 
L 192.042866 31.0866 
L 192.938685 31.960159 
L 193.834503 31.646956 
L 194.730321 33.281277 
L 195.626139 30.841959 
L 196.521957 32.092083 
L 197.417776 32.184459 
L 198.313594 31.506334 
L 199.209412 31.91793 
L 200.10523 33.676321 
L 201.001048 32.144187 
L 201.896866 31.600207 
L 202.792685 31.330284 
L 203.688503 32.432073 
L 204.584321 31.438979 
L 205.480139 32.064992 
L 206.375957 33.44037 
L 207.271776 32.207721 
L 208.167594 32.697966 
L 209.063412 31.594455 
L 209.95923 31.382753 
L 210.855048 31.556729 
L 211.750866 31.385169 
L 212.646685 30.944822 
L 213.542503 31.70201 
L 214.438321 31.773668 
L 215.334139 31.440738 
L 216.229957 32.730747 
L 217.125776 31.167193 
L 218.021594 32.140266 
L 218.917412 31.149761 
L 219.81323 31.068141 
L 220.709048 31.491205 
L 221.604866 32.270419 
L 222.500685 31.191357 
L 223.396503 31.512012 
L 224.292321 32.003675 
L 225.188139 31.327283 
L 226.083957 31.581865 
L 226.979776 31.128873 
L 228.771412 31.736186 
L 229.66723 32.804146 
L 230.563048 31.457602 
L 231.458866 30.915523 
L 232.354685 31.727491 
L 233.250503 31.330744 
L 234.146321 31.948587 
L 235.042139 31.947785 
L 235.937957 31.531826 
L 236.833776 32.016161 
L 237.729594 33.060735 
L 238.625412 31.727956 
L 238.625412 31.727956 
" style="fill:none;stroke:#4c72b0;stroke-linecap:round;stroke-width:1.75;"/>
   </g>
   <g id="line2d_22">
    <path clip-path="url(#p79b68c5452)" d="M 59.461776 208.99483 
L 60.357594 199.253218 
L 61.253412 138.620134 
L 62.14923 125.531401 
L 63.045048 127.499482 
L 63.940866 135.362859 
L 64.836685 121.396565 
L 65.732503 118.543663 
L 66.628321 117.110637 
L 67.524139 117.411966 
L 68.419957 106.321347 
L 69.315776 100.60535 
L 70.211594 88.591864 
L 71.107412 91.409538 
L 72.00323 84.10408 
L 72.899048 78.591564 
L 73.794866 68.854483 
L 74.690685 78.033895 
L 77.378139 59.655845 
L 78.273957 62.986781 
L 79.169776 55.454583 
L 80.065594 51.333126 
L 80.961412 54.462711 
L 82.753048 47.244726 
L 83.648866 48.757931 
L 84.544685 52.147714 
L 85.440503 47.164709 
L 86.336321 49.301581 
L 87.232139 44.08524 
L 88.127957 47.25255 
L 89.023776 42.468588 
L 89.919594 41.111523 
L 90.815412 41.317697 
L 91.71123 39.861476 
L 92.607048 44.363945 
L 93.502866 38.405937 
L 94.398685 43.382449 
L 95.294503 39.404618 
L 96.190321 37.909271 
L 97.086139 41.681584 
L 97.981957 36.429357 
L 98.877776 38.667834 
L 99.773594 35.791888 
L 100.669412 36.391634 
L 101.56523 38.298753 
L 102.461048 36.024403 
L 103.356866 36.961092 
L 104.252685 37.656232 
L 105.148503 36.264457 
L 106.044321 36.09233 
L 106.940139 36.45205 
L 107.835957 35.676575 
L 108.731776 35.456454 
L 109.627594 35.5086 
L 110.523412 34.42262 
L 111.41923 36.556057 
L 112.315048 36.611701 
L 113.210866 34.095699 
L 114.106685 35.454011 
L 115.002503 35.989141 
L 115.898321 34.028584 
L 116.794139 34.974836 
L 117.689957 37.292931 
L 118.585776 34.034748 
L 119.481594 33.360815 
L 120.377412 34.296874 
L 121.27323 36.005299 
L 122.169048 33.619053 
L 123.064866 33.595128 
L 123.960685 34.204928 
L 124.856503 33.531495 
L 125.752321 35.767191 
L 126.648139 32.468075 
L 127.543957 33.355081 
L 128.439776 33.612158 
L 129.335594 33.192511 
L 130.231412 33.237745 
L 131.12723 35.677978 
L 132.023048 33.414813 
L 134.710503 33.200802 
L 135.606321 32.688742 
L 136.502139 33.288198 
L 137.397957 32.730529 
L 138.293776 32.759027 
L 139.189594 33.740836 
L 140.085412 32.827736 
L 140.98123 33.326861 
L 141.877048 32.948355 
L 142.772866 33.316949 
L 143.668685 32.213681 
L 144.564503 32.482265 
L 145.460321 32.490824 
L 146.356139 33.518517 
L 147.251957 33.206049 
L 148.147776 33.035178 
L 149.043594 31.717417 
L 149.939412 32.872187 
L 153.522685 32.92554 
L 154.418503 32.10665 
L 155.314321 32.163738 
L 156.210139 32.911485 
L 157.105957 32.501605 
L 158.001776 32.458807 
L 158.897594 31.927512 
L 160.68923 33.193718 
L 161.585048 32.006564 
L 162.480866 32.232929 
L 163.376685 32.747081 
L 164.272503 32.509156 
L 166.064139 32.899787 
L 166.959957 32.34756 
L 168.751594 31.856571 
L 169.647412 33.086953 
L 170.54323 31.808038 
L 171.439048 32.084762 
L 172.334866 32.062722 
L 173.230685 31.80012 
L 174.126503 33.015638 
L 175.022321 32.368237 
L 175.918139 32.079905 
L 176.813957 32.081922 
L 177.709776 32.501948 
L 178.605594 31.601778 
L 179.501412 32.119961 
L 180.39723 32.407377 
L 181.293048 32.238673 
L 182.188866 32.529176 
L 183.084685 31.616803 
L 183.980503 32.10189 
L 184.876321 31.757686 
L 185.772139 32.154917 
L 186.667957 31.675577 
L 187.563776 32.589849 
L 188.459594 32.802292 
L 189.355412 32.725864 
L 190.25123 32.21773 
L 191.147048 32.448442 
L 192.042866 32.270704 
L 192.938685 31.965634 
L 193.834503 31.341653 
L 194.730321 32.41171 
L 195.626139 31.8755 
L 196.521957 33.029334 
L 197.417776 32.61745 
L 198.313594 32.957192 
L 199.209412 32.468755 
L 200.10523 32.652749 
L 201.001048 31.791162 
L 201.896866 31.933886 
L 202.792685 32.773641 
L 203.688503 31.69734 
L 204.584321 31.726374 
L 205.480139 31.973864 
L 206.375957 31.790194 
L 207.271776 32.083799 
L 208.167594 31.980608 
L 210.855048 32.274683 
L 211.750866 31.26571 
L 212.646685 32.568934 
L 214.438321 32.383697 
L 215.334139 32.42122 
L 216.229957 32.057753 
L 217.125776 31.99839 
L 218.021594 32.152219 
L 218.917412 32.091937 
L 220.709048 32.603074 
L 221.604866 32.129596 
L 222.500685 32.312299 
L 223.396503 31.895477 
L 224.292321 31.69353 
L 225.188139 32.116847 
L 226.083957 32.224541 
L 226.979776 32.067338 
L 228.771412 32.28631 
L 229.66723 32.011331 
L 230.563048 33.01078 
L 231.458866 31.902549 
L 232.354685 31.366708 
L 234.146321 32.310594 
L 235.042139 32.252477 
L 235.937957 31.94097 
L 236.833776 31.931627 
L 237.729594 32.117334 
L 238.625412 31.948216 
L 238.625412 31.948216 
" style="fill:none;stroke:#55a868;stroke-linecap:round;stroke-width:1.75;"/>
   </g>
   <g id="line2d_23">
    <path clip-path="url(#p79b68c5452)" d="M 59.461776 31.122364 
L 238.625412 31.122364 
" style="fill:none;stroke:#c44e52;stroke-linecap:round;stroke-width:1.75;"/>
   </g>
   <g id="patch_3">
    <path d="M 50.503594 217.909375 
L 50.503594 21.789375 
" style="fill:none;"/>
   </g>
   <g id="patch_4">
    <path d="M 247.583594 217.909375 
L 247.583594 21.789375 
" style="fill:none;"/>
   </g>
   <g id="patch_5">
    <path d="M 50.503594 217.909375 
L 247.583594 217.909375 
" style="fill:none;"/>
   </g>
   <g id="patch_6">
    <path d="M 50.503594 21.789375 
L 247.583594 21.789375 
" style="fill:none;"/>
   </g>
   <g id="text_13">
    <!-- HalfCheetah -->
    <defs>
     <path d="M 8.015625 0 
L 8.015625 71.578125 
L 17.484375 71.578125 
L 17.484375 42.1875 
L 54.6875 42.1875 
L 54.6875 71.578125 
L 64.15625 71.578125 
L 64.15625 0 
L 54.6875 0 
L 54.6875 33.734375 
L 17.484375 33.734375 
L 17.484375 0 
z
" id="ArialMT-72"/>
     <path d="M 40.4375 6.390625 
Q 35.546875 2.25 31.03125 0.53125 
Q 26.515625 -1.171875 21.34375 -1.171875 
Q 12.796875 -1.171875 8.203125 3 
Q 3.609375 7.171875 3.609375 13.671875 
Q 3.609375 17.484375 5.34375 20.625 
Q 7.078125 23.78125 9.890625 25.6875 
Q 12.703125 27.59375 16.21875 28.5625 
Q 18.796875 29.25 24.03125 29.890625 
Q 34.671875 31.15625 39.703125 32.90625 
Q 39.75 34.71875 39.75 35.203125 
Q 39.75 40.578125 37.25 42.78125 
Q 33.890625 45.75 27.25 45.75 
Q 21.046875 45.75 18.09375 43.578125 
Q 15.140625 41.40625 13.71875 35.890625 
L 5.125 37.0625 
Q 6.296875 42.578125 8.984375 45.96875 
Q 11.671875 49.359375 16.75 51.1875 
Q 21.828125 53.03125 28.515625 53.03125 
Q 35.15625 53.03125 39.296875 51.46875 
Q 43.453125 49.90625 45.40625 47.53125 
Q 47.359375 45.171875 48.140625 41.546875 
Q 48.578125 39.3125 48.578125 33.453125 
L 48.578125 21.734375 
Q 48.578125 9.46875 49.140625 6.21875 
Q 49.703125 2.984375 51.375 0 
L 42.1875 0 
Q 40.828125 2.734375 40.4375 6.390625 
z
M 39.703125 26.03125 
Q 34.90625 24.078125 25.34375 22.703125 
Q 19.921875 21.921875 17.671875 20.9375 
Q 15.4375 19.96875 14.203125 18.09375 
Q 12.984375 16.21875 12.984375 13.921875 
Q 12.984375 10.40625 15.640625 8.0625 
Q 18.3125 5.71875 23.4375 5.71875 
Q 28.515625 5.71875 32.46875 7.9375 
Q 36.421875 10.15625 38.28125 14.015625 
Q 39.703125 17 39.703125 22.796875 
z
" id="ArialMT-97"/>
     <path d="M 6.390625 0 
L 6.390625 71.578125 
L 15.1875 71.578125 
L 15.1875 0 
z
" id="ArialMT-108"/>
     <path d="M 8.6875 0 
L 8.6875 45.015625 
L 0.921875 45.015625 
L 0.921875 51.859375 
L 8.6875 51.859375 
L 8.6875 57.375 
Q 8.6875 62.59375 9.625 65.140625 
Q 10.890625 68.5625 14.078125 70.671875 
Q 17.28125 72.796875 23.046875 72.796875 
Q 26.765625 72.796875 31.25 71.921875 
L 29.9375 64.265625 
Q 27.203125 64.75 24.75 64.75 
Q 20.75 64.75 19.09375 63.03125 
Q 17.4375 61.328125 17.4375 56.640625 
L 17.4375 51.859375 
L 27.546875 51.859375 
L 27.546875 45.015625 
L 17.4375 45.015625 
L 17.4375 0 
z
" id="ArialMT-102"/>
     <path d="M 58.796875 25.09375 
L 68.265625 22.703125 
Q 65.28125 11.03125 57.546875 4.90625 
Q 49.8125 -1.21875 38.625 -1.21875 
Q 27.046875 -1.21875 19.796875 3.484375 
Q 12.546875 8.203125 8.765625 17.140625 
Q 4.984375 26.078125 4.984375 36.328125 
Q 4.984375 47.515625 9.25 55.828125 
Q 13.53125 64.15625 21.40625 68.46875 
Q 29.296875 72.796875 38.765625 72.796875 
Q 49.515625 72.796875 56.828125 67.328125 
Q 64.15625 61.859375 67.046875 51.953125 
L 57.71875 49.75 
Q 55.21875 57.5625 50.484375 61.125 
Q 45.75 64.703125 38.578125 64.703125 
Q 30.328125 64.703125 24.78125 60.734375 
Q 19.234375 56.78125 16.984375 50.109375 
Q 14.75 43.453125 14.75 36.375 
Q 14.75 27.25 17.40625 20.4375 
Q 20.0625 13.625 25.671875 10.25 
Q 31.296875 6.890625 37.84375 6.890625 
Q 45.796875 6.890625 51.3125 11.46875 
Q 56.84375 16.0625 58.796875 25.09375 
z
" id="ArialMT-67"/>
     <path d="M 25.78125 7.859375 
L 27.046875 0.09375 
Q 23.34375 -0.6875 20.40625 -0.6875 
Q 15.625 -0.6875 12.984375 0.828125 
Q 10.359375 2.34375 9.28125 4.8125 
Q 8.203125 7.28125 8.203125 15.1875 
L 8.203125 45.015625 
L 1.765625 45.015625 
L 1.765625 51.859375 
L 8.203125 51.859375 
L 8.203125 64.703125 
L 16.9375 69.96875 
L 16.9375 51.859375 
L 25.78125 51.859375 
L 25.78125 45.015625 
L 16.9375 45.015625 
L 16.9375 14.703125 
Q 16.9375 10.9375 17.40625 9.859375 
Q 17.875 8.796875 18.921875 8.15625 
Q 19.96875 7.515625 21.921875 7.515625 
Q 23.390625 7.515625 25.78125 7.859375 
z
" id="ArialMT-116"/>
    </defs>
    <g style="fill:#262626;" transform="translate(115.691094 15.789375)scale(0.12 -0.12)">
     <use xlink:href="#ArialMT-72"/>
     <use x="72.216797" xlink:href="#ArialMT-97"/>
     <use x="127.832031" xlink:href="#ArialMT-108"/>
     <use x="150.048828" xlink:href="#ArialMT-102"/>
     <use x="177.832031" xlink:href="#ArialMT-67"/>
     <use x="250.048828" xlink:href="#ArialMT-104"/>
     <use x="305.664062" xlink:href="#ArialMT-101"/>
     <use x="361.279297" xlink:href="#ArialMT-101"/>
     <use x="416.894531" xlink:href="#ArialMT-116"/>
     <use x="444.677734" xlink:href="#ArialMT-97"/>
     <use x="500.292969" xlink:href="#ArialMT-104"/>
    </g>
   </g>
   <g id="legend_1">
    <g id="line2d_24">
     <path d="M 176.678906 175.014063 
L 196.678906 175.014063 
" style="fill:none;stroke:#4c72b0;stroke-linecap:round;stroke-width:1.75;"/>
    </g>
    <g id="line2d_25"/>
    <g id="text_14">
     <!-- BC -->
     <defs>
      <path d="M 7.328125 0 
L 7.328125 71.578125 
L 34.1875 71.578125 
Q 42.390625 71.578125 47.34375 69.40625 
Q 52.296875 67.234375 55.09375 62.71875 
Q 57.90625 58.203125 57.90625 53.265625 
Q 57.90625 48.6875 55.421875 44.625 
Q 52.9375 40.578125 47.90625 38.09375 
Q 54.390625 36.1875 57.875 31.59375 
Q 61.375 27 61.375 20.75 
Q 61.375 15.71875 59.25 11.390625 
Q 57.125 7.078125 54 4.734375 
Q 50.875 2.390625 46.15625 1.1875 
Q 41.453125 0 34.625 0 
z
M 16.796875 41.5 
L 32.28125 41.5 
Q 38.578125 41.5 41.3125 42.328125 
Q 44.921875 43.40625 46.75 45.890625 
Q 48.578125 48.390625 48.578125 52.15625 
Q 48.578125 55.71875 46.875 58.421875 
Q 45.171875 61.140625 41.984375 62.140625 
Q 38.8125 63.140625 31.109375 63.140625 
L 16.796875 63.140625 
z
M 16.796875 8.453125 
L 34.625 8.453125 
Q 39.203125 8.453125 41.0625 8.796875 
Q 44.34375 9.375 46.53125 10.734375 
Q 48.734375 12.109375 50.140625 14.71875 
Q 51.5625 17.328125 51.5625 20.75 
Q 51.5625 24.75 49.515625 27.703125 
Q 47.46875 30.671875 43.828125 31.859375 
Q 40.1875 33.0625 33.34375 33.0625 
L 16.796875 33.0625 
z
" id="ArialMT-66"/>
     </defs>
     <g style="fill:#262626;" transform="translate(204.678906 178.514063)scale(0.1 -0.1)">
      <use xlink:href="#ArialMT-66"/>
      <use x="66.699219" xlink:href="#ArialMT-67"/>
     </g>
    </g>
    <g id="line2d_26">
     <path d="M 176.678906 189.159375 
L 196.678906 189.159375 
" style="fill:none;stroke:#55a868;stroke-linecap:round;stroke-width:1.75;"/>
    </g>
    <g id="line2d_27"/>
    <g id="text_15">
     <!-- DAgger -->
     <defs>
      <path d="M 7.71875 0 
L 7.71875 71.578125 
L 32.375 71.578125 
Q 40.71875 71.578125 45.125 70.5625 
Q 51.265625 69.140625 55.609375 65.4375 
Q 61.28125 60.640625 64.078125 53.1875 
Q 66.890625 45.75 66.890625 36.1875 
Q 66.890625 28.03125 64.984375 21.734375 
Q 63.09375 15.4375 60.109375 11.296875 
Q 57.125 7.171875 53.578125 4.796875 
Q 50.046875 2.4375 45.046875 1.21875 
Q 40.046875 0 33.546875 0 
z
M 17.1875 8.453125 
L 32.46875 8.453125 
Q 39.546875 8.453125 43.578125 9.765625 
Q 47.609375 11.078125 50 13.484375 
Q 53.375 16.84375 55.25 22.53125 
Q 57.125 28.21875 57.125 36.328125 
Q 57.125 47.5625 53.4375 53.59375 
Q 49.75 59.625 44.484375 61.671875 
Q 40.671875 63.140625 32.234375 63.140625 
L 17.1875 63.140625 
z
" id="ArialMT-68"/>
      <path d="M -0.140625 0 
L 27.34375 71.578125 
L 37.546875 71.578125 
L 66.84375 0 
L 56.0625 0 
L 47.703125 21.6875 
L 17.78125 21.6875 
L 9.90625 0 
z
M 20.515625 29.390625 
L 44.78125 29.390625 
L 37.3125 49.21875 
Q 33.890625 58.25 32.234375 64.0625 
Q 30.859375 57.171875 28.375 50.390625 
z
" id="ArialMT-65"/>
      <path d="M 4.984375 -4.296875 
L 13.53125 -5.5625 
Q 14.0625 -9.515625 16.5 -11.328125 
Q 19.78125 -13.765625 25.4375 -13.765625 
Q 31.546875 -13.765625 34.859375 -11.328125 
Q 38.1875 -8.890625 39.359375 -4.5 
Q 40.046875 -1.8125 39.984375 6.78125 
Q 34.234375 0 25.640625 0 
Q 14.9375 0 9.078125 7.71875 
Q 3.21875 15.4375 3.21875 26.21875 
Q 3.21875 33.640625 5.90625 39.90625 
Q 8.59375 46.1875 13.6875 49.609375 
Q 18.796875 53.03125 25.6875 53.03125 
Q 34.859375 53.03125 40.828125 45.609375 
L 40.828125 51.859375 
L 48.921875 51.859375 
L 48.921875 7.03125 
Q 48.921875 -5.078125 46.453125 -10.125 
Q 44 -15.1875 38.640625 -18.109375 
Q 33.296875 -21.046875 25.484375 -21.046875 
Q 16.21875 -21.046875 10.5 -16.875 
Q 4.78125 -12.703125 4.984375 -4.296875 
z
M 12.25 26.859375 
Q 12.25 16.65625 16.296875 11.96875 
Q 20.359375 7.28125 26.46875 7.28125 
Q 32.515625 7.28125 36.609375 11.9375 
Q 40.71875 16.609375 40.71875 26.5625 
Q 40.71875 36.078125 36.5 40.90625 
Q 32.28125 45.75 26.3125 45.75 
Q 20.453125 45.75 16.34375 40.984375 
Q 12.25 36.234375 12.25 26.859375 
z
" id="ArialMT-103"/>
     </defs>
     <g style="fill:#262626;" transform="translate(204.678906 192.659375)scale(0.1 -0.1)">
      <use xlink:href="#ArialMT-68"/>
      <use x="72.216797" xlink:href="#ArialMT-65"/>
      <use x="138.916016" xlink:href="#ArialMT-103"/>
      <use x="194.53125" xlink:href="#ArialMT-103"/>
      <use x="250.146484" xlink:href="#ArialMT-101"/>
      <use x="305.761719" xlink:href="#ArialMT-114"/>
     </g>
    </g>
    <g id="line2d_28">
     <path d="M 176.678906 203.421875 
L 196.678906 203.421875 
" style="fill:none;stroke:#c44e52;stroke-linecap:round;stroke-width:1.75;"/>
    </g>
    <g id="line2d_29"/>
    <g id="text_16">
     <!-- Expert -->
     <defs>
      <path d="M 0.734375 0 
L 19.671875 26.953125 
L 2.15625 51.859375 
L 13.140625 51.859375 
L 21.09375 39.703125 
Q 23.34375 36.234375 24.703125 33.890625 
Q 26.859375 37.109375 28.65625 39.59375 
L 37.40625 51.859375 
L 47.90625 51.859375 
L 29.984375 27.4375 
L 49.265625 0 
L 38.484375 0 
L 27.828125 16.109375 
L 25 20.453125 
L 11.375 0 
z
" id="ArialMT-120"/>
     </defs>
     <g style="fill:#262626;" transform="translate(204.678906 206.921875)scale(0.1 -0.1)">
      <use xlink:href="#ArialMT-69"/>
      <use x="66.699219" xlink:href="#ArialMT-120"/>
      <use x="116.699219" xlink:href="#ArialMT-112"/>
      <use x="172.314453" xlink:href="#ArialMT-101"/>
      <use x="227.929688" xlink:href="#ArialMT-114"/>
      <use x="261.230469" xlink:href="#ArialMT-116"/>
     </g>
    </g>
   </g>
  </g>
 </g>
 <defs>
  <clipPath id="p79b68c5452">
   <rect height="196.12" width="197.08" x="50.503594" y="21.789375"/>
  </clipPath>
 </defs>
</svg>
