<?xml version="1.0" encoding="utf-8" standalone="no"?>
<!DOCTYPE svg PUBLIC "-//W3C//DTD SVG 1.1//EN"
  "http://www.w3.org/Graphics/SVG/1.1/DTD/svg11.dtd">
<!-- Created with matplotlib (https://matplotlib.org/) -->
<svg height="255.314531pt" version="1.1" viewBox="0 0 254.783594 255.314531" width="254.783594pt" xmlns="http://www.w3.org/2000/svg" xmlns:xlink="http://www.w3.org/1999/xlink">
 <defs>
  <style type="text/css">
*{stroke-linecap:butt;stroke-linejoin:round;}
  </style>
 </defs>
 <g id="figure_1">
  <g id="patch_1">
   <path d="M 0 255.314531 
L 254.783594 255.314531 
L 254.783594 0 
L 0 0 
z
" style="fill:#ffffff;"/>
  </g>
  <g id="axes_1">
   <g id="patch_2">
    <path d="M 50.503594 217.909375 
L 247.583594 217.909375 
L 247.583594 21.789375 
L 50.503594 21.789375 
z
" style="fill:#eaeaf2;"/>
   </g>
   <g id="matplotlib.axis_1">
    <g id="xtick_1">
     <g id="line2d_1">
      <path clip-path="url(#p3f9ed97355)" d="M 59.461776 217.909375 
L 59.461776 21.789375 
" style="fill:none;stroke:#ffffff;stroke-linecap:round;"/>
     </g>
     <g id="line2d_2"/>
     <g id="text_1">
      <!-- 0 -->
      <defs>
       <path d="M 4.15625 35.296875 
Q 4.15625 48 6.765625 55.734375 
Q 9.375 63.484375 14.515625 67.671875 
Q 19.671875 71.875 27.484375 71.875 
Q 33.25 71.875 37.59375 69.546875 
Q 41.9375 67.234375 44.765625 62.859375 
Q 47.609375 58.5 49.21875 52.21875 
Q 50.828125 45.953125 50.828125 35.296875 
Q 50.828125 22.703125 48.234375 14.96875 
Q 45.65625 7.234375 40.5 3 
Q 35.359375 -1.21875 27.484375 -1.21875 
Q 17.140625 -1.21875 11.234375 6.203125 
Q 4.15625 15.140625 4.15625 35.296875 
z
M 13.1875 35.296875 
Q 13.1875 17.671875 17.3125 11.828125 
Q 21.4375 6 27.484375 6 
Q 33.546875 6 37.671875 11.859375 
Q 41.796875 17.71875 41.796875 35.296875 
Q 41.796875 52.984375 37.671875 58.78125 
Q 33.546875 64.59375 27.390625 64.59375 
Q 21.34375 64.59375 17.71875 59.46875 
Q 13.1875 52.9375 13.1875 35.296875 
z
" id="ArialMT-48"/>
      </defs>
      <g style="fill:#262626;" transform="translate(56.681307 232.067188)scale(0.1 -0.1)">
       <use xlink:href="#ArialMT-48"/>
      </g>
     </g>
    </g>
    <g id="xtick_2">
     <g id="line2d_3">
      <path clip-path="url(#p3f9ed97355)" d="M 104.252685 217.909375 
L 104.252685 21.789375 
" style="fill:none;stroke:#ffffff;stroke-linecap:round;"/>
     </g>
     <g id="line2d_4"/>
     <g id="text_2">
      <!-- 50 -->
      <defs>
       <path d="M 4.15625 18.75 
L 13.375 19.53125 
Q 14.40625 12.796875 18.140625 9.390625 
Q 21.875 6 27.15625 6 
Q 33.5 6 37.890625 10.78125 
Q 42.28125 15.578125 42.28125 23.484375 
Q 42.28125 31 38.0625 35.34375 
Q 33.84375 39.703125 27 39.703125 
Q 22.75 39.703125 19.328125 37.765625 
Q 15.921875 35.84375 13.96875 32.765625 
L 5.71875 33.84375 
L 12.640625 70.609375 
L 48.25 70.609375 
L 48.25 62.203125 
L 19.671875 62.203125 
L 15.828125 42.96875 
Q 22.265625 47.46875 29.34375 47.46875 
Q 38.71875 47.46875 45.15625 40.96875 
Q 51.609375 34.46875 51.609375 24.265625 
Q 51.609375 14.546875 45.953125 7.46875 
Q 39.0625 -1.21875 27.15625 -1.21875 
Q 17.390625 -1.21875 11.203125 4.25 
Q 5.03125 9.71875 4.15625 18.75 
z
" id="ArialMT-53"/>
      </defs>
      <g style="fill:#262626;" transform="translate(98.691747 232.067188)scale(0.1 -0.1)">
       <use xlink:href="#ArialMT-53"/>
       <use x="55.615234" xlink:href="#ArialMT-48"/>
      </g>
     </g>
    </g>
    <g id="xtick_3">
     <g id="line2d_5">
      <path clip-path="url(#p3f9ed97355)" d="M 149.043594 217.909375 
L 149.043594 21.789375 
" style="fill:none;stroke:#ffffff;stroke-linecap:round;"/>
     </g>
     <g id="line2d_6"/>
     <g id="text_3">
      <!-- 100 -->
      <defs>
       <path d="M 37.25 0 
L 28.46875 0 
L 28.46875 56 
Q 25.296875 52.984375 20.140625 49.953125 
Q 14.984375 46.921875 10.890625 45.40625 
L 10.890625 53.90625 
Q 18.265625 57.375 23.78125 62.296875 
Q 29.296875 67.234375 31.59375 71.875 
L 37.25 71.875 
z
" id="ArialMT-49"/>
      </defs>
      <g style="fill:#262626;" transform="translate(140.702188 232.067188)scale(0.1 -0.1)">
       <use xlink:href="#ArialMT-49"/>
       <use x="55.615234" xlink:href="#ArialMT-48"/>
       <use x="111.230469" xlink:href="#ArialMT-48"/>
      </g>
     </g>
    </g>
    <g id="xtick_4">
     <g id="line2d_7">
      <path clip-path="url(#p3f9ed97355)" d="M 193.834503 217.909375 
L 193.834503 21.789375 
" style="fill:none;stroke:#ffffff;stroke-linecap:round;"/>
     </g>
     <g id="line2d_8"/>
     <g id="text_4">
      <!-- 150 -->
      <g style="fill:#262626;" transform="translate(185.493097 232.067188)scale(0.1 -0.1)">
       <use xlink:href="#ArialMT-49"/>
       <use x="55.615234" xlink:href="#ArialMT-53"/>
       <use x="111.230469" xlink:href="#ArialMT-48"/>
      </g>
     </g>
    </g>
    <g id="xtick_5">
     <g id="line2d_9">
      <path clip-path="url(#p3f9ed97355)" d="M 238.625412 217.909375 
L 238.625412 21.789375 
" style="fill:none;stroke:#ffffff;stroke-linecap:round;"/>
     </g>
     <g id="line2d_10"/>
     <g id="text_5">
      <!-- 200 -->
      <defs>
       <path d="M 50.34375 8.453125 
L 50.34375 0 
L 3.03125 0 
Q 2.9375 3.171875 4.046875 6.109375 
Q 5.859375 10.9375 9.828125 15.625 
Q 13.8125 20.3125 21.34375 26.46875 
Q 33.015625 36.03125 37.109375 41.625 
Q 41.21875 47.21875 41.21875 52.203125 
Q 41.21875 57.421875 37.46875 61 
Q 33.734375 64.59375 27.734375 64.59375 
Q 21.390625 64.59375 17.578125 60.78125 
Q 13.765625 56.984375 13.71875 50.25 
L 4.6875 51.171875 
Q 5.609375 61.28125 11.65625 66.578125 
Q 17.71875 71.875 27.9375 71.875 
Q 38.234375 71.875 44.234375 66.15625 
Q 50.25 60.453125 50.25 52 
Q 50.25 47.703125 48.484375 43.546875 
Q 46.734375 39.40625 42.65625 34.8125 
Q 38.578125 30.21875 29.109375 22.21875 
Q 21.1875 15.578125 18.9375 13.203125 
Q 16.703125 10.84375 15.234375 8.453125 
z
" id="ArialMT-50"/>
      </defs>
      <g style="fill:#262626;" transform="translate(230.284006 232.067188)scale(0.1 -0.1)">
       <use xlink:href="#ArialMT-50"/>
       <use x="55.615234" xlink:href="#ArialMT-48"/>
       <use x="111.230469" xlink:href="#ArialMT-48"/>
      </g>
     </g>
    </g>
    <g id="text_6">
     <!-- Epoch -->
     <defs>
      <path d="M 7.90625 0 
L 7.90625 71.578125 
L 59.671875 71.578125 
L 59.671875 63.140625 
L 17.390625 63.140625 
L 17.390625 41.21875 
L 56.984375 41.21875 
L 56.984375 32.8125 
L 17.390625 32.8125 
L 17.390625 8.453125 
L 61.328125 8.453125 
L 61.328125 0 
z
" id="ArialMT-69"/>
      <path d="M 6.59375 -19.875 
L 6.59375 51.859375 
L 14.59375 51.859375 
L 14.59375 45.125 
Q 17.4375 49.078125 21 51.046875 
Q 24.5625 53.03125 29.640625 53.03125 
Q 36.28125 53.03125 41.359375 49.609375 
Q 46.4375 46.1875 49.015625 39.953125 
Q 51.609375 33.734375 51.609375 26.3125 
Q 51.609375 18.359375 48.75 11.984375 
Q 45.90625 5.609375 40.453125 2.21875 
Q 35.015625 -1.171875 29 -1.171875 
Q 24.609375 -1.171875 21.109375 0.6875 
Q 17.625 2.546875 15.375 5.375 
L 15.375 -19.875 
z
M 14.546875 25.640625 
Q 14.546875 15.625 18.59375 10.84375 
Q 22.65625 6.0625 28.421875 6.0625 
Q 34.28125 6.0625 38.453125 11.015625 
Q 42.625 15.96875 42.625 26.375 
Q 42.625 36.28125 38.546875 41.203125 
Q 34.46875 46.140625 28.8125 46.140625 
Q 23.1875 46.140625 18.859375 40.890625 
Q 14.546875 35.640625 14.546875 25.640625 
z
" id="ArialMT-112"/>
      <path d="M 3.328125 25.921875 
Q 3.328125 40.328125 11.328125 47.265625 
Q 18.015625 53.03125 27.640625 53.03125 
Q 38.328125 53.03125 45.109375 46.015625 
Q 51.90625 39.015625 51.90625 26.65625 
Q 51.90625 16.65625 48.90625 10.90625 
Q 45.90625 5.171875 40.15625 2 
Q 34.421875 -1.171875 27.640625 -1.171875 
Q 16.75 -1.171875 10.03125 5.8125 
Q 3.328125 12.796875 3.328125 25.921875 
z
M 12.359375 25.921875 
Q 12.359375 15.96875 16.703125 11.015625 
Q 21.046875 6.0625 27.640625 6.0625 
Q 34.1875 6.0625 38.53125 11.03125 
Q 42.875 16.015625 42.875 26.21875 
Q 42.875 35.84375 38.5 40.796875 
Q 34.125 45.75 27.640625 45.75 
Q 21.046875 45.75 16.703125 40.8125 
Q 12.359375 35.890625 12.359375 25.921875 
z
" id="ArialMT-111"/>
      <path d="M 40.4375 19 
L 49.078125 17.875 
Q 47.65625 8.9375 41.8125 3.875 
Q 35.984375 -1.171875 27.484375 -1.171875 
Q 16.84375 -1.171875 10.375 5.78125 
Q 3.90625 12.75 3.90625 25.734375 
Q 3.90625 34.125 6.6875 40.421875 
Q 9.46875 46.734375 15.15625 49.875 
Q 20.84375 53.03125 27.546875 53.03125 
Q 35.984375 53.03125 41.359375 48.75 
Q 46.734375 44.484375 48.25 36.625 
L 39.703125 35.296875 
Q 38.484375 40.53125 35.375 43.15625 
Q 32.28125 45.796875 27.875 45.796875 
Q 21.234375 45.796875 17.078125 41.03125 
Q 12.9375 36.28125 12.9375 25.984375 
Q 12.9375 15.53125 16.9375 10.796875 
Q 20.953125 6.0625 27.390625 6.0625 
Q 32.5625 6.0625 36.03125 9.234375 
Q 39.5 12.40625 40.4375 19 
z
" id="ArialMT-99"/>
      <path d="M 6.59375 0 
L 6.59375 71.578125 
L 15.375 71.578125 
L 15.375 45.90625 
Q 21.53125 53.03125 30.90625 53.03125 
Q 36.671875 53.03125 40.921875 50.75 
Q 45.171875 48.484375 47 44.484375 
Q 48.828125 40.484375 48.828125 32.859375 
L 48.828125 0 
L 40.046875 0 
L 40.046875 32.859375 
Q 40.046875 39.453125 37.1875 42.453125 
Q 34.328125 45.453125 29.109375 45.453125 
Q 25.203125 45.453125 21.75 43.421875 
Q 18.3125 41.40625 16.84375 37.9375 
Q 15.375 34.46875 15.375 28.375 
L 15.375 0 
z
" id="ArialMT-104"/>
     </defs>
     <g style="fill:#262626;" transform="translate(133.449375 245.928281)scale(0.11 -0.11)">
      <use xlink:href="#ArialMT-69"/>
      <use x="66.699219" xlink:href="#ArialMT-112"/>
      <use x="122.314453" xlink:href="#ArialMT-111"/>
      <use x="177.929688" xlink:href="#ArialMT-99"/>
      <use x="227.929688" xlink:href="#ArialMT-104"/>
     </g>
    </g>
   </g>
   <g id="matplotlib.axis_2">
    <g id="ytick_1">
     <g id="line2d_11">
      <path clip-path="url(#p3f9ed97355)" d="M 50.503594 209.685401 
L 247.583594 209.685401 
" style="fill:none;stroke:#ffffff;stroke-linecap:round;"/>
     </g>
     <g id="line2d_12"/>
     <g id="text_7">
      <!-- 0 -->
      <g style="fill:#262626;" transform="translate(37.942656 213.264308)scale(0.1 -0.1)">
       <use xlink:href="#ArialMT-48"/>
      </g>
     </g>
    </g>
    <g id="ytick_2">
     <g id="line2d_13">
      <path clip-path="url(#p3f9ed97355)" d="M 50.503594 186.005972 
L 247.583594 186.005972 
" style="fill:none;stroke:#ffffff;stroke-linecap:round;"/>
     </g>
     <g id="line2d_14"/>
     <g id="text_8">
      <!-- 500 -->
      <g style="fill:#262626;" transform="translate(26.820781 189.584878)scale(0.1 -0.1)">
       <use xlink:href="#ArialMT-53"/>
       <use x="55.615234" xlink:href="#ArialMT-48"/>
       <use x="111.230469" xlink:href="#ArialMT-48"/>
      </g>
     </g>
    </g>
    <g id="ytick_3">
     <g id="line2d_15">
      <path clip-path="url(#p3f9ed97355)" d="M 50.503594 162.326543 
L 247.583594 162.326543 
" style="fill:none;stroke:#ffffff;stroke-linecap:round;"/>
     </g>
     <g id="line2d_16"/>
     <g id="text_9">
      <!-- 1000 -->
      <g style="fill:#262626;" transform="translate(21.259844 165.905449)scale(0.1 -0.1)">
       <use xlink:href="#ArialMT-49"/>
       <use x="55.615234" xlink:href="#ArialMT-48"/>
       <use x="111.230469" xlink:href="#ArialMT-48"/>
       <use x="166.845703" xlink:href="#ArialMT-48"/>
      </g>
     </g>
    </g>
    <g id="ytick_4">
     <g id="line2d_17">
      <path clip-path="url(#p3f9ed97355)" d="M 50.503594 138.647114 
L 247.583594 138.647114 
" style="fill:none;stroke:#ffffff;stroke-linecap:round;"/>
     </g>
     <g id="line2d_18"/>
     <g id="text_10">
      <!-- 1500 -->
      <g style="fill:#262626;" transform="translate(21.259844 142.22602)scale(0.1 -0.1)">
       <use xlink:href="#ArialMT-49"/>
       <use x="55.615234" xlink:href="#ArialMT-53"/>
       <use x="111.230469" xlink:href="#ArialMT-48"/>
       <use x="166.845703" xlink:href="#ArialMT-48"/>
      </g>
     </g>
    </g>
    <g id="ytick_5">
     <g id="line2d_19">
      <path clip-path="url(#p3f9ed97355)" d="M 50.503594 114.967684 
L 247.583594 114.967684 
" style="fill:none;stroke:#ffffff;stroke-linecap:round;"/>
     </g>
     <g id="line2d_20"/>
     <g id="text_11">
      <!-- 2000 -->
      <g style="fill:#262626;" transform="translate(21.259844 118.546591)scale(0.1 -0.1)">
       <use xlink:href="#ArialMT-50"/>
       <use x="55.615234" xlink:href="#ArialMT-48"/>
       <use x="111.230469" xlink:href="#ArialMT-48"/>
       <use x="166.845703" xlink:href="#ArialMT-48"/>
      </g>
     </g>
    </g>
    <g id="ytick_6">
     <g id="line2d_21">
      <path clip-path="url(#p3f9ed97355)" d="M 50.503594 91.288255 
L 247.583594 91.288255 
" style="fill:none;stroke:#ffffff;stroke-linecap:round;"/>
     </g>
     <g id="line2d_22"/>
     <g id="text_12">
      <!-- 2500 -->
      <g style="fill:#262626;" transform="translate(21.259844 94.867161)scale(0.1 -0.1)">
       <use xlink:href="#ArialMT-50"/>
       <use x="55.615234" xlink:href="#ArialMT-53"/>
       <use x="111.230469" xlink:href="#ArialMT-48"/>
       <use x="166.845703" xlink:href="#ArialMT-48"/>
      </g>
     </g>
    </g>
    <g id="ytick_7">
     <g id="line2d_23">
      <path clip-path="url(#p3f9ed97355)" d="M 50.503594 67.608826 
L 247.583594 67.608826 
" style="fill:none;stroke:#ffffff;stroke-linecap:round;"/>
     </g>
     <g id="line2d_24"/>
     <g id="text_13">
      <!-- 3000 -->
      <defs>
       <path d="M 4.203125 18.890625 
L 12.984375 20.0625 
Q 14.5 12.59375 18.140625 9.296875 
Q 21.78125 6 27 6 
Q 33.203125 6 37.46875 10.296875 
Q 41.75 14.59375 41.75 20.953125 
Q 41.75 27 37.796875 30.921875 
Q 33.84375 34.859375 27.734375 34.859375 
Q 25.25 34.859375 21.53125 33.890625 
L 22.515625 41.609375 
Q 23.390625 41.5 23.921875 41.5 
Q 29.546875 41.5 34.03125 44.421875 
Q 38.53125 47.359375 38.53125 53.46875 
Q 38.53125 58.296875 35.25 61.46875 
Q 31.984375 64.65625 26.8125 64.65625 
Q 21.6875 64.65625 18.265625 61.421875 
Q 14.84375 58.203125 13.875 51.765625 
L 5.078125 53.328125 
Q 6.6875 62.15625 12.390625 67.015625 
Q 18.109375 71.875 26.609375 71.875 
Q 32.46875 71.875 37.390625 69.359375 
Q 42.328125 66.84375 44.9375 62.5 
Q 47.5625 58.15625 47.5625 53.265625 
Q 47.5625 48.640625 45.0625 44.828125 
Q 42.578125 41.015625 37.703125 38.765625 
Q 44.046875 37.3125 47.5625 32.6875 
Q 51.078125 28.078125 51.078125 21.140625 
Q 51.078125 11.765625 44.234375 5.25 
Q 37.40625 -1.265625 26.953125 -1.265625 
Q 17.53125 -1.265625 11.296875 4.34375 
Q 5.078125 9.96875 4.203125 18.890625 
z
" id="ArialMT-51"/>
      </defs>
      <g style="fill:#262626;" transform="translate(21.259844 71.187732)scale(0.1 -0.1)">
       <use xlink:href="#ArialMT-51"/>
       <use x="55.615234" xlink:href="#ArialMT-48"/>
       <use x="111.230469" xlink:href="#ArialMT-48"/>
       <use x="166.845703" xlink:href="#ArialMT-48"/>
      </g>
     </g>
    </g>
    <g id="ytick_8">
     <g id="line2d_25">
      <path clip-path="url(#p3f9ed97355)" d="M 50.503594 43.929396 
L 247.583594 43.929396 
" style="fill:none;stroke:#ffffff;stroke-linecap:round;"/>
     </g>
     <g id="line2d_26"/>
     <g id="text_14">
      <!-- 3500 -->
      <g style="fill:#262626;" transform="translate(21.259844 47.508303)scale(0.1 -0.1)">
       <use xlink:href="#ArialMT-51"/>
       <use x="55.615234" xlink:href="#ArialMT-53"/>
       <use x="111.230469" xlink:href="#ArialMT-48"/>
       <use x="166.845703" xlink:href="#ArialMT-48"/>
      </g>
     </g>
    </g>
    <g id="text_15">
     <!-- Score -->
     <defs>
      <path d="M 4.5 23 
L 13.421875 23.78125 
Q 14.0625 18.40625 16.375 14.96875 
Q 18.703125 11.53125 23.578125 9.40625 
Q 28.46875 7.28125 34.578125 7.28125 
Q 39.984375 7.28125 44.140625 8.890625 
Q 48.296875 10.5 50.3125 13.296875 
Q 52.34375 16.109375 52.34375 19.4375 
Q 52.34375 22.796875 50.390625 25.3125 
Q 48.4375 27.828125 43.953125 29.546875 
Q 41.0625 30.671875 31.203125 33.03125 
Q 21.34375 35.40625 17.390625 37.5 
Q 12.25 40.1875 9.734375 44.15625 
Q 7.234375 48.140625 7.234375 53.078125 
Q 7.234375 58.5 10.296875 63.203125 
Q 13.375 67.921875 19.28125 70.359375 
Q 25.203125 72.796875 32.421875 72.796875 
Q 40.375 72.796875 46.453125 70.234375 
Q 52.546875 67.671875 55.8125 62.6875 
Q 59.078125 57.71875 59.328125 51.421875 
L 50.25 50.734375 
Q 49.515625 57.515625 45.28125 60.984375 
Q 41.0625 64.453125 32.8125 64.453125 
Q 24.21875 64.453125 20.28125 61.296875 
Q 16.359375 58.15625 16.359375 53.71875 
Q 16.359375 49.859375 19.140625 47.359375 
Q 21.875 44.875 33.421875 42.265625 
Q 44.96875 39.65625 49.265625 37.703125 
Q 55.515625 34.8125 58.484375 30.390625 
Q 61.46875 25.984375 61.46875 20.21875 
Q 61.46875 14.5 58.203125 9.4375 
Q 54.9375 4.390625 48.796875 1.578125 
Q 42.671875 -1.21875 35.015625 -1.21875 
Q 25.296875 -1.21875 18.71875 1.609375 
Q 12.15625 4.4375 8.421875 10.125 
Q 4.6875 15.828125 4.5 23 
z
" id="ArialMT-83"/>
      <path d="M 6.5 0 
L 6.5 51.859375 
L 14.40625 51.859375 
L 14.40625 44 
Q 17.4375 49.515625 20 51.265625 
Q 22.5625 53.03125 25.640625 53.03125 
Q 30.078125 53.03125 34.671875 50.203125 
L 31.640625 42.046875 
Q 28.421875 43.953125 25.203125 43.953125 
Q 22.3125 43.953125 20.015625 42.21875 
Q 17.71875 40.484375 16.75 37.40625 
Q 15.28125 32.71875 15.28125 27.15625 
L 15.28125 0 
z
" id="ArialMT-114"/>
      <path d="M 42.09375 16.703125 
L 51.171875 15.578125 
Q 49.03125 7.625 43.21875 3.21875 
Q 37.40625 -1.171875 28.375 -1.171875 
Q 17 -1.171875 10.328125 5.828125 
Q 3.65625 12.84375 3.65625 25.484375 
Q 3.65625 38.578125 10.390625 45.796875 
Q 17.140625 53.03125 27.875 53.03125 
Q 38.28125 53.03125 44.875 45.953125 
Q 51.46875 38.875 51.46875 26.03125 
Q 51.46875 25.25 51.421875 23.6875 
L 12.75 23.6875 
Q 13.234375 15.140625 17.578125 10.59375 
Q 21.921875 6.0625 28.421875 6.0625 
Q 33.25 6.0625 36.671875 8.59375 
Q 40.09375 11.140625 42.09375 16.703125 
z
M 13.234375 30.90625 
L 42.1875 30.90625 
Q 41.609375 37.453125 38.875 40.71875 
Q 34.671875 45.796875 27.984375 45.796875 
Q 21.921875 45.796875 17.796875 41.75 
Q 13.671875 37.703125 13.234375 30.90625 
z
" id="ArialMT-101"/>
     </defs>
     <g style="fill:#262626;" transform="translate(15.073594 134.216406)rotate(-90)scale(0.11 -0.11)">
      <use xlink:href="#ArialMT-83"/>
      <use x="66.699219" xlink:href="#ArialMT-99"/>
      <use x="116.699219" xlink:href="#ArialMT-111"/>
      <use x="172.314453" xlink:href="#ArialMT-114"/>
      <use x="205.615234" xlink:href="#ArialMT-101"/>
     </g>
    </g>
   </g>
   <g id="PolyCollection_1">
    <path clip-path="url(#p3f9ed97355)" d="M 59.461776 208.685338 
L 59.461776 209.304321 
L 60.357594 197.493931 
L 61.253412 192.314821 
L 62.14923 196.293503 
L 63.045048 198.978452 
L 63.940866 200.312078 
L 64.836685 199.650621 
L 65.732503 200.718098 
L 66.628321 200.380623 
L 67.524139 199.768074 
L 68.419957 201.137313 
L 69.315776 202.841363 
L 70.211594 201.120597 
L 71.107412 205.061955 
L 72.00323 204.135809 
L 72.899048 202.051193 
L 73.794866 200.002444 
L 74.690685 204.095403 
L 75.586503 204.019503 
L 76.482321 202.730898 
L 77.378139 200.26384 
L 78.273957 201.728892 
L 79.169776 199.204721 
L 80.065594 206.654984 
L 80.961412 200.08778 
L 81.85723 199.905345 
L 82.753048 203.671646 
L 83.648866 196.763457 
L 84.544685 205.710717 
L 85.440503 193.730141 
L 86.336321 199.999113 
L 87.232139 203.637001 
L 88.127957 196.547962 
L 89.023776 194.674214 
L 89.919594 193.553656 
L 90.815412 196.74121 
L 91.71123 189.388542 
L 92.607048 195.218081 
L 93.502866 195.036732 
L 94.398685 193.62595 
L 95.294503 187.80713 
L 96.190321 188.34697 
L 97.086139 186.503004 
L 97.981957 187.329749 
L 98.877776 192.383179 
L 99.773594 187.724371 
L 100.669412 189.544837 
L 101.56523 188.381171 
L 102.461048 189.793317 
L 103.356866 179.38471 
L 104.252685 190.429728 
L 105.148503 175.207107 
L 106.044321 182.438579 
L 106.940139 176.763499 
L 107.835957 181.790751 
L 108.731776 185.648263 
L 109.627594 188.617212 
L 110.523412 177.836774 
L 111.41923 184.567393 
L 112.315048 177.076374 
L 113.210866 182.725263 
L 114.106685 179.760047 
L 115.002503 183.833325 
L 115.898321 179.720628 
L 116.794139 177.530516 
L 117.689957 179.369563 
L 118.585776 182.943602 
L 119.481594 182.881144 
L 120.377412 183.37905 
L 121.27323 175.623194 
L 122.169048 178.714341 
L 123.064866 171.977813 
L 123.960685 174.634314 
L 124.856503 180.12816 
L 125.752321 178.631744 
L 126.648139 178.267279 
L 127.543957 174.7066 
L 128.439776 174.416307 
L 129.335594 169.061331 
L 130.231412 167.996155 
L 131.12723 172.755426 
L 132.023048 173.870927 
L 132.918866 174.459971 
L 133.814685 180.214949 
L 134.710503 169.343358 
L 135.606321 173.456716 
L 136.502139 172.216538 
L 137.397957 168.043906 
L 138.293776 175.972978 
L 139.189594 174.046199 
L 140.085412 172.382857 
L 140.98123 171.482441 
L 141.877048 181.149908 
L 142.772866 163.966882 
L 143.668685 172.156051 
L 144.564503 164.778283 
L 145.460321 172.773418 
L 146.356139 178.81607 
L 147.251957 179.785957 
L 148.147776 176.226344 
L 149.043594 167.144397 
L 149.939412 175.537635 
L 150.83523 164.427304 
L 151.731048 174.865261 
L 152.626866 170.898251 
L 153.522685 169.902658 
L 154.418503 160.24827 
L 155.314321 164.183628 
L 156.210139 170.78371 
L 157.105957 167.792291 
L 158.001776 175.490198 
L 158.897594 171.927175 
L 159.793412 172.609082 
L 160.68923 162.128219 
L 161.585048 155.573171 
L 162.480866 164.533899 
L 163.376685 169.311209 
L 164.272503 164.832393 
L 165.168321 165.270629 
L 166.064139 159.652726 
L 166.959957 168.330966 
L 167.855776 164.451145 
L 168.751594 172.117616 
L 169.647412 166.134514 
L 170.54323 157.246714 
L 171.439048 155.916246 
L 172.334866 172.266111 
L 173.230685 168.544234 
L 174.126503 167.08848 
L 175.022321 173.130142 
L 175.918139 166.768269 
L 176.813957 166.511817 
L 177.709776 164.797736 
L 178.605594 159.83746 
L 179.501412 158.844696 
L 180.39723 164.608804 
L 181.293048 170.45451 
L 182.188866 170.645486 
L 183.084685 164.769946 
L 183.980503 167.748899 
L 184.876321 164.762449 
L 185.772139 162.994079 
L 186.667957 169.088404 
L 187.563776 165.42714 
L 188.459594 164.409916 
L 189.355412 163.82889 
L 190.25123 165.365679 
L 191.147048 163.529321 
L 192.042866 169.492844 
L 192.938685 158.044123 
L 193.834503 160.390602 
L 194.730321 162.247612 
L 195.626139 161.503816 
L 196.521957 164.15051 
L 197.417776 164.788629 
L 198.313594 159.72912 
L 199.209412 163.455026 
L 200.10523 157.308846 
L 201.001048 152.132746 
L 201.896866 165.9428 
L 202.792685 165.679883 
L 203.688503 170.730782 
L 204.584321 162.282598 
L 205.480139 163.020622 
L 206.375957 163.939072 
L 207.271776 160.135466 
L 208.167594 165.743382 
L 209.063412 167.424543 
L 209.95923 165.702466 
L 210.855048 168.346374 
L 211.750866 163.16445 
L 212.646685 167.947676 
L 213.542503 161.785999 
L 214.438321 150.989985 
L 215.334139 158.350345 
L 216.229957 166.016444 
L 217.125776 162.786458 
L 218.021594 166.343622 
L 218.917412 169.741125 
L 219.81323 160.197466 
L 220.709048 162.699778 
L 221.604866 166.605696 
L 222.500685 155.610553 
L 223.396503 158.118694 
L 224.292321 148.019637 
L 225.188139 170.794548 
L 226.083957 167.882776 
L 226.979776 162.686062 
L 227.875594 164.784088 
L 228.771412 169.854796 
L 229.66723 166.459902 
L 230.563048 160.088565 
L 231.458866 167.807585 
L 232.354685 168.426596 
L 233.250503 156.564511 
L 234.146321 165.819678 
L 235.042139 164.810495 
L 235.937957 164.52786 
L 236.833776 158.61349 
L 237.729594 157.155279 
L 238.625412 164.625992 
L 238.625412 116.18506 
L 238.625412 116.18506 
L 237.729594 128.571972 
L 236.833776 128.801029 
L 235.937957 122.970621 
L 235.042139 111.616046 
L 234.146321 116.026928 
L 233.250503 119.671899 
L 232.354685 129.453045 
L 231.458866 115.243772 
L 230.563048 113.090787 
L 229.66723 123.751198 
L 228.771412 132.572128 
L 227.875594 120.210498 
L 226.979776 114.468655 
L 226.083957 118.622541 
L 225.188139 128.721663 
L 224.292321 119.833401 
L 223.396503 119.02807 
L 222.500685 112.179193 
L 221.604866 116.255065 
L 220.709048 116.211937 
L 219.81323 112.327448 
L 218.917412 111.442451 
L 218.021594 118.571588 
L 217.125776 125.736564 
L 216.229957 112.174432 
L 215.334139 120.372585 
L 214.438321 119.102631 
L 213.542503 114.780087 
L 212.646685 122.120036 
L 211.750866 115.884146 
L 210.855048 111.084326 
L 209.95923 121.217855 
L 209.063412 105.485496 
L 208.167594 119.8545 
L 207.271776 117.503793 
L 206.375957 119.906605 
L 205.480139 117.014843 
L 204.584321 113.801862 
L 203.688503 123.643303 
L 202.792685 110.541657 
L 201.896866 120.449939 
L 201.001048 111.626446 
L 200.10523 118.556529 
L 199.209412 127.055268 
L 198.313594 122.627853 
L 197.417776 119.182434 
L 196.521957 120.581961 
L 195.626139 124.382376 
L 194.730321 117.25031 
L 193.834503 121.025433 
L 192.938685 118.137579 
L 192.042866 121.640017 
L 191.147048 119.710709 
L 190.25123 120.988137 
L 189.355412 118.750898 
L 188.459594 124.937363 
L 187.563776 121.343983 
L 186.667957 123.150947 
L 185.772139 117.611724 
L 184.876321 124.574845 
L 183.980503 124.996479 
L 183.084685 127.781804 
L 182.188866 128.256698 
L 181.293048 115.257478 
L 180.39723 126.996324 
L 179.501412 110.664137 
L 178.605594 128.619259 
L 177.709776 117.284693 
L 176.813957 124.876757 
L 175.918139 126.944278 
L 175.022321 126.930527 
L 174.126503 128.7005 
L 173.230685 124.707431 
L 172.334866 123.705022 
L 171.439048 123.158491 
L 170.54323 122.376676 
L 169.647412 123.180823 
L 168.751594 124.90833 
L 167.855776 110.456635 
L 166.959957 124.69723 
L 166.064139 125.887246 
L 165.168321 134.955476 
L 164.272503 123.929648 
L 163.376685 125.580403 
L 162.480866 116.962002 
L 161.585048 116.791761 
L 160.68923 124.741928 
L 159.793412 132.954012 
L 158.897594 117.248995 
L 158.001776 117.082781 
L 157.105957 124.783025 
L 156.210139 126.394725 
L 155.314321 125.530114 
L 154.418503 124.38964 
L 153.522685 127.616052 
L 152.626866 130.250065 
L 151.731048 126.217478 
L 150.83523 127.446098 
L 149.939412 124.359927 
L 149.043594 125.670071 
L 148.147776 126.516986 
L 147.251957 120.367774 
L 146.356139 132.570249 
L 145.460321 118.31268 
L 144.564503 120.842434 
L 143.668685 129.802705 
L 142.772866 133.760835 
L 141.877048 124.545489 
L 140.98123 137.323149 
L 140.085412 138.096288 
L 139.189594 133.263445 
L 138.293776 134.664185 
L 137.397957 118.472829 
L 136.502139 127.795395 
L 135.606321 128.972045 
L 134.710503 127.030205 
L 133.814685 129.574668 
L 132.918866 132.213648 
L 132.023048 124.806762 
L 131.12723 132.406417 
L 130.231412 131.231765 
L 129.335594 127.160103 
L 128.439776 127.488371 
L 127.543957 138.957086 
L 126.648139 139.918977 
L 125.752321 134.7957 
L 124.856503 135.13799 
L 123.960685 138.761576 
L 123.064866 131.303253 
L 122.169048 132.54472 
L 121.27323 130.313522 
L 120.377412 138.354349 
L 119.481594 136.47007 
L 118.585776 129.198982 
L 117.689957 140.660371 
L 116.794139 148.721806 
L 115.898321 143.711583 
L 115.002503 134.358976 
L 114.106685 148.856184 
L 113.210866 134.45527 
L 112.315048 136.155877 
L 111.41923 147.738332 
L 110.523412 140.883684 
L 109.627594 123.579785 
L 108.731776 142.381536 
L 107.835957 152.948427 
L 106.940139 142.454709 
L 106.044321 146.72434 
L 105.148503 140.874769 
L 104.252685 136.738425 
L 103.356866 139.862115 
L 102.461048 141.724334 
L 101.56523 146.76584 
L 100.669412 147.291561 
L 99.773594 145.524745 
L 98.877776 142.721203 
L 97.981957 144.049125 
L 97.086139 144.281383 
L 96.190321 141.485833 
L 95.294503 141.852809 
L 94.398685 128.193655 
L 93.502866 129.377968 
L 92.607048 146.045392 
L 91.71123 131.958708 
L 90.815412 151.645107 
L 89.919594 146.494805 
L 89.023776 154.634405 
L 88.127957 151.072226 
L 87.232139 132.39386 
L 86.336321 144.509717 
L 85.440503 136.020948 
L 84.544685 154.041207 
L 83.648866 154.411747 
L 82.753048 142.803464 
L 81.85723 138.957425 
L 80.961412 149.034514 
L 80.065594 140.513565 
L 79.169776 159.579487 
L 78.273957 163.079713 
L 77.378139 162.681959 
L 76.482321 159.523948 
L 75.586503 165.718913 
L 74.690685 153.719509 
L 73.794866 175.404329 
L 72.899048 177.189706 
L 72.00323 176.151449 
L 71.107412 175.512727 
L 70.211594 180.685395 
L 69.315776 184.596804 
L 68.419957 188.409607 
L 67.524139 190.765028 
L 66.628321 185.2305 
L 65.732503 188.274282 
L 64.836685 188.432478 
L 63.940866 186.235712 
L 63.045048 181.867054 
L 62.14923 177.448364 
L 61.253412 173.191657 
L 60.357594 189.719542 
L 59.461776 208.685338 
z
" style="fill:#4c72b0;fill-opacity:0.25;"/>
   </g>
   <g id="PolyCollection_2">
    <path clip-path="url(#p3f9ed97355)" d="M 59.461776 208.685338 
L 59.461776 209.304321 
L 60.357594 197.493931 
L 61.253412 192.314821 
L 62.14923 196.293503 
L 63.045048 198.978452 
L 63.940866 200.312078 
L 64.836685 198.392723 
L 65.732503 199.298465 
L 66.628321 200.004641 
L 67.524139 198.185119 
L 68.419957 199.43592 
L 69.315776 198.951602 
L 70.211594 198.113974 
L 71.107412 200.50446 
L 72.00323 204.971936 
L 72.899048 196.328895 
L 73.794866 205.906309 
L 74.690685 205.667966 
L 75.586503 201.307639 
L 76.482321 205.322785 
L 77.378139 205.439485 
L 78.273957 202.958121 
L 79.169776 200.916578 
L 80.065594 199.875839 
L 80.961412 196.468198 
L 81.85723 203.315203 
L 82.753048 195.624006 
L 83.648866 196.554954 
L 84.544685 191.471587 
L 85.440503 197.55954 
L 86.336321 189.953714 
L 87.232139 189.157453 
L 88.127957 193.520585 
L 89.023776 193.263917 
L 89.919594 192.785656 
L 90.815412 186.464043 
L 91.71123 190.420502 
L 92.607048 188.091031 
L 93.502866 191.287415 
L 94.398685 191.952096 
L 95.294503 186.78691 
L 96.190321 193.163981 
L 97.086139 191.141032 
L 97.981957 193.768788 
L 98.877776 188.786068 
L 99.773594 186.683151 
L 100.669412 187.492571 
L 101.56523 186.767639 
L 102.461048 186.803794 
L 103.356866 188.526889 
L 104.252685 180.136373 
L 105.148503 186.233052 
L 106.044321 187.773209 
L 106.940139 184.830887 
L 107.835957 184.018594 
L 108.731776 186.885975 
L 109.627594 183.629806 
L 110.523412 185.703528 
L 111.41923 186.333357 
L 112.315048 187.992407 
L 113.210866 183.248694 
L 114.106685 186.342086 
L 115.002503 182.868168 
L 115.898321 179.576323 
L 116.794139 179.558824 
L 117.689957 182.714634 
L 118.585776 185.192291 
L 119.481594 185.289521 
L 120.377412 180.549609 
L 121.27323 187.137216 
L 122.169048 183.321764 
L 123.064866 182.755271 
L 123.960685 180.552453 
L 124.856503 178.843975 
L 125.752321 174.354459 
L 126.648139 181.614458 
L 127.543957 179.978004 
L 128.439776 175.186314 
L 129.335594 176.878713 
L 130.231412 184.219365 
L 131.12723 180.320875 
L 132.023048 182.623806 
L 132.918866 180.726724 
L 133.814685 182.052938 
L 134.710503 177.323494 
L 135.606321 179.354418 
L 136.502139 180.188916 
L 137.397957 181.090395 
L 138.293776 182.63303 
L 139.189594 170.460843 
L 140.085412 173.807232 
L 140.98123 181.258006 
L 141.877048 170.199476 
L 142.772866 178.642553 
L 143.668685 177.53789 
L 144.564503 174.118567 
L 145.460321 166.562992 
L 146.356139 165.758513 
L 147.251957 168.173661 
L 148.147776 164.504902 
L 149.043594 167.700389 
L 149.939412 166.611899 
L 150.83523 166.919617 
L 151.731048 165.893826 
L 152.626866 162.162232 
L 153.522685 162.972816 
L 154.418503 165.304165 
L 155.314321 165.143959 
L 156.210139 167.447891 
L 157.105957 162.627708 
L 158.001776 162.072788 
L 158.897594 163.060058 
L 159.793412 162.874413 
L 160.68923 165.866196 
L 161.585048 168.242517 
L 162.480866 164.825689 
L 163.376685 166.263982 
L 164.272503 172.250228 
L 165.168321 174.376531 
L 166.064139 169.736285 
L 166.959957 162.064822 
L 167.855776 168.497979 
L 168.751594 173.629929 
L 169.647412 168.988816 
L 170.54323 169.630314 
L 171.439048 178.812244 
L 172.334866 180.440042 
L 173.230685 170.615453 
L 174.126503 176.953264 
L 175.022321 173.038261 
L 175.918139 168.613839 
L 176.813957 164.777473 
L 177.709776 167.490262 
L 178.605594 160.767315 
L 179.501412 164.063792 
L 180.39723 175.287923 
L 181.293048 164.977486 
L 182.188866 164.828949 
L 183.084685 175.433019 
L 183.980503 176.609619 
L 184.876321 166.397371 
L 185.772139 171.709656 
L 186.667957 171.827689 
L 187.563776 174.90923 
L 188.459594 178.662918 
L 189.355412 174.99878 
L 190.25123 174.017873 
L 191.147048 171.548991 
L 192.042866 157.887265 
L 192.938685 172.257502 
L 193.834503 171.335232 
L 194.730321 173.798171 
L 195.626139 168.414671 
L 196.521957 171.596675 
L 197.417776 171.965836 
L 198.313594 168.426641 
L 199.209412 171.937724 
L 200.10523 173.493317 
L 201.001048 175.001666 
L 201.896866 172.16246 
L 202.792685 174.588984 
L 203.688503 172.053272 
L 204.584321 177.701603 
L 205.480139 165.103954 
L 206.375957 173.330427 
L 207.271776 178.120226 
L 208.167594 170.989785 
L 209.063412 170.897978 
L 209.95923 169.650384 
L 210.855048 175.889906 
L 211.750866 165.797139 
L 212.646685 172.027238 
L 213.542503 169.297369 
L 214.438321 169.508629 
L 215.334139 176.187811 
L 216.229957 172.104435 
L 217.125776 173.388463 
L 218.021594 174.085804 
L 218.917412 162.17669 
L 219.81323 166.904549 
L 220.709048 167.570896 
L 221.604866 172.025005 
L 222.500685 169.570444 
L 223.396503 168.592588 
L 224.292321 160.069848 
L 225.188139 168.391704 
L 226.083957 164.604478 
L 226.979776 169.134763 
L 227.875594 170.189849 
L 228.771412 171.27576 
L 229.66723 169.089401 
L 230.563048 171.844353 
L 231.458866 162.893016 
L 232.354685 177.348854 
L 233.250503 165.335238 
L 234.146321 165.497823 
L 235.042139 171.717007 
L 235.937957 161.44379 
L 236.833776 171.635923 
L 237.729594 167.96692 
L 238.625412 159.411284 
L 238.625412 70.701675 
L 238.625412 70.701675 
L 237.729594 62.027123 
L 236.833776 74.484377 
L 235.937957 63.872887 
L 235.042139 71.241698 
L 234.146321 58.688171 
L 233.250503 75.226925 
L 232.354685 70.437263 
L 231.458866 66.889796 
L 230.563048 72.966806 
L 229.66723 70.197613 
L 228.771412 64.197333 
L 227.875594 72.395627 
L 226.979776 78.571657 
L 226.083957 66.794794 
L 225.188139 81.099592 
L 224.292321 63.637674 
L 223.396503 81.355964 
L 222.500685 71.403186 
L 221.604866 69.162758 
L 220.709048 61.962491 
L 219.81323 67.637855 
L 218.917412 73.443425 
L 218.021594 66.289575 
L 217.125776 72.360517 
L 216.229957 71.026235 
L 215.334139 71.787634 
L 214.438321 73.091853 
L 213.542503 74.723516 
L 212.646685 85.505557 
L 211.750866 71.173003 
L 210.855048 76.386807 
L 209.95923 75.445448 
L 209.063412 72.023443 
L 208.167594 76.016907 
L 207.271776 88.975657 
L 206.375957 86.930533 
L 205.480139 84.930728 
L 204.584321 79.901727 
L 203.688503 73.269467 
L 202.792685 83.447508 
L 201.896866 76.022981 
L 201.001048 90.941376 
L 200.10523 82.525974 
L 199.209412 89.931835 
L 198.313594 80.103591 
L 197.417776 82.550895 
L 196.521957 82.924247 
L 195.626139 95.072804 
L 194.730321 90.250353 
L 193.834503 114.193603 
L 192.938685 86.32778 
L 192.042866 102.168507 
L 191.147048 89.586784 
L 190.25123 95.079703 
L 189.355412 92.948098 
L 188.459594 115.814138 
L 187.563776 99.027718 
L 186.667957 107.266465 
L 185.772139 96.583707 
L 184.876321 122.657032 
L 183.980503 100.627071 
L 183.084685 98.174975 
L 182.188866 116.725868 
L 181.293048 114.965008 
L 180.39723 104.156513 
L 179.501412 122.505649 
L 178.605594 106.028548 
L 177.709776 127.573125 
L 176.813957 113.362623 
L 175.918139 109.428953 
L 175.022321 117.055095 
L 174.126503 115.342758 
L 173.230685 113.173797 
L 172.334866 112.864993 
L 171.439048 117.191944 
L 170.54323 104.83706 
L 169.647412 116.997909 
L 168.751594 120.6582 
L 167.855776 121.969928 
L 166.959957 134.752951 
L 166.064139 127.646316 
L 165.168321 126.718778 
L 164.272503 125.072623 
L 163.376685 128.46245 
L 162.480866 133.854518 
L 161.585048 119.639191 
L 160.68923 137.877 
L 159.793412 133.190108 
L 158.897594 131.569258 
L 158.001776 137.450946 
L 157.105957 128.604154 
L 156.210139 133.145397 
L 155.314321 138.840411 
L 154.418503 140.571578 
L 153.522685 142.303724 
L 152.626866 139.940535 
L 151.731048 126.584152 
L 150.83523 148.338514 
L 149.939412 149.945298 
L 149.043594 138.280032 
L 148.147776 143.822725 
L 147.251957 136.918907 
L 146.356139 134.788892 
L 145.460321 147.034509 
L 144.564503 140.976683 
L 143.668685 144.196622 
L 142.772866 144.392621 
L 141.877048 146.065718 
L 140.98123 142.464868 
L 140.085412 146.539663 
L 139.189594 145.334119 
L 138.293776 147.704678 
L 137.397957 146.397306 
L 136.502139 149.907217 
L 135.606321 145.570236 
L 134.710503 147.342886 
L 133.814685 146.74288 
L 132.918866 147.035334 
L 132.023048 154.340032 
L 131.12723 152.670988 
L 130.231412 147.993155 
L 129.335594 150.638532 
L 128.439776 147.129294 
L 127.543957 153.731883 
L 126.648139 146.300746 
L 125.752321 141.792149 
L 124.856503 149.463948 
L 123.960685 152.985291 
L 123.064866 148.505536 
L 122.169048 152.041274 
L 121.27323 151.365506 
L 120.377412 139.766647 
L 119.481594 152.955097 
L 118.585776 150.128894 
L 117.689957 151.209075 
L 116.794139 147.790235 
L 115.898321 153.858644 
L 115.002503 153.45111 
L 114.106685 152.782035 
L 113.210866 154.54677 
L 112.315048 146.733889 
L 111.41923 158.386779 
L 110.523412 159.816069 
L 109.627594 153.069878 
L 108.731776 154.621561 
L 107.835957 150.85641 
L 106.940139 156.443697 
L 106.044321 154.510836 
L 105.148503 153.780397 
L 104.252685 157.837958 
L 103.356866 158.221074 
L 102.461048 157.113455 
L 101.56523 168.355195 
L 100.669412 158.615673 
L 99.773594 161.437265 
L 98.877776 157.186865 
L 97.981957 155.5358 
L 97.086139 155.925825 
L 96.190321 162.785897 
L 95.294503 156.137681 
L 94.398685 170.393125 
L 93.502866 169.290766 
L 92.607048 154.927889 
L 91.71123 167.000137 
L 90.815412 159.701073 
L 89.919594 169.085868 
L 89.023776 173.775059 
L 88.127957 173.065075 
L 87.232139 170.94302 
L 86.336321 178.055966 
L 85.440503 173.517438 
L 84.544685 161.02373 
L 83.648866 170.95454 
L 82.753048 173.491191 
L 81.85723 158.923458 
L 80.961412 166.44586 
L 80.065594 155.177222 
L 79.169776 164.274672 
L 78.273957 165.245194 
L 77.378139 167.383304 
L 76.482321 159.824965 
L 75.586503 172.783677 
L 74.690685 171.647496 
L 73.794866 160.432773 
L 72.899048 185.509035 
L 72.00323 175.938587 
L 71.107412 181.715694 
L 70.211594 183.439182 
L 69.315776 188.524948 
L 68.419957 189.796393 
L 67.524139 187.608521 
L 66.628321 186.08207 
L 65.732503 187.694547 
L 64.836685 185.636474 
L 63.940866 186.235712 
L 63.045048 181.867054 
L 62.14923 177.448364 
L 61.253412 173.191657 
L 60.357594 189.719542 
L 59.461776 208.685338 
z
" style="fill:#55a868;fill-opacity:0.25;"/>
   </g>
   <g id="line2d_27">
    <path clip-path="url(#p3f9ed97355)" d="M 59.461776 208.99483 
L 60.357594 193.606737 
L 61.253412 182.753239 
L 62.14923 186.870934 
L 63.045048 190.422753 
L 63.940866 193.273895 
L 64.836685 194.04155 
L 65.732503 194.49619 
L 66.628321 192.805562 
L 67.524139 195.266551 
L 68.419957 194.77346 
L 69.315776 193.719084 
L 70.211594 190.902996 
L 71.107412 190.287341 
L 72.00323 190.143629 
L 72.899048 189.620449 
L 73.794866 187.703387 
L 74.690685 178.907456 
L 75.586503 184.869208 
L 76.482321 181.127423 
L 77.378139 181.4729 
L 78.273957 182.404302 
L 79.169776 179.392104 
L 80.065594 173.584275 
L 80.961412 174.561147 
L 81.85723 169.431385 
L 82.753048 173.237555 
L 83.648866 175.587602 
L 84.544685 179.875962 
L 85.440503 164.875544 
L 86.336321 172.254415 
L 87.232139 168.015431 
L 88.127957 173.810094 
L 89.023776 174.654309 
L 89.919594 170.024231 
L 90.815412 174.193158 
L 91.71123 160.673625 
L 92.607048 170.631736 
L 93.502866 162.20735 
L 94.398685 160.909803 
L 95.294503 164.82997 
L 96.190321 164.916402 
L 97.086139 165.392193 
L 97.981957 165.689437 
L 98.877776 167.552191 
L 99.773594 166.624558 
L 100.669412 168.418199 
L 101.56523 167.573505 
L 102.461048 165.758825 
L 103.356866 159.623412 
L 104.252685 163.584077 
L 105.148503 158.040938 
L 106.044321 164.581459 
L 106.940139 159.609104 
L 107.835957 167.369589 
L 108.731776 164.014899 
L 109.627594 156.098498 
L 110.523412 159.360229 
L 111.41923 166.152862 
L 112.315048 156.616126 
L 113.210866 158.590266 
L 114.106685 164.308115 
L 115.002503 159.096151 
L 115.898321 161.716106 
L 116.794139 163.126161 
L 117.689957 160.014967 
L 118.585776 156.071292 
L 119.481594 159.675607 
L 120.377412 160.866699 
L 121.27323 152.968358 
L 122.169048 155.629531 
L 123.064866 151.640533 
L 123.960685 156.697945 
L 124.856503 157.633075 
L 125.752321 156.713722 
L 126.648139 159.093128 
L 127.543957 156.831843 
L 128.439776 150.952339 
L 129.335594 148.110717 
L 130.231412 149.61396 
L 131.12723 152.580921 
L 132.023048 149.338845 
L 132.918866 153.33681 
L 133.814685 154.894809 
L 134.710503 148.186781 
L 135.606321 151.214381 
L 136.502139 150.005966 
L 137.397957 143.258368 
L 138.293776 155.318581 
L 139.189594 153.654822 
L 140.085412 155.239572 
L 140.98123 154.402795 
L 141.877048 152.847699 
L 142.772866 148.863858 
L 143.668685 150.979378 
L 144.564503 142.810358 
L 145.460321 145.543049 
L 146.356139 155.69316 
L 147.251957 150.076866 
L 148.147776 151.371665 
L 149.043594 146.407234 
L 149.939412 149.948781 
L 150.83523 145.936701 
L 151.731048 150.541369 
L 152.626866 150.574158 
L 153.522685 148.759355 
L 154.418503 142.318955 
L 155.314321 144.856871 
L 156.210139 148.589218 
L 157.105957 146.287658 
L 158.001776 146.286489 
L 158.897594 144.588085 
L 159.793412 152.781547 
L 160.68923 143.435073 
L 161.585048 136.182466 
L 162.480866 140.74795 
L 163.376685 147.445806 
L 164.272503 144.381021 
L 165.168321 150.113053 
L 166.064139 142.769986 
L 166.959957 146.514098 
L 167.855776 137.45389 
L 168.751594 148.512973 
L 169.647412 144.657668 
L 170.54323 139.811695 
L 171.439048 139.537368 
L 172.334866 147.985566 
L 173.230685 146.625832 
L 174.126503 147.89449 
L 175.022321 150.030335 
L 175.918139 146.856274 
L 176.813957 145.694287 
L 177.709776 141.041215 
L 178.605594 144.228359 
L 179.501412 134.754416 
L 180.39723 145.802564 
L 181.293048 142.855994 
L 182.188866 149.451092 
L 183.084685 146.275875 
L 183.980503 146.372689 
L 184.876321 144.668647 
L 185.772139 140.302901 
L 186.667957 146.119676 
L 187.563776 143.385562 
L 188.459594 144.67364 
L 189.355412 141.289894 
L 190.25123 143.176908 
L 191.147048 141.620015 
L 192.042866 145.566431 
L 192.938685 138.090851 
L 193.834503 140.708017 
L 194.730321 139.748961 
L 195.626139 142.943096 
L 196.521957 142.366236 
L 197.417776 141.985532 
L 198.313594 141.178487 
L 199.209412 145.255147 
L 200.10523 137.932688 
L 201.001048 131.879596 
L 201.896866 143.196369 
L 202.792685 138.11077 
L 203.688503 147.187043 
L 204.584321 138.04223 
L 206.375957 141.922838 
L 207.271776 138.81963 
L 208.167594 142.798941 
L 209.063412 136.455019 
L 209.95923 143.46016 
L 210.855048 139.71535 
L 211.750866 139.524298 
L 212.646685 145.033856 
L 213.542503 138.283043 
L 214.438321 135.046308 
L 215.334139 139.361465 
L 216.229957 139.095438 
L 217.125776 144.261511 
L 218.917412 140.591788 
L 219.81323 136.262457 
L 220.709048 139.455858 
L 221.604866 141.43038 
L 222.500685 133.894873 
L 223.396503 138.573382 
L 224.292321 133.926519 
L 225.188139 149.758105 
L 226.083957 143.252658 
L 226.979776 138.577359 
L 227.875594 142.497293 
L 228.771412 151.213462 
L 229.66723 145.10555 
L 230.563048 136.589676 
L 231.458866 141.525679 
L 232.354685 148.93982 
L 233.250503 138.118205 
L 234.146321 140.923303 
L 235.042139 138.213271 
L 235.937957 143.749241 
L 236.833776 143.707259 
L 237.729594 142.863625 
L 238.625412 140.405526 
L 238.625412 140.405526 
" style="fill:none;stroke:#4c72b0;stroke-linecap:round;stroke-width:1.75;"/>
   </g>
   <g id="line2d_28">
    <path clip-path="url(#p3f9ed97355)" d="M 59.461776 208.99483 
L 60.357594 193.606737 
L 61.253412 182.753239 
L 62.14923 186.870934 
L 63.045048 190.422753 
L 63.940866 193.273895 
L 64.836685 192.014598 
L 65.732503 193.496506 
L 66.628321 193.043356 
L 67.524139 192.89682 
L 68.419957 194.616156 
L 69.315776 193.738275 
L 70.211594 190.776578 
L 71.107412 191.110077 
L 72.00323 190.455262 
L 72.899048 190.918965 
L 73.794866 183.169541 
L 74.690685 188.657731 
L 75.586503 187.045658 
L 76.482321 182.573875 
L 77.378139 186.411394 
L 78.273957 184.101658 
L 79.169776 182.595625 
L 80.065594 177.526531 
L 80.961412 181.457029 
L 81.85723 181.11933 
L 82.753048 184.557598 
L 83.648866 183.754747 
L 84.544685 176.247659 
L 85.440503 185.538489 
L 86.336321 184.00484 
L 87.232139 180.050236 
L 88.127957 183.29283 
L 89.023776 183.519488 
L 89.919594 180.935762 
L 90.815412 173.082558 
L 91.71123 178.710319 
L 92.607048 171.50946 
L 93.502866 180.28909 
L 94.398685 181.17261 
L 95.294503 171.462296 
L 96.190321 177.974939 
L 97.086139 173.533429 
L 97.981957 174.652294 
L 98.877776 172.986467 
L 99.773594 174.060208 
L 100.669412 173.054122 
L 101.56523 177.561417 
L 102.461048 171.958625 
L 103.356866 173.373982 
L 104.252685 168.987166 
L 106.044321 171.142023 
L 106.940139 170.637292 
L 107.835957 167.437502 
L 108.731776 170.753768 
L 109.627594 168.349842 
L 110.523412 172.759799 
L 111.41923 172.360068 
L 112.315048 167.363148 
L 113.210866 168.897732 
L 114.106685 169.562061 
L 115.898321 166.717484 
L 116.794139 163.674529 
L 117.689957 166.961854 
L 118.585776 167.660593 
L 119.481594 169.122309 
L 120.377412 160.158128 
L 121.27323 169.251361 
L 122.169048 167.681519 
L 123.064866 165.630403 
L 123.960685 166.768872 
L 124.856503 164.153962 
L 125.752321 158.073304 
L 126.648139 163.957602 
L 127.543957 166.854944 
L 128.439776 161.157804 
L 130.231412 166.10626 
L 131.12723 166.495931 
L 132.023048 168.481919 
L 132.918866 163.881029 
L 133.814685 164.397909 
L 134.710503 162.33319 
L 135.606321 162.462327 
L 136.502139 165.048066 
L 137.397957 163.74385 
L 138.293776 165.168854 
L 139.189594 157.897481 
L 140.085412 160.173447 
L 140.98123 161.861437 
L 141.877048 158.132597 
L 142.772866 161.517587 
L 143.668685 160.867256 
L 144.564503 157.547625 
L 145.460321 156.798751 
L 146.356139 150.273702 
L 147.251957 152.546284 
L 148.147776 154.163814 
L 149.043594 152.990211 
L 149.939412 158.278599 
L 150.83523 157.629065 
L 151.731048 146.238989 
L 152.626866 151.051384 
L 153.522685 152.63827 
L 154.418503 152.937872 
L 155.314321 151.992185 
L 156.210139 150.296644 
L 157.105957 145.615931 
L 158.001776 149.761867 
L 158.897594 147.314658 
L 159.793412 148.03226 
L 160.68923 151.871598 
L 161.585048 143.940854 
L 162.480866 149.340103 
L 163.376685 147.363216 
L 164.272503 148.661426 
L 165.168321 150.547654 
L 166.064139 148.691301 
L 166.959957 148.408887 
L 167.855776 145.233954 
L 168.751594 147.144064 
L 169.647412 142.993363 
L 170.54323 137.233687 
L 171.439048 148.002094 
L 172.334866 146.652518 
L 173.230685 141.894625 
L 174.126503 146.148011 
L 175.022321 145.046678 
L 175.918139 139.021396 
L 176.813957 139.070048 
L 177.709776 147.531694 
L 178.605594 133.397931 
L 179.501412 143.284721 
L 180.39723 139.722218 
L 181.293048 139.971247 
L 182.188866 140.777408 
L 183.084685 136.803997 
L 183.980503 138.618345 
L 184.876321 144.527202 
L 185.772139 134.146681 
L 186.667957 139.547077 
L 187.563776 136.968474 
L 188.459594 147.238528 
L 189.355412 133.973439 
L 190.25123 134.548788 
L 191.147048 130.567887 
L 192.042866 130.027886 
L 192.938685 129.292641 
L 193.834503 142.764417 
L 194.730321 132.024262 
L 195.626139 131.743737 
L 196.521957 127.260461 
L 197.417776 127.258366 
L 198.313594 124.265116 
L 199.209412 130.93478 
L 200.10523 128.009645 
L 201.001048 132.971521 
L 201.896866 124.092721 
L 202.792685 129.018246 
L 203.688503 122.66137 
L 204.584321 128.801665 
L 205.480139 125.017341 
L 206.375957 130.13048 
L 207.271776 133.547941 
L 208.167594 123.503346 
L 209.063412 121.46071 
L 209.95923 122.547916 
L 210.855048 126.138356 
L 211.750866 118.485071 
L 212.646685 128.766397 
L 213.542503 122.010442 
L 214.438321 121.300241 
L 215.334139 123.987723 
L 216.229957 121.565335 
L 217.125776 122.87449 
L 218.917412 117.810058 
L 219.81323 117.271202 
L 220.709048 114.766694 
L 221.604866 120.593882 
L 222.500685 120.486815 
L 223.396503 124.974276 
L 224.292321 111.853761 
L 225.188139 124.745648 
L 226.083957 115.699636 
L 226.979776 123.85321 
L 227.875594 121.292738 
L 228.771412 117.736546 
L 229.66723 119.643507 
L 230.563048 122.405579 
L 231.458866 114.891406 
L 232.354685 123.893058 
L 233.250503 120.281081 
L 234.146321 112.092997 
L 235.042139 121.479352 
L 235.937957 112.658339 
L 236.833776 123.06015 
L 237.729594 114.997022 
L 238.625412 115.056479 
L 238.625412 115.056479 
" style="fill:none;stroke:#55a868;stroke-linecap:round;stroke-width:1.75;"/>
   </g>
   <g id="line2d_29">
    <path clip-path="url(#p3f9ed97355)" d="M 59.461776 30.70392 
L 238.625412 30.70392 
" style="fill:none;stroke:#c44e52;stroke-linecap:round;stroke-width:1.75;"/>
   </g>
   <g id="patch_3">
    <path d="M 50.503594 217.909375 
L 50.503594 21.789375 
" style="fill:none;"/>
   </g>
   <g id="patch_4">
    <path d="M 247.583594 217.909375 
L 247.583594 21.789375 
" style="fill:none;"/>
   </g>
   <g id="patch_5">
    <path d="M 50.503594 217.909375 
L 247.583594 217.909375 
" style="fill:none;"/>
   </g>
   <g id="patch_6">
    <path d="M 50.503594 21.789375 
L 247.583594 21.789375 
" style="fill:none;"/>
   </g>
   <g id="text_16">
    <!-- Hopper -->
    <defs>
     <path d="M 8.015625 0 
L 8.015625 71.578125 
L 17.484375 71.578125 
L 17.484375 42.1875 
L 54.6875 42.1875 
L 54.6875 71.578125 
L 64.15625 71.578125 
L 64.15625 0 
L 54.6875 0 
L 54.6875 33.734375 
L 17.484375 33.734375 
L 17.484375 0 
z
" id="ArialMT-72"/>
    </defs>
    <g style="fill:#262626;" transform="translate(129.366406 15.789375)scale(0.12 -0.12)">
     <use xlink:href="#ArialMT-72"/>
     <use x="72.216797" xlink:href="#ArialMT-111"/>
     <use x="127.832031" xlink:href="#ArialMT-112"/>
     <use x="183.447266" xlink:href="#ArialMT-112"/>
     <use x="239.0625" xlink:href="#ArialMT-101"/>
     <use x="294.677734" xlink:href="#ArialMT-114"/>
    </g>
   </g>
   <g id="legend_1">
    <g id="line2d_30">
     <path d="M 176.678906 175.014063 
L 196.678906 175.014063 
" style="fill:none;stroke:#4c72b0;stroke-linecap:round;stroke-width:1.75;"/>
    </g>
    <g id="line2d_31"/>
    <g id="text_17">
     <!-- BC -->
     <defs>
      <path d="M 7.328125 0 
L 7.328125 71.578125 
L 34.1875 71.578125 
Q 42.390625 71.578125 47.34375 69.40625 
Q 52.296875 67.234375 55.09375 62.71875 
Q 57.90625 58.203125 57.90625 53.265625 
Q 57.90625 48.6875 55.421875 44.625 
Q 52.9375 40.578125 47.90625 38.09375 
Q 54.390625 36.1875 57.875 31.59375 
Q 61.375 27 61.375 20.75 
Q 61.375 15.71875 59.25 11.390625 
Q 57.125 7.078125 54 4.734375 
Q 50.875 2.390625 46.15625 1.1875 
Q 41.453125 0 34.625 0 
z
M 16.796875 41.5 
L 32.28125 41.5 
Q 38.578125 41.5 41.3125 42.328125 
Q 44.921875 43.40625 46.75 45.890625 
Q 48.578125 48.390625 48.578125 52.15625 
Q 48.578125 55.71875 46.875 58.421875 
Q 45.171875 61.140625 41.984375 62.140625 
Q 38.8125 63.140625 31.109375 63.140625 
L 16.796875 63.140625 
z
M 16.796875 8.453125 
L 34.625 8.453125 
Q 39.203125 8.453125 41.0625 8.796875 
Q 44.34375 9.375 46.53125 10.734375 
Q 48.734375 12.109375 50.140625 14.71875 
Q 51.5625 17.328125 51.5625 20.75 
Q 51.5625 24.75 49.515625 27.703125 
Q 47.46875 30.671875 43.828125 31.859375 
Q 40.1875 33.0625 33.34375 33.0625 
L 16.796875 33.0625 
z
" id="ArialMT-66"/>
      <path d="M 58.796875 25.09375 
L 68.265625 22.703125 
Q 65.28125 11.03125 57.546875 4.90625 
Q 49.8125 -1.21875 38.625 -1.21875 
Q 27.046875 -1.21875 19.796875 3.484375 
Q 12.546875 8.203125 8.765625 17.140625 
Q 4.984375 26.078125 4.984375 36.328125 
Q 4.984375 47.515625 9.25 55.828125 
Q 13.53125 64.15625 21.40625 68.46875 
Q 29.296875 72.796875 38.765625 72.796875 
Q 49.515625 72.796875 56.828125 67.328125 
Q 64.15625 61.859375 67.046875 51.953125 
L 57.71875 49.75 
Q 55.21875 57.5625 50.484375 61.125 
Q 45.75 64.703125 38.578125 64.703125 
Q 30.328125 64.703125 24.78125 60.734375 
Q 19.234375 56.78125 16.984375 50.109375 
Q 14.75 43.453125 14.75 36.375 
Q 14.75 27.25 17.40625 20.4375 
Q 20.0625 13.625 25.671875 10.25 
Q 31.296875 6.890625 37.84375 6.890625 
Q 45.796875 6.890625 51.3125 11.46875 
Q 56.84375 16.0625 58.796875 25.09375 
z
" id="ArialMT-67"/>
     </defs>
     <g style="fill:#262626;" transform="translate(204.678906 178.514063)scale(0.1 -0.1)">
      <use xlink:href="#ArialMT-66"/>
      <use x="66.699219" xlink:href="#ArialMT-67"/>
     </g>
    </g>
    <g id="line2d_32">
     <path d="M 176.678906 189.159375 
L 196.678906 189.159375 
" style="fill:none;stroke:#55a868;stroke-linecap:round;stroke-width:1.75;"/>
    </g>
    <g id="line2d_33"/>
    <g id="text_18">
     <!-- DAgger -->
     <defs>
      <path d="M 7.71875 0 
L 7.71875 71.578125 
L 32.375 71.578125 
Q 40.71875 71.578125 45.125 70.5625 
Q 51.265625 69.140625 55.609375 65.4375 
Q 61.28125 60.640625 64.078125 53.1875 
Q 66.890625 45.75 66.890625 36.1875 
Q 66.890625 28.03125 64.984375 21.734375 
Q 63.09375 15.4375 60.109375 11.296875 
Q 57.125 7.171875 53.578125 4.796875 
Q 50.046875 2.4375 45.046875 1.21875 
Q 40.046875 0 33.546875 0 
z
M 17.1875 8.453125 
L 32.46875 8.453125 
Q 39.546875 8.453125 43.578125 9.765625 
Q 47.609375 11.078125 50 13.484375 
Q 53.375 16.84375 55.25 22.53125 
Q 57.125 28.21875 57.125 36.328125 
Q 57.125 47.5625 53.4375 53.59375 
Q 49.75 59.625 44.484375 61.671875 
Q 40.671875 63.140625 32.234375 63.140625 
L 17.1875 63.140625 
z
" id="ArialMT-68"/>
      <path d="M -0.140625 0 
L 27.34375 71.578125 
L 37.546875 71.578125 
L 66.84375 0 
L 56.0625 0 
L 47.703125 21.6875 
L 17.78125 21.6875 
L 9.90625 0 
z
M 20.515625 29.390625 
L 44.78125 29.390625 
L 37.3125 49.21875 
Q 33.890625 58.25 32.234375 64.0625 
Q 30.859375 57.171875 28.375 50.390625 
z
" id="ArialMT-65"/>
      <path d="M 4.984375 -4.296875 
L 13.53125 -5.5625 
Q 14.0625 -9.515625 16.5 -11.328125 
Q 19.78125 -13.765625 25.4375 -13.765625 
Q 31.546875 -13.765625 34.859375 -11.328125 
Q 38.1875 -8.890625 39.359375 -4.5 
Q 40.046875 -1.8125 39.984375 6.78125 
Q 34.234375 0 25.640625 0 
Q 14.9375 0 9.078125 7.71875 
Q 3.21875 15.4375 3.21875 26.21875 
Q 3.21875 33.640625 5.90625 39.90625 
Q 8.59375 46.1875 13.6875 49.609375 
Q 18.796875 53.03125 25.6875 53.03125 
Q 34.859375 53.03125 40.828125 45.609375 
L 40.828125 51.859375 
L 48.921875 51.859375 
L 48.921875 7.03125 
Q 48.921875 -5.078125 46.453125 -10.125 
Q 44 -15.1875 38.640625 -18.109375 
Q 33.296875 -21.046875 25.484375 -21.046875 
Q 16.21875 -21.046875 10.5 -16.875 
Q 4.78125 -12.703125 4.984375 -4.296875 
z
M 12.25 26.859375 
Q 12.25 16.65625 16.296875 11.96875 
Q 20.359375 7.28125 26.46875 7.28125 
Q 32.515625 7.28125 36.609375 11.9375 
Q 40.71875 16.609375 40.71875 26.5625 
Q 40.71875 36.078125 36.5 40.90625 
Q 32.28125 45.75 26.3125 45.75 
Q 20.453125 45.75 16.34375 40.984375 
Q 12.25 36.234375 12.25 26.859375 
z
" id="ArialMT-103"/>
     </defs>
     <g style="fill:#262626;" transform="translate(204.678906 192.659375)scale(0.1 -0.1)">
      <use xlink:href="#ArialMT-68"/>
      <use x="72.216797" xlink:href="#ArialMT-65"/>
      <use x="138.916016" xlink:href="#ArialMT-103"/>
      <use x="194.53125" xlink:href="#ArialMT-103"/>
      <use x="250.146484" xlink:href="#ArialMT-101"/>
      <use x="305.761719" xlink:href="#ArialMT-114"/>
     </g>
    </g>
    <g id="line2d_34">
     <path d="M 176.678906 203.421875 
L 196.678906 203.421875 
" style="fill:none;stroke:#c44e52;stroke-linecap:round;stroke-width:1.75;"/>
    </g>
    <g id="line2d_35"/>
    <g id="text_19">
     <!-- Expert -->
     <defs>
      <path d="M 0.734375 0 
L 19.671875 26.953125 
L 2.15625 51.859375 
L 13.140625 51.859375 
L 21.09375 39.703125 
Q 23.34375 36.234375 24.703125 33.890625 
Q 26.859375 37.109375 28.65625 39.59375 
L 37.40625 51.859375 
L 47.90625 51.859375 
L 29.984375 27.4375 
L 49.265625 0 
L 38.484375 0 
L 27.828125 16.109375 
L 25 20.453125 
L 11.375 0 
z
" id="ArialMT-120"/>
      <path d="M 25.78125 7.859375 
L 27.046875 0.09375 
Q 23.34375 -0.6875 20.40625 -0.6875 
Q 15.625 -0.6875 12.984375 0.828125 
Q 10.359375 2.34375 9.28125 4.8125 
Q 8.203125 7.28125 8.203125 15.1875 
L 8.203125 45.015625 
L 1.765625 45.015625 
L 1.765625 51.859375 
L 8.203125 51.859375 
L 8.203125 64.703125 
L 16.9375 69.96875 
L 16.9375 51.859375 
L 25.78125 51.859375 
L 25.78125 45.015625 
L 16.9375 45.015625 
L 16.9375 14.703125 
Q 16.9375 10.9375 17.40625 9.859375 
Q 17.875 8.796875 18.921875 8.15625 
Q 19.96875 7.515625 21.921875 7.515625 
Q 23.390625 7.515625 25.78125 7.859375 
z
" id="ArialMT-116"/>
     </defs>
     <g style="fill:#262626;" transform="translate(204.678906 206.921875)scale(0.1 -0.1)">
      <use xlink:href="#ArialMT-69"/>
      <use x="66.699219" xlink:href="#ArialMT-120"/>
      <use x="116.699219" xlink:href="#ArialMT-112"/>
      <use x="172.314453" xlink:href="#ArialMT-101"/>
      <use x="227.929688" xlink:href="#ArialMT-114"/>
      <use x="261.230469" xlink:href="#ArialMT-116"/>
     </g>
    </g>
   </g>
  </g>
 </g>
 <defs>
  <clipPath id="p3f9ed97355">
   <rect height="196.12" width="197.08" x="50.503594" y="21.789375"/>
  </clipPath>
 </defs>
</svg>
