<?xml version="1.0" encoding="utf-8" standalone="no"?>
<!DOCTYPE svg PUBLIC "-//W3C//DTD SVG 1.1//EN"
  "http://www.w3.org/Graphics/SVG/1.1/DTD/svg11.dtd">
<!-- Created with matplotlib (https://matplotlib.org/) -->
<svg height="255.314531pt" version="1.1" viewBox="0 0 254.764531 255.314531" width="254.764531pt" xmlns="http://www.w3.org/2000/svg" xmlns:xlink="http://www.w3.org/1999/xlink">
 <defs>
  <style type="text/css">
*{stroke-linecap:butt;stroke-linejoin:round;}
  </style>
 </defs>
 <g id="figure_1">
  <g id="patch_1">
   <path d="M 0 255.314531 
L 254.764531 255.314531 
L 254.764531 0 
L 0 0 
z
" style="fill:#ffffff;"/>
  </g>
  <g id="axes_1">
   <g id="patch_2">
    <path d="M 56.064531 217.909375 
L 247.564531 217.909375 
L 247.564531 21.789375 
L 56.064531 21.789375 
z
" style="fill:#eaeaf2;"/>
   </g>
   <g id="matplotlib.axis_1">
    <g id="xtick_1">
     <g id="line2d_1">
      <path clip-path="url(#p07ca4a7c1a)" d="M 64.769077 217.909375 
L 64.769077 21.789375 
" style="fill:none;stroke:#ffffff;stroke-linecap:round;"/>
     </g>
     <g id="line2d_2"/>
     <g id="text_1">
      <!-- 0 -->
      <defs>
       <path d="M 4.15625 35.296875 
Q 4.15625 48 6.765625 55.734375 
Q 9.375 63.484375 14.515625 67.671875 
Q 19.671875 71.875 27.484375 71.875 
Q 33.25 71.875 37.59375 69.546875 
Q 41.9375 67.234375 44.765625 62.859375 
Q 47.609375 58.5 49.21875 52.21875 
Q 50.828125 45.953125 50.828125 35.296875 
Q 50.828125 22.703125 48.234375 14.96875 
Q 45.65625 7.234375 40.5 3 
Q 35.359375 -1.21875 27.484375 -1.21875 
Q 17.140625 -1.21875 11.234375 6.203125 
Q 4.15625 15.140625 4.15625 35.296875 
z
M 13.1875 35.296875 
Q 13.1875 17.671875 17.3125 11.828125 
Q 21.4375 6 27.484375 6 
Q 33.546875 6 37.671875 11.859375 
Q 41.796875 17.71875 41.796875 35.296875 
Q 41.796875 52.984375 37.671875 58.78125 
Q 33.546875 64.59375 27.390625 64.59375 
Q 21.34375 64.59375 17.71875 59.46875 
Q 13.1875 52.9375 13.1875 35.296875 
z
" id="ArialMT-48"/>
      </defs>
      <g style="fill:#262626;" transform="translate(61.988608 232.067188)scale(0.1 -0.1)">
       <use xlink:href="#ArialMT-48"/>
      </g>
     </g>
    </g>
    <g id="xtick_2">
     <g id="line2d_3">
      <path clip-path="url(#p07ca4a7c1a)" d="M 108.291804 217.909375 
L 108.291804 21.789375 
" style="fill:none;stroke:#ffffff;stroke-linecap:round;"/>
     </g>
     <g id="line2d_4"/>
     <g id="text_2">
      <!-- 50 -->
      <defs>
       <path d="M 4.15625 18.75 
L 13.375 19.53125 
Q 14.40625 12.796875 18.140625 9.390625 
Q 21.875 6 27.15625 6 
Q 33.5 6 37.890625 10.78125 
Q 42.28125 15.578125 42.28125 23.484375 
Q 42.28125 31 38.0625 35.34375 
Q 33.84375 39.703125 27 39.703125 
Q 22.75 39.703125 19.328125 37.765625 
Q 15.921875 35.84375 13.96875 32.765625 
L 5.71875 33.84375 
L 12.640625 70.609375 
L 48.25 70.609375 
L 48.25 62.203125 
L 19.671875 62.203125 
L 15.828125 42.96875 
Q 22.265625 47.46875 29.34375 47.46875 
Q 38.71875 47.46875 45.15625 40.96875 
Q 51.609375 34.46875 51.609375 24.265625 
Q 51.609375 14.546875 45.953125 7.46875 
Q 39.0625 -1.21875 27.15625 -1.21875 
Q 17.390625 -1.21875 11.203125 4.25 
Q 5.03125 9.71875 4.15625 18.75 
z
" id="ArialMT-53"/>
      </defs>
      <g style="fill:#262626;" transform="translate(102.730866 232.067188)scale(0.1 -0.1)">
       <use xlink:href="#ArialMT-53"/>
       <use x="55.615234" xlink:href="#ArialMT-48"/>
      </g>
     </g>
    </g>
    <g id="xtick_3">
     <g id="line2d_5">
      <path clip-path="url(#p07ca4a7c1a)" d="M 151.814531 217.909375 
L 151.814531 21.789375 
" style="fill:none;stroke:#ffffff;stroke-linecap:round;"/>
     </g>
     <g id="line2d_6"/>
     <g id="text_3">
      <!-- 100 -->
      <defs>
       <path d="M 37.25 0 
L 28.46875 0 
L 28.46875 56 
Q 25.296875 52.984375 20.140625 49.953125 
Q 14.984375 46.921875 10.890625 45.40625 
L 10.890625 53.90625 
Q 18.265625 57.375 23.78125 62.296875 
Q 29.296875 67.234375 31.59375 71.875 
L 37.25 71.875 
z
" id="ArialMT-49"/>
      </defs>
      <g style="fill:#262626;" transform="translate(143.473125 232.067188)scale(0.1 -0.1)">
       <use xlink:href="#ArialMT-49"/>
       <use x="55.615234" xlink:href="#ArialMT-48"/>
       <use x="111.230469" xlink:href="#ArialMT-48"/>
      </g>
     </g>
    </g>
    <g id="xtick_4">
     <g id="line2d_7">
      <path clip-path="url(#p07ca4a7c1a)" d="M 195.337259 217.909375 
L 195.337259 21.789375 
" style="fill:none;stroke:#ffffff;stroke-linecap:round;"/>
     </g>
     <g id="line2d_8"/>
     <g id="text_4">
      <!-- 150 -->
      <g style="fill:#262626;" transform="translate(186.995852 232.067188)scale(0.1 -0.1)">
       <use xlink:href="#ArialMT-49"/>
       <use x="55.615234" xlink:href="#ArialMT-53"/>
       <use x="111.230469" xlink:href="#ArialMT-48"/>
      </g>
     </g>
    </g>
    <g id="xtick_5">
     <g id="line2d_9">
      <path clip-path="url(#p07ca4a7c1a)" d="M 238.859986 217.909375 
L 238.859986 21.789375 
" style="fill:none;stroke:#ffffff;stroke-linecap:round;"/>
     </g>
     <g id="line2d_10"/>
     <g id="text_5">
      <!-- 200 -->
      <defs>
       <path d="M 50.34375 8.453125 
L 50.34375 0 
L 3.03125 0 
Q 2.9375 3.171875 4.046875 6.109375 
Q 5.859375 10.9375 9.828125 15.625 
Q 13.8125 20.3125 21.34375 26.46875 
Q 33.015625 36.03125 37.109375 41.625 
Q 41.21875 47.21875 41.21875 52.203125 
Q 41.21875 57.421875 37.46875 61 
Q 33.734375 64.59375 27.734375 64.59375 
Q 21.390625 64.59375 17.578125 60.78125 
Q 13.765625 56.984375 13.71875 50.25 
L 4.6875 51.171875 
Q 5.609375 61.28125 11.65625 66.578125 
Q 17.71875 71.875 27.9375 71.875 
Q 38.234375 71.875 44.234375 66.15625 
Q 50.25 60.453125 50.25 52 
Q 50.25 47.703125 48.484375 43.546875 
Q 46.734375 39.40625 42.65625 34.8125 
Q 38.578125 30.21875 29.109375 22.21875 
Q 21.1875 15.578125 18.9375 13.203125 
Q 16.703125 10.84375 15.234375 8.453125 
z
" id="ArialMT-50"/>
      </defs>
      <g style="fill:#262626;" transform="translate(230.51858 232.067188)scale(0.1 -0.1)">
       <use xlink:href="#ArialMT-50"/>
       <use x="55.615234" xlink:href="#ArialMT-48"/>
       <use x="111.230469" xlink:href="#ArialMT-48"/>
      </g>
     </g>
    </g>
    <g id="text_6">
     <!-- Epoch -->
     <defs>
      <path d="M 7.90625 0 
L 7.90625 71.578125 
L 59.671875 71.578125 
L 59.671875 63.140625 
L 17.390625 63.140625 
L 17.390625 41.21875 
L 56.984375 41.21875 
L 56.984375 32.8125 
L 17.390625 32.8125 
L 17.390625 8.453125 
L 61.328125 8.453125 
L 61.328125 0 
z
" id="ArialMT-69"/>
      <path d="M 6.59375 -19.875 
L 6.59375 51.859375 
L 14.59375 51.859375 
L 14.59375 45.125 
Q 17.4375 49.078125 21 51.046875 
Q 24.5625 53.03125 29.640625 53.03125 
Q 36.28125 53.03125 41.359375 49.609375 
Q 46.4375 46.1875 49.015625 39.953125 
Q 51.609375 33.734375 51.609375 26.3125 
Q 51.609375 18.359375 48.75 11.984375 
Q 45.90625 5.609375 40.453125 2.21875 
Q 35.015625 -1.171875 29 -1.171875 
Q 24.609375 -1.171875 21.109375 0.6875 
Q 17.625 2.546875 15.375 5.375 
L 15.375 -19.875 
z
M 14.546875 25.640625 
Q 14.546875 15.625 18.59375 10.84375 
Q 22.65625 6.0625 28.421875 6.0625 
Q 34.28125 6.0625 38.453125 11.015625 
Q 42.625 15.96875 42.625 26.375 
Q 42.625 36.28125 38.546875 41.203125 
Q 34.46875 46.140625 28.8125 46.140625 
Q 23.1875 46.140625 18.859375 40.890625 
Q 14.546875 35.640625 14.546875 25.640625 
z
" id="ArialMT-112"/>
      <path d="M 3.328125 25.921875 
Q 3.328125 40.328125 11.328125 47.265625 
Q 18.015625 53.03125 27.640625 53.03125 
Q 38.328125 53.03125 45.109375 46.015625 
Q 51.90625 39.015625 51.90625 26.65625 
Q 51.90625 16.65625 48.90625 10.90625 
Q 45.90625 5.171875 40.15625 2 
Q 34.421875 -1.171875 27.640625 -1.171875 
Q 16.75 -1.171875 10.03125 5.8125 
Q 3.328125 12.796875 3.328125 25.921875 
z
M 12.359375 25.921875 
Q 12.359375 15.96875 16.703125 11.015625 
Q 21.046875 6.0625 27.640625 6.0625 
Q 34.1875 6.0625 38.53125 11.03125 
Q 42.875 16.015625 42.875 26.21875 
Q 42.875 35.84375 38.5 40.796875 
Q 34.125 45.75 27.640625 45.75 
Q 21.046875 45.75 16.703125 40.8125 
Q 12.359375 35.890625 12.359375 25.921875 
z
" id="ArialMT-111"/>
      <path d="M 40.4375 19 
L 49.078125 17.875 
Q 47.65625 8.9375 41.8125 3.875 
Q 35.984375 -1.171875 27.484375 -1.171875 
Q 16.84375 -1.171875 10.375 5.78125 
Q 3.90625 12.75 3.90625 25.734375 
Q 3.90625 34.125 6.6875 40.421875 
Q 9.46875 46.734375 15.15625 49.875 
Q 20.84375 53.03125 27.546875 53.03125 
Q 35.984375 53.03125 41.359375 48.75 
Q 46.734375 44.484375 48.25 36.625 
L 39.703125 35.296875 
Q 38.484375 40.53125 35.375 43.15625 
Q 32.28125 45.796875 27.875 45.796875 
Q 21.234375 45.796875 17.078125 41.03125 
Q 12.9375 36.28125 12.9375 25.984375 
Q 12.9375 15.53125 16.9375 10.796875 
Q 20.953125 6.0625 27.390625 6.0625 
Q 32.5625 6.0625 36.03125 9.234375 
Q 39.5 12.40625 40.4375 19 
z
" id="ArialMT-99"/>
      <path d="M 6.59375 0 
L 6.59375 71.578125 
L 15.375 71.578125 
L 15.375 45.90625 
Q 21.53125 53.03125 30.90625 53.03125 
Q 36.671875 53.03125 40.921875 50.75 
Q 45.171875 48.484375 47 44.484375 
Q 48.828125 40.484375 48.828125 32.859375 
L 48.828125 0 
L 40.046875 0 
L 40.046875 32.859375 
Q 40.046875 39.453125 37.1875 42.453125 
Q 34.328125 45.453125 29.109375 45.453125 
Q 25.203125 45.453125 21.75 43.421875 
Q 18.3125 41.40625 16.84375 37.9375 
Q 15.375 34.46875 15.375 28.375 
L 15.375 0 
z
" id="ArialMT-104"/>
     </defs>
     <g style="fill:#262626;" transform="translate(136.220313 245.928281)scale(0.11 -0.11)">
      <use xlink:href="#ArialMT-69"/>
      <use x="66.699219" xlink:href="#ArialMT-112"/>
      <use x="122.314453" xlink:href="#ArialMT-111"/>
      <use x="177.929688" xlink:href="#ArialMT-99"/>
      <use x="227.929688" xlink:href="#ArialMT-104"/>
     </g>
    </g>
   </g>
   <g id="matplotlib.axis_2">
    <g id="ytick_1">
     <g id="line2d_11">
      <path clip-path="url(#p07ca4a7c1a)" d="M 56.064531 210.823392 
L 247.564531 210.823392 
" style="fill:none;stroke:#ffffff;stroke-linecap:round;"/>
     </g>
     <g id="line2d_12"/>
     <g id="text_7">
      <!-- 0 -->
      <g style="fill:#262626;" transform="translate(43.503594 214.402298)scale(0.1 -0.1)">
       <use xlink:href="#ArialMT-48"/>
      </g>
     </g>
    </g>
    <g id="ytick_2">
     <g id="line2d_13">
      <path clip-path="url(#p07ca4a7c1a)" d="M 56.064531 176.204516 
L 247.564531 176.204516 
" style="fill:none;stroke:#ffffff;stroke-linecap:round;"/>
     </g>
     <g id="line2d_14"/>
     <g id="text_8">
      <!-- 2000 -->
      <g style="fill:#262626;" transform="translate(26.820781 179.783422)scale(0.1 -0.1)">
       <use xlink:href="#ArialMT-50"/>
       <use x="55.615234" xlink:href="#ArialMT-48"/>
       <use x="111.230469" xlink:href="#ArialMT-48"/>
       <use x="166.845703" xlink:href="#ArialMT-48"/>
      </g>
     </g>
    </g>
    <g id="ytick_3">
     <g id="line2d_15">
      <path clip-path="url(#p07ca4a7c1a)" d="M 56.064531 141.58564 
L 247.564531 141.58564 
" style="fill:none;stroke:#ffffff;stroke-linecap:round;"/>
     </g>
     <g id="line2d_16"/>
     <g id="text_9">
      <!-- 4000 -->
      <defs>
       <path d="M 32.328125 0 
L 32.328125 17.140625 
L 1.265625 17.140625 
L 1.265625 25.203125 
L 33.9375 71.578125 
L 41.109375 71.578125 
L 41.109375 25.203125 
L 50.78125 25.203125 
L 50.78125 17.140625 
L 41.109375 17.140625 
L 41.109375 0 
z
M 32.328125 25.203125 
L 32.328125 57.46875 
L 9.90625 25.203125 
z
" id="ArialMT-52"/>
      </defs>
      <g style="fill:#262626;" transform="translate(26.820781 145.164546)scale(0.1 -0.1)">
       <use xlink:href="#ArialMT-52"/>
       <use x="55.615234" xlink:href="#ArialMT-48"/>
       <use x="111.230469" xlink:href="#ArialMT-48"/>
       <use x="166.845703" xlink:href="#ArialMT-48"/>
      </g>
     </g>
    </g>
    <g id="ytick_4">
     <g id="line2d_17">
      <path clip-path="url(#p07ca4a7c1a)" d="M 56.064531 106.966763 
L 247.564531 106.966763 
" style="fill:none;stroke:#ffffff;stroke-linecap:round;"/>
     </g>
     <g id="line2d_18"/>
     <g id="text_10">
      <!-- 6000 -->
      <defs>
       <path d="M 49.75 54.046875 
L 41.015625 53.375 
Q 39.84375 58.546875 37.703125 60.890625 
Q 34.125 64.65625 28.90625 64.65625 
Q 24.703125 64.65625 21.53125 62.3125 
Q 17.390625 59.28125 14.984375 53.46875 
Q 12.59375 47.65625 12.5 36.921875 
Q 15.671875 41.75 20.265625 44.09375 
Q 24.859375 46.4375 29.890625 46.4375 
Q 38.671875 46.4375 44.84375 39.96875 
Q 51.03125 33.5 51.03125 23.25 
Q 51.03125 16.5 48.125 10.71875 
Q 45.21875 4.9375 40.140625 1.859375 
Q 35.0625 -1.21875 28.609375 -1.21875 
Q 17.625 -1.21875 10.6875 6.859375 
Q 3.765625 14.9375 3.765625 33.5 
Q 3.765625 54.25 11.421875 63.671875 
Q 18.109375 71.875 29.4375 71.875 
Q 37.890625 71.875 43.28125 67.140625 
Q 48.6875 62.40625 49.75 54.046875 
z
M 13.875 23.1875 
Q 13.875 18.65625 15.796875 14.5 
Q 17.71875 10.359375 21.1875 8.171875 
Q 24.65625 6 28.46875 6 
Q 34.03125 6 38.03125 10.484375 
Q 42.046875 14.984375 42.046875 22.703125 
Q 42.046875 30.125 38.078125 34.390625 
Q 34.125 38.671875 28.125 38.671875 
Q 22.171875 38.671875 18.015625 34.390625 
Q 13.875 30.125 13.875 23.1875 
z
" id="ArialMT-54"/>
      </defs>
      <g style="fill:#262626;" transform="translate(26.820781 110.54567)scale(0.1 -0.1)">
       <use xlink:href="#ArialMT-54"/>
       <use x="55.615234" xlink:href="#ArialMT-48"/>
       <use x="111.230469" xlink:href="#ArialMT-48"/>
       <use x="166.845703" xlink:href="#ArialMT-48"/>
      </g>
     </g>
    </g>
    <g id="ytick_5">
     <g id="line2d_19">
      <path clip-path="url(#p07ca4a7c1a)" d="M 56.064531 72.347887 
L 247.564531 72.347887 
" style="fill:none;stroke:#ffffff;stroke-linecap:round;"/>
     </g>
     <g id="line2d_20"/>
     <g id="text_11">
      <!-- 8000 -->
      <defs>
       <path d="M 17.671875 38.8125 
Q 12.203125 40.828125 9.5625 44.53125 
Q 6.9375 48.25 6.9375 53.421875 
Q 6.9375 61.234375 12.546875 66.546875 
Q 18.171875 71.875 27.484375 71.875 
Q 36.859375 71.875 42.578125 66.421875 
Q 48.296875 60.984375 48.296875 53.171875 
Q 48.296875 48.1875 45.671875 44.5 
Q 43.0625 40.828125 37.75 38.8125 
Q 44.34375 36.671875 47.78125 31.875 
Q 51.21875 27.09375 51.21875 20.453125 
Q 51.21875 11.28125 44.71875 5.03125 
Q 38.234375 -1.21875 27.640625 -1.21875 
Q 17.046875 -1.21875 10.546875 5.046875 
Q 4.046875 11.328125 4.046875 20.703125 
Q 4.046875 27.6875 7.59375 32.390625 
Q 11.140625 37.109375 17.671875 38.8125 
z
M 15.921875 53.71875 
Q 15.921875 48.640625 19.1875 45.40625 
Q 22.46875 42.1875 27.6875 42.1875 
Q 32.765625 42.1875 36.015625 45.375 
Q 39.265625 48.578125 39.265625 53.21875 
Q 39.265625 58.0625 35.90625 61.359375 
Q 32.5625 64.65625 27.59375 64.65625 
Q 22.5625 64.65625 19.234375 61.421875 
Q 15.921875 58.203125 15.921875 53.71875 
z
M 13.09375 20.65625 
Q 13.09375 16.890625 14.875 13.375 
Q 16.65625 9.859375 20.171875 7.921875 
Q 23.6875 6 27.734375 6 
Q 34.03125 6 38.125 10.046875 
Q 42.234375 14.109375 42.234375 20.359375 
Q 42.234375 26.703125 38.015625 30.859375 
Q 33.796875 35.015625 27.4375 35.015625 
Q 21.234375 35.015625 17.15625 30.90625 
Q 13.09375 26.8125 13.09375 20.65625 
z
" id="ArialMT-56"/>
      </defs>
      <g style="fill:#262626;" transform="translate(26.820781 75.926793)scale(0.1 -0.1)">
       <use xlink:href="#ArialMT-56"/>
       <use x="55.615234" xlink:href="#ArialMT-48"/>
       <use x="111.230469" xlink:href="#ArialMT-48"/>
       <use x="166.845703" xlink:href="#ArialMT-48"/>
      </g>
     </g>
    </g>
    <g id="ytick_6">
     <g id="line2d_21">
      <path clip-path="url(#p07ca4a7c1a)" d="M 56.064531 37.729011 
L 247.564531 37.729011 
" style="fill:none;stroke:#ffffff;stroke-linecap:round;"/>
     </g>
     <g id="line2d_22"/>
     <g id="text_12">
      <!-- 10000 -->
      <g style="fill:#262626;" transform="translate(21.259844 41.307917)scale(0.1 -0.1)">
       <use xlink:href="#ArialMT-49"/>
       <use x="55.615234" xlink:href="#ArialMT-48"/>
       <use x="111.230469" xlink:href="#ArialMT-48"/>
       <use x="166.845703" xlink:href="#ArialMT-48"/>
       <use x="222.460938" xlink:href="#ArialMT-48"/>
      </g>
     </g>
    </g>
    <g id="text_13">
     <!-- Score -->
     <defs>
      <path d="M 4.5 23 
L 13.421875 23.78125 
Q 14.0625 18.40625 16.375 14.96875 
Q 18.703125 11.53125 23.578125 9.40625 
Q 28.46875 7.28125 34.578125 7.28125 
Q 39.984375 7.28125 44.140625 8.890625 
Q 48.296875 10.5 50.3125 13.296875 
Q 52.34375 16.109375 52.34375 19.4375 
Q 52.34375 22.796875 50.390625 25.3125 
Q 48.4375 27.828125 43.953125 29.546875 
Q 41.0625 30.671875 31.203125 33.03125 
Q 21.34375 35.40625 17.390625 37.5 
Q 12.25 40.1875 9.734375 44.15625 
Q 7.234375 48.140625 7.234375 53.078125 
Q 7.234375 58.5 10.296875 63.203125 
Q 13.375 67.921875 19.28125 70.359375 
Q 25.203125 72.796875 32.421875 72.796875 
Q 40.375 72.796875 46.453125 70.234375 
Q 52.546875 67.671875 55.8125 62.6875 
Q 59.078125 57.71875 59.328125 51.421875 
L 50.25 50.734375 
Q 49.515625 57.515625 45.28125 60.984375 
Q 41.0625 64.453125 32.8125 64.453125 
Q 24.21875 64.453125 20.28125 61.296875 
Q 16.359375 58.15625 16.359375 53.71875 
Q 16.359375 49.859375 19.140625 47.359375 
Q 21.875 44.875 33.421875 42.265625 
Q 44.96875 39.65625 49.265625 37.703125 
Q 55.515625 34.8125 58.484375 30.390625 
Q 61.46875 25.984375 61.46875 20.21875 
Q 61.46875 14.5 58.203125 9.4375 
Q 54.9375 4.390625 48.796875 1.578125 
Q 42.671875 -1.21875 35.015625 -1.21875 
Q 25.296875 -1.21875 18.71875 1.609375 
Q 12.15625 4.4375 8.421875 10.125 
Q 4.6875 15.828125 4.5 23 
z
" id="ArialMT-83"/>
      <path d="M 6.5 0 
L 6.5 51.859375 
L 14.40625 51.859375 
L 14.40625 44 
Q 17.4375 49.515625 20 51.265625 
Q 22.5625 53.03125 25.640625 53.03125 
Q 30.078125 53.03125 34.671875 50.203125 
L 31.640625 42.046875 
Q 28.421875 43.953125 25.203125 43.953125 
Q 22.3125 43.953125 20.015625 42.21875 
Q 17.71875 40.484375 16.75 37.40625 
Q 15.28125 32.71875 15.28125 27.15625 
L 15.28125 0 
z
" id="ArialMT-114"/>
      <path d="M 42.09375 16.703125 
L 51.171875 15.578125 
Q 49.03125 7.625 43.21875 3.21875 
Q 37.40625 -1.171875 28.375 -1.171875 
Q 17 -1.171875 10.328125 5.828125 
Q 3.65625 12.84375 3.65625 25.484375 
Q 3.65625 38.578125 10.390625 45.796875 
Q 17.140625 53.03125 27.875 53.03125 
Q 38.28125 53.03125 44.875 45.953125 
Q 51.46875 38.875 51.46875 26.03125 
Q 51.46875 25.25 51.421875 23.6875 
L 12.75 23.6875 
Q 13.234375 15.140625 17.578125 10.59375 
Q 21.921875 6.0625 28.421875 6.0625 
Q 33.25 6.0625 36.671875 8.59375 
Q 40.09375 11.140625 42.09375 16.703125 
z
M 13.234375 30.90625 
L 42.1875 30.90625 
Q 41.609375 37.453125 38.875 40.71875 
Q 34.671875 45.796875 27.984375 45.796875 
Q 21.921875 45.796875 17.796875 41.75 
Q 13.671875 37.703125 13.234375 30.90625 
z
" id="ArialMT-101"/>
     </defs>
     <g style="fill:#262626;" transform="translate(15.073594 134.216406)rotate(-90)scale(0.11 -0.11)">
      <use xlink:href="#ArialMT-83"/>
      <use x="66.699219" xlink:href="#ArialMT-99"/>
      <use x="116.699219" xlink:href="#ArialMT-111"/>
      <use x="172.314453" xlink:href="#ArialMT-114"/>
      <use x="205.615234" xlink:href="#ArialMT-101"/>
     </g>
    </g>
   </g>
   <g id="PolyCollection_1">
    <path clip-path="url(#p07ca4a7c1a)" d="M 64.769077 208.72383 
L 64.769077 209.265829 
L 65.639531 204.566927 
L 66.509986 202.124924 
L 67.38044 202.6252 
L 68.250895 200.194256 
L 69.121349 197.961264 
L 69.991804 196.796034 
L 70.862259 193.710667 
L 71.732713 186.463851 
L 72.603168 184.913507 
L 73.473622 185.197842 
L 74.344077 175.935172 
L 75.214531 167.982921 
L 76.084986 172.392861 
L 76.95544 163.367312 
L 77.825895 160.448327 
L 78.696349 154.257115 
L 79.566804 143.72007 
L 80.437259 128.919112 
L 81.307713 135.628215 
L 82.178168 140.440163 
L 83.048622 152.240988 
L 83.919077 140.831663 
L 84.789531 135.698259 
L 85.659986 115.199534 
L 86.53044 111.943363 
L 87.400895 127.618125 
L 88.271349 108.802256 
L 89.141804 104.3457 
L 90.012259 114.984003 
L 90.882713 109.095445 
L 91.753168 110.089242 
L 92.623622 97.304961 
L 93.494077 118.777373 
L 94.364531 120.406917 
L 95.234986 112.864586 
L 96.10544 102.104065 
L 96.975895 124.926161 
L 97.846349 112.220975 
L 98.716804 90.826704 
L 99.587259 101.131453 
L 100.457713 116.806916 
L 101.328168 92.404755 
L 102.198622 93.718392 
L 103.069077 124.191179 
L 103.939531 101.363903 
L 104.809986 96.089932 
L 105.68044 117.467117 
L 106.550895 97.362709 
L 107.421349 106.497172 
L 108.291804 84.191733 
L 109.162259 102.800629 
L 110.032713 93.048945 
L 110.903168 107.124159 
L 111.773622 90.801729 
L 112.644077 88.32429 
L 113.514531 97.91206 
L 114.384986 100.070007 
L 115.25544 98.308147 
L 116.125895 93.255724 
L 116.996349 85.992061 
L 117.866804 82.564077 
L 118.737259 75.027555 
L 119.607713 70.592927 
L 120.478168 89.992204 
L 121.348622 97.40157 
L 122.219077 74.536175 
L 123.089531 67.566842 
L 123.959986 77.790085 
L 124.83044 61.905967 
L 125.700895 91.304899 
L 126.571349 80.863467 
L 127.441804 100.16229 
L 128.312259 87.90642 
L 129.182713 73.289672 
L 130.053168 84.288071 
L 130.923622 88.978901 
L 131.794077 81.15387 
L 132.664531 87.69807 
L 133.534986 82.594595 
L 134.40544 72.314136 
L 135.275895 65.768363 
L 136.146349 73.758558 
L 137.016804 77.917325 
L 137.887259 76.225172 
L 138.757713 79.914524 
L 139.628168 79.352967 
L 140.498622 86.894158 
L 141.369077 78.590625 
L 142.239531 76.986034 
L 143.109986 78.535228 
L 143.98044 92.387144 
L 144.850895 73.116416 
L 145.721349 74.840705 
L 146.591804 80.586452 
L 147.462259 71.154416 
L 148.332713 77.618409 
L 149.203168 85.491443 
L 150.073622 64.645204 
L 150.944077 70.054873 
L 151.814531 61.297904 
L 152.684986 81.385435 
L 153.55544 94.051031 
L 154.425895 85.802837 
L 155.296349 81.967501 
L 156.166804 66.479949 
L 157.037259 62.255681 
L 157.907713 89.614666 
L 158.778168 77.071719 
L 159.648622 71.050716 
L 160.519077 77.30125 
L 161.389531 78.500899 
L 162.259986 74.491354 
L 163.13044 77.141792 
L 164.000895 80.844242 
L 164.871349 89.937353 
L 165.741804 86.599553 
L 166.612259 61.384261 
L 167.482713 83.163763 
L 168.353168 84.63306 
L 169.223622 78.679076 
L 170.094077 67.430583 
L 170.964531 65.322275 
L 171.834986 97.465114 
L 172.70544 62.304416 
L 173.575895 65.70221 
L 174.446349 84.936881 
L 175.316804 71.219408 
L 176.187259 76.953281 
L 177.057713 80.114522 
L 177.928168 85.256339 
L 178.798622 76.074688 
L 179.669077 59.359322 
L 180.539531 85.927374 
L 181.409986 79.270113 
L 182.28044 76.973021 
L 183.150895 60.500832 
L 184.021349 77.248899 
L 184.891804 76.139904 
L 185.762259 80.44421 
L 186.632713 74.918909 
L 187.503168 75.610032 
L 188.373622 62.989527 
L 189.244077 86.910518 
L 190.114531 73.72424 
L 190.984986 79.985378 
L 191.85544 66.305113 
L 192.725895 63.279869 
L 193.596349 65.151265 
L 194.466804 73.434764 
L 195.337259 73.415401 
L 196.207713 60.527821 
L 197.078168 67.673254 
L 197.948622 75.16446 
L 198.819077 77.732445 
L 199.689531 81.429233 
L 200.559986 67.184547 
L 201.43044 60.295096 
L 202.300895 67.376521 
L 203.171349 69.392933 
L 204.041804 65.024957 
L 204.912259 64.929528 
L 205.782713 66.25135 
L 206.653168 56.62174 
L 207.523622 73.034863 
L 208.394077 60.358018 
L 209.264531 57.493689 
L 210.134986 82.920471 
L 211.00544 56.014725 
L 211.875895 77.296143 
L 212.746349 67.086193 
L 213.616804 68.333849 
L 214.487259 58.545938 
L 215.357713 61.789885 
L 216.228168 67.212718 
L 217.098622 70.285504 
L 217.969077 58.42069 
L 218.839531 61.720047 
L 219.709986 77.429289 
L 220.58044 67.529795 
L 221.450895 62.648175 
L 222.321349 60.60078 
L 223.191804 78.234219 
L 224.062259 81.581992 
L 224.932713 71.65799 
L 225.803168 74.23174 
L 226.673622 53.20925 
L 227.544077 83.198935 
L 228.414531 67.344697 
L 229.284986 67.928056 
L 230.15544 68.302277 
L 231.025895 69.526484 
L 231.896349 75.078468 
L 232.766804 70.025041 
L 233.637259 51.250964 
L 234.507713 62.006732 
L 235.378168 56.824274 
L 236.248622 64.253674 
L 237.119077 64.253976 
L 237.989531 72.345305 
L 238.859986 68.582992 
L 238.859986 39.013833 
L 238.859986 39.013833 
L 237.989531 44.161153 
L 237.119077 32.13343 
L 236.248622 33.496067 
L 235.378168 33.265929 
L 234.507713 31.624326 
L 233.637259 28.486807 
L 232.766804 38.942001 
L 231.896349 43.889188 
L 231.025895 40.131818 
L 230.15544 33.339158 
L 229.284986 30.996586 
L 228.414531 32.022331 
L 227.544077 46.209966 
L 226.673622 34.621446 
L 225.803168 34.723399 
L 224.932713 40.925901 
L 224.062259 36.454292 
L 223.191804 49.699962 
L 222.321349 45.272697 
L 221.450895 33.320364 
L 220.58044 38.119932 
L 219.709986 32.398841 
L 218.839531 32.9114 
L 217.969077 37.266917 
L 217.098622 36.358543 
L 216.228168 41.683589 
L 215.357713 30.550057 
L 214.487259 32.820034 
L 213.616804 32.22868 
L 212.746349 39.937393 
L 211.875895 37.399353 
L 211.00544 29.19172 
L 210.134986 35.821075 
L 209.264531 36.395716 
L 208.394077 38.059009 
L 207.523622 32.181197 
L 206.653168 41.257582 
L 205.782713 32.560845 
L 204.912259 36.370993 
L 204.041804 33.984756 
L 203.171349 36.462055 
L 202.300895 31.946828 
L 201.43044 31.01045 
L 200.559986 34.898105 
L 199.689531 33.279893 
L 198.819077 34.328046 
L 197.948622 44.254438 
L 197.078168 40.681173 
L 196.207713 40.758091 
L 195.337259 47.631774 
L 194.466804 31.954766 
L 193.596349 31.231179 
L 192.725895 32.184396 
L 191.85544 46.956141 
L 190.984986 34.903086 
L 190.114531 35.287088 
L 189.244077 38.126313 
L 188.373622 38.809796 
L 187.503168 47.203782 
L 186.632713 38.224421 
L 185.762259 40.984626 
L 184.891804 24.712981 
L 184.021349 42.205496 
L 183.150895 42.037971 
L 182.28044 36.506247 
L 181.409986 44.264438 
L 180.539531 32.393619 
L 179.669077 46.769932 
L 178.798622 40.737015 
L 177.928168 39.945594 
L 177.057713 34.482143 
L 176.187259 45.32841 
L 175.316804 30.569514 
L 174.446349 45.441623 
L 173.575895 40.155041 
L 172.70544 33.66898 
L 171.834986 41.196367 
L 170.964531 42.269369 
L 170.094077 35.629224 
L 169.223622 41.153372 
L 168.353168 40.402656 
L 167.482713 35.70755 
L 166.612259 33.401098 
L 165.741804 35.580878 
L 164.871349 41.495929 
L 164.000895 42.023875 
L 163.13044 33.824653 
L 162.259986 46.067311 
L 161.389531 43.048879 
L 160.519077 46.951794 
L 159.648622 36.587125 
L 158.778168 46.674346 
L 157.907713 32.470794 
L 157.037259 32.874103 
L 156.166804 34.157283 
L 155.296349 44.313375 
L 154.425895 45.99021 
L 153.55544 45.300924 
L 152.684986 46.562923 
L 151.814531 36.355218 
L 150.944077 36.432513 
L 150.073622 39.859186 
L 149.203168 46.782482 
L 148.332713 48.548248 
L 147.462259 42.835043 
L 146.591804 47.63349 
L 145.721349 37.141867 
L 144.850895 44.339115 
L 143.98044 33.706952 
L 143.109986 41.984547 
L 142.239531 52.606878 
L 141.369077 46.312254 
L 140.498622 46.532609 
L 139.628168 33.894605 
L 138.757713 39.770069 
L 137.887259 41.908774 
L 137.016804 33.506342 
L 136.146349 48.081315 
L 135.275895 41.798573 
L 134.40544 30.5026 
L 133.534986 41.700533 
L 132.664531 42.149785 
L 131.794077 42.693419 
L 130.923622 45.611009 
L 130.053168 34.075607 
L 129.182713 51.821567 
L 128.312259 49.345913 
L 127.441804 37.099139 
L 126.571349 45.607912 
L 125.700895 46.854289 
L 124.83044 30.558072 
L 123.959986 41.708616 
L 123.089531 35.780165 
L 122.219077 46.65456 
L 121.348622 65.998358 
L 120.478168 39.148239 
L 119.607713 41.626008 
L 118.737259 47.039624 
L 117.866804 45.350554 
L 116.996349 44.489812 
L 116.125895 66.880526 
L 115.25544 37.977078 
L 114.384986 59.09187 
L 113.514531 54.549059 
L 112.644077 42.74955 
L 111.773622 47.157183 
L 110.903168 38.832086 
L 110.032713 53.942206 
L 109.162259 53.665795 
L 108.291804 48.028544 
L 107.421349 57.877765 
L 106.550895 58.188451 
L 105.68044 63.586468 
L 104.809986 52.551864 
L 103.939531 45.106879 
L 103.069077 60.106205 
L 102.198622 57.590598 
L 101.328168 51.245561 
L 100.457713 59.517345 
L 99.587259 52.116208 
L 98.716804 51.579969 
L 97.846349 69.304567 
L 96.975895 48.929925 
L 96.10544 56.157166 
L 95.234986 71.331878 
L 94.364531 54.725664 
L 93.494077 81.171934 
L 92.623622 48.893703 
L 91.753168 73.634891 
L 90.882713 67.237906 
L 90.012259 70.527611 
L 89.141804 70.913218 
L 88.271349 66.523387 
L 87.400895 79.560651 
L 86.53044 71.627298 
L 85.659986 81.188872 
L 84.789531 84.291323 
L 83.919077 86.662019 
L 83.048622 101.256009 
L 82.178168 99.230346 
L 81.307713 65.034503 
L 80.437259 74.690664 
L 79.566804 91.156343 
L 78.696349 112.406098 
L 77.825895 105.307379 
L 76.95544 112.183494 
L 76.084986 122.049252 
L 75.214531 131.77482 
L 74.344077 141.712405 
L 73.473622 161.69877 
L 72.603168 171.358903 
L 71.732713 165.411815 
L 70.862259 179.548931 
L 69.991804 190.944658 
L 69.121349 191.565621 
L 68.250895 195.612508 
L 67.38044 195.889163 
L 66.509986 199.349816 
L 65.639531 203.477138 
L 64.769077 208.72383 
z
" style="fill:#4c72b0;fill-opacity:0.25;"/>
   </g>
   <g id="PolyCollection_2">
    <path clip-path="url(#p07ca4a7c1a)" d="M 64.769077 208.72383 
L 64.769077 209.265829 
L 65.639531 204.566927 
L 66.509986 202.124924 
L 67.38044 202.6252 
L 68.250895 200.194256 
L 69.121349 197.961264 
L 69.991804 197.94305 
L 70.862259 192.916346 
L 71.732713 191.174173 
L 72.603168 192.64278 
L 73.473622 177.255472 
L 74.344077 169.506449 
L 75.214531 173.362545 
L 76.084986 160.658478 
L 76.95544 172.193007 
L 77.825895 154.030896 
L 78.696349 162.155751 
L 79.566804 155.026106 
L 80.437259 131.777813 
L 81.307713 156.008463 
L 82.178168 137.986846 
L 83.048622 117.007685 
L 83.919077 122.326117 
L 84.789531 119.907042 
L 85.659986 100.523034 
L 86.53044 114.669484 
L 87.400895 119.327888 
L 88.271349 108.400634 
L 89.141804 98.810352 
L 90.012259 110.67238 
L 90.882713 115.129484 
L 91.753168 108.733018 
L 92.623622 132.117256 
L 93.494077 96.836695 
L 94.364531 86.657209 
L 95.234986 100.717663 
L 96.10544 82.523197 
L 96.975895 95.591552 
L 97.846349 98.319197 
L 98.716804 106.024541 
L 99.587259 111.153242 
L 100.457713 95.639268 
L 101.328168 101.980355 
L 102.198622 88.34141 
L 103.069077 96.834262 
L 103.939531 93.675088 
L 104.809986 103.008402 
L 105.68044 99.306486 
L 106.550895 90.037746 
L 107.421349 82.078825 
L 108.291804 85.164199 
L 109.162259 78.207547 
L 110.032713 93.227903 
L 110.903168 71.351191 
L 111.773622 81.12793 
L 112.644077 89.651433 
L 113.514531 69.562899 
L 114.384986 76.410099 
L 115.25544 92.308704 
L 116.125895 66.854012 
L 116.996349 84.041445 
L 117.866804 67.198707 
L 118.737259 74.659462 
L 119.607713 68.450573 
L 120.478168 69.64966 
L 121.348622 66.614846 
L 122.219077 91.190786 
L 123.089531 85.283279 
L 123.959986 89.883836 
L 124.83044 65.390484 
L 125.700895 64.782353 
L 126.571349 79.193217 
L 127.441804 73.495808 
L 128.312259 60.668829 
L 129.182713 65.443035 
L 130.053168 83.258997 
L 130.923622 57.201184 
L 131.794077 87.201117 
L 132.664531 82.441313 
L 133.534986 54.448169 
L 134.40544 64.514802 
L 135.275895 66.388845 
L 136.146349 58.013272 
L 137.016804 64.966063 
L 137.887259 76.839208 
L 138.757713 69.801671 
L 139.628168 57.48675 
L 140.498622 60.5603 
L 141.369077 71.586753 
L 142.239531 80.877628 
L 143.109986 69.719544 
L 143.98044 87.202481 
L 144.850895 71.892624 
L 145.721349 73.589697 
L 146.591804 60.993777 
L 147.462259 69.26809 
L 148.332713 68.620183 
L 149.203168 67.596055 
L 150.073622 72.122739 
L 150.944077 75.035576 
L 151.814531 61.767194 
L 152.684986 67.291942 
L 153.55544 65.046962 
L 154.425895 72.881417 
L 155.296349 65.576671 
L 156.166804 69.272912 
L 157.037259 56.831505 
L 157.907713 65.598459 
L 158.778168 65.161772 
L 159.648622 67.497245 
L 160.519077 60.342223 
L 161.389531 53.892123 
L 162.259986 72.698583 
L 163.13044 73.086327 
L 164.000895 65.078304 
L 164.871349 74.236648 
L 165.741804 58.044759 
L 166.612259 75.864164 
L 167.482713 55.666649 
L 168.353168 59.912336 
L 169.223622 60.028402 
L 170.094077 61.092971 
L 170.964531 77.561049 
L 171.834986 57.00317 
L 172.70544 74.58902 
L 173.575895 71.483356 
L 174.446349 56.268956 
L 175.316804 71.507187 
L 176.187259 62.726264 
L 177.057713 70.736145 
L 177.928168 55.951631 
L 178.798622 79.637773 
L 179.669077 67.568355 
L 180.539531 62.973451 
L 181.409986 58.100471 
L 182.28044 57.841436 
L 183.150895 74.235363 
L 184.021349 58.104021 
L 184.891804 75.456045 
L 185.762259 64.82569 
L 186.632713 72.555159 
L 187.503168 71.772014 
L 188.373622 62.977774 
L 189.244077 57.987258 
L 190.114531 66.92383 
L 190.984986 62.120291 
L 191.85544 57.69205 
L 192.725895 57.705191 
L 193.596349 70.038982 
L 194.466804 66.134342 
L 195.337259 69.065471 
L 196.207713 53.878469 
L 197.078168 60.101368 
L 197.948622 60.210545 
L 198.819077 63.17154 
L 199.689531 32.535232 
L 200.559986 63.061229 
L 201.43044 64.830188 
L 202.300895 69.91073 
L 203.171349 66.244704 
L 204.041804 56.727825 
L 204.912259 61.46972 
L 205.782713 72.012486 
L 206.653168 74.094597 
L 207.523622 63.87369 
L 208.394077 61.034204 
L 209.264531 61.651844 
L 210.134986 65.933396 
L 211.00544 62.10995 
L 211.875895 77.192344 
L 212.746349 55.683504 
L 213.616804 62.097969 
L 214.487259 59.245296 
L 215.357713 69.996573 
L 216.228168 84.600092 
L 217.098622 52.820396 
L 217.969077 53.110575 
L 218.839531 76.275602 
L 219.709986 61.781334 
L 220.58044 68.857602 
L 221.450895 85.723364 
L 222.321349 89.641879 
L 223.191804 60.823581 
L 224.062259 63.17926 
L 224.932713 55.831024 
L 225.803168 74.55115 
L 226.673622 75.92442 
L 227.544077 67.700258 
L 228.414531 65.047856 
L 229.284986 70.275209 
L 230.15544 68.67112 
L 231.025895 55.813535 
L 231.896349 69.934238 
L 232.766804 67.803202 
L 233.637259 63.074501 
L 234.507713 73.60302 
L 235.378168 61.161723 
L 236.248622 63.909053 
L 237.119077 68.221249 
L 237.989531 71.567952 
L 238.859986 68.303389 
L 238.859986 28.311033 
L 238.859986 28.311033 
L 237.989531 37.59462 
L 237.119077 38.451865 
L 236.248622 36.604864 
L 235.378168 35.144154 
L 234.507713 26.902294 
L 233.637259 34.303153 
L 232.766804 35.134742 
L 231.896349 31.562243 
L 231.025895 29.96461 
L 230.15544 38.538291 
L 229.284986 37.461138 
L 228.414531 34.294564 
L 227.544077 35.002623 
L 226.673622 36.846104 
L 225.803168 37.203459 
L 224.932713 35.100313 
L 224.062259 32.977007 
L 223.191804 38.028047 
L 222.321349 34.310124 
L 221.450895 36.897352 
L 220.58044 31.706239 
L 219.709986 38.090254 
L 218.839531 34.013458 
L 217.969077 30.216386 
L 217.098622 28.85359 
L 216.228168 36.025857 
L 215.357713 31.531586 
L 214.487259 31.951565 
L 213.616804 33.54744 
L 212.746349 37.809584 
L 211.875895 38.096252 
L 211.00544 37.195454 
L 210.134986 29.554111 
L 209.264531 35.919201 
L 208.394077 40.646888 
L 207.523622 33.600738 
L 206.653168 38.952289 
L 205.782713 31.166401 
L 204.912259 38.468579 
L 204.041804 32.504398 
L 203.171349 37.11609 
L 202.300895 28.446053 
L 201.43044 34.356768 
L 200.559986 46.124764 
L 199.689531 31.074785 
L 198.819077 39.234897 
L 197.948622 38.681147 
L 197.078168 40.668203 
L 196.207713 35.317558 
L 195.337259 42.544575 
L 194.466804 29.344575 
L 193.596349 30.931645 
L 192.725895 34.970824 
L 191.85544 32.57302 
L 190.984986 47.400557 
L 190.114531 32.646842 
L 189.244077 35.334803 
L 188.373622 25.463466 
L 187.503168 25.213033 
L 186.632713 36.471315 
L 185.762259 31.48077 
L 184.891804 36.750241 
L 184.021349 37.138078 
L 183.150895 40.544566 
L 182.28044 34.638039 
L 181.409986 34.061421 
L 180.539531 33.62477 
L 179.669077 33.556961 
L 178.798622 29.822349 
L 177.928168 30.239505 
L 177.057713 29.729263 
L 176.187259 30.808701 
L 175.316804 41.785067 
L 174.446349 37.998837 
L 173.575895 34.737047 
L 172.70544 35.782603 
L 171.834986 32.633259 
L 170.964531 37.093853 
L 170.094077 35.644229 
L 169.223622 34.609643 
L 168.353168 35.464149 
L 167.482713 30.3725 
L 166.612259 40.420733 
L 165.741804 34.599668 
L 164.871349 51.338516 
L 164.000895 34.534967 
L 163.13044 35.571784 
L 162.259986 32.792862 
L 161.389531 32.43562 
L 160.519077 35.336144 
L 159.648622 46.248468 
L 158.778168 30.070413 
L 157.907713 38.025747 
L 157.037259 32.32472 
L 156.166804 33.099476 
L 155.296349 32.556896 
L 154.425895 36.128009 
L 153.55544 37.607669 
L 152.684986 31.45729 
L 151.814531 42.634264 
L 150.944077 40.859152 
L 150.073622 30.346256 
L 149.203168 41.590168 
L 148.332713 41.078892 
L 147.462259 35.385098 
L 146.591804 38.675016 
L 145.721349 39.439284 
L 144.850895 37.958997 
L 143.98044 43.319636 
L 143.109986 48.474762 
L 142.239531 35.838276 
L 141.369077 41.496745 
L 140.498622 30.761818 
L 139.628168 35.197315 
L 138.757713 36.067478 
L 137.887259 35.212137 
L 137.016804 40.84096 
L 136.146349 32.48899 
L 135.275895 40.114954 
L 134.40544 35.32644 
L 133.534986 32.881514 
L 132.664531 39.948425 
L 131.794077 37.859089 
L 130.923622 34.522736 
L 130.053168 41.178991 
L 129.182713 38.649258 
L 128.312259 36.11715 
L 127.441804 33.949249 
L 126.571349 43.271888 
L 125.700895 38.948199 
L 124.83044 43.917609 
L 123.959986 40.500329 
L 123.089531 41.43033 
L 122.219077 40.08884 
L 121.348622 29.740909 
L 120.478168 36.738708 
L 119.607713 41.436202 
L 118.737259 48.283336 
L 117.866804 41.74225 
L 116.996349 44.97781 
L 116.125895 27.192149 
L 115.25544 42.54249 
L 114.384986 39.794767 
L 113.514531 37.463725 
L 112.644077 49.678713 
L 111.773622 39.081942 
L 110.903168 41.277365 
L 110.032713 37.914155 
L 109.162259 38.096192 
L 108.291804 47.806175 
L 107.421349 35.923238 
L 106.550895 54.35202 
L 105.68044 61.832626 
L 104.809986 68.700176 
L 103.939531 53.550691 
L 103.069077 44.320883 
L 102.198622 50.25093 
L 101.328168 41.01455 
L 100.457713 50.64292 
L 99.587259 47.180301 
L 98.716804 68.783628 
L 97.846349 57.044578 
L 96.975895 53.874167 
L 96.10544 54.621226 
L 95.234986 63.480221 
L 94.364531 42.231425 
L 93.494077 56.778459 
L 92.623622 76.057864 
L 91.753168 60.082968 
L 90.882713 54.834283 
L 90.012259 59.882306 
L 89.141804 61.953342 
L 88.271349 75.322622 
L 87.400895 59.721241 
L 86.53044 65.579699 
L 85.659986 72.265151 
L 84.789531 101.737372 
L 83.919077 73.25065 
L 83.048622 71.236153 
L 82.178168 87.099315 
L 81.307713 84.957969 
L 80.437259 78.351914 
L 79.566804 90.470613 
L 78.696349 135.816839 
L 77.825895 108.746013 
L 76.95544 141.381853 
L 76.084986 111.159737 
L 75.214531 131.822712 
L 74.344077 127.156183 
L 73.473622 143.785603 
L 72.603168 153.372673 
L 71.732713 172.60645 
L 70.862259 179.733663 
L 69.991804 187.562754 
L 69.121349 191.565621 
L 68.250895 195.612508 
L 67.38044 195.889163 
L 66.509986 199.349816 
L 65.639531 203.477138 
L 64.769077 208.72383 
z
" style="fill:#55a868;fill-opacity:0.25;"/>
   </g>
   <g id="line2d_23">
    <path clip-path="url(#p07ca4a7c1a)" d="M 64.769077 208.99483 
L 65.639531 204.022033 
L 66.509986 200.73737 
L 68.250895 197.903382 
L 69.121349 194.763443 
L 69.991804 193.870346 
L 70.862259 186.629799 
L 71.732713 175.937833 
L 72.603168 178.136205 
L 73.473622 173.448306 
L 74.344077 158.823788 
L 75.214531 149.878871 
L 76.084986 147.221056 
L 76.95544 137.775403 
L 77.825895 132.877853 
L 78.696349 133.331606 
L 80.437259 101.804888 
L 81.307713 100.331359 
L 82.178168 119.835255 
L 83.048622 126.748499 
L 83.919077 113.746841 
L 84.789531 109.994791 
L 85.659986 98.194203 
L 86.53044 91.785331 
L 87.400895 103.589388 
L 88.271349 87.662822 
L 89.141804 87.629459 
L 90.012259 92.755807 
L 90.882713 88.166676 
L 91.753168 91.862066 
L 92.623622 73.099332 
L 93.494077 99.974654 
L 94.364531 87.566291 
L 95.234986 92.098232 
L 96.10544 79.130615 
L 96.975895 86.928043 
L 97.846349 90.762771 
L 98.716804 71.203336 
L 99.587259 76.62383 
L 100.457713 88.16213 
L 101.328168 71.825158 
L 102.198622 75.654495 
L 103.069077 92.148692 
L 103.939531 73.235391 
L 104.809986 74.320898 
L 105.68044 90.526792 
L 106.550895 77.77558 
L 107.421349 82.187468 
L 108.291804 66.110138 
L 109.162259 78.233212 
L 110.032713 73.495575 
L 110.903168 72.978122 
L 111.773622 68.979456 
L 112.644077 65.53692 
L 113.514531 76.23056 
L 114.384986 79.580939 
L 115.25544 68.142612 
L 116.125895 80.068125 
L 116.996349 65.240936 
L 117.866804 63.957316 
L 118.737259 61.03359 
L 119.607713 56.109467 
L 120.478168 64.570222 
L 121.348622 81.699964 
L 122.219077 60.595367 
L 123.089531 51.673503 
L 123.959986 59.74935 
L 124.83044 46.23202 
L 125.700895 69.079594 
L 126.571349 63.23569 
L 127.441804 68.630715 
L 128.312259 68.626167 
L 129.182713 62.555619 
L 130.053168 59.181839 
L 130.923622 67.294955 
L 131.794077 61.923645 
L 132.664531 64.923927 
L 133.534986 62.147564 
L 134.40544 51.408368 
L 135.275895 53.783468 
L 136.146349 60.919937 
L 137.016804 55.711833 
L 137.887259 59.066973 
L 138.757713 59.842297 
L 139.628168 56.623786 
L 140.498622 66.713384 
L 141.369077 62.451439 
L 142.239531 64.796456 
L 143.109986 60.259888 
L 143.98044 63.047048 
L 144.850895 58.727765 
L 145.721349 55.991286 
L 146.591804 64.109971 
L 147.462259 56.994729 
L 148.332713 63.083329 
L 149.203168 66.136962 
L 150.073622 52.252195 
L 150.944077 53.243693 
L 151.814531 48.826561 
L 152.684986 63.974179 
L 153.55544 69.675977 
L 154.425895 65.896524 
L 155.296349 63.140438 
L 156.166804 50.318616 
L 157.037259 47.564892 
L 157.907713 61.04273 
L 158.778168 61.873032 
L 159.648622 53.818921 
L 160.519077 62.126522 
L 161.389531 60.774889 
L 162.259986 60.279333 
L 163.13044 55.483222 
L 164.000895 61.434059 
L 164.871349 65.716641 
L 165.741804 61.090216 
L 166.612259 47.39268 
L 167.482713 59.435656 
L 168.353168 62.517858 
L 169.223622 59.916224 
L 170.094077 51.529904 
L 170.964531 53.795822 
L 171.834986 69.330741 
L 172.70544 47.986698 
L 173.575895 52.928625 
L 174.446349 65.189252 
L 175.316804 50.894461 
L 176.187259 61.140845 
L 177.057713 57.298332 
L 177.928168 62.600966 
L 178.798622 58.405851 
L 179.669077 53.064627 
L 180.539531 59.160497 
L 181.409986 61.767275 
L 183.150895 51.269401 
L 184.021349 59.727198 
L 184.891804 50.426442 
L 185.762259 60.714418 
L 186.632713 56.571665 
L 187.503168 61.406907 
L 188.373622 50.899662 
L 189.244077 62.518416 
L 190.114531 54.505664 
L 190.984986 57.444232 
L 191.85544 56.630627 
L 192.725895 47.732132 
L 193.596349 48.191222 
L 194.466804 52.694765 
L 195.337259 60.523587 
L 196.207713 50.642956 
L 197.078168 54.177214 
L 197.948622 59.709449 
L 198.819077 56.030246 
L 199.689531 57.354563 
L 200.559986 51.041326 
L 201.43044 45.652773 
L 202.300895 49.661674 
L 203.171349 52.927494 
L 204.041804 49.504857 
L 204.912259 50.65026 
L 205.782713 49.406098 
L 206.653168 48.939661 
L 207.523622 52.60803 
L 208.394077 49.208513 
L 209.264531 46.944703 
L 210.134986 59.370773 
L 211.00544 42.603222 
L 211.875895 57.347748 
L 212.746349 53.511793 
L 213.616804 50.281264 
L 214.487259 45.682986 
L 215.357713 46.169971 
L 216.228168 54.448154 
L 217.098622 53.322023 
L 217.969077 47.843803 
L 218.839531 47.315724 
L 219.709986 54.914065 
L 220.58044 52.824863 
L 221.450895 47.984269 
L 222.321349 52.936738 
L 223.191804 63.96709 
L 224.062259 59.018142 
L 224.932713 56.291945 
L 225.803168 54.477569 
L 226.673622 43.915348 
L 227.544077 64.70445 
L 228.414531 49.683514 
L 229.284986 49.462321 
L 230.15544 50.820718 
L 231.025895 54.829151 
L 231.896349 59.483828 
L 232.766804 54.483521 
L 233.637259 39.868886 
L 234.507713 46.815529 
L 235.378168 45.045102 
L 236.248622 48.874871 
L 237.119077 48.193703 
L 237.989531 58.253229 
L 238.859986 53.798413 
L 238.859986 53.798413 
" style="fill:none;stroke:#4c72b0;stroke-linecap:round;stroke-width:1.75;"/>
   </g>
   <g id="line2d_24">
    <path clip-path="url(#p07ca4a7c1a)" d="M 64.769077 208.99483 
L 65.639531 204.022033 
L 66.509986 200.73737 
L 68.250895 197.903382 
L 69.121349 194.763443 
L 69.991804 192.752902 
L 70.862259 186.325005 
L 71.732713 181.890311 
L 72.603168 173.007727 
L 74.344077 148.331316 
L 75.214531 152.592629 
L 76.084986 135.909108 
L 76.95544 156.78743 
L 77.825895 131.388454 
L 78.696349 148.986295 
L 79.566804 122.748359 
L 80.437259 105.064863 
L 81.307713 120.483216 
L 82.178168 112.54308 
L 83.048622 94.121919 
L 83.919077 97.788383 
L 84.789531 110.822207 
L 85.659986 86.394093 
L 86.53044 90.124591 
L 87.400895 89.524565 
L 88.271349 91.861628 
L 89.141804 80.381847 
L 90.012259 85.277343 
L 90.882713 84.981884 
L 91.753168 84.407993 
L 92.623622 104.08756 
L 93.494077 76.807577 
L 94.364531 64.444317 
L 95.234986 82.098942 
L 96.10544 68.572211 
L 96.975895 74.732859 
L 97.846349 77.681888 
L 98.716804 87.404085 
L 99.587259 79.166771 
L 100.457713 73.141094 
L 101.328168 71.497453 
L 102.198622 69.29617 
L 103.069077 70.577573 
L 103.939531 73.612889 
L 104.809986 85.854289 
L 105.68044 80.569556 
L 106.550895 72.194883 
L 107.421349 59.001032 
L 108.291804 66.485187 
L 109.162259 58.151869 
L 110.032713 65.571029 
L 110.903168 56.314278 
L 111.773622 60.104936 
L 112.644077 69.665073 
L 113.514531 53.513312 
L 114.384986 58.102433 
L 115.25544 67.425597 
L 116.125895 47.02308 
L 116.996349 64.509628 
L 117.866804 54.470479 
L 118.737259 61.471399 
L 119.607713 54.943387 
L 120.478168 53.194184 
L 121.348622 48.177878 
L 122.219077 65.639813 
L 123.089531 63.356804 
L 123.959986 65.192082 
L 124.83044 54.654047 
L 125.700895 51.865276 
L 126.571349 61.232552 
L 127.441804 53.722529 
L 128.312259 48.392989 
L 129.182713 52.046146 
L 130.053168 62.218994 
L 130.923622 45.86196 
L 131.794077 62.530103 
L 132.664531 61.194869 
L 133.534986 43.664842 
L 134.40544 49.920621 
L 135.275895 53.2519 
L 136.146349 45.251131 
L 137.016804 52.903512 
L 137.887259 56.025673 
L 138.757713 52.934575 
L 139.628168 46.342032 
L 140.498622 45.661059 
L 141.369077 56.541749 
L 142.239531 58.357952 
L 143.109986 59.097153 
L 143.98044 65.261059 
L 144.850895 54.92581 
L 145.721349 56.514491 
L 146.591804 49.834397 
L 148.332713 54.849538 
L 149.203168 54.593111 
L 150.073622 51.234498 
L 150.944077 57.947364 
L 151.814531 52.200729 
L 152.684986 49.374616 
L 153.55544 51.327316 
L 154.425895 54.504713 
L 155.296349 49.066783 
L 156.166804 51.186194 
L 157.037259 44.578112 
L 157.907713 51.812103 
L 158.778168 47.616093 
L 159.648622 56.872856 
L 160.519077 47.839184 
L 161.389531 43.163872 
L 162.259986 52.745722 
L 163.13044 54.329055 
L 164.000895 49.806635 
L 164.871349 62.787582 
L 165.741804 46.322214 
L 166.612259 58.142449 
L 167.482713 43.019575 
L 168.353168 47.688242 
L 169.223622 47.319023 
L 170.094077 48.3686 
L 170.964531 57.327451 
L 171.834986 44.818214 
L 172.70544 55.185811 
L 173.575895 53.110201 
L 174.446349 47.133897 
L 175.316804 56.646127 
L 176.187259 46.767482 
L 177.057713 50.232704 
L 177.928168 43.095568 
L 178.798622 54.730061 
L 179.669077 50.562658 
L 181.409986 46.080946 
L 182.28044 46.239737 
L 183.150895 57.389964 
L 184.021349 47.62105 
L 184.891804 56.103143 
L 185.762259 48.15323 
L 186.632713 54.513237 
L 187.503168 48.492524 
L 188.373622 44.22062 
L 189.244077 46.661031 
L 190.114531 49.785336 
L 190.984986 54.760424 
L 191.85544 45.132535 
L 192.725895 46.338007 
L 193.596349 50.485314 
L 194.466804 47.739459 
L 195.337259 55.805023 
L 196.207713 44.598013 
L 197.078168 50.384785 
L 197.948622 49.445846 
L 198.819077 51.203218 
L 199.689531 31.805009 
L 200.559986 54.592997 
L 201.43044 49.593478 
L 202.300895 49.178391 
L 203.171349 51.680397 
L 204.041804 44.616111 
L 204.912259 49.969149 
L 205.782713 51.589444 
L 206.653168 56.523443 
L 207.523622 48.737214 
L 208.394077 50.840546 
L 209.264531 48.785522 
L 210.134986 47.743754 
L 211.00544 49.652702 
L 211.875895 57.644298 
L 212.746349 46.746544 
L 213.616804 47.822705 
L 214.487259 45.59843 
L 215.357713 50.76408 
L 216.228168 60.312975 
L 217.098622 40.836993 
L 217.969077 41.663481 
L 218.839531 55.14453 
L 219.709986 49.935794 
L 220.58044 50.28192 
L 221.450895 61.310358 
L 222.321349 61.976002 
L 223.191804 49.425814 
L 224.062259 48.078133 
L 224.932713 45.465669 
L 225.803168 55.877305 
L 226.673622 56.385262 
L 227.544077 51.351441 
L 228.414531 49.67121 
L 229.284986 53.868174 
L 230.15544 53.604706 
L 231.025895 42.889072 
L 231.896349 50.74824 
L 232.766804 51.468972 
L 233.637259 48.688827 
L 234.507713 50.252657 
L 235.378168 48.152939 
L 236.248622 50.256958 
L 237.119077 53.336557 
L 237.989531 54.581286 
L 238.859986 48.307211 
L 238.859986 48.307211 
" style="fill:none;stroke:#55a868;stroke-linecap:round;stroke-width:1.75;"/>
   </g>
   <g id="line2d_25">
    <path clip-path="url(#p07ca4a7c1a)" d="M 64.769077 30.70392 
L 238.859986 30.70392 
" style="fill:none;stroke:#c44e52;stroke-linecap:round;stroke-width:1.75;"/>
   </g>
   <g id="patch_3">
    <path d="M 56.064531 217.909375 
L 56.064531 21.789375 
" style="fill:none;"/>
   </g>
   <g id="patch_4">
    <path d="M 247.564531 217.909375 
L 247.564531 21.789375 
" style="fill:none;"/>
   </g>
   <g id="patch_5">
    <path d="M 56.064531 217.909375 
L 247.564531 217.909375 
" style="fill:none;"/>
   </g>
   <g id="patch_6">
    <path d="M 56.064531 21.789375 
L 247.564531 21.789375 
" style="fill:none;"/>
   </g>
   <g id="text_14">
    <!-- Humanoid -->
    <defs>
     <path d="M 8.015625 0 
L 8.015625 71.578125 
L 17.484375 71.578125 
L 17.484375 42.1875 
L 54.6875 42.1875 
L 54.6875 71.578125 
L 64.15625 71.578125 
L 64.15625 0 
L 54.6875 0 
L 54.6875 33.734375 
L 17.484375 33.734375 
L 17.484375 0 
z
" id="ArialMT-72"/>
     <path d="M 40.578125 0 
L 40.578125 7.625 
Q 34.515625 -1.171875 24.125 -1.171875 
Q 19.53125 -1.171875 15.546875 0.578125 
Q 11.578125 2.34375 9.640625 5 
Q 7.71875 7.671875 6.9375 11.53125 
Q 6.390625 14.109375 6.390625 19.734375 
L 6.390625 51.859375 
L 15.1875 51.859375 
L 15.1875 23.09375 
Q 15.1875 16.21875 15.71875 13.8125 
Q 16.546875 10.359375 19.234375 8.375 
Q 21.921875 6.390625 25.875 6.390625 
Q 29.828125 6.390625 33.296875 8.421875 
Q 36.765625 10.453125 38.203125 13.9375 
Q 39.65625 17.4375 39.65625 24.078125 
L 39.65625 51.859375 
L 48.4375 51.859375 
L 48.4375 0 
z
" id="ArialMT-117"/>
     <path d="M 6.59375 0 
L 6.59375 51.859375 
L 14.453125 51.859375 
L 14.453125 44.578125 
Q 16.890625 48.390625 20.9375 50.703125 
Q 25 53.03125 30.171875 53.03125 
Q 35.9375 53.03125 39.625 50.640625 
Q 43.3125 48.25 44.828125 43.953125 
Q 50.984375 53.03125 60.84375 53.03125 
Q 68.5625 53.03125 72.703125 48.75 
Q 76.859375 44.484375 76.859375 35.59375 
L 76.859375 0 
L 68.109375 0 
L 68.109375 32.671875 
Q 68.109375 37.9375 67.25 40.25 
Q 66.40625 42.578125 64.15625 43.984375 
Q 61.921875 45.40625 58.890625 45.40625 
Q 53.421875 45.40625 49.796875 41.765625 
Q 46.1875 38.140625 46.1875 30.125 
L 46.1875 0 
L 37.40625 0 
L 37.40625 33.6875 
Q 37.40625 39.546875 35.25 42.46875 
Q 33.109375 45.40625 28.21875 45.40625 
Q 24.515625 45.40625 21.359375 43.453125 
Q 18.21875 41.5 16.796875 37.734375 
Q 15.375 33.984375 15.375 26.90625 
L 15.375 0 
z
" id="ArialMT-109"/>
     <path d="M 40.4375 6.390625 
Q 35.546875 2.25 31.03125 0.53125 
Q 26.515625 -1.171875 21.34375 -1.171875 
Q 12.796875 -1.171875 8.203125 3 
Q 3.609375 7.171875 3.609375 13.671875 
Q 3.609375 17.484375 5.34375 20.625 
Q 7.078125 23.78125 9.890625 25.6875 
Q 12.703125 27.59375 16.21875 28.5625 
Q 18.796875 29.25 24.03125 29.890625 
Q 34.671875 31.15625 39.703125 32.90625 
Q 39.75 34.71875 39.75 35.203125 
Q 39.75 40.578125 37.25 42.78125 
Q 33.890625 45.75 27.25 45.75 
Q 21.046875 45.75 18.09375 43.578125 
Q 15.140625 41.40625 13.71875 35.890625 
L 5.125 37.0625 
Q 6.296875 42.578125 8.984375 45.96875 
Q 11.671875 49.359375 16.75 51.1875 
Q 21.828125 53.03125 28.515625 53.03125 
Q 35.15625 53.03125 39.296875 51.46875 
Q 43.453125 49.90625 45.40625 47.53125 
Q 47.359375 45.171875 48.140625 41.546875 
Q 48.578125 39.3125 48.578125 33.453125 
L 48.578125 21.734375 
Q 48.578125 9.46875 49.140625 6.21875 
Q 49.703125 2.984375 51.375 0 
L 42.1875 0 
Q 40.828125 2.734375 40.4375 6.390625 
z
M 39.703125 26.03125 
Q 34.90625 24.078125 25.34375 22.703125 
Q 19.921875 21.921875 17.671875 20.9375 
Q 15.4375 19.96875 14.203125 18.09375 
Q 12.984375 16.21875 12.984375 13.921875 
Q 12.984375 10.40625 15.640625 8.0625 
Q 18.3125 5.71875 23.4375 5.71875 
Q 28.515625 5.71875 32.46875 7.9375 
Q 36.421875 10.15625 38.28125 14.015625 
Q 39.703125 17 39.703125 22.796875 
z
" id="ArialMT-97"/>
     <path d="M 6.59375 0 
L 6.59375 51.859375 
L 14.5 51.859375 
L 14.5 44.484375 
Q 20.21875 53.03125 31 53.03125 
Q 35.6875 53.03125 39.625 51.34375 
Q 43.5625 49.65625 45.515625 46.921875 
Q 47.46875 44.1875 48.25 40.4375 
Q 48.734375 37.984375 48.734375 31.890625 
L 48.734375 0 
L 39.9375 0 
L 39.9375 31.546875 
Q 39.9375 36.921875 38.90625 39.578125 
Q 37.890625 42.234375 35.28125 43.8125 
Q 32.671875 45.40625 29.15625 45.40625 
Q 23.53125 45.40625 19.453125 41.84375 
Q 15.375 38.28125 15.375 28.328125 
L 15.375 0 
z
" id="ArialMT-110"/>
     <path d="M 6.640625 61.46875 
L 6.640625 71.578125 
L 15.4375 71.578125 
L 15.4375 61.46875 
z
M 6.640625 0 
L 6.640625 51.859375 
L 15.4375 51.859375 
L 15.4375 0 
z
" id="ArialMT-105"/>
     <path d="M 40.234375 0 
L 40.234375 6.546875 
Q 35.296875 -1.171875 25.734375 -1.171875 
Q 19.53125 -1.171875 14.328125 2.25 
Q 9.125 5.671875 6.265625 11.796875 
Q 3.421875 17.921875 3.421875 25.875 
Q 3.421875 33.640625 6 39.96875 
Q 8.59375 46.296875 13.765625 49.65625 
Q 18.953125 53.03125 25.34375 53.03125 
Q 30.03125 53.03125 33.6875 51.046875 
Q 37.359375 49.078125 39.65625 45.90625 
L 39.65625 71.578125 
L 48.390625 71.578125 
L 48.390625 0 
z
M 12.453125 25.875 
Q 12.453125 15.921875 16.640625 10.984375 
Q 20.84375 6.0625 26.5625 6.0625 
Q 32.328125 6.0625 36.34375 10.765625 
Q 40.375 15.484375 40.375 25.140625 
Q 40.375 35.796875 36.265625 40.765625 
Q 32.171875 45.75 26.171875 45.75 
Q 20.3125 45.75 16.375 40.96875 
Q 12.453125 36.1875 12.453125 25.875 
z
" id="ArialMT-100"/>
    </defs>
    <g style="fill:#262626;" transform="translate(124.467656 15.789375)scale(0.12 -0.12)">
     <use xlink:href="#ArialMT-72"/>
     <use x="72.216797" xlink:href="#ArialMT-117"/>
     <use x="127.832031" xlink:href="#ArialMT-109"/>
     <use x="211.132812" xlink:href="#ArialMT-97"/>
     <use x="266.748047" xlink:href="#ArialMT-110"/>
     <use x="322.363281" xlink:href="#ArialMT-111"/>
     <use x="377.978516" xlink:href="#ArialMT-105"/>
     <use x="400.195312" xlink:href="#ArialMT-100"/>
    </g>
   </g>
   <g id="legend_1">
    <g id="line2d_26">
     <path d="M 176.659844 175.014063 
L 196.659844 175.014063 
" style="fill:none;stroke:#4c72b0;stroke-linecap:round;stroke-width:1.75;"/>
    </g>
    <g id="line2d_27"/>
    <g id="text_15">
     <!-- BC -->
     <defs>
      <path d="M 7.328125 0 
L 7.328125 71.578125 
L 34.1875 71.578125 
Q 42.390625 71.578125 47.34375 69.40625 
Q 52.296875 67.234375 55.09375 62.71875 
Q 57.90625 58.203125 57.90625 53.265625 
Q 57.90625 48.6875 55.421875 44.625 
Q 52.9375 40.578125 47.90625 38.09375 
Q 54.390625 36.1875 57.875 31.59375 
Q 61.375 27 61.375 20.75 
Q 61.375 15.71875 59.25 11.390625 
Q 57.125 7.078125 54 4.734375 
Q 50.875 2.390625 46.15625 1.1875 
Q 41.453125 0 34.625 0 
z
M 16.796875 41.5 
L 32.28125 41.5 
Q 38.578125 41.5 41.3125 42.328125 
Q 44.921875 43.40625 46.75 45.890625 
Q 48.578125 48.390625 48.578125 52.15625 
Q 48.578125 55.71875 46.875 58.421875 
Q 45.171875 61.140625 41.984375 62.140625 
Q 38.8125 63.140625 31.109375 63.140625 
L 16.796875 63.140625 
z
M 16.796875 8.453125 
L 34.625 8.453125 
Q 39.203125 8.453125 41.0625 8.796875 
Q 44.34375 9.375 46.53125 10.734375 
Q 48.734375 12.109375 50.140625 14.71875 
Q 51.5625 17.328125 51.5625 20.75 
Q 51.5625 24.75 49.515625 27.703125 
Q 47.46875 30.671875 43.828125 31.859375 
Q 40.1875 33.0625 33.34375 33.0625 
L 16.796875 33.0625 
z
" id="ArialMT-66"/>
      <path d="M 58.796875 25.09375 
L 68.265625 22.703125 
Q 65.28125 11.03125 57.546875 4.90625 
Q 49.8125 -1.21875 38.625 -1.21875 
Q 27.046875 -1.21875 19.796875 3.484375 
Q 12.546875 8.203125 8.765625 17.140625 
Q 4.984375 26.078125 4.984375 36.328125 
Q 4.984375 47.515625 9.25 55.828125 
Q 13.53125 64.15625 21.40625 68.46875 
Q 29.296875 72.796875 38.765625 72.796875 
Q 49.515625 72.796875 56.828125 67.328125 
Q 64.15625 61.859375 67.046875 51.953125 
L 57.71875 49.75 
Q 55.21875 57.5625 50.484375 61.125 
Q 45.75 64.703125 38.578125 64.703125 
Q 30.328125 64.703125 24.78125 60.734375 
Q 19.234375 56.78125 16.984375 50.109375 
Q 14.75 43.453125 14.75 36.375 
Q 14.75 27.25 17.40625 20.4375 
Q 20.0625 13.625 25.671875 10.25 
Q 31.296875 6.890625 37.84375 6.890625 
Q 45.796875 6.890625 51.3125 11.46875 
Q 56.84375 16.0625 58.796875 25.09375 
z
" id="ArialMT-67"/>
     </defs>
     <g style="fill:#262626;" transform="translate(204.659844 178.514063)scale(0.1 -0.1)">
      <use xlink:href="#ArialMT-66"/>
      <use x="66.699219" xlink:href="#ArialMT-67"/>
     </g>
    </g>
    <g id="line2d_28">
     <path d="M 176.659844 189.159375 
L 196.659844 189.159375 
" style="fill:none;stroke:#55a868;stroke-linecap:round;stroke-width:1.75;"/>
    </g>
    <g id="line2d_29"/>
    <g id="text_16">
     <!-- DAgger -->
     <defs>
      <path d="M 7.71875 0 
L 7.71875 71.578125 
L 32.375 71.578125 
Q 40.71875 71.578125 45.125 70.5625 
Q 51.265625 69.140625 55.609375 65.4375 
Q 61.28125 60.640625 64.078125 53.1875 
Q 66.890625 45.75 66.890625 36.1875 
Q 66.890625 28.03125 64.984375 21.734375 
Q 63.09375 15.4375 60.109375 11.296875 
Q 57.125 7.171875 53.578125 4.796875 
Q 50.046875 2.4375 45.046875 1.21875 
Q 40.046875 0 33.546875 0 
z
M 17.1875 8.453125 
L 32.46875 8.453125 
Q 39.546875 8.453125 43.578125 9.765625 
Q 47.609375 11.078125 50 13.484375 
Q 53.375 16.84375 55.25 22.53125 
Q 57.125 28.21875 57.125 36.328125 
Q 57.125 47.5625 53.4375 53.59375 
Q 49.75 59.625 44.484375 61.671875 
Q 40.671875 63.140625 32.234375 63.140625 
L 17.1875 63.140625 
z
" id="ArialMT-68"/>
      <path d="M -0.140625 0 
L 27.34375 71.578125 
L 37.546875 71.578125 
L 66.84375 0 
L 56.0625 0 
L 47.703125 21.6875 
L 17.78125 21.6875 
L 9.90625 0 
z
M 20.515625 29.390625 
L 44.78125 29.390625 
L 37.3125 49.21875 
Q 33.890625 58.25 32.234375 64.0625 
Q 30.859375 57.171875 28.375 50.390625 
z
" id="ArialMT-65"/>
      <path d="M 4.984375 -4.296875 
L 13.53125 -5.5625 
Q 14.0625 -9.515625 16.5 -11.328125 
Q 19.78125 -13.765625 25.4375 -13.765625 
Q 31.546875 -13.765625 34.859375 -11.328125 
Q 38.1875 -8.890625 39.359375 -4.5 
Q 40.046875 -1.8125 39.984375 6.78125 
Q 34.234375 0 25.640625 0 
Q 14.9375 0 9.078125 7.71875 
Q 3.21875 15.4375 3.21875 26.21875 
Q 3.21875 33.640625 5.90625 39.90625 
Q 8.59375 46.1875 13.6875 49.609375 
Q 18.796875 53.03125 25.6875 53.03125 
Q 34.859375 53.03125 40.828125 45.609375 
L 40.828125 51.859375 
L 48.921875 51.859375 
L 48.921875 7.03125 
Q 48.921875 -5.078125 46.453125 -10.125 
Q 44 -15.1875 38.640625 -18.109375 
Q 33.296875 -21.046875 25.484375 -21.046875 
Q 16.21875 -21.046875 10.5 -16.875 
Q 4.78125 -12.703125 4.984375 -4.296875 
z
M 12.25 26.859375 
Q 12.25 16.65625 16.296875 11.96875 
Q 20.359375 7.28125 26.46875 7.28125 
Q 32.515625 7.28125 36.609375 11.9375 
Q 40.71875 16.609375 40.71875 26.5625 
Q 40.71875 36.078125 36.5 40.90625 
Q 32.28125 45.75 26.3125 45.75 
Q 20.453125 45.75 16.34375 40.984375 
Q 12.25 36.234375 12.25 26.859375 
z
" id="ArialMT-103"/>
     </defs>
     <g style="fill:#262626;" transform="translate(204.659844 192.659375)scale(0.1 -0.1)">
      <use xlink:href="#ArialMT-68"/>
      <use x="72.216797" xlink:href="#ArialMT-65"/>
      <use x="138.916016" xlink:href="#ArialMT-103"/>
      <use x="194.53125" xlink:href="#ArialMT-103"/>
      <use x="250.146484" xlink:href="#ArialMT-101"/>
      <use x="305.761719" xlink:href="#ArialMT-114"/>
     </g>
    </g>
    <g id="line2d_30">
     <path d="M 176.659844 203.421875 
L 196.659844 203.421875 
" style="fill:none;stroke:#c44e52;stroke-linecap:round;stroke-width:1.75;"/>
    </g>
    <g id="line2d_31"/>
    <g id="text_17">
     <!-- Expert -->
     <defs>
      <path d="M 0.734375 0 
L 19.671875 26.953125 
L 2.15625 51.859375 
L 13.140625 51.859375 
L 21.09375 39.703125 
Q 23.34375 36.234375 24.703125 33.890625 
Q 26.859375 37.109375 28.65625 39.59375 
L 37.40625 51.859375 
L 47.90625 51.859375 
L 29.984375 27.4375 
L 49.265625 0 
L 38.484375 0 
L 27.828125 16.109375 
L 25 20.453125 
L 11.375 0 
z
" id="ArialMT-120"/>
      <path d="M 25.78125 7.859375 
L 27.046875 0.09375 
Q 23.34375 -0.6875 20.40625 -0.6875 
Q 15.625 -0.6875 12.984375 0.828125 
Q 10.359375 2.34375 9.28125 4.8125 
Q 8.203125 7.28125 8.203125 15.1875 
L 8.203125 45.015625 
L 1.765625 45.015625 
L 1.765625 51.859375 
L 8.203125 51.859375 
L 8.203125 64.703125 
L 16.9375 69.96875 
L 16.9375 51.859375 
L 25.78125 51.859375 
L 25.78125 45.015625 
L 16.9375 45.015625 
L 16.9375 14.703125 
Q 16.9375 10.9375 17.40625 9.859375 
Q 17.875 8.796875 18.921875 8.15625 
Q 19.96875 7.515625 21.921875 7.515625 
Q 23.390625 7.515625 25.78125 7.859375 
z
" id="ArialMT-116"/>
     </defs>
     <g style="fill:#262626;" transform="translate(204.659844 206.921875)scale(0.1 -0.1)">
      <use xlink:href="#ArialMT-69"/>
      <use x="66.699219" xlink:href="#ArialMT-120"/>
      <use x="116.699219" xlink:href="#ArialMT-112"/>
      <use x="172.314453" xlink:href="#ArialMT-101"/>
      <use x="227.929688" xlink:href="#ArialMT-114"/>
      <use x="261.230469" xlink:href="#ArialMT-116"/>
     </g>
    </g>
   </g>
  </g>
 </g>
 <defs>
  <clipPath id="p07ca4a7c1a">
   <rect height="196.12" width="191.5" x="56.064531" y="21.789375"/>
  </clipPath>
 </defs>
</svg>
