<?xml version="1.0" encoding="utf-8" standalone="no"?>
<!DOCTYPE svg PUBLIC "-//W3C//DTD SVG 1.1//EN"
  "http://www.w3.org/Graphics/SVG/1.1/DTD/svg11.dtd">
<!-- Created with matplotlib (https://matplotlib.org/) -->
<svg height="255.314531pt" version="1.1" viewBox="0 0 254.812344 255.314531" width="254.812344pt" xmlns="http://www.w3.org/2000/svg" xmlns:xlink="http://www.w3.org/1999/xlink">
 <defs>
  <style type="text/css">
*{stroke-linecap:butt;stroke-linejoin:round;}
  </style>
 </defs>
 <g id="figure_1">
  <g id="patch_1">
   <path d="M 0 255.314531 
L 254.812344 255.314531 
L 254.812344 0 
L 0 0 
z
" style="fill:#ffffff;"/>
  </g>
  <g id="axes_1">
   <g id="patch_2">
    <path d="M 45.222344 217.909375 
L 247.612344 217.909375 
L 247.612344 21.789375 
L 45.222344 21.789375 
z
" style="fill:#eaeaf2;"/>
   </g>
   <g id="matplotlib.axis_1">
    <g id="xtick_1">
     <g id="line2d_1">
      <path clip-path="url(#p8aa31def6f)" d="M 54.421889 217.909375 
L 54.421889 21.789375 
" style="fill:none;stroke:#ffffff;stroke-linecap:round;"/>
     </g>
     <g id="line2d_2"/>
     <g id="text_1">
      <!-- 0 -->
      <defs>
       <path d="M 4.15625 35.296875 
Q 4.15625 48 6.765625 55.734375 
Q 9.375 63.484375 14.515625 67.671875 
Q 19.671875 71.875 27.484375 71.875 
Q 33.25 71.875 37.59375 69.546875 
Q 41.9375 67.234375 44.765625 62.859375 
Q 47.609375 58.5 49.21875 52.21875 
Q 50.828125 45.953125 50.828125 35.296875 
Q 50.828125 22.703125 48.234375 14.96875 
Q 45.65625 7.234375 40.5 3 
Q 35.359375 -1.21875 27.484375 -1.21875 
Q 17.140625 -1.21875 11.234375 6.203125 
Q 4.15625 15.140625 4.15625 35.296875 
z
M 13.1875 35.296875 
Q 13.1875 17.671875 17.3125 11.828125 
Q 21.4375 6 27.484375 6 
Q 33.546875 6 37.671875 11.859375 
Q 41.796875 17.71875 41.796875 35.296875 
Q 41.796875 52.984375 37.671875 58.78125 
Q 33.546875 64.59375 27.390625 64.59375 
Q 21.34375 64.59375 17.71875 59.46875 
Q 13.1875 52.9375 13.1875 35.296875 
z
" id="ArialMT-48"/>
      </defs>
      <g style="fill:#262626;" transform="translate(51.64142 232.067188)scale(0.1 -0.1)">
       <use xlink:href="#ArialMT-48"/>
      </g>
     </g>
    </g>
    <g id="xtick_2">
     <g id="line2d_3">
      <path clip-path="url(#p8aa31def6f)" d="M 100.419616 217.909375 
L 100.419616 21.789375 
" style="fill:none;stroke:#ffffff;stroke-linecap:round;"/>
     </g>
     <g id="line2d_4"/>
     <g id="text_2">
      <!-- 50 -->
      <defs>
       <path d="M 4.15625 18.75 
L 13.375 19.53125 
Q 14.40625 12.796875 18.140625 9.390625 
Q 21.875 6 27.15625 6 
Q 33.5 6 37.890625 10.78125 
Q 42.28125 15.578125 42.28125 23.484375 
Q 42.28125 31 38.0625 35.34375 
Q 33.84375 39.703125 27 39.703125 
Q 22.75 39.703125 19.328125 37.765625 
Q 15.921875 35.84375 13.96875 32.765625 
L 5.71875 33.84375 
L 12.640625 70.609375 
L 48.25 70.609375 
L 48.25 62.203125 
L 19.671875 62.203125 
L 15.828125 42.96875 
Q 22.265625 47.46875 29.34375 47.46875 
Q 38.71875 47.46875 45.15625 40.96875 
Q 51.609375 34.46875 51.609375 24.265625 
Q 51.609375 14.546875 45.953125 7.46875 
Q 39.0625 -1.21875 27.15625 -1.21875 
Q 17.390625 -1.21875 11.203125 4.25 
Q 5.03125 9.71875 4.15625 18.75 
z
" id="ArialMT-53"/>
      </defs>
      <g style="fill:#262626;" transform="translate(94.858679 232.067188)scale(0.1 -0.1)">
       <use xlink:href="#ArialMT-53"/>
       <use x="55.615234" xlink:href="#ArialMT-48"/>
      </g>
     </g>
    </g>
    <g id="xtick_3">
     <g id="line2d_5">
      <path clip-path="url(#p8aa31def6f)" d="M 146.417344 217.909375 
L 146.417344 21.789375 
" style="fill:none;stroke:#ffffff;stroke-linecap:round;"/>
     </g>
     <g id="line2d_6"/>
     <g id="text_3">
      <!-- 100 -->
      <defs>
       <path d="M 37.25 0 
L 28.46875 0 
L 28.46875 56 
Q 25.296875 52.984375 20.140625 49.953125 
Q 14.984375 46.921875 10.890625 45.40625 
L 10.890625 53.90625 
Q 18.265625 57.375 23.78125 62.296875 
Q 29.296875 67.234375 31.59375 71.875 
L 37.25 71.875 
z
" id="ArialMT-49"/>
      </defs>
      <g style="fill:#262626;" transform="translate(138.075938 232.067188)scale(0.1 -0.1)">
       <use xlink:href="#ArialMT-49"/>
       <use x="55.615234" xlink:href="#ArialMT-48"/>
       <use x="111.230469" xlink:href="#ArialMT-48"/>
      </g>
     </g>
    </g>
    <g id="xtick_4">
     <g id="line2d_7">
      <path clip-path="url(#p8aa31def6f)" d="M 192.415071 217.909375 
L 192.415071 21.789375 
" style="fill:none;stroke:#ffffff;stroke-linecap:round;"/>
     </g>
     <g id="line2d_8"/>
     <g id="text_4">
      <!-- 150 -->
      <g style="fill:#262626;" transform="translate(184.073665 232.067188)scale(0.1 -0.1)">
       <use xlink:href="#ArialMT-49"/>
       <use x="55.615234" xlink:href="#ArialMT-53"/>
       <use x="111.230469" xlink:href="#ArialMT-48"/>
      </g>
     </g>
    </g>
    <g id="xtick_5">
     <g id="line2d_9">
      <path clip-path="url(#p8aa31def6f)" d="M 238.412798 217.909375 
L 238.412798 21.789375 
" style="fill:none;stroke:#ffffff;stroke-linecap:round;"/>
     </g>
     <g id="line2d_10"/>
     <g id="text_5">
      <!-- 200 -->
      <defs>
       <path d="M 50.34375 8.453125 
L 50.34375 0 
L 3.03125 0 
Q 2.9375 3.171875 4.046875 6.109375 
Q 5.859375 10.9375 9.828125 15.625 
Q 13.8125 20.3125 21.34375 26.46875 
Q 33.015625 36.03125 37.109375 41.625 
Q 41.21875 47.21875 41.21875 52.203125 
Q 41.21875 57.421875 37.46875 61 
Q 33.734375 64.59375 27.734375 64.59375 
Q 21.390625 64.59375 17.578125 60.78125 
Q 13.765625 56.984375 13.71875 50.25 
L 4.6875 51.171875 
Q 5.609375 61.28125 11.65625 66.578125 
Q 17.71875 71.875 27.9375 71.875 
Q 38.234375 71.875 44.234375 66.15625 
Q 50.25 60.453125 50.25 52 
Q 50.25 47.703125 48.484375 43.546875 
Q 46.734375 39.40625 42.65625 34.8125 
Q 38.578125 30.21875 29.109375 22.21875 
Q 21.1875 15.578125 18.9375 13.203125 
Q 16.703125 10.84375 15.234375 8.453125 
z
" id="ArialMT-50"/>
      </defs>
      <g style="fill:#262626;" transform="translate(230.071392 232.067188)scale(0.1 -0.1)">
       <use xlink:href="#ArialMT-50"/>
       <use x="55.615234" xlink:href="#ArialMT-48"/>
       <use x="111.230469" xlink:href="#ArialMT-48"/>
      </g>
     </g>
    </g>
    <g id="text_6">
     <!-- Epoch -->
     <defs>
      <path d="M 7.90625 0 
L 7.90625 71.578125 
L 59.671875 71.578125 
L 59.671875 63.140625 
L 17.390625 63.140625 
L 17.390625 41.21875 
L 56.984375 41.21875 
L 56.984375 32.8125 
L 17.390625 32.8125 
L 17.390625 8.453125 
L 61.328125 8.453125 
L 61.328125 0 
z
" id="ArialMT-69"/>
      <path d="M 6.59375 -19.875 
L 6.59375 51.859375 
L 14.59375 51.859375 
L 14.59375 45.125 
Q 17.4375 49.078125 21 51.046875 
Q 24.5625 53.03125 29.640625 53.03125 
Q 36.28125 53.03125 41.359375 49.609375 
Q 46.4375 46.1875 49.015625 39.953125 
Q 51.609375 33.734375 51.609375 26.3125 
Q 51.609375 18.359375 48.75 11.984375 
Q 45.90625 5.609375 40.453125 2.21875 
Q 35.015625 -1.171875 29 -1.171875 
Q 24.609375 -1.171875 21.109375 0.6875 
Q 17.625 2.546875 15.375 5.375 
L 15.375 -19.875 
z
M 14.546875 25.640625 
Q 14.546875 15.625 18.59375 10.84375 
Q 22.65625 6.0625 28.421875 6.0625 
Q 34.28125 6.0625 38.453125 11.015625 
Q 42.625 15.96875 42.625 26.375 
Q 42.625 36.28125 38.546875 41.203125 
Q 34.46875 46.140625 28.8125 46.140625 
Q 23.1875 46.140625 18.859375 40.890625 
Q 14.546875 35.640625 14.546875 25.640625 
z
" id="ArialMT-112"/>
      <path d="M 3.328125 25.921875 
Q 3.328125 40.328125 11.328125 47.265625 
Q 18.015625 53.03125 27.640625 53.03125 
Q 38.328125 53.03125 45.109375 46.015625 
Q 51.90625 39.015625 51.90625 26.65625 
Q 51.90625 16.65625 48.90625 10.90625 
Q 45.90625 5.171875 40.15625 2 
Q 34.421875 -1.171875 27.640625 -1.171875 
Q 16.75 -1.171875 10.03125 5.8125 
Q 3.328125 12.796875 3.328125 25.921875 
z
M 12.359375 25.921875 
Q 12.359375 15.96875 16.703125 11.015625 
Q 21.046875 6.0625 27.640625 6.0625 
Q 34.1875 6.0625 38.53125 11.03125 
Q 42.875 16.015625 42.875 26.21875 
Q 42.875 35.84375 38.5 40.796875 
Q 34.125 45.75 27.640625 45.75 
Q 21.046875 45.75 16.703125 40.8125 
Q 12.359375 35.890625 12.359375 25.921875 
z
" id="ArialMT-111"/>
      <path d="M 40.4375 19 
L 49.078125 17.875 
Q 47.65625 8.9375 41.8125 3.875 
Q 35.984375 -1.171875 27.484375 -1.171875 
Q 16.84375 -1.171875 10.375 5.78125 
Q 3.90625 12.75 3.90625 25.734375 
Q 3.90625 34.125 6.6875 40.421875 
Q 9.46875 46.734375 15.15625 49.875 
Q 20.84375 53.03125 27.546875 53.03125 
Q 35.984375 53.03125 41.359375 48.75 
Q 46.734375 44.484375 48.25 36.625 
L 39.703125 35.296875 
Q 38.484375 40.53125 35.375 43.15625 
Q 32.28125 45.796875 27.875 45.796875 
Q 21.234375 45.796875 17.078125 41.03125 
Q 12.9375 36.28125 12.9375 25.984375 
Q 12.9375 15.53125 16.9375 10.796875 
Q 20.953125 6.0625 27.390625 6.0625 
Q 32.5625 6.0625 36.03125 9.234375 
Q 39.5 12.40625 40.4375 19 
z
" id="ArialMT-99"/>
      <path d="M 6.59375 0 
L 6.59375 71.578125 
L 15.375 71.578125 
L 15.375 45.90625 
Q 21.53125 53.03125 30.90625 53.03125 
Q 36.671875 53.03125 40.921875 50.75 
Q 45.171875 48.484375 47 44.484375 
Q 48.828125 40.484375 48.828125 32.859375 
L 48.828125 0 
L 40.046875 0 
L 40.046875 32.859375 
Q 40.046875 39.453125 37.1875 42.453125 
Q 34.328125 45.453125 29.109375 45.453125 
Q 25.203125 45.453125 21.75 43.421875 
Q 18.3125 41.40625 16.84375 37.9375 
Q 15.375 34.46875 15.375 28.375 
L 15.375 0 
z
" id="ArialMT-104"/>
     </defs>
     <g style="fill:#262626;" transform="translate(130.823125 245.928281)scale(0.11 -0.11)">
      <use xlink:href="#ArialMT-69"/>
      <use x="66.699219" xlink:href="#ArialMT-112"/>
      <use x="122.314453" xlink:href="#ArialMT-111"/>
      <use x="177.929688" xlink:href="#ArialMT-99"/>
      <use x="227.929688" xlink:href="#ArialMT-104"/>
     </g>
    </g>
   </g>
   <g id="matplotlib.axis_2">
    <g id="ytick_1">
     <g id="line2d_11">
      <path clip-path="url(#p8aa31def6f)" d="M 45.222344 198.962864 
L 247.612344 198.962864 
" style="fill:none;stroke:#ffffff;stroke-linecap:round;"/>
     </g>
     <g id="line2d_12"/>
     <g id="text_7">
      <!-- −60 -->
      <defs>
       <path d="M 52.828125 31.203125 
L 5.5625 31.203125 
L 5.5625 39.40625 
L 52.828125 39.40625 
z
" id="ArialMT-8722"/>
       <path d="M 49.75 54.046875 
L 41.015625 53.375 
Q 39.84375 58.546875 37.703125 60.890625 
Q 34.125 64.65625 28.90625 64.65625 
Q 24.703125 64.65625 21.53125 62.3125 
Q 17.390625 59.28125 14.984375 53.46875 
Q 12.59375 47.65625 12.5 36.921875 
Q 15.671875 41.75 20.265625 44.09375 
Q 24.859375 46.4375 29.890625 46.4375 
Q 38.671875 46.4375 44.84375 39.96875 
Q 51.03125 33.5 51.03125 23.25 
Q 51.03125 16.5 48.125 10.71875 
Q 45.21875 4.9375 40.140625 1.859375 
Q 35.0625 -1.21875 28.609375 -1.21875 
Q 17.625 -1.21875 10.6875 6.859375 
Q 3.765625 14.9375 3.765625 33.5 
Q 3.765625 54.25 11.421875 63.671875 
Q 18.109375 71.875 29.4375 71.875 
Q 37.890625 71.875 43.28125 67.140625 
Q 48.6875 62.40625 49.75 54.046875 
z
M 13.875 23.1875 
Q 13.875 18.65625 15.796875 14.5 
Q 17.71875 10.359375 21.1875 8.171875 
Q 24.65625 6 28.46875 6 
Q 34.03125 6 38.03125 10.484375 
Q 42.046875 14.984375 42.046875 22.703125 
Q 42.046875 30.125 38.078125 34.390625 
Q 34.125 38.671875 28.125 38.671875 
Q 22.171875 38.671875 18.015625 34.390625 
Q 13.875 30.125 13.875 23.1875 
z
" id="ArialMT-54"/>
      </defs>
      <g style="fill:#262626;" transform="translate(21.259844 202.541771)scale(0.1 -0.1)">
       <use xlink:href="#ArialMT-8722"/>
       <use x="58.398438" xlink:href="#ArialMT-54"/>
       <use x="114.013672" xlink:href="#ArialMT-48"/>
      </g>
     </g>
    </g>
    <g id="ytick_2">
     <g id="line2d_13">
      <path clip-path="url(#p8aa31def6f)" d="M 45.222344 168.779982 
L 247.612344 168.779982 
" style="fill:none;stroke:#ffffff;stroke-linecap:round;"/>
     </g>
     <g id="line2d_14"/>
     <g id="text_8">
      <!-- −50 -->
      <g style="fill:#262626;" transform="translate(21.259844 172.358889)scale(0.1 -0.1)">
       <use xlink:href="#ArialMT-8722"/>
       <use x="58.398438" xlink:href="#ArialMT-53"/>
       <use x="114.013672" xlink:href="#ArialMT-48"/>
      </g>
     </g>
    </g>
    <g id="ytick_3">
     <g id="line2d_15">
      <path clip-path="url(#p8aa31def6f)" d="M 45.222344 138.5971 
L 247.612344 138.5971 
" style="fill:none;stroke:#ffffff;stroke-linecap:round;"/>
     </g>
     <g id="line2d_16"/>
     <g id="text_9">
      <!-- −40 -->
      <defs>
       <path d="M 32.328125 0 
L 32.328125 17.140625 
L 1.265625 17.140625 
L 1.265625 25.203125 
L 33.9375 71.578125 
L 41.109375 71.578125 
L 41.109375 25.203125 
L 50.78125 25.203125 
L 50.78125 17.140625 
L 41.109375 17.140625 
L 41.109375 0 
z
M 32.328125 25.203125 
L 32.328125 57.46875 
L 9.90625 25.203125 
z
" id="ArialMT-52"/>
      </defs>
      <g style="fill:#262626;" transform="translate(21.259844 142.176006)scale(0.1 -0.1)">
       <use xlink:href="#ArialMT-8722"/>
       <use x="58.398438" xlink:href="#ArialMT-52"/>
       <use x="114.013672" xlink:href="#ArialMT-48"/>
      </g>
     </g>
    </g>
    <g id="ytick_4">
     <g id="line2d_17">
      <path clip-path="url(#p8aa31def6f)" d="M 45.222344 108.414218 
L 247.612344 108.414218 
" style="fill:none;stroke:#ffffff;stroke-linecap:round;"/>
     </g>
     <g id="line2d_18"/>
     <g id="text_10">
      <!-- −30 -->
      <defs>
       <path d="M 4.203125 18.890625 
L 12.984375 20.0625 
Q 14.5 12.59375 18.140625 9.296875 
Q 21.78125 6 27 6 
Q 33.203125 6 37.46875 10.296875 
Q 41.75 14.59375 41.75 20.953125 
Q 41.75 27 37.796875 30.921875 
Q 33.84375 34.859375 27.734375 34.859375 
Q 25.25 34.859375 21.53125 33.890625 
L 22.515625 41.609375 
Q 23.390625 41.5 23.921875 41.5 
Q 29.546875 41.5 34.03125 44.421875 
Q 38.53125 47.359375 38.53125 53.46875 
Q 38.53125 58.296875 35.25 61.46875 
Q 31.984375 64.65625 26.8125 64.65625 
Q 21.6875 64.65625 18.265625 61.421875 
Q 14.84375 58.203125 13.875 51.765625 
L 5.078125 53.328125 
Q 6.6875 62.15625 12.390625 67.015625 
Q 18.109375 71.875 26.609375 71.875 
Q 32.46875 71.875 37.390625 69.359375 
Q 42.328125 66.84375 44.9375 62.5 
Q 47.5625 58.15625 47.5625 53.265625 
Q 47.5625 48.640625 45.0625 44.828125 
Q 42.578125 41.015625 37.703125 38.765625 
Q 44.046875 37.3125 47.5625 32.6875 
Q 51.078125 28.078125 51.078125 21.140625 
Q 51.078125 11.765625 44.234375 5.25 
Q 37.40625 -1.265625 26.953125 -1.265625 
Q 17.53125 -1.265625 11.296875 4.34375 
Q 5.078125 9.96875 4.203125 18.890625 
z
" id="ArialMT-51"/>
      </defs>
      <g style="fill:#262626;" transform="translate(21.259844 111.993124)scale(0.1 -0.1)">
       <use xlink:href="#ArialMT-8722"/>
       <use x="58.398438" xlink:href="#ArialMT-51"/>
       <use x="114.013672" xlink:href="#ArialMT-48"/>
      </g>
     </g>
    </g>
    <g id="ytick_5">
     <g id="line2d_19">
      <path clip-path="url(#p8aa31def6f)" d="M 45.222344 78.231336 
L 247.612344 78.231336 
" style="fill:none;stroke:#ffffff;stroke-linecap:round;"/>
     </g>
     <g id="line2d_20"/>
     <g id="text_11">
      <!-- −20 -->
      <g style="fill:#262626;" transform="translate(21.259844 81.810242)scale(0.1 -0.1)">
       <use xlink:href="#ArialMT-8722"/>
       <use x="58.398438" xlink:href="#ArialMT-50"/>
       <use x="114.013672" xlink:href="#ArialMT-48"/>
      </g>
     </g>
    </g>
    <g id="ytick_6">
     <g id="line2d_21">
      <path clip-path="url(#p8aa31def6f)" d="M 45.222344 48.048454 
L 247.612344 48.048454 
" style="fill:none;stroke:#ffffff;stroke-linecap:round;"/>
     </g>
     <g id="line2d_22"/>
     <g id="text_12">
      <!-- −10 -->
      <g style="fill:#262626;" transform="translate(21.259844 51.62736)scale(0.1 -0.1)">
       <use xlink:href="#ArialMT-8722"/>
       <use x="58.398438" xlink:href="#ArialMT-49"/>
       <use x="114.013672" xlink:href="#ArialMT-48"/>
      </g>
     </g>
    </g>
    <g id="text_13">
     <!-- Score -->
     <defs>
      <path d="M 4.5 23 
L 13.421875 23.78125 
Q 14.0625 18.40625 16.375 14.96875 
Q 18.703125 11.53125 23.578125 9.40625 
Q 28.46875 7.28125 34.578125 7.28125 
Q 39.984375 7.28125 44.140625 8.890625 
Q 48.296875 10.5 50.3125 13.296875 
Q 52.34375 16.109375 52.34375 19.4375 
Q 52.34375 22.796875 50.390625 25.3125 
Q 48.4375 27.828125 43.953125 29.546875 
Q 41.0625 30.671875 31.203125 33.03125 
Q 21.34375 35.40625 17.390625 37.5 
Q 12.25 40.1875 9.734375 44.15625 
Q 7.234375 48.140625 7.234375 53.078125 
Q 7.234375 58.5 10.296875 63.203125 
Q 13.375 67.921875 19.28125 70.359375 
Q 25.203125 72.796875 32.421875 72.796875 
Q 40.375 72.796875 46.453125 70.234375 
Q 52.546875 67.671875 55.8125 62.6875 
Q 59.078125 57.71875 59.328125 51.421875 
L 50.25 50.734375 
Q 49.515625 57.515625 45.28125 60.984375 
Q 41.0625 64.453125 32.8125 64.453125 
Q 24.21875 64.453125 20.28125 61.296875 
Q 16.359375 58.15625 16.359375 53.71875 
Q 16.359375 49.859375 19.140625 47.359375 
Q 21.875 44.875 33.421875 42.265625 
Q 44.96875 39.65625 49.265625 37.703125 
Q 55.515625 34.8125 58.484375 30.390625 
Q 61.46875 25.984375 61.46875 20.21875 
Q 61.46875 14.5 58.203125 9.4375 
Q 54.9375 4.390625 48.796875 1.578125 
Q 42.671875 -1.21875 35.015625 -1.21875 
Q 25.296875 -1.21875 18.71875 1.609375 
Q 12.15625 4.4375 8.421875 10.125 
Q 4.6875 15.828125 4.5 23 
z
" id="ArialMT-83"/>
      <path d="M 6.5 0 
L 6.5 51.859375 
L 14.40625 51.859375 
L 14.40625 44 
Q 17.4375 49.515625 20 51.265625 
Q 22.5625 53.03125 25.640625 53.03125 
Q 30.078125 53.03125 34.671875 50.203125 
L 31.640625 42.046875 
Q 28.421875 43.953125 25.203125 43.953125 
Q 22.3125 43.953125 20.015625 42.21875 
Q 17.71875 40.484375 16.75 37.40625 
Q 15.28125 32.71875 15.28125 27.15625 
L 15.28125 0 
z
" id="ArialMT-114"/>
      <path d="M 42.09375 16.703125 
L 51.171875 15.578125 
Q 49.03125 7.625 43.21875 3.21875 
Q 37.40625 -1.171875 28.375 -1.171875 
Q 17 -1.171875 10.328125 5.828125 
Q 3.65625 12.84375 3.65625 25.484375 
Q 3.65625 38.578125 10.390625 45.796875 
Q 17.140625 53.03125 27.875 53.03125 
Q 38.28125 53.03125 44.875 45.953125 
Q 51.46875 38.875 51.46875 26.03125 
Q 51.46875 25.25 51.421875 23.6875 
L 12.75 23.6875 
Q 13.234375 15.140625 17.578125 10.59375 
Q 21.921875 6.0625 28.421875 6.0625 
Q 33.25 6.0625 36.671875 8.59375 
Q 40.09375 11.140625 42.09375 16.703125 
z
M 13.234375 30.90625 
L 42.1875 30.90625 
Q 41.609375 37.453125 38.875 40.71875 
Q 34.671875 45.796875 27.984375 45.796875 
Q 21.921875 45.796875 17.796875 41.75 
Q 13.671875 37.703125 13.234375 30.90625 
z
" id="ArialMT-101"/>
     </defs>
     <g style="fill:#262626;" transform="translate(15.073594 134.216406)rotate(-90)scale(0.11 -0.11)">
      <use xlink:href="#ArialMT-83"/>
      <use x="66.699219" xlink:href="#ArialMT-99"/>
      <use x="116.699219" xlink:href="#ArialMT-111"/>
      <use x="172.314453" xlink:href="#ArialMT-114"/>
      <use x="205.615234" xlink:href="#ArialMT-101"/>
     </g>
    </g>
   </g>
   <g id="PolyCollection_1">
    <path clip-path="url(#p8aa31def6f)" d="M 54.421889 202.195352 
L 54.421889 215.794308 
L 55.341844 215.141632 
L 56.261798 206.08224 
L 57.181753 200.285309 
L 58.101707 187.379821 
L 59.021662 182.918294 
L 59.941616 172.480112 
L 60.861571 154.561629 
L 61.781526 138.752356 
L 62.70148 121.065678 
L 63.621435 112.088335 
L 64.541389 95.682999 
L 65.461344 79.864919 
L 66.381298 68.41178 
L 67.301253 63.749022 
L 68.221207 63.557626 
L 69.141162 60.791725 
L 70.061116 60.349909 
L 70.981071 59.710883 
L 71.901026 60.360979 
L 72.82098 56.165151 
L 73.740935 59.810004 
L 74.660889 54.578359 
L 75.580844 55.62821 
L 76.500798 53.110847 
L 77.420753 58.928818 
L 78.340707 60.023616 
L 79.260662 49.622343 
L 80.180616 55.674439 
L 81.100571 55.517702 
L 82.020526 52.827304 
L 82.94048 49.856292 
L 83.860435 55.428446 
L 84.780389 57.925292 
L 85.700344 56.570486 
L 86.620298 47.198852 
L 87.540253 55.97967 
L 88.460207 51.130484 
L 89.380162 55.166029 
L 90.300116 50.210757 
L 91.220071 55.653881 
L 92.140026 50.816964 
L 93.05998 59.932503 
L 93.979935 55.442937 
L 94.899889 48.556173 
L 95.819844 55.707071 
L 96.739798 53.627879 
L 97.659753 55.727142 
L 98.579707 55.096355 
L 99.499662 54.635061 
L 100.419616 57.419404 
L 101.339571 50.84858 
L 102.259526 51.932596 
L 103.17948 54.25315 
L 104.099435 54.662928 
L 105.019389 52.060227 
L 105.939344 50.573098 
L 106.859298 50.142198 
L 107.779253 53.325893 
L 108.699207 55.397627 
L 109.619162 48.807938 
L 110.539116 53.278159 
L 111.459071 51.314587 
L 112.379026 49.239698 
L 113.29898 52.606181 
L 114.218935 50.137389 
L 115.138889 54.295643 
L 116.058844 51.911412 
L 116.978798 52.540802 
L 117.898753 55.503736 
L 118.818707 53.132986 
L 119.738662 55.722835 
L 120.658616 50.91195 
L 121.578571 47.755021 
L 122.498526 50.05234 
L 123.41848 50.27939 
L 124.338435 50.661662 
L 125.258389 52.657389 
L 126.178344 50.179536 
L 127.098298 51.800613 
L 128.018253 51.258019 
L 128.938207 50.679871 
L 129.858162 50.384546 
L 130.778116 52.629993 
L 131.698071 52.778381 
L 132.618026 48.649068 
L 133.53798 48.24485 
L 134.457935 47.724427 
L 135.377889 53.989186 
L 136.297844 48.069395 
L 137.217798 50.467201 
L 138.137753 51.899682 
L 139.057707 52.176632 
L 139.977662 54.36403 
L 140.897616 51.180332 
L 141.817571 50.366139 
L 142.737526 48.798928 
L 143.65748 51.796862 
L 144.577435 48.663308 
L 145.497389 54.981107 
L 146.417344 51.705318 
L 147.337298 51.716344 
L 148.257253 50.560047 
L 149.177207 52.247543 
L 150.097162 51.13109 
L 151.017116 45.827705 
L 151.937071 51.993849 
L 152.857026 48.316268 
L 153.77698 50.284544 
L 154.696935 51.039586 
L 155.616889 53.115113 
L 156.536844 47.579558 
L 157.456798 48.421222 
L 158.376753 54.140269 
L 159.296707 47.463909 
L 160.216662 49.220699 
L 161.136616 54.051997 
L 162.056571 50.740786 
L 162.976526 47.094705 
L 163.89648 48.821798 
L 164.816435 50.243752 
L 165.736389 51.203034 
L 166.656344 51.621401 
L 167.576298 48.98577 
L 168.496253 45.315894 
L 169.416207 47.900614 
L 170.336162 53.32281 
L 171.256116 48.951098 
L 172.176071 52.06747 
L 173.096026 47.581242 
L 174.01598 49.532863 
L 174.935935 52.843136 
L 175.855889 49.005627 
L 176.775844 50.864853 
L 177.695798 51.774402 
L 178.615753 48.872805 
L 179.535707 48.87658 
L 180.455662 49.251162 
L 181.375616 51.089549 
L 182.295571 49.097617 
L 183.215526 53.632788 
L 184.13548 51.133247 
L 185.055435 52.500712 
L 185.975389 50.785979 
L 186.895344 47.834527 
L 187.815298 50.54705 
L 188.735253 51.930216 
L 189.655207 50.746862 
L 190.575162 51.92485 
L 191.495116 52.974595 
L 192.415071 50.455872 
L 193.335026 52.753695 
L 194.25498 48.883096 
L 195.174935 52.354266 
L 196.094889 52.54472 
L 197.014844 51.669051 
L 197.934798 47.752091 
L 198.854753 48.213361 
L 199.774707 49.440072 
L 200.694662 51.071971 
L 201.614616 49.646538 
L 202.534571 51.347651 
L 203.454526 46.572415 
L 204.37448 50.027402 
L 205.294435 50.998929 
L 206.214389 51.749522 
L 207.134344 51.250865 
L 208.054298 48.981062 
L 208.974253 50.670585 
L 209.894207 49.955666 
L 210.814162 50.830722 
L 211.734116 49.724509 
L 212.654071 46.792576 
L 213.574026 49.020079 
L 214.49398 48.351583 
L 215.413935 48.946246 
L 216.333889 47.317835 
L 217.253844 50.9215 
L 218.173798 48.24617 
L 219.093753 50.779255 
L 220.013707 49.858578 
L 220.933662 49.746756 
L 221.853616 51.72241 
L 222.773571 49.294716 
L 223.693526 48.628153 
L 224.61348 50.157135 
L 225.533435 50.020392 
L 226.453389 50.864726 
L 227.373344 49.543105 
L 228.293298 48.228016 
L 229.213253 52.32445 
L 230.133207 48.477808 
L 231.053162 50.080517 
L 231.973116 44.786084 
L 232.893071 48.992378 
L 233.813026 50.853187 
L 234.73298 48.495878 
L 235.652935 45.793498 
L 236.572889 49.142436 
L 237.492844 49.731699 
L 238.412798 48.7851 
L 238.412798 40.073463 
L 238.412798 40.073463 
L 237.492844 40.816182 
L 236.572889 41.609219 
L 235.652935 42.473913 
L 234.73298 42.158609 
L 233.813026 42.342925 
L 232.893071 41.759291 
L 231.973116 39.424034 
L 231.053162 41.94618 
L 230.133207 38.273942 
L 229.213253 39.71972 
L 228.293298 41.568144 
L 227.373344 38.493024 
L 226.453389 41.716807 
L 225.533435 42.24605 
L 224.61348 40.752341 
L 223.693526 40.622713 
L 222.773571 40.45549 
L 221.853616 38.706299 
L 220.933662 39.805263 
L 220.013707 39.721682 
L 219.093753 42.589077 
L 218.173798 40.224131 
L 217.253844 42.136367 
L 216.333889 38.963951 
L 215.413935 40.912359 
L 214.49398 39.380714 
L 213.574026 40.179899 
L 212.654071 40.622757 
L 211.734116 40.181958 
L 210.814162 43.061426 
L 209.894207 38.992528 
L 208.974253 41.104857 
L 208.054298 41.170333 
L 207.134344 43.057309 
L 206.214389 41.238949 
L 205.294435 42.127619 
L 204.37448 40.166044 
L 203.454526 39.320343 
L 202.534571 40.299273 
L 201.614616 40.868877 
L 200.694662 38.659337 
L 199.774707 41.436042 
L 198.854753 40.63443 
L 197.934798 39.051415 
L 197.014844 42.293001 
L 196.094889 42.83537 
L 195.174935 42.863036 
L 194.25498 39.388442 
L 193.335026 40.536831 
L 192.415071 37.510007 
L 191.495116 42.879588 
L 190.575162 41.125294 
L 189.655207 39.352922 
L 188.735253 44.269635 
L 187.815298 42.178497 
L 186.895344 41.553232 
L 185.975389 39.587839 
L 185.055435 43.259705 
L 184.13548 42.852277 
L 183.215526 43.609681 
L 182.295571 39.763829 
L 181.375616 40.407331 
L 180.455662 38.225434 
L 179.535707 38.019603 
L 178.615753 40.047423 
L 177.695798 37.759553 
L 176.775844 43.151517 
L 175.855889 41.971324 
L 174.935935 41.02282 
L 174.01598 39.030656 
L 173.096026 40.358574 
L 172.176071 42.826445 
L 171.256116 44.05775 
L 170.336162 42.749046 
L 169.416207 40.491101 
L 168.496253 41.252679 
L 167.576298 40.761199 
L 166.656344 42.290233 
L 165.736389 40.673032 
L 164.816435 42.93139 
L 163.89648 41.87702 
L 162.976526 37.76391 
L 162.056571 39.661722 
L 161.136616 38.602491 
L 160.216662 43.178371 
L 159.296707 42.484897 
L 158.376753 38.207697 
L 157.456798 38.713626 
L 156.536844 41.56899 
L 155.616889 43.244954 
L 154.696935 44.296252 
L 153.77698 40.56778 
L 152.857026 41.684141 
L 151.937071 42.563027 
L 151.017116 38.565945 
L 150.097162 43.284466 
L 149.177207 40.116625 
L 148.257253 41.408061 
L 147.337298 40.509394 
L 146.417344 38.867086 
L 145.497389 42.839716 
L 144.577435 41.603327 
L 143.65748 39.948096 
L 142.737526 42.482817 
L 141.817571 39.547789 
L 140.897616 41.004916 
L 139.977662 43.906922 
L 139.057707 42.514533 
L 138.137753 42.339713 
L 137.217798 43.80826 
L 136.297844 41.103153 
L 135.377889 43.232419 
L 134.457935 38.346097 
L 133.53798 38.395315 
L 132.618026 41.411787 
L 131.698071 40.808007 
L 130.778116 43.827127 
L 129.858162 41.092634 
L 128.938207 40.06231 
L 128.018253 40.069151 
L 127.098298 42.543792 
L 126.178344 41.151966 
L 125.258389 41.32184 
L 124.338435 38.983175 
L 123.41848 42.175721 
L 122.498526 39.962029 
L 121.578571 38.727717 
L 120.658616 43.535715 
L 119.738662 42.952197 
L 118.818707 44.899443 
L 117.898753 40.935415 
L 116.978798 38.852028 
L 116.058844 42.061017 
L 115.138889 40.856757 
L 114.218935 40.896775 
L 113.29898 40.31895 
L 112.379026 39.317745 
L 111.459071 42.194869 
L 110.539116 44.80042 
L 109.619162 41.644556 
L 108.699207 46.53545 
L 107.779253 42.108811 
L 106.859298 42.365891 
L 105.939344 39.624863 
L 105.019389 40.403757 
L 104.099435 44.457386 
L 103.17948 45.528933 
L 102.259526 41.160039 
L 101.339571 43.300438 
L 100.419616 40.953676 
L 99.499662 42.477607 
L 98.579707 44.445107 
L 97.659753 43.49827 
L 96.739798 43.535228 
L 95.819844 43.839635 
L 94.899889 41.855845 
L 93.979935 40.117008 
L 93.05998 44.870213 
L 92.140026 40.16269 
L 91.220071 40.998702 
L 90.300116 43.01717 
L 89.380162 45.598836 
L 88.460207 43.442862 
L 87.540253 42.114598 
L 86.620298 42.893679 
L 85.700344 43.346552 
L 84.780389 46.055289 
L 83.860435 48.81378 
L 82.94048 45.166147 
L 82.020526 44.728847 
L 81.100571 43.963346 
L 80.180616 43.400201 
L 79.260662 43.092867 
L 78.340707 47.787189 
L 77.420753 45.784123 
L 76.500798 43.311051 
L 75.580844 48.281721 
L 74.660889 48.93002 
L 73.740935 48.61173 
L 72.82098 47.240942 
L 71.901026 45.751989 
L 70.981071 41.964655 
L 70.061116 49.942011 
L 69.141162 53.36268 
L 68.221207 51.527405 
L 67.301253 55.35833 
L 66.381298 59.708798 
L 65.461344 65.82602 
L 64.541389 74.321686 
L 63.621435 89.188991 
L 62.70148 103.426986 
L 61.781526 118.32624 
L 60.861571 137.464798 
L 59.941616 156.90353 
L 59.021662 164.100495 
L 58.101707 177.173718 
L 57.181753 187.396067 
L 56.261798 196.08859 
L 55.341844 198.423502 
L 54.421889 202.195352 
z
" style="fill:#4c72b0;fill-opacity:0.25;"/>
   </g>
   <g id="PolyCollection_2">
    <path clip-path="url(#p8aa31def6f)" d="M 54.421889 202.195352 
L 54.421889 215.794308 
L 55.341844 215.141632 
L 56.261798 206.08224 
L 57.181753 200.285309 
L 58.101707 187.379821 
L 59.021662 182.918294 
L 59.941616 170.845722 
L 60.861571 150.146497 
L 61.781526 136.008558 
L 62.70148 122.163216 
L 63.621435 106.584937 
L 64.541389 95.662537 
L 65.461344 79.643531 
L 66.381298 75.035502 
L 67.301253 72.122464 
L 68.221207 68.993081 
L 69.141162 66.163051 
L 70.061116 65.488242 
L 70.981071 64.007881 
L 71.901026 62.836889 
L 72.82098 58.803863 
L 73.740935 59.66716 
L 74.660889 55.50313 
L 75.580844 57.696479 
L 76.500798 54.000185 
L 77.420753 60.923784 
L 78.340707 59.671089 
L 79.260662 49.125972 
L 80.180616 55.483088 
L 81.100571 55.116492 
L 82.020526 53.700484 
L 82.94048 53.85272 
L 83.860435 59.36381 
L 84.780389 54.564328 
L 85.700344 57.046743 
L 86.620298 46.545867 
L 87.540253 54.074911 
L 88.460207 52.259398 
L 89.380162 58.358357 
L 90.300116 51.865725 
L 91.220071 55.876569 
L 92.140026 54.621401 
L 93.05998 60.287436 
L 93.979935 56.548941 
L 94.899889 50.70231 
L 95.819844 58.078148 
L 96.739798 53.690397 
L 97.659753 54.492215 
L 98.579707 56.462829 
L 99.499662 56.075725 
L 100.419616 57.704376 
L 101.339571 56.601308 
L 102.259526 54.314361 
L 103.17948 53.31963 
L 104.099435 54.437423 
L 105.019389 55.039503 
L 105.939344 54.187356 
L 106.859298 52.764829 
L 107.779253 55.833529 
L 108.699207 51.922766 
L 109.619162 52.870528 
L 110.539116 55.280546 
L 111.459071 53.986042 
L 112.379026 51.018017 
L 113.29898 52.009911 
L 114.218935 51.659016 
L 115.138889 54.316952 
L 116.058844 54.650797 
L 116.978798 54.604465 
L 117.898753 50.571191 
L 118.818707 56.855738 
L 119.738662 52.141673 
L 120.658616 54.523451 
L 121.578571 49.697103 
L 122.498526 50.870673 
L 123.41848 54.246715 
L 124.338435 50.913969 
L 125.258389 50.150132 
L 126.178344 52.210837 
L 127.098298 54.754897 
L 128.018253 51.261792 
L 128.938207 54.362826 
L 129.858162 54.196454 
L 130.778116 55.610828 
L 131.698071 55.220822 
L 132.618026 49.479285 
L 133.53798 52.910112 
L 134.457935 50.499398 
L 135.377889 55.217278 
L 136.297844 49.161167 
L 137.217798 51.806032 
L 138.137753 54.385373 
L 139.057707 48.880468 
L 139.977662 54.019339 
L 140.897616 51.308335 
L 141.817571 51.679084 
L 142.737526 53.032181 
L 143.65748 53.635074 
L 144.577435 54.095836 
L 145.497389 54.708596 
L 146.417344 50.887244 
L 147.337298 54.579788 
L 148.257253 51.591533 
L 149.177207 54.321726 
L 150.097162 51.118592 
L 151.017116 53.144185 
L 151.937071 51.979381 
L 152.857026 51.045583 
L 153.77698 47.763534 
L 154.696935 56.388828 
L 155.616889 56.1969 
L 156.536844 48.59158 
L 157.456798 49.973107 
L 158.376753 51.001011 
L 159.296707 51.08305 
L 160.216662 53.713136 
L 161.136616 53.344333 
L 162.056571 47.899368 
L 162.976526 47.312411 
L 163.89648 49.622766 
L 164.816435 49.083825 
L 165.736389 53.575475 
L 166.656344 53.554333 
L 167.576298 48.045164 
L 168.496253 48.069965 
L 169.416207 51.239292 
L 170.336162 49.485021 
L 171.256116 48.612916 
L 172.176071 49.541599 
L 173.096026 47.360256 
L 174.01598 48.814476 
L 174.935935 56.289261 
L 175.855889 47.278844 
L 176.775844 49.563264 
L 177.695798 46.28282 
L 178.615753 48.657128 
L 179.535707 43.39153 
L 180.455662 47.331496 
L 181.375616 49.225286 
L 182.295571 48.708819 
L 183.215526 51.345174 
L 184.13548 47.261133 
L 185.055435 49.320317 
L 185.975389 48.502535 
L 186.895344 46.376942 
L 187.815298 48.604764 
L 188.735253 52.059014 
L 189.655207 47.020708 
L 190.575162 49.107999 
L 191.495116 50.012975 
L 192.415071 53.281872 
L 193.335026 47.679136 
L 194.25498 48.635972 
L 195.174935 47.778004 
L 196.094889 45.558446 
L 197.014844 47.435912 
L 197.934798 44.942698 
L 198.854753 47.367279 
L 199.774707 45.903272 
L 200.694662 48.085412 
L 201.614616 46.95256 
L 202.534571 46.970699 
L 203.454526 46.820262 
L 204.37448 44.82299 
L 205.294435 45.72563 
L 206.214389 44.904954 
L 207.134344 46.960289 
L 208.054298 45.999748 
L 208.974253 46.155729 
L 209.894207 47.094772 
L 210.814162 46.85364 
L 211.734116 46.751713 
L 212.654071 45.99688 
L 213.574026 45.298246 
L 214.49398 44.963302 
L 215.413935 45.448118 
L 216.333889 45.537914 
L 217.253844 46.695393 
L 218.173798 48.136778 
L 219.093753 45.15365 
L 220.013707 43.785303 
L 220.933662 48.131601 
L 221.853616 47.91405 
L 222.773571 47.288672 
L 223.693526 46.154637 
L 224.61348 46.003012 
L 225.533435 48.198855 
L 226.453389 47.692668 
L 227.373344 46.149865 
L 228.293298 45.097339 
L 229.213253 46.342653 
L 230.133207 43.652421 
L 231.053162 43.805578 
L 231.973116 43.715635 
L 232.893071 43.347773 
L 233.813026 48.814515 
L 234.73298 43.354857 
L 235.652935 44.280003 
L 236.572889 45.702014 
L 237.492844 44.337035 
L 238.412798 44.293752 
L 238.412798 34.705194 
L 238.412798 34.705194 
L 237.492844 34.725043 
L 236.572889 36.446414 
L 235.652935 34.769801 
L 234.73298 37.702591 
L 233.813026 38.386114 
L 232.893071 36.441954 
L 231.973116 34.588544 
L 231.053162 36.134032 
L 230.133207 33.549945 
L 229.213253 35.098935 
L 228.293298 36.818216 
L 227.373344 35.039964 
L 226.453389 38.365571 
L 225.533435 38.572062 
L 224.61348 35.941272 
L 223.693526 35.695489 
L 222.773571 36.200664 
L 221.853616 36.646379 
L 220.933662 36.650651 
L 220.013707 36.598617 
L 219.093753 40.929618 
L 218.173798 35.328333 
L 217.253844 37.482917 
L 216.333889 37.081507 
L 215.413935 37.155656 
L 214.49398 37.639412 
L 213.574026 37.872809 
L 212.654071 37.392591 
L 211.734116 38.267412 
L 210.814162 38.21743 
L 209.894207 34.927488 
L 208.974253 34.921547 
L 208.054298 35.642312 
L 207.134344 37.263777 
L 206.214389 37.164716 
L 205.294435 36.405729 
L 204.37448 36.118209 
L 203.454526 36.714774 
L 202.534571 38.410776 
L 201.614616 37.510758 
L 200.694662 36.378205 
L 199.774707 38.268795 
L 198.854753 36.249781 
L 197.934798 34.530334 
L 197.014844 38.552525 
L 196.094889 40.717215 
L 195.174935 40.778301 
L 194.25498 37.870588 
L 193.335026 41.118638 
L 192.415071 33.436541 
L 191.495116 38.166275 
L 190.575162 37.341144 
L 189.655207 37.566107 
L 188.735253 39.988845 
L 187.815298 39.787321 
L 186.895344 39.83101 
L 185.975389 35.482872 
L 185.055435 38.900288 
L 184.13548 37.212087 
L 183.215526 39.771528 
L 182.295571 39.563879 
L 181.375616 38.533825 
L 180.455662 35.820672 
L 179.535707 35.339405 
L 178.615753 37.248215 
L 177.695798 37.515154 
L 176.775844 39.365139 
L 175.855889 39.157999 
L 174.935935 37.034608 
L 174.01598 39.696804 
L 173.096026 36.64863 
L 172.176071 40.562141 
L 171.256116 39.410612 
L 170.336162 39.092569 
L 169.416207 38.718546 
L 168.496253 37.388161 
L 167.576298 39.039949 
L 166.656344 42.301049 
L 165.736389 42.562427 
L 164.816435 40.675365 
L 163.89648 38.716891 
L 162.976526 37.533083 
L 162.056571 37.861616 
L 161.136616 38.372041 
L 160.216662 40.559866 
L 159.296707 41.114322 
L 158.376753 39.105336 
L 157.456798 37.881548 
L 156.536844 40.710118 
L 155.616889 41.529103 
L 154.696935 41.59018 
L 153.77698 41.651589 
L 152.857026 39.829474 
L 151.937071 42.851819 
L 151.017116 36.02189 
L 150.097162 41.219642 
L 149.177207 39.288042 
L 148.257253 38.334341 
L 147.337298 41.561592 
L 146.417344 38.545778 
L 145.497389 44.088041 
L 144.577435 42.168358 
L 143.65748 41.938585 
L 142.737526 40.454399 
L 141.817571 40.64794 
L 140.897616 41.136115 
L 139.977662 43.210526 
L 139.057707 41.702626 
L 138.137753 42.189197 
L 137.217798 41.794363 
L 136.297844 38.910871 
L 135.377889 42.001553 
L 134.457935 38.971745 
L 133.53798 37.026639 
L 132.618026 41.762139 
L 131.698071 42.001714 
L 130.778116 45.353631 
L 129.858162 42.496954 
L 128.938207 40.382747 
L 128.018253 40.853586 
L 127.098298 43.233593 
L 126.178344 39.516484 
L 125.258389 44.291661 
L 124.338435 40.201706 
L 123.41848 46.984755 
L 122.498526 42.8509 
L 121.578571 40.253547 
L 120.658616 43.297562 
L 119.738662 43.9036 
L 118.818707 44.038224 
L 117.898753 42.309447 
L 116.978798 40.453417 
L 116.058844 43.481843 
L 115.138889 44.410141 
L 114.218935 43.068683 
L 113.29898 44.090104 
L 112.379026 43.101307 
L 111.459071 44.779578 
L 110.539116 45.067649 
L 109.619162 42.60434 
L 108.699207 45.098361 
L 107.779253 46.901259 
L 106.859298 44.11094 
L 105.939344 42.888054 
L 105.019389 42.481066 
L 104.099435 46.132358 
L 103.17948 47.394768 
L 102.259526 43.918889 
L 101.339571 46.578812 
L 100.419616 42.851599 
L 99.499662 46.399719 
L 98.579707 44.954666 
L 97.659753 44.841493 
L 96.739798 43.480869 
L 95.819844 44.503077 
L 94.899889 44.625237 
L 93.979935 44.55874 
L 93.05998 45.920901 
L 92.140026 42.140919 
L 91.220071 42.799551 
L 90.300116 42.554798 
L 89.380162 46.338707 
L 88.460207 43.742602 
L 87.540253 46.566634 
L 86.620298 41.328983 
L 85.700344 45.164418 
L 84.780389 47.382049 
L 83.860435 49.252407 
L 82.94048 46.824648 
L 82.020526 45.357344 
L 81.100571 45.809213 
L 80.180616 44.544006 
L 79.260662 44.287728 
L 78.340707 48.928116 
L 77.420753 46.867085 
L 76.500798 44.092521 
L 75.580844 49.05454 
L 74.660889 48.108008 
L 73.740935 51.852388 
L 72.82098 45.770349 
L 71.901026 50.072677 
L 70.981071 45.526252 
L 70.061116 53.075219 
L 69.141162 53.864495 
L 68.221207 51.775281 
L 67.301253 56.071441 
L 66.381298 59.331122 
L 65.461344 67.36898 
L 64.541389 73.5185 
L 63.621435 91.845853 
L 62.70148 100.116239 
L 61.781526 115.837129 
L 60.861571 135.418359 
L 59.941616 151.440886 
L 59.021662 164.100495 
L 58.101707 177.173718 
L 57.181753 187.396067 
L 56.261798 196.08859 
L 55.341844 198.423502 
L 54.421889 202.195352 
z
" style="fill:#55a868;fill-opacity:0.25;"/>
   </g>
   <g id="line2d_23">
    <path clip-path="url(#p8aa31def6f)" d="M 54.421889 208.99483 
L 55.341844 206.782567 
L 56.261798 201.085415 
L 57.181753 193.840688 
L 58.101707 182.276769 
L 59.941616 164.691821 
L 61.781526 128.539298 
L 62.70148 112.246332 
L 63.621435 100.638663 
L 64.541389 85.002342 
L 65.461344 72.845469 
L 66.381298 64.060289 
L 67.301253 59.553676 
L 68.221207 57.542515 
L 69.141162 57.077203 
L 70.061116 55.14596 
L 70.981071 50.837769 
L 71.901026 53.056484 
L 72.82098 51.703046 
L 73.740935 54.210867 
L 74.660889 51.75419 
L 75.580844 51.954966 
L 76.500798 48.210949 
L 77.420753 52.35647 
L 78.340707 53.905402 
L 79.260662 46.357605 
L 80.180616 49.53732 
L 81.100571 49.740524 
L 82.020526 48.778075 
L 82.94048 47.511219 
L 83.860435 52.121113 
L 84.780389 51.990291 
L 85.700344 49.958519 
L 86.620298 45.046266 
L 87.540253 49.047134 
L 88.460207 47.286673 
L 89.380162 50.382432 
L 90.300116 46.613963 
L 91.220071 48.326292 
L 92.140026 45.489827 
L 93.05998 52.401358 
L 93.979935 47.779973 
L 94.899889 45.206009 
L 95.819844 49.773353 
L 96.739798 48.581554 
L 97.659753 49.612706 
L 98.579707 49.770731 
L 99.499662 48.556334 
L 100.419616 49.18654 
L 101.339571 47.074509 
L 102.259526 46.546317 
L 103.17948 49.891041 
L 104.099435 49.560157 
L 105.019389 46.231992 
L 105.939344 45.09898 
L 106.859298 46.254044 
L 107.779253 47.717352 
L 108.699207 50.966539 
L 109.619162 45.226247 
L 110.539116 49.039289 
L 112.379026 44.278722 
L 113.29898 46.462566 
L 114.218935 45.517082 
L 115.138889 47.5762 
L 116.058844 46.986214 
L 116.978798 45.696415 
L 117.898753 48.219576 
L 118.818707 49.016215 
L 119.738662 49.337516 
L 120.658616 47.223833 
L 121.578571 43.241369 
L 122.498526 45.007184 
L 123.41848 46.227556 
L 124.338435 44.822418 
L 125.258389 46.989614 
L 126.178344 45.665751 
L 127.098298 47.172202 
L 128.018253 45.663585 
L 128.938207 45.371091 
L 129.858162 45.73859 
L 130.778116 48.22856 
L 131.698071 46.793194 
L 133.53798 43.320083 
L 134.457935 43.035262 
L 135.377889 48.610803 
L 136.297844 44.586274 
L 137.217798 47.13773 
L 138.137753 47.119698 
L 139.057707 47.345583 
L 139.977662 49.135476 
L 140.897616 46.092624 
L 141.817571 44.956964 
L 142.737526 45.640873 
L 143.65748 45.872479 
L 144.577435 45.133318 
L 145.497389 48.910411 
L 146.417344 45.286202 
L 147.337298 46.112869 
L 148.257253 45.984054 
L 149.177207 46.182084 
L 150.097162 47.207778 
L 151.017116 42.196825 
L 151.937071 47.278438 
L 152.857026 45.000204 
L 153.77698 45.426162 
L 154.696935 47.667919 
L 155.616889 48.180034 
L 156.536844 44.574274 
L 157.456798 43.567424 
L 158.376753 46.173983 
L 159.296707 44.974403 
L 160.216662 46.199535 
L 161.136616 46.327244 
L 162.056571 45.201254 
L 162.976526 42.429308 
L 163.89648 45.349409 
L 164.816435 46.587571 
L 165.736389 45.938033 
L 166.656344 46.955817 
L 167.576298 44.873485 
L 168.496253 43.284286 
L 169.416207 44.195857 
L 170.336162 48.035928 
L 171.256116 46.504424 
L 172.176071 47.446957 
L 173.096026 43.969908 
L 174.01598 44.28176 
L 174.935935 46.932978 
L 175.855889 45.488476 
L 176.775844 47.008185 
L 177.695798 44.766977 
L 178.615753 44.460114 
L 179.535707 43.448091 
L 180.455662 43.738298 
L 181.375616 45.74844 
L 182.295571 44.430723 
L 183.215526 48.621235 
L 184.13548 46.992762 
L 185.055435 47.880208 
L 185.975389 45.186909 
L 186.895344 44.693879 
L 188.735253 48.099925 
L 189.655207 45.049892 
L 191.495116 47.927092 
L 192.415071 43.982939 
L 193.335026 46.645263 
L 194.25498 44.135769 
L 195.174935 47.608651 
L 196.094889 47.690045 
L 197.014844 46.981026 
L 197.934798 43.401753 
L 199.774707 45.438057 
L 200.694662 44.865654 
L 201.614616 45.257707 
L 202.534571 45.823462 
L 203.454526 42.946379 
L 204.37448 45.096723 
L 205.294435 46.563274 
L 206.214389 46.494236 
L 207.134344 47.154087 
L 208.054298 45.075698 
L 208.974253 45.887721 
L 209.894207 44.474097 
L 210.814162 46.946074 
L 211.734116 44.953233 
L 212.654071 43.707666 
L 213.574026 44.599989 
L 214.49398 43.866149 
L 215.413935 44.929302 
L 216.333889 43.140893 
L 217.253844 46.528934 
L 218.173798 44.235151 
L 219.093753 46.684166 
L 220.013707 44.79013 
L 220.933662 44.776009 
L 221.853616 45.214355 
L 223.693526 44.625433 
L 224.61348 45.454738 
L 225.533435 46.133221 
L 226.453389 46.290767 
L 227.373344 44.018064 
L 228.293298 44.89808 
L 229.213253 46.022085 
L 230.133207 43.375875 
L 231.053162 46.013349 
L 231.973116 42.105059 
L 232.893071 45.375834 
L 233.813026 46.598056 
L 235.652935 44.133706 
L 236.572889 45.375828 
L 237.492844 45.273941 
L 238.412798 44.429282 
L 238.412798 44.429282 
" style="fill:none;stroke:#4c72b0;stroke-linecap:round;stroke-width:1.75;"/>
   </g>
   <g id="line2d_24">
    <path clip-path="url(#p8aa31def6f)" d="M 54.421889 208.99483 
L 55.341844 206.782567 
L 56.261798 201.085415 
L 57.181753 193.840688 
L 58.101707 182.276769 
L 59.021662 173.509395 
L 59.941616 161.143304 
L 61.781526 125.922844 
L 62.70148 111.139727 
L 63.621435 99.215395 
L 64.541389 84.590518 
L 65.461344 73.506256 
L 66.381298 67.183312 
L 67.301253 64.096952 
L 68.221207 60.384181 
L 69.141162 60.013773 
L 70.061116 59.281731 
L 70.981071 54.767067 
L 71.901026 56.454783 
L 72.82098 52.287106 
L 73.740935 55.759774 
L 74.660889 51.805569 
L 75.580844 53.37551 
L 76.500798 49.046353 
L 77.420753 53.895434 
L 78.340707 54.299603 
L 79.260662 46.70685 
L 80.180616 50.013547 
L 81.100571 50.462852 
L 82.020526 49.528914 
L 82.94048 50.338684 
L 83.860435 54.308108 
L 84.780389 50.973188 
L 85.700344 51.10558 
L 86.620298 43.937425 
L 87.540253 50.320773 
L 88.460207 48.001 
L 89.380162 52.348532 
L 90.300116 47.210262 
L 91.220071 49.33806 
L 92.140026 48.38116 
L 93.05998 53.104168 
L 93.979935 50.553841 
L 94.899889 47.663774 
L 95.819844 51.290613 
L 96.739798 48.585633 
L 98.579707 50.708748 
L 99.499662 51.237722 
L 100.419616 50.277987 
L 101.339571 51.59006 
L 102.259526 49.116625 
L 103.17948 50.357199 
L 104.099435 50.284891 
L 105.019389 48.760285 
L 105.939344 48.537705 
L 106.859298 48.437884 
L 107.779253 51.367394 
L 108.699207 48.510563 
L 109.619162 47.737434 
L 110.539116 50.174097 
L 111.459071 49.38281 
L 112.379026 47.059662 
L 113.29898 48.050008 
L 114.218935 47.363849 
L 115.138889 49.363546 
L 116.058844 49.06632 
L 116.978798 47.528941 
L 117.898753 46.440319 
L 118.818707 50.446981 
L 119.738662 48.022636 
L 120.658616 48.910506 
L 121.578571 44.975325 
L 122.498526 46.860786 
L 123.41848 50.615735 
L 124.338435 45.557837 
L 125.258389 47.220896 
L 126.178344 45.86366 
L 127.098298 48.994245 
L 128.018253 46.057689 
L 128.938207 47.372787 
L 129.858162 48.346704 
L 130.778116 50.48223 
L 131.698071 48.611268 
L 132.618026 45.620712 
L 133.53798 44.968376 
L 134.457935 44.735572 
L 135.377889 48.609415 
L 136.297844 44.036019 
L 137.217798 46.800197 
L 138.137753 48.287285 
L 139.057707 45.291547 
L 139.977662 48.614932 
L 140.897616 46.222225 
L 141.817571 46.163512 
L 142.737526 46.74329 
L 143.65748 47.786829 
L 144.577435 48.132097 
L 145.497389 49.398318 
L 146.417344 44.716511 
L 147.337298 48.07069 
L 148.257253 44.962937 
L 149.177207 46.804884 
L 150.097162 46.169117 
L 151.017116 44.583037 
L 151.937071 47.4156 
L 152.857026 45.437529 
L 153.77698 44.707561 
L 154.696935 48.989504 
L 155.616889 48.863002 
L 156.536844 44.650849 
L 157.456798 43.927327 
L 160.216662 47.136501 
L 161.136616 45.858187 
L 162.056571 42.880492 
L 162.976526 42.422747 
L 163.89648 44.169829 
L 164.816435 44.879595 
L 165.736389 48.068951 
L 166.656344 47.927691 
L 167.576298 43.542557 
L 168.496253 42.729063 
L 169.416207 44.978919 
L 170.336162 44.288795 
L 171.256116 44.011764 
L 172.176071 45.05187 
L 173.096026 42.004443 
L 174.935935 46.661935 
L 175.855889 43.218421 
L 176.775844 44.464202 
L 177.695798 41.898987 
L 178.615753 42.952671 
L 179.535707 39.365467 
L 181.375616 43.879555 
L 182.295571 44.136349 
L 183.215526 45.558351 
L 184.13548 42.23661 
L 185.055435 44.110303 
L 185.975389 41.992703 
L 187.815298 44.196043 
L 188.735253 46.023929 
L 189.655207 42.293407 
L 191.495116 44.089625 
L 192.415071 43.359207 
L 193.335026 44.398887 
L 194.25498 43.25328 
L 195.174935 44.278153 
L 196.094889 43.13783 
L 197.014844 42.994218 
L 197.934798 39.736516 
L 198.854753 41.80853 
L 199.774707 42.086034 
L 200.694662 42.231809 
L 201.614616 42.231659 
L 202.534571 42.690738 
L 203.454526 41.767518 
L 204.37448 40.470599 
L 205.294435 41.065679 
L 206.214389 41.034835 
L 207.134344 42.112033 
L 208.054298 40.82103 
L 208.974253 40.538638 
L 209.894207 41.01113 
L 210.814162 42.535535 
L 211.734116 42.509562 
L 212.654071 41.694735 
L 213.574026 41.585528 
L 214.49398 41.301357 
L 216.333889 41.309711 
L 217.253844 42.089155 
L 218.173798 41.732555 
L 219.093753 43.041634 
L 220.013707 40.19196 
L 220.933662 42.391126 
L 221.853616 42.280215 
L 222.773571 41.744668 
L 223.693526 40.925063 
L 224.61348 40.972142 
L 225.533435 43.385459 
L 226.453389 43.02912 
L 227.373344 40.594914 
L 228.293298 40.957778 
L 229.213253 40.720794 
L 230.133207 38.601183 
L 231.053162 39.969805 
L 231.973116 39.152089 
L 232.893071 39.894863 
L 233.813026 43.600315 
L 234.73298 40.528724 
L 235.652935 39.524902 
L 236.572889 41.074214 
L 237.492844 39.531039 
L 238.412798 39.499473 
L 238.412798 39.499473 
" style="fill:none;stroke:#55a868;stroke-linecap:round;stroke-width:1.75;"/>
   </g>
   <g id="line2d_25">
    <path clip-path="url(#p8aa31def6f)" d="M 54.421889 30.70392 
L 238.412798 30.70392 
" style="fill:none;stroke:#c44e52;stroke-linecap:round;stroke-width:1.75;"/>
   </g>
   <g id="patch_3">
    <path d="M 45.222344 217.909375 
L 45.222344 21.789375 
" style="fill:none;"/>
   </g>
   <g id="patch_4">
    <path d="M 247.612344 217.909375 
L 247.612344 21.789375 
" style="fill:none;"/>
   </g>
   <g id="patch_5">
    <path d="M 45.222344 217.909375 
L 247.612344 217.909375 
" style="fill:none;"/>
   </g>
   <g id="patch_6">
    <path d="M 45.222344 21.789375 
L 247.612344 21.789375 
" style="fill:none;"/>
   </g>
   <g id="text_14">
    <!-- Reacher -->
    <defs>
     <path d="M 7.859375 0 
L 7.859375 71.578125 
L 39.59375 71.578125 
Q 49.171875 71.578125 54.140625 69.640625 
Q 59.125 67.71875 62.109375 62.828125 
Q 65.09375 57.953125 65.09375 52.046875 
Q 65.09375 44.4375 60.15625 39.203125 
Q 55.21875 33.984375 44.921875 32.5625 
Q 48.6875 30.765625 50.640625 29 
Q 54.78125 25.203125 58.5 19.484375 
L 70.953125 0 
L 59.03125 0 
L 49.5625 14.890625 
Q 45.40625 21.34375 42.71875 24.75 
Q 40.046875 28.171875 37.921875 29.53125 
Q 35.796875 30.90625 33.59375 31.453125 
Q 31.984375 31.78125 28.328125 31.78125 
L 17.328125 31.78125 
L 17.328125 0 
z
M 17.328125 39.984375 
L 37.703125 39.984375 
Q 44.1875 39.984375 47.84375 41.328125 
Q 51.515625 42.671875 53.421875 45.625 
Q 55.328125 48.578125 55.328125 52.046875 
Q 55.328125 57.125 51.640625 60.390625 
Q 47.953125 63.671875 39.984375 63.671875 
L 17.328125 63.671875 
z
" id="ArialMT-82"/>
     <path d="M 40.4375 6.390625 
Q 35.546875 2.25 31.03125 0.53125 
Q 26.515625 -1.171875 21.34375 -1.171875 
Q 12.796875 -1.171875 8.203125 3 
Q 3.609375 7.171875 3.609375 13.671875 
Q 3.609375 17.484375 5.34375 20.625 
Q 7.078125 23.78125 9.890625 25.6875 
Q 12.703125 27.59375 16.21875 28.5625 
Q 18.796875 29.25 24.03125 29.890625 
Q 34.671875 31.15625 39.703125 32.90625 
Q 39.75 34.71875 39.75 35.203125 
Q 39.75 40.578125 37.25 42.78125 
Q 33.890625 45.75 27.25 45.75 
Q 21.046875 45.75 18.09375 43.578125 
Q 15.140625 41.40625 13.71875 35.890625 
L 5.125 37.0625 
Q 6.296875 42.578125 8.984375 45.96875 
Q 11.671875 49.359375 16.75 51.1875 
Q 21.828125 53.03125 28.515625 53.03125 
Q 35.15625 53.03125 39.296875 51.46875 
Q 43.453125 49.90625 45.40625 47.53125 
Q 47.359375 45.171875 48.140625 41.546875 
Q 48.578125 39.3125 48.578125 33.453125 
L 48.578125 21.734375 
Q 48.578125 9.46875 49.140625 6.21875 
Q 49.703125 2.984375 51.375 0 
L 42.1875 0 
Q 40.828125 2.734375 40.4375 6.390625 
z
M 39.703125 26.03125 
Q 34.90625 24.078125 25.34375 22.703125 
Q 19.921875 21.921875 17.671875 20.9375 
Q 15.4375 19.96875 14.203125 18.09375 
Q 12.984375 16.21875 12.984375 13.921875 
Q 12.984375 10.40625 15.640625 8.0625 
Q 18.3125 5.71875 23.4375 5.71875 
Q 28.515625 5.71875 32.46875 7.9375 
Q 36.421875 10.15625 38.28125 14.015625 
Q 39.703125 17 39.703125 22.796875 
z
" id="ArialMT-97"/>
    </defs>
    <g style="fill:#262626;" transform="translate(123.740156 15.789375)scale(0.12 -0.12)">
     <use xlink:href="#ArialMT-82"/>
     <use x="72.216797" xlink:href="#ArialMT-101"/>
     <use x="127.832031" xlink:href="#ArialMT-97"/>
     <use x="183.447266" xlink:href="#ArialMT-99"/>
     <use x="233.447266" xlink:href="#ArialMT-104"/>
     <use x="289.0625" xlink:href="#ArialMT-101"/>
     <use x="344.677734" xlink:href="#ArialMT-114"/>
    </g>
   </g>
   <g id="legend_1">
    <g id="line2d_26">
     <path d="M 176.707656 175.014063 
L 196.707656 175.014063 
" style="fill:none;stroke:#4c72b0;stroke-linecap:round;stroke-width:1.75;"/>
    </g>
    <g id="line2d_27"/>
    <g id="text_15">
     <!-- BC -->
     <defs>
      <path d="M 7.328125 0 
L 7.328125 71.578125 
L 34.1875 71.578125 
Q 42.390625 71.578125 47.34375 69.40625 
Q 52.296875 67.234375 55.09375 62.71875 
Q 57.90625 58.203125 57.90625 53.265625 
Q 57.90625 48.6875 55.421875 44.625 
Q 52.9375 40.578125 47.90625 38.09375 
Q 54.390625 36.1875 57.875 31.59375 
Q 61.375 27 61.375 20.75 
Q 61.375 15.71875 59.25 11.390625 
Q 57.125 7.078125 54 4.734375 
Q 50.875 2.390625 46.15625 1.1875 
Q 41.453125 0 34.625 0 
z
M 16.796875 41.5 
L 32.28125 41.5 
Q 38.578125 41.5 41.3125 42.328125 
Q 44.921875 43.40625 46.75 45.890625 
Q 48.578125 48.390625 48.578125 52.15625 
Q 48.578125 55.71875 46.875 58.421875 
Q 45.171875 61.140625 41.984375 62.140625 
Q 38.8125 63.140625 31.109375 63.140625 
L 16.796875 63.140625 
z
M 16.796875 8.453125 
L 34.625 8.453125 
Q 39.203125 8.453125 41.0625 8.796875 
Q 44.34375 9.375 46.53125 10.734375 
Q 48.734375 12.109375 50.140625 14.71875 
Q 51.5625 17.328125 51.5625 20.75 
Q 51.5625 24.75 49.515625 27.703125 
Q 47.46875 30.671875 43.828125 31.859375 
Q 40.1875 33.0625 33.34375 33.0625 
L 16.796875 33.0625 
z
" id="ArialMT-66"/>
      <path d="M 58.796875 25.09375 
L 68.265625 22.703125 
Q 65.28125 11.03125 57.546875 4.90625 
Q 49.8125 -1.21875 38.625 -1.21875 
Q 27.046875 -1.21875 19.796875 3.484375 
Q 12.546875 8.203125 8.765625 17.140625 
Q 4.984375 26.078125 4.984375 36.328125 
Q 4.984375 47.515625 9.25 55.828125 
Q 13.53125 64.15625 21.40625 68.46875 
Q 29.296875 72.796875 38.765625 72.796875 
Q 49.515625 72.796875 56.828125 67.328125 
Q 64.15625 61.859375 67.046875 51.953125 
L 57.71875 49.75 
Q 55.21875 57.5625 50.484375 61.125 
Q 45.75 64.703125 38.578125 64.703125 
Q 30.328125 64.703125 24.78125 60.734375 
Q 19.234375 56.78125 16.984375 50.109375 
Q 14.75 43.453125 14.75 36.375 
Q 14.75 27.25 17.40625 20.4375 
Q 20.0625 13.625 25.671875 10.25 
Q 31.296875 6.890625 37.84375 6.890625 
Q 45.796875 6.890625 51.3125 11.46875 
Q 56.84375 16.0625 58.796875 25.09375 
z
" id="ArialMT-67"/>
     </defs>
     <g style="fill:#262626;" transform="translate(204.707656 178.514063)scale(0.1 -0.1)">
      <use xlink:href="#ArialMT-66"/>
      <use x="66.699219" xlink:href="#ArialMT-67"/>
     </g>
    </g>
    <g id="line2d_28">
     <path d="M 176.707656 189.159375 
L 196.707656 189.159375 
" style="fill:none;stroke:#55a868;stroke-linecap:round;stroke-width:1.75;"/>
    </g>
    <g id="line2d_29"/>
    <g id="text_16">
     <!-- DAgger -->
     <defs>
      <path d="M 7.71875 0 
L 7.71875 71.578125 
L 32.375 71.578125 
Q 40.71875 71.578125 45.125 70.5625 
Q 51.265625 69.140625 55.609375 65.4375 
Q 61.28125 60.640625 64.078125 53.1875 
Q 66.890625 45.75 66.890625 36.1875 
Q 66.890625 28.03125 64.984375 21.734375 
Q 63.09375 15.4375 60.109375 11.296875 
Q 57.125 7.171875 53.578125 4.796875 
Q 50.046875 2.4375 45.046875 1.21875 
Q 40.046875 0 33.546875 0 
z
M 17.1875 8.453125 
L 32.46875 8.453125 
Q 39.546875 8.453125 43.578125 9.765625 
Q 47.609375 11.078125 50 13.484375 
Q 53.375 16.84375 55.25 22.53125 
Q 57.125 28.21875 57.125 36.328125 
Q 57.125 47.5625 53.4375 53.59375 
Q 49.75 59.625 44.484375 61.671875 
Q 40.671875 63.140625 32.234375 63.140625 
L 17.1875 63.140625 
z
" id="ArialMT-68"/>
      <path d="M -0.140625 0 
L 27.34375 71.578125 
L 37.546875 71.578125 
L 66.84375 0 
L 56.0625 0 
L 47.703125 21.6875 
L 17.78125 21.6875 
L 9.90625 0 
z
M 20.515625 29.390625 
L 44.78125 29.390625 
L 37.3125 49.21875 
Q 33.890625 58.25 32.234375 64.0625 
Q 30.859375 57.171875 28.375 50.390625 
z
" id="ArialMT-65"/>
      <path d="M 4.984375 -4.296875 
L 13.53125 -5.5625 
Q 14.0625 -9.515625 16.5 -11.328125 
Q 19.78125 -13.765625 25.4375 -13.765625 
Q 31.546875 -13.765625 34.859375 -11.328125 
Q 38.1875 -8.890625 39.359375 -4.5 
Q 40.046875 -1.8125 39.984375 6.78125 
Q 34.234375 0 25.640625 0 
Q 14.9375 0 9.078125 7.71875 
Q 3.21875 15.4375 3.21875 26.21875 
Q 3.21875 33.640625 5.90625 39.90625 
Q 8.59375 46.1875 13.6875 49.609375 
Q 18.796875 53.03125 25.6875 53.03125 
Q 34.859375 53.03125 40.828125 45.609375 
L 40.828125 51.859375 
L 48.921875 51.859375 
L 48.921875 7.03125 
Q 48.921875 -5.078125 46.453125 -10.125 
Q 44 -15.1875 38.640625 -18.109375 
Q 33.296875 -21.046875 25.484375 -21.046875 
Q 16.21875 -21.046875 10.5 -16.875 
Q 4.78125 -12.703125 4.984375 -4.296875 
z
M 12.25 26.859375 
Q 12.25 16.65625 16.296875 11.96875 
Q 20.359375 7.28125 26.46875 7.28125 
Q 32.515625 7.28125 36.609375 11.9375 
Q 40.71875 16.609375 40.71875 26.5625 
Q 40.71875 36.078125 36.5 40.90625 
Q 32.28125 45.75 26.3125 45.75 
Q 20.453125 45.75 16.34375 40.984375 
Q 12.25 36.234375 12.25 26.859375 
z
" id="ArialMT-103"/>
     </defs>
     <g style="fill:#262626;" transform="translate(204.707656 192.659375)scale(0.1 -0.1)">
      <use xlink:href="#ArialMT-68"/>
      <use x="72.216797" xlink:href="#ArialMT-65"/>
      <use x="138.916016" xlink:href="#ArialMT-103"/>
      <use x="194.53125" xlink:href="#ArialMT-103"/>
      <use x="250.146484" xlink:href="#ArialMT-101"/>
      <use x="305.761719" xlink:href="#ArialMT-114"/>
     </g>
    </g>
    <g id="line2d_30">
     <path d="M 176.707656 203.421875 
L 196.707656 203.421875 
" style="fill:none;stroke:#c44e52;stroke-linecap:round;stroke-width:1.75;"/>
    </g>
    <g id="line2d_31"/>
    <g id="text_17">
     <!-- Expert -->
     <defs>
      <path d="M 0.734375 0 
L 19.671875 26.953125 
L 2.15625 51.859375 
L 13.140625 51.859375 
L 21.09375 39.703125 
Q 23.34375 36.234375 24.703125 33.890625 
Q 26.859375 37.109375 28.65625 39.59375 
L 37.40625 51.859375 
L 47.90625 51.859375 
L 29.984375 27.4375 
L 49.265625 0 
L 38.484375 0 
L 27.828125 16.109375 
L 25 20.453125 
L 11.375 0 
z
" id="ArialMT-120"/>
      <path d="M 25.78125 7.859375 
L 27.046875 0.09375 
Q 23.34375 -0.6875 20.40625 -0.6875 
Q 15.625 -0.6875 12.984375 0.828125 
Q 10.359375 2.34375 9.28125 4.8125 
Q 8.203125 7.28125 8.203125 15.1875 
L 8.203125 45.015625 
L 1.765625 45.015625 
L 1.765625 51.859375 
L 8.203125 51.859375 
L 8.203125 64.703125 
L 16.9375 69.96875 
L 16.9375 51.859375 
L 25.78125 51.859375 
L 25.78125 45.015625 
L 16.9375 45.015625 
L 16.9375 14.703125 
Q 16.9375 10.9375 17.40625 9.859375 
Q 17.875 8.796875 18.921875 8.15625 
Q 19.96875 7.515625 21.921875 7.515625 
Q 23.390625 7.515625 25.78125 7.859375 
z
" id="ArialMT-116"/>
     </defs>
     <g style="fill:#262626;" transform="translate(204.707656 206.921875)scale(0.1 -0.1)">
      <use xlink:href="#ArialMT-69"/>
      <use x="66.699219" xlink:href="#ArialMT-120"/>
      <use x="116.699219" xlink:href="#ArialMT-112"/>
      <use x="172.314453" xlink:href="#ArialMT-101"/>
      <use x="227.929688" xlink:href="#ArialMT-114"/>
      <use x="261.230469" xlink:href="#ArialMT-116"/>
     </g>
    </g>
   </g>
  </g>
 </g>
 <defs>
  <clipPath id="p8aa31def6f">
   <rect height="196.12" width="202.39" x="45.222344" y="21.789375"/>
  </clipPath>
 </defs>
</svg>
