<?xml version="1.0" encoding="utf-8" standalone="no"?>
<!DOCTYPE svg PUBLIC "-//W3C//DTD SVG 1.1//EN"
  "http://www.w3.org/Graphics/SVG/1.1/DTD/svg11.dtd">
<!-- Created with matplotlib (https://matplotlib.org/) -->
<svg height="255.314531pt" version="1.1" viewBox="0 0 254.783594 255.314531" width="254.783594pt" xmlns="http://www.w3.org/2000/svg" xmlns:xlink="http://www.w3.org/1999/xlink">
 <defs>
  <style type="text/css">
*{stroke-linecap:butt;stroke-linejoin:round;}
  </style>
 </defs>
 <g id="figure_1">
  <g id="patch_1">
   <path d="M 0 255.314531 
L 254.783594 255.314531 
L 254.783594 0 
L 0 0 
z
" style="fill:#ffffff;"/>
  </g>
  <g id="axes_1">
   <g id="patch_2">
    <path d="M 50.503594 217.909375 
L 247.583594 217.909375 
L 247.583594 21.789375 
L 50.503594 21.789375 
z
" style="fill:#eaeaf2;"/>
   </g>
   <g id="matplotlib.axis_1">
    <g id="xtick_1">
     <g id="line2d_1">
      <path clip-path="url(#p5a94b8b656)" d="M 59.461776 217.909375 
L 59.461776 21.789375 
" style="fill:none;stroke:#ffffff;stroke-linecap:round;"/>
     </g>
     <g id="line2d_2"/>
     <g id="text_1">
      <!-- 0 -->
      <defs>
       <path d="M 4.15625 35.296875 
Q 4.15625 48 6.765625 55.734375 
Q 9.375 63.484375 14.515625 67.671875 
Q 19.671875 71.875 27.484375 71.875 
Q 33.25 71.875 37.59375 69.546875 
Q 41.9375 67.234375 44.765625 62.859375 
Q 47.609375 58.5 49.21875 52.21875 
Q 50.828125 45.953125 50.828125 35.296875 
Q 50.828125 22.703125 48.234375 14.96875 
Q 45.65625 7.234375 40.5 3 
Q 35.359375 -1.21875 27.484375 -1.21875 
Q 17.140625 -1.21875 11.234375 6.203125 
Q 4.15625 15.140625 4.15625 35.296875 
z
M 13.1875 35.296875 
Q 13.1875 17.671875 17.3125 11.828125 
Q 21.4375 6 27.484375 6 
Q 33.546875 6 37.671875 11.859375 
Q 41.796875 17.71875 41.796875 35.296875 
Q 41.796875 52.984375 37.671875 58.78125 
Q 33.546875 64.59375 27.390625 64.59375 
Q 21.34375 64.59375 17.71875 59.46875 
Q 13.1875 52.9375 13.1875 35.296875 
z
" id="ArialMT-48"/>
      </defs>
      <g style="fill:#262626;" transform="translate(56.681307 232.067188)scale(0.1 -0.1)">
       <use xlink:href="#ArialMT-48"/>
      </g>
     </g>
    </g>
    <g id="xtick_2">
     <g id="line2d_3">
      <path clip-path="url(#p5a94b8b656)" d="M 104.252685 217.909375 
L 104.252685 21.789375 
" style="fill:none;stroke:#ffffff;stroke-linecap:round;"/>
     </g>
     <g id="line2d_4"/>
     <g id="text_2">
      <!-- 50 -->
      <defs>
       <path d="M 4.15625 18.75 
L 13.375 19.53125 
Q 14.40625 12.796875 18.140625 9.390625 
Q 21.875 6 27.15625 6 
Q 33.5 6 37.890625 10.78125 
Q 42.28125 15.578125 42.28125 23.484375 
Q 42.28125 31 38.0625 35.34375 
Q 33.84375 39.703125 27 39.703125 
Q 22.75 39.703125 19.328125 37.765625 
Q 15.921875 35.84375 13.96875 32.765625 
L 5.71875 33.84375 
L 12.640625 70.609375 
L 48.25 70.609375 
L 48.25 62.203125 
L 19.671875 62.203125 
L 15.828125 42.96875 
Q 22.265625 47.46875 29.34375 47.46875 
Q 38.71875 47.46875 45.15625 40.96875 
Q 51.609375 34.46875 51.609375 24.265625 
Q 51.609375 14.546875 45.953125 7.46875 
Q 39.0625 -1.21875 27.15625 -1.21875 
Q 17.390625 -1.21875 11.203125 4.25 
Q 5.03125 9.71875 4.15625 18.75 
z
" id="ArialMT-53"/>
      </defs>
      <g style="fill:#262626;" transform="translate(98.691747 232.067188)scale(0.1 -0.1)">
       <use xlink:href="#ArialMT-53"/>
       <use x="55.615234" xlink:href="#ArialMT-48"/>
      </g>
     </g>
    </g>
    <g id="xtick_3">
     <g id="line2d_5">
      <path clip-path="url(#p5a94b8b656)" d="M 149.043594 217.909375 
L 149.043594 21.789375 
" style="fill:none;stroke:#ffffff;stroke-linecap:round;"/>
     </g>
     <g id="line2d_6"/>
     <g id="text_3">
      <!-- 100 -->
      <defs>
       <path d="M 37.25 0 
L 28.46875 0 
L 28.46875 56 
Q 25.296875 52.984375 20.140625 49.953125 
Q 14.984375 46.921875 10.890625 45.40625 
L 10.890625 53.90625 
Q 18.265625 57.375 23.78125 62.296875 
Q 29.296875 67.234375 31.59375 71.875 
L 37.25 71.875 
z
" id="ArialMT-49"/>
      </defs>
      <g style="fill:#262626;" transform="translate(140.702188 232.067188)scale(0.1 -0.1)">
       <use xlink:href="#ArialMT-49"/>
       <use x="55.615234" xlink:href="#ArialMT-48"/>
       <use x="111.230469" xlink:href="#ArialMT-48"/>
      </g>
     </g>
    </g>
    <g id="xtick_4">
     <g id="line2d_7">
      <path clip-path="url(#p5a94b8b656)" d="M 193.834503 217.909375 
L 193.834503 21.789375 
" style="fill:none;stroke:#ffffff;stroke-linecap:round;"/>
     </g>
     <g id="line2d_8"/>
     <g id="text_4">
      <!-- 150 -->
      <g style="fill:#262626;" transform="translate(185.493097 232.067188)scale(0.1 -0.1)">
       <use xlink:href="#ArialMT-49"/>
       <use x="55.615234" xlink:href="#ArialMT-53"/>
       <use x="111.230469" xlink:href="#ArialMT-48"/>
      </g>
     </g>
    </g>
    <g id="xtick_5">
     <g id="line2d_9">
      <path clip-path="url(#p5a94b8b656)" d="M 238.625412 217.909375 
L 238.625412 21.789375 
" style="fill:none;stroke:#ffffff;stroke-linecap:round;"/>
     </g>
     <g id="line2d_10"/>
     <g id="text_5">
      <!-- 200 -->
      <defs>
       <path d="M 50.34375 8.453125 
L 50.34375 0 
L 3.03125 0 
Q 2.9375 3.171875 4.046875 6.109375 
Q 5.859375 10.9375 9.828125 15.625 
Q 13.8125 20.3125 21.34375 26.46875 
Q 33.015625 36.03125 37.109375 41.625 
Q 41.21875 47.21875 41.21875 52.203125 
Q 41.21875 57.421875 37.46875 61 
Q 33.734375 64.59375 27.734375 64.59375 
Q 21.390625 64.59375 17.578125 60.78125 
Q 13.765625 56.984375 13.71875 50.25 
L 4.6875 51.171875 
Q 5.609375 61.28125 11.65625 66.578125 
Q 17.71875 71.875 27.9375 71.875 
Q 38.234375 71.875 44.234375 66.15625 
Q 50.25 60.453125 50.25 52 
Q 50.25 47.703125 48.484375 43.546875 
Q 46.734375 39.40625 42.65625 34.8125 
Q 38.578125 30.21875 29.109375 22.21875 
Q 21.1875 15.578125 18.9375 13.203125 
Q 16.703125 10.84375 15.234375 8.453125 
z
" id="ArialMT-50"/>
      </defs>
      <g style="fill:#262626;" transform="translate(230.284006 232.067188)scale(0.1 -0.1)">
       <use xlink:href="#ArialMT-50"/>
       <use x="55.615234" xlink:href="#ArialMT-48"/>
       <use x="111.230469" xlink:href="#ArialMT-48"/>
      </g>
     </g>
    </g>
    <g id="text_6">
     <!-- Epoch -->
     <defs>
      <path d="M 7.90625 0 
L 7.90625 71.578125 
L 59.671875 71.578125 
L 59.671875 63.140625 
L 17.390625 63.140625 
L 17.390625 41.21875 
L 56.984375 41.21875 
L 56.984375 32.8125 
L 17.390625 32.8125 
L 17.390625 8.453125 
L 61.328125 8.453125 
L 61.328125 0 
z
" id="ArialMT-69"/>
      <path d="M 6.59375 -19.875 
L 6.59375 51.859375 
L 14.59375 51.859375 
L 14.59375 45.125 
Q 17.4375 49.078125 21 51.046875 
Q 24.5625 53.03125 29.640625 53.03125 
Q 36.28125 53.03125 41.359375 49.609375 
Q 46.4375 46.1875 49.015625 39.953125 
Q 51.609375 33.734375 51.609375 26.3125 
Q 51.609375 18.359375 48.75 11.984375 
Q 45.90625 5.609375 40.453125 2.21875 
Q 35.015625 -1.171875 29 -1.171875 
Q 24.609375 -1.171875 21.109375 0.6875 
Q 17.625 2.546875 15.375 5.375 
L 15.375 -19.875 
z
M 14.546875 25.640625 
Q 14.546875 15.625 18.59375 10.84375 
Q 22.65625 6.0625 28.421875 6.0625 
Q 34.28125 6.0625 38.453125 11.015625 
Q 42.625 15.96875 42.625 26.375 
Q 42.625 36.28125 38.546875 41.203125 
Q 34.46875 46.140625 28.8125 46.140625 
Q 23.1875 46.140625 18.859375 40.890625 
Q 14.546875 35.640625 14.546875 25.640625 
z
" id="ArialMT-112"/>
      <path d="M 3.328125 25.921875 
Q 3.328125 40.328125 11.328125 47.265625 
Q 18.015625 53.03125 27.640625 53.03125 
Q 38.328125 53.03125 45.109375 46.015625 
Q 51.90625 39.015625 51.90625 26.65625 
Q 51.90625 16.65625 48.90625 10.90625 
Q 45.90625 5.171875 40.15625 2 
Q 34.421875 -1.171875 27.640625 -1.171875 
Q 16.75 -1.171875 10.03125 5.8125 
Q 3.328125 12.796875 3.328125 25.921875 
z
M 12.359375 25.921875 
Q 12.359375 15.96875 16.703125 11.015625 
Q 21.046875 6.0625 27.640625 6.0625 
Q 34.1875 6.0625 38.53125 11.03125 
Q 42.875 16.015625 42.875 26.21875 
Q 42.875 35.84375 38.5 40.796875 
Q 34.125 45.75 27.640625 45.75 
Q 21.046875 45.75 16.703125 40.8125 
Q 12.359375 35.890625 12.359375 25.921875 
z
" id="ArialMT-111"/>
      <path d="M 40.4375 19 
L 49.078125 17.875 
Q 47.65625 8.9375 41.8125 3.875 
Q 35.984375 -1.171875 27.484375 -1.171875 
Q 16.84375 -1.171875 10.375 5.78125 
Q 3.90625 12.75 3.90625 25.734375 
Q 3.90625 34.125 6.6875 40.421875 
Q 9.46875 46.734375 15.15625 49.875 
Q 20.84375 53.03125 27.546875 53.03125 
Q 35.984375 53.03125 41.359375 48.75 
Q 46.734375 44.484375 48.25 36.625 
L 39.703125 35.296875 
Q 38.484375 40.53125 35.375 43.15625 
Q 32.28125 45.796875 27.875 45.796875 
Q 21.234375 45.796875 17.078125 41.03125 
Q 12.9375 36.28125 12.9375 25.984375 
Q 12.9375 15.53125 16.9375 10.796875 
Q 20.953125 6.0625 27.390625 6.0625 
Q 32.5625 6.0625 36.03125 9.234375 
Q 39.5 12.40625 40.4375 19 
z
" id="ArialMT-99"/>
      <path d="M 6.59375 0 
L 6.59375 71.578125 
L 15.375 71.578125 
L 15.375 45.90625 
Q 21.53125 53.03125 30.90625 53.03125 
Q 36.671875 53.03125 40.921875 50.75 
Q 45.171875 48.484375 47 44.484375 
Q 48.828125 40.484375 48.828125 32.859375 
L 48.828125 0 
L 40.046875 0 
L 40.046875 32.859375 
Q 40.046875 39.453125 37.1875 42.453125 
Q 34.328125 45.453125 29.109375 45.453125 
Q 25.203125 45.453125 21.75 43.421875 
Q 18.3125 41.40625 16.84375 37.9375 
Q 15.375 34.46875 15.375 28.375 
L 15.375 0 
z
" id="ArialMT-104"/>
     </defs>
     <g style="fill:#262626;" transform="translate(133.449375 245.928281)scale(0.11 -0.11)">
      <use xlink:href="#ArialMT-69"/>
      <use x="66.699219" xlink:href="#ArialMT-112"/>
      <use x="122.314453" xlink:href="#ArialMT-111"/>
      <use x="177.929688" xlink:href="#ArialMT-99"/>
      <use x="227.929688" xlink:href="#ArialMT-104"/>
     </g>
    </g>
   </g>
   <g id="matplotlib.axis_2">
    <g id="ytick_1">
     <g id="line2d_11">
      <path clip-path="url(#p5a94b8b656)" d="M 50.503594 208.965279 
L 247.583594 208.965279 
" style="fill:none;stroke:#ffffff;stroke-linecap:round;"/>
     </g>
     <g id="line2d_12"/>
     <g id="text_7">
      <!-- 0 -->
      <g style="fill:#262626;" transform="translate(37.942656 212.544185)scale(0.1 -0.1)">
       <use xlink:href="#ArialMT-48"/>
      </g>
     </g>
    </g>
    <g id="ytick_2">
     <g id="line2d_13">
      <path clip-path="url(#p5a94b8b656)" d="M 50.503594 176.797771 
L 247.583594 176.797771 
" style="fill:none;stroke:#ffffff;stroke-linecap:round;"/>
     </g>
     <g id="line2d_14"/>
     <g id="text_8">
      <!-- 1000 -->
      <g style="fill:#262626;" transform="translate(21.259844 180.376678)scale(0.1 -0.1)">
       <use xlink:href="#ArialMT-49"/>
       <use x="55.615234" xlink:href="#ArialMT-48"/>
       <use x="111.230469" xlink:href="#ArialMT-48"/>
       <use x="166.845703" xlink:href="#ArialMT-48"/>
      </g>
     </g>
    </g>
    <g id="ytick_3">
     <g id="line2d_15">
      <path clip-path="url(#p5a94b8b656)" d="M 50.503594 144.630264 
L 247.583594 144.630264 
" style="fill:none;stroke:#ffffff;stroke-linecap:round;"/>
     </g>
     <g id="line2d_16"/>
     <g id="text_9">
      <!-- 2000 -->
      <g style="fill:#262626;" transform="translate(21.259844 148.20917)scale(0.1 -0.1)">
       <use xlink:href="#ArialMT-50"/>
       <use x="55.615234" xlink:href="#ArialMT-48"/>
       <use x="111.230469" xlink:href="#ArialMT-48"/>
       <use x="166.845703" xlink:href="#ArialMT-48"/>
      </g>
     </g>
    </g>
    <g id="ytick_4">
     <g id="line2d_17">
      <path clip-path="url(#p5a94b8b656)" d="M 50.503594 112.462757 
L 247.583594 112.462757 
" style="fill:none;stroke:#ffffff;stroke-linecap:round;"/>
     </g>
     <g id="line2d_18"/>
     <g id="text_10">
      <!-- 3000 -->
      <defs>
       <path d="M 4.203125 18.890625 
L 12.984375 20.0625 
Q 14.5 12.59375 18.140625 9.296875 
Q 21.78125 6 27 6 
Q 33.203125 6 37.46875 10.296875 
Q 41.75 14.59375 41.75 20.953125 
Q 41.75 27 37.796875 30.921875 
Q 33.84375 34.859375 27.734375 34.859375 
Q 25.25 34.859375 21.53125 33.890625 
L 22.515625 41.609375 
Q 23.390625 41.5 23.921875 41.5 
Q 29.546875 41.5 34.03125 44.421875 
Q 38.53125 47.359375 38.53125 53.46875 
Q 38.53125 58.296875 35.25 61.46875 
Q 31.984375 64.65625 26.8125 64.65625 
Q 21.6875 64.65625 18.265625 61.421875 
Q 14.84375 58.203125 13.875 51.765625 
L 5.078125 53.328125 
Q 6.6875 62.15625 12.390625 67.015625 
Q 18.109375 71.875 26.609375 71.875 
Q 32.46875 71.875 37.390625 69.359375 
Q 42.328125 66.84375 44.9375 62.5 
Q 47.5625 58.15625 47.5625 53.265625 
Q 47.5625 48.640625 45.0625 44.828125 
Q 42.578125 41.015625 37.703125 38.765625 
Q 44.046875 37.3125 47.5625 32.6875 
Q 51.078125 28.078125 51.078125 21.140625 
Q 51.078125 11.765625 44.234375 5.25 
Q 37.40625 -1.265625 26.953125 -1.265625 
Q 17.53125 -1.265625 11.296875 4.34375 
Q 5.078125 9.96875 4.203125 18.890625 
z
" id="ArialMT-51"/>
      </defs>
      <g style="fill:#262626;" transform="translate(21.259844 116.041663)scale(0.1 -0.1)">
       <use xlink:href="#ArialMT-51"/>
       <use x="55.615234" xlink:href="#ArialMT-48"/>
       <use x="111.230469" xlink:href="#ArialMT-48"/>
       <use x="166.845703" xlink:href="#ArialMT-48"/>
      </g>
     </g>
    </g>
    <g id="ytick_5">
     <g id="line2d_19">
      <path clip-path="url(#p5a94b8b656)" d="M 50.503594 80.295249 
L 247.583594 80.295249 
" style="fill:none;stroke:#ffffff;stroke-linecap:round;"/>
     </g>
     <g id="line2d_20"/>
     <g id="text_11">
      <!-- 4000 -->
      <defs>
       <path d="M 32.328125 0 
L 32.328125 17.140625 
L 1.265625 17.140625 
L 1.265625 25.203125 
L 33.9375 71.578125 
L 41.109375 71.578125 
L 41.109375 25.203125 
L 50.78125 25.203125 
L 50.78125 17.140625 
L 41.109375 17.140625 
L 41.109375 0 
z
M 32.328125 25.203125 
L 32.328125 57.46875 
L 9.90625 25.203125 
z
" id="ArialMT-52"/>
      </defs>
      <g style="fill:#262626;" transform="translate(21.259844 83.874156)scale(0.1 -0.1)">
       <use xlink:href="#ArialMT-52"/>
       <use x="55.615234" xlink:href="#ArialMT-48"/>
       <use x="111.230469" xlink:href="#ArialMT-48"/>
       <use x="166.845703" xlink:href="#ArialMT-48"/>
      </g>
     </g>
    </g>
    <g id="ytick_6">
     <g id="line2d_21">
      <path clip-path="url(#p5a94b8b656)" d="M 50.503594 48.127742 
L 247.583594 48.127742 
" style="fill:none;stroke:#ffffff;stroke-linecap:round;"/>
     </g>
     <g id="line2d_22"/>
     <g id="text_12">
      <!-- 5000 -->
      <g style="fill:#262626;" transform="translate(21.259844 51.706648)scale(0.1 -0.1)">
       <use xlink:href="#ArialMT-53"/>
       <use x="55.615234" xlink:href="#ArialMT-48"/>
       <use x="111.230469" xlink:href="#ArialMT-48"/>
       <use x="166.845703" xlink:href="#ArialMT-48"/>
      </g>
     </g>
    </g>
    <g id="text_13">
     <!-- Score -->
     <defs>
      <path d="M 4.5 23 
L 13.421875 23.78125 
Q 14.0625 18.40625 16.375 14.96875 
Q 18.703125 11.53125 23.578125 9.40625 
Q 28.46875 7.28125 34.578125 7.28125 
Q 39.984375 7.28125 44.140625 8.890625 
Q 48.296875 10.5 50.3125 13.296875 
Q 52.34375 16.109375 52.34375 19.4375 
Q 52.34375 22.796875 50.390625 25.3125 
Q 48.4375 27.828125 43.953125 29.546875 
Q 41.0625 30.671875 31.203125 33.03125 
Q 21.34375 35.40625 17.390625 37.5 
Q 12.25 40.1875 9.734375 44.15625 
Q 7.234375 48.140625 7.234375 53.078125 
Q 7.234375 58.5 10.296875 63.203125 
Q 13.375 67.921875 19.28125 70.359375 
Q 25.203125 72.796875 32.421875 72.796875 
Q 40.375 72.796875 46.453125 70.234375 
Q 52.546875 67.671875 55.8125 62.6875 
Q 59.078125 57.71875 59.328125 51.421875 
L 50.25 50.734375 
Q 49.515625 57.515625 45.28125 60.984375 
Q 41.0625 64.453125 32.8125 64.453125 
Q 24.21875 64.453125 20.28125 61.296875 
Q 16.359375 58.15625 16.359375 53.71875 
Q 16.359375 49.859375 19.140625 47.359375 
Q 21.875 44.875 33.421875 42.265625 
Q 44.96875 39.65625 49.265625 37.703125 
Q 55.515625 34.8125 58.484375 30.390625 
Q 61.46875 25.984375 61.46875 20.21875 
Q 61.46875 14.5 58.203125 9.4375 
Q 54.9375 4.390625 48.796875 1.578125 
Q 42.671875 -1.21875 35.015625 -1.21875 
Q 25.296875 -1.21875 18.71875 1.609375 
Q 12.15625 4.4375 8.421875 10.125 
Q 4.6875 15.828125 4.5 23 
z
" id="ArialMT-83"/>
      <path d="M 6.5 0 
L 6.5 51.859375 
L 14.40625 51.859375 
L 14.40625 44 
Q 17.4375 49.515625 20 51.265625 
Q 22.5625 53.03125 25.640625 53.03125 
Q 30.078125 53.03125 34.671875 50.203125 
L 31.640625 42.046875 
Q 28.421875 43.953125 25.203125 43.953125 
Q 22.3125 43.953125 20.015625 42.21875 
Q 17.71875 40.484375 16.75 37.40625 
Q 15.28125 32.71875 15.28125 27.15625 
L 15.28125 0 
z
" id="ArialMT-114"/>
      <path d="M 42.09375 16.703125 
L 51.171875 15.578125 
Q 49.03125 7.625 43.21875 3.21875 
Q 37.40625 -1.171875 28.375 -1.171875 
Q 17 -1.171875 10.328125 5.828125 
Q 3.65625 12.84375 3.65625 25.484375 
Q 3.65625 38.578125 10.390625 45.796875 
Q 17.140625 53.03125 27.875 53.03125 
Q 38.28125 53.03125 44.875 45.953125 
Q 51.46875 38.875 51.46875 26.03125 
Q 51.46875 25.25 51.421875 23.6875 
L 12.75 23.6875 
Q 13.234375 15.140625 17.578125 10.59375 
Q 21.921875 6.0625 28.421875 6.0625 
Q 33.25 6.0625 36.671875 8.59375 
Q 40.09375 11.140625 42.09375 16.703125 
z
M 13.234375 30.90625 
L 42.1875 30.90625 
Q 41.609375 37.453125 38.875 40.71875 
Q 34.671875 45.796875 27.984375 45.796875 
Q 21.921875 45.796875 17.796875 41.75 
Q 13.671875 37.703125 13.234375 30.90625 
z
" id="ArialMT-101"/>
     </defs>
     <g style="fill:#262626;" transform="translate(15.073594 134.216406)rotate(-90)scale(0.11 -0.11)">
      <use xlink:href="#ArialMT-83"/>
      <use x="66.699219" xlink:href="#ArialMT-99"/>
      <use x="116.699219" xlink:href="#ArialMT-111"/>
      <use x="172.314453" xlink:href="#ArialMT-114"/>
      <use x="205.615234" xlink:href="#ArialMT-101"/>
     </g>
    </g>
   </g>
   <g id="PolyCollection_1">
    <path clip-path="url(#p5a94b8b656)" d="M 59.461776 208.890231 
L 59.461776 209.099428 
L 60.357594 205.126878 
L 61.253412 195.081618 
L 62.14923 195.861984 
L 63.045048 199.33172 
L 63.940866 196.432733 
L 64.836685 192.367252 
L 65.732503 193.340317 
L 66.628321 190.785686 
L 67.524139 187.22052 
L 68.419957 179.631692 
L 69.315776 165.470052 
L 70.211594 164.298422 
L 71.107412 163.13607 
L 72.00323 167.657544 
L 72.899048 163.896032 
L 73.794866 150.443075 
L 74.690685 138.13219 
L 75.586503 148.990121 
L 76.482321 137.900185 
L 77.378139 129.564202 
L 78.273957 128.702075 
L 79.169776 116.127404 
L 80.065594 124.835269 
L 80.961412 106.652421 
L 81.85723 119.955035 
L 82.753048 128.8374 
L 83.648866 115.630049 
L 84.544685 123.115839 
L 85.440503 127.852539 
L 86.336321 123.359616 
L 87.232139 120.437814 
L 88.127957 111.696601 
L 89.023776 104.662485 
L 89.919594 112.256208 
L 90.815412 98.795847 
L 91.71123 102.219551 
L 92.607048 115.044708 
L 93.502866 105.861712 
L 94.398685 95.288184 
L 95.294503 99.65931 
L 96.190321 93.934986 
L 97.086139 87.95252 
L 97.981957 79.343917 
L 98.877776 81.379163 
L 99.773594 77.435642 
L 100.669412 72.12166 
L 101.56523 67.982921 
L 102.461048 53.090943 
L 103.356866 64.181133 
L 104.252685 67.323719 
L 105.148503 54.841906 
L 106.044321 49.123593 
L 106.940139 59.686451 
L 107.835957 49.257299 
L 108.731776 51.798589 
L 109.627594 44.630604 
L 110.523412 57.842821 
L 111.41923 42.088663 
L 112.315048 56.225384 
L 113.210866 67.512558 
L 114.106685 47.193632 
L 115.002503 44.140199 
L 115.898321 49.505327 
L 116.794139 46.085392 
L 117.689957 52.704121 
L 118.585776 48.993612 
L 119.481594 40.099096 
L 120.377412 48.680549 
L 121.27323 48.265274 
L 122.169048 45.927819 
L 123.064866 38.945843 
L 123.960685 46.853488 
L 124.856503 39.176626 
L 125.752321 49.672944 
L 126.648139 48.153029 
L 127.543957 46.192432 
L 128.439776 55.81249 
L 129.335594 44.503102 
L 130.231412 35.510012 
L 131.12723 39.460446 
L 132.023048 39.924192 
L 132.918866 49.200896 
L 133.814685 43.248306 
L 134.710503 39.09361 
L 135.606321 48.229502 
L 136.502139 40.641571 
L 137.397957 44.697648 
L 138.293776 43.216225 
L 139.189594 55.489643 
L 140.085412 56.637387 
L 140.98123 41.598277 
L 141.877048 38.06293 
L 142.772866 38.851678 
L 143.668685 45.780708 
L 144.564503 40.722879 
L 145.460321 45.318559 
L 146.356139 37.631848 
L 147.251957 32.776387 
L 148.147776 38.108321 
L 149.043594 33.361806 
L 149.939412 32.455885 
L 150.83523 40.339461 
L 151.731048 33.034147 
L 152.626866 41.534472 
L 153.522685 36.751456 
L 154.418503 38.150188 
L 155.314321 42.885786 
L 156.210139 39.596311 
L 157.105957 38.383597 
L 158.001776 32.761707 
L 158.897594 38.525225 
L 159.793412 33.871082 
L 160.68923 40.186498 
L 161.585048 40.809505 
L 162.480866 37.251403 
L 163.376685 35.796952 
L 164.272503 46.785973 
L 165.168321 44.206741 
L 166.064139 39.507703 
L 166.959957 40.777477 
L 167.855776 39.41876 
L 168.751594 32.969467 
L 169.647412 35.55102 
L 170.54323 37.273248 
L 171.439048 52.99302 
L 172.334866 38.148459 
L 173.230685 32.074655 
L 174.126503 31.431576 
L 175.022321 36.478277 
L 175.918139 39.319653 
L 176.813957 32.442606 
L 177.709776 32.273344 
L 178.605594 40.068015 
L 179.501412 34.351519 
L 180.39723 35.889623 
L 181.293048 33.104673 
L 182.188866 35.637511 
L 183.084685 38.214629 
L 183.980503 32.369467 
L 184.876321 38.388318 
L 185.772139 32.894057 
L 186.667957 38.715932 
L 187.563776 37.537756 
L 188.459594 35.413971 
L 189.355412 38.693571 
L 190.25123 32.210225 
L 191.147048 37.340897 
L 192.042866 35.942501 
L 192.938685 35.656543 
L 193.834503 35.428356 
L 194.730321 40.467023 
L 195.626139 35.55667 
L 196.521957 32.757162 
L 197.417776 33.968049 
L 198.313594 38.008816 
L 199.209412 32.809893 
L 200.10523 32.654563 
L 201.001048 37.357167 
L 201.896866 36.507681 
L 202.792685 31.803073 
L 203.688503 35.45937 
L 204.584321 31.687757 
L 205.480139 36.465041 
L 206.375957 39.385914 
L 207.271776 34.136717 
L 208.167594 39.507282 
L 209.063412 32.504299 
L 209.95923 33.067236 
L 210.855048 32.807815 
L 211.750866 53.930064 
L 212.646685 35.746298 
L 213.542503 37.440851 
L 214.438321 33.947705 
L 215.334139 36.902095 
L 216.229957 34.061461 
L 217.125776 39.648614 
L 218.021594 36.577071 
L 218.917412 34.777289 
L 219.81323 36.597411 
L 220.709048 32.575907 
L 221.604866 36.474409 
L 222.500685 36.248976 
L 223.396503 33.940355 
L 224.292321 36.037453 
L 225.188139 32.237207 
L 226.083957 33.118593 
L 226.979776 42.676242 
L 227.875594 37.233187 
L 228.771412 38.70361 
L 229.66723 32.052873 
L 230.563048 37.717095 
L 231.458866 31.974732 
L 232.354685 32.257188 
L 233.250503 32.559915 
L 234.146321 38.755154 
L 235.042139 32.835309 
L 235.937957 32.107761 
L 236.833776 32.296879 
L 237.729594 45.231316 
L 238.625412 32.259989 
L 238.625412 30.987568 
L 238.625412 30.987568 
L 237.729594 24.698367 
L 236.833776 30.044626 
L 235.937957 30.671989 
L 235.042139 30.430186 
L 234.146321 30.110166 
L 233.250503 31.131282 
L 232.354685 30.415871 
L 231.458866 30.517563 
L 230.563048 28.300002 
L 229.66723 30.64032 
L 228.771412 30.01508 
L 227.875594 28.44901 
L 226.979776 25.729608 
L 226.083957 31.039725 
L 225.188139 30.222521 
L 224.292321 29.759584 
L 223.396503 29.86688 
L 222.500685 29.320354 
L 221.604866 29.551106 
L 220.709048 30.581073 
L 219.81323 29.646627 
L 218.917412 30.460208 
L 218.021594 29.44155 
L 217.125776 30.342767 
L 216.229957 30.085844 
L 215.334139 29.224915 
L 214.438321 29.952009 
L 213.542503 29.376215 
L 212.646685 29.489727 
L 211.750866 23.402268 
L 210.855048 31.004293 
L 209.95923 30.695445 
L 209.063412 30.784781 
L 208.167594 28.496266 
L 207.271776 29.571151 
L 206.375957 29.127367 
L 205.480139 28.248275 
L 204.584321 30.686226 
L 203.688503 29.716643 
L 202.792685 30.435848 
L 201.896866 29.22225 
L 201.001048 28.341366 
L 200.10523 30.63923 
L 199.209412 31.186905 
L 198.313594 28.481113 
L 197.417776 30.408071 
L 196.521957 31.213062 
L 195.626139 28.343886 
L 194.730321 28.188596 
L 193.834503 29.103031 
L 192.938685 28.860947 
L 192.042866 29.668597 
L 191.147048 29.013803 
L 190.25123 30.549444 
L 189.355412 28.174381 
L 188.459594 30.004445 
L 187.563776 28.135962 
L 186.667957 28.488105 
L 185.772139 31.253038 
L 184.876321 29.322389 
L 183.980503 30.392222 
L 183.084685 28.05288 
L 182.188866 29.284339 
L 181.293048 30.128614 
L 180.39723 28.483203 
L 179.501412 29.715155 
L 178.605594 28.60515 
L 177.709776 29.841112 
L 176.813957 30.485292 
L 175.918139 28.712748 
L 175.022321 28.670831 
L 174.126503 29.976264 
L 173.230685 30.100761 
L 172.334866 28.061335 
L 171.439048 22.132493 
L 170.54323 27.9775 
L 169.647412 29.932675 
L 168.751594 30.53539 
L 167.855776 28.405611 
L 166.959957 28.495673 
L 166.064139 28.723982 
L 165.168321 28.825849 
L 164.272503 26.91127 
L 163.376685 29.792372 
L 162.480866 28.584054 
L 161.585048 28.765647 
L 160.68923 28.368333 
L 159.793412 30.463795 
L 158.897594 29.020453 
L 158.001776 30.541853 
L 157.105957 28.919435 
L 156.210139 30.140379 
L 155.314321 27.366476 
L 154.418503 29.115927 
L 153.522685 29.107559 
L 152.626866 28.767611 
L 151.731048 30.824726 
L 150.83523 29.284794 
L 149.939412 30.129346 
L 149.043594 30.420126 
L 148.147776 28.631657 
L 147.251957 31.05485 
L 146.356139 29.025443 
L 145.460321 29.565283 
L 144.564503 29.56173 
L 143.668685 26.249608 
L 142.772866 27.827482 
L 141.877048 30.064671 
L 140.98123 28.497676 
L 140.085412 20.07676 
L 139.189594 24.424369 
L 138.293776 29.049668 
L 137.397957 28.088569 
L 136.502139 28.89487 
L 135.606321 25.077565 
L 134.710503 29.56427 
L 133.814685 29.178656 
L 132.918866 27.795437 
L 132.023048 28.364029 
L 131.12723 27.745311 
L 130.231412 31.028926 
L 129.335594 25.371214 
L 128.439776 25.74769 
L 127.543957 31.519384 
L 126.648139 29.931587 
L 125.752321 30.331618 
L 124.856503 28.360611 
L 123.960685 29.639247 
L 123.064866 29.482972 
L 122.169048 28.884298 
L 121.27323 32.259946 
L 120.377412 27.09504 
L 119.481594 29.931536 
L 118.585776 36.165617 
L 117.689957 32.373006 
L 116.794139 29.856598 
L 115.898321 28.187015 
L 115.002503 30.108753 
L 114.106685 29.420772 
L 113.210866 27.016044 
L 112.315048 26.68955 
L 111.41923 28.755694 
L 110.523412 30.601512 
L 109.627594 31.238614 
L 108.731776 31.777152 
L 107.835957 28.332898 
L 106.940139 27.036159 
L 106.044321 32.583767 
L 105.148503 33.5902 
L 104.252685 34.445506 
L 103.356866 35.653268 
L 102.461048 28.987995 
L 101.56523 32.153747 
L 100.669412 21.981883 
L 99.773594 23.799581 
L 98.877776 24.490656 
L 97.981957 33.96723 
L 97.086139 24.553212 
L 96.190321 24.6864 
L 95.294503 14.117704 
L 94.398685 20.337382 
L 93.502866 16.656952 
L 92.607048 16.458756 
L 91.71123 13.998549 
L 90.815412 14.329622 
L 89.919594 10.061152 
L 89.023776 13.081578 
L 88.127957 25.975556 
L 87.232139 18.688566 
L 86.336321 31.966858 
L 85.440503 34.958754 
L 84.544685 34.343957 
L 83.648866 43.801911 
L 82.753048 52.148663 
L 81.85723 46.123826 
L 80.961412 49.270621 
L 80.065594 40.631062 
L 79.169776 58.662789 
L 78.273957 72.164445 
L 77.378139 69.564178 
L 76.482321 77.242064 
L 75.586503 93.424742 
L 74.690685 83.133661 
L 73.794866 98.940522 
L 72.899048 102.991978 
L 72.00323 110.186846 
L 71.107412 106.217786 
L 70.211594 115.523736 
L 69.315776 131.257779 
L 68.419957 129.432837 
L 67.524139 136.914103 
L 66.628321 156.414637 
L 65.732503 164.677755 
L 64.836685 164.395899 
L 63.940866 167.985883 
L 63.045048 177.022165 
L 62.14923 172.569318 
L 61.253412 176.135596 
L 60.357594 200.356241 
L 59.461776 208.890231 
z
" style="fill:#4c72b0;fill-opacity:0.25;"/>
   </g>
   <g id="PolyCollection_2">
    <path clip-path="url(#p5a94b8b656)" d="M 59.461776 208.890231 
L 59.461776 209.099428 
L 60.357594 205.126878 
L 61.253412 195.081618 
L 62.14923 195.861984 
L 63.045048 199.33172 
L 63.940866 196.432733 
L 64.836685 194.11327 
L 65.732503 201.708281 
L 66.628321 186.808412 
L 67.524139 181.948099 
L 68.419957 181.113872 
L 69.315776 168.358914 
L 70.211594 169.099814 
L 71.107412 152.247832 
L 72.00323 164.452074 
L 72.899048 167.957521 
L 73.794866 150.403933 
L 74.690685 157.35654 
L 75.586503 151.136658 
L 76.482321 142.452723 
L 77.378139 139.415811 
L 78.273957 151.240222 
L 79.169776 131.921056 
L 80.065594 126.422792 
L 80.961412 128.002098 
L 81.85723 134.941982 
L 82.753048 120.008637 
L 83.648866 126.761371 
L 84.544685 131.548161 
L 85.440503 117.113433 
L 86.336321 120.522855 
L 87.232139 115.379422 
L 88.127957 113.227433 
L 89.023776 113.230632 
L 89.919594 112.827575 
L 90.815412 119.010543 
L 91.71123 120.528474 
L 92.607048 105.490269 
L 93.502866 111.187447 
L 94.398685 109.799828 
L 95.294503 112.291007 
L 96.190321 110.881803 
L 97.086139 115.496088 
L 97.981957 104.471135 
L 98.877776 86.221813 
L 99.773594 107.904895 
L 100.669412 96.171071 
L 101.56523 95.76318 
L 102.461048 83.286414 
L 103.356866 72.714412 
L 104.252685 72.233644 
L 105.148503 63.725179 
L 106.044321 69.38953 
L 106.940139 57.119252 
L 107.835957 51.091164 
L 108.731776 65.716487 
L 109.627594 50.358101 
L 110.523412 59.756593 
L 111.41923 50.079779 
L 112.315048 54.590684 
L 113.210866 63.778043 
L 114.106685 45.214373 
L 115.002503 47.152016 
L 115.898321 46.60377 
L 116.794139 62.643287 
L 117.689957 49.249976 
L 118.585776 45.694144 
L 119.481594 53.210292 
L 120.377412 54.390746 
L 121.27323 48.704816 
L 122.169048 49.485688 
L 123.064866 42.416337 
L 123.960685 46.956812 
L 124.856503 39.289977 
L 125.752321 45.020304 
L 126.648139 46.874966 
L 127.543957 40.501977 
L 128.439776 44.32111 
L 129.335594 45.909249 
L 130.231412 36.845385 
L 131.12723 39.222763 
L 132.023048 42.039016 
L 132.918866 44.808866 
L 133.814685 48.866655 
L 134.710503 40.668248 
L 135.606321 35.974297 
L 136.502139 42.370257 
L 137.397957 40.896094 
L 138.293776 36.990133 
L 139.189594 39.984277 
L 140.085412 40.726945 
L 140.98123 32.661133 
L 141.877048 47.301118 
L 142.772866 35.918698 
L 143.668685 34.988335 
L 144.564503 39.411506 
L 145.460321 39.172906 
L 146.356139 44.632559 
L 147.251957 41.375627 
L 148.147776 35.185071 
L 149.043594 33.165931 
L 149.939412 39.406532 
L 150.83523 43.53626 
L 151.731048 40.286676 
L 152.626866 40.762198 
L 153.522685 32.913029 
L 154.418503 33.412453 
L 155.314321 40.298058 
L 156.210139 36.255549 
L 157.105957 36.972565 
L 158.001776 43.360256 
L 158.897594 40.073714 
L 159.793412 42.282061 
L 160.68923 41.104299 
L 161.585048 37.249384 
L 162.480866 33.675016 
L 163.376685 44.491514 
L 164.272503 32.685385 
L 165.168321 37.816993 
L 166.064139 40.668686 
L 166.959957 44.467947 
L 167.855776 51.859159 
L 168.751594 38.211807 
L 169.647412 45.308417 
L 170.54323 34.788957 
L 171.439048 42.968865 
L 172.334866 37.374018 
L 173.230685 37.307406 
L 174.126503 32.1665 
L 175.022321 45.997555 
L 175.918139 38.066577 
L 176.813957 40.521648 
L 177.709776 33.757348 
L 178.605594 41.239546 
L 179.501412 39.677834 
L 180.39723 35.391724 
L 181.293048 31.730422 
L 182.188866 39.451399 
L 183.084685 32.773013 
L 183.980503 38.399939 
L 184.876321 33.208182 
L 185.772139 35.852694 
L 186.667957 33.642329 
L 187.563776 32.513326 
L 188.459594 32.763683 
L 189.355412 33.716613 
L 190.25123 34.687071 
L 191.147048 36.240593 
L 192.042866 34.491177 
L 192.938685 32.89947 
L 193.834503 32.331644 
L 194.730321 37.246528 
L 195.626139 32.936305 
L 196.521957 37.148722 
L 197.417776 32.298986 
L 198.313594 36.520837 
L 199.209412 36.472808 
L 200.10523 36.064 
L 201.001048 32.733536 
L 201.896866 36.215859 
L 202.792685 37.494282 
L 203.688503 32.050494 
L 204.584321 46.7503 
L 205.480139 38.372716 
L 206.375957 31.789241 
L 207.271776 33.327138 
L 208.167594 38.810446 
L 209.063412 35.991986 
L 209.95923 41.296744 
L 210.855048 39.148912 
L 211.750866 41.626148 
L 212.646685 32.441882 
L 213.542503 32.959561 
L 214.438321 36.536901 
L 215.334139 34.940365 
L 216.229957 35.769616 
L 217.125776 42.000838 
L 218.021594 42.431502 
L 218.917412 37.143022 
L 219.81323 45.488935 
L 220.709048 32.10163 
L 221.604866 33.066383 
L 222.500685 44.1867 
L 223.396503 39.098311 
L 224.292321 40.118204 
L 225.188139 38.555413 
L 226.083957 33.459713 
L 226.979776 32.480936 
L 227.875594 33.024651 
L 228.771412 39.242401 
L 229.66723 37.723405 
L 230.563048 35.239793 
L 231.458866 37.736045 
L 232.354685 36.990053 
L 233.250503 36.098812 
L 234.146321 38.569756 
L 235.042139 34.659833 
L 235.937957 35.075051 
L 236.833776 36.369339 
L 237.729594 38.030251 
L 238.625412 32.383773 
L 238.625412 30.959371 
L 238.625412 30.959371 
L 237.729594 28.489675 
L 236.833776 30.389913 
L 235.937957 30.353192 
L 235.042139 30.269062 
L 234.146321 28.905772 
L 233.250503 30.040577 
L 232.354685 30.797872 
L 231.458866 28.943204 
L 230.563048 29.894035 
L 229.66723 29.688194 
L 228.771412 29.322137 
L 227.875594 31.240175 
L 226.979776 31.203657 
L 226.083957 30.358406 
L 225.188139 27.84596 
L 224.292321 28.09694 
L 223.396503 29.34188 
L 222.500685 25.747153 
L 221.604866 31.287267 
L 220.709048 30.465931 
L 219.81323 26.611989 
L 218.917412 29.056706 
L 218.021594 29.386286 
L 217.125776 29.166382 
L 216.229957 29.035037 
L 215.334139 30.413643 
L 214.438321 28.852623 
L 213.542503 30.880529 
L 212.646685 30.982653 
L 211.750866 26.281246 
L 210.855048 29.191957 
L 209.95923 28.519911 
L 209.063412 29.533441 
L 208.167594 28.463283 
L 207.271776 31.039947 
L 206.375957 30.37582 
L 205.480139 28.979872 
L 204.584321 26.666059 
L 203.688503 30.21206 
L 202.792685 28.204328 
L 201.896866 30.638718 
L 201.001048 31.254154 
L 200.10523 29.960974 
L 199.209412 30.419838 
L 198.313594 30.235232 
L 197.417776 30.887254 
L 196.521957 30.150065 
L 195.626139 30.600739 
L 194.730321 29.378474 
L 193.834503 30.717301 
L 192.938685 31.13363 
L 192.042866 30.890498 
L 191.147048 28.54032 
L 190.25123 29.632834 
L 189.355412 31.250245 
L 188.459594 30.224441 
L 187.563776 30.616415 
L 186.667957 30.713188 
L 185.772139 28.990812 
L 184.876321 31.429461 
L 183.980503 28.823182 
L 183.084685 30.946364 
L 182.188866 29.028817 
L 181.293048 30.720681 
L 180.39723 29.832969 
L 179.501412 30.804151 
L 178.605594 29.027431 
L 177.709776 30.902435 
L 176.813957 29.96313 
L 175.918139 30.22381 
L 175.022321 27.684536 
L 174.126503 30.052937 
L 173.230685 29.598019 
L 172.334866 29.621763 
L 171.439048 27.942519 
L 170.54323 30.312944 
L 169.647412 25.053295 
L 168.751594 29.380498 
L 167.855776 28.885393 
L 166.959957 29.118273 
L 166.064139 27.368189 
L 165.168321 28.350831 
L 164.272503 31.243575 
L 163.376685 29.16043 
L 162.480866 31.069302 
L 161.585048 28.731062 
L 160.68923 29.224567 
L 159.793412 26.438171 
L 158.897594 30.191583 
L 158.001776 28.30706 
L 157.105957 30.160806 
L 156.210139 29.401758 
L 155.314321 28.976775 
L 154.418503 31.151004 
L 153.522685 31.205494 
L 152.626866 28.750346 
L 151.731048 30.242874 
L 150.83523 26.85575 
L 149.939412 29.239297 
L 149.043594 30.706119 
L 148.147776 30.085029 
L 147.251957 30.65721 
L 146.356139 27.675627 
L 145.460321 28.903974 
L 144.564503 28.622841 
L 143.668685 30.628799 
L 142.772866 30.484954 
L 141.877048 25.78048 
L 140.98123 31.249067 
L 140.085412 29.809421 
L 139.189594 29.150931 
L 138.293776 30.410262 
L 137.397957 29.187278 
L 136.502139 28.617736 
L 135.606321 29.82841 
L 134.710503 30.963961 
L 133.814685 27.948777 
L 132.918866 30.264447 
L 132.023048 29.831389 
L 131.12723 28.671734 
L 130.231412 30.326341 
L 129.335594 28.859565 
L 128.439776 29.808436 
L 127.543957 27.685062 
L 126.648139 27.926141 
L 125.752321 29.447968 
L 124.856503 28.657969 
L 123.960685 29.583784 
L 123.064866 30.13421 
L 122.169048 33.871049 
L 121.27323 29.193449 
L 120.377412 28.641607 
L 119.481594 32.108032 
L 118.585776 30.628221 
L 117.689957 29.712311 
L 116.794139 29.892804 
L 115.898321 26.268199 
L 115.002503 32.160937 
L 114.106685 31.278473 
L 113.210866 26.551937 
L 112.315048 30.361675 
L 111.41923 30.878458 
L 110.523412 30.65096 
L 109.627594 35.666628 
L 108.731776 31.645437 
L 107.835957 28.160798 
L 106.940139 25.969421 
L 106.044321 23.16537 
L 105.148503 31.130831 
L 104.252685 20.316231 
L 103.356866 19.49052 
L 102.461048 22.243788 
L 101.56523 13.132982 
L 100.669412 16.419654 
L 99.773594 4.33106 
L 98.877776 22.631633 
L 97.981957 11.656049 
L 97.086139 16.944176 
L 96.190321 9.914372 
L 95.294503 9.406221 
L 94.398685 8.333515 
L 93.502866 10.273476 
L 92.607048 16.729105 
L 91.71123 17.760892 
L 90.815412 16.429869 
L 89.919594 10.899262 
L 89.023776 14.215007 
L 88.127957 14.240074 
L 87.232139 14.822758 
L 86.336321 16.517184 
L 85.440503 20.236524 
L 84.544685 27.530309 
L 83.648866 27.063063 
L 82.753048 20.255093 
L 81.85723 44.26296 
L 80.961412 31.006418 
L 80.065594 34.646805 
L 79.169776 44.509364 
L 78.273957 53.547936 
L 77.378139 76.963459 
L 76.482321 65.121752 
L 75.586503 78.11607 
L 74.690685 80.294428 
L 73.794866 80.374727 
L 72.899048 107.55371 
L 72.00323 118.27829 
L 71.107412 118.351173 
L 70.211594 130.021565 
L 69.315776 115.091825 
L 68.419957 145.513871 
L 67.524139 129.594308 
L 66.628321 130.596373 
L 65.732503 158.861417 
L 64.836685 160.199926 
L 63.940866 167.985883 
L 63.045048 177.022165 
L 62.14923 172.569318 
L 61.253412 176.135596 
L 60.357594 200.356241 
L 59.461776 208.890231 
z
" style="fill:#55a868;fill-opacity:0.25;"/>
   </g>
   <g id="line2d_23">
    <path clip-path="url(#p5a94b8b656)" d="M 59.461776 208.99483 
L 60.357594 202.741559 
L 61.253412 185.608607 
L 62.14923 184.215651 
L 63.045048 188.176942 
L 63.940866 182.209308 
L 64.836685 178.381575 
L 65.732503 179.009036 
L 66.628321 173.600161 
L 67.524139 162.067311 
L 68.419957 154.532264 
L 69.315776 148.363916 
L 70.211594 139.911079 
L 71.107412 134.676928 
L 72.00323 138.922195 
L 72.899048 133.444005 
L 73.794866 124.691798 
L 74.690685 110.632926 
L 75.586503 121.207431 
L 76.482321 107.571125 
L 77.378139 99.56419 
L 78.273957 100.43326 
L 79.169776 87.395096 
L 80.961412 77.961521 
L 81.85723 83.03943 
L 82.753048 90.493031 
L 83.648866 79.71598 
L 84.544685 78.729898 
L 85.440503 81.405646 
L 86.336321 77.663237 
L 87.232139 69.56319 
L 88.127957 68.836078 
L 89.023776 58.872032 
L 89.919594 61.15868 
L 90.815412 56.562734 
L 91.71123 58.10905 
L 92.607048 65.751732 
L 93.502866 61.259332 
L 94.398685 57.812783 
L 95.294503 56.888507 
L 96.190321 59.310693 
L 97.086139 56.252866 
L 97.981957 56.655574 
L 98.877776 52.934909 
L 99.773594 50.617612 
L 100.669412 47.051771 
L 101.56523 50.068334 
L 102.461048 41.039469 
L 103.356866 49.917201 
L 104.252685 50.884612 
L 105.148503 44.216053 
L 106.044321 40.85368 
L 106.940139 43.361305 
L 107.835957 38.795099 
L 108.731776 41.78787 
L 109.627594 37.934609 
L 110.523412 44.222167 
L 111.41923 35.422178 
L 113.210866 47.264301 
L 114.106685 38.307202 
L 115.002503 37.124476 
L 115.898321 38.846171 
L 116.794139 37.970995 
L 117.689957 42.538563 
L 118.585776 42.579614 
L 119.481594 35.015316 
L 120.377412 37.887794 
L 121.27323 40.26261 
L 123.064866 34.214408 
L 123.960685 38.246368 
L 124.856503 33.768618 
L 125.752321 40.002281 
L 126.648139 39.042308 
L 127.543957 38.855908 
L 128.439776 40.78009 
L 129.335594 34.937158 
L 130.231412 33.269469 
L 131.12723 33.602879 
L 132.023048 34.144111 
L 132.918866 38.498166 
L 133.814685 36.213481 
L 134.710503 34.32894 
L 135.606321 36.653534 
L 136.502139 34.76822 
L 137.397957 36.393108 
L 138.293776 36.132947 
L 139.189594 39.957006 
L 140.085412 38.357074 
L 140.98123 35.047977 
L 141.877048 34.063801 
L 142.772866 33.33958 
L 143.668685 36.015158 
L 144.564503 35.142304 
L 145.460321 37.441921 
L 146.356139 33.328646 
L 147.251957 31.915619 
L 148.147776 33.369989 
L 149.043594 31.890966 
L 149.939412 31.292616 
L 150.83523 34.812128 
L 151.731048 31.929437 
L 152.626866 35.151041 
L 153.522685 32.929507 
L 154.418503 33.633057 
L 155.314321 35.126131 
L 156.210139 34.868345 
L 157.105957 33.651516 
L 158.001776 31.65178 
L 158.897594 33.772839 
L 159.793412 32.167438 
L 160.68923 34.277416 
L 161.585048 34.787576 
L 162.480866 32.917729 
L 163.376685 32.794662 
L 164.272503 36.848622 
L 165.168321 36.516295 
L 166.064139 34.115843 
L 166.959957 34.636575 
L 167.855776 33.912185 
L 168.751594 31.752429 
L 169.647412 32.741847 
L 170.54323 32.625374 
L 171.439048 37.562757 
L 172.334866 33.104897 
L 173.230685 31.087708 
L 174.126503 30.70392 
L 175.022321 32.574554 
L 175.918139 34.016201 
L 176.813957 31.463949 
L 177.709776 31.057228 
L 178.605594 34.336583 
L 179.501412 32.033337 
L 180.39723 32.186413 
L 181.293048 31.616644 
L 182.188866 32.460925 
L 183.084685 33.133754 
L 183.980503 31.380844 
L 184.876321 33.855353 
L 185.772139 32.073547 
L 186.667957 33.602018 
L 187.563776 32.836859 
L 188.459594 32.709208 
L 189.355412 33.433976 
L 190.25123 31.379835 
L 191.147048 33.17735 
L 192.042866 32.805549 
L 192.938685 32.258745 
L 193.834503 32.265694 
L 194.730321 34.32781 
L 195.626139 31.950278 
L 196.521957 31.985112 
L 197.417776 32.18806 
L 198.313594 33.244964 
L 199.209412 31.998399 
L 200.10523 31.646897 
L 201.001048 32.849267 
L 201.896866 32.864966 
L 202.792685 31.11946 
L 203.688503 32.588007 
L 204.584321 31.186992 
L 205.480139 32.356658 
L 206.375957 34.256641 
L 207.271776 31.853934 
L 208.167594 34.001774 
L 209.063412 31.64454 
L 209.95923 31.88134 
L 210.855048 31.906054 
L 211.750866 38.666166 
L 212.646685 32.618013 
L 213.542503 33.408533 
L 214.438321 31.949857 
L 215.334139 33.063505 
L 216.229957 32.073653 
L 217.125776 34.99569 
L 218.021594 33.00931 
L 218.917412 32.618748 
L 219.81323 33.122019 
L 220.709048 31.57849 
L 221.604866 33.012757 
L 222.500685 32.784665 
L 223.396503 31.903617 
L 224.292321 32.898519 
L 225.188139 31.229864 
L 226.083957 32.079159 
L 226.979776 34.202925 
L 227.875594 32.841099 
L 228.771412 34.359345 
L 229.66723 31.346596 
L 230.563048 33.008548 
L 231.458866 31.246148 
L 232.354685 31.33653 
L 233.250503 31.845598 
L 234.146321 34.43266 
L 235.042139 31.632748 
L 236.833776 31.170752 
L 237.729594 34.964841 
L 238.625412 31.623778 
L 238.625412 31.623778 
" style="fill:none;stroke:#4c72b0;stroke-linecap:round;stroke-width:1.75;"/>
   </g>
   <g id="line2d_24">
    <path clip-path="url(#p5a94b8b656)" d="M 59.461776 208.99483 
L 60.357594 202.741559 
L 61.253412 185.608607 
L 62.14923 184.215651 
L 63.045048 188.176942 
L 63.940866 182.209308 
L 64.836685 177.156598 
L 65.732503 180.284849 
L 66.628321 158.702393 
L 67.524139 155.771204 
L 68.419957 163.313871 
L 69.315776 141.72537 
L 70.211594 149.56069 
L 71.107412 135.299502 
L 72.00323 141.365182 
L 72.899048 137.755615 
L 73.794866 115.38933 
L 74.690685 118.825484 
L 75.586503 114.626364 
L 76.482321 103.787237 
L 77.378139 108.189635 
L 78.273957 102.394079 
L 79.169776 88.21521 
L 80.065594 80.534799 
L 80.961412 79.504258 
L 81.85723 89.602471 
L 82.753048 70.131865 
L 83.648866 76.912217 
L 84.544685 79.539235 
L 85.440503 68.674978 
L 86.336321 68.520019 
L 87.232139 65.10109 
L 88.127957 63.733754 
L 89.023776 63.72282 
L 89.919594 61.863419 
L 90.815412 67.720206 
L 91.71123 69.144683 
L 92.607048 61.109687 
L 93.502866 60.730461 
L 94.398685 59.066672 
L 95.294503 60.848614 
L 96.190321 60.398087 
L 97.086139 66.220132 
L 97.981957 58.063592 
L 98.877776 54.426723 
L 99.773594 56.117978 
L 100.669412 56.295363 
L 102.461048 52.765101 
L 103.356866 46.102466 
L 104.252685 46.274937 
L 105.148503 47.428005 
L 106.044321 46.27745 
L 106.940139 41.544337 
L 107.835957 39.625981 
L 108.731776 48.680962 
L 109.627594 43.012364 
L 110.523412 45.203777 
L 111.41923 40.479118 
L 112.315048 42.47618 
L 113.210866 45.16499 
L 114.106685 38.246423 
L 115.002503 39.656477 
L 115.898321 36.435984 
L 116.794139 46.268046 
L 117.689957 39.481144 
L 118.585776 38.161183 
L 119.481594 42.659162 
L 120.377412 41.516176 
L 121.27323 38.949133 
L 122.169048 41.678369 
L 123.064866 36.275273 
L 123.960685 38.270298 
L 124.856503 33.973973 
L 125.752321 37.234136 
L 126.648139 37.400554 
L 127.543957 34.093519 
L 128.439776 37.064773 
L 129.335594 37.384407 
L 130.231412 33.585863 
L 131.12723 33.947249 
L 132.023048 35.935203 
L 132.918866 37.536656 
L 133.814685 38.407716 
L 135.606321 32.901353 
L 136.502139 35.493997 
L 137.397957 35.041686 
L 138.293776 33.700198 
L 139.189594 34.567604 
L 140.085412 35.268183 
L 140.98123 31.9551 
L 141.877048 36.540799 
L 142.772866 33.201826 
L 143.668685 32.808567 
L 144.564503 34.017174 
L 145.460321 34.03844 
L 146.356139 36.154093 
L 147.251957 36.016418 
L 148.147776 32.63505 
L 149.043594 31.936025 
L 149.939412 34.322914 
L 150.83523 35.196005 
L 151.731048 35.264775 
L 152.626866 34.756272 
L 153.522685 32.059262 
L 154.418503 32.281728 
L 155.314321 34.637416 
L 156.210139 32.828653 
L 157.105957 33.566685 
L 158.001776 35.833658 
L 159.793412 34.360116 
L 160.68923 35.164433 
L 161.585048 32.990223 
L 162.480866 32.372159 
L 163.376685 36.825972 
L 164.272503 31.96448 
L 165.168321 33.083912 
L 166.064139 34.018437 
L 166.959957 36.79311 
L 167.855776 40.372276 
L 168.751594 33.796152 
L 169.647412 35.180856 
L 170.54323 32.550951 
L 171.439048 35.455692 
L 172.334866 33.497891 
L 173.230685 33.452712 
L 174.126503 31.109718 
L 175.022321 36.841045 
L 175.918139 34.145193 
L 176.813957 35.242389 
L 177.709776 32.329891 
L 178.605594 35.133488 
L 179.501412 35.240992 
L 180.39723 32.612346 
L 181.293048 31.225551 
L 182.188866 34.240108 
L 183.084685 31.859688 
L 183.980503 33.611561 
L 184.876321 32.318821 
L 185.772139 32.421753 
L 186.667957 32.177759 
L 187.563776 31.56487 
L 188.459594 31.494062 
L 189.355412 32.483429 
L 190.25123 32.159953 
L 192.042866 32.690837 
L 192.938685 32.01655 
L 193.834503 31.524473 
L 194.730321 33.312501 
L 195.626139 31.768522 
L 196.521957 33.649393 
L 197.417776 31.59312 
L 198.313594 33.378035 
L 199.209412 33.446323 
L 200.10523 33.012487 
L 201.001048 31.993845 
L 201.896866 33.427288 
L 202.792685 32.849305 
L 203.688503 31.131277 
L 204.584321 36.708179 
L 205.480139 33.676294 
L 206.375957 31.08253 
L 207.271776 32.183543 
L 208.167594 33.636865 
L 209.063412 32.762713 
L 209.95923 34.908328 
L 210.855048 34.170434 
L 211.750866 33.953697 
L 212.646685 31.712268 
L 213.542503 31.920045 
L 214.438321 32.694762 
L 215.334139 32.677004 
L 216.229957 32.402327 
L 217.125776 35.58361 
L 218.021594 35.908894 
L 218.917412 33.099864 
L 219.81323 36.050462 
L 220.709048 31.28378 
L 221.604866 32.176825 
L 222.500685 34.966927 
L 223.396503 34.220095 
L 224.292321 34.107572 
L 225.188139 33.200686 
L 226.083957 31.90906 
L 226.979776 31.842296 
L 227.875594 32.132413 
L 228.771412 34.282269 
L 229.66723 33.705799 
L 230.563048 32.566914 
L 231.458866 33.339624 
L 232.354685 33.893962 
L 233.250503 33.069694 
L 234.146321 33.737764 
L 235.042139 32.464448 
L 235.937957 32.714122 
L 236.833776 33.379626 
L 237.729594 33.259963 
L 238.625412 31.671572 
L 238.625412 31.671572 
" style="fill:none;stroke:#55a868;stroke-linecap:round;stroke-width:1.75;"/>
   </g>
   <g id="line2d_25">
    <path clip-path="url(#p5a94b8b656)" d="M 59.461776 31.675316 
L 238.625412 31.675316 
" style="fill:none;stroke:#c44e52;stroke-linecap:round;stroke-width:1.75;"/>
   </g>
   <g id="patch_3">
    <path d="M 50.503594 217.909375 
L 50.503594 21.789375 
" style="fill:none;"/>
   </g>
   <g id="patch_4">
    <path d="M 247.583594 217.909375 
L 247.583594 21.789375 
" style="fill:none;"/>
   </g>
   <g id="patch_5">
    <path d="M 50.503594 217.909375 
L 247.583594 217.909375 
" style="fill:none;"/>
   </g>
   <g id="patch_6">
    <path d="M 50.503594 21.789375 
L 247.583594 21.789375 
" style="fill:none;"/>
   </g>
   <g id="text_14">
    <!-- Walker2d -->
    <defs>
     <path d="M 20.21875 0 
L 1.21875 71.578125 
L 10.9375 71.578125 
L 21.828125 24.65625 
Q 23.578125 17.28125 24.859375 10.015625 
Q 27.59375 21.484375 28.078125 23.25 
L 41.703125 71.578125 
L 53.125 71.578125 
L 63.375 35.359375 
Q 67.234375 21.875 68.953125 10.015625 
Q 70.3125 16.796875 72.515625 25.59375 
L 83.734375 71.578125 
L 93.265625 71.578125 
L 73.640625 0 
L 64.5 0 
L 49.421875 54.546875 
Q 47.515625 61.375 47.171875 62.9375 
Q 46.046875 58.015625 45.0625 54.546875 
L 29.890625 0 
z
" id="ArialMT-87"/>
     <path d="M 40.4375 6.390625 
Q 35.546875 2.25 31.03125 0.53125 
Q 26.515625 -1.171875 21.34375 -1.171875 
Q 12.796875 -1.171875 8.203125 3 
Q 3.609375 7.171875 3.609375 13.671875 
Q 3.609375 17.484375 5.34375 20.625 
Q 7.078125 23.78125 9.890625 25.6875 
Q 12.703125 27.59375 16.21875 28.5625 
Q 18.796875 29.25 24.03125 29.890625 
Q 34.671875 31.15625 39.703125 32.90625 
Q 39.75 34.71875 39.75 35.203125 
Q 39.75 40.578125 37.25 42.78125 
Q 33.890625 45.75 27.25 45.75 
Q 21.046875 45.75 18.09375 43.578125 
Q 15.140625 41.40625 13.71875 35.890625 
L 5.125 37.0625 
Q 6.296875 42.578125 8.984375 45.96875 
Q 11.671875 49.359375 16.75 51.1875 
Q 21.828125 53.03125 28.515625 53.03125 
Q 35.15625 53.03125 39.296875 51.46875 
Q 43.453125 49.90625 45.40625 47.53125 
Q 47.359375 45.171875 48.140625 41.546875 
Q 48.578125 39.3125 48.578125 33.453125 
L 48.578125 21.734375 
Q 48.578125 9.46875 49.140625 6.21875 
Q 49.703125 2.984375 51.375 0 
L 42.1875 0 
Q 40.828125 2.734375 40.4375 6.390625 
z
M 39.703125 26.03125 
Q 34.90625 24.078125 25.34375 22.703125 
Q 19.921875 21.921875 17.671875 20.9375 
Q 15.4375 19.96875 14.203125 18.09375 
Q 12.984375 16.21875 12.984375 13.921875 
Q 12.984375 10.40625 15.640625 8.0625 
Q 18.3125 5.71875 23.4375 5.71875 
Q 28.515625 5.71875 32.46875 7.9375 
Q 36.421875 10.15625 38.28125 14.015625 
Q 39.703125 17 39.703125 22.796875 
z
" id="ArialMT-97"/>
     <path d="M 6.390625 0 
L 6.390625 71.578125 
L 15.1875 71.578125 
L 15.1875 0 
z
" id="ArialMT-108"/>
     <path d="M 6.640625 0 
L 6.640625 71.578125 
L 15.4375 71.578125 
L 15.4375 30.765625 
L 36.234375 51.859375 
L 47.609375 51.859375 
L 27.78125 32.625 
L 49.609375 0 
L 38.765625 0 
L 21.625 26.515625 
L 15.4375 20.5625 
L 15.4375 0 
z
" id="ArialMT-107"/>
     <path d="M 40.234375 0 
L 40.234375 6.546875 
Q 35.296875 -1.171875 25.734375 -1.171875 
Q 19.53125 -1.171875 14.328125 2.25 
Q 9.125 5.671875 6.265625 11.796875 
Q 3.421875 17.921875 3.421875 25.875 
Q 3.421875 33.640625 6 39.96875 
Q 8.59375 46.296875 13.765625 49.65625 
Q 18.953125 53.03125 25.34375 53.03125 
Q 30.03125 53.03125 33.6875 51.046875 
Q 37.359375 49.078125 39.65625 45.90625 
L 39.65625 71.578125 
L 48.390625 71.578125 
L 48.390625 0 
z
M 12.453125 25.875 
Q 12.453125 15.921875 16.640625 10.984375 
Q 20.84375 6.0625 26.5625 6.0625 
Q 32.328125 6.0625 36.34375 10.765625 
Q 40.375 15.484375 40.375 25.140625 
Q 40.375 35.796875 36.265625 40.765625 
Q 32.171875 45.75 26.171875 45.75 
Q 20.3125 45.75 16.375 40.96875 
Q 12.453125 36.1875 12.453125 25.875 
z
" id="ArialMT-100"/>
    </defs>
    <g style="fill:#262626;" transform="translate(123.705781 15.789375)scale(0.12 -0.12)">
     <use xlink:href="#ArialMT-87"/>
     <use x="94.337891" xlink:href="#ArialMT-97"/>
     <use x="149.953125" xlink:href="#ArialMT-108"/>
     <use x="172.169922" xlink:href="#ArialMT-107"/>
     <use x="222.169922" xlink:href="#ArialMT-101"/>
     <use x="277.785156" xlink:href="#ArialMT-114"/>
     <use x="311.085938" xlink:href="#ArialMT-50"/>
     <use x="366.701172" xlink:href="#ArialMT-100"/>
    </g>
   </g>
   <g id="legend_1">
    <g id="line2d_26">
     <path d="M 176.678906 175.014063 
L 196.678906 175.014063 
" style="fill:none;stroke:#4c72b0;stroke-linecap:round;stroke-width:1.75;"/>
    </g>
    <g id="line2d_27"/>
    <g id="text_15">
     <!-- BC -->
     <defs>
      <path d="M 7.328125 0 
L 7.328125 71.578125 
L 34.1875 71.578125 
Q 42.390625 71.578125 47.34375 69.40625 
Q 52.296875 67.234375 55.09375 62.71875 
Q 57.90625 58.203125 57.90625 53.265625 
Q 57.90625 48.6875 55.421875 44.625 
Q 52.9375 40.578125 47.90625 38.09375 
Q 54.390625 36.1875 57.875 31.59375 
Q 61.375 27 61.375 20.75 
Q 61.375 15.71875 59.25 11.390625 
Q 57.125 7.078125 54 4.734375 
Q 50.875 2.390625 46.15625 1.1875 
Q 41.453125 0 34.625 0 
z
M 16.796875 41.5 
L 32.28125 41.5 
Q 38.578125 41.5 41.3125 42.328125 
Q 44.921875 43.40625 46.75 45.890625 
Q 48.578125 48.390625 48.578125 52.15625 
Q 48.578125 55.71875 46.875 58.421875 
Q 45.171875 61.140625 41.984375 62.140625 
Q 38.8125 63.140625 31.109375 63.140625 
L 16.796875 63.140625 
z
M 16.796875 8.453125 
L 34.625 8.453125 
Q 39.203125 8.453125 41.0625 8.796875 
Q 44.34375 9.375 46.53125 10.734375 
Q 48.734375 12.109375 50.140625 14.71875 
Q 51.5625 17.328125 51.5625 20.75 
Q 51.5625 24.75 49.515625 27.703125 
Q 47.46875 30.671875 43.828125 31.859375 
Q 40.1875 33.0625 33.34375 33.0625 
L 16.796875 33.0625 
z
" id="ArialMT-66"/>
      <path d="M 58.796875 25.09375 
L 68.265625 22.703125 
Q 65.28125 11.03125 57.546875 4.90625 
Q 49.8125 -1.21875 38.625 -1.21875 
Q 27.046875 -1.21875 19.796875 3.484375 
Q 12.546875 8.203125 8.765625 17.140625 
Q 4.984375 26.078125 4.984375 36.328125 
Q 4.984375 47.515625 9.25 55.828125 
Q 13.53125 64.15625 21.40625 68.46875 
Q 29.296875 72.796875 38.765625 72.796875 
Q 49.515625 72.796875 56.828125 67.328125 
Q 64.15625 61.859375 67.046875 51.953125 
L 57.71875 49.75 
Q 55.21875 57.5625 50.484375 61.125 
Q 45.75 64.703125 38.578125 64.703125 
Q 30.328125 64.703125 24.78125 60.734375 
Q 19.234375 56.78125 16.984375 50.109375 
Q 14.75 43.453125 14.75 36.375 
Q 14.75 27.25 17.40625 20.4375 
Q 20.0625 13.625 25.671875 10.25 
Q 31.296875 6.890625 37.84375 6.890625 
Q 45.796875 6.890625 51.3125 11.46875 
Q 56.84375 16.0625 58.796875 25.09375 
z
" id="ArialMT-67"/>
     </defs>
     <g style="fill:#262626;" transform="translate(204.678906 178.514063)scale(0.1 -0.1)">
      <use xlink:href="#ArialMT-66"/>
      <use x="66.699219" xlink:href="#ArialMT-67"/>
     </g>
    </g>
    <g id="line2d_28">
     <path d="M 176.678906 189.159375 
L 196.678906 189.159375 
" style="fill:none;stroke:#55a868;stroke-linecap:round;stroke-width:1.75;"/>
    </g>
    <g id="line2d_29"/>
    <g id="text_16">
     <!-- DAgger -->
     <defs>
      <path d="M 7.71875 0 
L 7.71875 71.578125 
L 32.375 71.578125 
Q 40.71875 71.578125 45.125 70.5625 
Q 51.265625 69.140625 55.609375 65.4375 
Q 61.28125 60.640625 64.078125 53.1875 
Q 66.890625 45.75 66.890625 36.1875 
Q 66.890625 28.03125 64.984375 21.734375 
Q 63.09375 15.4375 60.109375 11.296875 
Q 57.125 7.171875 53.578125 4.796875 
Q 50.046875 2.4375 45.046875 1.21875 
Q 40.046875 0 33.546875 0 
z
M 17.1875 8.453125 
L 32.46875 8.453125 
Q 39.546875 8.453125 43.578125 9.765625 
Q 47.609375 11.078125 50 13.484375 
Q 53.375 16.84375 55.25 22.53125 
Q 57.125 28.21875 57.125 36.328125 
Q 57.125 47.5625 53.4375 53.59375 
Q 49.75 59.625 44.484375 61.671875 
Q 40.671875 63.140625 32.234375 63.140625 
L 17.1875 63.140625 
z
" id="ArialMT-68"/>
      <path d="M -0.140625 0 
L 27.34375 71.578125 
L 37.546875 71.578125 
L 66.84375 0 
L 56.0625 0 
L 47.703125 21.6875 
L 17.78125 21.6875 
L 9.90625 0 
z
M 20.515625 29.390625 
L 44.78125 29.390625 
L 37.3125 49.21875 
Q 33.890625 58.25 32.234375 64.0625 
Q 30.859375 57.171875 28.375 50.390625 
z
" id="ArialMT-65"/>
      <path d="M 4.984375 -4.296875 
L 13.53125 -5.5625 
Q 14.0625 -9.515625 16.5 -11.328125 
Q 19.78125 -13.765625 25.4375 -13.765625 
Q 31.546875 -13.765625 34.859375 -11.328125 
Q 38.1875 -8.890625 39.359375 -4.5 
Q 40.046875 -1.8125 39.984375 6.78125 
Q 34.234375 0 25.640625 0 
Q 14.9375 0 9.078125 7.71875 
Q 3.21875 15.4375 3.21875 26.21875 
Q 3.21875 33.640625 5.90625 39.90625 
Q 8.59375 46.1875 13.6875 49.609375 
Q 18.796875 53.03125 25.6875 53.03125 
Q 34.859375 53.03125 40.828125 45.609375 
L 40.828125 51.859375 
L 48.921875 51.859375 
L 48.921875 7.03125 
Q 48.921875 -5.078125 46.453125 -10.125 
Q 44 -15.1875 38.640625 -18.109375 
Q 33.296875 -21.046875 25.484375 -21.046875 
Q 16.21875 -21.046875 10.5 -16.875 
Q 4.78125 -12.703125 4.984375 -4.296875 
z
M 12.25 26.859375 
Q 12.25 16.65625 16.296875 11.96875 
Q 20.359375 7.28125 26.46875 7.28125 
Q 32.515625 7.28125 36.609375 11.9375 
Q 40.71875 16.609375 40.71875 26.5625 
Q 40.71875 36.078125 36.5 40.90625 
Q 32.28125 45.75 26.3125 45.75 
Q 20.453125 45.75 16.34375 40.984375 
Q 12.25 36.234375 12.25 26.859375 
z
" id="ArialMT-103"/>
     </defs>
     <g style="fill:#262626;" transform="translate(204.678906 192.659375)scale(0.1 -0.1)">
      <use xlink:href="#ArialMT-68"/>
      <use x="72.216797" xlink:href="#ArialMT-65"/>
      <use x="138.916016" xlink:href="#ArialMT-103"/>
      <use x="194.53125" xlink:href="#ArialMT-103"/>
      <use x="250.146484" xlink:href="#ArialMT-101"/>
      <use x="305.761719" xlink:href="#ArialMT-114"/>
     </g>
    </g>
    <g id="line2d_30">
     <path d="M 176.678906 203.421875 
L 196.678906 203.421875 
" style="fill:none;stroke:#c44e52;stroke-linecap:round;stroke-width:1.75;"/>
    </g>
    <g id="line2d_31"/>
    <g id="text_17">
     <!-- Expert -->
     <defs>
      <path d="M 0.734375 0 
L 19.671875 26.953125 
L 2.15625 51.859375 
L 13.140625 51.859375 
L 21.09375 39.703125 
Q 23.34375 36.234375 24.703125 33.890625 
Q 26.859375 37.109375 28.65625 39.59375 
L 37.40625 51.859375 
L 47.90625 51.859375 
L 29.984375 27.4375 
L 49.265625 0 
L 38.484375 0 
L 27.828125 16.109375 
L 25 20.453125 
L 11.375 0 
z
" id="ArialMT-120"/>
      <path d="M 25.78125 7.859375 
L 27.046875 0.09375 
Q 23.34375 -0.6875 20.40625 -0.6875 
Q 15.625 -0.6875 12.984375 0.828125 
Q 10.359375 2.34375 9.28125 4.8125 
Q 8.203125 7.28125 8.203125 15.1875 
L 8.203125 45.015625 
L 1.765625 45.015625 
L 1.765625 51.859375 
L 8.203125 51.859375 
L 8.203125 64.703125 
L 16.9375 69.96875 
L 16.9375 51.859375 
L 25.78125 51.859375 
L 25.78125 45.015625 
L 16.9375 45.015625 
L 16.9375 14.703125 
Q 16.9375 10.9375 17.40625 9.859375 
Q 17.875 8.796875 18.921875 8.15625 
Q 19.96875 7.515625 21.921875 7.515625 
Q 23.390625 7.515625 25.78125 7.859375 
z
" id="ArialMT-116"/>
     </defs>
     <g style="fill:#262626;" transform="translate(204.678906 206.921875)scale(0.1 -0.1)">
      <use xlink:href="#ArialMT-69"/>
      <use x="66.699219" xlink:href="#ArialMT-120"/>
      <use x="116.699219" xlink:href="#ArialMT-112"/>
      <use x="172.314453" xlink:href="#ArialMT-101"/>
      <use x="227.929688" xlink:href="#ArialMT-114"/>
      <use x="261.230469" xlink:href="#ArialMT-116"/>
     </g>
    </g>
   </g>
  </g>
 </g>
 <defs>
  <clipPath id="p5a94b8b656">
   <rect height="196.12" width="197.08" x="50.503594" y="21.789375"/>
  </clipPath>
 </defs>
</svg>
