<?xml version="1.0" encoding="utf-8" standalone="no"?>
<!DOCTYPE svg PUBLIC "-//W3C//DTD SVG 1.1//EN"
  "http://www.w3.org/Graphics/SVG/1.1/DTD/svg11.dtd">
<!-- Created with matplotlib (https://matplotlib.org/) -->
<svg height="333.401531pt" version="1.1" viewBox="0 0 439.935 333.401531" width="439.935pt" xmlns="http://www.w3.org/2000/svg" xmlns:xlink="http://www.w3.org/1999/xlink">
 <defs>
  <style type="text/css">
*{stroke-linecap:butt;stroke-linejoin:round;}
  </style>
 </defs>
 <g id="figure_1">
  <g id="patch_1">
   <path d="M 0 333.401531 
L 439.935 333.401531 
L 439.935 0 
L 0 0 
z
" style="fill:#ffffff;"/>
  </g>
  <g id="axes_1">
   <g id="patch_2">
    <path d="M 69.615 279.312 
L 426.735 279.312 
L 426.735 13.2 
L 69.615 13.2 
z
" style="fill:#eaeaf2;"/>
   </g>
   <g id="matplotlib.axis_1">
    <g id="xtick_1">
     <g id="line2d_1">
      <path clip-path="url(#p8b80080376)" d="M 69.615 279.312 
L 69.615 13.2 
" style="fill:none;stroke:#ffffff;stroke-linecap:round;"/>
     </g>
     <g id="text_1">
      <!-- 0 -->
      <defs>
       <path d="M 31.78125 66.40625 
Q 24.171875 66.40625 20.328125 58.90625 
Q 16.5 51.421875 16.5 36.375 
Q 16.5 21.390625 20.328125 13.890625 
Q 24.171875 6.390625 31.78125 6.390625 
Q 39.453125 6.390625 43.28125 13.890625 
Q 47.125 21.390625 47.125 36.375 
Q 47.125 51.421875 43.28125 58.90625 
Q 39.453125 66.40625 31.78125 66.40625 
z
M 31.78125 74.21875 
Q 44.046875 74.21875 50.515625 64.515625 
Q 56.984375 54.828125 56.984375 36.375 
Q 56.984375 17.96875 50.515625 8.265625 
Q 44.046875 -1.421875 31.78125 -1.421875 
Q 19.53125 -1.421875 13.0625 8.265625 
Q 6.59375 17.96875 6.59375 36.375 
Q 6.59375 54.828125 13.0625 64.515625 
Q 19.53125 74.21875 31.78125 74.21875 
z
" id="DejaVuSans-48"/>
      </defs>
      <g style="fill:#262626;" transform="translate(64.365938 301.349422)scale(0.165 -0.165)">
       <use xlink:href="#DejaVuSans-48"/>
      </g>
     </g>
    </g>
    <g id="xtick_2">
     <g id="line2d_2">
      <path clip-path="url(#p8b80080376)" d="M 141.760455 279.312 
L 141.760455 13.2 
" style="fill:none;stroke:#ffffff;stroke-linecap:round;"/>
     </g>
     <g id="text_2">
      <!-- 20 -->
      <defs>
       <path d="M 19.1875 8.296875 
L 53.609375 8.296875 
L 53.609375 0 
L 7.328125 0 
L 7.328125 8.296875 
Q 12.9375 14.109375 22.625 23.890625 
Q 32.328125 33.6875 34.8125 36.53125 
Q 39.546875 41.84375 41.421875 45.53125 
Q 43.3125 49.21875 43.3125 52.78125 
Q 43.3125 58.59375 39.234375 62.25 
Q 35.15625 65.921875 28.609375 65.921875 
Q 23.96875 65.921875 18.8125 64.3125 
Q 13.671875 62.703125 7.8125 59.421875 
L 7.8125 69.390625 
Q 13.765625 71.78125 18.9375 73 
Q 24.125 74.21875 28.421875 74.21875 
Q 39.75 74.21875 46.484375 68.546875 
Q 53.21875 62.890625 53.21875 53.421875 
Q 53.21875 48.921875 51.53125 44.890625 
Q 49.859375 40.875 45.40625 35.40625 
Q 44.1875 33.984375 37.640625 27.21875 
Q 31.109375 20.453125 19.1875 8.296875 
z
" id="DejaVuSans-50"/>
      </defs>
      <g style="fill:#262626;" transform="translate(131.26233 301.349422)scale(0.165 -0.165)">
       <use xlink:href="#DejaVuSans-50"/>
       <use x="63.623047" xlink:href="#DejaVuSans-48"/>
      </g>
     </g>
    </g>
    <g id="xtick_3">
     <g id="line2d_3">
      <path clip-path="url(#p8b80080376)" d="M 213.905909 279.312 
L 213.905909 13.2 
" style="fill:none;stroke:#ffffff;stroke-linecap:round;"/>
     </g>
     <g id="text_3">
      <!-- 40 -->
      <defs>
       <path d="M 37.796875 64.3125 
L 12.890625 25.390625 
L 37.796875 25.390625 
z
M 35.203125 72.90625 
L 47.609375 72.90625 
L 47.609375 25.390625 
L 58.015625 25.390625 
L 58.015625 17.1875 
L 47.609375 17.1875 
L 47.609375 0 
L 37.796875 0 
L 37.796875 17.1875 
L 4.890625 17.1875 
L 4.890625 26.703125 
z
" id="DejaVuSans-52"/>
      </defs>
      <g style="fill:#262626;" transform="translate(203.407784 301.349422)scale(0.165 -0.165)">
       <use xlink:href="#DejaVuSans-52"/>
       <use x="63.623047" xlink:href="#DejaVuSans-48"/>
      </g>
     </g>
    </g>
    <g id="xtick_4">
     <g id="line2d_4">
      <path clip-path="url(#p8b80080376)" d="M 286.051364 279.312 
L 286.051364 13.2 
" style="fill:none;stroke:#ffffff;stroke-linecap:round;"/>
     </g>
     <g id="text_4">
      <!-- 60 -->
      <defs>
       <path d="M 33.015625 40.375 
Q 26.375 40.375 22.484375 35.828125 
Q 18.609375 31.296875 18.609375 23.390625 
Q 18.609375 15.53125 22.484375 10.953125 
Q 26.375 6.390625 33.015625 6.390625 
Q 39.65625 6.390625 43.53125 10.953125 
Q 47.40625 15.53125 47.40625 23.390625 
Q 47.40625 31.296875 43.53125 35.828125 
Q 39.65625 40.375 33.015625 40.375 
z
M 52.59375 71.296875 
L 52.59375 62.3125 
Q 48.875 64.0625 45.09375 64.984375 
Q 41.3125 65.921875 37.59375 65.921875 
Q 27.828125 65.921875 22.671875 59.328125 
Q 17.53125 52.734375 16.796875 39.40625 
Q 19.671875 43.65625 24.015625 45.921875 
Q 28.375 48.1875 33.59375 48.1875 
Q 44.578125 48.1875 50.953125 41.515625 
Q 57.328125 34.859375 57.328125 23.390625 
Q 57.328125 12.15625 50.6875 5.359375 
Q 44.046875 -1.421875 33.015625 -1.421875 
Q 20.359375 -1.421875 13.671875 8.265625 
Q 6.984375 17.96875 6.984375 36.375 
Q 6.984375 53.65625 15.1875 63.9375 
Q 23.390625 74.21875 37.203125 74.21875 
Q 40.921875 74.21875 44.703125 73.484375 
Q 48.484375 72.75 52.59375 71.296875 
z
" id="DejaVuSans-54"/>
      </defs>
      <g style="fill:#262626;" transform="translate(275.553239 301.349422)scale(0.165 -0.165)">
       <use xlink:href="#DejaVuSans-54"/>
       <use x="63.623047" xlink:href="#DejaVuSans-48"/>
      </g>
     </g>
    </g>
    <g id="xtick_5">
     <g id="line2d_5">
      <path clip-path="url(#p8b80080376)" d="M 358.196818 279.312 
L 358.196818 13.2 
" style="fill:none;stroke:#ffffff;stroke-linecap:round;"/>
     </g>
     <g id="text_5">
      <!-- 80 -->
      <defs>
       <path d="M 31.78125 34.625 
Q 24.75 34.625 20.71875 30.859375 
Q 16.703125 27.09375 16.703125 20.515625 
Q 16.703125 13.921875 20.71875 10.15625 
Q 24.75 6.390625 31.78125 6.390625 
Q 38.8125 6.390625 42.859375 10.171875 
Q 46.921875 13.96875 46.921875 20.515625 
Q 46.921875 27.09375 42.890625 30.859375 
Q 38.875 34.625 31.78125 34.625 
z
M 21.921875 38.8125 
Q 15.578125 40.375 12.03125 44.71875 
Q 8.5 49.078125 8.5 55.328125 
Q 8.5 64.0625 14.71875 69.140625 
Q 20.953125 74.21875 31.78125 74.21875 
Q 42.671875 74.21875 48.875 69.140625 
Q 55.078125 64.0625 55.078125 55.328125 
Q 55.078125 49.078125 51.53125 44.71875 
Q 48 40.375 41.703125 38.8125 
Q 48.828125 37.15625 52.796875 32.3125 
Q 56.78125 27.484375 56.78125 20.515625 
Q 56.78125 9.90625 50.3125 4.234375 
Q 43.84375 -1.421875 31.78125 -1.421875 
Q 19.734375 -1.421875 13.25 4.234375 
Q 6.78125 9.90625 6.78125 20.515625 
Q 6.78125 27.484375 10.78125 32.3125 
Q 14.796875 37.15625 21.921875 38.8125 
z
M 18.3125 54.390625 
Q 18.3125 48.734375 21.84375 45.5625 
Q 25.390625 42.390625 31.78125 42.390625 
Q 38.140625 42.390625 41.71875 45.5625 
Q 45.3125 48.734375 45.3125 54.390625 
Q 45.3125 60.0625 41.71875 63.234375 
Q 38.140625 66.40625 31.78125 66.40625 
Q 25.390625 66.40625 21.84375 63.234375 
Q 18.3125 60.0625 18.3125 54.390625 
z
" id="DejaVuSans-56"/>
      </defs>
      <g style="fill:#262626;" transform="translate(347.698693 301.349422)scale(0.165 -0.165)">
       <use xlink:href="#DejaVuSans-56"/>
       <use x="63.623047" xlink:href="#DejaVuSans-48"/>
      </g>
     </g>
    </g>
    <g id="text_6">
     <!-- Iteration -->
     <defs>
      <path d="M 9.8125 72.90625 
L 19.671875 72.90625 
L 19.671875 0 
L 9.8125 0 
z
" id="DejaVuSans-73"/>
      <path d="M 18.3125 70.21875 
L 18.3125 54.6875 
L 36.8125 54.6875 
L 36.8125 47.703125 
L 18.3125 47.703125 
L 18.3125 18.015625 
Q 18.3125 11.328125 20.140625 9.421875 
Q 21.96875 7.515625 27.59375 7.515625 
L 36.8125 7.515625 
L 36.8125 0 
L 27.59375 0 
Q 17.1875 0 13.234375 3.875 
Q 9.28125 7.765625 9.28125 18.015625 
L 9.28125 47.703125 
L 2.6875 47.703125 
L 2.6875 54.6875 
L 9.28125 54.6875 
L 9.28125 70.21875 
z
" id="DejaVuSans-116"/>
      <path d="M 56.203125 29.59375 
L 56.203125 25.203125 
L 14.890625 25.203125 
Q 15.484375 15.921875 20.484375 11.0625 
Q 25.484375 6.203125 34.421875 6.203125 
Q 39.59375 6.203125 44.453125 7.46875 
Q 49.3125 8.734375 54.109375 11.28125 
L 54.109375 2.78125 
Q 49.265625 0.734375 44.1875 -0.34375 
Q 39.109375 -1.421875 33.890625 -1.421875 
Q 20.796875 -1.421875 13.15625 6.1875 
Q 5.515625 13.8125 5.515625 26.8125 
Q 5.515625 40.234375 12.765625 48.109375 
Q 20.015625 56 32.328125 56 
Q 43.359375 56 49.78125 48.890625 
Q 56.203125 41.796875 56.203125 29.59375 
z
M 47.21875 32.234375 
Q 47.125 39.59375 43.09375 43.984375 
Q 39.0625 48.390625 32.421875 48.390625 
Q 24.90625 48.390625 20.390625 44.140625 
Q 15.875 39.890625 15.1875 32.171875 
z
" id="DejaVuSans-101"/>
      <path d="M 41.109375 46.296875 
Q 39.59375 47.171875 37.8125 47.578125 
Q 36.03125 48 33.890625 48 
Q 26.265625 48 22.1875 43.046875 
Q 18.109375 38.09375 18.109375 28.8125 
L 18.109375 0 
L 9.078125 0 
L 9.078125 54.6875 
L 18.109375 54.6875 
L 18.109375 46.1875 
Q 20.953125 51.171875 25.484375 53.578125 
Q 30.03125 56 36.53125 56 
Q 37.453125 56 38.578125 55.875 
Q 39.703125 55.765625 41.0625 55.515625 
z
" id="DejaVuSans-114"/>
      <path d="M 34.28125 27.484375 
Q 23.390625 27.484375 19.1875 25 
Q 14.984375 22.515625 14.984375 16.5 
Q 14.984375 11.71875 18.140625 8.90625 
Q 21.296875 6.109375 26.703125 6.109375 
Q 34.1875 6.109375 38.703125 11.40625 
Q 43.21875 16.703125 43.21875 25.484375 
L 43.21875 27.484375 
z
M 52.203125 31.203125 
L 52.203125 0 
L 43.21875 0 
L 43.21875 8.296875 
Q 40.140625 3.328125 35.546875 0.953125 
Q 30.953125 -1.421875 24.3125 -1.421875 
Q 15.921875 -1.421875 10.953125 3.296875 
Q 6 8.015625 6 15.921875 
Q 6 25.140625 12.171875 29.828125 
Q 18.359375 34.515625 30.609375 34.515625 
L 43.21875 34.515625 
L 43.21875 35.40625 
Q 43.21875 41.609375 39.140625 45 
Q 35.0625 48.390625 27.6875 48.390625 
Q 23 48.390625 18.546875 47.265625 
Q 14.109375 46.140625 10.015625 43.890625 
L 10.015625 52.203125 
Q 14.9375 54.109375 19.578125 55.046875 
Q 24.21875 56 28.609375 56 
Q 40.484375 56 46.34375 49.84375 
Q 52.203125 43.703125 52.203125 31.203125 
z
" id="DejaVuSans-97"/>
      <path d="M 9.421875 54.6875 
L 18.40625 54.6875 
L 18.40625 0 
L 9.421875 0 
z
M 9.421875 75.984375 
L 18.40625 75.984375 
L 18.40625 64.59375 
L 9.421875 64.59375 
z
" id="DejaVuSans-105"/>
      <path d="M 30.609375 48.390625 
Q 23.390625 48.390625 19.1875 42.75 
Q 14.984375 37.109375 14.984375 27.296875 
Q 14.984375 17.484375 19.15625 11.84375 
Q 23.34375 6.203125 30.609375 6.203125 
Q 37.796875 6.203125 41.984375 11.859375 
Q 46.1875 17.53125 46.1875 27.296875 
Q 46.1875 37.015625 41.984375 42.703125 
Q 37.796875 48.390625 30.609375 48.390625 
z
M 30.609375 56 
Q 42.328125 56 49.015625 48.375 
Q 55.71875 40.765625 55.71875 27.296875 
Q 55.71875 13.875 49.015625 6.21875 
Q 42.328125 -1.421875 30.609375 -1.421875 
Q 18.84375 -1.421875 12.171875 6.21875 
Q 5.515625 13.875 5.515625 27.296875 
Q 5.515625 40.765625 12.171875 48.375 
Q 18.84375 56 30.609375 56 
z
" id="DejaVuSans-111"/>
      <path d="M 54.890625 33.015625 
L 54.890625 0 
L 45.90625 0 
L 45.90625 32.71875 
Q 45.90625 40.484375 42.875 44.328125 
Q 39.84375 48.1875 33.796875 48.1875 
Q 26.515625 48.1875 22.3125 43.546875 
Q 18.109375 38.921875 18.109375 30.90625 
L 18.109375 0 
L 9.078125 0 
L 9.078125 54.6875 
L 18.109375 54.6875 
L 18.109375 46.1875 
Q 21.34375 51.125 25.703125 53.5625 
Q 30.078125 56 35.796875 56 
Q 45.21875 56 50.046875 50.171875 
Q 54.890625 44.34375 54.890625 33.015625 
z
" id="DejaVuSans-110"/>
     </defs>
     <g style="fill:#262626;" transform="translate(209.999531 322.458094)scale(0.18 -0.18)">
      <use xlink:href="#DejaVuSans-73"/>
      <use x="29.492188" xlink:href="#DejaVuSans-116"/>
      <use x="68.701172" xlink:href="#DejaVuSans-101"/>
      <use x="130.224609" xlink:href="#DejaVuSans-114"/>
      <use x="171.337891" xlink:href="#DejaVuSans-97"/>
      <use x="232.617188" xlink:href="#DejaVuSans-116"/>
      <use x="271.826172" xlink:href="#DejaVuSans-105"/>
      <use x="299.609375" xlink:href="#DejaVuSans-111"/>
      <use x="360.791016" xlink:href="#DejaVuSans-110"/>
     </g>
    </g>
   </g>
   <g id="matplotlib.axis_2">
    <g id="ytick_1">
     <g id="line2d_6">
      <path clip-path="url(#p8b80080376)" d="M 69.615 278.899334 
L 426.735 278.899334 
" style="fill:none;stroke:#ffffff;stroke-linecap:round;"/>
     </g>
     <g id="text_7">
      <!-- 0 -->
      <g style="fill:#262626;" transform="translate(49.616875 285.168045)scale(0.165 -0.165)">
       <use xlink:href="#DejaVuSans-48"/>
      </g>
     </g>
    </g>
    <g id="ytick_2">
     <g id="line2d_7">
      <path clip-path="url(#p8b80080376)" d="M 69.615 215.498501 
L 426.735 215.498501 
" style="fill:none;stroke:#ffffff;stroke-linecap:round;"/>
     </g>
     <g id="text_8">
      <!-- 50 -->
      <defs>
       <path d="M 10.796875 72.90625 
L 49.515625 72.90625 
L 49.515625 64.59375 
L 19.828125 64.59375 
L 19.828125 46.734375 
Q 21.96875 47.46875 24.109375 47.828125 
Q 26.265625 48.1875 28.421875 48.1875 
Q 40.625 48.1875 47.75 41.5 
Q 54.890625 34.8125 54.890625 23.390625 
Q 54.890625 11.625 47.5625 5.09375 
Q 40.234375 -1.421875 26.90625 -1.421875 
Q 22.3125 -1.421875 17.546875 -0.640625 
Q 12.796875 0.140625 7.71875 1.703125 
L 7.71875 11.625 
Q 12.109375 9.234375 16.796875 8.0625 
Q 21.484375 6.890625 26.703125 6.890625 
Q 35.15625 6.890625 40.078125 11.328125 
Q 45.015625 15.765625 45.015625 23.390625 
Q 45.015625 31 40.078125 35.4375 
Q 35.15625 39.890625 26.703125 39.890625 
Q 22.75 39.890625 18.8125 39.015625 
Q 14.890625 38.140625 10.796875 36.28125 
z
" id="DejaVuSans-53"/>
      </defs>
      <g style="fill:#262626;" transform="translate(39.11875 221.767212)scale(0.165 -0.165)">
       <use xlink:href="#DejaVuSans-53"/>
       <use x="63.623047" xlink:href="#DejaVuSans-48"/>
      </g>
     </g>
    </g>
    <g id="ytick_3">
     <g id="line2d_8">
      <path clip-path="url(#p8b80080376)" d="M 69.615 152.097667 
L 426.735 152.097667 
" style="fill:none;stroke:#ffffff;stroke-linecap:round;"/>
     </g>
     <g id="text_9">
      <!-- 100 -->
      <defs>
       <path d="M 12.40625 8.296875 
L 28.515625 8.296875 
L 28.515625 63.921875 
L 10.984375 60.40625 
L 10.984375 69.390625 
L 28.421875 72.90625 
L 38.28125 72.90625 
L 38.28125 8.296875 
L 54.390625 8.296875 
L 54.390625 0 
L 12.40625 0 
z
" id="DejaVuSans-49"/>
      </defs>
      <g style="fill:#262626;" transform="translate(28.620625 158.366378)scale(0.165 -0.165)">
       <use xlink:href="#DejaVuSans-49"/>
       <use x="63.623047" xlink:href="#DejaVuSans-48"/>
       <use x="127.246094" xlink:href="#DejaVuSans-48"/>
      </g>
     </g>
    </g>
    <g id="ytick_4">
     <g id="line2d_9">
      <path clip-path="url(#p8b80080376)" d="M 69.615 88.696834 
L 426.735 88.696834 
" style="fill:none;stroke:#ffffff;stroke-linecap:round;"/>
     </g>
     <g id="text_10">
      <!-- 150 -->
      <g style="fill:#262626;" transform="translate(28.620625 94.965545)scale(0.165 -0.165)">
       <use xlink:href="#DejaVuSans-49"/>
       <use x="63.623047" xlink:href="#DejaVuSans-53"/>
       <use x="127.246094" xlink:href="#DejaVuSans-48"/>
      </g>
     </g>
    </g>
    <g id="ytick_5">
     <g id="line2d_10">
      <path clip-path="url(#p8b80080376)" d="M 69.615 25.296 
L 426.735 25.296 
" style="fill:none;stroke:#ffffff;stroke-linecap:round;"/>
     </g>
     <g id="text_11">
      <!-- 200 -->
      <g style="fill:#262626;" transform="translate(28.620625 31.564711)scale(0.165 -0.165)">
       <use xlink:href="#DejaVuSans-50"/>
       <use x="63.623047" xlink:href="#DejaVuSans-48"/>
       <use x="127.246094" xlink:href="#DejaVuSans-48"/>
      </g>
     </g>
    </g>
    <g id="text_12">
     <!-- AverageReturn -->
     <defs>
      <path d="M 34.1875 63.1875 
L 20.796875 26.90625 
L 47.609375 26.90625 
z
M 28.609375 72.90625 
L 39.796875 72.90625 
L 67.578125 0 
L 57.328125 0 
L 50.6875 18.703125 
L 17.828125 18.703125 
L 11.1875 0 
L 0.78125 0 
z
" id="DejaVuSans-65"/>
      <path d="M 2.984375 54.6875 
L 12.5 54.6875 
L 29.59375 8.796875 
L 46.6875 54.6875 
L 56.203125 54.6875 
L 35.6875 0 
L 23.484375 0 
z
" id="DejaVuSans-118"/>
      <path d="M 45.40625 27.984375 
Q 45.40625 37.75 41.375 43.109375 
Q 37.359375 48.484375 30.078125 48.484375 
Q 22.859375 48.484375 18.828125 43.109375 
Q 14.796875 37.75 14.796875 27.984375 
Q 14.796875 18.265625 18.828125 12.890625 
Q 22.859375 7.515625 30.078125 7.515625 
Q 37.359375 7.515625 41.375 12.890625 
Q 45.40625 18.265625 45.40625 27.984375 
z
M 54.390625 6.78125 
Q 54.390625 -7.171875 48.1875 -13.984375 
Q 42 -20.796875 29.203125 -20.796875 
Q 24.46875 -20.796875 20.265625 -20.09375 
Q 16.0625 -19.390625 12.109375 -17.921875 
L 12.109375 -9.1875 
Q 16.0625 -11.328125 19.921875 -12.34375 
Q 23.78125 -13.375 27.78125 -13.375 
Q 36.625 -13.375 41.015625 -8.765625 
Q 45.40625 -4.15625 45.40625 5.171875 
L 45.40625 9.625 
Q 42.625 4.78125 38.28125 2.390625 
Q 33.9375 0 27.875 0 
Q 17.828125 0 11.671875 7.65625 
Q 5.515625 15.328125 5.515625 27.984375 
Q 5.515625 40.671875 11.671875 48.328125 
Q 17.828125 56 27.875 56 
Q 33.9375 56 38.28125 53.609375 
Q 42.625 51.21875 45.40625 46.390625 
L 45.40625 54.6875 
L 54.390625 54.6875 
z
" id="DejaVuSans-103"/>
      <path d="M 44.390625 34.1875 
Q 47.5625 33.109375 50.5625 29.59375 
Q 53.5625 26.078125 56.59375 19.921875 
L 66.609375 0 
L 56 0 
L 46.6875 18.703125 
Q 43.0625 26.03125 39.671875 28.421875 
Q 36.28125 30.8125 30.421875 30.8125 
L 19.671875 30.8125 
L 19.671875 0 
L 9.8125 0 
L 9.8125 72.90625 
L 32.078125 72.90625 
Q 44.578125 72.90625 50.734375 67.671875 
Q 56.890625 62.453125 56.890625 51.90625 
Q 56.890625 45.015625 53.6875 40.46875 
Q 50.484375 35.9375 44.390625 34.1875 
z
M 19.671875 64.796875 
L 19.671875 38.921875 
L 32.078125 38.921875 
Q 39.203125 38.921875 42.84375 42.21875 
Q 46.484375 45.515625 46.484375 51.90625 
Q 46.484375 58.296875 42.84375 61.546875 
Q 39.203125 64.796875 32.078125 64.796875 
z
" id="DejaVuSans-82"/>
      <path d="M 8.5 21.578125 
L 8.5 54.6875 
L 17.484375 54.6875 
L 17.484375 21.921875 
Q 17.484375 14.15625 20.5 10.265625 
Q 23.53125 6.390625 29.59375 6.390625 
Q 36.859375 6.390625 41.078125 11.03125 
Q 45.3125 15.671875 45.3125 23.6875 
L 45.3125 54.6875 
L 54.296875 54.6875 
L 54.296875 0 
L 45.3125 0 
L 45.3125 8.40625 
Q 42.046875 3.421875 37.71875 1 
Q 33.40625 -1.421875 27.6875 -1.421875 
Q 18.265625 -1.421875 13.375 4.4375 
Q 8.5 10.296875 8.5 21.578125 
z
M 31.109375 56 
z
" id="DejaVuSans-117"/>
     </defs>
     <g style="fill:#262626;" transform="translate(20.877188 214.156781)rotate(-90)scale(0.18 -0.18)">
      <use xlink:href="#DejaVuSans-65"/>
      <use x="68.330078" xlink:href="#DejaVuSans-118"/>
      <use x="127.509766" xlink:href="#DejaVuSans-101"/>
      <use x="189.033203" xlink:href="#DejaVuSans-114"/>
      <use x="230.146484" xlink:href="#DejaVuSans-97"/>
      <use x="291.425781" xlink:href="#DejaVuSans-103"/>
      <use x="354.902344" xlink:href="#DejaVuSans-101"/>
      <use x="416.425781" xlink:href="#DejaVuSans-82"/>
      <use x="485.845703" xlink:href="#DejaVuSans-101"/>
      <use x="547.369141" xlink:href="#DejaVuSans-116"/>
      <use x="586.578125" xlink:href="#DejaVuSans-117"/>
      <use x="649.957031" xlink:href="#DejaVuSans-114"/>
      <use x="691.054688" xlink:href="#DejaVuSans-110"/>
     </g>
    </g>
   </g>
   <g id="PolyCollection_1">
    <defs>
     <path d="M 69.615 -78.466469 
L 69.615 -75.351465 
L 73.222273 -86.846734 
L 76.829545 -100.305916 
L 80.436818 -109.240086 
L 84.044091 -126.680522 
L 87.651364 -129.714629 
L 91.258636 -145.068802 
L 94.865909 -152.244674 
L 98.473182 -158.384631 
L 102.080455 -157.648307 
L 105.687727 -167.271146 
L 109.295 -176.578989 
L 112.902273 -170.877948 
L 116.509545 -190.179981 
L 120.116818 -185.930037 
L 123.724091 -204.622192 
L 127.331364 -215.501888 
L 130.938636 -238.752065 
L 134.545909 -272.741954 
L 138.153182 -294.298241 
L 141.760455 -307.823753 
L 145.367727 -299.370308 
L 148.975 -302.892571 
L 152.582273 -308.105531 
L 156.189545 -304.865047 
L 159.796818 -308.105531 
L 163.404091 -308.105531 
L 167.011364 -306.133064 
L 170.618636 -303.456137 
L 174.225909 -304.019703 
L 177.833182 -308.105531 
L 181.440455 -308.105531 
L 185.047727 -308.105531 
L 188.655 -308.105531 
L 192.262273 -298.665849 
L 195.869545 -308.105531 
L 199.476818 -308.105531 
L 203.084091 -299.229415 
L 206.691364 -301.765448 
L 210.298636 -308.105531 
L 213.905909 -305.851277 
L 217.513182 -308.105531 
L 221.120455 -304.58326 
L 224.727727 -308.105531 
L 228.335 -305.851277 
L 231.942273 -296.834275 
L 235.549545 -302.610792 
L 239.156818 -299.79298 
L 242.764091 -308.105531 
L 246.371364 -285.844797 
L 249.978636 -280.561394 
L 253.585909 -271.936865 
L 257.193182 -246.093476 
L 260.800455 -259.437847 
L 264.407727 -209.881206 
L 268.015 -198.304679 
L 271.622273 -199.009132 
L 275.229545 -211.929987 
L 278.836818 -208.777563 
L 282.444091 -217.548007 
L 286.051364 -219.445003 
L 289.658636 -218.129182 
L 293.265909 -215.058939 
L 296.873182 -210.256911 
L 300.480455 -209.716836 
L 304.087727 -206.992937 
L 307.695 -206.283792 
L 311.302273 -209.997272 
L 314.909545 -174.956232 
L 318.516818 -166.341267 
L 322.124091 -168.902965 
L 325.731364 -166.737212 
L 329.338636 -154.730766 
L 332.945909 -152.656079 
L 336.553182 -161.907558 
L 340.160455 -161.888914 
L 343.767727 -167.831187 
L 347.375 -164.198071 
L 350.982273 -163.393129 
L 354.589545 -157.698176 
L 358.196818 -161.781494 
L 361.804091 -165.772335 
L 365.411364 -174.259326 
L 369.018636 -176.818843 
L 372.625909 -178.979164 
L 376.233182 -174.024513 
L 379.840455 -175.926535 
L 383.447727 -177.541253 
L 387.055 -177.215269 
L 390.662273 -179.98888 
L 394.269545 -187.808316 
L 397.876818 -189.519555 
L 401.484091 -188.198705 
L 405.091364 -188.686535 
L 408.698636 -194.146054 
L 412.305909 -195.325204 
L 415.913182 -179.500461 
L 419.520455 -189.297069 
L 423.127727 -196.211442 
L 426.735 -197.565005 
L 426.735 -259.463002 
L 426.735 -259.463002 
L 423.127727 -255.573414 
L 419.520455 -253.918952 
L 415.913182 -254.313445 
L 412.305909 -256.92968 
L 408.698636 -252.791825 
L 405.091364 -254.059841 
L 401.484091 -251.49387 
L 397.876818 -250.595692 
L 394.269545 -250.269879 
L 390.662273 -250.622109 
L 387.055 -248.881695 
L 383.447727 -253.193363 
L 379.840455 -250.093768 
L 376.233182 -229.15975 
L 372.625909 -238.505504 
L 369.018636 -230.592137 
L 365.411364 -245.796599 
L 361.804091 -240.74969 
L 358.196818 -224.220193 
L 354.589545 -222.755101 
L 350.982273 -225.948618 
L 347.375 -227.1638 
L 343.767727 -214.119662 
L 340.160455 -208.830393 
L 336.553182 -215.25266 
L 332.945909 -190.87504 
L 329.338636 -205.114402 
L 325.731364 -210.004479 
L 322.124091 -218.760674 
L 318.516818 -215.25853 
L 314.909545 -214.606915 
L 311.302273 -246.274621 
L 307.695 -227.417404 
L 304.087727 -234.627659 
L 300.480455 -239.505161 
L 296.873182 -225.986362 
L 293.265909 -241.119533 
L 289.658636 -223.940925 
L 286.051364 -232.583063 
L 282.444091 -221.669061 
L 278.836818 -241.169011 
L 275.229545 -251.044783 
L 271.622273 -254.14438 
L 268.015 -257.807537 
L 264.407727 -269.736285 
L 260.800455 -290.715591 
L 257.193182 -284.315121 
L 253.585909 -294.761165 
L 249.978636 -296.904717 
L 246.371364 -299.652087 
L 242.764091 -308.105531 
L 239.156818 -308.105531 
L 235.549545 -308.105531 
L 231.942273 -308.105531 
L 228.335 -308.105531 
L 224.727727 -308.105531 
L 221.120455 -308.105531 
L 217.513182 -308.105531 
L 213.905909 -308.105531 
L 210.298636 -308.105531 
L 206.691364 -308.105531 
L 203.084091 -308.105531 
L 199.476818 -308.105531 
L 195.869545 -308.105531 
L 192.262273 -308.105531 
L 188.655 -308.105531 
L 185.047727 -308.105531 
L 181.440455 -308.105531 
L 177.833182 -308.105531 
L 174.225909 -308.105531 
L 170.618636 -308.105531 
L 167.011364 -308.105531 
L 163.404091 -308.105531 
L 159.796818 -308.105531 
L 156.189545 -308.105531 
L 152.582273 -308.105531 
L 148.975 -308.105531 
L 145.367727 -308.105531 
L 141.760455 -308.105531 
L 138.153182 -301.765448 
L 134.545909 -295.284475 
L 130.938636 -283.731436 
L 127.331364 -274.714426 
L 123.724091 -269.400827 
L 120.116818 -235.073807 
L 116.509545 -217.747606 
L 112.902273 -212.16698 
L 109.295 -212.602742 
L 105.687727 -197.069538 
L 102.080455 -215.644981 
L 98.473182 -217.8881 
L 94.865909 -188.464429 
L 91.258636 -184.734967 
L 87.651364 -161.63335 
L 84.044091 -155.409428 
L 80.436818 -117.809598 
L 76.829545 -105.669828 
L 73.222273 -89.220053 
L 69.615 -78.466469 
z
" id="m9d7531c40f" style="stroke:#ffffff;stroke-opacity:0.2;"/>
    </defs>
    <g clip-path="url(#p8b80080376)">
     <use style="fill:#4c72b0;fill-opacity:0.2;stroke:#ffffff;stroke-opacity:0.2;" x="0" xlink:href="#m9d7531c40f" y="333.401531"/>
    </g>
   </g>
   <g id="PolyCollection_2">
    <defs>
     <path d="M 69.615 -77.696053 
L 69.615 -75.351465 
L 73.222273 -86.846734 
L 76.829545 -106.577581 
L 80.436818 -111.321419 
L 84.044091 -116.802871 
L 87.651364 -122.575907 
L 91.258636 -138.663283 
L 94.865909 -150.936107 
L 98.473182 -151.200208 
L 102.080455 -162.847178 
L 105.687727 -199.901442 
L 109.295 -189.334636 
L 112.902273 -210.103214 
L 116.509545 -195.111159 
L 120.116818 -230.87392 
L 123.724091 -243.788906 
L 127.331364 -266.442121 
L 130.938636 -297.538726 
L 134.545909 -305.569498 
L 138.153182 -308.105531 
L 141.760455 -307.40108 
L 145.367727 -308.105531 
L 148.975 -308.105531 
L 152.582273 -287.535486 
L 156.189545 -307.964638 
L 159.796818 -308.105531 
L 163.404091 -300.497431 
L 167.011364 -305.851277 
L 170.618636 -303.59703 
L 174.225909 -299.652087 
L 177.833182 -304.160588 
L 181.440455 -308.105531 
L 185.047727 -308.105531 
L 188.655 -308.105531 
L 192.262273 -308.105531 
L 195.869545 -308.105531 
L 199.476818 -308.105531 
L 203.084091 -308.105531 
L 206.691364 -308.105531 
L 210.298636 -308.105531 
L 213.905909 -308.105531 
L 217.513182 -308.105531 
L 221.120455 -307.541965 
L 224.727727 -306.555736 
L 228.335 -308.105531 
L 231.942273 -305.569498 
L 235.549545 -307.260187 
L 239.156818 -302.18812 
L 242.764091 -298.243177 
L 246.371364 -290.494191 
L 249.978636 -302.047227 
L 253.585909 -299.511193 
L 257.193182 -298.38407 
L 260.800455 -287.535486 
L 264.407727 -299.370308 
L 268.015 -296.411603 
L 271.622273 -298.243177 
L 275.229545 -300.074759 
L 278.836818 -300.356538 
L 282.444091 -304.724153 
L 286.051364 -294.861799 
L 289.658636 -294.016454 
L 293.265909 -288.662609 
L 296.873182 -302.892571 
L 300.480455 -293.523344 
L 304.087727 -292.889331 
L 307.695 -284.435887 
L 311.302273 -298.38407 
L 314.909545 -300.497431 
L 318.516818 -303.878809 
L 322.124091 -298.38407 
L 325.731364 -298.806742 
L 329.338636 -305.428604 
L 332.945909 -307.823753 
L 336.553182 -306.273949 
L 340.160455 -301.483669 
L 343.767727 -304.301481 
L 347.375 -306.837515 
L 350.982273 -308.105531 
L 354.589545 -308.105531 
L 358.196818 -308.105531 
L 361.804091 -308.105531 
L 365.411364 -308.105531 
L 369.018636 -308.105531 
L 372.625909 -308.105531 
L 376.233182 -308.105531 
L 379.840455 -308.105531 
L 383.447727 -308.105531 
L 387.055 -308.105531 
L 390.662273 -308.105531 
L 394.269545 -308.105531 
L 397.876818 -308.105531 
L 401.484091 -308.105531 
L 405.091364 -308.105531 
L 408.698636 -308.105531 
L 412.305909 -308.105531 
L 415.913182 -308.105531 
L 419.520455 -308.105531 
L 423.127727 -308.105531 
L 426.735 -308.105531 
L 426.735 -308.105531 
L 426.735 -308.105531 
L 423.127727 -308.105531 
L 419.520455 -308.105531 
L 415.913182 -308.105531 
L 412.305909 -308.105531 
L 408.698636 -308.105531 
L 405.091364 -308.105531 
L 401.484091 -308.105531 
L 397.876818 -308.105531 
L 394.269545 -308.105531 
L 390.662273 -308.105531 
L 387.055 -308.105531 
L 383.447727 -308.105531 
L 379.840455 -308.105531 
L 376.233182 -308.105531 
L 372.625909 -308.105531 
L 369.018636 -308.105531 
L 365.411364 -308.105531 
L 361.804091 -308.105531 
L 358.196818 -308.105531 
L 354.589545 -308.105531 
L 350.982273 -308.105531 
L 347.375 -308.105531 
L 343.767727 -308.105531 
L 340.160455 -308.105531 
L 336.553182 -308.105531 
L 332.945909 -308.105531 
L 329.338636 -308.105531 
L 325.731364 -308.105531 
L 322.124091 -308.105531 
L 318.516818 -308.105531 
L 314.909545 -308.105531 
L 311.302273 -308.105531 
L 307.695 -308.105531 
L 304.087727 -303.033465 
L 300.480455 -300.99055 
L 296.873182 -308.105531 
L 293.265909 -308.105531 
L 289.658636 -308.105531 
L 286.051364 -303.59703 
L 282.444091 -308.105531 
L 278.836818 -308.105531 
L 275.229545 -308.105531 
L 271.622273 -308.105531 
L 268.015 -308.105531 
L 264.407727 -308.105531 
L 260.800455 -308.105531 
L 257.193182 -308.105531 
L 253.585909 -308.105531 
L 249.978636 -308.105531 
L 246.371364 -308.105531 
L 242.764091 -308.105531 
L 239.156818 -308.105531 
L 235.549545 -308.105531 
L 231.942273 -308.105531 
L 228.335 -308.105531 
L 224.727727 -308.105531 
L 221.120455 -308.105531 
L 217.513182 -308.105531 
L 213.905909 -308.105531 
L 210.298636 -308.105531 
L 206.691364 -308.105531 
L 203.084091 -308.105531 
L 199.476818 -308.105531 
L 195.869545 -308.105531 
L 192.262273 -308.105531 
L 188.655 -308.105531 
L 185.047727 -308.105531 
L 181.440455 -308.105531 
L 177.833182 -308.105531 
L 174.225909 -308.105531 
L 170.618636 -308.105531 
L 167.011364 -308.105531 
L 163.404091 -308.105531 
L 159.796818 -308.105531 
L 156.189545 -308.105531 
L 152.582273 -308.105531 
L 148.975 -308.105531 
L 145.367727 -308.105531 
L 141.760455 -308.105531 
L 138.153182 -308.105531 
L 134.545909 -308.105531 
L 130.938636 -306.696621 
L 127.331364 -306.414842 
L 123.724091 -297.397832 
L 120.116818 -284.013214 
L 116.509545 -258.290588 
L 112.902273 -280.279611 
L 109.295 -252.433564 
L 105.687727 -239.421295 
L 102.080455 -233.36299 
L 98.473182 -206.61723 
L 94.865909 -204.021613 
L 91.258636 -181.4835 
L 87.651364 -140.017841 
L 84.044091 -128.378578 
L 80.436818 -118.977188 
L 76.829545 -110.503309 
L 73.222273 -89.220053 
L 69.615 -77.696053 
z
" id="mc4a7511d83" style="stroke:#ffffff;stroke-opacity:0.2;"/>
    </defs>
    <g clip-path="url(#p8b80080376)">
     <use style="fill:#dd8452;fill-opacity:0.2;stroke:#ffffff;stroke-opacity:0.2;" x="0" xlink:href="#mc4a7511d83" y="333.401531"/>
    </g>
   </g>
   <g id="PolyCollection_3">
    <defs>
     <path d="M 69.615 -77.696053 
L 69.615 -75.351465 
L 73.222273 -72.58463 
L 76.829545 -75.54921 
L 80.436818 -76.255021 
L 84.044091 -82.810398 
L 87.651364 -85.017284 
L 91.258636 -89.125578 
L 94.865909 -99.978377 
L 98.473182 -102.344715 
L 102.080455 -117.27121 
L 105.687727 -138.48415 
L 109.295 -135.179758 
L 112.902273 -131.329091 
L 116.509545 -143.346385 
L 120.116818 -151.210536 
L 123.724091 -146.784376 
L 127.331364 -160.462094 
L 130.938636 -164.224065 
L 134.545909 -184.685242 
L 138.153182 -219.978373 
L 141.760455 -261.027902 
L 145.367727 -255.674044 
L 148.975 -267.126457 
L 152.582273 -256.53952 
L 156.189545 -252.524134 
L 159.796818 -241.32332 
L 163.404091 -262.094642 
L 167.011364 -270.185789 
L 170.618636 -280.329922 
L 174.225909 -283.449649 
L 177.833182 -300.215653 
L 181.440455 -305.146826 
L 185.047727 -308.105531 
L 188.655 -301.201882 
L 192.262273 -287.394592 
L 195.869545 -271.634963 
L 199.476818 -259.392557 
L 203.084091 -250.939113 
L 206.691364 -243.295792 
L 210.298636 -242.356517 
L 213.905909 -238.975139 
L 217.513182 -239.444779 
L 221.120455 -244.986481 
L 224.727727 -249.142756 
L 228.335 -269.340444 
L 231.942273 -275.982442 
L 235.549545 -283.449649 
L 239.156818 -292.889331 
L 242.764091 -289.226175 
L 246.371364 -289.789732 
L 249.978636 -267.649755 
L 253.585909 -289.36706 
L 257.193182 -250.939113 
L 260.800455 -267.166708 
L 264.407727 -252.524134 
L 268.015 -266.200598 
L 271.622273 -264.389152 
L 275.229545 -256.962192 
L 278.836818 -257.490532 
L 282.444091 -252.629802 
L 286.051364 -258.969885 
L 289.658636 -249.354092 
L 293.265909 -254.531827 
L 296.873182 -250.727777 
L 300.480455 -244.516845 
L 304.087727 -249.9881 
L 307.695 -263.302275 
L 311.302273 -262.577689 
L 314.909545 -259.920898 
L 318.516818 -260.887 
L 322.124091 -259.286889 
L 325.731364 -263.70482 
L 329.338636 -260.041664 
L 332.945909 -256.177235 
L 336.553182 -256.418758 
L 340.160455 -266.472313 
L 343.767727 -266.381747 
L 347.375 -275.579898 
L 350.982273 -246.489317 
L 354.589545 -259.920898 
L 358.196818 -280.350058 
L 361.804091 -282.604304 
L 365.411364 -250.727777 
L 369.018636 -290.494191 
L 372.625909 -293.593782 
L 376.233182 -295.918484 
L 379.840455 -305.780838 
L 383.447727 -308.105531 
L 387.055 -303.033465 
L 390.662273 -308.105531 
L 394.269545 -300.920103 
L 397.876818 -308.105531 
L 401.484091 -307.823753 
L 405.091364 -308.105531 
L 408.698636 -295.002692 
L 412.305909 -301.342776 
L 415.913182 -295.002692 
L 419.520455 -301.906341 
L 423.127727 -302.18812 
L 426.735 -305.569498 
L 426.735 -308.105531 
L 426.735 -308.105531 
L 423.127727 -308.105531 
L 419.520455 -308.105531 
L 415.913182 -308.105531 
L 412.305909 -308.105531 
L 408.698636 -308.105531 
L 405.091364 -308.105531 
L 401.484091 -308.105531 
L 397.876818 -308.105531 
L 394.269545 -308.105531 
L 390.662273 -308.105531 
L 387.055 -308.105531 
L 383.447727 -308.105531 
L 379.840455 -307.330634 
L 376.233182 -303.526584 
L 372.625909 -301.765448 
L 369.018636 -305.710391 
L 365.411364 -296.693381 
L 361.804091 -306.273949 
L 358.196818 -308.105531 
L 354.589545 -294.439127 
L 350.982273 -289.789732 
L 347.375 -292.345893 
L 343.767727 -293.010097 
L 340.160455 -294.086901 
L 336.553182 -288.179558 
L 332.945909 -286.730392 
L 329.338636 -285.401997 
L 325.731364 -286.670014 
L 322.124091 -289.36706 
L 318.516818 -296.411603 
L 314.909545 -297.538726 
L 311.302273 -305.287719 
L 307.695 -308.105531 
L 304.087727 -308.105531 
L 300.480455 -308.105531 
L 296.873182 -308.105531 
L 293.265909 -308.105531 
L 289.658636 -308.105531 
L 286.051364 -308.105531 
L 282.444091 -308.105531 
L 278.836818 -308.105531 
L 275.229545 -308.105531 
L 271.622273 -308.105531 
L 268.015 -308.105531 
L 264.407727 -308.105531 
L 260.800455 -308.105531 
L 257.193182 -308.105531 
L 253.585909 -308.105531 
L 249.978636 -308.105531 
L 246.371364 -307.682859 
L 242.764091 -304.58326 
L 239.156818 -301.342776 
L 235.549545 -300.215653 
L 231.942273 -308.105531 
L 228.335 -295.848037 
L 224.727727 -299.79298 
L 221.120455 -308.105531 
L 217.513182 -298.102291 
L 213.905909 -308.105531 
L 210.298636 -306.273949 
L 206.691364 -308.105531 
L 203.084091 -308.105531 
L 199.476818 -308.105531 
L 195.869545 -308.105531 
L 192.262273 -308.105531 
L 188.655 -308.105531 
L 185.047727 -308.105531 
L 181.440455 -307.119293 
L 177.833182 -308.105531 
L 174.225909 -301.624554 
L 170.618636 -307.823753 
L 167.011364 -308.105531 
L 163.404091 -289.930626 
L 159.796818 -299.511193 
L 156.189545 -306.837515 
L 152.582273 -308.105531 
L 148.975 -298.243181 
L 145.367727 -282.040743 
L 141.760455 -287.092686 
L 138.153182 -276.722119 
L 134.545909 -264.992964 
L 130.938636 -250.551666 
L 127.331364 -249.505045 
L 123.724091 -237.8803 
L 120.116818 -222.786129 
L 116.509545 -226.230396 
L 112.902273 -229.347604 
L 109.295 -206.052827 
L 105.687727 -188.404757 
L 102.080455 -187.620976 
L 98.473182 -132.412408 
L 94.865909 -128.264904 
L 91.258636 -120.141435 
L 87.651364 -107.574633 
L 84.044091 -98.516464 
L 80.436818 -90.817846 
L 76.829545 -84.954488 
L 73.222273 -77.476195 
L 69.615 -77.696053 
z
" id="m40d3c57114" style="stroke:#ffffff;stroke-opacity:0.2;"/>
    </defs>
    <g clip-path="url(#p8b80080376)">
     <use style="fill:#55a868;fill-opacity:0.2;stroke:#ffffff;stroke-opacity:0.2;" x="0" xlink:href="#m40d3c57114" y="333.401531"/>
    </g>
   </g>
   <g id="PolyCollection_4">
    <defs>
     <path d="M 69.615 -77.696053 
L 69.615 -75.351465 
L 73.222273 -72.653567 
L 76.829545 -70.548783 
L 80.436818 -69.492486 
L 84.044091 -68.585078 
L 87.651364 -68.087914 
L 91.258636 -67.931904 
L 94.865909 -67.332283 
L 98.473182 -67.02894 
L 102.080455 -66.871751 
L 105.687727 -66.745583 
L 109.295 -66.425579 
L 112.902273 -66.564305 
L 116.509545 -66.487391 
L 120.116818 -66.309624 
L 123.724091 -66.285558 
L 127.331364 -66.419974 
L 130.938636 -66.293969 
L 134.545909 -66.309623 
L 138.153182 -66.402782 
L 141.760455 -66.368476 
L 145.367727 -66.379081 
L 148.975 -66.461488 
L 152.582273 -66.404173 
L 156.189545 -66.372571 
L 159.796818 -66.304705 
L 163.404091 -66.325278 
L 167.011364 -66.31745 
L 170.618636 -66.303223 
L 174.225909 -66.286142 
L 177.833182 -66.423924 
L 181.440455 -66.231269 
L 185.047727 -66.35816 
L 188.655 -66.314927 
L 192.262273 -66.185531 
L 195.869545 -66.272597 
L 199.476818 -66.318951 
L 203.084091 -66.419974 
L 206.691364 -66.301797 
L 210.298636 -66.330801 
L 213.905909 -66.375168 
L 217.513182 -66.375095 
L 221.120455 -66.352673 
L 224.727727 -66.313537 
L 228.335 -66.297883 
L 231.942273 -66.262291 
L 235.549545 -66.292928 
L 239.156818 -66.379228 
L 242.764091 -66.35026 
L 246.371364 -66.289122 
L 249.978636 -66.286142 
L 253.585909 -66.218892 
L 257.193182 -66.348759 
L 260.800455 -66.338555 
L 264.407727 -66.233955 
L 268.015 -66.274401 
L 271.622273 -66.390969 
L 275.229545 -66.237239 
L 278.836818 -66.253863 
L 282.444091 -66.296949 
L 286.051364 -66.412073 
L 289.658636 -66.269589 
L 293.265909 -66.280217 
L 296.873182 -66.230597 
L 300.480455 -66.325278 
L 304.087727 -66.280217 
L 307.695 -66.299851 
L 311.302273 -66.299273 
L 314.909545 -66.313537 
L 318.516818 -66.384422 
L 322.124091 -66.371254 
L 325.731364 -66.224565 
L 329.338636 -66.321364 
L 332.945909 -66.348391 
L 336.553182 -66.347626 
L 340.160455 -66.339799 
L 343.767727 -66.408123 
L 347.375 -66.281295 
L 350.982273 -66.274286 
L 354.589545 -66.360058 
L 358.196818 -66.449451 
L 361.804091 -66.313537 
L 365.411364 -66.400223 
L 369.018636 -66.317451 
L 372.625909 -66.398869 
L 376.233182 -66.297883 
L 379.840455 -66.425824 
L 383.447727 -66.297883 
L 387.055 -66.382995 
L 390.662273 -66.23917 
L 394.269545 -66.31745 
L 397.876818 -66.320965 
L 401.484091 -66.384422 
L 405.091364 -66.392322 
L 408.698636 -66.37586 
L 412.305909 -66.223514 
L 415.913182 -66.461413 
L 419.520455 -66.344846 
L 423.127727 -66.293748 
L 426.735 -66.219015 
L 426.735 -66.362184 
L 426.735 -66.362184 
L 423.127727 -66.400223 
L 419.520455 -66.355453 
L 415.913182 -66.500915 
L 412.305909 -66.368621 
L 408.698636 -66.449451 
L 405.091364 -66.439725 
L 401.484091 -66.431824 
L 397.876818 -66.435774 
L 394.269545 -66.340932 
L 390.662273 -66.365914 
L 387.055 -66.481676 
L 383.447727 -66.339872 
L 379.840455 -66.489027 
L 376.233182 -66.331972 
L 372.625909 -66.489798 
L 369.018636 -66.434269 
L 365.411364 -66.423924 
L 361.804091 -66.337019 
L 358.196818 -66.500505 
L 354.589545 -66.425676 
L 350.982273 -66.404173 
L 347.375 -66.362786 
L 343.767727 -66.447625 
L 340.160455 -66.414406 
L 336.553182 -66.402929 
L 332.945909 -66.437564 
L 329.338636 -66.352673 
L 325.731364 -66.323574 
L 322.124091 -66.44601 
L 318.516818 -66.392322 
L 314.909545 -66.379374 
L 311.302273 -66.346236 
L 307.695 -66.47714 
L 304.087727 -66.352673 
L 300.480455 -66.375241 
L 296.873182 -66.386551 
L 293.265909 -66.321364 
L 289.658636 -66.343108 
L 286.051364 -66.451576 
L 282.444091 -66.386487 
L 278.836818 -66.300827 
L 275.229545 -66.254832 
L 271.622273 -66.510002 
L 268.015 -66.297883 
L 264.407727 -66.338555 
L 260.800455 -66.396273 
L 257.193182 -66.406843 
L 253.585909 -66.366724 
L 249.978636 -66.343786 
L 246.371364 -66.43784 
L 242.764091 -66.392322 
L 239.156818 -66.538516 
L 235.549545 -66.493753 
L 231.942273 -66.342359 
L 228.335 -66.414553 
L 224.727727 -66.387275 
L 221.120455 -66.410756 
L 217.513182 -66.382995 
L 213.905909 -66.41467 
L 210.298636 -66.388372 
L 206.691364 -66.343786 
L 203.084091 -66.435775 
L 199.476818 -66.384422 
L 195.869545 -66.417849 
L 192.262273 -66.476582 
L 188.655 -66.354063 
L 185.047727 -66.416024 
L 181.440455 -66.350186 
L 177.833182 -66.451129 
L 174.225909 -66.418467 
L 170.618636 -66.342359 
L 167.011364 -66.383361 
L 163.404091 -66.35944 
L 159.796818 -66.370542 
L 156.189545 -66.412073 
L 152.582273 -66.427874 
L 148.975 -66.512468 
L 145.367727 -66.426484 
L 141.760455 -66.481276 
L 138.153182 -66.477762 
L 134.545909 -66.458489 
L 130.938636 -66.343859 
L 127.331364 -66.455153 
L 123.724091 -66.334532 
L 120.116818 -66.375387 
L 116.509545 -66.590623 
L 112.902273 -66.654023 
L 109.295 -66.518621 
L 105.687727 -66.83182 
L 102.080455 -67.400906 
L 98.473182 -67.368688 
L 94.865909 -67.426723 
L 91.258636 -68.911615 
L 87.651364 -70.064277 
L 84.044091 -72.646654 
L 80.436818 -75.339452 
L 76.829545 -76.327825 
L 73.222273 -80.719486 
L 69.615 -77.696053 
z
" id="m8863882673" style="stroke:#ffffff;stroke-opacity:0.2;"/>
    </defs>
    <g clip-path="url(#p8b80080376)">
     <use style="fill:#c44e52;fill-opacity:0.2;stroke:#ffffff;stroke-opacity:0.2;" x="0" xlink:href="#m8863882673" y="333.401531"/>
    </g>
   </g>
   <g id="line2d_11">
    <path clip-path="url(#p8b80080376)" d="M 69.615 256.877772 
L 73.222273 245.368138 
L 76.829545 230.413659 
L 80.436818 219.876689 
L 84.044091 192.356556 
L 87.651364 185.028942 
L 91.258636 168.499647 
L 94.865909 163.04698 
L 98.473182 145.265166 
L 102.080455 146.754887 
L 105.687727 151.231189 
L 109.295 138.810666 
L 112.902273 141.879067 
L 116.509545 129.437738 
L 120.116818 122.899609 
L 123.724091 95.272958 
L 127.331364 88.293374 
L 130.938636 66.066257 
L 134.545909 49.388317 
L 138.153182 35.369687 
L 141.760455 25.436889 
L 145.367727 29.663612 
L 148.975 27.90248 
L 152.582273 25.296 
L 156.189545 26.916242 
L 159.796818 25.296 
L 163.404091 25.296 
L 167.011364 26.282234 
L 170.618636 27.620697 
L 174.225909 27.338914 
L 177.833182 25.296 
L 181.440455 25.296 
L 185.047727 25.296 
L 188.655 25.296 
L 192.262273 30.015841 
L 195.869545 25.296 
L 199.476818 25.296 
L 203.084091 29.734058 
L 206.691364 28.466042 
L 210.298636 25.296 
L 213.905909 26.423127 
L 217.513182 25.296 
L 221.120455 27.057136 
L 224.727727 25.296 
L 228.335 26.423127 
L 231.942273 30.931628 
L 235.549545 28.043369 
L 239.156818 29.452275 
L 242.764091 25.296 
L 246.371364 40.653089 
L 249.978636 44.668476 
L 253.585909 50.052517 
L 257.193182 63.517645 
L 260.800455 58.324812 
L 264.407727 88.532461 
L 268.015 102.551091 
L 271.622273 106.214249 
L 275.229545 99.703922 
L 278.836818 108.428245 
L 282.444091 113.740163 
L 286.051364 107.387498 
L 289.658636 112.366478 
L 293.265909 106.424744 
L 296.873182 115.279894 
L 300.480455 108.88446 
L 304.087727 113.976659 
L 307.695 116.550933 
L 311.302273 105.265585 
L 314.909545 138.619958 
L 318.516818 142.601632 
L 322.124091 139.569712 
L 325.731364 145.030686 
L 329.338636 153.478947 
L 332.945909 161.635972 
L 336.553182 144.821422 
L 340.160455 148.041878 
L 343.767727 142.426107 
L 347.375 137.720596 
L 350.982273 138.730658 
L 354.589545 143.174893 
L 358.196818 140.400688 
L 361.804091 130.140518 
L 365.411364 123.373569 
L 369.018636 129.696041 
L 372.625909 124.659197 
L 376.233182 131.8094 
L 379.840455 120.391379 
L 383.447727 118.034223 
L 387.055 120.353049 
L 390.662273 118.096037 
L 394.269545 114.362434 
L 397.876818 113.343908 
L 401.484091 113.555244 
L 405.091364 112.028343 
L 408.698636 109.932592 
L 412.305909 107.274089 
L 415.913182 116.494578 
L 419.520455 111.793521 
L 423.127727 107.509104 
L 426.735 104.887528 
" style="fill:none;stroke:#4c72b0;stroke-linecap:round;stroke-width:1.5;"/>
   </g>
   <g id="line2d_12">
    <path clip-path="url(#p8b80080376)" d="M 69.615 256.877772 
L 73.222273 245.368138 
L 76.829545 224.861086 
L 80.436818 217.352857 
L 84.044091 209.084221 
L 87.651364 200.877733 
L 91.258636 172.854394 
L 94.865909 147.760125 
L 98.473182 150.994024 
L 102.080455 126.455553 
L 105.687727 113.740163 
L 109.295 112.004189 
L 112.902273 87.223883 
L 116.509545 106.247796 
L 120.116818 69.934885 
L 123.724091 60.131237 
L 127.331364 46.973049 
L 130.938636 31.283858 
L 134.545909 26.564017 
L 138.153182 25.296 
L 141.760455 25.648225 
L 145.367727 25.296 
L 148.975 25.296 
L 152.582273 35.581023 
L 156.189545 25.366447 
L 159.796818 25.296 
L 163.404091 29.10005 
L 167.011364 26.423127 
L 170.618636 27.55025 
L 174.225909 29.522722 
L 177.833182 27.268472 
L 181.440455 25.296 
L 185.047727 25.296 
L 188.655 25.296 
L 192.262273 25.296 
L 195.869545 25.296 
L 199.476818 25.296 
L 203.084091 25.296 
L 206.691364 25.296 
L 210.298636 25.296 
L 213.905909 25.296 
L 217.513182 25.296 
L 221.120455 25.577783 
L 224.727727 26.070898 
L 228.335 25.296 
L 231.942273 26.564017 
L 235.549545 25.718672 
L 239.156818 28.254706 
L 242.764091 30.227177 
L 246.371364 34.10167 
L 249.978636 28.325152 
L 253.585909 29.593169 
L 257.193182 30.156731 
L 260.800455 35.581023 
L 264.407727 29.663612 
L 268.015 31.142964 
L 271.622273 30.227177 
L 275.229545 29.311386 
L 278.836818 29.170497 
L 282.444091 26.986689 
L 286.051364 34.172117 
L 289.658636 32.340538 
L 293.265909 35.017461 
L 296.873182 27.90248 
L 300.480455 36.144584 
L 304.087727 35.440133 
L 307.695 37.130822 
L 311.302273 30.156731 
L 314.909545 29.10005 
L 318.516818 27.409361 
L 322.124091 30.156731 
L 325.731364 29.945394 
L 329.338636 26.634463 
L 332.945909 25.436889 
L 336.553182 26.211791 
L 340.160455 28.606931 
L 343.767727 27.198025 
L 347.375 25.930008 
L 350.982273 25.296 
L 354.589545 25.296 
L 358.196818 25.296 
L 361.804091 25.296 
L 365.411364 25.296 
L 369.018636 25.296 
L 372.625909 25.296 
L 376.233182 25.296 
L 379.840455 25.296 
L 383.447727 25.296 
L 387.055 25.296 
L 390.662273 25.296 
L 394.269545 25.296 
L 397.876818 25.296 
L 401.484091 25.296 
L 405.091364 25.296 
L 408.698636 25.296 
L 412.305909 25.296 
L 415.913182 25.296 
L 419.520455 25.296 
L 423.127727 25.296 
L 426.735 25.296 
" style="fill:none;stroke:#dd8452;stroke-linecap:round;stroke-width:1.5;"/>
   </g>
   <g id="line2d_13">
    <path clip-path="url(#p8b80080376)" d="M 69.615 256.877772 
L 73.222273 258.371119 
L 76.829545 253.149682 
L 80.436818 249.865098 
L 84.044091 242.7381 
L 87.651364 237.105573 
L 91.258636 228.768025 
L 94.865909 219.279891 
L 98.473182 216.02297 
L 102.080455 180.955438 
L 105.687727 169.957078 
L 109.295 162.785239 
L 112.902273 153.063184 
L 116.509545 148.61314 
L 120.116818 146.403199 
L 123.724091 141.069194 
L 127.331364 128.417961 
L 130.938636 126.013666 
L 134.545909 108.562428 
L 138.153182 85.051286 
L 141.760455 59.341237 
L 145.367727 64.544138 
L 148.975 50.716712 
L 152.582273 51.079006 
L 156.189545 53.720707 
L 159.796818 62.984275 
L 163.404091 57.388898 
L 167.011364 44.255871 
L 170.618636 39.324694 
L 174.225909 40.86443 
L 177.833182 29.240939 
L 181.440455 27.268472 
L 185.047727 25.296 
L 188.655 28.747825 
L 192.262273 35.651469 
L 195.869545 43.531284 
L 199.476818 49.652487 
L 203.084091 53.879209 
L 206.691364 57.700869 
L 210.298636 59.086298 
L 213.905909 59.861196 
L 217.513182 64.627996 
L 221.120455 56.855525 
L 224.727727 58.933663 
L 228.335 50.807291 
L 231.942273 41.357545 
L 235.549545 41.568881 
L 239.156818 36.285478 
L 242.764091 36.496814 
L 246.371364 34.665236 
L 249.978636 45.523888 
L 253.585909 34.665236 
L 257.193182 53.879209 
L 260.800455 45.765411 
L 264.407727 53.086699 
L 268.015 46.248467 
L 271.622273 47.15419 
L 275.229545 50.86767 
L 278.836818 50.603499 
L 282.444091 53.033865 
L 286.051364 49.863823 
L 289.658636 54.67172 
L 293.265909 52.082852 
L 296.873182 53.984877 
L 300.480455 57.090343 
L 304.087727 54.354715 
L 307.695 47.697628 
L 311.302273 49.468827 
L 314.909545 54.67172 
L 318.516818 54.75223 
L 322.124091 59.074557 
L 325.731364 58.214114 
L 329.338636 60.679701 
L 332.945909 61.947718 
L 336.553182 61.102373 
L 340.160455 53.121924 
L 343.767727 53.705609 
L 347.375 49.438636 
L 350.982273 65.262007 
L 354.589545 56.221519 
L 358.196818 39.173737 
L 361.804091 38.962405 
L 365.411364 59.690952 
L 369.018636 35.29924 
L 372.625909 35.721916 
L 376.233182 33.678998 
L 379.840455 26.845795 
L 383.447727 25.296 
L 387.055 27.832033 
L 390.662273 25.296 
L 394.269545 28.888714 
L 397.876818 25.296 
L 401.484091 25.436889 
L 405.091364 25.296 
L 408.698636 31.847419 
L 412.305909 28.677378 
L 415.913182 31.847419 
L 419.520455 28.395595 
L 423.127727 28.254706 
L 426.735 26.564017 
" style="fill:none;stroke:#55a868;stroke-linecap:round;stroke-width:1.5;"/>
   </g>
   <g id="line2d_14">
    <path clip-path="url(#p8b80080376)" d="M 69.615 256.877772 
L 73.222273 256.715005 
L 76.829545 259.963228 
L 80.436818 260.985562 
L 84.044091 262.785666 
L 87.651364 264.325436 
L 91.258636 264.979771 
L 94.865909 266.022028 
L 98.473182 266.202717 
L 102.080455 266.265203 
L 105.687727 266.61283 
L 109.295 266.929432 
L 112.902273 266.792367 
L 116.509545 266.862524 
L 120.116818 267.059026 
L 123.724091 267.091486 
L 127.331364 266.963968 
L 130.938636 267.082617 
L 134.545909 267.017475 
L 138.153182 266.961259 
L 141.760455 266.976655 
L 145.367727 266.998749 
L 148.975 266.914553 
L 152.582273 266.985508 
L 156.189545 267.009209 
L 159.796818 267.063908 
L 163.404091 267.059172 
L 167.011364 267.051126 
L 170.618636 267.07874 
L 174.225909 267.049227 
L 177.833182 266.964005 
L 181.440455 267.110804 
L 185.047727 267.014439 
L 188.655 267.067036 
L 192.262273 267.070475 
L 195.869545 267.056308 
L 199.476818 267.049845 
L 203.084091 266.973657 
L 206.691364 267.07874 
L 210.298636 267.041945 
L 213.905909 267.006612 
L 217.513182 267.022486 
L 221.120455 267.019817 
L 224.727727 267.051125 
L 228.335 267.045313 
L 231.942273 267.099206 
L 235.549545 267.008191 
L 239.156818 266.942659 
L 242.764091 267.03024 
L 246.371364 267.03805 
L 249.978636 267.086568 
L 253.585909 267.108723 
L 257.193182 267.02373 
L 260.800455 267.034117 
L 264.407727 267.115276 
L 268.015 267.11539 
L 271.622273 266.951046 
L 275.229545 267.155496 
L 278.836818 267.124186 
L 282.444091 267.059813 
L 286.051364 266.969707 
L 289.658636 267.095183 
L 293.265909 267.100741 
L 296.873182 267.092957 
L 300.480455 267.051272 
L 304.087727 267.085086 
L 307.695 267.013036 
L 311.302273 267.078777 
L 314.909545 267.055076 
L 318.516818 267.013159 
L 322.124091 266.992899 
L 325.731364 267.127462 
L 329.338636 267.064513 
L 332.945909 267.008554 
L 336.553182 267.026254 
L 340.160455 267.024429 
L 343.767727 266.973657 
L 347.375 267.079491 
L 350.982273 267.062302 
L 354.589545 267.008664 
L 358.196818 266.926553 
L 361.804091 267.076254 
L 365.411364 266.989458 
L 369.018636 267.025672 
L 372.625909 266.957198 
L 376.233182 267.086604 
L 379.840455 266.944105 
L 383.447727 267.082654 
L 387.055 266.969196 
L 390.662273 267.09899 
L 394.269545 267.07234 
L 397.876818 267.023162 
L 401.484091 266.993408 
L 405.091364 266.985508 
L 408.698636 266.988876 
L 412.305909 267.105464 
L 415.913182 266.920367 
L 419.520455 267.051382 
L 423.127727 267.054546 
L 426.735 267.110932 
" style="fill:none;stroke:#c44e52;stroke-linecap:round;stroke-width:1.5;"/>
   </g>
   <g id="patch_3">
    <path d="M 69.615 279.312 
L 69.615 13.2 
" style="fill:none;stroke:#ffffff;stroke-linecap:square;stroke-linejoin:miter;stroke-width:1.25;"/>
   </g>
   <g id="patch_4">
    <path d="M 426.735 279.312 
L 426.735 13.2 
" style="fill:none;stroke:#ffffff;stroke-linecap:square;stroke-linejoin:miter;stroke-width:1.25;"/>
   </g>
   <g id="patch_5">
    <path d="M 69.615 279.312 
L 426.735 279.312 
" style="fill:none;stroke:#ffffff;stroke-linecap:square;stroke-linejoin:miter;stroke-width:1.25;"/>
   </g>
   <g id="patch_6">
    <path d="M 69.615 13.2 
L 426.735 13.2 
" style="fill:none;stroke:#ffffff;stroke-linecap:square;stroke-linejoin:miter;stroke-width:1.25;"/>
   </g>
   <g id="legend_1">
    <g id="patch_7">
     <path d="M 354.35421 274.101 
L 419.4396 274.101 
Q 421.524 274.101 421.524 272.0166 
L 421.524 210.709185 
Q 421.524 208.624785 419.4396 208.624785 
L 354.35421 208.624785 
Q 352.26981 208.624785 352.26981 210.709185 
L 352.26981 272.0166 
Q 352.26981 274.101 354.35421 274.101 
z
" style="fill:#eaeaf2;opacity:0.8;stroke:#cccccc;stroke-linejoin:miter;"/>
    </g>
    <g id="line2d_15">
     <path d="M 356.43861 217.064977 
L 377.28261 217.064977 
" style="fill:none;stroke:#4c72b0;stroke-linecap:round;stroke-width:1.5;"/>
    </g>
    <g id="line2d_16"/>
    <g id="text_13">
     <!-- 100_1 -->
     <defs>
      <path d="M 50.984375 -16.609375 
L 50.984375 -23.578125 
L -0.984375 -23.578125 
L -0.984375 -16.609375 
z
" id="DejaVuSans-95"/>
     </defs>
     <g style="fill:#262626;" transform="translate(385.62021 220.712677)scale(0.10422 -0.10422)">
      <use xlink:href="#DejaVuSans-49"/>
      <use x="63.623047" xlink:href="#DejaVuSans-48"/>
      <use x="127.246094" xlink:href="#DejaVuSans-48"/>
      <use x="190.869141" xlink:href="#DejaVuSans-95"/>
      <use x="240.869141" xlink:href="#DejaVuSans-49"/>
     </g>
    </g>
    <g id="line2d_17">
     <path d="M 356.43861 232.65238 
L 377.28261 232.65238 
" style="fill:none;stroke:#dd8452;stroke-linecap:round;stroke-width:1.5;"/>
    </g>
    <g id="line2d_18"/>
    <g id="text_14">
     <!-- 10_10 -->
     <g style="fill:#262626;" transform="translate(385.62021 236.30008)scale(0.10422 -0.10422)">
      <use xlink:href="#DejaVuSans-49"/>
      <use x="63.623047" xlink:href="#DejaVuSans-48"/>
      <use x="127.246094" xlink:href="#DejaVuSans-95"/>
      <use x="177.246094" xlink:href="#DejaVuSans-49"/>
      <use x="240.869141" xlink:href="#DejaVuSans-48"/>
     </g>
    </g>
    <g id="line2d_19">
     <path d="M 356.43861 248.239784 
L 377.28261 248.239784 
" style="fill:none;stroke:#55a868;stroke-linecap:round;stroke-width:1.5;"/>
    </g>
    <g id="line2d_20"/>
    <g id="text_15">
     <!-- 1_100 -->
     <g style="fill:#262626;" transform="translate(385.62021 251.887484)scale(0.10422 -0.10422)">
      <use xlink:href="#DejaVuSans-49"/>
      <use x="63.623047" xlink:href="#DejaVuSans-95"/>
      <use x="113.623047" xlink:href="#DejaVuSans-49"/>
      <use x="177.246094" xlink:href="#DejaVuSans-48"/>
      <use x="240.869141" xlink:href="#DejaVuSans-48"/>
     </g>
    </g>
    <g id="line2d_21">
     <path d="M 356.43861 263.827188 
L 377.28261 263.827188 
" style="fill:none;stroke:#c44e52;stroke-linecap:round;stroke-width:1.5;"/>
    </g>
    <g id="line2d_22"/>
    <g id="text_16">
     <!-- 1_1 -->
     <g style="fill:#262626;" transform="translate(385.62021 267.474888)scale(0.10422 -0.10422)">
      <use xlink:href="#DejaVuSans-49"/>
      <use x="63.623047" xlink:href="#DejaVuSans-95"/>
      <use x="113.623047" xlink:href="#DejaVuSans-49"/>
     </g>
    </g>
   </g>
  </g>
 </g>
 <defs>
  <clipPath id="p8b80080376">
   <rect height="266.112" width="357.12" x="69.615" y="13.2"/>
  </clipPath>
 </defs>
</svg>
