<?xml version="1.0" encoding="utf-8" standalone="no"?>
<!DOCTYPE svg PUBLIC "-//W3C//DTD SVG 1.1//EN"
  "http://www.w3.org/Graphics/SVG/1.1/DTD/svg11.dtd">
<!-- Created with matplotlib (https://matplotlib.org/) -->
<svg height="277.919688pt" version="1.1" viewBox="0 0 289.71 277.919688" width="289.71pt" xmlns="http://www.w3.org/2000/svg" xmlns:xlink="http://www.w3.org/1999/xlink">
 <defs>
  <style type="text/css">
*{stroke-linecap:butt;stroke-linejoin:round;}
  </style>
 </defs>
 <g id="figure_1">
  <g id="patch_1">
   <path d="M 0 277.919688 
L 289.71 277.919688 
L 289.71 0 
L 0 0 
z
" style="fill:#ffffff;"/>
  </g>
  <g id="axes_1">
   <g id="patch_2">
    <path d="M 53.31 234.96 
L 276.51 234.96 
L 276.51 13.2 
L 53.31 13.2 
z
" style="fill:#eaeaf2;"/>
   </g>
   <g id="matplotlib.axis_1">
    <g id="xtick_1">
     <g id="line2d_1">
      <path clip-path="url(#pbffabff505)" d="M 53.31 234.96 
L 53.31 13.2 
" style="fill:none;stroke:#ffffff;stroke-linecap:round;"/>
     </g>
     <g id="text_1">
      <!-- 0 -->
      <defs>
       <path d="M 31.78125 66.40625 
Q 24.171875 66.40625 20.328125 58.90625 
Q 16.5 51.421875 16.5 36.375 
Q 16.5 21.390625 20.328125 13.890625 
Q 24.171875 6.390625 31.78125 6.390625 
Q 39.453125 6.390625 43.28125 13.890625 
Q 47.125 21.390625 47.125 36.375 
Q 47.125 51.421875 43.28125 58.90625 
Q 39.453125 66.40625 31.78125 66.40625 
z
M 31.78125 74.21875 
Q 44.046875 74.21875 50.515625 64.515625 
Q 56.984375 54.828125 56.984375 36.375 
Q 56.984375 17.96875 50.515625 8.265625 
Q 44.046875 -1.421875 31.78125 -1.421875 
Q 19.53125 -1.421875 13.0625 8.265625 
Q 6.59375 17.96875 6.59375 36.375 
Q 6.59375 54.828125 13.0625 64.515625 
Q 19.53125 74.21875 31.78125 74.21875 
z
" id="DejaVuSans-48"/>
      </defs>
      <g style="fill:#262626;" transform="translate(49.810625 252.818281)scale(0.11 -0.11)">
       <use xlink:href="#DejaVuSans-48"/>
      </g>
     </g>
    </g>
    <g id="xtick_2">
     <g id="line2d_2">
      <path clip-path="url(#pbffabff505)" d="M 98.400909 234.96 
L 98.400909 13.2 
" style="fill:none;stroke:#ffffff;stroke-linecap:round;"/>
     </g>
     <g id="text_2">
      <!-- 20 -->
      <defs>
       <path d="M 19.1875 8.296875 
L 53.609375 8.296875 
L 53.609375 0 
L 7.328125 0 
L 7.328125 8.296875 
Q 12.9375 14.109375 22.625 23.890625 
Q 32.328125 33.6875 34.8125 36.53125 
Q 39.546875 41.84375 41.421875 45.53125 
Q 43.3125 49.21875 43.3125 52.78125 
Q 43.3125 58.59375 39.234375 62.25 
Q 35.15625 65.921875 28.609375 65.921875 
Q 23.96875 65.921875 18.8125 64.3125 
Q 13.671875 62.703125 7.8125 59.421875 
L 7.8125 69.390625 
Q 13.765625 71.78125 18.9375 73 
Q 24.125 74.21875 28.421875 74.21875 
Q 39.75 74.21875 46.484375 68.546875 
Q 53.21875 62.890625 53.21875 53.421875 
Q 53.21875 48.921875 51.53125 44.890625 
Q 49.859375 40.875 45.40625 35.40625 
Q 44.1875 33.984375 37.640625 27.21875 
Q 31.109375 20.453125 19.1875 8.296875 
z
" id="DejaVuSans-50"/>
      </defs>
      <g style="fill:#262626;" transform="translate(91.402159 252.818281)scale(0.11 -0.11)">
       <use xlink:href="#DejaVuSans-50"/>
       <use x="63.623047" xlink:href="#DejaVuSans-48"/>
      </g>
     </g>
    </g>
    <g id="xtick_3">
     <g id="line2d_3">
      <path clip-path="url(#pbffabff505)" d="M 143.491818 234.96 
L 143.491818 13.2 
" style="fill:none;stroke:#ffffff;stroke-linecap:round;"/>
     </g>
     <g id="text_3">
      <!-- 40 -->
      <defs>
       <path d="M 37.796875 64.3125 
L 12.890625 25.390625 
L 37.796875 25.390625 
z
M 35.203125 72.90625 
L 47.609375 72.90625 
L 47.609375 25.390625 
L 58.015625 25.390625 
L 58.015625 17.1875 
L 47.609375 17.1875 
L 47.609375 0 
L 37.796875 0 
L 37.796875 17.1875 
L 4.890625 17.1875 
L 4.890625 26.703125 
z
" id="DejaVuSans-52"/>
      </defs>
      <g style="fill:#262626;" transform="translate(136.493068 252.818281)scale(0.11 -0.11)">
       <use xlink:href="#DejaVuSans-52"/>
       <use x="63.623047" xlink:href="#DejaVuSans-48"/>
      </g>
     </g>
    </g>
    <g id="xtick_4">
     <g id="line2d_4">
      <path clip-path="url(#pbffabff505)" d="M 188.582727 234.96 
L 188.582727 13.2 
" style="fill:none;stroke:#ffffff;stroke-linecap:round;"/>
     </g>
     <g id="text_4">
      <!-- 60 -->
      <defs>
       <path d="M 33.015625 40.375 
Q 26.375 40.375 22.484375 35.828125 
Q 18.609375 31.296875 18.609375 23.390625 
Q 18.609375 15.53125 22.484375 10.953125 
Q 26.375 6.390625 33.015625 6.390625 
Q 39.65625 6.390625 43.53125 10.953125 
Q 47.40625 15.53125 47.40625 23.390625 
Q 47.40625 31.296875 43.53125 35.828125 
Q 39.65625 40.375 33.015625 40.375 
z
M 52.59375 71.296875 
L 52.59375 62.3125 
Q 48.875 64.0625 45.09375 64.984375 
Q 41.3125 65.921875 37.59375 65.921875 
Q 27.828125 65.921875 22.671875 59.328125 
Q 17.53125 52.734375 16.796875 39.40625 
Q 19.671875 43.65625 24.015625 45.921875 
Q 28.375 48.1875 33.59375 48.1875 
Q 44.578125 48.1875 50.953125 41.515625 
Q 57.328125 34.859375 57.328125 23.390625 
Q 57.328125 12.15625 50.6875 5.359375 
Q 44.046875 -1.421875 33.015625 -1.421875 
Q 20.359375 -1.421875 13.671875 8.265625 
Q 6.984375 17.96875 6.984375 36.375 
Q 6.984375 53.65625 15.1875 63.9375 
Q 23.390625 74.21875 37.203125 74.21875 
Q 40.921875 74.21875 44.703125 73.484375 
Q 48.484375 72.75 52.59375 71.296875 
z
" id="DejaVuSans-54"/>
      </defs>
      <g style="fill:#262626;" transform="translate(181.583977 252.818281)scale(0.11 -0.11)">
       <use xlink:href="#DejaVuSans-54"/>
       <use x="63.623047" xlink:href="#DejaVuSans-48"/>
      </g>
     </g>
    </g>
    <g id="xtick_5">
     <g id="line2d_5">
      <path clip-path="url(#pbffabff505)" d="M 233.673636 234.96 
L 233.673636 13.2 
" style="fill:none;stroke:#ffffff;stroke-linecap:round;"/>
     </g>
     <g id="text_5">
      <!-- 80 -->
      <defs>
       <path d="M 31.78125 34.625 
Q 24.75 34.625 20.71875 30.859375 
Q 16.703125 27.09375 16.703125 20.515625 
Q 16.703125 13.921875 20.71875 10.15625 
Q 24.75 6.390625 31.78125 6.390625 
Q 38.8125 6.390625 42.859375 10.171875 
Q 46.921875 13.96875 46.921875 20.515625 
Q 46.921875 27.09375 42.890625 30.859375 
Q 38.875 34.625 31.78125 34.625 
z
M 21.921875 38.8125 
Q 15.578125 40.375 12.03125 44.71875 
Q 8.5 49.078125 8.5 55.328125 
Q 8.5 64.0625 14.71875 69.140625 
Q 20.953125 74.21875 31.78125 74.21875 
Q 42.671875 74.21875 48.875 69.140625 
Q 55.078125 64.0625 55.078125 55.328125 
Q 55.078125 49.078125 51.53125 44.71875 
Q 48 40.375 41.703125 38.8125 
Q 48.828125 37.15625 52.796875 32.3125 
Q 56.78125 27.484375 56.78125 20.515625 
Q 56.78125 9.90625 50.3125 4.234375 
Q 43.84375 -1.421875 31.78125 -1.421875 
Q 19.734375 -1.421875 13.25 4.234375 
Q 6.78125 9.90625 6.78125 20.515625 
Q 6.78125 27.484375 10.78125 32.3125 
Q 14.796875 37.15625 21.921875 38.8125 
z
M 18.3125 54.390625 
Q 18.3125 48.734375 21.84375 45.5625 
Q 25.390625 42.390625 31.78125 42.390625 
Q 38.140625 42.390625 41.71875 45.5625 
Q 45.3125 48.734375 45.3125 54.390625 
Q 45.3125 60.0625 41.71875 63.234375 
Q 38.140625 66.40625 31.78125 66.40625 
Q 25.390625 66.40625 21.84375 63.234375 
Q 18.3125 60.0625 18.3125 54.390625 
z
" id="DejaVuSans-56"/>
      </defs>
      <g style="fill:#262626;" transform="translate(226.674886 252.818281)scale(0.11 -0.11)">
       <use xlink:href="#DejaVuSans-56"/>
       <use x="63.623047" xlink:href="#DejaVuSans-48"/>
      </g>
     </g>
    </g>
    <g id="text_6">
     <!-- Iteration -->
     <defs>
      <path d="M 9.8125 72.90625 
L 19.671875 72.90625 
L 19.671875 0 
L 9.8125 0 
z
" id="DejaVuSans-73"/>
      <path d="M 18.3125 70.21875 
L 18.3125 54.6875 
L 36.8125 54.6875 
L 36.8125 47.703125 
L 18.3125 47.703125 
L 18.3125 18.015625 
Q 18.3125 11.328125 20.140625 9.421875 
Q 21.96875 7.515625 27.59375 7.515625 
L 36.8125 7.515625 
L 36.8125 0 
L 27.59375 0 
Q 17.1875 0 13.234375 3.875 
Q 9.28125 7.765625 9.28125 18.015625 
L 9.28125 47.703125 
L 2.6875 47.703125 
L 2.6875 54.6875 
L 9.28125 54.6875 
L 9.28125 70.21875 
z
" id="DejaVuSans-116"/>
      <path d="M 56.203125 29.59375 
L 56.203125 25.203125 
L 14.890625 25.203125 
Q 15.484375 15.921875 20.484375 11.0625 
Q 25.484375 6.203125 34.421875 6.203125 
Q 39.59375 6.203125 44.453125 7.46875 
Q 49.3125 8.734375 54.109375 11.28125 
L 54.109375 2.78125 
Q 49.265625 0.734375 44.1875 -0.34375 
Q 39.109375 -1.421875 33.890625 -1.421875 
Q 20.796875 -1.421875 13.15625 6.1875 
Q 5.515625 13.8125 5.515625 26.8125 
Q 5.515625 40.234375 12.765625 48.109375 
Q 20.015625 56 32.328125 56 
Q 43.359375 56 49.78125 48.890625 
Q 56.203125 41.796875 56.203125 29.59375 
z
M 47.21875 32.234375 
Q 47.125 39.59375 43.09375 43.984375 
Q 39.0625 48.390625 32.421875 48.390625 
Q 24.90625 48.390625 20.390625 44.140625 
Q 15.875 39.890625 15.1875 32.171875 
z
" id="DejaVuSans-101"/>
      <path d="M 41.109375 46.296875 
Q 39.59375 47.171875 37.8125 47.578125 
Q 36.03125 48 33.890625 48 
Q 26.265625 48 22.1875 43.046875 
Q 18.109375 38.09375 18.109375 28.8125 
L 18.109375 0 
L 9.078125 0 
L 9.078125 54.6875 
L 18.109375 54.6875 
L 18.109375 46.1875 
Q 20.953125 51.171875 25.484375 53.578125 
Q 30.03125 56 36.53125 56 
Q 37.453125 56 38.578125 55.875 
Q 39.703125 55.765625 41.0625 55.515625 
z
" id="DejaVuSans-114"/>
      <path d="M 34.28125 27.484375 
Q 23.390625 27.484375 19.1875 25 
Q 14.984375 22.515625 14.984375 16.5 
Q 14.984375 11.71875 18.140625 8.90625 
Q 21.296875 6.109375 26.703125 6.109375 
Q 34.1875 6.109375 38.703125 11.40625 
Q 43.21875 16.703125 43.21875 25.484375 
L 43.21875 27.484375 
z
M 52.203125 31.203125 
L 52.203125 0 
L 43.21875 0 
L 43.21875 8.296875 
Q 40.140625 3.328125 35.546875 0.953125 
Q 30.953125 -1.421875 24.3125 -1.421875 
Q 15.921875 -1.421875 10.953125 3.296875 
Q 6 8.015625 6 15.921875 
Q 6 25.140625 12.171875 29.828125 
Q 18.359375 34.515625 30.609375 34.515625 
L 43.21875 34.515625 
L 43.21875 35.40625 
Q 43.21875 41.609375 39.140625 45 
Q 35.0625 48.390625 27.6875 48.390625 
Q 23 48.390625 18.546875 47.265625 
Q 14.109375 46.140625 10.015625 43.890625 
L 10.015625 52.203125 
Q 14.9375 54.109375 19.578125 55.046875 
Q 24.21875 56 28.609375 56 
Q 40.484375 56 46.34375 49.84375 
Q 52.203125 43.703125 52.203125 31.203125 
z
" id="DejaVuSans-97"/>
      <path d="M 9.421875 54.6875 
L 18.40625 54.6875 
L 18.40625 0 
L 9.421875 0 
z
M 9.421875 75.984375 
L 18.40625 75.984375 
L 18.40625 64.59375 
L 9.421875 64.59375 
z
" id="DejaVuSans-105"/>
      <path d="M 30.609375 48.390625 
Q 23.390625 48.390625 19.1875 42.75 
Q 14.984375 37.109375 14.984375 27.296875 
Q 14.984375 17.484375 19.15625 11.84375 
Q 23.34375 6.203125 30.609375 6.203125 
Q 37.796875 6.203125 41.984375 11.859375 
Q 46.1875 17.53125 46.1875 27.296875 
Q 46.1875 37.015625 41.984375 42.703125 
Q 37.796875 48.390625 30.609375 48.390625 
z
M 30.609375 56 
Q 42.328125 56 49.015625 48.375 
Q 55.71875 40.765625 55.71875 27.296875 
Q 55.71875 13.875 49.015625 6.21875 
Q 42.328125 -1.421875 30.609375 -1.421875 
Q 18.84375 -1.421875 12.171875 6.21875 
Q 5.515625 13.875 5.515625 27.296875 
Q 5.515625 40.765625 12.171875 48.375 
Q 18.84375 56 30.609375 56 
z
" id="DejaVuSans-111"/>
      <path d="M 54.890625 33.015625 
L 54.890625 0 
L 45.90625 0 
L 45.90625 32.71875 
Q 45.90625 40.484375 42.875 44.328125 
Q 39.84375 48.1875 33.796875 48.1875 
Q 26.515625 48.1875 22.3125 43.546875 
Q 18.109375 38.921875 18.109375 30.90625 
L 18.109375 0 
L 9.078125 0 
L 9.078125 54.6875 
L 18.109375 54.6875 
L 18.109375 46.1875 
Q 21.34375 51.125 25.703125 53.5625 
Q 30.078125 56 35.796875 56 
Q 45.21875 56 50.046875 50.171875 
Q 54.890625 44.34375 54.890625 33.015625 
z
" id="DejaVuSans-110"/>
     </defs>
     <g style="fill:#262626;" transform="translate(139.459688 268.224063)scale(0.12 -0.12)">
      <use xlink:href="#DejaVuSans-73"/>
      <use x="29.492188" xlink:href="#DejaVuSans-116"/>
      <use x="68.701172" xlink:href="#DejaVuSans-101"/>
      <use x="130.224609" xlink:href="#DejaVuSans-114"/>
      <use x="171.337891" xlink:href="#DejaVuSans-97"/>
      <use x="232.617188" xlink:href="#DejaVuSans-116"/>
      <use x="271.826172" xlink:href="#DejaVuSans-105"/>
      <use x="299.609375" xlink:href="#DejaVuSans-111"/>
      <use x="360.791016" xlink:href="#DejaVuSans-110"/>
     </g>
    </g>
   </g>
   <g id="matplotlib.axis_2">
    <g id="ytick_1">
     <g id="line2d_6">
      <path clip-path="url(#pbffabff505)" d="M 53.31 234.616112 
L 276.51 234.616112 
" style="fill:none;stroke:#ffffff;stroke-linecap:round;"/>
     </g>
     <g id="text_7">
      <!-- 0 -->
      <g style="fill:#262626;" transform="translate(36.81125 238.795253)scale(0.11 -0.11)">
       <use xlink:href="#DejaVuSans-48"/>
      </g>
     </g>
    </g>
    <g id="ytick_2">
     <g id="line2d_7">
      <path clip-path="url(#pbffabff505)" d="M 53.31 208.199098 
L 276.51 208.199098 
" style="fill:none;stroke:#ffffff;stroke-linecap:round;"/>
     </g>
     <g id="text_8">
      <!-- 25 -->
      <defs>
       <path d="M 10.796875 72.90625 
L 49.515625 72.90625 
L 49.515625 64.59375 
L 19.828125 64.59375 
L 19.828125 46.734375 
Q 21.96875 47.46875 24.109375 47.828125 
Q 26.265625 48.1875 28.421875 48.1875 
Q 40.625 48.1875 47.75 41.5 
Q 54.890625 34.8125 54.890625 23.390625 
Q 54.890625 11.625 47.5625 5.09375 
Q 40.234375 -1.421875 26.90625 -1.421875 
Q 22.3125 -1.421875 17.546875 -0.640625 
Q 12.796875 0.140625 7.71875 1.703125 
L 7.71875 11.625 
Q 12.109375 9.234375 16.796875 8.0625 
Q 21.484375 6.890625 26.703125 6.890625 
Q 35.15625 6.890625 40.078125 11.328125 
Q 45.015625 15.765625 45.015625 23.390625 
Q 45.015625 31 40.078125 35.4375 
Q 35.15625 39.890625 26.703125 39.890625 
Q 22.75 39.890625 18.8125 39.015625 
Q 14.890625 38.140625 10.796875 36.28125 
z
" id="DejaVuSans-53"/>
      </defs>
      <g style="fill:#262626;" transform="translate(29.8125 212.378239)scale(0.11 -0.11)">
       <use xlink:href="#DejaVuSans-50"/>
       <use x="63.623047" xlink:href="#DejaVuSans-53"/>
      </g>
     </g>
    </g>
    <g id="ytick_3">
     <g id="line2d_8">
      <path clip-path="url(#pbffabff505)" d="M 53.31 181.782084 
L 276.51 181.782084 
" style="fill:none;stroke:#ffffff;stroke-linecap:round;"/>
     </g>
     <g id="text_9">
      <!-- 50 -->
      <g style="fill:#262626;" transform="translate(29.8125 185.961225)scale(0.11 -0.11)">
       <use xlink:href="#DejaVuSans-53"/>
       <use x="63.623047" xlink:href="#DejaVuSans-48"/>
      </g>
     </g>
    </g>
    <g id="ytick_4">
     <g id="line2d_9">
      <path clip-path="url(#pbffabff505)" d="M 53.31 155.36507 
L 276.51 155.36507 
" style="fill:none;stroke:#ffffff;stroke-linecap:round;"/>
     </g>
     <g id="text_10">
      <!-- 75 -->
      <defs>
       <path d="M 8.203125 72.90625 
L 55.078125 72.90625 
L 55.078125 68.703125 
L 28.609375 0 
L 18.3125 0 
L 43.21875 64.59375 
L 8.203125 64.59375 
z
" id="DejaVuSans-55"/>
      </defs>
      <g style="fill:#262626;" transform="translate(29.8125 159.544211)scale(0.11 -0.11)">
       <use xlink:href="#DejaVuSans-55"/>
       <use x="63.623047" xlink:href="#DejaVuSans-53"/>
      </g>
     </g>
    </g>
    <g id="ytick_5">
     <g id="line2d_10">
      <path clip-path="url(#pbffabff505)" d="M 53.31 128.948056 
L 276.51 128.948056 
" style="fill:none;stroke:#ffffff;stroke-linecap:round;"/>
     </g>
     <g id="text_11">
      <!-- 100 -->
      <defs>
       <path d="M 12.40625 8.296875 
L 28.515625 8.296875 
L 28.515625 63.921875 
L 10.984375 60.40625 
L 10.984375 69.390625 
L 28.421875 72.90625 
L 38.28125 72.90625 
L 38.28125 8.296875 
L 54.390625 8.296875 
L 54.390625 0 
L 12.40625 0 
z
" id="DejaVuSans-49"/>
      </defs>
      <g style="fill:#262626;" transform="translate(22.81375 133.127197)scale(0.11 -0.11)">
       <use xlink:href="#DejaVuSans-49"/>
       <use x="63.623047" xlink:href="#DejaVuSans-48"/>
       <use x="127.246094" xlink:href="#DejaVuSans-48"/>
      </g>
     </g>
    </g>
    <g id="ytick_6">
     <g id="line2d_11">
      <path clip-path="url(#pbffabff505)" d="M 53.31 102.531042 
L 276.51 102.531042 
" style="fill:none;stroke:#ffffff;stroke-linecap:round;"/>
     </g>
     <g id="text_12">
      <!-- 125 -->
      <g style="fill:#262626;" transform="translate(22.81375 106.710183)scale(0.11 -0.11)">
       <use xlink:href="#DejaVuSans-49"/>
       <use x="63.623047" xlink:href="#DejaVuSans-50"/>
       <use x="127.246094" xlink:href="#DejaVuSans-53"/>
      </g>
     </g>
    </g>
    <g id="ytick_7">
     <g id="line2d_12">
      <path clip-path="url(#pbffabff505)" d="M 53.31 76.114028 
L 276.51 76.114028 
" style="fill:none;stroke:#ffffff;stroke-linecap:round;"/>
     </g>
     <g id="text_13">
      <!-- 150 -->
      <g style="fill:#262626;" transform="translate(22.81375 80.293169)scale(0.11 -0.11)">
       <use xlink:href="#DejaVuSans-49"/>
       <use x="63.623047" xlink:href="#DejaVuSans-53"/>
       <use x="127.246094" xlink:href="#DejaVuSans-48"/>
      </g>
     </g>
    </g>
    <g id="ytick_8">
     <g id="line2d_13">
      <path clip-path="url(#pbffabff505)" d="M 53.31 49.697014 
L 276.51 49.697014 
" style="fill:none;stroke:#ffffff;stroke-linecap:round;"/>
     </g>
     <g id="text_14">
      <!-- 175 -->
      <g style="fill:#262626;" transform="translate(22.81375 53.876155)scale(0.11 -0.11)">
       <use xlink:href="#DejaVuSans-49"/>
       <use x="63.623047" xlink:href="#DejaVuSans-55"/>
       <use x="127.246094" xlink:href="#DejaVuSans-53"/>
      </g>
     </g>
    </g>
    <g id="ytick_9">
     <g id="line2d_14">
      <path clip-path="url(#pbffabff505)" d="M 53.31 23.28 
L 276.51 23.28 
" style="fill:none;stroke:#ffffff;stroke-linecap:round;"/>
     </g>
     <g id="text_15">
      <!-- 200 -->
      <g style="fill:#262626;" transform="translate(22.81375 27.459141)scale(0.11 -0.11)">
       <use xlink:href="#DejaVuSans-50"/>
       <use x="63.623047" xlink:href="#DejaVuSans-48"/>
       <use x="127.246094" xlink:href="#DejaVuSans-48"/>
      </g>
     </g>
    </g>
    <g id="text_16">
     <!-- AverageReturn -->
     <defs>
      <path d="M 34.1875 63.1875 
L 20.796875 26.90625 
L 47.609375 26.90625 
z
M 28.609375 72.90625 
L 39.796875 72.90625 
L 67.578125 0 
L 57.328125 0 
L 50.6875 18.703125 
L 17.828125 18.703125 
L 11.1875 0 
L 0.78125 0 
z
" id="DejaVuSans-65"/>
      <path d="M 2.984375 54.6875 
L 12.5 54.6875 
L 29.59375 8.796875 
L 46.6875 54.6875 
L 56.203125 54.6875 
L 35.6875 0 
L 23.484375 0 
z
" id="DejaVuSans-118"/>
      <path d="M 45.40625 27.984375 
Q 45.40625 37.75 41.375 43.109375 
Q 37.359375 48.484375 30.078125 48.484375 
Q 22.859375 48.484375 18.828125 43.109375 
Q 14.796875 37.75 14.796875 27.984375 
Q 14.796875 18.265625 18.828125 12.890625 
Q 22.859375 7.515625 30.078125 7.515625 
Q 37.359375 7.515625 41.375 12.890625 
Q 45.40625 18.265625 45.40625 27.984375 
z
M 54.390625 6.78125 
Q 54.390625 -7.171875 48.1875 -13.984375 
Q 42 -20.796875 29.203125 -20.796875 
Q 24.46875 -20.796875 20.265625 -20.09375 
Q 16.0625 -19.390625 12.109375 -17.921875 
L 12.109375 -9.1875 
Q 16.0625 -11.328125 19.921875 -12.34375 
Q 23.78125 -13.375 27.78125 -13.375 
Q 36.625 -13.375 41.015625 -8.765625 
Q 45.40625 -4.15625 45.40625 5.171875 
L 45.40625 9.625 
Q 42.625 4.78125 38.28125 2.390625 
Q 33.9375 0 27.875 0 
Q 17.828125 0 11.671875 7.65625 
Q 5.515625 15.328125 5.515625 27.984375 
Q 5.515625 40.671875 11.671875 48.328125 
Q 17.828125 56 27.875 56 
Q 33.9375 56 38.28125 53.609375 
Q 42.625 51.21875 45.40625 46.390625 
L 45.40625 54.6875 
L 54.390625 54.6875 
z
" id="DejaVuSans-103"/>
      <path d="M 44.390625 34.1875 
Q 47.5625 33.109375 50.5625 29.59375 
Q 53.5625 26.078125 56.59375 19.921875 
L 66.609375 0 
L 56 0 
L 46.6875 18.703125 
Q 43.0625 26.03125 39.671875 28.421875 
Q 36.28125 30.8125 30.421875 30.8125 
L 19.671875 30.8125 
L 19.671875 0 
L 9.8125 0 
L 9.8125 72.90625 
L 32.078125 72.90625 
Q 44.578125 72.90625 50.734375 67.671875 
Q 56.890625 62.453125 56.890625 51.90625 
Q 56.890625 45.015625 53.6875 40.46875 
Q 50.484375 35.9375 44.390625 34.1875 
z
M 19.671875 64.796875 
L 19.671875 38.921875 
L 32.078125 38.921875 
Q 39.203125 38.921875 42.84375 42.21875 
Q 46.484375 45.515625 46.484375 51.90625 
Q 46.484375 58.296875 42.84375 61.546875 
Q 39.203125 64.796875 32.078125 64.796875 
z
" id="DejaVuSans-82"/>
      <path d="M 8.5 21.578125 
L 8.5 54.6875 
L 17.484375 54.6875 
L 17.484375 21.921875 
Q 17.484375 14.15625 20.5 10.265625 
Q 23.53125 6.390625 29.59375 6.390625 
Q 36.859375 6.390625 41.078125 11.03125 
Q 45.3125 15.671875 45.3125 23.6875 
L 45.3125 54.6875 
L 54.296875 54.6875 
L 54.296875 0 
L 45.3125 0 
L 45.3125 8.40625 
Q 42.046875 3.421875 37.71875 1 
Q 33.40625 -1.421875 27.6875 -1.421875 
Q 18.265625 -1.421875 13.375 4.4375 
Q 8.5 10.296875 8.5 21.578125 
z
M 31.109375 56 
z
" id="DejaVuSans-117"/>
     </defs>
     <g style="fill:#262626;" transform="translate(16.318125 169.347187)rotate(-90)scale(0.12 -0.12)">
      <use xlink:href="#DejaVuSans-65"/>
      <use x="68.330078" xlink:href="#DejaVuSans-118"/>
      <use x="127.509766" xlink:href="#DejaVuSans-101"/>
      <use x="189.033203" xlink:href="#DejaVuSans-114"/>
      <use x="230.146484" xlink:href="#DejaVuSans-97"/>
      <use x="291.425781" xlink:href="#DejaVuSans-103"/>
      <use x="354.902344" xlink:href="#DejaVuSans-101"/>
      <use x="416.425781" xlink:href="#DejaVuSans-82"/>
      <use x="485.845703" xlink:href="#DejaVuSans-101"/>
      <use x="547.369141" xlink:href="#DejaVuSans-116"/>
      <use x="586.578125" xlink:href="#DejaVuSans-117"/>
      <use x="649.957031" xlink:href="#DejaVuSans-114"/>
      <use x="691.054688" xlink:href="#DejaVuSans-110"/>
     </g>
    </g>
   </g>
   <g id="PolyCollection_1">
    <defs>
     <path d="M 53.31 -62.631789 
L 53.31 -60.677966 
L 55.564545 -70.257356 
L 57.819091 -81.473341 
L 60.073636 -88.918483 
L 62.328182 -103.45218 
L 64.582727 -110.478268 
L 66.837273 -118.775746 
L 69.091818 -124.75564 
L 71.346364 -129.872271 
L 73.600909 -129.258667 
L 75.855455 -137.2777 
L 78.11 -145.034235 
L 80.364545 -140.283368 
L 82.619091 -156.368395 
L 84.873636 -152.826776 
L 87.128182 -170.265344 
L 89.382727 -177.469985 
L 91.637273 -207.001006 
L 93.891818 -225.17004 
L 96.146364 -243.133613 
L 98.400909 -254.404872 
L 100.655455 -247.360335 
L 102.91 -250.295554 
L 105.164545 -254.639688 
L 107.419091 -251.939284 
L 109.673636 -254.639688 
L 111.928182 -254.639688 
L 114.182727 -252.995965 
L 116.437273 -250.765192 
L 118.691818 -251.23483 
L 120.946364 -254.639688 
L 123.200909 -254.639688 
L 125.455455 -254.639688 
L 127.71 -254.639688 
L 129.964545 -246.773285 
L 132.219091 -254.639688 
L 134.473636 -254.639688 
L 136.728182 -247.242924 
L 138.982727 -249.356285 
L 141.237273 -254.639688 
L 143.491818 -252.761142 
L 145.746364 -254.639688 
L 148.000909 -251.704461 
L 150.255455 -254.639688 
L 152.51 -252.761142 
L 154.764545 -245.246974 
L 157.019091 -250.060738 
L 159.273636 -247.712562 
L 161.528182 -254.639688 
L 163.782727 -236.089076 
L 166.037273 -231.68624 
L 168.291818 -224.499132 
L 170.546364 -210.762288 
L 172.800909 -214.083284 
L 175.055455 -181.219958 
L 177.31 -167.796198 
L 179.564545 -164.743565 
L 181.819091 -178.177107 
L 184.073636 -171.86638 
L 186.328182 -179.263141 
L 188.582727 -180.755914 
L 190.837273 -179.659396 
L 193.091818 -177.100861 
L 195.346364 -173.099171 
L 197.600909 -172.649108 
L 199.855455 -170.379192 
L 202.11 -169.788239 
L 204.364545 -172.882805 
L 206.619091 -143.681938 
L 208.873636 -136.502801 
L 211.128182 -138.637549 
L 213.382727 -136.832755 
L 215.637273 -126.827383 
L 217.891818 -125.098477 
L 220.146364 -132.808043 
L 222.400909 -132.792507 
L 224.655455 -137.744401 
L 226.91 -134.716804 
L 229.164545 -134.046019 
L 231.419091 -129.300225 
L 233.673636 -132.70299 
L 235.928182 -136.028691 
L 238.182727 -143.101183 
L 240.437273 -145.234114 
L 242.691818 -147.034382 
L 244.946364 -142.905506 
L 247.200909 -144.490524 
L 249.455455 -145.836122 
L 251.71 -145.564469 
L 253.964545 -147.875811 
L 256.219091 -154.392008 
L 258.473636 -155.818041 
L 260.728182 -154.717332 
L 262.982727 -155.123857 
L 265.237273 -159.673456 
L 267.491818 -160.656081 
L 269.746364 -147.468796 
L 272.000909 -155.632636 
L 274.255455 -161.394613 
L 276.51 -162.522582 
L 276.51 -214.104246 
L 276.51 -214.104246 
L 274.255455 -210.862923 
L 272.000909 -209.484205 
L 269.746364 -209.812949 
L 267.491818 -211.993145 
L 265.237273 -208.544932 
L 262.982727 -209.601613 
L 260.728182 -207.463303 
L 258.473636 -206.714821 
L 256.219091 -206.443311 
L 253.964545 -206.736835 
L 251.71 -205.28649 
L 249.455455 -208.879548 
L 247.200909 -206.296552 
L 244.946364 -188.851537 
L 242.691818 -196.639664 
L 240.437273 -190.045192 
L 238.182727 -202.715578 
L 235.928182 -198.50982 
L 233.673636 -184.735239 
L 231.419091 -183.514329 
L 229.164545 -186.175593 
L 226.91 -187.188245 
L 224.655455 -176.31813 
L 222.400909 -171.910405 
L 220.146364 -177.262295 
L 217.891818 -156.947611 
L 215.637273 -168.813747 
L 213.382727 -172.88881 
L 211.128182 -180.18564 
L 208.873636 -177.267187 
L 206.619091 -176.724174 
L 204.364545 -203.113929 
L 202.11 -187.399581 
L 199.855455 -191.099085 
L 197.600909 -197.316167 
L 195.346364 -186.207047 
L 193.091818 -196.96394 
L 190.837273 -184.502515 
L 188.582727 -191.704297 
L 186.328182 -182.609296 
L 184.073636 -198.859254 
L 181.819091 -207.089064 
L 179.564545 -209.672062 
L 177.31 -212.724692 
L 175.055455 -222.665316 
L 172.800909 -240.148071 
L 170.546364 -234.814345 
L 168.291818 -243.519382 
L 166.037273 -245.305676 
L 163.782727 -247.59515 
L 161.528182 -254.639688 
L 159.273636 -254.639688 
L 157.019091 -254.639688 
L 154.764545 -254.639688 
L 152.51 -254.639688 
L 150.255455 -254.639688 
L 148.000909 -254.639688 
L 145.746364 -254.639688 
L 143.491818 -254.639688 
L 141.237273 -254.639688 
L 138.982727 -254.639688 
L 136.728182 -254.639688 
L 134.473636 -254.639688 
L 132.219091 -254.639688 
L 129.964545 -254.639688 
L 127.71 -254.639688 
L 125.455455 -254.639688 
L 123.200909 -254.639688 
L 120.946364 -254.639688 
L 118.691818 -254.639688 
L 116.437273 -254.639688 
L 114.182727 -254.639688 
L 111.928182 -254.639688 
L 109.673636 -254.639688 
L 107.419091 -254.639688 
L 105.164545 -254.639688 
L 102.91 -254.639688 
L 100.655455 -254.639688 
L 98.400909 -254.639688 
L 96.146364 -249.356285 
L 93.891818 -243.955474 
L 91.637273 -234.327941 
L 89.382727 -226.813766 
L 87.128182 -222.385767 
L 84.873636 -193.779917 
L 82.619091 -179.341416 
L 80.364545 -174.690895 
L 78.11 -175.05403 
L 75.855455 -162.109693 
L 73.600909 -177.589229 
L 71.346364 -179.458495 
L 69.091818 -154.938769 
L 66.837273 -151.830884 
L 64.582727 -132.579536 
L 62.328182 -127.392935 
L 60.073636 -96.059743 
L 57.819091 -85.943268 
L 55.564545 -72.235122 
L 53.31 -62.631789 
z
" id="m6ba90578be" style="stroke:#ffffff;stroke-opacity:0.2;"/>
    </defs>
    <g clip-path="url(#pbffabff505)">
     <use style="fill:#4c72b0;fill-opacity:0.2;stroke:#ffffff;stroke-opacity:0.2;" x="0" xlink:href="#m6ba90578be" y="277.919688"/>
    </g>
   </g>
   <g id="PolyCollection_2">
    <defs>
     <path d="M 53.31 -62.631789 
L 53.31 -60.677966 
L 55.564545 -70.257356 
L 57.819091 -86.699729 
L 60.073636 -92.151878 
L 62.328182 -98.098448 
L 64.582727 -102.076541 
L 66.837273 -114.22739 
L 69.091818 -137.269412 
L 71.346364 -129.716564 
L 73.600909 -148.325884 
L 75.855455 -164.469613 
L 78.11 -156.519346 
L 80.364545 -174.614816 
L 82.619091 -161.23248 
L 84.873636 -200.318477 
L 87.128182 -205.504041 
L 89.382727 -219.920179 
L 91.637273 -245.834016 
L 93.891818 -252.526326 
L 96.146364 -254.639688 
L 98.400909 -254.052645 
L 100.655455 -254.639688 
L 102.91 -254.639688 
L 105.164545 -237.497983 
L 107.419091 -254.522276 
L 109.673636 -254.639688 
L 111.928182 -248.299604 
L 114.182727 -252.761142 
L 116.437273 -250.882603 
L 118.691818 -247.59515 
L 120.946364 -251.352235 
L 123.200909 -254.639688 
L 125.455455 -254.639688 
L 127.71 -254.639688 
L 129.964545 -254.639688 
L 132.219091 -254.639688 
L 134.473636 -254.639688 
L 136.728182 -254.639688 
L 138.982727 -254.639688 
L 141.237273 -254.639688 
L 143.491818 -254.639688 
L 145.746364 -254.639688 
L 148.000909 -254.170049 
L 150.255455 -253.348191 
L 152.51 -254.639688 
L 154.764545 -252.526326 
L 157.019091 -253.935234 
L 159.273636 -249.708512 
L 161.528182 -246.421059 
L 163.782727 -239.963571 
L 166.037273 -249.5911 
L 168.291818 -247.477739 
L 170.546364 -246.53847 
L 172.800909 -237.497983 
L 175.055455 -247.360335 
L 177.31 -244.894747 
L 179.564545 -246.421059 
L 181.819091 -247.947377 
L 184.073636 -248.182193 
L 186.328182 -251.821873 
L 188.582727 -243.603244 
L 190.837273 -242.89879 
L 193.091818 -238.437252 
L 195.346364 -250.295554 
L 197.600909 -242.487865 
L 199.855455 -241.959521 
L 202.11 -234.914984 
L 204.364545 -246.53847 
L 206.619091 -248.299604 
L 208.873636 -251.117419 
L 211.128182 -246.53847 
L 213.382727 -246.890697 
L 215.637273 -252.408915 
L 217.891818 -254.404872 
L 220.146364 -253.113369 
L 222.400909 -249.121469 
L 224.655455 -251.469646 
L 226.91 -253.583007 
L 229.164545 -254.639688 
L 231.419091 -254.639688 
L 233.673636 -254.639688 
L 235.928182 -254.639688 
L 238.182727 -254.639688 
L 240.437273 -254.639688 
L 242.691818 -254.639688 
L 244.946364 -254.639688 
L 247.200909 -254.639688 
L 249.455455 -254.639688 
L 251.71 -254.639688 
L 253.964545 -254.639688 
L 256.219091 -254.639688 
L 258.473636 -254.639688 
L 260.728182 -254.639688 
L 262.982727 -254.639688 
L 265.237273 -254.639688 
L 267.491818 -254.639688 
L 269.746364 -254.639688 
L 272.000909 -254.639688 
L 274.255455 -254.639688 
L 276.51 -254.639688 
L 276.51 -254.639688 
L 276.51 -254.639688 
L 274.255455 -254.639688 
L 272.000909 -254.639688 
L 269.746364 -254.639688 
L 267.491818 -254.639688 
L 265.237273 -254.639688 
L 262.982727 -254.639688 
L 260.728182 -254.639688 
L 258.473636 -254.639688 
L 256.219091 -254.639688 
L 253.964545 -254.639688 
L 251.71 -254.639688 
L 249.455455 -254.639688 
L 247.200909 -254.639688 
L 244.946364 -254.639688 
L 242.691818 -254.639688 
L 240.437273 -254.639688 
L 238.182727 -254.639688 
L 235.928182 -254.639688 
L 233.673636 -254.639688 
L 231.419091 -254.639688 
L 229.164545 -254.639688 
L 226.91 -254.639688 
L 224.655455 -254.639688 
L 222.400909 -254.639688 
L 220.146364 -254.639688 
L 217.891818 -254.639688 
L 215.637273 -254.639688 
L 213.382727 -254.639688 
L 211.128182 -254.639688 
L 208.873636 -254.639688 
L 206.619091 -254.639688 
L 204.364545 -254.639688 
L 202.11 -254.639688 
L 199.855455 -250.412965 
L 197.600909 -248.710537 
L 195.346364 -254.639688 
L 193.091818 -254.639688 
L 190.837273 -254.639688 
L 188.582727 -250.882603 
L 186.328182 -254.639688 
L 184.073636 -254.639688 
L 181.819091 -254.639688 
L 179.564545 -254.639688 
L 177.31 -254.639688 
L 175.055455 -254.639688 
L 172.800909 -254.639688 
L 170.546364 -254.639688 
L 168.291818 -254.639688 
L 166.037273 -254.639688 
L 163.782727 -254.639688 
L 161.528182 -254.639688 
L 159.273636 -254.639688 
L 157.019091 -254.639688 
L 154.764545 -254.639688 
L 152.51 -254.639688 
L 150.255455 -254.639688 
L 148.000909 -254.639688 
L 145.746364 -254.639688 
L 143.491818 -254.639688 
L 141.237273 -254.639688 
L 138.982727 -254.639688 
L 136.728182 -254.639688 
L 134.473636 -254.639688 
L 132.219091 -254.639688 
L 129.964545 -254.639688 
L 127.71 -254.639688 
L 125.455455 -254.639688 
L 123.200909 -254.639688 
L 120.946364 -254.639688 
L 118.691818 -254.639688 
L 116.437273 -254.639688 
L 114.182727 -254.639688 
L 111.928182 -254.639688 
L 109.673636 -254.639688 
L 107.419091 -254.639688 
L 105.164545 -254.639688 
L 102.91 -254.639688 
L 100.655455 -254.639688 
L 98.400909 -254.639688 
L 96.146364 -254.639688 
L 93.891818 -254.639688 
L 91.637273 -253.465596 
L 89.382727 -253.23078 
L 87.128182 -245.716605 
L 84.873636 -234.562757 
L 82.619091 -213.127234 
L 80.364545 -231.451421 
L 78.11 -208.246381 
L 75.855455 -197.402824 
L 73.600909 -192.354237 
L 71.346364 -170.066103 
L 69.091818 -167.903089 
L 66.837273 -149.121328 
L 64.582727 -114.566613 
L 62.328182 -104.867226 
L 60.073636 -97.032735 
L 57.819091 -89.971169 
L 55.564545 -72.235122 
L 53.31 -62.631789 
z
" id="mf817f51ec2" style="stroke:#ffffff;stroke-opacity:0.2;"/>
    </defs>
    <g clip-path="url(#pbffabff505)">
     <use style="fill:#dd8452;fill-opacity:0.2;stroke:#ffffff;stroke-opacity:0.2;" x="0" xlink:href="#mf817f51ec2" y="277.919688"/>
    </g>
   </g>
   <g id="PolyCollection_3">
    <defs>
     <path d="M 53.31 -62.631789 
L 53.31 -60.677966 
L 55.564545 -58.37227 
L 57.819091 -60.842753 
L 60.073636 -61.430929 
L 62.328182 -66.893743 
L 64.582727 -68.732815 
L 66.837273 -72.156393 
L 69.091818 -81.200392 
L 71.346364 -83.17234 
L 73.600909 -95.611086 
L 75.855455 -113.288536 
L 78.11 -110.534876 
L 80.364545 -107.325987 
L 82.619091 -117.340399 
L 84.873636 -123.893858 
L 87.128182 -120.205391 
L 89.382727 -131.60349 
L 91.637273 -134.738466 
L 93.891818 -151.789446 
L 96.146364 -181.200389 
L 98.400909 -215.408329 
L 100.655455 -210.946781 
L 102.91 -220.490459 
L 105.164545 -211.668011 
L 107.419091 -208.321856 
L 109.673636 -198.987845 
L 111.928182 -216.29728 
L 114.182727 -223.039902 
L 116.437273 -231.493346 
L 118.691818 -234.093119 
L 120.946364 -248.064789 
L 123.200909 -252.1741 
L 125.455455 -254.639688 
L 127.71 -248.886647 
L 129.964545 -237.380572 
L 132.219091 -224.247547 
L 134.473636 -214.045543 
L 136.728182 -207.001006 
L 138.982727 -200.631572 
L 141.237273 -199.848842 
L 143.491818 -197.031027 
L 145.746364 -197.422394 
L 148.000909 -202.040479 
L 150.255455 -205.504041 
L 152.51 -222.335448 
L 154.764545 -227.870447 
L 157.019091 -234.093119 
L 159.273636 -241.959521 
L 161.528182 -238.90689 
L 163.782727 -239.376522 
L 166.037273 -220.926541 
L 168.291818 -239.024295 
L 170.546364 -207.001006 
L 172.800909 -220.524002 
L 175.055455 -208.321856 
L 177.31 -219.71891 
L 179.564545 -218.209371 
L 181.819091 -212.020238 
L 184.073636 -212.460522 
L 186.328182 -208.409913 
L 188.582727 -213.693316 
L 190.837273 -205.680155 
L 193.091818 -209.994934 
L 195.346364 -206.824892 
L 197.600909 -201.649116 
L 199.855455 -206.208495 
L 202.11 -217.303641 
L 204.364545 -216.699819 
L 206.619091 -214.485826 
L 208.873636 -215.290911 
L 211.128182 -213.957486 
L 213.382727 -217.639095 
L 215.637273 -214.586464 
L 217.891818 -211.366107 
L 220.146364 -211.567377 
L 222.400909 -219.945339 
L 224.655455 -219.869867 
L 226.91 -227.534993 
L 229.164545 -203.292842 
L 231.419091 -214.485826 
L 233.673636 -231.510126 
L 235.928182 -233.388665 
L 238.182727 -206.824892 
L 240.437273 -239.963571 
L 242.691818 -242.546563 
L 244.946364 -244.483814 
L 247.200909 -252.702443 
L 249.455455 -254.639688 
L 251.71 -250.412965 
L 253.964545 -254.639688 
L 256.219091 -248.651831 
L 258.473636 -254.639688 
L 260.728182 -254.404872 
L 262.982727 -254.639688 
L 265.237273 -243.720655 
L 267.491818 -249.004058 
L 269.746364 -243.720655 
L 272.000909 -249.473696 
L 274.255455 -249.708512 
L 276.51 -252.526326 
L 276.51 -254.639688 
L 276.51 -254.639688 
L 274.255455 -254.639688 
L 272.000909 -254.639688 
L 269.746364 -254.639688 
L 267.491818 -254.639688 
L 265.237273 -254.639688 
L 262.982727 -254.639688 
L 260.728182 -254.639688 
L 258.473636 -254.639688 
L 256.219091 -254.639688 
L 253.964545 -254.639688 
L 251.71 -254.639688 
L 249.455455 -254.639688 
L 247.200909 -253.993939 
L 244.946364 -250.823898 
L 242.691818 -249.356285 
L 240.437273 -252.643738 
L 238.182727 -245.129562 
L 235.928182 -253.113369 
L 233.673636 -254.639688 
L 231.419091 -243.251017 
L 229.164545 -239.376522 
L 226.91 -241.506656 
L 224.655455 -242.060159 
L 222.400909 -242.957496 
L 220.146364 -238.03471 
L 217.891818 -236.827072 
L 215.637273 -235.720076 
L 213.382727 -236.776756 
L 211.128182 -239.024295 
L 208.873636 -244.894747 
L 206.619091 -245.834016 
L 204.364545 -252.291511 
L 202.11 -254.639688 
L 199.855455 -254.639688 
L 197.600909 -254.639688 
L 195.346364 -254.639688 
L 193.091818 -254.639688 
L 190.837273 -254.639688 
L 188.582727 -254.639688 
L 186.328182 -254.639688 
L 184.073636 -254.639688 
L 181.819091 -254.639688 
L 179.564545 -254.639688 
L 177.31 -254.639688 
L 175.055455 -254.639688 
L 172.800909 -254.639688 
L 170.546364 -254.639688 
L 168.291818 -254.639688 
L 166.037273 -254.639688 
L 163.782727 -254.287461 
L 161.528182 -251.704461 
L 159.273636 -249.004058 
L 157.019091 -248.064789 
L 154.764545 -254.639688 
L 152.51 -244.425109 
L 150.255455 -247.712562 
L 148.000909 -254.639688 
L 145.746364 -246.303654 
L 143.491818 -254.639688 
L 141.237273 -253.113369 
L 138.982727 -254.639688 
L 136.728182 -254.639688 
L 134.473636 -254.639688 
L 132.219091 -254.639688 
L 129.964545 -254.639688 
L 127.71 -254.639688 
L 125.455455 -254.639688 
L 123.200909 -253.817822 
L 120.946364 -254.639688 
L 118.691818 -249.238873 
L 116.437273 -254.404872 
L 114.182727 -254.639688 
L 111.928182 -239.493933 
L 109.673636 -247.477739 
L 107.419091 -253.583007 
L 105.164545 -254.639688 
L 102.91 -246.421062 
L 100.655455 -232.91903 
L 98.400909 -237.128983 
L 96.146364 -228.486844 
L 93.891818 -218.712548 
L 91.637273 -206.678133 
L 89.382727 -205.805949 
L 87.128182 -196.118661 
L 84.873636 -183.540186 
L 82.619091 -186.410408 
L 80.364545 -189.008081 
L 78.11 -169.595768 
L 75.855455 -154.889043 
L 73.600909 -154.235891 
L 71.346364 -108.228751 
L 69.091818 -104.772498 
L 66.837273 -98.002941 
L 64.582727 -87.530605 
L 62.328182 -79.982132 
L 60.073636 -73.566616 
L 57.819091 -68.680485 
L 55.564545 -62.448574 
L 53.31 -62.631789 
z
" id="m4e0cfb0b34" style="stroke:#ffffff;stroke-opacity:0.2;"/>
    </defs>
    <g clip-path="url(#pbffabff505)">
     <use style="fill:#55a868;fill-opacity:0.2;stroke:#ffffff;stroke-opacity:0.2;" x="0" xlink:href="#m4e0cfb0b34" y="277.919688"/>
    </g>
   </g>
   <g id="PolyCollection_4">
    <defs>
     <path d="M 53.31 -62.631789 
L 53.31 -60.677966 
L 55.564545 -58.429717 
L 57.819091 -56.67573 
L 60.073636 -55.795483 
L 62.328182 -55.03931 
L 64.582727 -54.625007 
L 66.837273 -54.494998 
L 69.091818 -53.995314 
L 71.346364 -53.742528 
L 73.600909 -53.611537 
L 75.855455 -53.506397 
L 78.11 -53.239727 
L 80.364545 -53.355332 
L 82.619091 -53.291237 
L 84.873636 -53.143098 
L 87.128182 -53.123043 
L 89.382727 -53.235056 
L 91.637273 -53.130052 
L 93.891818 -53.143097 
L 96.146364 -53.22073 
L 98.400909 -53.192141 
L 100.655455 -53.200979 
L 102.91 -53.269652 
L 105.164545 -53.221889 
L 107.419091 -53.195554 
L 109.673636 -53.138999 
L 111.928182 -53.156143 
L 114.182727 -53.14962 
L 116.437273 -53.137764 
L 118.691818 -53.123529 
L 120.946364 -53.238348 
L 123.200909 -53.077802 
L 125.455455 -53.183545 
L 127.71 -53.147517 
L 129.964545 -53.039687 
L 132.219091 -53.112242 
L 134.473636 -53.15087 
L 136.728182 -53.235056 
L 138.982727 -53.136575 
L 141.237273 -53.160746 
L 143.491818 -53.197718 
L 145.746364 -53.197657 
L 148.000909 -53.178972 
L 150.255455 -53.146359 
L 152.51 -53.133314 
L 154.764545 -53.103654 
L 157.019091 -53.129185 
L 159.273636 -53.201102 
L 161.528182 -53.176961 
L 163.782727 -53.126013 
L 166.037273 -53.123529 
L 168.291818 -53.067488 
L 170.546364 -53.175711 
L 172.800909 -53.167207 
L 175.055455 -53.08004 
L 177.31 -53.113745 
L 179.564545 -53.210886 
L 181.819091 -53.082777 
L 184.073636 -53.096631 
L 186.328182 -53.132536 
L 188.582727 -53.228473 
L 190.837273 -53.109736 
L 193.091818 -53.118593 
L 195.346364 -53.077242 
L 197.600909 -53.156143 
L 199.855455 -53.118593 
L 202.11 -53.134954 
L 204.364545 -53.134472 
L 206.619091 -53.146359 
L 208.873636 -53.20543 
L 211.128182 -53.194457 
L 213.382727 -53.072216 
L 215.637273 -53.152881 
L 217.891818 -53.175404 
L 220.146364 -53.174766 
L 222.400909 -53.168244 
L 224.655455 -53.22518 
L 226.91 -53.11949 
L 229.164545 -53.11365 
L 231.419091 -53.185126 
L 233.673636 -53.25962 
L 235.928182 -53.146359 
L 238.182727 -53.218597 
L 240.437273 -53.14962 
L 242.691818 -53.217469 
L 244.946364 -53.133314 
L 247.200909 -53.239932 
L 249.455455 -53.133314 
L 251.71 -53.204241 
L 253.964545 -53.084386 
L 256.219091 -53.14962 
L 258.473636 -53.152549 
L 260.728182 -53.20543 
L 262.982727 -53.212013 
L 265.237273 -53.198295 
L 267.491818 -53.07134 
L 269.746364 -53.269589 
L 272.000909 -53.17245 
L 274.255455 -53.129868 
L 276.51 -53.067591 
L 276.51 -53.186898 
L 276.51 -53.186898 
L 274.255455 -53.218597 
L 272.000909 -53.181289 
L 269.746364 -53.302508 
L 267.491818 -53.192262 
L 265.237273 -53.25962 
L 262.982727 -53.251515 
L 260.728182 -53.244932 
L 258.473636 -53.248223 
L 256.219091 -53.169188 
L 253.964545 -53.190006 
L 251.71 -53.286475 
L 249.455455 -53.168305 
L 247.200909 -53.292601 
L 244.946364 -53.161721 
L 242.691818 -53.293243 
L 240.437273 -53.246969 
L 238.182727 -53.238348 
L 235.928182 -53.165927 
L 233.673636 -53.302166 
L 231.419091 -53.239808 
L 229.164545 -53.221889 
L 226.91 -53.1874 
L 224.655455 -53.258099 
L 222.400909 -53.230417 
L 220.146364 -53.220853 
L 217.891818 -53.249714 
L 215.637273 -53.178972 
L 213.382727 -53.154723 
L 211.128182 -53.256753 
L 208.873636 -53.212013 
L 206.619091 -53.201223 
L 204.364545 -53.173608 
L 202.11 -53.282695 
L 199.855455 -53.178972 
L 197.600909 -53.197779 
L 195.346364 -53.207204 
L 193.091818 -53.152881 
L 190.837273 -53.171002 
L 188.582727 -53.261391 
L 186.328182 -53.207151 
L 184.073636 -53.135767 
L 181.819091 -53.097438 
L 179.564545 -53.31008 
L 177.31 -53.133314 
L 175.055455 -53.167207 
L 172.800909 -53.215305 
L 170.546364 -53.224114 
L 168.291818 -53.190682 
L 166.037273 -53.171566 
L 163.782727 -53.249945 
L 161.528182 -53.212013 
L 159.273636 -53.333841 
L 157.019091 -53.296539 
L 154.764545 -53.170377 
L 152.51 -53.230539 
L 150.255455 -53.207807 
L 148.000909 -53.227375 
L 145.746364 -53.204241 
L 143.491818 -53.230636 
L 141.237273 -53.208721 
L 138.982727 -53.171566 
L 136.728182 -53.248224 
L 134.473636 -53.20543 
L 132.219091 -53.233286 
L 129.964545 -53.28223 
L 127.71 -53.180131 
L 125.455455 -53.231765 
L 123.200909 -53.1769 
L 120.946364 -53.261019 
L 118.691818 -53.2338 
L 116.437273 -53.170377 
L 114.182727 -53.204546 
L 111.928182 -53.184612 
L 109.673636 -53.193863 
L 107.419091 -53.228472 
L 105.164545 -53.24164 
L 102.91 -53.312135 
L 100.655455 -53.240481 
L 98.400909 -53.286142 
L 96.146364 -53.283213 
L 93.891818 -53.267152 
L 91.637273 -53.171627 
L 89.382727 -53.264372 
L 87.128182 -53.163855 
L 84.873636 -53.197901 
L 82.619091 -53.377264 
L 80.364545 -53.430098 
L 78.11 -53.317262 
L 75.855455 -53.578261 
L 73.600909 -54.0525 
L 71.346364 -54.025651 
L 69.091818 -54.074014 
L 66.837273 -55.311424 
L 64.582727 -56.271976 
L 62.328182 -58.423956 
L 60.073636 -60.667955 
L 57.819091 -61.491599 
L 55.564545 -65.151316 
L 53.31 -62.631789 
z
" id="m9f62194209" style="stroke:#ffffff;stroke-opacity:0.2;"/>
    </defs>
    <g clip-path="url(#pbffabff505)">
     <use style="fill:#c44e52;fill-opacity:0.2;stroke:#ffffff;stroke-opacity:0.2;" x="0" xlink:href="#m9f62194209" y="277.919688"/>
    </g>
   </g>
   <g id="line2d_15">
    <path clip-path="url(#pbffabff505)" d="M 53.31 216.26481 
L 55.564545 206.673448 
L 57.819091 194.211383 
L 60.073636 185.430574 
L 62.328182 162.49713 
L 64.582727 156.390785 
L 66.837273 142.616372 
L 69.091818 138.072483 
L 71.346364 123.254305 
L 73.600909 124.49574 
L 75.855455 128.225991 
L 78.11 117.875555 
L 80.364545 120.432556 
L 82.619091 110.064782 
L 84.873636 104.616341 
L 87.128182 81.594132 
L 89.382727 75.777812 
L 91.637273 57.255214 
L 93.891818 43.356931 
L 96.146364 31.674739 
L 98.400909 23.397408 
L 100.655455 26.919676 
L 102.91 25.452067 
L 105.164545 23.28 
L 107.419091 24.630202 
L 109.673636 23.28 
L 111.928182 23.28 
L 114.182727 24.101861 
L 116.437273 25.217248 
L 118.691818 24.982429 
L 120.946364 23.28 
L 123.200909 23.28 
L 125.455455 23.28 
L 127.71 23.28 
L 129.964545 27.213201 
L 132.219091 23.28 
L 134.473636 23.28 
L 136.728182 26.978382 
L 138.982727 25.921701 
L 141.237273 23.28 
L 143.491818 24.219273 
L 145.746364 23.28 
L 148.000909 24.747613 
L 150.255455 23.28 
L 152.51 24.219273 
L 154.764545 27.976357 
L 157.019091 25.569475 
L 159.273636 26.743563 
L 161.528182 23.28 
L 163.782727 36.077574 
L 166.037273 39.42373 
L 168.291818 43.91043 
L 170.546364 55.131371 
L 172.800909 50.80401 
L 175.055455 75.977051 
L 177.31 87.659242 
L 179.564545 90.711874 
L 181.819091 85.286602 
L 184.073636 92.55687 
L 186.328182 96.983469 
L 188.582727 91.689582 
L 190.837273 95.838732 
L 193.091818 90.887287 
L 195.346364 98.266579 
L 197.600909 92.93705 
L 199.855455 97.180549 
L 202.11 99.325778 
L 204.364545 89.921321 
L 206.619091 117.716631 
L 208.873636 121.034694 
L 211.128182 118.508093 
L 213.382727 123.058905 
L 215.637273 130.099123 
L 217.891818 136.896643 
L 220.146364 122.884518 
L 222.400909 125.568232 
L 224.655455 120.888422 
L 226.91 116.967163 
L 229.164545 117.808882 
L 231.419091 121.512411 
L 233.673636 119.200573 
L 235.928182 110.650432 
L 238.182727 105.011307 
L 240.437273 110.280035 
L 242.691818 106.082664 
L 244.946364 112.041166 
L 247.200909 102.52615 
L 249.455455 100.561853 
L 251.71 102.494208 
L 253.964545 100.613364 
L 256.219091 97.502028 
L 258.473636 96.653256 
L 260.728182 96.82937 
L 262.982727 95.556952 
L 265.237273 93.810493 
L 267.491818 91.595074 
L 269.746364 99.278815 
L 272.000909 95.361267 
L 274.255455 91.79092 
L 276.51 89.606273 
" style="fill:none;stroke:#4c72b0;stroke-linecap:round;stroke-width:1.5;"/>
   </g>
   <g id="line2d_16">
    <path clip-path="url(#pbffabff505)" d="M 53.31 216.26481 
L 55.564545 206.673448 
L 57.819091 189.584239 
L 60.073636 183.327381 
L 62.328182 176.436851 
L 64.582727 169.598111 
L 66.837273 146.245329 
L 69.091818 125.333437 
L 71.346364 128.028354 
L 73.600909 107.579627 
L 75.855455 96.983469 
L 78.11 95.536824 
L 80.364545 74.886569 
L 82.619091 90.73983 
L 84.873636 60.479071 
L 87.128182 52.309364 
L 89.382727 41.344208 
L 91.637273 28.269882 
L 93.891818 24.336681 
L 96.146364 23.28 
L 98.400909 23.573521 
L 100.655455 23.28 
L 102.91 23.28 
L 105.164545 31.850852 
L 107.419091 23.338706 
L 109.673636 23.28 
L 111.928182 26.450042 
L 114.182727 24.219273 
L 116.437273 25.158542 
L 118.691818 26.802269 
L 120.946364 24.923726 
L 123.200909 23.28 
L 125.455455 23.28 
L 127.71 23.28 
L 129.964545 23.28 
L 132.219091 23.28 
L 134.473636 23.28 
L 136.728182 23.28 
L 138.982727 23.28 
L 141.237273 23.28 
L 143.491818 23.28 
L 145.746364 23.28 
L 148.000909 23.514819 
L 150.255455 23.925748 
L 152.51 23.28 
L 154.764545 24.336681 
L 157.019091 23.632227 
L 159.273636 25.745588 
L 161.528182 27.389314 
L 163.782727 30.618058 
L 166.037273 25.804294 
L 168.291818 26.860974 
L 170.546364 27.330609 
L 172.800909 31.850852 
L 175.055455 26.919676 
L 177.31 28.15247 
L 179.564545 27.389314 
L 181.819091 26.626155 
L 184.073636 26.508747 
L 186.328182 24.688907 
L 188.582727 30.676764 
L 190.837273 29.150449 
L 193.091818 31.381218 
L 195.346364 25.452067 
L 197.600909 32.320487 
L 199.855455 31.733444 
L 202.11 33.142352 
L 204.364545 27.330609 
L 206.619091 26.450042 
L 208.873636 25.041134 
L 211.128182 27.330609 
L 213.382727 27.154495 
L 215.637273 24.395386 
L 217.891818 23.397408 
L 220.146364 24.043159 
L 222.400909 26.039109 
L 224.655455 24.865021 
L 226.91 23.80834 
L 229.164545 23.28 
L 231.419091 23.28 
L 233.673636 23.28 
L 235.928182 23.28 
L 238.182727 23.28 
L 240.437273 23.28 
L 242.691818 23.28 
L 244.946364 23.28 
L 247.200909 23.28 
L 249.455455 23.28 
L 251.71 23.28 
L 253.964545 23.28 
L 256.219091 23.28 
L 258.473636 23.28 
L 260.728182 23.28 
L 262.982727 23.28 
L 265.237273 23.28 
L 267.491818 23.28 
L 269.746364 23.28 
L 272.000909 23.28 
L 274.255455 23.28 
L 276.51 23.28 
" style="fill:none;stroke:#dd8452;stroke-linecap:round;stroke-width:1.5;"/>
   </g>
   <g id="line2d_17">
    <path clip-path="url(#pbffabff505)" d="M 53.31 216.26481 
L 55.564545 217.509265 
L 57.819091 213.158069 
L 60.073636 210.420915 
L 62.328182 204.48175 
L 64.582727 199.787977 
L 66.837273 192.840021 
L 69.091818 184.933242 
L 71.346364 182.219142 
L 73.600909 152.996199 
L 75.855455 143.830898 
L 78.11 137.854366 
L 80.364545 129.752653 
L 82.619091 126.044284 
L 84.873636 124.202666 
L 87.128182 119.757661 
L 89.382727 109.214968 
L 91.637273 107.211388 
L 93.891818 92.66869 
L 96.146364 73.076071 
L 98.400909 51.651031 
L 100.655455 55.986782 
L 102.91 44.463927 
L 105.164545 44.765838 
L 107.419091 46.967256 
L 109.673636 54.686896 
L 111.928182 50.024081 
L 114.182727 39.079893 
L 116.437273 34.970578 
L 118.691818 36.253691 
L 120.946364 26.567449 
L 123.200909 24.923726 
L 125.455455 23.28 
L 127.71 26.15652 
L 129.964545 31.909558 
L 132.219091 38.47607 
L 134.473636 43.577072 
L 136.728182 47.099341 
L 138.982727 50.284058 
L 141.237273 51.438582 
L 143.491818 52.08433 
L 145.746364 56.056664 
L 148.000909 49.579604 
L 150.255455 51.311386 
L 152.51 44.539409 
L 154.764545 36.66462 
L 157.019091 36.840734 
L 159.273636 32.437898 
L 161.528182 32.614012 
L 163.782727 31.087696 
L 166.037273 40.136573 
L 168.291818 31.087696 
L 170.546364 47.099341 
L 172.800909 40.337843 
L 175.055455 46.438916 
L 177.31 40.740389 
L 179.564545 41.495158 
L 181.819091 44.589725 
L 184.073636 44.369583 
L 186.328182 46.394887 
L 188.582727 43.753186 
L 190.837273 47.759766 
L 193.091818 45.602377 
L 195.346364 47.187398 
L 197.600909 49.775286 
L 199.855455 47.495596 
L 202.11 41.948023 
L 204.364545 43.424023 
L 206.619091 47.759766 
L 208.873636 47.826858 
L 211.128182 51.428797 
L 213.382727 50.711762 
L 215.637273 52.766417 
L 217.891818 53.823098 
L 220.146364 53.118644 
L 222.400909 46.46827 
L 224.655455 46.954674 
L 226.91 43.398863 
L 229.164545 56.585006 
L 231.419091 49.051266 
L 233.673636 34.844781 
L 235.928182 34.668671 
L 238.182727 51.94246 
L 240.437273 31.616033 
L 242.691818 31.968264 
L 244.946364 30.265831 
L 247.200909 24.571496 
L 249.455455 23.28 
L 251.71 25.393361 
L 253.964545 23.28 
L 256.219091 26.273928 
L 258.473636 23.28 
L 260.728182 23.397408 
L 262.982727 23.28 
L 265.237273 28.739516 
L 267.491818 26.097815 
L 269.746364 28.739516 
L 272.000909 25.862996 
L 274.255455 25.745588 
L 276.51 24.336681 
" style="fill:none;stroke:#55a868;stroke-linecap:round;stroke-width:1.5;"/>
   </g>
   <g id="line2d_18">
    <path clip-path="url(#pbffabff505)" d="M 53.31 216.26481 
L 55.564545 216.129171 
L 57.819091 218.836023 
L 60.073636 219.687968 
L 62.328182 221.188055 
L 64.582727 222.471196 
L 66.837273 223.016476 
L 69.091818 223.885024 
L 71.346364 224.035598 
L 73.600909 224.087669 
L 75.855455 224.377358 
L 78.11 224.641193 
L 80.364545 224.526973 
L 82.619091 224.585437 
L 84.873636 224.749188 
L 87.128182 224.776239 
L 89.382727 224.669973 
L 91.637273 224.768848 
L 93.891818 224.714563 
L 96.146364 224.667716 
L 98.400909 224.680546 
L 100.655455 224.698957 
L 102.91 224.628794 
L 105.164545 224.687923 
L 107.419091 224.707674 
L 109.673636 224.753257 
L 111.928182 224.74931 
L 114.182727 224.742605 
L 116.437273 224.765617 
L 118.691818 224.741023 
L 120.946364 224.670004 
L 123.200909 224.792336 
L 125.455455 224.712033 
L 127.71 224.755864 
L 129.964545 224.758729 
L 132.219091 224.746923 
L 134.473636 224.741538 
L 136.728182 224.678048 
L 138.982727 224.765617 
L 141.237273 224.734954 
L 143.491818 224.70551 
L 145.746364 224.718739 
L 148.000909 224.716514 
L 150.255455 224.742604 
L 152.51 224.737761 
L 154.764545 224.782672 
L 157.019091 224.706826 
L 159.273636 224.652216 
L 161.528182 224.7252 
L 163.782727 224.731709 
L 166.037273 224.77214 
L 168.291818 224.790603 
L 170.546364 224.719775 
L 172.800909 224.728431 
L 175.055455 224.796064 
L 177.31 224.796158 
L 179.564545 224.659205 
L 181.819091 224.82958 
L 184.073636 224.803489 
L 186.328182 224.749844 
L 188.582727 224.674756 
L 190.837273 224.779319 
L 193.091818 224.783951 
L 195.346364 224.777464 
L 197.600909 224.742726 
L 199.855455 224.770905 
L 202.11 224.710863 
L 204.364545 224.765647 
L 206.619091 224.745896 
L 208.873636 224.710966 
L 211.128182 224.694083 
L 213.382727 224.806218 
L 215.637273 224.753761 
L 217.891818 224.707128 
L 220.146364 224.721878 
L 222.400909 224.720357 
L 224.655455 224.678048 
L 226.91 224.766242 
L 229.164545 224.751918 
L 231.419091 224.70722 
L 233.673636 224.638794 
L 235.928182 224.763545 
L 238.182727 224.691215 
L 240.437273 224.721393 
L 242.691818 224.664331 
L 244.946364 224.77217 
L 247.200909 224.653421 
L 249.455455 224.768878 
L 251.71 224.67433 
L 253.964545 224.782491 
L 256.219091 224.760283 
L 258.473636 224.719301 
L 260.728182 224.694507 
L 262.982727 224.687923 
L 265.237273 224.69073 
L 267.491818 224.787887 
L 269.746364 224.633639 
L 272.000909 224.742818 
L 274.255455 224.745455 
L 276.51 224.792443 
" style="fill:none;stroke:#c44e52;stroke-linecap:round;stroke-width:1.5;"/>
   </g>
   <g id="patch_3">
    <path d="M 53.31 234.96 
L 53.31 13.2 
" style="fill:none;stroke:#ffffff;stroke-linecap:square;stroke-linejoin:miter;stroke-width:1.25;"/>
   </g>
   <g id="patch_4">
    <path d="M 276.51 234.96 
L 276.51 13.2 
" style="fill:none;stroke:#ffffff;stroke-linecap:square;stroke-linejoin:miter;stroke-width:1.25;"/>
   </g>
   <g id="patch_5">
    <path d="M 53.31 234.96 
L 276.51 234.96 
" style="fill:none;stroke:#ffffff;stroke-linecap:square;stroke-linejoin:miter;stroke-width:1.25;"/>
   </g>
   <g id="patch_6">
    <path d="M 53.31 13.2 
L 276.51 13.2 
" style="fill:none;stroke:#ffffff;stroke-linecap:square;stroke-linejoin:miter;stroke-width:1.25;"/>
   </g>
   <g id="legend_1">
    <g id="patch_7">
     <path d="M 207.08778 229.962 
L 269.5128 229.962 
Q 271.512 229.962 271.512 227.9628 
L 271.512 169.16133 
Q 271.512 167.16213 269.5128 167.16213 
L 207.08778 167.16213 
Q 205.08858 167.16213 205.08858 169.16133 
L 205.08858 227.9628 
Q 205.08858 229.962 207.08778 229.962 
z
" style="fill:#eaeaf2;opacity:0.8;stroke:#cccccc;stroke-linejoin:miter;"/>
    </g>
    <g id="line2d_19">
     <path d="M 209.08698 175.257328 
L 229.07898 175.257328 
" style="fill:none;stroke:#4c72b0;stroke-linecap:round;stroke-width:1.5;"/>
    </g>
    <g id="line2d_20"/>
    <g id="text_17">
     <!-- 100_1 -->
     <defs>
      <path d="M 50.984375 -16.609375 
L 50.984375 -23.578125 
L -0.984375 -23.578125 
L -0.984375 -16.609375 
z
" id="DejaVuSans-95"/>
     </defs>
     <g style="fill:#262626;" transform="translate(237.07578 178.755928)scale(0.09996 -0.09996)">
      <use xlink:href="#DejaVuSans-49"/>
      <use x="63.623047" xlink:href="#DejaVuSans-48"/>
      <use x="127.246094" xlink:href="#DejaVuSans-48"/>
      <use x="190.869141" xlink:href="#DejaVuSans-95"/>
      <use x="240.869141" xlink:href="#DejaVuSans-49"/>
     </g>
    </g>
    <g id="line2d_21">
     <path d="M 209.08698 190.207596 
L 229.07898 190.207596 
" style="fill:none;stroke:#dd8452;stroke-linecap:round;stroke-width:1.5;"/>
    </g>
    <g id="line2d_22"/>
    <g id="text_18">
     <!-- 10_10 -->
     <g style="fill:#262626;" transform="translate(237.07578 193.706196)scale(0.09996 -0.09996)">
      <use xlink:href="#DejaVuSans-49"/>
      <use x="63.623047" xlink:href="#DejaVuSans-48"/>
      <use x="127.246094" xlink:href="#DejaVuSans-95"/>
      <use x="177.246094" xlink:href="#DejaVuSans-49"/>
      <use x="240.869141" xlink:href="#DejaVuSans-48"/>
     </g>
    </g>
    <g id="line2d_23">
     <path d="M 209.08698 205.157863 
L 229.07898 205.157863 
" style="fill:none;stroke:#55a868;stroke-linecap:round;stroke-width:1.5;"/>
    </g>
    <g id="line2d_24"/>
    <g id="text_19">
     <!-- 1_100 -->
     <g style="fill:#262626;" transform="translate(237.07578 208.656463)scale(0.09996 -0.09996)">
      <use xlink:href="#DejaVuSans-49"/>
      <use x="63.623047" xlink:href="#DejaVuSans-95"/>
      <use x="113.623047" xlink:href="#DejaVuSans-49"/>
      <use x="177.246094" xlink:href="#DejaVuSans-48"/>
      <use x="240.869141" xlink:href="#DejaVuSans-48"/>
     </g>
    </g>
    <g id="line2d_25">
     <path d="M 209.08698 220.108131 
L 229.07898 220.108131 
" style="fill:none;stroke:#c44e52;stroke-linecap:round;stroke-width:1.5;"/>
    </g>
    <g id="line2d_26"/>
    <g id="text_20">
     <!-- 1_1 -->
     <g style="fill:#262626;" transform="translate(237.07578 223.606731)scale(0.09996 -0.09996)">
      <use xlink:href="#DejaVuSans-49"/>
      <use x="63.623047" xlink:href="#DejaVuSans-95"/>
      <use x="113.623047" xlink:href="#DejaVuSans-49"/>
     </g>
    </g>
   </g>
  </g>
 </g>
 <defs>
  <clipPath id="pbffabff505">
   <rect height="221.76" width="223.2" x="53.31" y="13.2"/>
  </clipPath>
 </defs>
</svg>
