<?xml version="1.0" encoding="utf-8" standalone="no"?>
<!DOCTYPE svg PUBLIC "-//W3C//DTD SVG 1.1//EN"
  "http://www.w3.org/Graphics/SVG/1.1/DTD/svg11.dtd">
<!-- Created with matplotlib (https://matplotlib.org/) -->
<svg height="333.401531pt" version="1.1" viewBox="0 0 450.433125 333.401531" width="450.433125pt" xmlns="http://www.w3.org/2000/svg" xmlns:xlink="http://www.w3.org/1999/xlink">
 <defs>
  <style type="text/css">
*{stroke-linecap:butt;stroke-linejoin:round;}
  </style>
 </defs>
 <g id="figure_1">
  <g id="patch_1">
   <path d="M 0 333.401531 
L 450.433125 333.401531 
L 450.433125 0 
L 0 0 
z
" style="fill:#ffffff;"/>
  </g>
  <g id="axes_1">
   <g id="patch_2">
    <path d="M 80.113125 279.312 
L 437.233125 279.312 
L 437.233125 13.2 
L 80.113125 13.2 
z
" style="fill:#eaeaf2;"/>
   </g>
   <g id="matplotlib.axis_1">
    <g id="xtick_1">
     <g id="line2d_1">
      <path clip-path="url(#p5e14ce2f07)" d="M 80.113125 279.312 
L 80.113125 13.2 
" style="fill:none;stroke:#ffffff;stroke-linecap:round;"/>
     </g>
     <g id="text_1">
      <!-- 0 -->
      <defs>
       <path d="M 31.78125 66.40625 
Q 24.171875 66.40625 20.328125 58.90625 
Q 16.5 51.421875 16.5 36.375 
Q 16.5 21.390625 20.328125 13.890625 
Q 24.171875 6.390625 31.78125 6.390625 
Q 39.453125 6.390625 43.28125 13.890625 
Q 47.125 21.390625 47.125 36.375 
Q 47.125 51.421875 43.28125 58.90625 
Q 39.453125 66.40625 31.78125 66.40625 
z
M 31.78125 74.21875 
Q 44.046875 74.21875 50.515625 64.515625 
Q 56.984375 54.828125 56.984375 36.375 
Q 56.984375 17.96875 50.515625 8.265625 
Q 44.046875 -1.421875 31.78125 -1.421875 
Q 19.53125 -1.421875 13.0625 8.265625 
Q 6.59375 17.96875 6.59375 36.375 
Q 6.59375 54.828125 13.0625 64.515625 
Q 19.53125 74.21875 31.78125 74.21875 
z
" id="DejaVuSans-48"/>
      </defs>
      <g style="fill:#262626;" transform="translate(74.864063 301.349422)scale(0.165 -0.165)">
       <use xlink:href="#DejaVuSans-48"/>
      </g>
     </g>
    </g>
    <g id="xtick_2">
     <g id="line2d_2">
      <path clip-path="url(#p5e14ce2f07)" d="M 152.25858 279.312 
L 152.25858 13.2 
" style="fill:none;stroke:#ffffff;stroke-linecap:round;"/>
     </g>
     <g id="text_2">
      <!-- 20 -->
      <defs>
       <path d="M 19.1875 8.296875 
L 53.609375 8.296875 
L 53.609375 0 
L 7.328125 0 
L 7.328125 8.296875 
Q 12.9375 14.109375 22.625 23.890625 
Q 32.328125 33.6875 34.8125 36.53125 
Q 39.546875 41.84375 41.421875 45.53125 
Q 43.3125 49.21875 43.3125 52.78125 
Q 43.3125 58.59375 39.234375 62.25 
Q 35.15625 65.921875 28.609375 65.921875 
Q 23.96875 65.921875 18.8125 64.3125 
Q 13.671875 62.703125 7.8125 59.421875 
L 7.8125 69.390625 
Q 13.765625 71.78125 18.9375 73 
Q 24.125 74.21875 28.421875 74.21875 
Q 39.75 74.21875 46.484375 68.546875 
Q 53.21875 62.890625 53.21875 53.421875 
Q 53.21875 48.921875 51.53125 44.890625 
Q 49.859375 40.875 45.40625 35.40625 
Q 44.1875 33.984375 37.640625 27.21875 
Q 31.109375 20.453125 19.1875 8.296875 
z
" id="DejaVuSans-50"/>
      </defs>
      <g style="fill:#262626;" transform="translate(141.760455 301.349422)scale(0.165 -0.165)">
       <use xlink:href="#DejaVuSans-50"/>
       <use x="63.623047" xlink:href="#DejaVuSans-48"/>
      </g>
     </g>
    </g>
    <g id="xtick_3">
     <g id="line2d_3">
      <path clip-path="url(#p5e14ce2f07)" d="M 224.404034 279.312 
L 224.404034 13.2 
" style="fill:none;stroke:#ffffff;stroke-linecap:round;"/>
     </g>
     <g id="text_3">
      <!-- 40 -->
      <defs>
       <path d="M 37.796875 64.3125 
L 12.890625 25.390625 
L 37.796875 25.390625 
z
M 35.203125 72.90625 
L 47.609375 72.90625 
L 47.609375 25.390625 
L 58.015625 25.390625 
L 58.015625 17.1875 
L 47.609375 17.1875 
L 47.609375 0 
L 37.796875 0 
L 37.796875 17.1875 
L 4.890625 17.1875 
L 4.890625 26.703125 
z
" id="DejaVuSans-52"/>
      </defs>
      <g style="fill:#262626;" transform="translate(213.905909 301.349422)scale(0.165 -0.165)">
       <use xlink:href="#DejaVuSans-52"/>
       <use x="63.623047" xlink:href="#DejaVuSans-48"/>
      </g>
     </g>
    </g>
    <g id="xtick_4">
     <g id="line2d_4">
      <path clip-path="url(#p5e14ce2f07)" d="M 296.549489 279.312 
L 296.549489 13.2 
" style="fill:none;stroke:#ffffff;stroke-linecap:round;"/>
     </g>
     <g id="text_4">
      <!-- 60 -->
      <defs>
       <path d="M 33.015625 40.375 
Q 26.375 40.375 22.484375 35.828125 
Q 18.609375 31.296875 18.609375 23.390625 
Q 18.609375 15.53125 22.484375 10.953125 
Q 26.375 6.390625 33.015625 6.390625 
Q 39.65625 6.390625 43.53125 10.953125 
Q 47.40625 15.53125 47.40625 23.390625 
Q 47.40625 31.296875 43.53125 35.828125 
Q 39.65625 40.375 33.015625 40.375 
z
M 52.59375 71.296875 
L 52.59375 62.3125 
Q 48.875 64.0625 45.09375 64.984375 
Q 41.3125 65.921875 37.59375 65.921875 
Q 27.828125 65.921875 22.671875 59.328125 
Q 17.53125 52.734375 16.796875 39.40625 
Q 19.671875 43.65625 24.015625 45.921875 
Q 28.375 48.1875 33.59375 48.1875 
Q 44.578125 48.1875 50.953125 41.515625 
Q 57.328125 34.859375 57.328125 23.390625 
Q 57.328125 12.15625 50.6875 5.359375 
Q 44.046875 -1.421875 33.015625 -1.421875 
Q 20.359375 -1.421875 13.671875 8.265625 
Q 6.984375 17.96875 6.984375 36.375 
Q 6.984375 53.65625 15.1875 63.9375 
Q 23.390625 74.21875 37.203125 74.21875 
Q 40.921875 74.21875 44.703125 73.484375 
Q 48.484375 72.75 52.59375 71.296875 
z
" id="DejaVuSans-54"/>
      </defs>
      <g style="fill:#262626;" transform="translate(286.051364 301.349422)scale(0.165 -0.165)">
       <use xlink:href="#DejaVuSans-54"/>
       <use x="63.623047" xlink:href="#DejaVuSans-48"/>
      </g>
     </g>
    </g>
    <g id="xtick_5">
     <g id="line2d_5">
      <path clip-path="url(#p5e14ce2f07)" d="M 368.694943 279.312 
L 368.694943 13.2 
" style="fill:none;stroke:#ffffff;stroke-linecap:round;"/>
     </g>
     <g id="text_5">
      <!-- 80 -->
      <defs>
       <path d="M 31.78125 34.625 
Q 24.75 34.625 20.71875 30.859375 
Q 16.703125 27.09375 16.703125 20.515625 
Q 16.703125 13.921875 20.71875 10.15625 
Q 24.75 6.390625 31.78125 6.390625 
Q 38.8125 6.390625 42.859375 10.171875 
Q 46.921875 13.96875 46.921875 20.515625 
Q 46.921875 27.09375 42.890625 30.859375 
Q 38.875 34.625 31.78125 34.625 
z
M 21.921875 38.8125 
Q 15.578125 40.375 12.03125 44.71875 
Q 8.5 49.078125 8.5 55.328125 
Q 8.5 64.0625 14.71875 69.140625 
Q 20.953125 74.21875 31.78125 74.21875 
Q 42.671875 74.21875 48.875 69.140625 
Q 55.078125 64.0625 55.078125 55.328125 
Q 55.078125 49.078125 51.53125 44.71875 
Q 48 40.375 41.703125 38.8125 
Q 48.828125 37.15625 52.796875 32.3125 
Q 56.78125 27.484375 56.78125 20.515625 
Q 56.78125 9.90625 50.3125 4.234375 
Q 43.84375 -1.421875 31.78125 -1.421875 
Q 19.734375 -1.421875 13.25 4.234375 
Q 6.78125 9.90625 6.78125 20.515625 
Q 6.78125 27.484375 10.78125 32.3125 
Q 14.796875 37.15625 21.921875 38.8125 
z
M 18.3125 54.390625 
Q 18.3125 48.734375 21.84375 45.5625 
Q 25.390625 42.390625 31.78125 42.390625 
Q 38.140625 42.390625 41.71875 45.5625 
Q 45.3125 48.734375 45.3125 54.390625 
Q 45.3125 60.0625 41.71875 63.234375 
Q 38.140625 66.40625 31.78125 66.40625 
Q 25.390625 66.40625 21.84375 63.234375 
Q 18.3125 60.0625 18.3125 54.390625 
z
" id="DejaVuSans-56"/>
      </defs>
      <g style="fill:#262626;" transform="translate(358.196818 301.349422)scale(0.165 -0.165)">
       <use xlink:href="#DejaVuSans-56"/>
       <use x="63.623047" xlink:href="#DejaVuSans-48"/>
      </g>
     </g>
    </g>
    <g id="text_6">
     <!-- Iteration -->
     <defs>
      <path d="M 9.8125 72.90625 
L 19.671875 72.90625 
L 19.671875 0 
L 9.8125 0 
z
" id="DejaVuSans-73"/>
      <path d="M 18.3125 70.21875 
L 18.3125 54.6875 
L 36.8125 54.6875 
L 36.8125 47.703125 
L 18.3125 47.703125 
L 18.3125 18.015625 
Q 18.3125 11.328125 20.140625 9.421875 
Q 21.96875 7.515625 27.59375 7.515625 
L 36.8125 7.515625 
L 36.8125 0 
L 27.59375 0 
Q 17.1875 0 13.234375 3.875 
Q 9.28125 7.765625 9.28125 18.015625 
L 9.28125 47.703125 
L 2.6875 47.703125 
L 2.6875 54.6875 
L 9.28125 54.6875 
L 9.28125 70.21875 
z
" id="DejaVuSans-116"/>
      <path d="M 56.203125 29.59375 
L 56.203125 25.203125 
L 14.890625 25.203125 
Q 15.484375 15.921875 20.484375 11.0625 
Q 25.484375 6.203125 34.421875 6.203125 
Q 39.59375 6.203125 44.453125 7.46875 
Q 49.3125 8.734375 54.109375 11.28125 
L 54.109375 2.78125 
Q 49.265625 0.734375 44.1875 -0.34375 
Q 39.109375 -1.421875 33.890625 -1.421875 
Q 20.796875 -1.421875 13.15625 6.1875 
Q 5.515625 13.8125 5.515625 26.8125 
Q 5.515625 40.234375 12.765625 48.109375 
Q 20.015625 56 32.328125 56 
Q 43.359375 56 49.78125 48.890625 
Q 56.203125 41.796875 56.203125 29.59375 
z
M 47.21875 32.234375 
Q 47.125 39.59375 43.09375 43.984375 
Q 39.0625 48.390625 32.421875 48.390625 
Q 24.90625 48.390625 20.390625 44.140625 
Q 15.875 39.890625 15.1875 32.171875 
z
" id="DejaVuSans-101"/>
      <path d="M 41.109375 46.296875 
Q 39.59375 47.171875 37.8125 47.578125 
Q 36.03125 48 33.890625 48 
Q 26.265625 48 22.1875 43.046875 
Q 18.109375 38.09375 18.109375 28.8125 
L 18.109375 0 
L 9.078125 0 
L 9.078125 54.6875 
L 18.109375 54.6875 
L 18.109375 46.1875 
Q 20.953125 51.171875 25.484375 53.578125 
Q 30.03125 56 36.53125 56 
Q 37.453125 56 38.578125 55.875 
Q 39.703125 55.765625 41.0625 55.515625 
z
" id="DejaVuSans-114"/>
      <path d="M 34.28125 27.484375 
Q 23.390625 27.484375 19.1875 25 
Q 14.984375 22.515625 14.984375 16.5 
Q 14.984375 11.71875 18.140625 8.90625 
Q 21.296875 6.109375 26.703125 6.109375 
Q 34.1875 6.109375 38.703125 11.40625 
Q 43.21875 16.703125 43.21875 25.484375 
L 43.21875 27.484375 
z
M 52.203125 31.203125 
L 52.203125 0 
L 43.21875 0 
L 43.21875 8.296875 
Q 40.140625 3.328125 35.546875 0.953125 
Q 30.953125 -1.421875 24.3125 -1.421875 
Q 15.921875 -1.421875 10.953125 3.296875 
Q 6 8.015625 6 15.921875 
Q 6 25.140625 12.171875 29.828125 
Q 18.359375 34.515625 30.609375 34.515625 
L 43.21875 34.515625 
L 43.21875 35.40625 
Q 43.21875 41.609375 39.140625 45 
Q 35.0625 48.390625 27.6875 48.390625 
Q 23 48.390625 18.546875 47.265625 
Q 14.109375 46.140625 10.015625 43.890625 
L 10.015625 52.203125 
Q 14.9375 54.109375 19.578125 55.046875 
Q 24.21875 56 28.609375 56 
Q 40.484375 56 46.34375 49.84375 
Q 52.203125 43.703125 52.203125 31.203125 
z
" id="DejaVuSans-97"/>
      <path d="M 9.421875 54.6875 
L 18.40625 54.6875 
L 18.40625 0 
L 9.421875 0 
z
M 9.421875 75.984375 
L 18.40625 75.984375 
L 18.40625 64.59375 
L 9.421875 64.59375 
z
" id="DejaVuSans-105"/>
      <path d="M 30.609375 48.390625 
Q 23.390625 48.390625 19.1875 42.75 
Q 14.984375 37.109375 14.984375 27.296875 
Q 14.984375 17.484375 19.15625 11.84375 
Q 23.34375 6.203125 30.609375 6.203125 
Q 37.796875 6.203125 41.984375 11.859375 
Q 46.1875 17.53125 46.1875 27.296875 
Q 46.1875 37.015625 41.984375 42.703125 
Q 37.796875 48.390625 30.609375 48.390625 
z
M 30.609375 56 
Q 42.328125 56 49.015625 48.375 
Q 55.71875 40.765625 55.71875 27.296875 
Q 55.71875 13.875 49.015625 6.21875 
Q 42.328125 -1.421875 30.609375 -1.421875 
Q 18.84375 -1.421875 12.171875 6.21875 
Q 5.515625 13.875 5.515625 27.296875 
Q 5.515625 40.765625 12.171875 48.375 
Q 18.84375 56 30.609375 56 
z
" id="DejaVuSans-111"/>
      <path d="M 54.890625 33.015625 
L 54.890625 0 
L 45.90625 0 
L 45.90625 32.71875 
Q 45.90625 40.484375 42.875 44.328125 
Q 39.84375 48.1875 33.796875 48.1875 
Q 26.515625 48.1875 22.3125 43.546875 
Q 18.109375 38.921875 18.109375 30.90625 
L 18.109375 0 
L 9.078125 0 
L 9.078125 54.6875 
L 18.109375 54.6875 
L 18.109375 46.1875 
Q 21.34375 51.125 25.703125 53.5625 
Q 30.078125 56 35.796875 56 
Q 45.21875 56 50.046875 50.171875 
Q 54.890625 44.34375 54.890625 33.015625 
z
" id="DejaVuSans-110"/>
     </defs>
     <g style="fill:#262626;" transform="translate(220.497656 322.458094)scale(0.18 -0.18)">
      <use xlink:href="#DejaVuSans-73"/>
      <use x="29.492188" xlink:href="#DejaVuSans-116"/>
      <use x="68.701172" xlink:href="#DejaVuSans-101"/>
      <use x="130.224609" xlink:href="#DejaVuSans-114"/>
      <use x="171.337891" xlink:href="#DejaVuSans-97"/>
      <use x="232.617188" xlink:href="#DejaVuSans-116"/>
      <use x="271.826172" xlink:href="#DejaVuSans-105"/>
      <use x="299.609375" xlink:href="#DejaVuSans-111"/>
      <use x="360.791016" xlink:href="#DejaVuSans-110"/>
     </g>
    </g>
   </g>
   <g id="matplotlib.axis_2">
    <g id="ytick_1">
     <g id="line2d_6">
      <path clip-path="url(#p5e14ce2f07)" d="M 80.113125 270.148853 
L 437.233125 270.148853 
" style="fill:none;stroke:#ffffff;stroke-linecap:round;"/>
     </g>
     <g id="text_7">
      <!-- 0 -->
      <g style="fill:#262626;" transform="translate(60.115 276.417563)scale(0.165 -0.165)">
       <use xlink:href="#DejaVuSans-48"/>
      </g>
     </g>
    </g>
    <g id="ytick_2">
     <g id="line2d_7">
      <path clip-path="url(#p5e14ce2f07)" d="M 80.113125 221.178282 
L 437.233125 221.178282 
" style="fill:none;stroke:#ffffff;stroke-linecap:round;"/>
     </g>
     <g id="text_8">
      <!-- 200 -->
      <g style="fill:#262626;" transform="translate(39.11875 227.446993)scale(0.165 -0.165)">
       <use xlink:href="#DejaVuSans-50"/>
       <use x="63.623047" xlink:href="#DejaVuSans-48"/>
       <use x="127.246094" xlink:href="#DejaVuSans-48"/>
      </g>
     </g>
    </g>
    <g id="ytick_3">
     <g id="line2d_8">
      <path clip-path="url(#p5e14ce2f07)" d="M 80.113125 172.207712 
L 437.233125 172.207712 
" style="fill:none;stroke:#ffffff;stroke-linecap:round;"/>
     </g>
     <g id="text_9">
      <!-- 400 -->
      <g style="fill:#262626;" transform="translate(39.11875 178.476422)scale(0.165 -0.165)">
       <use xlink:href="#DejaVuSans-52"/>
       <use x="63.623047" xlink:href="#DejaVuSans-48"/>
       <use x="127.246094" xlink:href="#DejaVuSans-48"/>
      </g>
     </g>
    </g>
    <g id="ytick_4">
     <g id="line2d_9">
      <path clip-path="url(#p5e14ce2f07)" d="M 80.113125 123.237141 
L 437.233125 123.237141 
" style="fill:none;stroke:#ffffff;stroke-linecap:round;"/>
     </g>
     <g id="text_10">
      <!-- 600 -->
      <g style="fill:#262626;" transform="translate(39.11875 129.505852)scale(0.165 -0.165)">
       <use xlink:href="#DejaVuSans-54"/>
       <use x="63.623047" xlink:href="#DejaVuSans-48"/>
       <use x="127.246094" xlink:href="#DejaVuSans-48"/>
      </g>
     </g>
    </g>
    <g id="ytick_5">
     <g id="line2d_10">
      <path clip-path="url(#p5e14ce2f07)" d="M 80.113125 74.266571 
L 437.233125 74.266571 
" style="fill:none;stroke:#ffffff;stroke-linecap:round;"/>
     </g>
     <g id="text_11">
      <!-- 800 -->
      <g style="fill:#262626;" transform="translate(39.11875 80.535281)scale(0.165 -0.165)">
       <use xlink:href="#DejaVuSans-56"/>
       <use x="63.623047" xlink:href="#DejaVuSans-48"/>
       <use x="127.246094" xlink:href="#DejaVuSans-48"/>
      </g>
     </g>
    </g>
    <g id="ytick_6">
     <g id="line2d_11">
      <path clip-path="url(#p5e14ce2f07)" d="M 80.113125 25.296 
L 437.233125 25.296 
" style="fill:none;stroke:#ffffff;stroke-linecap:round;"/>
     </g>
     <g id="text_12">
      <!-- 1000 -->
      <defs>
       <path d="M 12.40625 8.296875 
L 28.515625 8.296875 
L 28.515625 63.921875 
L 10.984375 60.40625 
L 10.984375 69.390625 
L 28.421875 72.90625 
L 38.28125 72.90625 
L 38.28125 8.296875 
L 54.390625 8.296875 
L 54.390625 0 
L 12.40625 0 
z
" id="DejaVuSans-49"/>
      </defs>
      <g style="fill:#262626;" transform="translate(28.620625 31.564711)scale(0.165 -0.165)">
       <use xlink:href="#DejaVuSans-49"/>
       <use x="63.623047" xlink:href="#DejaVuSans-48"/>
       <use x="127.246094" xlink:href="#DejaVuSans-48"/>
       <use x="190.869141" xlink:href="#DejaVuSans-48"/>
      </g>
     </g>
    </g>
    <g id="text_13">
     <!-- AverageReturn -->
     <defs>
      <path d="M 34.1875 63.1875 
L 20.796875 26.90625 
L 47.609375 26.90625 
z
M 28.609375 72.90625 
L 39.796875 72.90625 
L 67.578125 0 
L 57.328125 0 
L 50.6875 18.703125 
L 17.828125 18.703125 
L 11.1875 0 
L 0.78125 0 
z
" id="DejaVuSans-65"/>
      <path d="M 2.984375 54.6875 
L 12.5 54.6875 
L 29.59375 8.796875 
L 46.6875 54.6875 
L 56.203125 54.6875 
L 35.6875 0 
L 23.484375 0 
z
" id="DejaVuSans-118"/>
      <path d="M 45.40625 27.984375 
Q 45.40625 37.75 41.375 43.109375 
Q 37.359375 48.484375 30.078125 48.484375 
Q 22.859375 48.484375 18.828125 43.109375 
Q 14.796875 37.75 14.796875 27.984375 
Q 14.796875 18.265625 18.828125 12.890625 
Q 22.859375 7.515625 30.078125 7.515625 
Q 37.359375 7.515625 41.375 12.890625 
Q 45.40625 18.265625 45.40625 27.984375 
z
M 54.390625 6.78125 
Q 54.390625 -7.171875 48.1875 -13.984375 
Q 42 -20.796875 29.203125 -20.796875 
Q 24.46875 -20.796875 20.265625 -20.09375 
Q 16.0625 -19.390625 12.109375 -17.921875 
L 12.109375 -9.1875 
Q 16.0625 -11.328125 19.921875 -12.34375 
Q 23.78125 -13.375 27.78125 -13.375 
Q 36.625 -13.375 41.015625 -8.765625 
Q 45.40625 -4.15625 45.40625 5.171875 
L 45.40625 9.625 
Q 42.625 4.78125 38.28125 2.390625 
Q 33.9375 0 27.875 0 
Q 17.828125 0 11.671875 7.65625 
Q 5.515625 15.328125 5.515625 27.984375 
Q 5.515625 40.671875 11.671875 48.328125 
Q 17.828125 56 27.875 56 
Q 33.9375 56 38.28125 53.609375 
Q 42.625 51.21875 45.40625 46.390625 
L 45.40625 54.6875 
L 54.390625 54.6875 
z
" id="DejaVuSans-103"/>
      <path d="M 44.390625 34.1875 
Q 47.5625 33.109375 50.5625 29.59375 
Q 53.5625 26.078125 56.59375 19.921875 
L 66.609375 0 
L 56 0 
L 46.6875 18.703125 
Q 43.0625 26.03125 39.671875 28.421875 
Q 36.28125 30.8125 30.421875 30.8125 
L 19.671875 30.8125 
L 19.671875 0 
L 9.8125 0 
L 9.8125 72.90625 
L 32.078125 72.90625 
Q 44.578125 72.90625 50.734375 67.671875 
Q 56.890625 62.453125 56.890625 51.90625 
Q 56.890625 45.015625 53.6875 40.46875 
Q 50.484375 35.9375 44.390625 34.1875 
z
M 19.671875 64.796875 
L 19.671875 38.921875 
L 32.078125 38.921875 
Q 39.203125 38.921875 42.84375 42.21875 
Q 46.484375 45.515625 46.484375 51.90625 
Q 46.484375 58.296875 42.84375 61.546875 
Q 39.203125 64.796875 32.078125 64.796875 
z
" id="DejaVuSans-82"/>
      <path d="M 8.5 21.578125 
L 8.5 54.6875 
L 17.484375 54.6875 
L 17.484375 21.921875 
Q 17.484375 14.15625 20.5 10.265625 
Q 23.53125 6.390625 29.59375 6.390625 
Q 36.859375 6.390625 41.078125 11.03125 
Q 45.3125 15.671875 45.3125 23.6875 
L 45.3125 54.6875 
L 54.296875 54.6875 
L 54.296875 0 
L 45.3125 0 
L 45.3125 8.40625 
Q 42.046875 3.421875 37.71875 1 
Q 33.40625 -1.421875 27.6875 -1.421875 
Q 18.265625 -1.421875 13.375 4.4375 
Q 8.5 10.296875 8.5 21.578125 
z
M 31.109375 56 
z
" id="DejaVuSans-117"/>
     </defs>
     <g style="fill:#262626;" transform="translate(20.877187 214.156781)rotate(-90)scale(0.18 -0.18)">
      <use xlink:href="#DejaVuSans-65"/>
      <use x="68.330078" xlink:href="#DejaVuSans-118"/>
      <use x="127.509766" xlink:href="#DejaVuSans-101"/>
      <use x="189.033203" xlink:href="#DejaVuSans-114"/>
      <use x="230.146484" xlink:href="#DejaVuSans-97"/>
      <use x="291.425781" xlink:href="#DejaVuSans-103"/>
      <use x="354.902344" xlink:href="#DejaVuSans-101"/>
      <use x="416.425781" xlink:href="#DejaVuSans-82"/>
      <use x="485.845703" xlink:href="#DejaVuSans-101"/>
      <use x="547.369141" xlink:href="#DejaVuSans-116"/>
      <use x="586.578125" xlink:href="#DejaVuSans-117"/>
      <use x="649.957031" xlink:href="#DejaVuSans-114"/>
      <use x="691.054688" xlink:href="#DejaVuSans-110"/>
     </g>
    </g>
   </g>
   <g id="PolyCollection_1">
    <defs>
     <path d="M 80.113125 -67.783012 
L 80.113125 -66.185531 
L 83.720398 -68.96171 
L 87.32767 -74.718372 
L 90.934943 -74.265154 
L 94.542216 -71.985343 
L 98.149489 -73.876875 
L 101.756761 -75.129216 
L 105.364034 -79.16677 
L 108.971307 -84.291799 
L 112.57858 -87.958208 
L 116.185852 -93.172584 
L 119.793125 -89.744834 
L 123.400398 -88.161339 
L 127.00767 -83.043042 
L 130.614943 -82.179783 
L 134.222216 -83.563839 
L 137.829489 -84.894475 
L 141.436761 -87.003025 
L 145.044034 -97.678066 
L 148.651307 -129.837106 
L 152.25858 -145.324631 
L 155.865852 -141.566267 
L 159.473125 -141.988415 
L 163.080398 -150.144655 
L 166.68767 -157.270533 
L 170.294943 -152.520588 
L 173.902216 -112.023286 
L 177.509489 -107.093196 
L 181.116761 -98.125661 
L 184.724034 -129.00111 
L 188.331307 -181.250463 
L 191.93858 -272.19378 
L 195.545852 -165.860673 
L 199.153125 -155.375948 
L 202.760398 -153.208619 
L 206.36767 -151.4206 
L 209.974943 -150.622341 
L 213.582216 -149.237707 
L 217.189489 -135.354661 
L 220.796761 -147.651403 
L 224.404034 -147.965583 
L 228.011307 -148.087444 
L 231.61858 -148.818696 
L 235.225852 -149.894536 
L 238.833125 -153.617274 
L 242.440398 -175.739893 
L 246.04767 -294.448186 
L 249.654943 -144.626505 
L 253.262216 -117.971726 
L 256.869489 -95.668238 
L 260.476761 -97.897504 
L 264.084034 -117.940261 
L 267.691307 -145.725615 
L 271.29858 -145.844448 
L 274.905852 -146.791095 
L 278.513125 -145.509688 
L 282.120398 -145.3601 
L 285.72767 -145.360885 
L 289.334943 -145.403716 
L 292.942216 -145.518829 
L 296.549489 -145.58182 
L 300.156761 -145.817894 
L 303.764034 -146.527482 
L 307.371307 -146.923041 
L 310.97858 -146.260572 
L 314.585852 -146.471602 
L 318.193125 -146.923451 
L 321.800398 -147.331608 
L 325.40767 -146.210698 
L 329.014943 -145.885396 
L 332.622216 -145.778712 
L 336.229489 -145.80044 
L 339.836761 -147.547141 
L 343.444034 -146.92076 
L 347.051307 -146.857715 
L 350.65858 -147.284155 
L 354.265852 -145.89072 
L 357.873125 -145.858996 
L 361.480398 -147.483624 
L 365.08767 -146.871528 
L 368.694943 -146.695397 
L 372.302216 -146.734085 
L 375.909489 -147.220321 
L 379.516761 -138.751141 
L 383.124034 -75.541344 
L 386.731307 -74.903906 
L 390.33858 -143.860409 
L 393.945852 -148.036933 
L 397.553125 -147.430377 
L 401.160398 -147.183335 
L 404.76767 -149.394888 
L 408.374943 -149.589965 
L 411.982216 -148.49253 
L 415.589489 -148.465051 
L 419.196761 -148.92047 
L 422.804034 -152.051227 
L 426.411307 -160.606801 
L 430.01858 -162.985859 
L 433.625852 -167.668818 
L 437.233125 -182.40698 
L 437.233125 -308.105531 
L 437.233125 -308.105531 
L 433.625852 -308.105531 
L 430.01858 -308.105531 
L 426.411307 -308.105531 
L 422.804034 -308.105531 
L 419.196761 -308.105531 
L 415.589489 -308.105531 
L 411.982216 -308.105531 
L 408.374943 -308.105531 
L 404.76767 -308.105531 
L 401.160398 -308.105531 
L 397.553125 -308.105531 
L 393.945852 -308.105531 
L 390.33858 -227.243935 
L 386.731307 -227.008538 
L 383.124034 -227.338777 
L 379.516761 -227.904784 
L 375.909489 -308.105531 
L 372.302216 -308.105531 
L 368.694943 -305.956262 
L 365.08767 -268.042936 
L 361.480398 -240.542467 
L 357.873125 -267.903027 
L 354.265852 -308.105531 
L 350.65858 -308.105531 
L 347.051307 -308.105531 
L 343.444034 -287.673916 
L 339.836761 -308.105531 
L 336.229489 -289.632738 
L 332.622216 -288.109215 
L 329.014943 -308.105531 
L 325.40767 -308.105531 
L 321.800398 -251.075221 
L 318.193125 -282.640835 
L 314.585852 -281.035694 
L 310.97858 -281.008482 
L 307.371307 -281.008482 
L 303.764034 -308.105531 
L 300.156761 -281.008482 
L 296.549489 -282.36877 
L 292.942216 -308.105531 
L 289.334943 -280.981271 
L 285.72767 -308.105531 
L 282.120398 -308.105531 
L 278.513125 -308.105531 
L 274.905852 -308.105531 
L 271.29858 -308.105531 
L 267.691307 -263.169205 
L 264.084034 -226.920185 
L 260.476761 -226.960069 
L 256.869489 -227.465576 
L 253.262216 -228.175914 
L 249.654943 -231.808959 
L 246.04767 -303.398913 
L 242.440398 -308.105531 
L 238.833125 -308.105531 
L 235.225852 -283.56584 
L 231.61858 -280.005745 
L 228.011307 -288.544514 
L 224.404034 -308.105531 
L 220.796761 -308.105531 
L 217.189489 -228.017862 
L 213.582216 -291.537155 
L 209.974943 -308.105531 
L 206.36767 -308.105531 
L 202.760398 -308.105531 
L 199.153125 -308.105531 
L 195.545852 -308.105531 
L 191.93858 -308.105531 
L 188.331307 -297.821711 
L 184.724034 -166.559721 
L 181.116761 -107.015179 
L 177.509489 -133.510721 
L 173.902216 -123.255591 
L 170.294943 -208.332075 
L 166.68767 -236.604605 
L 163.080398 -254.931653 
L 159.473125 -252.197463 
L 155.865852 -227.752987 
L 152.25858 -265.487529 
L 148.651307 -223.981092 
L 145.044034 -229.179161 
L 141.436761 -229.151616 
L 137.829489 -144.280781 
L 134.222216 -117.126483 
L 130.614943 -106.62055 
L 127.00767 -100.196324 
L 123.400398 -97.942758 
L 119.793125 -97.075367 
L 116.185852 -96.534064 
L 112.57858 -91.348059 
L 108.971307 -85.937899 
L 105.364034 -85.795253 
L 101.756761 -79.522304 
L 98.149489 -75.792815 
L 94.542216 -75.511822 
L 90.934943 -84.471817 
L 87.32767 -77.467939 
L 83.720398 -69.849927 
L 80.113125 -67.783012 
z
" id="me69241648d" style="stroke:#ffffff;stroke-opacity:0.2;"/>
    </defs>
    <g clip-path="url(#p5e14ce2f07)">
     <use style="fill:#4c72b0;fill-opacity:0.2;stroke:#ffffff;stroke-opacity:0.2;" x="0" xlink:href="#me69241648d" y="333.401531"/>
    </g>
   </g>
   <g id="line2d_12">
    <path clip-path="url(#p5e14ce2f07)" d="M 80.113125 266.41726 
L 83.720398 263.995713 
L 87.32767 257.308376 
L 90.934943 254.033045 
L 94.542216 259.652949 
L 98.149489 258.566687 
L 101.756761 256.075771 
L 105.364034 250.92052 
L 108.971307 248.286682 
L 112.57858 243.748398 
L 116.185852 238.548207 
L 119.793125 239.991431 
L 123.400398 240.349483 
L 127.00767 241.781848 
L 130.614943 239.001365 
L 134.222216 233.05637 
L 137.829489 218.813903 
L 141.436761 175.324211 
L 145.044034 169.972918 
L 148.651307 156.492432 
L 152.25858 127.995451 
L 155.865852 148.741905 
L 159.473125 136.308592 
L 163.080398 130.863377 
L 166.68767 136.463962 
L 170.294943 152.9752 
L 173.902216 215.762093 
L 177.509489 213.099573 
L 181.116761 230.831111 
L 184.724034 185.621116 
L 188.331307 93.865444 
L 191.93858 43.251876 
L 195.545852 96.418429 
L 199.153125 101.660792 
L 202.760398 102.744456 
L 206.36767 103.638466 
L 209.974943 104.037595 
L 213.582216 113.0141 
L 217.189489 151.71527 
L 220.796761 105.523064 
L 224.404034 105.365974 
L 228.011307 115.085552 
L 231.61858 118.989311 
L 235.225852 116.671343 
L 238.833125 102.540129 
L 242.440398 91.478819 
L 246.04767 34.477982 
L 249.654943 145.183799 
L 253.262216 160.327711 
L 256.869489 171.834624 
L 260.476761 170.972745 
L 264.084034 160.971308 
L 267.691307 128.954121 
L 271.29858 106.426541 
L 274.905852 105.953218 
L 278.513125 106.593922 
L 282.120398 106.668716 
L 285.72767 106.668323 
L 289.334943 120.209038 
L 292.942216 106.589351 
L 296.549489 119.426236 
L 300.156761 119.988343 
L 303.764034 106.085025 
L 307.371307 119.43577 
L 310.97858 119.767004 
L 314.585852 119.647884 
L 318.193125 118.619389 
L 321.800398 134.198117 
L 325.40767 106.243416 
L 329.014943 106.406067 
L 332.622216 116.457568 
L 336.229489 115.684942 
L 339.836761 105.575195 
L 343.444034 116.104194 
L 347.051307 105.919908 
L 350.65858 105.706688 
L 354.265852 106.403405 
L 357.873125 126.52052 
L 361.480398 139.388485 
L 365.08767 125.944299 
L 368.694943 107.075702 
L 372.302216 105.981723 
L 375.909489 105.738605 
L 379.516761 150.073569 
L 383.124034 181.961471 
L 386.731307 182.445309 
L 390.33858 147.849359 
L 393.945852 105.330299 
L 397.553125 105.633577 
L 401.160398 105.757098 
L 404.76767 104.651322 
L 408.374943 104.553783 
L 411.982216 105.102501 
L 415.589489 105.11624 
L 419.196761 104.888531 
L 422.804034 103.323152 
L 426.411307 99.045365 
L 430.01858 97.855836 
L 433.625852 95.514357 
L 437.233125 88.145276 
" style="fill:none;stroke:#4c72b0;stroke-linecap:round;stroke-width:1.5;"/>
   </g>
   <g id="patch_3">
    <path d="M 80.113125 279.312 
L 80.113125 13.2 
" style="fill:none;stroke:#ffffff;stroke-linecap:square;stroke-linejoin:miter;stroke-width:1.25;"/>
   </g>
   <g id="patch_4">
    <path d="M 437.233125 279.312 
L 437.233125 13.2 
" style="fill:none;stroke:#ffffff;stroke-linecap:square;stroke-linejoin:miter;stroke-width:1.25;"/>
   </g>
   <g id="patch_5">
    <path d="M 80.113125 279.312 
L 437.233125 279.312 
" style="fill:none;stroke:#ffffff;stroke-linecap:square;stroke-linejoin:miter;stroke-width:1.25;"/>
   </g>
   <g id="patch_6">
    <path d="M 80.113125 13.2 
L 437.233125 13.2 
" style="fill:none;stroke:#ffffff;stroke-linecap:square;stroke-linejoin:miter;stroke-width:1.25;"/>
   </g>
   <g id="legend_1">
    <g id="patch_7">
     <path d="M 350.129632 274.101 
L 429.937725 274.101 
Q 432.022125 274.101 432.022125 272.0166 
L 432.022125 257.471396 
Q 432.022125 255.386996 429.937725 255.386996 
L 350.129632 255.386996 
Q 348.045232 255.386996 348.045232 257.471396 
L 348.045232 272.0166 
Q 348.045232 274.101 350.129632 274.101 
z
" style="fill:#eaeaf2;opacity:0.8;stroke:#cccccc;stroke-linejoin:miter;"/>
    </g>
    <g id="line2d_13">
     <path d="M 352.214032 263.827188 
L 373.058032 263.827188 
" style="fill:none;stroke:#4c72b0;stroke-linecap:round;stroke-width:1.5;"/>
    </g>
    <g id="line2d_14"/>
    <g id="text_14">
     <!-- ip_10_10 -->
     <defs>
      <path d="M 18.109375 8.203125 
L 18.109375 -20.796875 
L 9.078125 -20.796875 
L 9.078125 54.6875 
L 18.109375 54.6875 
L 18.109375 46.390625 
Q 20.953125 51.265625 25.265625 53.625 
Q 29.59375 56 35.59375 56 
Q 45.5625 56 51.78125 48.09375 
Q 58.015625 40.1875 58.015625 27.296875 
Q 58.015625 14.40625 51.78125 6.484375 
Q 45.5625 -1.421875 35.59375 -1.421875 
Q 29.59375 -1.421875 25.265625 0.953125 
Q 20.953125 3.328125 18.109375 8.203125 
z
M 48.6875 27.296875 
Q 48.6875 37.203125 44.609375 42.84375 
Q 40.53125 48.484375 33.40625 48.484375 
Q 26.265625 48.484375 22.1875 42.84375 
Q 18.109375 37.203125 18.109375 27.296875 
Q 18.109375 17.390625 22.1875 11.75 
Q 26.265625 6.109375 33.40625 6.109375 
Q 40.53125 6.109375 44.609375 11.75 
Q 48.6875 17.390625 48.6875 27.296875 
z
" id="DejaVuSans-112"/>
      <path d="M 50.984375 -16.609375 
L 50.984375 -23.578125 
L -0.984375 -23.578125 
L -0.984375 -16.609375 
z
" id="DejaVuSans-95"/>
     </defs>
     <g style="fill:#262626;" transform="translate(381.395632 267.474888)scale(0.10422 -0.10422)">
      <use xlink:href="#DejaVuSans-105"/>
      <use x="27.783203" xlink:href="#DejaVuSans-112"/>
      <use x="91.259766" xlink:href="#DejaVuSans-95"/>
      <use x="141.259766" xlink:href="#DejaVuSans-49"/>
      <use x="204.882812" xlink:href="#DejaVuSans-48"/>
      <use x="268.505859" xlink:href="#DejaVuSans-95"/>
      <use x="318.505859" xlink:href="#DejaVuSans-49"/>
      <use x="382.128906" xlink:href="#DejaVuSans-48"/>
     </g>
    </g>
   </g>
  </g>
 </g>
 <defs>
  <clipPath id="p5e14ce2f07">
   <rect height="266.112" width="357.12" x="80.113125" y="13.2"/>
  </clipPath>
 </defs>
</svg>
