<?xml version="1.0" encoding="utf-8" standalone="no"?>
<!DOCTYPE svg PUBLIC "-//W3C//DTD SVG 1.1//EN"
  "http://www.w3.org/Graphics/SVG/1.1/DTD/svg11.dtd">
<!-- Created with matplotlib (https://matplotlib.org/) -->
<svg height="277.919688pt" version="1.1" viewBox="0 0 296.70875 277.919688" width="296.70875pt" xmlns="http://www.w3.org/2000/svg" xmlns:xlink="http://www.w3.org/1999/xlink">
 <defs>
  <style type="text/css">
*{stroke-linecap:butt;stroke-linejoin:round;}
  </style>
 </defs>
 <g id="figure_1">
  <g id="patch_1">
   <path d="M 0 277.919688 
L 296.70875 277.919688 
L 296.70875 0 
L 0 0 
z
" style="fill:#ffffff;"/>
  </g>
  <g id="axes_1">
   <g id="patch_2">
    <path d="M 60.30875 234.96 
L 283.50875 234.96 
L 283.50875 13.2 
L 60.30875 13.2 
z
" style="fill:#eaeaf2;"/>
   </g>
   <g id="matplotlib.axis_1">
    <g id="xtick_1">
     <g id="line2d_1">
      <path clip-path="url(#p938a751113)" d="M 60.30875 234.96 
L 60.30875 13.2 
" style="fill:none;stroke:#ffffff;stroke-linecap:round;"/>
     </g>
     <g id="text_1">
      <!-- 0 -->
      <defs>
       <path d="M 31.78125 66.40625 
Q 24.171875 66.40625 20.328125 58.90625 
Q 16.5 51.421875 16.5 36.375 
Q 16.5 21.390625 20.328125 13.890625 
Q 24.171875 6.390625 31.78125 6.390625 
Q 39.453125 6.390625 43.28125 13.890625 
Q 47.125 21.390625 47.125 36.375 
Q 47.125 51.421875 43.28125 58.90625 
Q 39.453125 66.40625 31.78125 66.40625 
z
M 31.78125 74.21875 
Q 44.046875 74.21875 50.515625 64.515625 
Q 56.984375 54.828125 56.984375 36.375 
Q 56.984375 17.96875 50.515625 8.265625 
Q 44.046875 -1.421875 31.78125 -1.421875 
Q 19.53125 -1.421875 13.0625 8.265625 
Q 6.59375 17.96875 6.59375 36.375 
Q 6.59375 54.828125 13.0625 64.515625 
Q 19.53125 74.21875 31.78125 74.21875 
z
" id="DejaVuSans-48"/>
      </defs>
      <g style="fill:#262626;" transform="translate(56.809375 252.818281)scale(0.11 -0.11)">
       <use xlink:href="#DejaVuSans-48"/>
      </g>
     </g>
    </g>
    <g id="xtick_2">
     <g id="line2d_2">
      <path clip-path="url(#p938a751113)" d="M 105.399659 234.96 
L 105.399659 13.2 
" style="fill:none;stroke:#ffffff;stroke-linecap:round;"/>
     </g>
     <g id="text_2">
      <!-- 20 -->
      <defs>
       <path d="M 19.1875 8.296875 
L 53.609375 8.296875 
L 53.609375 0 
L 7.328125 0 
L 7.328125 8.296875 
Q 12.9375 14.109375 22.625 23.890625 
Q 32.328125 33.6875 34.8125 36.53125 
Q 39.546875 41.84375 41.421875 45.53125 
Q 43.3125 49.21875 43.3125 52.78125 
Q 43.3125 58.59375 39.234375 62.25 
Q 35.15625 65.921875 28.609375 65.921875 
Q 23.96875 65.921875 18.8125 64.3125 
Q 13.671875 62.703125 7.8125 59.421875 
L 7.8125 69.390625 
Q 13.765625 71.78125 18.9375 73 
Q 24.125 74.21875 28.421875 74.21875 
Q 39.75 74.21875 46.484375 68.546875 
Q 53.21875 62.890625 53.21875 53.421875 
Q 53.21875 48.921875 51.53125 44.890625 
Q 49.859375 40.875 45.40625 35.40625 
Q 44.1875 33.984375 37.640625 27.21875 
Q 31.109375 20.453125 19.1875 8.296875 
z
" id="DejaVuSans-50"/>
      </defs>
      <g style="fill:#262626;" transform="translate(98.400909 252.818281)scale(0.11 -0.11)">
       <use xlink:href="#DejaVuSans-50"/>
       <use x="63.623047" xlink:href="#DejaVuSans-48"/>
      </g>
     </g>
    </g>
    <g id="xtick_3">
     <g id="line2d_3">
      <path clip-path="url(#p938a751113)" d="M 150.490568 234.96 
L 150.490568 13.2 
" style="fill:none;stroke:#ffffff;stroke-linecap:round;"/>
     </g>
     <g id="text_3">
      <!-- 40 -->
      <defs>
       <path d="M 37.796875 64.3125 
L 12.890625 25.390625 
L 37.796875 25.390625 
z
M 35.203125 72.90625 
L 47.609375 72.90625 
L 47.609375 25.390625 
L 58.015625 25.390625 
L 58.015625 17.1875 
L 47.609375 17.1875 
L 47.609375 0 
L 37.796875 0 
L 37.796875 17.1875 
L 4.890625 17.1875 
L 4.890625 26.703125 
z
" id="DejaVuSans-52"/>
      </defs>
      <g style="fill:#262626;" transform="translate(143.491818 252.818281)scale(0.11 -0.11)">
       <use xlink:href="#DejaVuSans-52"/>
       <use x="63.623047" xlink:href="#DejaVuSans-48"/>
      </g>
     </g>
    </g>
    <g id="xtick_4">
     <g id="line2d_4">
      <path clip-path="url(#p938a751113)" d="M 195.581477 234.96 
L 195.581477 13.2 
" style="fill:none;stroke:#ffffff;stroke-linecap:round;"/>
     </g>
     <g id="text_4">
      <!-- 60 -->
      <defs>
       <path d="M 33.015625 40.375 
Q 26.375 40.375 22.484375 35.828125 
Q 18.609375 31.296875 18.609375 23.390625 
Q 18.609375 15.53125 22.484375 10.953125 
Q 26.375 6.390625 33.015625 6.390625 
Q 39.65625 6.390625 43.53125 10.953125 
Q 47.40625 15.53125 47.40625 23.390625 
Q 47.40625 31.296875 43.53125 35.828125 
Q 39.65625 40.375 33.015625 40.375 
z
M 52.59375 71.296875 
L 52.59375 62.3125 
Q 48.875 64.0625 45.09375 64.984375 
Q 41.3125 65.921875 37.59375 65.921875 
Q 27.828125 65.921875 22.671875 59.328125 
Q 17.53125 52.734375 16.796875 39.40625 
Q 19.671875 43.65625 24.015625 45.921875 
Q 28.375 48.1875 33.59375 48.1875 
Q 44.578125 48.1875 50.953125 41.515625 
Q 57.328125 34.859375 57.328125 23.390625 
Q 57.328125 12.15625 50.6875 5.359375 
Q 44.046875 -1.421875 33.015625 -1.421875 
Q 20.359375 -1.421875 13.671875 8.265625 
Q 6.984375 17.96875 6.984375 36.375 
Q 6.984375 53.65625 15.1875 63.9375 
Q 23.390625 74.21875 37.203125 74.21875 
Q 40.921875 74.21875 44.703125 73.484375 
Q 48.484375 72.75 52.59375 71.296875 
z
" id="DejaVuSans-54"/>
      </defs>
      <g style="fill:#262626;" transform="translate(188.582727 252.818281)scale(0.11 -0.11)">
       <use xlink:href="#DejaVuSans-54"/>
       <use x="63.623047" xlink:href="#DejaVuSans-48"/>
      </g>
     </g>
    </g>
    <g id="xtick_5">
     <g id="line2d_5">
      <path clip-path="url(#p938a751113)" d="M 240.672386 234.96 
L 240.672386 13.2 
" style="fill:none;stroke:#ffffff;stroke-linecap:round;"/>
     </g>
     <g id="text_5">
      <!-- 80 -->
      <defs>
       <path d="M 31.78125 34.625 
Q 24.75 34.625 20.71875 30.859375 
Q 16.703125 27.09375 16.703125 20.515625 
Q 16.703125 13.921875 20.71875 10.15625 
Q 24.75 6.390625 31.78125 6.390625 
Q 38.8125 6.390625 42.859375 10.171875 
Q 46.921875 13.96875 46.921875 20.515625 
Q 46.921875 27.09375 42.890625 30.859375 
Q 38.875 34.625 31.78125 34.625 
z
M 21.921875 38.8125 
Q 15.578125 40.375 12.03125 44.71875 
Q 8.5 49.078125 8.5 55.328125 
Q 8.5 64.0625 14.71875 69.140625 
Q 20.953125 74.21875 31.78125 74.21875 
Q 42.671875 74.21875 48.875 69.140625 
Q 55.078125 64.0625 55.078125 55.328125 
Q 55.078125 49.078125 51.53125 44.71875 
Q 48 40.375 41.703125 38.8125 
Q 48.828125 37.15625 52.796875 32.3125 
Q 56.78125 27.484375 56.78125 20.515625 
Q 56.78125 9.90625 50.3125 4.234375 
Q 43.84375 -1.421875 31.78125 -1.421875 
Q 19.734375 -1.421875 13.25 4.234375 
Q 6.78125 9.90625 6.78125 20.515625 
Q 6.78125 27.484375 10.78125 32.3125 
Q 14.796875 37.15625 21.921875 38.8125 
z
M 18.3125 54.390625 
Q 18.3125 48.734375 21.84375 45.5625 
Q 25.390625 42.390625 31.78125 42.390625 
Q 38.140625 42.390625 41.71875 45.5625 
Q 45.3125 48.734375 45.3125 54.390625 
Q 45.3125 60.0625 41.71875 63.234375 
Q 38.140625 66.40625 31.78125 66.40625 
Q 25.390625 66.40625 21.84375 63.234375 
Q 18.3125 60.0625 18.3125 54.390625 
z
" id="DejaVuSans-56"/>
      </defs>
      <g style="fill:#262626;" transform="translate(233.673636 252.818281)scale(0.11 -0.11)">
       <use xlink:href="#DejaVuSans-56"/>
       <use x="63.623047" xlink:href="#DejaVuSans-48"/>
      </g>
     </g>
    </g>
    <g id="text_6">
     <!-- Iteration -->
     <defs>
      <path d="M 9.8125 72.90625 
L 19.671875 72.90625 
L 19.671875 0 
L 9.8125 0 
z
" id="DejaVuSans-73"/>
      <path d="M 18.3125 70.21875 
L 18.3125 54.6875 
L 36.8125 54.6875 
L 36.8125 47.703125 
L 18.3125 47.703125 
L 18.3125 18.015625 
Q 18.3125 11.328125 20.140625 9.421875 
Q 21.96875 7.515625 27.59375 7.515625 
L 36.8125 7.515625 
L 36.8125 0 
L 27.59375 0 
Q 17.1875 0 13.234375 3.875 
Q 9.28125 7.765625 9.28125 18.015625 
L 9.28125 47.703125 
L 2.6875 47.703125 
L 2.6875 54.6875 
L 9.28125 54.6875 
L 9.28125 70.21875 
z
" id="DejaVuSans-116"/>
      <path d="M 56.203125 29.59375 
L 56.203125 25.203125 
L 14.890625 25.203125 
Q 15.484375 15.921875 20.484375 11.0625 
Q 25.484375 6.203125 34.421875 6.203125 
Q 39.59375 6.203125 44.453125 7.46875 
Q 49.3125 8.734375 54.109375 11.28125 
L 54.109375 2.78125 
Q 49.265625 0.734375 44.1875 -0.34375 
Q 39.109375 -1.421875 33.890625 -1.421875 
Q 20.796875 -1.421875 13.15625 6.1875 
Q 5.515625 13.8125 5.515625 26.8125 
Q 5.515625 40.234375 12.765625 48.109375 
Q 20.015625 56 32.328125 56 
Q 43.359375 56 49.78125 48.890625 
Q 56.203125 41.796875 56.203125 29.59375 
z
M 47.21875 32.234375 
Q 47.125 39.59375 43.09375 43.984375 
Q 39.0625 48.390625 32.421875 48.390625 
Q 24.90625 48.390625 20.390625 44.140625 
Q 15.875 39.890625 15.1875 32.171875 
z
" id="DejaVuSans-101"/>
      <path d="M 41.109375 46.296875 
Q 39.59375 47.171875 37.8125 47.578125 
Q 36.03125 48 33.890625 48 
Q 26.265625 48 22.1875 43.046875 
Q 18.109375 38.09375 18.109375 28.8125 
L 18.109375 0 
L 9.078125 0 
L 9.078125 54.6875 
L 18.109375 54.6875 
L 18.109375 46.1875 
Q 20.953125 51.171875 25.484375 53.578125 
Q 30.03125 56 36.53125 56 
Q 37.453125 56 38.578125 55.875 
Q 39.703125 55.765625 41.0625 55.515625 
z
" id="DejaVuSans-114"/>
      <path d="M 34.28125 27.484375 
Q 23.390625 27.484375 19.1875 25 
Q 14.984375 22.515625 14.984375 16.5 
Q 14.984375 11.71875 18.140625 8.90625 
Q 21.296875 6.109375 26.703125 6.109375 
Q 34.1875 6.109375 38.703125 11.40625 
Q 43.21875 16.703125 43.21875 25.484375 
L 43.21875 27.484375 
z
M 52.203125 31.203125 
L 52.203125 0 
L 43.21875 0 
L 43.21875 8.296875 
Q 40.140625 3.328125 35.546875 0.953125 
Q 30.953125 -1.421875 24.3125 -1.421875 
Q 15.921875 -1.421875 10.953125 3.296875 
Q 6 8.015625 6 15.921875 
Q 6 25.140625 12.171875 29.828125 
Q 18.359375 34.515625 30.609375 34.515625 
L 43.21875 34.515625 
L 43.21875 35.40625 
Q 43.21875 41.609375 39.140625 45 
Q 35.0625 48.390625 27.6875 48.390625 
Q 23 48.390625 18.546875 47.265625 
Q 14.109375 46.140625 10.015625 43.890625 
L 10.015625 52.203125 
Q 14.9375 54.109375 19.578125 55.046875 
Q 24.21875 56 28.609375 56 
Q 40.484375 56 46.34375 49.84375 
Q 52.203125 43.703125 52.203125 31.203125 
z
" id="DejaVuSans-97"/>
      <path d="M 9.421875 54.6875 
L 18.40625 54.6875 
L 18.40625 0 
L 9.421875 0 
z
M 9.421875 75.984375 
L 18.40625 75.984375 
L 18.40625 64.59375 
L 9.421875 64.59375 
z
" id="DejaVuSans-105"/>
      <path d="M 30.609375 48.390625 
Q 23.390625 48.390625 19.1875 42.75 
Q 14.984375 37.109375 14.984375 27.296875 
Q 14.984375 17.484375 19.15625 11.84375 
Q 23.34375 6.203125 30.609375 6.203125 
Q 37.796875 6.203125 41.984375 11.859375 
Q 46.1875 17.53125 46.1875 27.296875 
Q 46.1875 37.015625 41.984375 42.703125 
Q 37.796875 48.390625 30.609375 48.390625 
z
M 30.609375 56 
Q 42.328125 56 49.015625 48.375 
Q 55.71875 40.765625 55.71875 27.296875 
Q 55.71875 13.875 49.015625 6.21875 
Q 42.328125 -1.421875 30.609375 -1.421875 
Q 18.84375 -1.421875 12.171875 6.21875 
Q 5.515625 13.875 5.515625 27.296875 
Q 5.515625 40.765625 12.171875 48.375 
Q 18.84375 56 30.609375 56 
z
" id="DejaVuSans-111"/>
      <path d="M 54.890625 33.015625 
L 54.890625 0 
L 45.90625 0 
L 45.90625 32.71875 
Q 45.90625 40.484375 42.875 44.328125 
Q 39.84375 48.1875 33.796875 48.1875 
Q 26.515625 48.1875 22.3125 43.546875 
Q 18.109375 38.921875 18.109375 30.90625 
L 18.109375 0 
L 9.078125 0 
L 9.078125 54.6875 
L 18.109375 54.6875 
L 18.109375 46.1875 
Q 21.34375 51.125 25.703125 53.5625 
Q 30.078125 56 35.796875 56 
Q 45.21875 56 50.046875 50.171875 
Q 54.890625 44.34375 54.890625 33.015625 
z
" id="DejaVuSans-110"/>
     </defs>
     <g style="fill:#262626;" transform="translate(146.458438 268.224063)scale(0.12 -0.12)">
      <use xlink:href="#DejaVuSans-73"/>
      <use x="29.492188" xlink:href="#DejaVuSans-116"/>
      <use x="68.701172" xlink:href="#DejaVuSans-101"/>
      <use x="130.224609" xlink:href="#DejaVuSans-114"/>
      <use x="171.337891" xlink:href="#DejaVuSans-97"/>
      <use x="232.617188" xlink:href="#DejaVuSans-116"/>
      <use x="271.826172" xlink:href="#DejaVuSans-105"/>
      <use x="299.609375" xlink:href="#DejaVuSans-111"/>
      <use x="360.791016" xlink:href="#DejaVuSans-110"/>
     </g>
    </g>
   </g>
   <g id="matplotlib.axis_2">
    <g id="ytick_1">
     <g id="line2d_6">
      <path clip-path="url(#p938a751113)" d="M 60.30875 227.324044 
L 283.50875 227.324044 
" style="fill:none;stroke:#ffffff;stroke-linecap:round;"/>
     </g>
     <g id="text_7">
      <!-- 0 -->
      <g style="fill:#262626;" transform="translate(43.81 231.503184)scale(0.11 -0.11)">
       <use xlink:href="#DejaVuSans-48"/>
      </g>
     </g>
    </g>
    <g id="ytick_2">
     <g id="line2d_7">
      <path clip-path="url(#p938a751113)" d="M 60.30875 186.515235 
L 283.50875 186.515235 
" style="fill:none;stroke:#ffffff;stroke-linecap:round;"/>
     </g>
     <g id="text_8">
      <!-- 200 -->
      <g style="fill:#262626;" transform="translate(29.8125 190.694376)scale(0.11 -0.11)">
       <use xlink:href="#DejaVuSans-50"/>
       <use x="63.623047" xlink:href="#DejaVuSans-48"/>
       <use x="127.246094" xlink:href="#DejaVuSans-48"/>
      </g>
     </g>
    </g>
    <g id="ytick_3">
     <g id="line2d_8">
      <path clip-path="url(#p938a751113)" d="M 60.30875 145.706426 
L 283.50875 145.706426 
" style="fill:none;stroke:#ffffff;stroke-linecap:round;"/>
     </g>
     <g id="text_9">
      <!-- 400 -->
      <g style="fill:#262626;" transform="translate(29.8125 149.885567)scale(0.11 -0.11)">
       <use xlink:href="#DejaVuSans-52"/>
       <use x="63.623047" xlink:href="#DejaVuSans-48"/>
       <use x="127.246094" xlink:href="#DejaVuSans-48"/>
      </g>
     </g>
    </g>
    <g id="ytick_4">
     <g id="line2d_9">
      <path clip-path="url(#p938a751113)" d="M 60.30875 104.897618 
L 283.50875 104.897618 
" style="fill:none;stroke:#ffffff;stroke-linecap:round;"/>
     </g>
     <g id="text_10">
      <!-- 600 -->
      <g style="fill:#262626;" transform="translate(29.8125 109.076758)scale(0.11 -0.11)">
       <use xlink:href="#DejaVuSans-54"/>
       <use x="63.623047" xlink:href="#DejaVuSans-48"/>
       <use x="127.246094" xlink:href="#DejaVuSans-48"/>
      </g>
     </g>
    </g>
    <g id="ytick_5">
     <g id="line2d_10">
      <path clip-path="url(#p938a751113)" d="M 60.30875 64.088809 
L 283.50875 64.088809 
" style="fill:none;stroke:#ffffff;stroke-linecap:round;"/>
     </g>
     <g id="text_11">
      <!-- 800 -->
      <g style="fill:#262626;" transform="translate(29.8125 68.267949)scale(0.11 -0.11)">
       <use xlink:href="#DejaVuSans-56"/>
       <use x="63.623047" xlink:href="#DejaVuSans-48"/>
       <use x="127.246094" xlink:href="#DejaVuSans-48"/>
      </g>
     </g>
    </g>
    <g id="ytick_6">
     <g id="line2d_11">
      <path clip-path="url(#p938a751113)" d="M 60.30875 23.28 
L 283.50875 23.28 
" style="fill:none;stroke:#ffffff;stroke-linecap:round;"/>
     </g>
     <g id="text_12">
      <!-- 1000 -->
      <defs>
       <path d="M 12.40625 8.296875 
L 28.515625 8.296875 
L 28.515625 63.921875 
L 10.984375 60.40625 
L 10.984375 69.390625 
L 28.421875 72.90625 
L 38.28125 72.90625 
L 38.28125 8.296875 
L 54.390625 8.296875 
L 54.390625 0 
L 12.40625 0 
z
" id="DejaVuSans-49"/>
      </defs>
      <g style="fill:#262626;" transform="translate(22.81375 27.459141)scale(0.11 -0.11)">
       <use xlink:href="#DejaVuSans-49"/>
       <use x="63.623047" xlink:href="#DejaVuSans-48"/>
       <use x="127.246094" xlink:href="#DejaVuSans-48"/>
       <use x="190.869141" xlink:href="#DejaVuSans-48"/>
      </g>
     </g>
    </g>
    <g id="text_13">
     <!-- AverageReturn -->
     <defs>
      <path d="M 34.1875 63.1875 
L 20.796875 26.90625 
L 47.609375 26.90625 
z
M 28.609375 72.90625 
L 39.796875 72.90625 
L 67.578125 0 
L 57.328125 0 
L 50.6875 18.703125 
L 17.828125 18.703125 
L 11.1875 0 
L 0.78125 0 
z
" id="DejaVuSans-65"/>
      <path d="M 2.984375 54.6875 
L 12.5 54.6875 
L 29.59375 8.796875 
L 46.6875 54.6875 
L 56.203125 54.6875 
L 35.6875 0 
L 23.484375 0 
z
" id="DejaVuSans-118"/>
      <path d="M 45.40625 27.984375 
Q 45.40625 37.75 41.375 43.109375 
Q 37.359375 48.484375 30.078125 48.484375 
Q 22.859375 48.484375 18.828125 43.109375 
Q 14.796875 37.75 14.796875 27.984375 
Q 14.796875 18.265625 18.828125 12.890625 
Q 22.859375 7.515625 30.078125 7.515625 
Q 37.359375 7.515625 41.375 12.890625 
Q 45.40625 18.265625 45.40625 27.984375 
z
M 54.390625 6.78125 
Q 54.390625 -7.171875 48.1875 -13.984375 
Q 42 -20.796875 29.203125 -20.796875 
Q 24.46875 -20.796875 20.265625 -20.09375 
Q 16.0625 -19.390625 12.109375 -17.921875 
L 12.109375 -9.1875 
Q 16.0625 -11.328125 19.921875 -12.34375 
Q 23.78125 -13.375 27.78125 -13.375 
Q 36.625 -13.375 41.015625 -8.765625 
Q 45.40625 -4.15625 45.40625 5.171875 
L 45.40625 9.625 
Q 42.625 4.78125 38.28125 2.390625 
Q 33.9375 0 27.875 0 
Q 17.828125 0 11.671875 7.65625 
Q 5.515625 15.328125 5.515625 27.984375 
Q 5.515625 40.671875 11.671875 48.328125 
Q 17.828125 56 27.875 56 
Q 33.9375 56 38.28125 53.609375 
Q 42.625 51.21875 45.40625 46.390625 
L 45.40625 54.6875 
L 54.390625 54.6875 
z
" id="DejaVuSans-103"/>
      <path d="M 44.390625 34.1875 
Q 47.5625 33.109375 50.5625 29.59375 
Q 53.5625 26.078125 56.59375 19.921875 
L 66.609375 0 
L 56 0 
L 46.6875 18.703125 
Q 43.0625 26.03125 39.671875 28.421875 
Q 36.28125 30.8125 30.421875 30.8125 
L 19.671875 30.8125 
L 19.671875 0 
L 9.8125 0 
L 9.8125 72.90625 
L 32.078125 72.90625 
Q 44.578125 72.90625 50.734375 67.671875 
Q 56.890625 62.453125 56.890625 51.90625 
Q 56.890625 45.015625 53.6875 40.46875 
Q 50.484375 35.9375 44.390625 34.1875 
z
M 19.671875 64.796875 
L 19.671875 38.921875 
L 32.078125 38.921875 
Q 39.203125 38.921875 42.84375 42.21875 
Q 46.484375 45.515625 46.484375 51.90625 
Q 46.484375 58.296875 42.84375 61.546875 
Q 39.203125 64.796875 32.078125 64.796875 
z
" id="DejaVuSans-82"/>
      <path d="M 8.5 21.578125 
L 8.5 54.6875 
L 17.484375 54.6875 
L 17.484375 21.921875 
Q 17.484375 14.15625 20.5 10.265625 
Q 23.53125 6.390625 29.59375 6.390625 
Q 36.859375 6.390625 41.078125 11.03125 
Q 45.3125 15.671875 45.3125 23.6875 
L 45.3125 54.6875 
L 54.296875 54.6875 
L 54.296875 0 
L 45.3125 0 
L 45.3125 8.40625 
Q 42.046875 3.421875 37.71875 1 
Q 33.40625 -1.421875 27.6875 -1.421875 
Q 18.265625 -1.421875 13.375 4.4375 
Q 8.5 10.296875 8.5 21.578125 
z
M 31.109375 56 
z
" id="DejaVuSans-117"/>
     </defs>
     <g style="fill:#262626;" transform="translate(16.318125 169.347187)rotate(-90)scale(0.12 -0.12)">
      <use xlink:href="#DejaVuSans-65"/>
      <use x="68.330078" xlink:href="#DejaVuSans-118"/>
      <use x="127.509766" xlink:href="#DejaVuSans-101"/>
      <use x="189.033203" xlink:href="#DejaVuSans-114"/>
      <use x="230.146484" xlink:href="#DejaVuSans-97"/>
      <use x="291.425781" xlink:href="#DejaVuSans-103"/>
      <use x="354.902344" xlink:href="#DejaVuSans-101"/>
      <use x="416.425781" xlink:href="#DejaVuSans-82"/>
      <use x="485.845703" xlink:href="#DejaVuSans-101"/>
      <use x="547.369141" xlink:href="#DejaVuSans-116"/>
      <use x="586.578125" xlink:href="#DejaVuSans-117"/>
      <use x="649.957031" xlink:href="#DejaVuSans-114"/>
      <use x="691.054688" xlink:href="#DejaVuSans-110"/>
     </g>
    </g>
   </g>
   <g id="PolyCollection_1">
    <defs>
     <path d="M 60.30875 -54.370921 
L 60.30875 -53.039687 
L 62.563295 -55.353169 
L 64.817841 -60.150388 
L 67.072386 -59.772707 
L 69.326932 -57.872864 
L 71.581477 -59.44914 
L 73.836023 -60.492758 
L 76.090568 -63.857386 
L 78.345114 -68.128244 
L 80.599659 -71.183585 
L 82.854205 -75.528898 
L 85.10875 -72.67244 
L 87.363295 -71.352861 
L 89.617841 -67.087613 
L 91.872386 -66.368231 
L 94.126932 -67.521611 
L 96.381477 -68.630474 
L 98.636023 -70.387599 
L 100.890568 -79.283466 
L 103.145114 -106.082667 
L 105.399659 -118.988938 
L 107.654205 -115.856967 
L 109.90875 -116.208757 
L 112.163295 -123.005624 
L 114.417841 -128.943855 
L 116.672386 -124.985568 
L 118.926932 -91.237817 
L 121.181477 -87.129408 
L 123.436023 -79.656462 
L 125.690568 -105.386003 
L 127.945114 -148.927131 
L 130.199659 -224.713228 
L 132.454205 -136.102305 
L 134.70875 -127.365035 
L 136.963295 -125.558927 
L 139.217841 -124.068911 
L 141.472386 -123.403695 
L 143.726932 -122.249834 
L 145.981477 -110.680629 
L 148.236023 -120.927914 
L 150.490568 -121.18973 
L 152.745114 -121.291282 
L 154.999659 -121.900658 
L 157.254205 -122.797192 
L 159.50875 -125.899473 
L 161.763295 -144.334989 
L 164.017841 -243.258566 
L 166.272386 -118.407166 
L 168.526932 -96.19485 
L 170.781477 -77.60861 
L 173.036023 -79.466331 
L 175.290568 -96.168629 
L 177.545114 -119.32309 
L 179.799659 -119.422118 
L 182.054205 -120.21099 
L 184.30875 -119.143151 
L 186.563295 -119.018495 
L 188.817841 -119.019149 
L 191.072386 -119.054842 
L 193.326932 -119.150769 
L 195.581477 -119.203261 
L 197.836023 -119.39999 
L 200.090568 -119.991313 
L 202.345114 -120.320945 
L 204.599659 -119.768888 
L 206.854205 -119.944746 
L 209.10875 -120.321287 
L 211.363295 -120.661418 
L 213.617841 -119.727327 
L 215.872386 -119.456242 
L 218.126932 -119.367338 
L 220.381477 -119.385445 
L 222.636023 -120.841029 
L 224.890568 -120.319045 
L 227.145114 -120.266507 
L 229.399659 -120.621874 
L 231.654205 -119.460679 
L 233.90875 -119.434241 
L 236.163295 -120.788098 
L 238.417841 -120.278018 
L 240.672386 -120.131242 
L 242.926932 -120.163482 
L 245.181477 -120.568679 
L 247.436023 -113.511029 
L 249.690568 -60.836198 
L 251.945114 -60.305 
L 254.199659 -117.768752 
L 256.454205 -121.249189 
L 258.70875 -120.743726 
L 260.963295 -120.537857 
L 263.217841 -122.380818 
L 265.472386 -122.543382 
L 267.726932 -121.628853 
L 269.981477 -121.605954 
L 272.236023 -121.985469 
L 274.490568 -124.594434 
L 276.745114 -131.724079 
L 278.999659 -133.706627 
L 281.254205 -137.609093 
L 283.50875 -149.890894 
L 283.50875 -254.639687 
L 283.50875 -254.639687 
L 281.254205 -254.639687 
L 278.999659 -254.639687 
L 276.745114 -254.639687 
L 274.490568 -254.639687 
L 272.236023 -254.639687 
L 269.981477 -254.639687 
L 267.726932 -254.639687 
L 265.472386 -254.639687 
L 263.217841 -254.639687 
L 260.963295 -254.639687 
L 258.70875 -254.639687 
L 256.454205 -254.639687 
L 254.199659 -187.255024 
L 251.945114 -187.05886 
L 249.690568 -187.334059 
L 247.436023 -187.805732 
L 245.181477 -254.639687 
L 242.926932 -254.639687 
L 240.672386 -252.84863 
L 238.417841 -221.254191 
L 236.163295 -198.337134 
L 233.90875 -221.137601 
L 231.654205 -254.639687 
L 229.399659 -254.639687 
L 227.145114 -254.639687 
L 224.890568 -237.613341 
L 222.636023 -254.639687 
L 220.381477 -239.245693 
L 218.126932 -237.976091 
L 215.872386 -254.639687 
L 213.617841 -254.639687 
L 211.363295 -207.114429 
L 209.10875 -233.419107 
L 206.854205 -232.081489 
L 204.599659 -232.058813 
L 202.345114 -232.058813 
L 200.090568 -254.639687 
L 197.836023 -232.058813 
L 195.581477 -233.192387 
L 193.326932 -254.639687 
L 191.072386 -232.036137 
L 188.817841 -254.639687 
L 186.563295 -254.639687 
L 184.30875 -254.639687 
L 182.054205 -254.639687 
L 179.799659 -254.639687 
L 177.545114 -217.192749 
L 175.290568 -186.985232 
L 173.036023 -187.018469 
L 170.781477 -187.439725 
L 168.526932 -188.031674 
L 166.272386 -191.05921 
L 164.017841 -250.717505 
L 161.763295 -254.639687 
L 159.50875 -254.639687 
L 157.254205 -234.189945 
L 154.999659 -231.223199 
L 152.745114 -238.33884 
L 150.490568 -254.639687 
L 148.236023 -254.639687 
L 145.981477 -187.899963 
L 143.726932 -240.832707 
L 141.472386 -254.639687 
L 139.217841 -254.639687 
L 136.963295 -254.639687 
L 134.70875 -254.639687 
L 132.454205 -254.639687 
L 130.199659 -254.639687 
L 127.945114 -246.069838 
L 125.690568 -136.684846 
L 123.436023 -87.064394 
L 121.181477 -109.144012 
L 118.926932 -100.59807 
L 116.672386 -171.49514 
L 114.417841 -195.055582 
L 112.163295 -210.328123 
L 109.90875 -208.049631 
L 107.654205 -187.679234 
L 105.399659 -219.124686 
L 103.145114 -184.535988 
L 100.890568 -188.867713 
L 98.636023 -188.844758 
L 96.381477 -118.119062 
L 94.126932 -95.490481 
L 91.872386 -86.735537 
L 89.617841 -81.382015 
L 87.363295 -79.504043 
L 85.10875 -78.781217 
L 82.854205 -78.330132 
L 80.599659 -74.008461 
L 78.345114 -69.499994 
L 76.090568 -69.381122 
L 73.836023 -64.153665 
L 71.581477 -61.045757 
L 69.326932 -60.811597 
L 67.072386 -68.278259 
L 64.817841 -62.441694 
L 62.563295 -56.093351 
L 60.30875 -54.370921 
z
" id="m568e0e118b" style="stroke:#ffffff;stroke-opacity:0.2;"/>
    </defs>
    <g clip-path="url(#p938a751113)">
     <use style="fill:#4c72b0;fill-opacity:0.2;stroke:#ffffff;stroke-opacity:0.2;" x="0" xlink:href="#m568e0e118b" y="277.919688"/>
    </g>
   </g>
   <g id="line2d_12">
    <path clip-path="url(#p938a751113)" d="M 60.30875 224.214383 
L 62.563295 222.196427 
L 64.817841 216.623647 
L 67.072386 213.894205 
L 69.326932 218.577457 
L 71.581477 217.672239 
L 73.836023 215.596476 
L 76.090568 211.300433 
L 78.345114 209.105568 
L 80.599659 205.323665 
L 82.854205 200.990173 
L 85.10875 202.192859 
L 87.363295 202.491236 
L 89.617841 203.684874 
L 91.872386 201.367804 
L 94.126932 196.413642 
L 96.381477 184.544919 
L 98.636023 148.303509 
L 100.890568 143.844098 
L 103.145114 132.61036 
L 105.399659 108.862876 
L 107.654205 126.151587 
L 109.90875 115.790493 
L 112.163295 111.252814 
L 114.417841 115.919969 
L 116.672386 129.679333 
L 118.926932 182.001744 
L 121.181477 179.782977 
L 123.436023 194.559259 
L 125.690568 156.884263 
L 127.945114 80.421203 
L 130.199659 38.24323 
L 132.454205 82.548691 
L 134.70875 86.917326 
L 136.963295 87.82038 
L 139.217841 88.565388 
L 141.472386 88.897996 
L 143.726932 96.378417 
L 145.981477 128.629391 
L 148.236023 90.135887 
L 150.490568 90.004979 
L 152.745114 98.104627 
L 154.999659 101.357759 
L 157.254205 99.426119 
L 159.50875 87.650107 
L 161.763295 78.432349 
L 164.017841 30.931652 
L 166.272386 123.186499 
L 168.526932 135.806426 
L 170.781477 145.39552 
L 173.036023 144.677287 
L 175.290568 136.342757 
L 177.545114 109.661768 
L 179.799659 90.888785 
L 182.054205 90.494349 
L 184.30875 91.028268 
L 186.563295 91.090596 
L 188.817841 91.090269 
L 191.072386 102.374198 
L 193.326932 91.024459 
L 195.581477 101.721863 
L 197.836023 102.190286 
L 200.090568 90.604187 
L 202.345114 101.729808 
L 204.599659 102.005837 
L 206.854205 101.90657 
L 209.10875 101.04949 
L 211.363295 114.031764 
L 213.617841 90.73618 
L 215.872386 90.871723 
L 218.126932 99.247973 
L 220.381477 98.604119 
L 222.636023 90.179329 
L 224.890568 98.953495 
L 227.145114 90.46659 
L 229.399659 90.288907 
L 231.654205 90.869504 
L 233.90875 107.633766 
L 236.163295 118.357071 
L 238.417841 107.153583 
L 240.672386 91.429751 
L 242.926932 90.518103 
L 245.181477 90.315504 
L 247.436023 127.261307 
L 249.690568 153.834559 
L 251.945114 154.237758 
L 254.199659 125.407799 
L 256.454205 89.975249 
L 258.70875 90.227981 
L 260.963295 90.330915 
L 263.217841 89.409435 
L 265.472386 89.328153 
L 267.726932 89.785417 
L 269.981477 89.796867 
L 272.236023 89.607109 
L 274.490568 88.302627 
L 276.745114 84.737804 
L 278.999659 83.74653 
L 281.254205 81.795297 
L 283.50875 75.654397 
" style="fill:none;stroke:#4c72b0;stroke-linecap:round;stroke-width:1.5;"/>
   </g>
   <g id="patch_3">
    <path d="M 60.30875 234.96 
L 60.30875 13.2 
" style="fill:none;stroke:#ffffff;stroke-linecap:square;stroke-linejoin:miter;stroke-width:1.25;"/>
   </g>
   <g id="patch_4">
    <path d="M 283.50875 234.96 
L 283.50875 13.2 
" style="fill:none;stroke:#ffffff;stroke-linecap:square;stroke-linejoin:miter;stroke-width:1.25;"/>
   </g>
   <g id="patch_5">
    <path d="M 60.30875 234.96 
L 283.50875 234.96 
" style="fill:none;stroke:#ffffff;stroke-linecap:square;stroke-linejoin:miter;stroke-width:1.25;"/>
   </g>
   <g id="patch_6">
    <path d="M 60.30875 13.2 
L 283.50875 13.2 
" style="fill:none;stroke:#ffffff;stroke-linecap:square;stroke-linejoin:miter;stroke-width:1.25;"/>
   </g>
   <g id="legend_1">
    <g id="patch_7">
     <path d="M 199.965618 229.962 
L 276.51155 229.962 
Q 278.51075 229.962 278.51075 227.9628 
L 278.51075 214.012133 
Q 278.51075 212.012933 276.51155 212.012933 
L 199.965618 212.012933 
Q 197.966418 212.012933 197.966418 214.012133 
L 197.966418 227.9628 
Q 197.966418 229.962 199.965618 229.962 
z
" style="fill:#eaeaf2;opacity:0.8;stroke:#cccccc;stroke-linejoin:miter;"/>
    </g>
    <g id="line2d_13">
     <path d="M 201.964818 220.108131 
L 221.956818 220.108131 
" style="fill:none;stroke:#4c72b0;stroke-linecap:round;stroke-width:1.5;"/>
    </g>
    <g id="line2d_14"/>
    <g id="text_14">
     <!-- ip_10_10 -->
     <defs>
      <path d="M 18.109375 8.203125 
L 18.109375 -20.796875 
L 9.078125 -20.796875 
L 9.078125 54.6875 
L 18.109375 54.6875 
L 18.109375 46.390625 
Q 20.953125 51.265625 25.265625 53.625 
Q 29.59375 56 35.59375 56 
Q 45.5625 56 51.78125 48.09375 
Q 58.015625 40.1875 58.015625 27.296875 
Q 58.015625 14.40625 51.78125 6.484375 
Q 45.5625 -1.421875 35.59375 -1.421875 
Q 29.59375 -1.421875 25.265625 0.953125 
Q 20.953125 3.328125 18.109375 8.203125 
z
M 48.6875 27.296875 
Q 48.6875 37.203125 44.609375 42.84375 
Q 40.53125 48.484375 33.40625 48.484375 
Q 26.265625 48.484375 22.1875 42.84375 
Q 18.109375 37.203125 18.109375 27.296875 
Q 18.109375 17.390625 22.1875 11.75 
Q 26.265625 6.109375 33.40625 6.109375 
Q 40.53125 6.109375 44.609375 11.75 
Q 48.6875 17.390625 48.6875 27.296875 
z
" id="DejaVuSans-112"/>
      <path d="M 50.984375 -16.609375 
L 50.984375 -23.578125 
L -0.984375 -23.578125 
L -0.984375 -16.609375 
z
" id="DejaVuSans-95"/>
     </defs>
     <g style="fill:#262626;" transform="translate(229.953618 223.606731)scale(0.09996 -0.09996)">
      <use xlink:href="#DejaVuSans-105"/>
      <use x="27.783203" xlink:href="#DejaVuSans-112"/>
      <use x="91.259766" xlink:href="#DejaVuSans-95"/>
      <use x="141.259766" xlink:href="#DejaVuSans-49"/>
      <use x="204.882812" xlink:href="#DejaVuSans-48"/>
      <use x="268.505859" xlink:href="#DejaVuSans-95"/>
      <use x="318.505859" xlink:href="#DejaVuSans-49"/>
      <use x="382.128906" xlink:href="#DejaVuSans-48"/>
     </g>
    </g>
   </g>
  </g>
 </g>
 <defs>
  <clipPath id="p938a751113">
   <rect height="221.76" width="223.2" x="60.30875" y="13.2"/>
  </clipPath>
 </defs>
</svg>
