<?xml version="1.0" encoding="utf-8" standalone="no"?>
<!DOCTYPE svg PUBLIC "-//W3C//DTD SVG 1.1//EN"
  "http://www.w3.org/Graphics/SVG/1.1/DTD/svg11.dtd">
<!-- Created with matplotlib (https://matplotlib.org/) -->
<svg height="280.954531pt" version="1.1" viewBox="0 0 275.622344 280.954531" width="275.622344pt" xmlns="http://www.w3.org/2000/svg" xmlns:xlink="http://www.w3.org/1999/xlink">
 <defs>
  <style type="text/css">
*{stroke-linecap:butt;stroke-linejoin:round;}
  </style>
 </defs>
 <g id="figure_1">
  <g id="patch_1">
   <path d="M 0 280.954531 
L 275.622344 280.954531 
L 275.622344 0 
L 0 0 
z
" style="fill:#ffffff;"/>
  </g>
  <g id="axes_1">
   <g id="patch_2">
    <path d="M 45.222344 243.549375 
L 268.422344 243.549375 
L 268.422344 21.789375 
L 45.222344 21.789375 
z
" style="fill:#eaeaf2;"/>
   </g>
   <g id="matplotlib.axis_1">
    <g id="xtick_1">
     <g id="line2d_1">
      <path clip-path="url(#p933ae958e4)" d="M 52.893297 243.549375 
L 52.893297 21.789375 
" style="fill:none;stroke:#ffffff;stroke-linecap:round;"/>
     </g>
     <g id="line2d_2"/>
     <g id="text_1">
      <!-- 0 -->
      <defs>
       <path d="M 4.15625 35.296875 
Q 4.15625 48 6.765625 55.734375 
Q 9.375 63.484375 14.515625 67.671875 
Q 19.671875 71.875 27.484375 71.875 
Q 33.25 71.875 37.59375 69.546875 
Q 41.9375 67.234375 44.765625 62.859375 
Q 47.609375 58.5 49.21875 52.21875 
Q 50.828125 45.953125 50.828125 35.296875 
Q 50.828125 22.703125 48.234375 14.96875 
Q 45.65625 7.234375 40.5 3 
Q 35.359375 -1.21875 27.484375 -1.21875 
Q 17.140625 -1.21875 11.234375 6.203125 
Q 4.15625 15.140625 4.15625 35.296875 
z
M 13.1875 35.296875 
Q 13.1875 17.671875 17.3125 11.828125 
Q 21.4375 6 27.484375 6 
Q 33.546875 6 37.671875 11.859375 
Q 41.796875 17.71875 41.796875 35.296875 
Q 41.796875 52.984375 37.671875 58.78125 
Q 33.546875 64.59375 27.390625 64.59375 
Q 21.34375 64.59375 17.71875 59.46875 
Q 13.1875 52.9375 13.1875 35.296875 
z
" id="ArialMT-48"/>
      </defs>
      <g style="fill:#262626;" transform="translate(50.112828 257.707187)scale(0.1 -0.1)">
       <use xlink:href="#ArialMT-48"/>
      </g>
     </g>
    </g>
    <g id="xtick_2">
     <g id="line2d_3">
      <path clip-path="url(#p933ae958e4)" d="M 94.134982 243.549375 
L 94.134982 21.789375 
" style="fill:none;stroke:#ffffff;stroke-linecap:round;"/>
     </g>
     <g id="line2d_4"/>
     <g id="text_2">
      <!-- 1 -->
      <defs>
       <path d="M 37.25 0 
L 28.46875 0 
L 28.46875 56 
Q 25.296875 52.984375 20.140625 49.953125 
Q 14.984375 46.921875 10.890625 45.40625 
L 10.890625 53.90625 
Q 18.265625 57.375 23.78125 62.296875 
Q 29.296875 67.234375 31.59375 71.875 
L 37.25 71.875 
z
" id="ArialMT-49"/>
      </defs>
      <g style="fill:#262626;" transform="translate(91.354514 257.707187)scale(0.1 -0.1)">
       <use xlink:href="#ArialMT-49"/>
      </g>
     </g>
    </g>
    <g id="xtick_3">
     <g id="line2d_5">
      <path clip-path="url(#p933ae958e4)" d="M 135.376667 243.549375 
L 135.376667 21.789375 
" style="fill:none;stroke:#ffffff;stroke-linecap:round;"/>
     </g>
     <g id="line2d_6"/>
     <g id="text_3">
      <!-- 2 -->
      <defs>
       <path d="M 50.34375 8.453125 
L 50.34375 0 
L 3.03125 0 
Q 2.9375 3.171875 4.046875 6.109375 
Q 5.859375 10.9375 9.828125 15.625 
Q 13.8125 20.3125 21.34375 26.46875 
Q 33.015625 36.03125 37.109375 41.625 
Q 41.21875 47.21875 41.21875 52.203125 
Q 41.21875 57.421875 37.46875 61 
Q 33.734375 64.59375 27.734375 64.59375 
Q 21.390625 64.59375 17.578125 60.78125 
Q 13.765625 56.984375 13.71875 50.25 
L 4.6875 51.171875 
Q 5.609375 61.28125 11.65625 66.578125 
Q 17.71875 71.875 27.9375 71.875 
Q 38.234375 71.875 44.234375 66.15625 
Q 50.25 60.453125 50.25 52 
Q 50.25 47.703125 48.484375 43.546875 
Q 46.734375 39.40625 42.65625 34.8125 
Q 38.578125 30.21875 29.109375 22.21875 
Q 21.1875 15.578125 18.9375 13.203125 
Q 16.703125 10.84375 15.234375 8.453125 
z
" id="ArialMT-50"/>
      </defs>
      <g style="fill:#262626;" transform="translate(132.596199 257.707187)scale(0.1 -0.1)">
       <use xlink:href="#ArialMT-50"/>
      </g>
     </g>
    </g>
    <g id="xtick_4">
     <g id="line2d_7">
      <path clip-path="url(#p933ae958e4)" d="M 176.618353 243.549375 
L 176.618353 21.789375 
" style="fill:none;stroke:#ffffff;stroke-linecap:round;"/>
     </g>
     <g id="line2d_8"/>
     <g id="text_4">
      <!-- 3 -->
      <defs>
       <path d="M 4.203125 18.890625 
L 12.984375 20.0625 
Q 14.5 12.59375 18.140625 9.296875 
Q 21.78125 6 27 6 
Q 33.203125 6 37.46875 10.296875 
Q 41.75 14.59375 41.75 20.953125 
Q 41.75 27 37.796875 30.921875 
Q 33.84375 34.859375 27.734375 34.859375 
Q 25.25 34.859375 21.53125 33.890625 
L 22.515625 41.609375 
Q 23.390625 41.5 23.921875 41.5 
Q 29.546875 41.5 34.03125 44.421875 
Q 38.53125 47.359375 38.53125 53.46875 
Q 38.53125 58.296875 35.25 61.46875 
Q 31.984375 64.65625 26.8125 64.65625 
Q 21.6875 64.65625 18.265625 61.421875 
Q 14.84375 58.203125 13.875 51.765625 
L 5.078125 53.328125 
Q 6.6875 62.15625 12.390625 67.015625 
Q 18.109375 71.875 26.609375 71.875 
Q 32.46875 71.875 37.390625 69.359375 
Q 42.328125 66.84375 44.9375 62.5 
Q 47.5625 58.15625 47.5625 53.265625 
Q 47.5625 48.640625 45.0625 44.828125 
Q 42.578125 41.015625 37.703125 38.765625 
Q 44.046875 37.3125 47.5625 32.6875 
Q 51.078125 28.078125 51.078125 21.140625 
Q 51.078125 11.765625 44.234375 5.25 
Q 37.40625 -1.265625 26.953125 -1.265625 
Q 17.53125 -1.265625 11.296875 4.34375 
Q 5.078125 9.96875 4.203125 18.890625 
z
" id="ArialMT-51"/>
      </defs>
      <g style="fill:#262626;" transform="translate(173.837884 257.707187)scale(0.1 -0.1)">
       <use xlink:href="#ArialMT-51"/>
      </g>
     </g>
    </g>
    <g id="xtick_5">
     <g id="line2d_9">
      <path clip-path="url(#p933ae958e4)" d="M 217.860038 243.549375 
L 217.860038 21.789375 
" style="fill:none;stroke:#ffffff;stroke-linecap:round;"/>
     </g>
     <g id="line2d_10"/>
     <g id="text_5">
      <!-- 4 -->
      <defs>
       <path d="M 32.328125 0 
L 32.328125 17.140625 
L 1.265625 17.140625 
L 1.265625 25.203125 
L 33.9375 71.578125 
L 41.109375 71.578125 
L 41.109375 25.203125 
L 50.78125 25.203125 
L 50.78125 17.140625 
L 41.109375 17.140625 
L 41.109375 0 
z
M 32.328125 25.203125 
L 32.328125 57.46875 
L 9.90625 25.203125 
z
" id="ArialMT-52"/>
      </defs>
      <g style="fill:#262626;" transform="translate(215.079569 257.707187)scale(0.1 -0.1)">
       <use xlink:href="#ArialMT-52"/>
      </g>
     </g>
    </g>
    <g id="xtick_6">
     <g id="line2d_11">
      <path clip-path="url(#p933ae958e4)" d="M 259.101723 243.549375 
L 259.101723 21.789375 
" style="fill:none;stroke:#ffffff;stroke-linecap:round;"/>
     </g>
     <g id="line2d_12"/>
     <g id="text_6">
      <!-- 5 -->
      <defs>
       <path d="M 4.15625 18.75 
L 13.375 19.53125 
Q 14.40625 12.796875 18.140625 9.390625 
Q 21.875 6 27.15625 6 
Q 33.5 6 37.890625 10.78125 
Q 42.28125 15.578125 42.28125 23.484375 
Q 42.28125 31 38.0625 35.34375 
Q 33.84375 39.703125 27 39.703125 
Q 22.75 39.703125 19.328125 37.765625 
Q 15.921875 35.84375 13.96875 32.765625 
L 5.71875 33.84375 
L 12.640625 70.609375 
L 48.25 70.609375 
L 48.25 62.203125 
L 19.671875 62.203125 
L 15.828125 42.96875 
Q 22.265625 47.46875 29.34375 47.46875 
Q 38.71875 47.46875 45.15625 40.96875 
Q 51.609375 34.46875 51.609375 24.265625 
Q 51.609375 14.546875 45.953125 7.46875 
Q 39.0625 -1.21875 27.15625 -1.21875 
Q 17.390625 -1.21875 11.203125 4.25 
Q 5.03125 9.71875 4.15625 18.75 
z
" id="ArialMT-53"/>
      </defs>
      <g style="fill:#262626;" transform="translate(256.321254 257.707187)scale(0.1 -0.1)">
       <use xlink:href="#ArialMT-53"/>
      </g>
     </g>
    </g>
    <g id="text_7">
     <!-- Timestep -->
     <defs>
      <path d="M 25.921875 0 
L 25.921875 63.140625 
L 2.34375 63.140625 
L 2.34375 71.578125 
L 59.078125 71.578125 
L 59.078125 63.140625 
L 35.40625 63.140625 
L 35.40625 0 
z
" id="ArialMT-84"/>
      <path d="M 6.640625 61.46875 
L 6.640625 71.578125 
L 15.4375 71.578125 
L 15.4375 61.46875 
z
M 6.640625 0 
L 6.640625 51.859375 
L 15.4375 51.859375 
L 15.4375 0 
z
" id="ArialMT-105"/>
      <path d="M 6.59375 0 
L 6.59375 51.859375 
L 14.453125 51.859375 
L 14.453125 44.578125 
Q 16.890625 48.390625 20.9375 50.703125 
Q 25 53.03125 30.171875 53.03125 
Q 35.9375 53.03125 39.625 50.640625 
Q 43.3125 48.25 44.828125 43.953125 
Q 50.984375 53.03125 60.84375 53.03125 
Q 68.5625 53.03125 72.703125 48.75 
Q 76.859375 44.484375 76.859375 35.59375 
L 76.859375 0 
L 68.109375 0 
L 68.109375 32.671875 
Q 68.109375 37.9375 67.25 40.25 
Q 66.40625 42.578125 64.15625 43.984375 
Q 61.921875 45.40625 58.890625 45.40625 
Q 53.421875 45.40625 49.796875 41.765625 
Q 46.1875 38.140625 46.1875 30.125 
L 46.1875 0 
L 37.40625 0 
L 37.40625 33.6875 
Q 37.40625 39.546875 35.25 42.46875 
Q 33.109375 45.40625 28.21875 45.40625 
Q 24.515625 45.40625 21.359375 43.453125 
Q 18.21875 41.5 16.796875 37.734375 
Q 15.375 33.984375 15.375 26.90625 
L 15.375 0 
z
" id="ArialMT-109"/>
      <path d="M 42.09375 16.703125 
L 51.171875 15.578125 
Q 49.03125 7.625 43.21875 3.21875 
Q 37.40625 -1.171875 28.375 -1.171875 
Q 17 -1.171875 10.328125 5.828125 
Q 3.65625 12.84375 3.65625 25.484375 
Q 3.65625 38.578125 10.390625 45.796875 
Q 17.140625 53.03125 27.875 53.03125 
Q 38.28125 53.03125 44.875 45.953125 
Q 51.46875 38.875 51.46875 26.03125 
Q 51.46875 25.25 51.421875 23.6875 
L 12.75 23.6875 
Q 13.234375 15.140625 17.578125 10.59375 
Q 21.921875 6.0625 28.421875 6.0625 
Q 33.25 6.0625 36.671875 8.59375 
Q 40.09375 11.140625 42.09375 16.703125 
z
M 13.234375 30.90625 
L 42.1875 30.90625 
Q 41.609375 37.453125 38.875 40.71875 
Q 34.671875 45.796875 27.984375 45.796875 
Q 21.921875 45.796875 17.796875 41.75 
Q 13.671875 37.703125 13.234375 30.90625 
z
" id="ArialMT-101"/>
      <path d="M 3.078125 15.484375 
L 11.765625 16.84375 
Q 12.5 11.625 15.84375 8.84375 
Q 19.1875 6.0625 25.203125 6.0625 
Q 31.25 6.0625 34.171875 8.515625 
Q 37.109375 10.984375 37.109375 14.3125 
Q 37.109375 17.28125 34.515625 19 
Q 32.71875 20.171875 25.53125 21.96875 
Q 15.875 24.421875 12.140625 26.203125 
Q 8.40625 27.984375 6.46875 31.125 
Q 4.546875 34.28125 4.546875 38.09375 
Q 4.546875 41.546875 6.125 44.5 
Q 7.71875 47.46875 10.453125 49.421875 
Q 12.5 50.921875 16.03125 51.96875 
Q 19.578125 53.03125 23.640625 53.03125 
Q 29.734375 53.03125 34.34375 51.265625 
Q 38.96875 49.515625 41.15625 46.5 
Q 43.359375 43.5 44.1875 38.484375 
L 35.59375 37.3125 
Q 35.015625 41.3125 32.203125 43.546875 
Q 29.390625 45.796875 24.265625 45.796875 
Q 18.21875 45.796875 15.625 43.796875 
Q 13.03125 41.796875 13.03125 39.109375 
Q 13.03125 37.40625 14.109375 36.03125 
Q 15.1875 34.625 17.484375 33.6875 
Q 18.796875 33.203125 25.25 31.453125 
Q 34.578125 28.953125 38.25 27.359375 
Q 41.9375 25.78125 44.03125 22.75 
Q 46.140625 19.734375 46.140625 15.234375 
Q 46.140625 10.84375 43.578125 6.953125 
Q 41.015625 3.078125 36.171875 0.953125 
Q 31.34375 -1.171875 25.25 -1.171875 
Q 15.140625 -1.171875 9.84375 3.03125 
Q 4.546875 7.234375 3.078125 15.484375 
z
" id="ArialMT-115"/>
      <path d="M 25.78125 7.859375 
L 27.046875 0.09375 
Q 23.34375 -0.6875 20.40625 -0.6875 
Q 15.625 -0.6875 12.984375 0.828125 
Q 10.359375 2.34375 9.28125 4.8125 
Q 8.203125 7.28125 8.203125 15.1875 
L 8.203125 45.015625 
L 1.765625 45.015625 
L 1.765625 51.859375 
L 8.203125 51.859375 
L 8.203125 64.703125 
L 16.9375 69.96875 
L 16.9375 51.859375 
L 25.78125 51.859375 
L 25.78125 45.015625 
L 16.9375 45.015625 
L 16.9375 14.703125 
Q 16.9375 10.9375 17.40625 9.859375 
Q 17.875 8.796875 18.921875 8.15625 
Q 19.96875 7.515625 21.921875 7.515625 
Q 23.390625 7.515625 25.78125 7.859375 
z
" id="ArialMT-116"/>
      <path d="M 6.59375 -19.875 
L 6.59375 51.859375 
L 14.59375 51.859375 
L 14.59375 45.125 
Q 17.4375 49.078125 21 51.046875 
Q 24.5625 53.03125 29.640625 53.03125 
Q 36.28125 53.03125 41.359375 49.609375 
Q 46.4375 46.1875 49.015625 39.953125 
Q 51.609375 33.734375 51.609375 26.3125 
Q 51.609375 18.359375 48.75 11.984375 
Q 45.90625 5.609375 40.453125 2.21875 
Q 35.015625 -1.171875 29 -1.171875 
Q 24.609375 -1.171875 21.109375 0.6875 
Q 17.625 2.546875 15.375 5.375 
L 15.375 -19.875 
z
M 14.546875 25.640625 
Q 14.546875 15.625 18.59375 10.84375 
Q 22.65625 6.0625 28.421875 6.0625 
Q 34.28125 6.0625 38.453125 11.015625 
Q 42.625 15.96875 42.625 26.375 
Q 42.625 36.28125 38.546875 41.203125 
Q 34.46875 46.140625 28.8125 46.140625 
Q 23.1875 46.140625 18.859375 40.890625 
Q 14.546875 35.640625 14.546875 25.640625 
z
" id="ArialMT-112"/>
     </defs>
     <g style="fill:#262626;" transform="translate(134.20875 271.568281)scale(0.11 -0.11)">
      <use xlink:href="#ArialMT-84"/>
      <use x="61.037109" xlink:href="#ArialMT-105"/>
      <use x="83.253906" xlink:href="#ArialMT-109"/>
      <use x="166.554688" xlink:href="#ArialMT-101"/>
      <use x="222.169922" xlink:href="#ArialMT-115"/>
      <use x="272.169922" xlink:href="#ArialMT-116"/>
      <use x="299.953125" xlink:href="#ArialMT-101"/>
      <use x="355.568359" xlink:href="#ArialMT-112"/>
     </g>
    </g>
    <g id="text_8">
     <!-- 1e6 -->
     <defs>
      <path d="M 49.75 54.046875 
L 41.015625 53.375 
Q 39.84375 58.546875 37.703125 60.890625 
Q 34.125 64.65625 28.90625 64.65625 
Q 24.703125 64.65625 21.53125 62.3125 
Q 17.390625 59.28125 14.984375 53.46875 
Q 12.59375 47.65625 12.5 36.921875 
Q 15.671875 41.75 20.265625 44.09375 
Q 24.859375 46.4375 29.890625 46.4375 
Q 38.671875 46.4375 44.84375 39.96875 
Q 51.03125 33.5 51.03125 23.25 
Q 51.03125 16.5 48.125 10.71875 
Q 45.21875 4.9375 40.140625 1.859375 
Q 35.0625 -1.21875 28.609375 -1.21875 
Q 17.625 -1.21875 10.6875 6.859375 
Q 3.765625 14.9375 3.765625 33.5 
Q 3.765625 54.25 11.421875 63.671875 
Q 18.109375 71.875 29.4375 71.875 
Q 37.890625 71.875 43.28125 67.140625 
Q 48.6875 62.40625 49.75 54.046875 
z
M 13.875 23.1875 
Q 13.875 18.65625 15.796875 14.5 
Q 17.71875 10.359375 21.1875 8.171875 
Q 24.65625 6 28.46875 6 
Q 34.03125 6 38.03125 10.484375 
Q 42.046875 14.984375 42.046875 22.703125 
Q 42.046875 30.125 38.078125 34.390625 
Q 34.125 38.671875 28.125 38.671875 
Q 22.171875 38.671875 18.015625 34.390625 
Q 13.875 30.125 13.875 23.1875 
z
" id="ArialMT-54"/>
     </defs>
     <g style="fill:#262626;" transform="translate(251.739531 269.8525)scale(0.1 -0.1)">
      <use xlink:href="#ArialMT-49"/>
      <use x="55.615234" xlink:href="#ArialMT-101"/>
      <use x="111.230469" xlink:href="#ArialMT-54"/>
     </g>
    </g>
   </g>
   <g id="matplotlib.axis_2">
    <g id="ytick_1">
     <g id="line2d_13">
      <path clip-path="url(#p933ae958e4)" d="M 45.222344 231.255072 
L 268.422344 231.255072 
" style="fill:none;stroke:#ffffff;stroke-linecap:round;"/>
     </g>
     <g id="line2d_14"/>
     <g id="text_9">
      <!-- −20 -->
      <defs>
       <path d="M 52.828125 31.203125 
L 5.5625 31.203125 
L 5.5625 39.40625 
L 52.828125 39.40625 
z
" id="ArialMT-8722"/>
      </defs>
      <g style="fill:#262626;" transform="translate(21.259844 234.833978)scale(0.1 -0.1)">
       <use xlink:href="#ArialMT-8722"/>
       <use x="58.398438" xlink:href="#ArialMT-50"/>
       <use x="114.013672" xlink:href="#ArialMT-48"/>
      </g>
     </g>
    </g>
    <g id="ytick_2">
     <g id="line2d_15">
      <path clip-path="url(#p933ae958e4)" d="M 45.222344 182.048335 
L 268.422344 182.048335 
" style="fill:none;stroke:#ffffff;stroke-linecap:round;"/>
     </g>
     <g id="line2d_16"/>
     <g id="text_10">
      <!-- −10 -->
      <g style="fill:#262626;" transform="translate(21.259844 185.627241)scale(0.1 -0.1)">
       <use xlink:href="#ArialMT-8722"/>
       <use x="58.398438" xlink:href="#ArialMT-49"/>
       <use x="114.013672" xlink:href="#ArialMT-48"/>
      </g>
     </g>
    </g>
    <g id="ytick_3">
     <g id="line2d_17">
      <path clip-path="url(#p933ae958e4)" d="M 45.222344 132.841599 
L 268.422344 132.841599 
" style="fill:none;stroke:#ffffff;stroke-linecap:round;"/>
     </g>
     <g id="line2d_18"/>
     <g id="text_11">
      <!-- 0 -->
      <g style="fill:#262626;" transform="translate(32.661406 136.420505)scale(0.1 -0.1)">
       <use xlink:href="#ArialMT-48"/>
      </g>
     </g>
    </g>
    <g id="ytick_4">
     <g id="line2d_19">
      <path clip-path="url(#p933ae958e4)" d="M 45.222344 83.634862 
L 268.422344 83.634862 
" style="fill:none;stroke:#ffffff;stroke-linecap:round;"/>
     </g>
     <g id="line2d_20"/>
     <g id="text_12">
      <!-- 10 -->
      <g style="fill:#262626;" transform="translate(27.100469 87.213768)scale(0.1 -0.1)">
       <use xlink:href="#ArialMT-49"/>
       <use x="55.615234" xlink:href="#ArialMT-48"/>
      </g>
     </g>
    </g>
    <g id="ytick_5">
     <g id="line2d_21">
      <path clip-path="url(#p933ae958e4)" d="M 45.222344 34.428125 
L 268.422344 34.428125 
" style="fill:none;stroke:#ffffff;stroke-linecap:round;"/>
     </g>
     <g id="line2d_22"/>
     <g id="text_13">
      <!-- 20 -->
      <g style="fill:#262626;" transform="translate(27.100469 38.007032)scale(0.1 -0.1)">
       <use xlink:href="#ArialMT-50"/>
       <use x="55.615234" xlink:href="#ArialMT-48"/>
      </g>
     </g>
    </g>
    <g id="text_14">
     <!-- Mean Reward -->
     <defs>
      <path d="M 7.421875 0 
L 7.421875 71.578125 
L 21.6875 71.578125 
L 38.625 20.90625 
Q 40.96875 13.8125 42.046875 10.296875 
Q 43.265625 14.203125 45.84375 21.78125 
L 62.984375 71.578125 
L 75.734375 71.578125 
L 75.734375 0 
L 66.609375 0 
L 66.609375 59.90625 
L 45.796875 0 
L 37.25 0 
L 16.546875 60.9375 
L 16.546875 0 
z
" id="ArialMT-77"/>
      <path d="M 40.4375 6.390625 
Q 35.546875 2.25 31.03125 0.53125 
Q 26.515625 -1.171875 21.34375 -1.171875 
Q 12.796875 -1.171875 8.203125 3 
Q 3.609375 7.171875 3.609375 13.671875 
Q 3.609375 17.484375 5.34375 20.625 
Q 7.078125 23.78125 9.890625 25.6875 
Q 12.703125 27.59375 16.21875 28.5625 
Q 18.796875 29.25 24.03125 29.890625 
Q 34.671875 31.15625 39.703125 32.90625 
Q 39.75 34.71875 39.75 35.203125 
Q 39.75 40.578125 37.25 42.78125 
Q 33.890625 45.75 27.25 45.75 
Q 21.046875 45.75 18.09375 43.578125 
Q 15.140625 41.40625 13.71875 35.890625 
L 5.125 37.0625 
Q 6.296875 42.578125 8.984375 45.96875 
Q 11.671875 49.359375 16.75 51.1875 
Q 21.828125 53.03125 28.515625 53.03125 
Q 35.15625 53.03125 39.296875 51.46875 
Q 43.453125 49.90625 45.40625 47.53125 
Q 47.359375 45.171875 48.140625 41.546875 
Q 48.578125 39.3125 48.578125 33.453125 
L 48.578125 21.734375 
Q 48.578125 9.46875 49.140625 6.21875 
Q 49.703125 2.984375 51.375 0 
L 42.1875 0 
Q 40.828125 2.734375 40.4375 6.390625 
z
M 39.703125 26.03125 
Q 34.90625 24.078125 25.34375 22.703125 
Q 19.921875 21.921875 17.671875 20.9375 
Q 15.4375 19.96875 14.203125 18.09375 
Q 12.984375 16.21875 12.984375 13.921875 
Q 12.984375 10.40625 15.640625 8.0625 
Q 18.3125 5.71875 23.4375 5.71875 
Q 28.515625 5.71875 32.46875 7.9375 
Q 36.421875 10.15625 38.28125 14.015625 
Q 39.703125 17 39.703125 22.796875 
z
" id="ArialMT-97"/>
      <path d="M 6.59375 0 
L 6.59375 51.859375 
L 14.5 51.859375 
L 14.5 44.484375 
Q 20.21875 53.03125 31 53.03125 
Q 35.6875 53.03125 39.625 51.34375 
Q 43.5625 49.65625 45.515625 46.921875 
Q 47.46875 44.1875 48.25 40.4375 
Q 48.734375 37.984375 48.734375 31.890625 
L 48.734375 0 
L 39.9375 0 
L 39.9375 31.546875 
Q 39.9375 36.921875 38.90625 39.578125 
Q 37.890625 42.234375 35.28125 43.8125 
Q 32.671875 45.40625 29.15625 45.40625 
Q 23.53125 45.40625 19.453125 41.84375 
Q 15.375 38.28125 15.375 28.328125 
L 15.375 0 
z
" id="ArialMT-110"/>
      <path id="ArialMT-32"/>
      <path d="M 7.859375 0 
L 7.859375 71.578125 
L 39.59375 71.578125 
Q 49.171875 71.578125 54.140625 69.640625 
Q 59.125 67.71875 62.109375 62.828125 
Q 65.09375 57.953125 65.09375 52.046875 
Q 65.09375 44.4375 60.15625 39.203125 
Q 55.21875 33.984375 44.921875 32.5625 
Q 48.6875 30.765625 50.640625 29 
Q 54.78125 25.203125 58.5 19.484375 
L 70.953125 0 
L 59.03125 0 
L 49.5625 14.890625 
Q 45.40625 21.34375 42.71875 24.75 
Q 40.046875 28.171875 37.921875 29.53125 
Q 35.796875 30.90625 33.59375 31.453125 
Q 31.984375 31.78125 28.328125 31.78125 
L 17.328125 31.78125 
L 17.328125 0 
z
M 17.328125 39.984375 
L 37.703125 39.984375 
Q 44.1875 39.984375 47.84375 41.328125 
Q 51.515625 42.671875 53.421875 45.625 
Q 55.328125 48.578125 55.328125 52.046875 
Q 55.328125 57.125 51.640625 60.390625 
Q 47.953125 63.671875 39.984375 63.671875 
L 17.328125 63.671875 
z
" id="ArialMT-82"/>
      <path d="M 16.15625 0 
L 0.296875 51.859375 
L 9.375 51.859375 
L 17.625 21.921875 
L 20.703125 10.796875 
Q 20.90625 11.625 23.390625 21.484375 
L 31.640625 51.859375 
L 40.671875 51.859375 
L 48.4375 21.78125 
L 51.03125 11.859375 
L 54 21.875 
L 62.890625 51.859375 
L 71.4375 51.859375 
L 55.21875 0 
L 46.09375 0 
L 37.84375 31.0625 
L 35.84375 39.890625 
L 25.34375 0 
z
" id="ArialMT-119"/>
      <path d="M 6.5 0 
L 6.5 51.859375 
L 14.40625 51.859375 
L 14.40625 44 
Q 17.4375 49.515625 20 51.265625 
Q 22.5625 53.03125 25.640625 53.03125 
Q 30.078125 53.03125 34.671875 50.203125 
L 31.640625 42.046875 
Q 28.421875 43.953125 25.203125 43.953125 
Q 22.3125 43.953125 20.015625 42.21875 
Q 17.71875 40.484375 16.75 37.40625 
Q 15.28125 32.71875 15.28125 27.15625 
L 15.28125 0 
z
" id="ArialMT-114"/>
      <path d="M 40.234375 0 
L 40.234375 6.546875 
Q 35.296875 -1.171875 25.734375 -1.171875 
Q 19.53125 -1.171875 14.328125 2.25 
Q 9.125 5.671875 6.265625 11.796875 
Q 3.421875 17.921875 3.421875 25.875 
Q 3.421875 33.640625 6 39.96875 
Q 8.59375 46.296875 13.765625 49.65625 
Q 18.953125 53.03125 25.34375 53.03125 
Q 30.03125 53.03125 33.6875 51.046875 
Q 37.359375 49.078125 39.65625 45.90625 
L 39.65625 71.578125 
L 48.390625 71.578125 
L 48.390625 0 
z
M 12.453125 25.875 
Q 12.453125 15.921875 16.640625 10.984375 
Q 20.84375 6.0625 26.5625 6.0625 
Q 32.328125 6.0625 36.34375 10.765625 
Q 40.375 15.484375 40.375 25.140625 
Q 40.375 35.796875 36.265625 40.765625 
Q 32.171875 45.75 26.171875 45.75 
Q 20.3125 45.75 16.375 40.96875 
Q 12.453125 36.1875 12.453125 25.875 
z
" id="ArialMT-100"/>
     </defs>
     <g style="fill:#262626;" transform="translate(15.073594 166.905156)rotate(-90)scale(0.11 -0.11)">
      <use xlink:href="#ArialMT-77"/>
      <use x="83.300781" xlink:href="#ArialMT-101"/>
      <use x="138.916016" xlink:href="#ArialMT-97"/>
      <use x="194.53125" xlink:href="#ArialMT-110"/>
      <use x="250.146484" xlink:href="#ArialMT-32"/>
      <use x="277.929688" xlink:href="#ArialMT-82"/>
      <use x="350.146484" xlink:href="#ArialMT-101"/>
      <use x="405.761719" xlink:href="#ArialMT-119"/>
      <use x="477.978516" xlink:href="#ArialMT-97"/>
      <use x="533.59375" xlink:href="#ArialMT-114"/>
      <use x="566.894531" xlink:href="#ArialMT-100"/>
     </g>
    </g>
   </g>
   <g id="line2d_23">
    <path clip-path="url(#p933ae958e4)" d="M 55.367798 232.792782 
L 55.780215 232.76408 
L 56.605049 232.946553 
L 57.017466 232.63286 
L 57.429883 232.780481 
L 57.842299 232.780481 
L 58.667133 232.48524 
L 59.07955 232.534447 
L 60.316801 232.19 
L 60.729217 232.436034 
L 61.141634 232.436034 
L 61.554051 232.583654 
L 61.966468 232.386827 
L 62.791302 232.583654 
L 63.616135 232.682067 
L 64.853386 232.288413 
L 65.265803 232.288413 
L 65.67822 232.04238 
L 66.503053 232.48524 
L 66.91547 232.19 
L 67.327887 232.33762 
L 67.740304 231.747139 
L 68.152721 232.091586 
L 69.389971 231.894759 
L 69.802388 231.845553 
L 70.214805 231.304279 
L 71.039639 230.812211 
L 71.452056 230.713798 
L 72.689306 229.92649 
L 73.101723 229.139182 
L 73.51414 228.794735 
L 73.926557 228.302668 
L 74.338973 228.253461 
L 74.75139 228.056634 
L 75.163807 228.204254 
L 75.576224 227.859807 
L 75.988641 227.859807 
L 76.401058 227.66298 
L 77.225891 226.924879 
L 78.463142 226.285191 
L 78.875559 225.793124 
L 79.700393 225.301057 
L 80.112809 224.907403 
L 82.58731 219.642282 
L 82.999727 218.362907 
L 83.412144 217.723219 
L 83.824561 216.788291 
L 84.236978 216.19781 
L 84.649395 216.000983 
L 85.061812 215.60733 
L 85.474228 214.278748 
L 86.299062 212.851752 
L 86.711479 212.556512 
L 87.123896 211.670791 
L 87.536313 211.37555 
L 87.94873 210.489829 
L 88.773563 208.423146 
L 89.18598 208.324733 
L 89.598397 207.783458 
L 90.010814 206.996151 
L 90.423231 205.519949 
L 91.248064 204.880261 
L 91.660481 204.043746 
L 92.072898 203.502472 
L 92.485315 202.272304 
L 93.310149 200.796102 
L 93.722565 200.451655 
L 94.959816 197.745284 
L 95.78465 194.743673 
L 96.197067 193.956365 
L 96.609483 191.692856 
L 97.0219 191.003961 
L 97.434317 191.102375 
L 98.259151 188.297591 
L 99.083985 184.213432 
L 99.496401 183.229297 
L 99.908818 181.605475 
L 100.321235 179.145138 
L 101.558486 175.405426 
L 101.970903 173.633983 
L 102.795736 171.518094 
L 103.208153 171.616507 
L 104.032987 168.614896 
L 104.85782 164.579944 
L 105.270237 163.251362 
L 105.682654 163.054535 
L 106.095071 162.0704 
L 106.507488 161.430713 
L 106.919905 160.446578 
L 107.332322 158.970376 
L 107.744738 158.330688 
L 108.569572 155.525904 
L 108.981989 155.525904 
L 109.394406 154.935423 
L 109.806823 153.016361 
L 110.21924 151.687779 
L 110.631656 152.130639 
L 111.45649 148.932201 
L 111.868907 148.587754 
L 112.281324 147.60362 
L 112.693741 147.849653 
L 113.106157 146.865519 
L 113.518574 146.176624 
L 113.930991 146.668692 
L 114.343408 146.521071 
L 114.755825 147.652826 
L 115.168242 145.290903 
L 116.817909 140.81309 
L 117.642743 136.876551 
L 118.05516 135.547969 
L 118.467577 135.498762 
L 118.879993 135.301935 
L 119.29241 135.695589 
L 119.704827 135.006695 
L 120.117244 133.678113 
L 120.942078 132.940012 
L 122.179328 129.397127 
L 122.591745 128.019338 
L 123.004162 127.674891 
L 123.416579 127.133617 
L 124.653829 123.344698 
L 125.066246 122.655804 
L 125.478663 121.720876 
L 125.89108 119.752607 
L 126.303497 119.112919 
L 126.715914 117.784337 
L 127.12833 115.766861 
L 127.540747 115.422414 
L 128.365581 113.749385 
L 128.777998 113.503351 
L 129.190415 112.76525 
L 129.602832 110.796981 
L 130.015248 110.009673 
L 130.427665 107.992197 
L 130.840082 108.041403 
L 131.252499 107.057269 
L 131.664916 106.515994 
L 132.902166 102.874696 
L 133.314583 101.841354 
L 133.727 101.201667 
L 134.964251 97.019094 
L 135.376667 95.395272 
L 135.789084 94.755584 
L 136.201501 92.787315 
L 137.026335 87.27616 
L 137.851169 84.668203 
L 138.676002 81.568179 
L 139.088419 80.633251 
L 139.500836 80.239597 
L 139.913253 79.058635 
L 140.32567 78.320534 
L 140.738087 76.893539 
L 141.150503 76.155438 
L 143.625005 67.839499 
L 144.037421 66.609331 
L 144.449838 66.264884 
L 144.862255 64.493441 
L 145.274672 63.558513 
L 145.687089 62.328345 
L 146.099506 61.590244 
L 146.924339 59.523561 
L 147.336756 59.228321 
L 148.16159 57.801325 
L 148.574007 57.604498 
L 149.811257 57.948945 
L 150.636091 58.588633 
L 151.048508 58.194979 
L 151.460925 58.588633 
L 151.873342 59.474354 
L 152.285758 58.834667 
L 152.698175 58.539426 
L 154.347843 54.848921 
L 154.760259 54.307647 
L 155.172676 53.9632 
L 155.585093 53.225099 
L 155.99751 53.126685 
L 156.409927 52.585411 
L 156.822344 53.372719 
L 157.234761 52.093344 
L 158.059594 50.715555 
L 158.884428 48.796492 
L 160.121679 43.678992 
L 160.534095 42.005963 
L 160.946512 41.218655 
L 161.358929 40.923415 
L 161.771346 41.071035 
L 162.183763 41.021828 
L 162.59618 41.317068 
L 163.008597 41.120241 
L 163.421013 40.578967 
L 163.83343 40.578967 
L 164.245847 39.890073 
L 164.658264 37.872597 
L 165.070681 37.626563 
L 165.483098 37.67577 
L 165.895514 37.232909 
L 167.957599 36.544015 
L 168.370016 35.756707 
L 168.782432 35.609087 
L 169.607266 34.674159 
L 170.019683 34.329712 
L 171.66935 33.591611 
L 172.081767 33.739231 
L 172.906601 33.050337 
L 174.556268 32.804303 
L 174.968685 32.656683 
L 176.205936 33.00113 
L 177.030769 33.14875 
L 177.443186 33.443991 
L 178.26802 33.345577 
L 179.092854 33.394784 
L 179.917687 33.690024 
L 180.330104 33.739231 
L 181.154938 34.034471 
L 181.567355 33.886851 
L 181.979772 33.886851 
L 184.86669 32.951923 
L 185.691523 33.099543 
L 186.10394 32.902716 
L 186.516357 32.902716 
L 186.928774 32.755096 
L 187.341191 32.755096 
L 187.753608 32.902716 
L 188.166024 32.607476 
L 190.228109 33.542404 
L 190.640526 33.443991 
L 191.877776 33.837644 
L 192.70261 33.542404 
L 193.93986 33.788438 
L 194.764694 33.394784 
L 195.177111 33.640818 
L 196.001945 33.542404 
L 196.826778 33.29637 
L 197.239195 33.394784 
L 197.651612 33.14875 
L 198.064029 33.197957 
L 198.476446 33.099543 
L 199.301279 33.197957 
L 199.713696 33.443991 
L 201.363364 33.542404 
L 204.250282 33.493197 
L 204.662699 33.788438 
L 205.899949 33.739231 
L 206.724783 33.197957 
L 207.962033 32.804303 
L 208.37445 32.755096 
L 208.786867 32.85351 
L 210.848951 32.558269 
L 211.673785 32.213822 
L 212.086202 31.967788 
L 212.911036 31.918582 
L 214.148286 32.312236 
L 214.560703 32.263029 
L 214.97312 32.016995 
L 215.385537 32.263029 
L 217.035204 32.558269 
L 218.272455 32.607476 
L 219.097288 32.85351 
L 219.922122 33.050337 
L 220.334539 33.345577 
L 220.746956 33.394784 
L 221.159373 33.640818 
L 221.984206 33.394784 
L 222.396623 33.542404 
L 223.633874 33.394784 
L 224.046291 33.099543 
L 225.283541 33.00113 
L 226.520792 32.902716 
L 226.933208 33.050337 
L 227.345625 32.85351 
L 227.758042 32.410649 
L 228.170459 32.70589 
L 228.582876 32.312236 
L 228.995293 32.558269 
L 230.64496 32.361442 
L 231.469794 32.459856 
L 232.707044 32.509063 
L 233.119461 32.410649 
L 233.531878 32.607476 
L 233.944295 32.558269 
L 234.356712 32.656683 
L 235.593962 32.410649 
L 236.418796 32.115409 
L 239.718131 32.459856 
L 240.130548 32.70589 
L 240.542965 32.755096 
L 240.955381 32.509063 
L 241.780215 32.410649 
L 243.429883 33.247164 
L 243.842299 33.197957 
L 244.254716 33.345577 
L 244.667133 33.197957 
L 245.491967 33.29637 
L 245.904384 33.099543 
L 246.316801 33.099543 
L 246.729217 33.247164 
L 247.554051 32.755096 
L 248.378885 32.902716 
L 249.203718 32.804303 
L 249.616135 32.459856 
L 250.853386 32.558269 
L 251.265803 32.312236 
L 251.67822 32.263029 
L 252.090636 32.459856 
L 252.503053 32.263029 
L 252.91547 32.459856 
L 253.327887 32.361442 
L 253.740304 32.115409 
L 254.565138 32.213822 
L 254.977554 32.016995 
L 255.389971 32.066202 
L 255.802388 32.312236 
L 256.214805 32.312236 
L 257.452056 31.869375 
L 257.864472 31.869375 
L 258.276889 32.016995 
L 258.276889 32.016995 
" style="fill:none;stroke:#4c72b0;stroke-linecap:round;stroke-width:1.75;"/>
   </g>
   <g id="line2d_24">
    <path clip-path="url(#p933ae958e4)" d="M 55.367798 232.946553 
L 57.017466 233.075721 
L 57.842299 233.174135 
L 58.254716 232.829687 
L 58.667133 233.075721 
L 61.141634 232.878894 
L 61.554051 232.878894 
L 61.966468 233.272548 
L 62.791302 232.977308 
L 63.203718 233.370962 
L 63.616135 233.469375 
L 64.028552 233.272548 
L 64.440969 232.829687 
L 64.853386 232.977308 
L 67.327887 232.48524 
L 67.740304 232.682067 
L 68.565138 232.140793 
L 68.977554 232.288413 
L 69.389971 232.140793 
L 69.802388 231.550312 
L 70.214805 231.304279 
L 70.627222 231.353485 
L 71.039639 230.763004 
L 71.864472 230.320144 
L 72.276889 230.369351 
L 72.689306 230.172524 
L 73.101723 230.172524 
L 73.51414 229.828076 
L 73.926557 229.828076 
L 74.338973 230.07411 
L 75.163807 229.92649 
L 75.576224 230.172524 
L 75.988641 229.63125 
L 76.401058 228.893148 
L 76.813475 228.548701 
L 77.225891 227.95822 
L 77.638308 228.007427 
L 78.050725 227.8106 
L 79.287976 225.25185 
L 80.112809 223.726441 
L 80.937643 221.708965 
L 81.35006 220.87245 
L 82.174894 218.412114 
L 82.58731 218.067666 
L 82.999727 217.083532 
L 83.412144 216.542258 
L 83.824561 216.19781 
L 85.061812 213.934301 
L 85.474228 213.048579 
L 85.886645 212.802546 
L 86.711479 211.867618 
L 87.536313 211.277137 
L 87.94873 210.391416 
L 88.361146 210.293002 
L 89.18598 209.800935 
L 89.598397 209.554901 
L 90.423231 208.472353 
L 90.835648 208.324733 
L 91.248064 207.685045 
L 91.660481 206.651704 
L 92.072898 206.307256 
L 92.485315 206.110429 
L 93.310149 203.551679 
L 93.722565 202.665958 
L 94.959816 199.123073 
L 95.372233 199.073866 
L 96.609483 196.318289 
L 97.434317 194.399226 
L 98.259151 191.840476 
L 98.671568 191.496029 
L 99.083985 190.364274 
L 99.908818 189.281726 
L 100.321235 188.100764 
L 100.733652 187.903937 
L 101.146069 186.083288 
L 101.970903 185.984874 
L 102.383319 185.837254 
L 102.795736 184.705499 
L 103.208153 183.03247 
L 103.62057 182.540403 
L 104.032987 182.786436 
L 104.445404 183.918191 
L 104.85782 183.672158 
L 105.270237 183.672158 
L 105.682654 184.262638 
L 106.919905 180.867374 
L 107.744738 178.013383 
L 108.157155 177.275282 
L 108.569572 175.897493 
L 108.981989 176.045113 
L 109.394406 176.045113 
L 110.21924 174.667325 
L 110.631656 174.470498 
L 111.044073 173.732397 
L 112.281324 170.583166 
L 112.693741 170.140305 
L 113.106157 168.959343 
L 113.518574 168.122829 
L 114.343408 163.841843 
L 114.755825 163.792636 
L 115.168242 161.92278 
L 115.580659 161.037059 
L 116.405492 157.346553 
L 116.817909 155.033837 
L 117.230326 151.933812 
L 117.642743 152.229053 
L 118.879993 143.37184 
L 119.29241 141.600398 
L 119.704827 140.370229 
L 120.117244 137.516239 
L 120.529661 136.335277 
L 120.942078 132.890805 
L 121.354495 131.217776 
L 122.179328 122.40977 
L 122.591745 120.293881 
L 123.004162 116.504962 
L 123.416579 111.682702 
L 125.066246 99.184191 
L 125.478663 95.050825 
L 125.89108 93.525416 
L 126.303497 93.279382 
L 126.715914 89.588877 
L 127.12833 87.27616 
L 127.540747 84.27455 
L 127.953164 83.585655 
L 129.190415 74.137962 
L 130.015248 71.431591 
L 130.840082 67.888706 
L 131.252499 66.806158 
L 131.664916 65.280749 
L 132.077333 65.034715 
L 132.48975 64.345821 
L 132.902166 62.721999 
L 133.314583 61.934691 
L 133.727 61.737864 
L 134.139417 60.999763 
L 134.551834 60.507696 
L 134.964251 59.375941 
L 135.789084 58.096566 
L 136.613918 56.029883 
L 137.026335 55.734642 
L 137.438752 54.701301 
L 137.851169 54.455267 
L 138.263585 53.81558 
L 138.676002 54.40606 
L 139.088419 54.209233 
L 139.500836 52.979065 
L 139.913253 52.880652 
L 140.32567 53.126685 
L 140.738087 52.240964 
L 141.56292 51.060002 
L 141.975337 50.666348 
L 142.387754 50.863175 
L 143.212588 49.042526 
L 143.625005 49.091733 
L 144.037421 49.633007 
L 144.449838 49.879041 
L 144.862255 49.928247 
L 145.274672 49.5838 
L 145.687089 48.845699 
L 146.511922 48.402839 
L 146.924339 48.304425 
L 147.749173 46.926636 
L 148.574007 45.253607 
L 148.986424 44.023439 
L 149.39884 44.121852 
L 149.811257 44.515506 
L 150.636091 43.728199 
L 151.048508 43.629785 
L 151.460925 43.088511 
L 151.873342 42.891684 
L 152.285758 41.809136 
L 153.110592 40.726588 
L 154.347843 39.79166 
L 154.760259 39.053559 
L 155.172676 38.856732 
L 155.585093 38.266251 
L 156.822344 38.413871 
L 157.234761 38.118631 
L 157.647177 37.626563 
L 158.059594 37.38053 
L 158.472011 36.839255 
L 158.884428 36.790049 
L 160.121679 34.969399 
L 160.946512 34.575746 
L 161.358929 34.723366 
L 161.771346 34.231298 
L 162.59618 34.083678 
L 163.008597 34.378919 
L 163.421013 34.428125 
L 163.83343 33.936058 
L 164.245847 34.329712 
L 165.483098 33.985265 
L 165.895514 34.034471 
L 166.307931 33.739231 
L 166.720348 33.788438 
L 167.957599 35.018606 
L 168.370016 34.821779 
L 169.194849 35.067813 
L 169.607266 35.510674 
L 170.019683 35.510674 
L 170.4321 35.7075 
L 170.844517 35.7075 
L 171.66935 36.199568 
L 172.081767 35.756707 
L 173.319018 36.248775 
L 173.731435 36.347188 
L 174.556268 37.921804 
L 174.968685 38.118631 
L 175.381102 38.709111 
L 176.205936 38.955145 
L 176.618353 38.807525 
L 177.030769 39.398006 
L 177.443186 39.348799 
L 177.855603 39.447212 
L 178.26802 39.840866 
L 178.680437 39.693246 
L 179.505271 39.004352 
L 179.917687 38.807525 
L 180.330104 39.004352 
L 181.154938 38.758318 
L 181.567355 38.758318 
L 181.979772 38.561491 
L 182.804605 37.232909 
L 183.217022 36.150361 
L 183.629439 35.7075 
L 184.454273 35.7075 
L 185.279106 34.969399 
L 185.691523 35.018606 
L 186.10394 34.723366 
L 186.516357 34.870986 
L 187.341191 34.575746 
L 187.753608 34.575746 
L 188.166024 34.378919 
L 188.578441 34.329712 
L 188.990858 34.132885 
L 189.403275 34.182092 
L 189.815692 33.837644 
L 190.228109 33.690024 
L 191.052942 33.788438 
L 191.465359 33.394784 
L 191.877776 33.443991 
L 192.290193 33.29637 
L 192.70261 33.345577 
L 193.527444 32.755096 
L 193.93986 32.85351 
L 194.352277 33.14875 
L 196.001945 33.050337 
L 196.414361 33.099543 
L 196.826778 32.951923 
L 197.651612 33.247164 
L 198.888863 33.29637 
L 199.713696 33.197957 
L 200.126113 32.902716 
L 200.53853 33.14875 
L 200.950947 33.14875 
L 202.188197 32.804303 
L 203.837865 32.951923 
L 204.250282 32.85351 
L 205.487532 33.099543 
L 206.312366 33.00113 
L 207.1372 33.29637 
L 207.549616 33.739231 
L 207.962033 33.788438 
L 209.199284 34.477332 
L 209.611701 34.428125 
L 210.024118 34.624952 
L 210.848951 34.723366 
L 211.261368 34.624952 
L 211.673785 34.920193 
L 212.086202 35.067813 
L 212.911036 34.969399 
L 213.323452 34.821779 
L 213.735869 35.363053 
L 214.148286 35.461467 
L 214.560703 35.26464 
L 214.97312 35.363053 
L 215.385537 34.969399 
L 215.797954 34.870986 
L 216.622787 34.477332 
L 217.035204 34.428125 
L 217.447621 34.182092 
L 217.860038 34.182092 
L 218.272455 33.936058 
L 219.922122 33.542404 
L 220.334539 33.837644 
L 220.746956 33.640818 
L 221.159373 33.050337 
L 221.571789 33.14875 
L 222.396623 32.755096 
L 222.80904 32.902716 
L 224.046291 32.70589 
L 224.458707 32.509063 
L 225.283541 32.607476 
L 225.695958 32.804303 
L 226.108375 32.656683 
L 226.520792 32.70589 
L 227.345625 32.410649 
L 227.758042 32.213822 
L 229.820126 32.85351 
L 231.882211 33.29637 
L 233.119461 32.804303 
L 234.356712 33.00113 
L 235.181546 33.394784 
L 235.593962 33.29637 
L 236.006379 33.394784 
L 236.418796 33.099543 
L 237.24363 33.29637 
L 238.48088 33.099543 
L 240.542965 32.951923 
L 240.955381 32.951923 
L 241.367798 32.755096 
L 242.605049 32.70589 
L 243.017466 32.509063 
L 243.842299 32.902716 
L 246.729217 32.951923 
L 247.966468 33.591611 
L 249.616135 33.443991 
L 250.028552 33.14875 
L 250.440969 33.394784 
L 251.67822 32.85351 
L 252.090636 32.804303 
L 252.503053 32.607476 
L 254.565138 32.459856 
L 256.214805 32.85351 
L 256.627222 32.755096 
L 257.039639 32.85351 
L 257.452056 32.656683 
L 258.276889 32.804303 
L 258.276889 32.804303 
" style="fill:none;stroke:#55a868;stroke-linecap:round;stroke-width:1.75;"/>
   </g>
   <g id="patch_3">
    <path d="M 45.222344 243.549375 
L 45.222344 21.789375 
" style="fill:none;"/>
   </g>
   <g id="patch_4">
    <path d="M 268.422344 243.549375 
L 268.422344 21.789375 
" style="fill:none;"/>
   </g>
   <g id="patch_5">
    <path d="M 45.222344 243.549375 
L 268.422344 243.549375 
" style="fill:none;"/>
   </g>
   <g id="patch_6">
    <path d="M 45.222344 21.789375 
L 268.422344 21.789375 
" style="fill:none;"/>
   </g>
   <g id="text_15">
    <!-- Pong -->
    <defs>
     <path d="M 7.71875 0 
L 7.71875 71.578125 
L 34.71875 71.578125 
Q 41.84375 71.578125 45.609375 70.90625 
Q 50.875 70.015625 54.4375 67.546875 
Q 58.015625 65.09375 60.1875 60.640625 
Q 62.359375 56.203125 62.359375 50.875 
Q 62.359375 41.75 56.546875 35.421875 
Q 50.734375 29.109375 35.546875 29.109375 
L 17.1875 29.109375 
L 17.1875 0 
z
M 17.1875 37.546875 
L 35.6875 37.546875 
Q 44.875 37.546875 48.734375 40.96875 
Q 52.59375 44.390625 52.59375 50.59375 
Q 52.59375 55.078125 50.3125 58.265625 
Q 48.046875 61.46875 44.34375 62.5 
Q 41.9375 63.140625 35.5 63.140625 
L 17.1875 63.140625 
z
" id="ArialMT-80"/>
     <path d="M 3.328125 25.921875 
Q 3.328125 40.328125 11.328125 47.265625 
Q 18.015625 53.03125 27.640625 53.03125 
Q 38.328125 53.03125 45.109375 46.015625 
Q 51.90625 39.015625 51.90625 26.65625 
Q 51.90625 16.65625 48.90625 10.90625 
Q 45.90625 5.171875 40.15625 2 
Q 34.421875 -1.171875 27.640625 -1.171875 
Q 16.75 -1.171875 10.03125 5.8125 
Q 3.328125 12.796875 3.328125 25.921875 
z
M 12.359375 25.921875 
Q 12.359375 15.96875 16.703125 11.015625 
Q 21.046875 6.0625 27.640625 6.0625 
Q 34.1875 6.0625 38.53125 11.03125 
Q 42.875 16.015625 42.875 26.21875 
Q 42.875 35.84375 38.5 40.796875 
Q 34.125 45.75 27.640625 45.75 
Q 21.046875 45.75 16.703125 40.8125 
Q 12.359375 35.890625 12.359375 25.921875 
z
" id="ArialMT-111"/>
     <path d="M 4.984375 -4.296875 
L 13.53125 -5.5625 
Q 14.0625 -9.515625 16.5 -11.328125 
Q 19.78125 -13.765625 25.4375 -13.765625 
Q 31.546875 -13.765625 34.859375 -11.328125 
Q 38.1875 -8.890625 39.359375 -4.5 
Q 40.046875 -1.8125 39.984375 6.78125 
Q 34.234375 0 25.640625 0 
Q 14.9375 0 9.078125 7.71875 
Q 3.21875 15.4375 3.21875 26.21875 
Q 3.21875 33.640625 5.90625 39.90625 
Q 8.59375 46.1875 13.6875 49.609375 
Q 18.796875 53.03125 25.6875 53.03125 
Q 34.859375 53.03125 40.828125 45.609375 
L 40.828125 51.859375 
L 48.921875 51.859375 
L 48.921875 7.03125 
Q 48.921875 -5.078125 46.453125 -10.125 
Q 44 -15.1875 38.640625 -18.109375 
Q 33.296875 -21.046875 25.484375 -21.046875 
Q 16.21875 -21.046875 10.5 -16.875 
Q 4.78125 -12.703125 4.984375 -4.296875 
z
M 12.25 26.859375 
Q 12.25 16.65625 16.296875 11.96875 
Q 20.359375 7.28125 26.46875 7.28125 
Q 32.515625 7.28125 36.609375 11.9375 
Q 40.71875 16.609375 40.71875 26.5625 
Q 40.71875 36.078125 36.5 40.90625 
Q 32.28125 45.75 26.3125 45.75 
Q 20.453125 45.75 16.34375 40.984375 
Q 12.25 36.234375 12.25 26.859375 
z
" id="ArialMT-103"/>
    </defs>
    <g style="fill:#262626;" transform="translate(142.810469 15.789375)scale(0.12 -0.12)">
     <use xlink:href="#ArialMT-80"/>
     <use x="66.699219" xlink:href="#ArialMT-111"/>
     <use x="122.314453" xlink:href="#ArialMT-110"/>
     <use x="177.929688" xlink:href="#ArialMT-103"/>
    </g>
   </g>
   <g id="legend_1">
    <g id="line2d_25">
     <path d="M 174.734844 214.916562 
L 194.734844 214.916562 
" style="fill:none;stroke:#4c72b0;stroke-linecap:round;stroke-width:1.75;"/>
    </g>
    <g id="line2d_26"/>
    <g id="text_16">
     <!-- Vanilla DQN -->
     <defs>
      <path d="M 28.171875 0 
L 0.4375 71.578125 
L 10.6875 71.578125 
L 29.296875 19.578125 
Q 31.546875 13.328125 33.0625 7.859375 
Q 34.71875 13.71875 36.921875 19.578125 
L 56.25 71.578125 
L 65.921875 71.578125 
L 37.890625 0 
z
" id="ArialMT-86"/>
      <path d="M 6.390625 0 
L 6.390625 71.578125 
L 15.1875 71.578125 
L 15.1875 0 
z
" id="ArialMT-108"/>
      <path d="M 7.71875 0 
L 7.71875 71.578125 
L 32.375 71.578125 
Q 40.71875 71.578125 45.125 70.5625 
Q 51.265625 69.140625 55.609375 65.4375 
Q 61.28125 60.640625 64.078125 53.1875 
Q 66.890625 45.75 66.890625 36.1875 
Q 66.890625 28.03125 64.984375 21.734375 
Q 63.09375 15.4375 60.109375 11.296875 
Q 57.125 7.171875 53.578125 4.796875 
Q 50.046875 2.4375 45.046875 1.21875 
Q 40.046875 0 33.546875 0 
z
M 17.1875 8.453125 
L 32.46875 8.453125 
Q 39.546875 8.453125 43.578125 9.765625 
Q 47.609375 11.078125 50 13.484375 
Q 53.375 16.84375 55.25 22.53125 
Q 57.125 28.21875 57.125 36.328125 
Q 57.125 47.5625 53.4375 53.59375 
Q 49.75 59.625 44.484375 61.671875 
Q 40.671875 63.140625 32.234375 63.140625 
L 17.1875 63.140625 
z
" id="ArialMT-68"/>
      <path d="M 61.96875 7.671875 
Q 68.5625 3.125 74.125 1.03125 
L 71.34375 -5.5625 
Q 63.625 -2.78125 55.953125 3.21875 
Q 48 -1.21875 38.375 -1.21875 
Q 28.65625 -1.21875 20.75 3.46875 
Q 12.84375 8.15625 8.5625 16.640625 
Q 4.296875 25.140625 4.296875 35.796875 
Q 4.296875 46.390625 8.59375 55.078125 
Q 12.890625 63.765625 20.828125 68.3125 
Q 28.765625 72.859375 38.578125 72.859375 
Q 48.484375 72.859375 56.4375 68.140625 
Q 64.40625 63.421875 68.578125 54.953125 
Q 72.75 46.484375 72.75 35.84375 
Q 72.75 27 70.0625 19.9375 
Q 67.390625 12.890625 61.96875 7.671875 
z
M 41.109375 19.78125 
Q 49.3125 17.484375 54.640625 12.9375 
Q 62.984375 20.5625 62.984375 35.84375 
Q 62.984375 44.53125 60.03125 51.015625 
Q 57.078125 57.515625 51.390625 61.109375 
Q 45.703125 64.703125 38.625 64.703125 
Q 28.03125 64.703125 21.046875 57.453125 
Q 14.0625 50.203125 14.0625 35.796875 
Q 14.0625 21.828125 20.96875 14.359375 
Q 27.875 6.890625 38.625 6.890625 
Q 43.703125 6.890625 48.1875 8.796875 
Q 43.75 11.671875 38.8125 12.890625 
z
" id="ArialMT-81"/>
      <path d="M 7.625 0 
L 7.625 71.578125 
L 17.328125 71.578125 
L 54.9375 15.375 
L 54.9375 71.578125 
L 64.015625 71.578125 
L 64.015625 0 
L 54.296875 0 
L 16.703125 56.25 
L 16.703125 0 
z
" id="ArialMT-78"/>
     </defs>
     <g style="fill:#262626;" transform="translate(202.734844 218.416562)scale(0.1 -0.1)">
      <use xlink:href="#ArialMT-86"/>
      <use x="66.589844" xlink:href="#ArialMT-97"/>
      <use x="122.205078" xlink:href="#ArialMT-110"/>
      <use x="177.820312" xlink:href="#ArialMT-105"/>
      <use x="200.037109" xlink:href="#ArialMT-108"/>
      <use x="222.253906" xlink:href="#ArialMT-108"/>
      <use x="244.470703" xlink:href="#ArialMT-97"/>
      <use x="300.085938" xlink:href="#ArialMT-32"/>
      <use x="327.869141" xlink:href="#ArialMT-68"/>
      <use x="400.085938" xlink:href="#ArialMT-81"/>
      <use x="477.869141" xlink:href="#ArialMT-78"/>
     </g>
    </g>
    <g id="line2d_27">
     <path d="M 174.734844 229.061875 
L 194.734844 229.061875 
" style="fill:none;stroke:#55a868;stroke-linecap:round;stroke-width:1.75;"/>
    </g>
    <g id="line2d_28"/>
    <g id="text_17">
     <!-- Double DQN -->
     <defs>
      <path d="M 40.578125 0 
L 40.578125 7.625 
Q 34.515625 -1.171875 24.125 -1.171875 
Q 19.53125 -1.171875 15.546875 0.578125 
Q 11.578125 2.34375 9.640625 5 
Q 7.71875 7.671875 6.9375 11.53125 
Q 6.390625 14.109375 6.390625 19.734375 
L 6.390625 51.859375 
L 15.1875 51.859375 
L 15.1875 23.09375 
Q 15.1875 16.21875 15.71875 13.8125 
Q 16.546875 10.359375 19.234375 8.375 
Q 21.921875 6.390625 25.875 6.390625 
Q 29.828125 6.390625 33.296875 8.421875 
Q 36.765625 10.453125 38.203125 13.9375 
Q 39.65625 17.4375 39.65625 24.078125 
L 39.65625 51.859375 
L 48.4375 51.859375 
L 48.4375 0 
z
" id="ArialMT-117"/>
      <path d="M 14.703125 0 
L 6.546875 0 
L 6.546875 71.578125 
L 15.328125 71.578125 
L 15.328125 46.046875 
Q 20.90625 53.03125 29.546875 53.03125 
Q 34.328125 53.03125 38.59375 51.09375 
Q 42.875 49.171875 45.625 45.671875 
Q 48.390625 42.1875 49.953125 37.25 
Q 51.515625 32.328125 51.515625 26.703125 
Q 51.515625 13.375 44.921875 6.09375 
Q 38.328125 -1.171875 29.109375 -1.171875 
Q 19.921875 -1.171875 14.703125 6.5 
z
M 14.59375 26.3125 
Q 14.59375 17 17.140625 12.84375 
Q 21.296875 6.0625 28.375 6.0625 
Q 34.125 6.0625 38.328125 11.0625 
Q 42.53125 16.0625 42.53125 25.984375 
Q 42.53125 36.140625 38.5 40.96875 
Q 34.46875 45.796875 28.765625 45.796875 
Q 23 45.796875 18.796875 40.796875 
Q 14.59375 35.796875 14.59375 26.3125 
z
" id="ArialMT-98"/>
     </defs>
     <g style="fill:#262626;" transform="translate(202.734844 232.561875)scale(0.1 -0.1)">
      <use xlink:href="#ArialMT-68"/>
      <use x="72.216797" xlink:href="#ArialMT-111"/>
      <use x="127.832031" xlink:href="#ArialMT-117"/>
      <use x="183.447266" xlink:href="#ArialMT-98"/>
      <use x="239.0625" xlink:href="#ArialMT-108"/>
      <use x="261.279297" xlink:href="#ArialMT-101"/>
      <use x="316.894531" xlink:href="#ArialMT-32"/>
      <use x="344.677734" xlink:href="#ArialMT-68"/>
      <use x="416.894531" xlink:href="#ArialMT-81"/>
      <use x="494.677734" xlink:href="#ArialMT-78"/>
     </g>
    </g>
   </g>
  </g>
 </g>
 <defs>
  <clipPath id="p933ae958e4">
   <rect height="221.76" width="223.2" x="45.222344" y="21.789375"/>
  </clipPath>
 </defs>
</svg>
