<?xml version="1.0" encoding="utf-8" standalone="no"?>
<!DOCTYPE svg PUBLIC "-//W3C//DTD SVG 1.1//EN"
  "http://www.w3.org/Graphics/SVG/1.1/DTD/svg11.dtd">
<!-- Created with matplotlib (https://matplotlib.org/) -->
<svg height="280.954531pt" version="1.1" viewBox="0 0 275.622344 280.954531" width="275.622344pt" xmlns="http://www.w3.org/2000/svg" xmlns:xlink="http://www.w3.org/1999/xlink">
 <defs>
  <style type="text/css">
*{stroke-linecap:butt;stroke-linejoin:round;}
  </style>
 </defs>
 <g id="figure_1">
  <g id="patch_1">
   <path d="M 0 280.954531 
L 275.622344 280.954531 
L 275.622344 0 
L 0 0 
z
" style="fill:#ffffff;"/>
  </g>
  <g id="axes_1">
   <g id="patch_2">
    <path d="M 45.222344 243.549375 
L 268.422344 243.549375 
L 268.422344 21.789375 
L 45.222344 21.789375 
z
" style="fill:#eaeaf2;"/>
   </g>
   <g id="matplotlib.axis_1">
    <g id="xtick_1">
     <g id="line2d_1">
      <path clip-path="url(#p54f6e8947d)" d="M 52.893297 243.549375 
L 52.893297 21.789375 
" style="fill:none;stroke:#ffffff;stroke-linecap:round;"/>
     </g>
     <g id="line2d_2"/>
     <g id="text_1">
      <!-- 0 -->
      <defs>
       <path d="M 4.15625 35.296875 
Q 4.15625 48 6.765625 55.734375 
Q 9.375 63.484375 14.515625 67.671875 
Q 19.671875 71.875 27.484375 71.875 
Q 33.25 71.875 37.59375 69.546875 
Q 41.9375 67.234375 44.765625 62.859375 
Q 47.609375 58.5 49.21875 52.21875 
Q 50.828125 45.953125 50.828125 35.296875 
Q 50.828125 22.703125 48.234375 14.96875 
Q 45.65625 7.234375 40.5 3 
Q 35.359375 -1.21875 27.484375 -1.21875 
Q 17.140625 -1.21875 11.234375 6.203125 
Q 4.15625 15.140625 4.15625 35.296875 
z
M 13.1875 35.296875 
Q 13.1875 17.671875 17.3125 11.828125 
Q 21.4375 6 27.484375 6 
Q 33.546875 6 37.671875 11.859375 
Q 41.796875 17.71875 41.796875 35.296875 
Q 41.796875 52.984375 37.671875 58.78125 
Q 33.546875 64.59375 27.390625 64.59375 
Q 21.34375 64.59375 17.71875 59.46875 
Q 13.1875 52.9375 13.1875 35.296875 
z
" id="ArialMT-48"/>
      </defs>
      <g style="fill:#262626;" transform="translate(50.112828 257.707187)scale(0.1 -0.1)">
       <use xlink:href="#ArialMT-48"/>
      </g>
     </g>
    </g>
    <g id="xtick_2">
     <g id="line2d_3">
      <path clip-path="url(#p54f6e8947d)" d="M 94.134982 243.549375 
L 94.134982 21.789375 
" style="fill:none;stroke:#ffffff;stroke-linecap:round;"/>
     </g>
     <g id="line2d_4"/>
     <g id="text_2">
      <!-- 1 -->
      <defs>
       <path d="M 37.25 0 
L 28.46875 0 
L 28.46875 56 
Q 25.296875 52.984375 20.140625 49.953125 
Q 14.984375 46.921875 10.890625 45.40625 
L 10.890625 53.90625 
Q 18.265625 57.375 23.78125 62.296875 
Q 29.296875 67.234375 31.59375 71.875 
L 37.25 71.875 
z
" id="ArialMT-49"/>
      </defs>
      <g style="fill:#262626;" transform="translate(91.354514 257.707187)scale(0.1 -0.1)">
       <use xlink:href="#ArialMT-49"/>
      </g>
     </g>
    </g>
    <g id="xtick_3">
     <g id="line2d_5">
      <path clip-path="url(#p54f6e8947d)" d="M 135.376667 243.549375 
L 135.376667 21.789375 
" style="fill:none;stroke:#ffffff;stroke-linecap:round;"/>
     </g>
     <g id="line2d_6"/>
     <g id="text_3">
      <!-- 2 -->
      <defs>
       <path d="M 50.34375 8.453125 
L 50.34375 0 
L 3.03125 0 
Q 2.9375 3.171875 4.046875 6.109375 
Q 5.859375 10.9375 9.828125 15.625 
Q 13.8125 20.3125 21.34375 26.46875 
Q 33.015625 36.03125 37.109375 41.625 
Q 41.21875 47.21875 41.21875 52.203125 
Q 41.21875 57.421875 37.46875 61 
Q 33.734375 64.59375 27.734375 64.59375 
Q 21.390625 64.59375 17.578125 60.78125 
Q 13.765625 56.984375 13.71875 50.25 
L 4.6875 51.171875 
Q 5.609375 61.28125 11.65625 66.578125 
Q 17.71875 71.875 27.9375 71.875 
Q 38.234375 71.875 44.234375 66.15625 
Q 50.25 60.453125 50.25 52 
Q 50.25 47.703125 48.484375 43.546875 
Q 46.734375 39.40625 42.65625 34.8125 
Q 38.578125 30.21875 29.109375 22.21875 
Q 21.1875 15.578125 18.9375 13.203125 
Q 16.703125 10.84375 15.234375 8.453125 
z
" id="ArialMT-50"/>
      </defs>
      <g style="fill:#262626;" transform="translate(132.596199 257.707187)scale(0.1 -0.1)">
       <use xlink:href="#ArialMT-50"/>
      </g>
     </g>
    </g>
    <g id="xtick_4">
     <g id="line2d_7">
      <path clip-path="url(#p54f6e8947d)" d="M 176.618353 243.549375 
L 176.618353 21.789375 
" style="fill:none;stroke:#ffffff;stroke-linecap:round;"/>
     </g>
     <g id="line2d_8"/>
     <g id="text_4">
      <!-- 3 -->
      <defs>
       <path d="M 4.203125 18.890625 
L 12.984375 20.0625 
Q 14.5 12.59375 18.140625 9.296875 
Q 21.78125 6 27 6 
Q 33.203125 6 37.46875 10.296875 
Q 41.75 14.59375 41.75 20.953125 
Q 41.75 27 37.796875 30.921875 
Q 33.84375 34.859375 27.734375 34.859375 
Q 25.25 34.859375 21.53125 33.890625 
L 22.515625 41.609375 
Q 23.390625 41.5 23.921875 41.5 
Q 29.546875 41.5 34.03125 44.421875 
Q 38.53125 47.359375 38.53125 53.46875 
Q 38.53125 58.296875 35.25 61.46875 
Q 31.984375 64.65625 26.8125 64.65625 
Q 21.6875 64.65625 18.265625 61.421875 
Q 14.84375 58.203125 13.875 51.765625 
L 5.078125 53.328125 
Q 6.6875 62.15625 12.390625 67.015625 
Q 18.109375 71.875 26.609375 71.875 
Q 32.46875 71.875 37.390625 69.359375 
Q 42.328125 66.84375 44.9375 62.5 
Q 47.5625 58.15625 47.5625 53.265625 
Q 47.5625 48.640625 45.0625 44.828125 
Q 42.578125 41.015625 37.703125 38.765625 
Q 44.046875 37.3125 47.5625 32.6875 
Q 51.078125 28.078125 51.078125 21.140625 
Q 51.078125 11.765625 44.234375 5.25 
Q 37.40625 -1.265625 26.953125 -1.265625 
Q 17.53125 -1.265625 11.296875 4.34375 
Q 5.078125 9.96875 4.203125 18.890625 
z
" id="ArialMT-51"/>
      </defs>
      <g style="fill:#262626;" transform="translate(173.837884 257.707187)scale(0.1 -0.1)">
       <use xlink:href="#ArialMT-51"/>
      </g>
     </g>
    </g>
    <g id="xtick_5">
     <g id="line2d_9">
      <path clip-path="url(#p54f6e8947d)" d="M 217.860038 243.549375 
L 217.860038 21.789375 
" style="fill:none;stroke:#ffffff;stroke-linecap:round;"/>
     </g>
     <g id="line2d_10"/>
     <g id="text_5">
      <!-- 4 -->
      <defs>
       <path d="M 32.328125 0 
L 32.328125 17.140625 
L 1.265625 17.140625 
L 1.265625 25.203125 
L 33.9375 71.578125 
L 41.109375 71.578125 
L 41.109375 25.203125 
L 50.78125 25.203125 
L 50.78125 17.140625 
L 41.109375 17.140625 
L 41.109375 0 
z
M 32.328125 25.203125 
L 32.328125 57.46875 
L 9.90625 25.203125 
z
" id="ArialMT-52"/>
      </defs>
      <g style="fill:#262626;" transform="translate(215.079569 257.707187)scale(0.1 -0.1)">
       <use xlink:href="#ArialMT-52"/>
      </g>
     </g>
    </g>
    <g id="xtick_6">
     <g id="line2d_11">
      <path clip-path="url(#p54f6e8947d)" d="M 259.101723 243.549375 
L 259.101723 21.789375 
" style="fill:none;stroke:#ffffff;stroke-linecap:round;"/>
     </g>
     <g id="line2d_12"/>
     <g id="text_6">
      <!-- 5 -->
      <defs>
       <path d="M 4.15625 18.75 
L 13.375 19.53125 
Q 14.40625 12.796875 18.140625 9.390625 
Q 21.875 6 27.15625 6 
Q 33.5 6 37.890625 10.78125 
Q 42.28125 15.578125 42.28125 23.484375 
Q 42.28125 31 38.0625 35.34375 
Q 33.84375 39.703125 27 39.703125 
Q 22.75 39.703125 19.328125 37.765625 
Q 15.921875 35.84375 13.96875 32.765625 
L 5.71875 33.84375 
L 12.640625 70.609375 
L 48.25 70.609375 
L 48.25 62.203125 
L 19.671875 62.203125 
L 15.828125 42.96875 
Q 22.265625 47.46875 29.34375 47.46875 
Q 38.71875 47.46875 45.15625 40.96875 
Q 51.609375 34.46875 51.609375 24.265625 
Q 51.609375 14.546875 45.953125 7.46875 
Q 39.0625 -1.21875 27.15625 -1.21875 
Q 17.390625 -1.21875 11.203125 4.25 
Q 5.03125 9.71875 4.15625 18.75 
z
" id="ArialMT-53"/>
      </defs>
      <g style="fill:#262626;" transform="translate(256.321254 257.707187)scale(0.1 -0.1)">
       <use xlink:href="#ArialMT-53"/>
      </g>
     </g>
    </g>
    <g id="text_7">
     <!-- Timestep -->
     <defs>
      <path d="M 25.921875 0 
L 25.921875 63.140625 
L 2.34375 63.140625 
L 2.34375 71.578125 
L 59.078125 71.578125 
L 59.078125 63.140625 
L 35.40625 63.140625 
L 35.40625 0 
z
" id="ArialMT-84"/>
      <path d="M 6.640625 61.46875 
L 6.640625 71.578125 
L 15.4375 71.578125 
L 15.4375 61.46875 
z
M 6.640625 0 
L 6.640625 51.859375 
L 15.4375 51.859375 
L 15.4375 0 
z
" id="ArialMT-105"/>
      <path d="M 6.59375 0 
L 6.59375 51.859375 
L 14.453125 51.859375 
L 14.453125 44.578125 
Q 16.890625 48.390625 20.9375 50.703125 
Q 25 53.03125 30.171875 53.03125 
Q 35.9375 53.03125 39.625 50.640625 
Q 43.3125 48.25 44.828125 43.953125 
Q 50.984375 53.03125 60.84375 53.03125 
Q 68.5625 53.03125 72.703125 48.75 
Q 76.859375 44.484375 76.859375 35.59375 
L 76.859375 0 
L 68.109375 0 
L 68.109375 32.671875 
Q 68.109375 37.9375 67.25 40.25 
Q 66.40625 42.578125 64.15625 43.984375 
Q 61.921875 45.40625 58.890625 45.40625 
Q 53.421875 45.40625 49.796875 41.765625 
Q 46.1875 38.140625 46.1875 30.125 
L 46.1875 0 
L 37.40625 0 
L 37.40625 33.6875 
Q 37.40625 39.546875 35.25 42.46875 
Q 33.109375 45.40625 28.21875 45.40625 
Q 24.515625 45.40625 21.359375 43.453125 
Q 18.21875 41.5 16.796875 37.734375 
Q 15.375 33.984375 15.375 26.90625 
L 15.375 0 
z
" id="ArialMT-109"/>
      <path d="M 42.09375 16.703125 
L 51.171875 15.578125 
Q 49.03125 7.625 43.21875 3.21875 
Q 37.40625 -1.171875 28.375 -1.171875 
Q 17 -1.171875 10.328125 5.828125 
Q 3.65625 12.84375 3.65625 25.484375 
Q 3.65625 38.578125 10.390625 45.796875 
Q 17.140625 53.03125 27.875 53.03125 
Q 38.28125 53.03125 44.875 45.953125 
Q 51.46875 38.875 51.46875 26.03125 
Q 51.46875 25.25 51.421875 23.6875 
L 12.75 23.6875 
Q 13.234375 15.140625 17.578125 10.59375 
Q 21.921875 6.0625 28.421875 6.0625 
Q 33.25 6.0625 36.671875 8.59375 
Q 40.09375 11.140625 42.09375 16.703125 
z
M 13.234375 30.90625 
L 42.1875 30.90625 
Q 41.609375 37.453125 38.875 40.71875 
Q 34.671875 45.796875 27.984375 45.796875 
Q 21.921875 45.796875 17.796875 41.75 
Q 13.671875 37.703125 13.234375 30.90625 
z
" id="ArialMT-101"/>
      <path d="M 3.078125 15.484375 
L 11.765625 16.84375 
Q 12.5 11.625 15.84375 8.84375 
Q 19.1875 6.0625 25.203125 6.0625 
Q 31.25 6.0625 34.171875 8.515625 
Q 37.109375 10.984375 37.109375 14.3125 
Q 37.109375 17.28125 34.515625 19 
Q 32.71875 20.171875 25.53125 21.96875 
Q 15.875 24.421875 12.140625 26.203125 
Q 8.40625 27.984375 6.46875 31.125 
Q 4.546875 34.28125 4.546875 38.09375 
Q 4.546875 41.546875 6.125 44.5 
Q 7.71875 47.46875 10.453125 49.421875 
Q 12.5 50.921875 16.03125 51.96875 
Q 19.578125 53.03125 23.640625 53.03125 
Q 29.734375 53.03125 34.34375 51.265625 
Q 38.96875 49.515625 41.15625 46.5 
Q 43.359375 43.5 44.1875 38.484375 
L 35.59375 37.3125 
Q 35.015625 41.3125 32.203125 43.546875 
Q 29.390625 45.796875 24.265625 45.796875 
Q 18.21875 45.796875 15.625 43.796875 
Q 13.03125 41.796875 13.03125 39.109375 
Q 13.03125 37.40625 14.109375 36.03125 
Q 15.1875 34.625 17.484375 33.6875 
Q 18.796875 33.203125 25.25 31.453125 
Q 34.578125 28.953125 38.25 27.359375 
Q 41.9375 25.78125 44.03125 22.75 
Q 46.140625 19.734375 46.140625 15.234375 
Q 46.140625 10.84375 43.578125 6.953125 
Q 41.015625 3.078125 36.171875 0.953125 
Q 31.34375 -1.171875 25.25 -1.171875 
Q 15.140625 -1.171875 9.84375 3.03125 
Q 4.546875 7.234375 3.078125 15.484375 
z
" id="ArialMT-115"/>
      <path d="M 25.78125 7.859375 
L 27.046875 0.09375 
Q 23.34375 -0.6875 20.40625 -0.6875 
Q 15.625 -0.6875 12.984375 0.828125 
Q 10.359375 2.34375 9.28125 4.8125 
Q 8.203125 7.28125 8.203125 15.1875 
L 8.203125 45.015625 
L 1.765625 45.015625 
L 1.765625 51.859375 
L 8.203125 51.859375 
L 8.203125 64.703125 
L 16.9375 69.96875 
L 16.9375 51.859375 
L 25.78125 51.859375 
L 25.78125 45.015625 
L 16.9375 45.015625 
L 16.9375 14.703125 
Q 16.9375 10.9375 17.40625 9.859375 
Q 17.875 8.796875 18.921875 8.15625 
Q 19.96875 7.515625 21.921875 7.515625 
Q 23.390625 7.515625 25.78125 7.859375 
z
" id="ArialMT-116"/>
      <path d="M 6.59375 -19.875 
L 6.59375 51.859375 
L 14.59375 51.859375 
L 14.59375 45.125 
Q 17.4375 49.078125 21 51.046875 
Q 24.5625 53.03125 29.640625 53.03125 
Q 36.28125 53.03125 41.359375 49.609375 
Q 46.4375 46.1875 49.015625 39.953125 
Q 51.609375 33.734375 51.609375 26.3125 
Q 51.609375 18.359375 48.75 11.984375 
Q 45.90625 5.609375 40.453125 2.21875 
Q 35.015625 -1.171875 29 -1.171875 
Q 24.609375 -1.171875 21.109375 0.6875 
Q 17.625 2.546875 15.375 5.375 
L 15.375 -19.875 
z
M 14.546875 25.640625 
Q 14.546875 15.625 18.59375 10.84375 
Q 22.65625 6.0625 28.421875 6.0625 
Q 34.28125 6.0625 38.453125 11.015625 
Q 42.625 15.96875 42.625 26.375 
Q 42.625 36.28125 38.546875 41.203125 
Q 34.46875 46.140625 28.8125 46.140625 
Q 23.1875 46.140625 18.859375 40.890625 
Q 14.546875 35.640625 14.546875 25.640625 
z
" id="ArialMT-112"/>
     </defs>
     <g style="fill:#262626;" transform="translate(134.20875 271.568281)scale(0.11 -0.11)">
      <use xlink:href="#ArialMT-84"/>
      <use x="61.037109" xlink:href="#ArialMT-105"/>
      <use x="83.253906" xlink:href="#ArialMT-109"/>
      <use x="166.554688" xlink:href="#ArialMT-101"/>
      <use x="222.169922" xlink:href="#ArialMT-115"/>
      <use x="272.169922" xlink:href="#ArialMT-116"/>
      <use x="299.953125" xlink:href="#ArialMT-101"/>
      <use x="355.568359" xlink:href="#ArialMT-112"/>
     </g>
    </g>
    <g id="text_8">
     <!-- 1e6 -->
     <defs>
      <path d="M 49.75 54.046875 
L 41.015625 53.375 
Q 39.84375 58.546875 37.703125 60.890625 
Q 34.125 64.65625 28.90625 64.65625 
Q 24.703125 64.65625 21.53125 62.3125 
Q 17.390625 59.28125 14.984375 53.46875 
Q 12.59375 47.65625 12.5 36.921875 
Q 15.671875 41.75 20.265625 44.09375 
Q 24.859375 46.4375 29.890625 46.4375 
Q 38.671875 46.4375 44.84375 39.96875 
Q 51.03125 33.5 51.03125 23.25 
Q 51.03125 16.5 48.125 10.71875 
Q 45.21875 4.9375 40.140625 1.859375 
Q 35.0625 -1.21875 28.609375 -1.21875 
Q 17.625 -1.21875 10.6875 6.859375 
Q 3.765625 14.9375 3.765625 33.5 
Q 3.765625 54.25 11.421875 63.671875 
Q 18.109375 71.875 29.4375 71.875 
Q 37.890625 71.875 43.28125 67.140625 
Q 48.6875 62.40625 49.75 54.046875 
z
M 13.875 23.1875 
Q 13.875 18.65625 15.796875 14.5 
Q 17.71875 10.359375 21.1875 8.171875 
Q 24.65625 6 28.46875 6 
Q 34.03125 6 38.03125 10.484375 
Q 42.046875 14.984375 42.046875 22.703125 
Q 42.046875 30.125 38.078125 34.390625 
Q 34.125 38.671875 28.125 38.671875 
Q 22.171875 38.671875 18.015625 34.390625 
Q 13.875 30.125 13.875 23.1875 
z
" id="ArialMT-54"/>
     </defs>
     <g style="fill:#262626;" transform="translate(251.739531 269.8525)scale(0.1 -0.1)">
      <use xlink:href="#ArialMT-49"/>
      <use x="55.615234" xlink:href="#ArialMT-101"/>
      <use x="111.230469" xlink:href="#ArialMT-54"/>
     </g>
    </g>
   </g>
   <g id="matplotlib.axis_2">
    <g id="ytick_1">
     <g id="line2d_13">
      <path clip-path="url(#p54f6e8947d)" d="M 45.222344 231.265829 
L 268.422344 231.265829 
" style="fill:none;stroke:#ffffff;stroke-linecap:round;"/>
     </g>
     <g id="line2d_14"/>
     <g id="text_9">
      <!-- −20 -->
      <defs>
       <path d="M 52.828125 31.203125 
L 5.5625 31.203125 
L 5.5625 39.40625 
L 52.828125 39.40625 
z
" id="ArialMT-8722"/>
      </defs>
      <g style="fill:#262626;" transform="translate(21.259844 234.844735)scale(0.1 -0.1)">
       <use xlink:href="#ArialMT-8722"/>
       <use x="58.398438" xlink:href="#ArialMT-50"/>
       <use x="114.013672" xlink:href="#ArialMT-48"/>
      </g>
     </g>
    </g>
    <g id="ytick_2">
     <g id="line2d_15">
      <path clip-path="url(#p54f6e8947d)" d="M 45.222344 182.298134 
L 268.422344 182.298134 
" style="fill:none;stroke:#ffffff;stroke-linecap:round;"/>
     </g>
     <g id="line2d_16"/>
     <g id="text_10">
      <!-- −10 -->
      <g style="fill:#262626;" transform="translate(21.259844 185.87704)scale(0.1 -0.1)">
       <use xlink:href="#ArialMT-8722"/>
       <use x="58.398438" xlink:href="#ArialMT-49"/>
       <use x="114.013672" xlink:href="#ArialMT-48"/>
      </g>
     </g>
    </g>
    <g id="ytick_3">
     <g id="line2d_17">
      <path clip-path="url(#p54f6e8947d)" d="M 45.222344 133.330439 
L 268.422344 133.330439 
" style="fill:none;stroke:#ffffff;stroke-linecap:round;"/>
     </g>
     <g id="line2d_18"/>
     <g id="text_11">
      <!-- 0 -->
      <g style="fill:#262626;" transform="translate(32.661406 136.909345)scale(0.1 -0.1)">
       <use xlink:href="#ArialMT-48"/>
      </g>
     </g>
    </g>
    <g id="ytick_4">
     <g id="line2d_19">
      <path clip-path="url(#p54f6e8947d)" d="M 45.222344 84.362744 
L 268.422344 84.362744 
" style="fill:none;stroke:#ffffff;stroke-linecap:round;"/>
     </g>
     <g id="line2d_20"/>
     <g id="text_12">
      <!-- 10 -->
      <g style="fill:#262626;" transform="translate(27.100469 87.94165)scale(0.1 -0.1)">
       <use xlink:href="#ArialMT-49"/>
       <use x="55.615234" xlink:href="#ArialMT-48"/>
      </g>
     </g>
    </g>
    <g id="ytick_5">
     <g id="line2d_21">
      <path clip-path="url(#p54f6e8947d)" d="M 45.222344 35.395049 
L 268.422344 35.395049 
" style="fill:none;stroke:#ffffff;stroke-linecap:round;"/>
     </g>
     <g id="line2d_22"/>
     <g id="text_13">
      <!-- 20 -->
      <g style="fill:#262626;" transform="translate(27.100469 38.973955)scale(0.1 -0.1)">
       <use xlink:href="#ArialMT-50"/>
       <use x="55.615234" xlink:href="#ArialMT-48"/>
      </g>
     </g>
    </g>
    <g id="text_14">
     <!-- Mean Reward -->
     <defs>
      <path d="M 7.421875 0 
L 7.421875 71.578125 
L 21.6875 71.578125 
L 38.625 20.90625 
Q 40.96875 13.8125 42.046875 10.296875 
Q 43.265625 14.203125 45.84375 21.78125 
L 62.984375 71.578125 
L 75.734375 71.578125 
L 75.734375 0 
L 66.609375 0 
L 66.609375 59.90625 
L 45.796875 0 
L 37.25 0 
L 16.546875 60.9375 
L 16.546875 0 
z
" id="ArialMT-77"/>
      <path d="M 40.4375 6.390625 
Q 35.546875 2.25 31.03125 0.53125 
Q 26.515625 -1.171875 21.34375 -1.171875 
Q 12.796875 -1.171875 8.203125 3 
Q 3.609375 7.171875 3.609375 13.671875 
Q 3.609375 17.484375 5.34375 20.625 
Q 7.078125 23.78125 9.890625 25.6875 
Q 12.703125 27.59375 16.21875 28.5625 
Q 18.796875 29.25 24.03125 29.890625 
Q 34.671875 31.15625 39.703125 32.90625 
Q 39.75 34.71875 39.75 35.203125 
Q 39.75 40.578125 37.25 42.78125 
Q 33.890625 45.75 27.25 45.75 
Q 21.046875 45.75 18.09375 43.578125 
Q 15.140625 41.40625 13.71875 35.890625 
L 5.125 37.0625 
Q 6.296875 42.578125 8.984375 45.96875 
Q 11.671875 49.359375 16.75 51.1875 
Q 21.828125 53.03125 28.515625 53.03125 
Q 35.15625 53.03125 39.296875 51.46875 
Q 43.453125 49.90625 45.40625 47.53125 
Q 47.359375 45.171875 48.140625 41.546875 
Q 48.578125 39.3125 48.578125 33.453125 
L 48.578125 21.734375 
Q 48.578125 9.46875 49.140625 6.21875 
Q 49.703125 2.984375 51.375 0 
L 42.1875 0 
Q 40.828125 2.734375 40.4375 6.390625 
z
M 39.703125 26.03125 
Q 34.90625 24.078125 25.34375 22.703125 
Q 19.921875 21.921875 17.671875 20.9375 
Q 15.4375 19.96875 14.203125 18.09375 
Q 12.984375 16.21875 12.984375 13.921875 
Q 12.984375 10.40625 15.640625 8.0625 
Q 18.3125 5.71875 23.4375 5.71875 
Q 28.515625 5.71875 32.46875 7.9375 
Q 36.421875 10.15625 38.28125 14.015625 
Q 39.703125 17 39.703125 22.796875 
z
" id="ArialMT-97"/>
      <path d="M 6.59375 0 
L 6.59375 51.859375 
L 14.5 51.859375 
L 14.5 44.484375 
Q 20.21875 53.03125 31 53.03125 
Q 35.6875 53.03125 39.625 51.34375 
Q 43.5625 49.65625 45.515625 46.921875 
Q 47.46875 44.1875 48.25 40.4375 
Q 48.734375 37.984375 48.734375 31.890625 
L 48.734375 0 
L 39.9375 0 
L 39.9375 31.546875 
Q 39.9375 36.921875 38.90625 39.578125 
Q 37.890625 42.234375 35.28125 43.8125 
Q 32.671875 45.40625 29.15625 45.40625 
Q 23.53125 45.40625 19.453125 41.84375 
Q 15.375 38.28125 15.375 28.328125 
L 15.375 0 
z
" id="ArialMT-110"/>
      <path id="ArialMT-32"/>
      <path d="M 7.859375 0 
L 7.859375 71.578125 
L 39.59375 71.578125 
Q 49.171875 71.578125 54.140625 69.640625 
Q 59.125 67.71875 62.109375 62.828125 
Q 65.09375 57.953125 65.09375 52.046875 
Q 65.09375 44.4375 60.15625 39.203125 
Q 55.21875 33.984375 44.921875 32.5625 
Q 48.6875 30.765625 50.640625 29 
Q 54.78125 25.203125 58.5 19.484375 
L 70.953125 0 
L 59.03125 0 
L 49.5625 14.890625 
Q 45.40625 21.34375 42.71875 24.75 
Q 40.046875 28.171875 37.921875 29.53125 
Q 35.796875 30.90625 33.59375 31.453125 
Q 31.984375 31.78125 28.328125 31.78125 
L 17.328125 31.78125 
L 17.328125 0 
z
M 17.328125 39.984375 
L 37.703125 39.984375 
Q 44.1875 39.984375 47.84375 41.328125 
Q 51.515625 42.671875 53.421875 45.625 
Q 55.328125 48.578125 55.328125 52.046875 
Q 55.328125 57.125 51.640625 60.390625 
Q 47.953125 63.671875 39.984375 63.671875 
L 17.328125 63.671875 
z
" id="ArialMT-82"/>
      <path d="M 16.15625 0 
L 0.296875 51.859375 
L 9.375 51.859375 
L 17.625 21.921875 
L 20.703125 10.796875 
Q 20.90625 11.625 23.390625 21.484375 
L 31.640625 51.859375 
L 40.671875 51.859375 
L 48.4375 21.78125 
L 51.03125 11.859375 
L 54 21.875 
L 62.890625 51.859375 
L 71.4375 51.859375 
L 55.21875 0 
L 46.09375 0 
L 37.84375 31.0625 
L 35.84375 39.890625 
L 25.34375 0 
z
" id="ArialMT-119"/>
      <path d="M 6.5 0 
L 6.5 51.859375 
L 14.40625 51.859375 
L 14.40625 44 
Q 17.4375 49.515625 20 51.265625 
Q 22.5625 53.03125 25.640625 53.03125 
Q 30.078125 53.03125 34.671875 50.203125 
L 31.640625 42.046875 
Q 28.421875 43.953125 25.203125 43.953125 
Q 22.3125 43.953125 20.015625 42.21875 
Q 17.71875 40.484375 16.75 37.40625 
Q 15.28125 32.71875 15.28125 27.15625 
L 15.28125 0 
z
" id="ArialMT-114"/>
      <path d="M 40.234375 0 
L 40.234375 6.546875 
Q 35.296875 -1.171875 25.734375 -1.171875 
Q 19.53125 -1.171875 14.328125 2.25 
Q 9.125 5.671875 6.265625 11.796875 
Q 3.421875 17.921875 3.421875 25.875 
Q 3.421875 33.640625 6 39.96875 
Q 8.59375 46.296875 13.765625 49.65625 
Q 18.953125 53.03125 25.34375 53.03125 
Q 30.03125 53.03125 33.6875 51.046875 
Q 37.359375 49.078125 39.65625 45.90625 
L 39.65625 71.578125 
L 48.390625 71.578125 
L 48.390625 0 
z
M 12.453125 25.875 
Q 12.453125 15.921875 16.640625 10.984375 
Q 20.84375 6.0625 26.5625 6.0625 
Q 32.328125 6.0625 36.34375 10.765625 
Q 40.375 15.484375 40.375 25.140625 
Q 40.375 35.796875 36.265625 40.765625 
Q 32.171875 45.75 26.171875 45.75 
Q 20.3125 45.75 16.375 40.96875 
Q 12.453125 36.1875 12.453125 25.875 
z
" id="ArialMT-100"/>
     </defs>
     <g style="fill:#262626;" transform="translate(15.073594 166.905156)rotate(-90)scale(0.11 -0.11)">
      <use xlink:href="#ArialMT-77"/>
      <use x="83.300781" xlink:href="#ArialMT-101"/>
      <use x="138.916016" xlink:href="#ArialMT-97"/>
      <use x="194.53125" xlink:href="#ArialMT-110"/>
      <use x="250.146484" xlink:href="#ArialMT-32"/>
      <use x="277.929688" xlink:href="#ArialMT-82"/>
      <use x="350.146484" xlink:href="#ArialMT-101"/>
      <use x="405.761719" xlink:href="#ArialMT-119"/>
      <use x="477.978516" xlink:href="#ArialMT-97"/>
      <use x="533.59375" xlink:href="#ArialMT-114"/>
      <use x="566.894531" xlink:href="#ArialMT-100"/>
     </g>
    </g>
   </g>
   <g id="line2d_23">
    <path clip-path="url(#p54f6e8947d)" d="M 55.367798 232.872581 
L 56.605049 233.264509 
L 57.017466 233.077633 
L 57.429883 233.420407 
L 57.842299 233.273504 
L 58.254716 232.93073 
L 58.667133 232.979698 
L 59.491967 232.832795 
L 59.904384 232.538989 
L 60.316801 232.441053 
L 60.729217 232.147247 
L 61.141634 232.147247 
L 61.554051 231.510667 
L 61.966468 231.118926 
L 62.378885 231.118926 
L 62.791302 230.629249 
L 63.203718 230.629249 
L 63.616135 229.74783 
L 64.028552 229.209186 
L 64.440969 229.013315 
L 64.853386 228.621573 
L 65.265803 228.033961 
L 65.67822 227.152542 
L 66.090636 226.613898 
L 66.503053 226.466995 
L 66.91547 226.173188 
L 67.327887 225.487641 
L 68.152721 224.704158 
L 69.389971 223.088224 
L 70.214805 222.10887 
L 71.039639 221.619193 
L 73.101723 220.101194 
L 73.51414 220.150162 
L 73.926557 219.366679 
L 74.338973 218.974937 
L 74.75139 218.779067 
L 75.163807 219.464614 
L 75.576224 219.56255 
L 75.988641 219.464614 
L 76.401058 219.023905 
L 76.813475 219.072873 
L 77.225891 218.436293 
L 78.050725 218.240422 
L 78.463142 218.191454 
L 79.287976 217.65281 
L 79.700393 217.163133 
L 80.112809 216.330682 
L 81.35006 214.861651 
L 81.762477 214.274039 
L 82.58731 212.217395 
L 84.649395 207.173723 
L 85.061812 206.439207 
L 85.886645 204.67637 
L 86.299062 202.864566 
L 86.711479 202.032115 
L 87.123896 200.709987 
L 87.536313 198.996118 
L 87.94873 198.261602 
L 88.361146 196.792572 
L 88.773563 196.645668 
L 90.423231 191.357157 
L 91.248064 188.076322 
L 91.660481 187.243871 
L 92.897732 181.95536 
L 93.722565 179.017298 
L 94.547399 174.855044 
L 94.959816 173.630852 
L 96.197067 168.685115 
L 96.609483 167.656793 
L 100.321235 152.672678 
L 100.733652 151.79126 
L 101.146069 150.5181 
L 101.558486 148.412489 
L 101.970903 147.3352 
L 102.795736 143.809526 
L 103.208153 140.724561 
L 104.032987 138.521015 
L 104.85782 135.43605 
L 105.270237 134.603599 
L 106.095071 131.469666 
L 106.507488 129.804765 
L 106.919905 128.972314 
L 107.332322 128.727476 
L 107.744738 127.699154 
L 108.569572 125.054898 
L 108.981989 123.781738 
L 109.394406 123.634835 
L 109.806823 122.361675 
L 110.21924 121.969934 
L 110.631656 120.794709 
L 111.044073 119.27671 
L 111.868907 117.513873 
L 112.281324 116.240713 
L 113.518574 114.624779 
L 113.930991 113.449555 
L 114.343408 113.106781 
L 114.755825 112.078459 
L 115.993075 107.426528 
L 116.817909 102.774597 
L 117.230326 101.599373 
L 117.642743 99.885503 
L 118.879993 90.924415 
L 119.704827 85.489001 
L 121.354495 74.716108 
L 121.766911 72.365659 
L 122.179328 68.93792 
L 123.004162 63.84528 
L 124.241412 56.206319 
L 125.066246 53.366193 
L 125.478663 52.631678 
L 126.303497 49.889487 
L 126.715914 48.959101 
L 127.540747 48.224585 
L 127.953164 47.294199 
L 128.365581 47.392134 
L 128.777998 46.706587 
L 129.190415 46.461748 
L 129.602832 45.825168 
L 130.015248 45.433426 
L 130.427665 45.286523 
L 130.840082 44.894782 
L 131.252499 44.747879 
L 131.664916 43.915428 
L 132.077333 43.474719 
L 133.314583 42.985042 
L 133.727 42.397429 
L 134.139417 42.152591 
L 134.551834 42.5933 
L 134.964251 42.691236 
L 135.376667 42.152591 
L 135.789084 42.299494 
L 136.613918 41.809817 
L 137.026335 41.564979 
L 137.438752 41.564979 
L 138.263585 41.907752 
L 138.676002 41.467043 
L 139.088419 41.418076 
L 139.500836 41.516011 
L 139.913253 41.858785 
L 140.32567 41.467043 
L 140.738087 41.271172 
L 141.56292 40.291819 
L 141.975337 40.144915 
L 142.800171 39.459368 
L 143.212588 39.4104 
L 143.625005 38.969691 
L 144.037421 38.724852 
L 144.449838 38.77382 
L 144.862255 38.969691 
L 145.274672 38.724852 
L 145.687089 38.235175 
L 146.099506 37.990337 
L 146.511922 38.039305 
L 146.924339 37.843434 
L 148.16159 38.431046 
L 148.574007 38.235175 
L 148.986424 38.577949 
L 149.811257 38.920723 
L 150.223674 39.165562 
L 150.636091 38.77382 
L 151.048508 38.77382 
L 151.873342 38.431046 
L 152.285758 37.892401 
L 152.698175 37.696531 
L 153.110592 37.843434 
L 154.760259 36.815112 
L 155.172676 36.2275 
L 155.585093 36.374403 
L 155.99751 36.129564 
L 156.409927 35.737823 
L 156.822344 35.59092 
L 157.234761 35.59092 
L 157.647177 35.346081 
L 159.296845 35.297114 
L 159.709262 35.59092 
L 160.121679 35.59092 
L 160.534095 35.346081 
L 162.59618 35.052275 
L 163.008597 34.856404 
L 163.421013 35.052275 
L 163.83343 35.101243 
L 164.658264 34.709501 
L 165.483098 34.464663 
L 165.895514 34.709501 
L 166.307931 34.464663 
L 166.720348 34.611566 
L 167.132765 34.464663 
L 167.957599 34.95434 
L 168.782432 35.101243 
L 169.194849 35.052275 
L 169.607266 34.807437 
L 170.019683 35.052275 
L 170.844517 34.660534 
L 171.66935 34.660534 
L 172.081767 34.709501 
L 172.906601 34.366727 
L 173.319018 34.366727 
L 174.143852 33.828083 
L 175.381102 33.583244 
L 176.618353 34.072921 
L 177.030769 34.072921 
L 177.443186 34.219824 
L 177.855603 34.121889 
L 178.26802 34.219824 
L 178.680437 34.121889 
L 179.505271 34.31776 
L 181.567355 34.709501 
L 182.804605 34.219824 
L 184.041856 34.121889 
L 184.86669 34.072921 
L 185.279106 34.31776 
L 186.10394 34.464663 
L 186.516357 34.31776 
L 188.166024 34.268792 
L 188.578441 34.072921 
L 189.403275 34.660534 
L 190.228109 35.003307 
L 191.465359 34.807437 
L 192.290193 35.003307 
L 193.115027 34.415695 
L 194.764694 34.366727 
L 195.177111 34.170857 
L 196.001945 34.366727 
L 196.414361 34.170857 
L 196.826778 33.779115 
L 198.888863 33.87705 
L 199.301279 33.534277 
L 199.713696 33.534277 
L 200.126113 33.68118 
L 201.363364 33.632212 
L 201.775781 33.436341 
L 202.188197 33.68118 
L 202.600614 33.583244 
L 205.075115 33.828083 
L 205.487532 33.534277 
L 205.899949 33.583244 
L 206.312366 33.436341 
L 206.724783 33.534277 
L 207.549616 33.338406 
L 207.962033 33.583244 
L 210.848951 33.485309 
L 212.086202 33.289438 
L 212.498619 33.583244 
L 213.323452 33.632212 
L 214.148286 33.87705 
L 214.560703 34.072921 
L 215.797954 33.87705 
L 216.21037 33.632212 
L 217.035204 33.779115 
L 217.447621 33.632212 
L 218.684871 33.68118 
L 219.097288 33.436341 
L 219.509705 33.730147 
L 219.922122 33.485309 
L 220.334539 33.730147 
L 220.746956 33.485309 
L 221.159373 33.583244 
L 222.396623 33.24047 
L 223.221457 33.289438 
L 224.458707 32.995632 
L 226.520792 33.142535 
L 227.758042 32.946664 
L 228.582876 33.387374 
L 229.40771 33.289438 
L 229.820126 33.191503 
L 230.64496 33.534277 
L 231.057377 33.828083 
L 231.469794 33.926018 
L 231.882211 33.87705 
L 233.531878 34.219824 
L 235.181546 34.219824 
L 235.593962 33.974986 
L 237.24363 34.072921 
L 238.48088 33.387374 
L 238.893297 33.387374 
L 239.305714 33.24047 
L 239.718131 33.289438 
L 240.542965 33.093567 
L 241.367798 33.191503 
L 241.780215 33.093567 
L 242.192632 33.142535 
L 243.017466 32.897697 
L 243.842299 32.897697 
L 244.667133 32.897697 
L 245.904384 33.191503 
L 246.729217 32.799761 
L 247.554051 32.799761 
L 248.378885 32.897697 
L 248.791302 32.799761 
L 249.203718 32.554923 
L 251.265803 32.505955 
L 251.67822 32.40802 
L 252.090636 32.505955 
L 252.503053 32.40802 
L 253.740304 32.750794 
L 254.152721 32.750794 
L 254.977554 32.554923 
L 255.389971 32.505955 
L 257.039639 33.0446 
L 258.276889 33.24047 
L 258.276889 33.24047 
" style="fill:none;stroke:#4c72b0;stroke-linecap:round;stroke-width:1.75;"/>
   </g>
   <g id="line2d_24">
    <path clip-path="url(#p54f6e8947d)" d="M 55.367798 232.490021 
L 55.780215 233.00547 
L 56.605049 233.214542 
L 57.017466 233.028666 
L 57.842299 233.469375 
L 58.254716 233.175569 
L 58.667133 233.37144 
L 59.07955 233.273504 
L 59.904384 232.685892 
L 60.316801 232.538989 
L 61.966468 231.167893 
L 62.378885 231.167893 
L 62.791302 230.678216 
L 63.203718 230.776152 
L 63.616135 230.629249 
L 64.028552 230.188539 
L 64.853386 229.698862 
L 65.265803 229.11125 
L 66.503053 228.719509 
L 66.91547 228.082929 
L 67.327887 227.984993 
L 67.740304 227.152542 
L 68.152721 226.760801 
L 68.565138 225.830415 
L 69.389971 225.340738 
L 69.802388 224.948996 
L 70.214805 224.851061 
L 70.627222 223.920674 
L 71.039639 223.333062 
L 71.864472 221.717128 
L 72.689306 220.639839 
L 73.101723 220.786742 
L 73.51414 220.003259 
L 73.926557 219.513582 
L 74.75139 218.974937 
L 75.163807 217.995583 
L 75.576224 217.456939 
L 76.401058 217.065197 
L 76.813475 216.428617 
L 77.225891 216.036876 
L 78.050725 215.889973 
L 78.463142 215.596166 
L 79.700393 212.951911 
L 80.112809 212.364298 
L 80.525226 211.140106 
L 80.937643 210.797332 
L 81.762477 209.034495 
L 82.174894 208.495851 
L 82.58731 207.712367 
L 82.999727 207.6634 
L 83.412144 207.271658 
L 84.649395 205.263983 
L 85.061812 205.263983 
L 85.474228 205.606757 
L 87.123896 202.962501 
L 87.536313 201.591406 
L 87.94873 201.003793 
L 88.361146 199.58373 
L 89.598397 197.331216 
L 90.010814 196.694636 
L 91.248064 192.924124 
L 91.660481 190.965416 
L 92.897732 186.852129 
L 93.310149 185.285163 
L 93.722565 184.256842 
L 94.959816 179.996652 
L 96.609483 171.721112 
L 97.434317 165.306344 
L 97.846734 163.05383 
L 98.671568 156.051449 
L 99.083985 153.896871 
L 99.908818 147.775909 
L 102.795736 124.222448 
L 103.208153 118.591163 
L 103.62057 115.016521 
L 104.032987 109.532139 
L 104.445404 106.300271 
L 104.85782 101.01176 
L 105.270237 99.591697 
L 106.507488 87.153903 
L 106.919905 85.048292 
L 107.332322 81.326747 
L 107.744738 79.955651 
L 108.157155 80.886038 
L 108.569572 80.396361 
L 109.394406 75.793397 
L 109.806823 76.968622 
L 110.21924 75.597527 
L 110.631656 74.66714 
L 111.044073 73.19811 
L 111.45649 73.883657 
L 111.868907 73.932625 
L 112.281324 75.352688 
L 112.693741 76.136171 
L 113.106157 76.478945 
L 113.930991 78.29075 
L 114.343408 80.004619 
L 114.755825 80.739135 
L 115.168242 80.592231 
L 115.580659 80.788102 
L 116.405492 79.270104 
L 117.230326 77.996944 
L 117.642743 78.241782 
L 118.05516 76.625848 
L 118.467577 72.904303 
L 118.879993 70.553854 
L 119.29241 70.945596 
L 119.704827 71.043531 
L 120.117244 70.260048 
L 120.529661 66.146761 
L 120.942078 66.097794 
L 121.354495 64.922569 
L 121.766911 62.670055 
L 122.179328 61.396895 
L 122.591745 58.94851 
L 123.004162 55.716642 
L 123.416579 54.443482 
L 123.828996 51.995098 
L 124.653829 50.477099 
L 125.066246 50.232261 
L 125.478663 49.693616 
L 125.89108 49.39981 
L 126.303497 49.350842 
L 126.715914 49.448777 
L 127.12833 48.910133 
L 127.540747 48.616327 
L 128.365581 46.608651 
L 128.777998 46.118974 
L 129.190415 45.384459 
L 129.602832 45.58033 
L 130.015248 45.433426 
L 130.427665 44.992717 
L 130.840082 45.335491 
L 131.252499 45.433426 
L 131.664916 45.237556 
L 132.077333 44.747879 
L 132.48975 44.796846 
L 132.902166 44.698911 
L 133.314583 44.405105 
L 133.727 44.552008 
L 134.139417 44.356137 
L 134.551834 44.405105 
L 135.376667 43.670589 
L 136.613918 43.572654 
L 137.026335 43.327816 
L 137.438752 43.621622 
L 138.676002 42.495365 
L 139.088419 41.907752 
L 139.913253 41.369108 
L 140.32567 40.732528 
L 140.738087 40.634592 
L 141.56292 39.900077 
L 142.387754 39.214529 
L 143.212588 39.214529 
L 144.449838 39.067626 
L 144.862255 38.822788 
L 145.274672 38.431046 
L 146.924339 37.941369 
L 147.336756 37.941369 
L 148.16159 38.382078 
L 148.574007 38.235175 
L 148.986424 38.284143 
L 149.39884 38.039305 
L 149.811257 37.990337 
L 150.223674 38.186208 
L 152.285758 37.647563 
L 152.698175 37.451692 
L 153.110592 37.598595 
L 153.523009 37.50066 
L 153.935426 37.549628 
L 154.347843 37.402725 
L 155.172676 37.647563 
L 155.99751 37.696531 
L 157.234761 37.50066 
L 157.647177 37.157886 
L 158.059594 36.668209 
L 158.884428 36.178532 
L 159.296845 36.129564 
L 159.709262 35.786791 
L 160.121679 35.884726 
L 162.183763 34.807437 
L 162.59618 34.121889 
L 163.008597 33.68118 
L 164.245847 33.142535 
L 165.070681 33.338406 
L 165.483098 33.191503 
L 166.307931 33.289438 
L 166.720348 33.338406 
L 167.132765 33.142535 
L 167.957599 33.289438 
L 168.782432 33.24047 
L 169.194849 33.534277 
L 170.844517 33.828083 
L 171.256934 34.023954 
L 172.494184 33.87705 
L 172.906601 33.974986 
L 173.319018 33.730147 
L 173.731435 33.730147 
L 174.968685 34.072921 
L 175.793519 33.974986 
L 176.205936 33.926018 
L 177.030769 34.023954 
L 177.855603 33.828083 
L 178.26802 33.974986 
L 179.092854 33.87705 
L 181.154938 34.513631 
L 181.567355 34.366727 
L 183.217022 34.562598 
L 183.629439 34.219824 
L 184.041856 34.170857 
L 184.454273 34.268792 
L 184.86669 34.072921 
L 186.10394 33.87705 
L 186.516357 33.730147 
L 186.928774 33.387374 
L 187.753608 33.289438 
L 188.166024 33.436341 
L 190.228109 33.0446 
L 191.052942 33.485309 
L 191.465359 33.485309 
L 192.290193 33.142535 
L 192.70261 32.897697 
L 193.115027 33.0446 
L 194.764694 32.995632 
L 195.177111 32.701826 
L 196.414361 32.848729 
L 197.651612 32.505955 
L 198.064029 32.310084 
L 198.888863 32.310084 
L 199.301279 32.212149 
L 199.713696 32.359052 
L 200.53853 32.163181 
L 200.950947 32.163181 
L 201.363364 32.310084 
L 202.600614 32.310084 
L 203.013031 32.456987 
L 205.075115 32.40802 
L 205.487532 32.261117 
L 206.312366 32.359052 
L 206.724783 32.212149 
L 207.962033 32.261117 
L 208.786867 32.163181 
L 209.611701 32.310084 
L 210.024118 32.212149 
L 210.436534 32.310084 
L 210.848951 32.212149 
L 211.261368 32.359052 
L 212.911036 32.456987 
L 214.148286 33.142535 
L 214.560703 33.093567 
L 214.97312 33.289438 
L 215.385537 33.289438 
L 215.797954 33.534277 
L 218.272455 33.485309 
L 219.097288 33.387374 
L 220.334539 33.485309 
L 221.159373 33.0446 
L 223.221457 32.60389 
L 224.458707 32.554923 
L 224.871124 32.359052 
L 225.695958 32.310084 
L 226.108375 32.505955 
L 226.520792 32.261117 
L 228.170459 32.359052 
L 229.820126 32.652858 
L 231.882211 32.750794 
L 233.119461 32.799761 
L 233.531878 32.701826 
L 234.356712 32.750794 
L 235.181546 32.652858 
L 236.006379 32.505955 
L 236.418796 32.261117 
L 237.656047 32.065246 
L 239.718131 31.918343 
L 241.367798 32.114213 
L 241.780215 32.359052 
L 243.842299 32.652858 
L 244.667133 32.995632 
L 245.491967 32.995632 
L 245.904384 33.24047 
L 246.729217 33.24047 
L 247.141634 33.436341 
L 247.554051 33.485309 
L 249.203718 33.142535 
L 249.616135 33.142535 
L 250.440969 32.897697 
L 250.853386 32.946664 
L 251.67822 32.750794 
L 252.503053 32.554923 
L 252.91547 32.310084 
L 254.977554 32.163181 
L 258.276889 32.065246 
L 258.276889 32.065246 
" style="fill:none;stroke:#55a868;stroke-linecap:round;stroke-width:1.75;"/>
   </g>
   <g id="line2d_25">
    <path clip-path="url(#p54f6e8947d)" d="M 55.367798 232.796069 
L 55.780215 232.767506 
L 56.605049 232.949093 
L 57.017466 232.636924 
L 57.429883 232.783827 
L 57.842299 232.783827 
L 58.667133 232.490021 
L 59.07955 232.538989 
L 60.316801 232.196215 
L 60.729217 232.441053 
L 61.141634 232.441053 
L 61.554051 232.587956 
L 61.966468 232.392086 
L 62.791302 232.587956 
L 63.616135 232.685892 
L 64.853386 232.29415 
L 65.265803 232.29415 
L 65.67822 232.049312 
L 66.503053 232.490021 
L 66.91547 232.196215 
L 67.327887 232.343118 
L 67.740304 231.755506 
L 68.152721 232.09828 
L 69.389971 231.902409 
L 69.802388 231.853441 
L 70.214805 231.314796 
L 71.039639 230.825119 
L 71.452056 230.727184 
L 72.689306 229.943701 
L 73.101723 229.160218 
L 73.51414 228.817444 
L 73.926557 228.327767 
L 74.338973 228.278799 
L 74.75139 228.082929 
L 75.163807 228.229832 
L 75.576224 227.887058 
L 75.988641 227.887058 
L 76.401058 227.691187 
L 77.225891 226.956672 
L 78.463142 226.320092 
L 78.875559 225.830415 
L 79.700393 225.340738 
L 80.112809 224.948996 
L 82.58731 219.709453 
L 82.999727 218.436293 
L 83.412144 217.799713 
L 83.824561 216.869326 
L 84.236978 216.281714 
L 84.649395 216.085843 
L 85.061812 215.694102 
L 85.474228 214.371974 
L 86.299062 212.951911 
L 86.711479 212.658105 
L 87.123896 211.776686 
L 87.536313 211.48288 
L 87.94873 210.601461 
L 88.773563 208.544818 
L 89.18598 208.446883 
L 89.598397 207.908238 
L 90.010814 207.124755 
L 90.423231 205.655724 
L 91.248064 205.019144 
L 91.660481 204.186693 
L 92.072898 203.648049 
L 92.485315 202.423856 
L 93.310149 200.954826 
L 93.722565 200.612052 
L 94.959816 197.918828 
L 95.78465 194.931799 
L 96.197067 194.148316 
L 96.609483 191.895802 
L 97.0219 191.210254 
L 97.434317 191.30819 
L 98.259151 188.517031 
L 99.083985 184.452712 
L 99.496401 183.473358 
L 99.908818 181.857425 
L 100.321235 179.40904 
L 101.558486 175.687495 
L 101.970903 173.924658 
L 102.795736 171.819047 
L 103.208153 171.916982 
L 104.032987 168.929953 
L 104.85782 164.914602 
L 105.270237 163.592474 
L 105.682654 163.396604 
L 106.095071 162.41725 
L 106.507488 161.78067 
L 106.919905 160.801316 
L 107.332322 159.332285 
L 107.744738 158.695705 
L 108.569572 155.904546 
L 108.981989 155.904546 
L 109.394406 155.316934 
L 109.806823 153.407194 
L 110.21924 152.085066 
L 110.631656 152.525775 
L 111.45649 149.342875 
L 111.868907 149.000101 
L 112.281324 148.020747 
L 112.693741 148.265586 
L 113.106157 147.286232 
L 113.518574 146.600684 
L 113.930991 147.090361 
L 114.343408 146.943458 
L 114.755825 148.069715 
L 115.168242 145.719266 
L 116.817909 141.263205 
L 117.642743 137.34579 
L 118.05516 136.023662 
L 118.467577 135.974694 
L 118.879993 135.778824 
L 119.29241 136.170565 
L 119.704827 135.485017 
L 120.117244 134.16289 
L 120.942078 133.428374 
L 122.179328 129.9027 
L 122.591745 128.531605 
L 123.004162 128.188831 
L 123.416579 127.650186 
L 124.653829 123.879674 
L 125.066246 123.194126 
L 125.478663 122.26374 
L 125.89108 120.305032 
L 126.303497 119.668452 
L 126.715914 118.346324 
L 127.12833 116.338649 
L 127.540747 115.995875 
L 128.365581 114.330973 
L 128.777998 114.086135 
L 129.190415 113.351619 
L 129.602832 111.392912 
L 130.015248 110.609428 
L 130.427665 108.601753 
L 130.840082 108.650721 
L 131.252499 107.671367 
L 131.664916 107.132722 
L 132.902166 103.509113 
L 133.314583 102.480791 
L 133.727 101.844211 
L 134.964251 97.681957 
L 135.376667 96.066023 
L 135.789084 95.429443 
L 136.201501 93.470735 
L 137.026335 87.986353 
L 137.851169 85.391066 
L 138.676002 82.306101 
L 139.088419 81.375715 
L 139.500836 80.983973 
L 139.913253 79.808748 
L 140.32567 79.074233 
L 140.738087 77.65417 
L 141.150503 76.919654 
L 143.625005 68.644114 
L 144.037421 67.419922 
L 144.449838 67.077148 
L 144.862255 65.314311 
L 145.274672 64.383924 
L 145.687089 63.159732 
L 146.099506 62.425217 
L 146.924339 60.368573 
L 147.336756 60.074767 
L 148.16159 58.654704 
L 148.574007 58.458833 
L 149.811257 58.801607 
L 150.636091 59.438187 
L 151.048508 59.046446 
L 151.460925 59.438187 
L 151.873342 60.319606 
L 152.285758 59.683026 
L 152.698175 59.38922 
L 154.347843 55.716642 
L 154.760259 55.177998 
L 155.172676 54.835224 
L 155.585093 54.100708 
L 155.99751 54.002773 
L 156.409927 53.464128 
L 156.822344 54.247612 
L 157.234761 52.974452 
L 158.059594 51.603356 
L 158.884428 49.693616 
L 160.121679 44.600976 
L 160.534095 42.936074 
L 160.946512 42.152591 
L 161.358929 41.858785 
L 161.771346 42.005688 
L 162.183763 41.95672 
L 162.59618 42.250526 
L 163.008597 42.054656 
L 163.421013 41.516011 
L 163.83343 41.516011 
L 164.245847 40.830463 
L 164.658264 38.822788 
L 165.070681 38.577949 
L 165.483098 38.626917 
L 165.895514 38.186208 
L 167.957599 37.50066 
L 168.370016 36.717177 
L 168.782432 36.570274 
L 169.607266 35.639888 
L 170.019683 35.297114 
L 171.66935 34.562598 
L 172.081767 34.709501 
L 172.906601 34.023954 
L 174.556268 33.779115 
L 174.968685 33.632212 
L 176.205936 33.974986 
L 177.030769 34.121889 
L 177.443186 34.415695 
L 178.26802 34.31776 
L 179.092854 34.366727 
L 179.917687 34.660534 
L 180.330104 34.709501 
L 181.154938 35.003307 
L 181.567355 34.856404 
L 181.979772 34.856404 
L 184.86669 33.926018 
L 185.691523 34.072921 
L 186.10394 33.87705 
L 186.516357 33.87705 
L 186.928774 33.730147 
L 187.341191 33.730147 
L 187.753608 33.87705 
L 188.166024 33.583244 
L 190.228109 34.513631 
L 190.640526 34.415695 
L 191.877776 34.807437 
L 192.70261 34.513631 
L 193.93986 34.758469 
L 194.764694 34.366727 
L 195.177111 34.611566 
L 196.001945 34.513631 
L 196.826778 34.268792 
L 197.239195 34.366727 
L 197.651612 34.121889 
L 198.064029 34.170857 
L 198.476446 34.072921 
L 199.301279 34.170857 
L 199.713696 34.415695 
L 201.363364 34.513631 
L 204.250282 34.464663 
L 204.662699 34.758469 
L 205.899949 34.709501 
L 206.724783 34.170857 
L 207.962033 33.779115 
L 208.37445 33.730147 
L 208.786867 33.828083 
L 210.848951 33.534277 
L 211.673785 33.191503 
L 212.086202 32.946664 
L 212.911036 32.897697 
L 214.148286 33.289438 
L 214.560703 33.24047 
L 214.97312 32.995632 
L 215.385537 33.24047 
L 217.035204 33.534277 
L 218.272455 33.583244 
L 219.097288 33.828083 
L 219.922122 34.023954 
L 220.334539 34.31776 
L 220.746956 34.366727 
L 221.159373 34.611566 
L 221.984206 34.366727 
L 222.396623 34.513631 
L 223.633874 34.366727 
L 224.046291 34.072921 
L 225.283541 33.974986 
L 226.520792 33.87705 
L 226.933208 34.023954 
L 227.345625 33.828083 
L 227.758042 33.387374 
L 228.170459 33.68118 
L 228.582876 33.289438 
L 228.995293 33.534277 
L 230.64496 33.338406 
L 231.469794 33.436341 
L 232.707044 33.485309 
L 233.119461 33.387374 
L 233.531878 33.583244 
L 233.944295 33.534277 
L 234.356712 33.632212 
L 235.593962 33.387374 
L 236.418796 33.093567 
L 239.718131 33.436341 
L 240.130548 33.68118 
L 240.542965 33.730147 
L 240.955381 33.485309 
L 241.780215 33.387374 
L 243.429883 34.219824 
L 243.842299 34.170857 
L 244.254716 34.31776 
L 244.667133 34.170857 
L 245.491967 34.268792 
L 245.904384 34.072921 
L 246.316801 34.072921 
L 246.729217 34.219824 
L 247.554051 33.730147 
L 248.378885 33.87705 
L 249.203718 33.779115 
L 249.616135 33.436341 
L 250.853386 33.534277 
L 251.265803 33.289438 
L 251.67822 33.24047 
L 252.090636 33.436341 
L 252.503053 33.24047 
L 252.91547 33.436341 
L 253.327887 33.338406 
L 253.740304 33.093567 
L 254.565138 33.191503 
L 254.977554 32.995632 
L 255.389971 33.0446 
L 255.802388 33.289438 
L 256.214805 33.289438 
L 257.452056 32.848729 
L 257.864472 32.848729 
L 258.276889 32.995632 
L 258.276889 32.995632 
" style="fill:none;stroke:#c44e52;stroke-linecap:round;stroke-width:1.75;"/>
   </g>
   <g id="line2d_26">
    <path clip-path="url(#p54f6e8947d)" d="M 55.367798 232.276272 
L 56.605049 233.000103 
L 57.429883 232.783827 
L 57.842299 232.979698 
L 58.254716 232.783827 
L 58.667133 232.73486 
L 59.07955 232.93073 
L 59.491967 232.783827 
L 59.904384 232.490021 
L 60.729217 232.587956 
L 61.554051 232.441053 
L 62.378885 232.049312 
L 63.203718 232.245183 
L 63.616135 232.392086 
L 64.028552 232.343118 
L 64.440969 232.000344 
L 64.853386 231.804473 
L 65.265803 232.09828 
L 65.67822 231.951376 
L 66.503053 232.147247 
L 67.740304 231.902409 
L 68.152721 231.510667 
L 68.565138 231.951376 
L 69.389971 232.196215 
L 69.802388 232.196215 
L 71.452056 232.685892 
L 71.864472 233.077633 
L 72.276889 233.175569 
L 72.689306 232.93073 
L 73.101723 232.832795 
L 73.51414 233.028666 
L 73.926557 232.93073 
L 74.338973 233.175569 
L 74.75139 233.175569 
L 75.988641 232.490021 
L 76.813475 232.392086 
L 77.225891 232.196215 
L 77.638308 232.147247 
L 78.463142 231.755506 
L 79.700393 231.510667 
L 80.525226 230.776152 
L 80.937643 230.972023 
L 82.174894 230.188539 
L 82.58731 229.943701 
L 82.999727 229.405056 
L 83.412144 229.160218 
L 83.824561 228.523638 
L 84.236978 228.278799 
L 84.649395 228.572606 
L 85.061812 228.670541 
L 85.474228 228.425702 
L 85.886645 228.523638 
L 87.123896 228.082929 
L 87.94873 228.327767 
L 88.361146 228.180864 
L 88.773563 228.376735 
L 90.010814 228.180864 
L 90.423231 228.278799 
L 92.072898 227.054607 
L 93.310149 225.046931 
L 93.722565 224.557255 
L 94.134982 224.361384 
L 94.547399 223.871707 
L 95.372233 223.284094 
L 96.609483 221.717128 
L 97.0219 221.668161 
L 97.434317 220.933645 
L 98.259151 220.83571 
L 98.671568 220.737774 
L 99.083985 220.492936 
L 99.496401 220.737774 
L 100.321235 220.346033 
L 100.733652 220.639839 
L 101.146069 219.856356 
L 101.558486 219.464614 
L 101.970903 219.464614 
L 102.383319 218.92597 
L 102.795736 218.779067 
L 103.208153 218.877002 
L 103.62057 218.583196 
L 104.85782 216.722423 
L 105.270237 216.330682 
L 105.682654 214.812683 
L 106.095071 214.176103 
L 106.507488 214.127136 
L 106.919905 213.294685 
L 107.332322 213.39262 
L 107.744738 213.049846 
L 108.157155 213.000879 
L 108.569572 212.364298 
L 108.981989 212.021525 
L 109.394406 211.531848 
L 109.806823 211.580815 
L 110.21924 211.091138 
L 110.631656 210.013849 
L 111.044073 210.013849 
L 111.45649 209.230366 
L 111.868907 208.202044 
L 112.281324 207.859271 
L 112.693741 206.928884 
L 113.106157 206.635078 
L 113.518574 206.733014 
L 113.930991 205.998498 
L 114.343408 205.75366 
L 114.755825 205.900563 
L 115.580659 205.557789 
L 115.993075 206.145401 
L 118.05516 203.697016 
L 118.467577 203.697016 
L 118.879993 203.354243 
L 119.29241 202.76663 
L 119.704827 202.472824 
L 120.117244 201.640373 
L 120.942078 200.416181 
L 121.354495 200.318246 
L 121.766911 199.387859 
L 122.179328 199.338892 
L 123.004162 198.261602 
L 123.416579 197.429152 
L 124.241412 196.547733 
L 124.653829 195.519411 
L 125.066246 195.715282 
L 125.478663 195.12767 
L 125.89108 193.85451 
L 126.303497 193.022059 
L 126.715914 192.728253 
L 127.540747 190.279868 
L 127.953164 189.496385 
L 128.365581 189.153611 
L 129.190415 186.803162 
L 129.602832 187.292839 
L 130.015248 186.999033 
L 130.427665 186.901097 
L 130.840082 186.313485 
L 131.252499 186.068646 
L 132.077333 184.452712 
L 132.902166 183.22852 
L 133.727 182.885746 
L 134.139417 182.249166 
L 134.551834 182.249166 
L 134.964251 181.024974 
L 135.376667 180.976006 
L 135.789084 179.164201 
L 136.201501 178.429686 
L 136.613918 176.960655 
L 137.026335 176.177172 
L 137.438752 175.736463 
L 138.263585 173.826723 
L 138.676002 172.994272 
L 139.088419 171.427306 
L 139.500836 171.280402 
L 139.913253 170.496919 
L 140.32567 169.468598 
L 141.150503 169.41963 
L 141.56292 169.174792 
L 141.975337 168.342341 
L 142.800171 168.14647 
L 143.212588 167.901631 
L 144.449838 165.257376 
L 144.862255 164.96357 
L 145.687089 163.05383 
L 146.099506 163.004862 
L 146.511922 162.515185 
L 147.336756 161.14409 
L 148.16159 160.556477 
L 148.574007 160.115768 
L 148.986424 160.311639 
L 149.39884 159.821962 
L 150.636091 160.458542 
L 151.048508 160.654413 
L 151.460925 160.458542 
L 151.873342 161.193057 
L 152.285758 161.046154 
L 153.110592 161.242025 
L 153.523009 161.486863 
L 153.935426 160.70338 
L 155.172676 159.919897 
L 155.585093 158.695705 
L 155.99751 158.450866 
L 156.409927 158.352931 
L 157.234761 154.778289 
L 158.059594 153.603065 
L 158.472011 153.407194 
L 158.884428 152.917517 
L 159.296845 151.889195 
L 160.121679 150.567067 
L 160.534095 150.273261 
L 160.946512 149.098037 
L 161.358929 148.265586 
L 161.771346 147.041393 
L 162.183763 146.25791 
L 163.008597 145.131653 
L 163.421013 144.201267 
L 163.83343 143.809526 
L 164.245847 143.07501 
L 165.070681 140.234884 
L 165.895514 139.157595 
L 166.307931 139.25553 
L 166.720348 138.472047 
L 167.132765 137.98237 
L 167.545182 137.198887 
L 168.370016 135.387082 
L 169.194849 134.652567 
L 169.607266 133.967019 
L 170.019683 134.750502 
L 170.4321 134.260825 
L 170.844517 134.16289 
L 171.256934 132.938697 
L 171.66935 132.88973 
L 172.081767 132.106247 
L 172.906601 131.420699 
L 174.143852 129.217153 
L 174.556268 128.923346 
L 174.968685 129.070249 
L 175.381102 128.825411 
L 175.793519 127.797089 
L 176.205936 128.041928 
L 176.618353 127.943992 
L 177.030769 127.699154 
L 177.443186 127.748122 
L 177.855603 127.160509 
L 178.26802 127.111542 
L 178.680437 126.817735 
L 179.092854 126.964639 
L 179.917687 125.642511 
L 181.154938 127.454315 
L 181.567355 127.650186 
L 182.392189 125.544575 
L 182.804605 126.034252 
L 183.217022 125.299737 
L 183.629439 124.956963 
L 184.454273 123.732771 
L 184.86669 122.508578 
L 185.279106 122.90032 
L 185.691523 122.753417 
L 186.516357 121.284386 
L 186.928774 120.794709 
L 187.341191 120.500903 
L 187.753608 119.815355 
L 188.166024 120.305032 
L 188.578441 120.305032 
L 189.403275 120.549871 
L 189.815692 120.402967 
L 190.640526 119.08084 
L 191.052942 118.591163 
L 191.465359 117.905615 
L 192.290193 115.751036 
L 192.70261 114.918586 
L 193.115027 114.379941 
L 193.527444 114.477876 
L 194.352277 111.490847 
L 194.764694 109.532139 
L 195.589528 107.965173 
L 196.826778 102.529759 
L 197.651612 100.815889 
L 198.064029 98.318537 
L 198.476446 97.584022 
L 199.301279 94.450089 
L 199.713696 91.365124 
L 200.53853 88.231192 
L 200.950947 87.64358 
L 202.188197 81.228811 
L 202.600614 79.123201 
L 203.013031 77.899008 
L 203.425448 75.989268 
L 203.837865 74.911979 
L 204.250282 74.226431 
L 205.487532 69.427597 
L 205.899949 68.30134 
L 206.312366 67.762695 
L 206.724783 65.020504 
L 207.1372 64.334957 
L 208.786867 59.193349 
L 209.199284 58.654704 
L 210.436534 56.304255 
L 210.848951 54.786256 
L 211.261368 54.149676 
L 211.673785 53.21929 
L 212.086202 52.876516 
L 212.498619 51.407485 
L 212.911036 50.624002 
L 213.323452 48.76323 
L 213.735869 48.028714 
L 214.148286 47.68594 
L 214.560703 47.098328 
L 214.97312 45.727233 
L 215.385537 45.041685 
L 215.797954 44.649943 
L 216.21037 44.50304 
L 216.622787 44.894782 
L 217.035204 44.894782 
L 217.447621 45.13962 
L 218.272455 45.433426 
L 219.509705 44.992717 
L 219.922122 44.552008 
L 220.334539 44.698911 
L 221.159373 45.335491 
L 221.984206 45.531362 
L 222.396623 45.433426 
L 222.80904 44.747879 
L 223.221457 44.50304 
L 224.046291 44.747879 
L 224.458707 44.552008 
L 224.871124 44.50304 
L 225.695958 42.740203 
L 226.108375 42.397429 
L 226.520792 41.467043 
L 227.345625 40.830463 
L 227.758042 40.585625 
L 228.582876 40.340786 
L 228.995293 39.851109 
L 229.40771 39.753174 
L 229.820126 40.04698 
L 230.232543 40.585625 
L 230.64496 40.242851 
L 231.882211 40.438722 
L 232.294628 40.193883 
L 232.707044 39.802142 
L 233.531878 39.900077 
L 234.356712 39.263497 
L 234.769129 39.459368 
L 235.181546 39.361432 
L 235.593962 39.949045 
L 236.006379 39.851109 
L 236.418796 39.4104 
L 236.831213 39.312465 
L 237.24363 38.920723 
L 237.656047 38.871755 
L 238.068463 38.431046 
L 238.48088 38.77382 
L 238.893297 38.577949 
L 239.305714 38.626917 
L 240.542965 37.745498 
L 240.955381 37.745498 
L 241.367798 37.402725 
L 241.780215 37.647563 
L 242.192632 37.255821 
L 242.605049 37.304789 
L 243.429883 36.521306 
L 243.842299 36.521306 
L 244.254716 36.668209 
L 245.07955 36.276468 
L 245.491967 36.423371 
L 246.729217 35.150211 
L 247.966468 35.395049 
L 248.378885 36.815112 
L 248.791302 36.815112 
L 249.203718 37.059951 
L 249.616135 36.913048 
L 250.028552 37.157886 
L 250.440969 37.108918 
L 250.853386 37.304789 
L 251.265803 36.913048 
L 252.090636 36.913048 
L 252.503053 37.059951 
L 252.91547 36.717177 
L 254.152721 37.010983 
L 254.565138 37.255821 
L 254.977554 37.206854 
L 255.802388 37.598595 
L 256.214805 36.031629 
L 257.452056 35.59092 
L 257.864472 35.297114 
L 258.276889 35.346081 
L 258.276889 35.346081 
" style="fill:none;stroke:#8172b2;stroke-linecap:round;stroke-width:1.75;"/>
   </g>
   <g id="patch_3">
    <path d="M 45.222344 243.549375 
L 45.222344 21.789375 
" style="fill:none;"/>
   </g>
   <g id="patch_4">
    <path d="M 268.422344 243.549375 
L 268.422344 21.789375 
" style="fill:none;"/>
   </g>
   <g id="patch_5">
    <path d="M 45.222344 243.549375 
L 268.422344 243.549375 
" style="fill:none;"/>
   </g>
   <g id="patch_6">
    <path d="M 45.222344 21.789375 
L 268.422344 21.789375 
" style="fill:none;"/>
   </g>
   <g id="text_15">
    <!-- Pong -->
    <defs>
     <path d="M 7.71875 0 
L 7.71875 71.578125 
L 34.71875 71.578125 
Q 41.84375 71.578125 45.609375 70.90625 
Q 50.875 70.015625 54.4375 67.546875 
Q 58.015625 65.09375 60.1875 60.640625 
Q 62.359375 56.203125 62.359375 50.875 
Q 62.359375 41.75 56.546875 35.421875 
Q 50.734375 29.109375 35.546875 29.109375 
L 17.1875 29.109375 
L 17.1875 0 
z
M 17.1875 37.546875 
L 35.6875 37.546875 
Q 44.875 37.546875 48.734375 40.96875 
Q 52.59375 44.390625 52.59375 50.59375 
Q 52.59375 55.078125 50.3125 58.265625 
Q 48.046875 61.46875 44.34375 62.5 
Q 41.9375 63.140625 35.5 63.140625 
L 17.1875 63.140625 
z
" id="ArialMT-80"/>
     <path d="M 3.328125 25.921875 
Q 3.328125 40.328125 11.328125 47.265625 
Q 18.015625 53.03125 27.640625 53.03125 
Q 38.328125 53.03125 45.109375 46.015625 
Q 51.90625 39.015625 51.90625 26.65625 
Q 51.90625 16.65625 48.90625 10.90625 
Q 45.90625 5.171875 40.15625 2 
Q 34.421875 -1.171875 27.640625 -1.171875 
Q 16.75 -1.171875 10.03125 5.8125 
Q 3.328125 12.796875 3.328125 25.921875 
z
M 12.359375 25.921875 
Q 12.359375 15.96875 16.703125 11.015625 
Q 21.046875 6.0625 27.640625 6.0625 
Q 34.1875 6.0625 38.53125 11.03125 
Q 42.875 16.015625 42.875 26.21875 
Q 42.875 35.84375 38.5 40.796875 
Q 34.125 45.75 27.640625 45.75 
Q 21.046875 45.75 16.703125 40.8125 
Q 12.359375 35.890625 12.359375 25.921875 
z
" id="ArialMT-111"/>
     <path d="M 4.984375 -4.296875 
L 13.53125 -5.5625 
Q 14.0625 -9.515625 16.5 -11.328125 
Q 19.78125 -13.765625 25.4375 -13.765625 
Q 31.546875 -13.765625 34.859375 -11.328125 
Q 38.1875 -8.890625 39.359375 -4.5 
Q 40.046875 -1.8125 39.984375 6.78125 
Q 34.234375 0 25.640625 0 
Q 14.9375 0 9.078125 7.71875 
Q 3.21875 15.4375 3.21875 26.21875 
Q 3.21875 33.640625 5.90625 39.90625 
Q 8.59375 46.1875 13.6875 49.609375 
Q 18.796875 53.03125 25.6875 53.03125 
Q 34.859375 53.03125 40.828125 45.609375 
L 40.828125 51.859375 
L 48.921875 51.859375 
L 48.921875 7.03125 
Q 48.921875 -5.078125 46.453125 -10.125 
Q 44 -15.1875 38.640625 -18.109375 
Q 33.296875 -21.046875 25.484375 -21.046875 
Q 16.21875 -21.046875 10.5 -16.875 
Q 4.78125 -12.703125 4.984375 -4.296875 
z
M 12.25 26.859375 
Q 12.25 16.65625 16.296875 11.96875 
Q 20.359375 7.28125 26.46875 7.28125 
Q 32.515625 7.28125 36.609375 11.9375 
Q 40.71875 16.609375 40.71875 26.5625 
Q 40.71875 36.078125 36.5 40.90625 
Q 32.28125 45.75 26.3125 45.75 
Q 20.453125 45.75 16.34375 40.984375 
Q 12.25 36.234375 12.25 26.859375 
z
" id="ArialMT-103"/>
    </defs>
    <g style="fill:#262626;" transform="translate(142.810469 15.789375)scale(0.12 -0.12)">
     <use xlink:href="#ArialMT-80"/>
     <use x="66.699219" xlink:href="#ArialMT-111"/>
     <use x="122.314453" xlink:href="#ArialMT-110"/>
     <use x="177.929688" xlink:href="#ArialMT-103"/>
    </g>
   </g>
   <g id="legend_1">
    <g id="line2d_27">
     <path d="M 54.222344 34.447188 
L 74.222344 34.447188 
" style="fill:none;stroke:#4c72b0;stroke-linecap:round;stroke-width:1.75;"/>
    </g>
    <g id="line2d_28"/>
    <g id="text_16">
     <!-- 1e3 -->
     <g style="fill:#262626;" transform="translate(82.222344 37.947188)scale(0.1 -0.1)">
      <use xlink:href="#ArialMT-49"/>
      <use x="55.615234" xlink:href="#ArialMT-101"/>
      <use x="111.230469" xlink:href="#ArialMT-51"/>
     </g>
    </g>
    <g id="line2d_29">
     <path d="M 54.222344 48.5925 
L 74.222344 48.5925 
" style="fill:none;stroke:#55a868;stroke-linecap:round;stroke-width:1.75;"/>
    </g>
    <g id="line2d_30"/>
    <g id="text_17">
     <!-- 3e3 -->
     <g style="fill:#262626;" transform="translate(82.222344 52.0925)scale(0.1 -0.1)">
      <use xlink:href="#ArialMT-51"/>
      <use x="55.615234" xlink:href="#ArialMT-101"/>
      <use x="111.230469" xlink:href="#ArialMT-51"/>
     </g>
    </g>
    <g id="line2d_31">
     <path d="M 54.222344 62.737813 
L 74.222344 62.737813 
" style="fill:none;stroke:#c44e52;stroke-linecap:round;stroke-width:1.75;"/>
    </g>
    <g id="line2d_32"/>
    <g id="text_18">
     <!-- 1e4 -->
     <g style="fill:#262626;" transform="translate(82.222344 66.237813)scale(0.1 -0.1)">
      <use xlink:href="#ArialMT-49"/>
      <use x="55.615234" xlink:href="#ArialMT-101"/>
      <use x="111.230469" xlink:href="#ArialMT-52"/>
     </g>
    </g>
    <g id="line2d_33">
     <path d="M 54.222344 76.883125 
L 74.222344 76.883125 
" style="fill:none;stroke:#8172b2;stroke-linecap:round;stroke-width:1.75;"/>
    </g>
    <g id="line2d_34"/>
    <g id="text_19">
     <!-- 3e4 -->
     <g style="fill:#262626;" transform="translate(82.222344 80.383125)scale(0.1 -0.1)">
      <use xlink:href="#ArialMT-51"/>
      <use x="55.615234" xlink:href="#ArialMT-101"/>
      <use x="111.230469" xlink:href="#ArialMT-52"/>
     </g>
    </g>
   </g>
  </g>
 </g>
 <defs>
  <clipPath id="p54f6e8947d">
   <rect height="221.76" width="223.2" x="45.222344" y="21.789375"/>
  </clipPath>
 </defs>
</svg>
