<?xml version="1.0" encoding="utf-8" standalone="no"?>
<!DOCTYPE svg PUBLIC "-//W3C//DTD SVG 1.1//EN"
  "http://www.w3.org/Graphics/SVG/1.1/DTD/svg11.dtd">
<!-- Created with matplotlib (https://matplotlib.org/) -->
<svg height="277.919688pt" version="1.1" viewBox="0 0 289.71 277.919688" width="289.71pt" xmlns="http://www.w3.org/2000/svg" xmlns:xlink="http://www.w3.org/1999/xlink">
 <defs>
  <style type="text/css">
*{stroke-linecap:butt;stroke-linejoin:round;}
  </style>
 </defs>
 <g id="figure_1">
  <g id="patch_1">
   <path d="M 0 277.919688 
L 289.71 277.919688 
L 289.71 0 
L 0 0 
z
" style="fill:#ffffff;"/>
  </g>
  <g id="axes_1">
   <g id="patch_2">
    <path d="M 53.31 234.96 
L 276.51 234.96 
L 276.51 13.2 
L 53.31 13.2 
z
" style="fill:#eaeaf2;"/>
   </g>
   <g id="matplotlib.axis_1">
    <g id="xtick_1">
     <g id="line2d_1">
      <path clip-path="url(#p415586a246)" d="M 53.31 234.96 
L 53.31 13.2 
" style="fill:none;stroke:#ffffff;stroke-linecap:round;"/>
     </g>
     <g id="text_1">
      <!-- 0 -->
      <defs>
       <path d="M 31.78125 66.40625 
Q 24.171875 66.40625 20.328125 58.90625 
Q 16.5 51.421875 16.5 36.375 
Q 16.5 21.390625 20.328125 13.890625 
Q 24.171875 6.390625 31.78125 6.390625 
Q 39.453125 6.390625 43.28125 13.890625 
Q 47.125 21.390625 47.125 36.375 
Q 47.125 51.421875 43.28125 58.90625 
Q 39.453125 66.40625 31.78125 66.40625 
z
M 31.78125 74.21875 
Q 44.046875 74.21875 50.515625 64.515625 
Q 56.984375 54.828125 56.984375 36.375 
Q 56.984375 17.96875 50.515625 8.265625 
Q 44.046875 -1.421875 31.78125 -1.421875 
Q 19.53125 -1.421875 13.0625 8.265625 
Q 6.59375 17.96875 6.59375 36.375 
Q 6.59375 54.828125 13.0625 64.515625 
Q 19.53125 74.21875 31.78125 74.21875 
z
" id="DejaVuSans-48"/>
      </defs>
      <g style="fill:#262626;" transform="translate(49.810625 252.818281)scale(0.11 -0.11)">
       <use xlink:href="#DejaVuSans-48"/>
      </g>
     </g>
    </g>
    <g id="xtick_2">
     <g id="line2d_2">
      <path clip-path="url(#p415586a246)" d="M 98.400909 234.96 
L 98.400909 13.2 
" style="fill:none;stroke:#ffffff;stroke-linecap:round;"/>
     </g>
     <g id="text_2">
      <!-- 20 -->
      <defs>
       <path d="M 19.1875 8.296875 
L 53.609375 8.296875 
L 53.609375 0 
L 7.328125 0 
L 7.328125 8.296875 
Q 12.9375 14.109375 22.625 23.890625 
Q 32.328125 33.6875 34.8125 36.53125 
Q 39.546875 41.84375 41.421875 45.53125 
Q 43.3125 49.21875 43.3125 52.78125 
Q 43.3125 58.59375 39.234375 62.25 
Q 35.15625 65.921875 28.609375 65.921875 
Q 23.96875 65.921875 18.8125 64.3125 
Q 13.671875 62.703125 7.8125 59.421875 
L 7.8125 69.390625 
Q 13.765625 71.78125 18.9375 73 
Q 24.125 74.21875 28.421875 74.21875 
Q 39.75 74.21875 46.484375 68.546875 
Q 53.21875 62.890625 53.21875 53.421875 
Q 53.21875 48.921875 51.53125 44.890625 
Q 49.859375 40.875 45.40625 35.40625 
Q 44.1875 33.984375 37.640625 27.21875 
Q 31.109375 20.453125 19.1875 8.296875 
z
" id="DejaVuSans-50"/>
      </defs>
      <g style="fill:#262626;" transform="translate(91.402159 252.818281)scale(0.11 -0.11)">
       <use xlink:href="#DejaVuSans-50"/>
       <use x="63.623047" xlink:href="#DejaVuSans-48"/>
      </g>
     </g>
    </g>
    <g id="xtick_3">
     <g id="line2d_3">
      <path clip-path="url(#p415586a246)" d="M 143.491818 234.96 
L 143.491818 13.2 
" style="fill:none;stroke:#ffffff;stroke-linecap:round;"/>
     </g>
     <g id="text_3">
      <!-- 40 -->
      <defs>
       <path d="M 37.796875 64.3125 
L 12.890625 25.390625 
L 37.796875 25.390625 
z
M 35.203125 72.90625 
L 47.609375 72.90625 
L 47.609375 25.390625 
L 58.015625 25.390625 
L 58.015625 17.1875 
L 47.609375 17.1875 
L 47.609375 0 
L 37.796875 0 
L 37.796875 17.1875 
L 4.890625 17.1875 
L 4.890625 26.703125 
z
" id="DejaVuSans-52"/>
      </defs>
      <g style="fill:#262626;" transform="translate(136.493068 252.818281)scale(0.11 -0.11)">
       <use xlink:href="#DejaVuSans-52"/>
       <use x="63.623047" xlink:href="#DejaVuSans-48"/>
      </g>
     </g>
    </g>
    <g id="xtick_4">
     <g id="line2d_4">
      <path clip-path="url(#p415586a246)" d="M 188.582727 234.96 
L 188.582727 13.2 
" style="fill:none;stroke:#ffffff;stroke-linecap:round;"/>
     </g>
     <g id="text_4">
      <!-- 60 -->
      <defs>
       <path d="M 33.015625 40.375 
Q 26.375 40.375 22.484375 35.828125 
Q 18.609375 31.296875 18.609375 23.390625 
Q 18.609375 15.53125 22.484375 10.953125 
Q 26.375 6.390625 33.015625 6.390625 
Q 39.65625 6.390625 43.53125 10.953125 
Q 47.40625 15.53125 47.40625 23.390625 
Q 47.40625 31.296875 43.53125 35.828125 
Q 39.65625 40.375 33.015625 40.375 
z
M 52.59375 71.296875 
L 52.59375 62.3125 
Q 48.875 64.0625 45.09375 64.984375 
Q 41.3125 65.921875 37.59375 65.921875 
Q 27.828125 65.921875 22.671875 59.328125 
Q 17.53125 52.734375 16.796875 39.40625 
Q 19.671875 43.65625 24.015625 45.921875 
Q 28.375 48.1875 33.59375 48.1875 
Q 44.578125 48.1875 50.953125 41.515625 
Q 57.328125 34.859375 57.328125 23.390625 
Q 57.328125 12.15625 50.6875 5.359375 
Q 44.046875 -1.421875 33.015625 -1.421875 
Q 20.359375 -1.421875 13.671875 8.265625 
Q 6.984375 17.96875 6.984375 36.375 
Q 6.984375 53.65625 15.1875 63.9375 
Q 23.390625 74.21875 37.203125 74.21875 
Q 40.921875 74.21875 44.703125 73.484375 
Q 48.484375 72.75 52.59375 71.296875 
z
" id="DejaVuSans-54"/>
      </defs>
      <g style="fill:#262626;" transform="translate(181.583977 252.818281)scale(0.11 -0.11)">
       <use xlink:href="#DejaVuSans-54"/>
       <use x="63.623047" xlink:href="#DejaVuSans-48"/>
      </g>
     </g>
    </g>
    <g id="xtick_5">
     <g id="line2d_5">
      <path clip-path="url(#p415586a246)" d="M 233.673636 234.96 
L 233.673636 13.2 
" style="fill:none;stroke:#ffffff;stroke-linecap:round;"/>
     </g>
     <g id="text_5">
      <!-- 80 -->
      <defs>
       <path d="M 31.78125 34.625 
Q 24.75 34.625 20.71875 30.859375 
Q 16.703125 27.09375 16.703125 20.515625 
Q 16.703125 13.921875 20.71875 10.15625 
Q 24.75 6.390625 31.78125 6.390625 
Q 38.8125 6.390625 42.859375 10.171875 
Q 46.921875 13.96875 46.921875 20.515625 
Q 46.921875 27.09375 42.890625 30.859375 
Q 38.875 34.625 31.78125 34.625 
z
M 21.921875 38.8125 
Q 15.578125 40.375 12.03125 44.71875 
Q 8.5 49.078125 8.5 55.328125 
Q 8.5 64.0625 14.71875 69.140625 
Q 20.953125 74.21875 31.78125 74.21875 
Q 42.671875 74.21875 48.875 69.140625 
Q 55.078125 64.0625 55.078125 55.328125 
Q 55.078125 49.078125 51.53125 44.71875 
Q 48 40.375 41.703125 38.8125 
Q 48.828125 37.15625 52.796875 32.3125 
Q 56.78125 27.484375 56.78125 20.515625 
Q 56.78125 9.90625 50.3125 4.234375 
Q 43.84375 -1.421875 31.78125 -1.421875 
Q 19.734375 -1.421875 13.25 4.234375 
Q 6.78125 9.90625 6.78125 20.515625 
Q 6.78125 27.484375 10.78125 32.3125 
Q 14.796875 37.15625 21.921875 38.8125 
z
M 18.3125 54.390625 
Q 18.3125 48.734375 21.84375 45.5625 
Q 25.390625 42.390625 31.78125 42.390625 
Q 38.140625 42.390625 41.71875 45.5625 
Q 45.3125 48.734375 45.3125 54.390625 
Q 45.3125 60.0625 41.71875 63.234375 
Q 38.140625 66.40625 31.78125 66.40625 
Q 25.390625 66.40625 21.84375 63.234375 
Q 18.3125 60.0625 18.3125 54.390625 
z
" id="DejaVuSans-56"/>
      </defs>
      <g style="fill:#262626;" transform="translate(226.674886 252.818281)scale(0.11 -0.11)">
       <use xlink:href="#DejaVuSans-56"/>
       <use x="63.623047" xlink:href="#DejaVuSans-48"/>
      </g>
     </g>
    </g>
    <g id="text_6">
     <!-- Iteration -->
     <defs>
      <path d="M 9.8125 72.90625 
L 19.671875 72.90625 
L 19.671875 0 
L 9.8125 0 
z
" id="DejaVuSans-73"/>
      <path d="M 18.3125 70.21875 
L 18.3125 54.6875 
L 36.8125 54.6875 
L 36.8125 47.703125 
L 18.3125 47.703125 
L 18.3125 18.015625 
Q 18.3125 11.328125 20.140625 9.421875 
Q 21.96875 7.515625 27.59375 7.515625 
L 36.8125 7.515625 
L 36.8125 0 
L 27.59375 0 
Q 17.1875 0 13.234375 3.875 
Q 9.28125 7.765625 9.28125 18.015625 
L 9.28125 47.703125 
L 2.6875 47.703125 
L 2.6875 54.6875 
L 9.28125 54.6875 
L 9.28125 70.21875 
z
" id="DejaVuSans-116"/>
      <path d="M 56.203125 29.59375 
L 56.203125 25.203125 
L 14.890625 25.203125 
Q 15.484375 15.921875 20.484375 11.0625 
Q 25.484375 6.203125 34.421875 6.203125 
Q 39.59375 6.203125 44.453125 7.46875 
Q 49.3125 8.734375 54.109375 11.28125 
L 54.109375 2.78125 
Q 49.265625 0.734375 44.1875 -0.34375 
Q 39.109375 -1.421875 33.890625 -1.421875 
Q 20.796875 -1.421875 13.15625 6.1875 
Q 5.515625 13.8125 5.515625 26.8125 
Q 5.515625 40.234375 12.765625 48.109375 
Q 20.015625 56 32.328125 56 
Q 43.359375 56 49.78125 48.890625 
Q 56.203125 41.796875 56.203125 29.59375 
z
M 47.21875 32.234375 
Q 47.125 39.59375 43.09375 43.984375 
Q 39.0625 48.390625 32.421875 48.390625 
Q 24.90625 48.390625 20.390625 44.140625 
Q 15.875 39.890625 15.1875 32.171875 
z
" id="DejaVuSans-101"/>
      <path d="M 41.109375 46.296875 
Q 39.59375 47.171875 37.8125 47.578125 
Q 36.03125 48 33.890625 48 
Q 26.265625 48 22.1875 43.046875 
Q 18.109375 38.09375 18.109375 28.8125 
L 18.109375 0 
L 9.078125 0 
L 9.078125 54.6875 
L 18.109375 54.6875 
L 18.109375 46.1875 
Q 20.953125 51.171875 25.484375 53.578125 
Q 30.03125 56 36.53125 56 
Q 37.453125 56 38.578125 55.875 
Q 39.703125 55.765625 41.0625 55.515625 
z
" id="DejaVuSans-114"/>
      <path d="M 34.28125 27.484375 
Q 23.390625 27.484375 19.1875 25 
Q 14.984375 22.515625 14.984375 16.5 
Q 14.984375 11.71875 18.140625 8.90625 
Q 21.296875 6.109375 26.703125 6.109375 
Q 34.1875 6.109375 38.703125 11.40625 
Q 43.21875 16.703125 43.21875 25.484375 
L 43.21875 27.484375 
z
M 52.203125 31.203125 
L 52.203125 0 
L 43.21875 0 
L 43.21875 8.296875 
Q 40.140625 3.328125 35.546875 0.953125 
Q 30.953125 -1.421875 24.3125 -1.421875 
Q 15.921875 -1.421875 10.953125 3.296875 
Q 6 8.015625 6 15.921875 
Q 6 25.140625 12.171875 29.828125 
Q 18.359375 34.515625 30.609375 34.515625 
L 43.21875 34.515625 
L 43.21875 35.40625 
Q 43.21875 41.609375 39.140625 45 
Q 35.0625 48.390625 27.6875 48.390625 
Q 23 48.390625 18.546875 47.265625 
Q 14.109375 46.140625 10.015625 43.890625 
L 10.015625 52.203125 
Q 14.9375 54.109375 19.578125 55.046875 
Q 24.21875 56 28.609375 56 
Q 40.484375 56 46.34375 49.84375 
Q 52.203125 43.703125 52.203125 31.203125 
z
" id="DejaVuSans-97"/>
      <path d="M 9.421875 54.6875 
L 18.40625 54.6875 
L 18.40625 0 
L 9.421875 0 
z
M 9.421875 75.984375 
L 18.40625 75.984375 
L 18.40625 64.59375 
L 9.421875 64.59375 
z
" id="DejaVuSans-105"/>
      <path d="M 30.609375 48.390625 
Q 23.390625 48.390625 19.1875 42.75 
Q 14.984375 37.109375 14.984375 27.296875 
Q 14.984375 17.484375 19.15625 11.84375 
Q 23.34375 6.203125 30.609375 6.203125 
Q 37.796875 6.203125 41.984375 11.859375 
Q 46.1875 17.53125 46.1875 27.296875 
Q 46.1875 37.015625 41.984375 42.703125 
Q 37.796875 48.390625 30.609375 48.390625 
z
M 30.609375 56 
Q 42.328125 56 49.015625 48.375 
Q 55.71875 40.765625 55.71875 27.296875 
Q 55.71875 13.875 49.015625 6.21875 
Q 42.328125 -1.421875 30.609375 -1.421875 
Q 18.84375 -1.421875 12.171875 6.21875 
Q 5.515625 13.875 5.515625 27.296875 
Q 5.515625 40.765625 12.171875 48.375 
Q 18.84375 56 30.609375 56 
z
" id="DejaVuSans-111"/>
      <path d="M 54.890625 33.015625 
L 54.890625 0 
L 45.90625 0 
L 45.90625 32.71875 
Q 45.90625 40.484375 42.875 44.328125 
Q 39.84375 48.1875 33.796875 48.1875 
Q 26.515625 48.1875 22.3125 43.546875 
Q 18.109375 38.921875 18.109375 30.90625 
L 18.109375 0 
L 9.078125 0 
L 9.078125 54.6875 
L 18.109375 54.6875 
L 18.109375 46.1875 
Q 21.34375 51.125 25.703125 53.5625 
Q 30.078125 56 35.796875 56 
Q 45.21875 56 50.046875 50.171875 
Q 54.890625 44.34375 54.890625 33.015625 
z
" id="DejaVuSans-110"/>
     </defs>
     <g style="fill:#262626;" transform="translate(139.459688 268.224063)scale(0.12 -0.12)">
      <use xlink:href="#DejaVuSans-73"/>
      <use x="29.492188" xlink:href="#DejaVuSans-116"/>
      <use x="68.701172" xlink:href="#DejaVuSans-101"/>
      <use x="130.224609" xlink:href="#DejaVuSans-114"/>
      <use x="171.337891" xlink:href="#DejaVuSans-97"/>
      <use x="232.617188" xlink:href="#DejaVuSans-116"/>
      <use x="271.826172" xlink:href="#DejaVuSans-105"/>
      <use x="299.609375" xlink:href="#DejaVuSans-111"/>
      <use x="360.791016" xlink:href="#DejaVuSans-110"/>
     </g>
    </g>
   </g>
   <g id="matplotlib.axis_2">
    <g id="ytick_1">
     <g id="line2d_6">
      <path clip-path="url(#p415586a246)" d="M 53.31 223.910057 
L 276.51 223.910057 
" style="fill:none;stroke:#ffffff;stroke-linecap:round;"/>
     </g>
     <g id="text_7">
      <!-- 0 -->
      <g style="fill:#262626;" transform="translate(36.81125 228.089198)scale(0.11 -0.11)">
       <use xlink:href="#DejaVuSans-48"/>
      </g>
     </g>
    </g>
    <g id="ytick_2">
     <g id="line2d_7">
      <path clip-path="url(#p415586a246)" d="M 53.31 186.536944 
L 276.51 186.536944 
" style="fill:none;stroke:#ffffff;stroke-linecap:round;"/>
     </g>
     <g id="text_8">
      <!-- 20 -->
      <g style="fill:#262626;" transform="translate(29.8125 190.716085)scale(0.11 -0.11)">
       <use xlink:href="#DejaVuSans-50"/>
       <use x="63.623047" xlink:href="#DejaVuSans-48"/>
      </g>
     </g>
    </g>
    <g id="ytick_3">
     <g id="line2d_8">
      <path clip-path="url(#p415586a246)" d="M 53.31 149.163831 
L 276.51 149.163831 
" style="fill:none;stroke:#ffffff;stroke-linecap:round;"/>
     </g>
     <g id="text_9">
      <!-- 40 -->
      <g style="fill:#262626;" transform="translate(29.8125 153.342972)scale(0.11 -0.11)">
       <use xlink:href="#DejaVuSans-52"/>
       <use x="63.623047" xlink:href="#DejaVuSans-48"/>
      </g>
     </g>
    </g>
    <g id="ytick_4">
     <g id="line2d_9">
      <path clip-path="url(#p415586a246)" d="M 53.31 111.790718 
L 276.51 111.790718 
" style="fill:none;stroke:#ffffff;stroke-linecap:round;"/>
     </g>
     <g id="text_10">
      <!-- 60 -->
      <g style="fill:#262626;" transform="translate(29.8125 115.969859)scale(0.11 -0.11)">
       <use xlink:href="#DejaVuSans-54"/>
       <use x="63.623047" xlink:href="#DejaVuSans-48"/>
      </g>
     </g>
    </g>
    <g id="ytick_5">
     <g id="line2d_10">
      <path clip-path="url(#p415586a246)" d="M 53.31 74.417606 
L 276.51 74.417606 
" style="fill:none;stroke:#ffffff;stroke-linecap:round;"/>
     </g>
     <g id="text_11">
      <!-- 80 -->
      <g style="fill:#262626;" transform="translate(29.8125 78.596746)scale(0.11 -0.11)">
       <use xlink:href="#DejaVuSans-56"/>
       <use x="63.623047" xlink:href="#DejaVuSans-48"/>
      </g>
     </g>
    </g>
    <g id="ytick_6">
     <g id="line2d_11">
      <path clip-path="url(#p415586a246)" d="M 53.31 37.044493 
L 276.51 37.044493 
" style="fill:none;stroke:#ffffff;stroke-linecap:round;"/>
     </g>
     <g id="text_12">
      <!-- 100 -->
      <defs>
       <path d="M 12.40625 8.296875 
L 28.515625 8.296875 
L 28.515625 63.921875 
L 10.984375 60.40625 
L 10.984375 69.390625 
L 28.421875 72.90625 
L 38.28125 72.90625 
L 38.28125 8.296875 
L 54.390625 8.296875 
L 54.390625 0 
L 12.40625 0 
z
" id="DejaVuSans-49"/>
      </defs>
      <g style="fill:#262626;" transform="translate(22.81375 41.223633)scale(0.11 -0.11)">
       <use xlink:href="#DejaVuSans-49"/>
       <use x="63.623047" xlink:href="#DejaVuSans-48"/>
       <use x="127.246094" xlink:href="#DejaVuSans-48"/>
      </g>
     </g>
    </g>
    <g id="text_13">
     <!-- AverageReturn -->
     <defs>
      <path d="M 34.1875 63.1875 
L 20.796875 26.90625 
L 47.609375 26.90625 
z
M 28.609375 72.90625 
L 39.796875 72.90625 
L 67.578125 0 
L 57.328125 0 
L 50.6875 18.703125 
L 17.828125 18.703125 
L 11.1875 0 
L 0.78125 0 
z
" id="DejaVuSans-65"/>
      <path d="M 2.984375 54.6875 
L 12.5 54.6875 
L 29.59375 8.796875 
L 46.6875 54.6875 
L 56.203125 54.6875 
L 35.6875 0 
L 23.484375 0 
z
" id="DejaVuSans-118"/>
      <path d="M 45.40625 27.984375 
Q 45.40625 37.75 41.375 43.109375 
Q 37.359375 48.484375 30.078125 48.484375 
Q 22.859375 48.484375 18.828125 43.109375 
Q 14.796875 37.75 14.796875 27.984375 
Q 14.796875 18.265625 18.828125 12.890625 
Q 22.859375 7.515625 30.078125 7.515625 
Q 37.359375 7.515625 41.375 12.890625 
Q 45.40625 18.265625 45.40625 27.984375 
z
M 54.390625 6.78125 
Q 54.390625 -7.171875 48.1875 -13.984375 
Q 42 -20.796875 29.203125 -20.796875 
Q 24.46875 -20.796875 20.265625 -20.09375 
Q 16.0625 -19.390625 12.109375 -17.921875 
L 12.109375 -9.1875 
Q 16.0625 -11.328125 19.921875 -12.34375 
Q 23.78125 -13.375 27.78125 -13.375 
Q 36.625 -13.375 41.015625 -8.765625 
Q 45.40625 -4.15625 45.40625 5.171875 
L 45.40625 9.625 
Q 42.625 4.78125 38.28125 2.390625 
Q 33.9375 0 27.875 0 
Q 17.828125 0 11.671875 7.65625 
Q 5.515625 15.328125 5.515625 27.984375 
Q 5.515625 40.671875 11.671875 48.328125 
Q 17.828125 56 27.875 56 
Q 33.9375 56 38.28125 53.609375 
Q 42.625 51.21875 45.40625 46.390625 
L 45.40625 54.6875 
L 54.390625 54.6875 
z
" id="DejaVuSans-103"/>
      <path d="M 44.390625 34.1875 
Q 47.5625 33.109375 50.5625 29.59375 
Q 53.5625 26.078125 56.59375 19.921875 
L 66.609375 0 
L 56 0 
L 46.6875 18.703125 
Q 43.0625 26.03125 39.671875 28.421875 
Q 36.28125 30.8125 30.421875 30.8125 
L 19.671875 30.8125 
L 19.671875 0 
L 9.8125 0 
L 9.8125 72.90625 
L 32.078125 72.90625 
Q 44.578125 72.90625 50.734375 67.671875 
Q 56.890625 62.453125 56.890625 51.90625 
Q 56.890625 45.015625 53.6875 40.46875 
Q 50.484375 35.9375 44.390625 34.1875 
z
M 19.671875 64.796875 
L 19.671875 38.921875 
L 32.078125 38.921875 
Q 39.203125 38.921875 42.84375 42.21875 
Q 46.484375 45.515625 46.484375 51.90625 
Q 46.484375 58.296875 42.84375 61.546875 
Q 39.203125 64.796875 32.078125 64.796875 
z
" id="DejaVuSans-82"/>
      <path d="M 8.5 21.578125 
L 8.5 54.6875 
L 17.484375 54.6875 
L 17.484375 21.921875 
Q 17.484375 14.15625 20.5 10.265625 
Q 23.53125 6.390625 29.59375 6.390625 
Q 36.859375 6.390625 41.078125 11.03125 
Q 45.3125 15.671875 45.3125 23.6875 
L 45.3125 54.6875 
L 54.296875 54.6875 
L 54.296875 0 
L 45.3125 0 
L 45.3125 8.40625 
Q 42.046875 3.421875 37.71875 1 
Q 33.40625 -1.421875 27.6875 -1.421875 
Q 18.265625 -1.421875 13.375 4.4375 
Q 8.5 10.296875 8.5 21.578125 
z
M 31.109375 56 
z
" id="DejaVuSans-117"/>
     </defs>
     <g style="fill:#262626;" transform="translate(16.318125 169.347187)rotate(-90)scale(0.12 -0.12)">
      <use xlink:href="#DejaVuSans-65"/>
      <use x="68.330078" xlink:href="#DejaVuSans-118"/>
      <use x="127.509766" xlink:href="#DejaVuSans-101"/>
      <use x="189.033203" xlink:href="#DejaVuSans-114"/>
      <use x="230.146484" xlink:href="#DejaVuSans-97"/>
      <use x="291.425781" xlink:href="#DejaVuSans-103"/>
      <use x="354.902344" xlink:href="#DejaVuSans-101"/>
      <use x="416.425781" xlink:href="#DejaVuSans-82"/>
      <use x="485.845703" xlink:href="#DejaVuSans-101"/>
      <use x="547.369141" xlink:href="#DejaVuSans-116"/>
      <use x="586.578125" xlink:href="#DejaVuSans-117"/>
      <use x="649.957031" xlink:href="#DejaVuSans-114"/>
      <use x="691.054688" xlink:href="#DejaVuSans-110"/>
     </g>
    </g>
   </g>
   <g id="PolyCollection_1">
    <defs>
     <path d="M 53.31 -53.220491 
L 53.31 -53.204576 
L 55.564545 -53.206819 
L 57.819091 -53.21612 
L 60.073636 -53.266988 
L 62.328182 -53.231281 
L 64.582727 -53.211623 
L 66.837273 -53.200818 
L 69.091818 -53.185245 
L 71.346364 -53.250997 
L 73.600909 -53.189697 
L 75.855455 -53.157012 
L 78.11 -53.123801 
L 80.364545 -53.098527 
L 82.619091 -53.078295 
L 84.873636 -53.115379 
L 87.128182 -53.285087 
L 89.382727 -53.039687 
L 91.637273 -53.239593 
L 93.891818 -54.50095 
L 96.146364 -56.815805 
L 98.400909 -58.326844 
L 100.655455 -60.884668 
L 102.91 -65.254849 
L 105.164545 -64.508855 
L 107.419091 -69.555369 
L 109.673636 -70.611804 
L 111.928182 -75.609286 
L 114.182727 -78.134446 
L 116.437273 -82.488622 
L 118.691818 -87.161562 
L 120.946364 -89.118696 
L 123.200909 -88.731785 
L 125.455455 -91.821754 
L 127.71 -95.152866 
L 129.964545 -96.688819 
L 132.219091 -99.154885 
L 134.473636 -100.727508 
L 136.728182 -102.655207 
L 138.982727 -102.426345 
L 141.237273 -105.486331 
L 143.491818 -107.384626 
L 145.746364 -108.054555 
L 148.000909 -107.580956 
L 150.255455 -107.798815 
L 152.51 -113.007985 
L 154.764545 -112.017431 
L 157.019091 -111.834421 
L 159.273636 -111.052815 
L 161.528182 -114.518909 
L 163.782727 -112.454115 
L 166.037273 -114.789906 
L 168.291818 -116.81552 
L 170.546364 -117.329194 
L 172.800909 -114.874813 
L 175.055455 -117.504228 
L 177.31 -117.862019 
L 179.564545 -116.464899 
L 181.819091 -117.972848 
L 184.073636 -118.61811 
L 186.328182 -119.131955 
L 188.582727 -117.459939 
L 190.837273 -118.270414 
L 193.091818 -118.120117 
L 195.346364 -121.455735 
L 197.600909 -118.900428 
L 199.855455 -120.280837 
L 202.11 -118.506524 
L 204.364545 -120.788536 
L 206.619091 -118.907628 
L 208.873636 -119.655206 
L 211.128182 -119.432048 
L 213.382727 -121.565676 
L 215.637273 -120.05892 
L 217.891818 -121.480142 
L 220.146364 -121.346225 
L 222.400909 -122.377442 
L 224.655455 -122.136708 
L 226.91 -120.944604 
L 229.164545 -124.527556 
L 231.419091 -123.638243 
L 233.673636 -120.062752 
L 235.928182 -121.238431 
L 238.182727 -119.100949 
L 240.437273 -120.214883 
L 242.691818 -118.942497 
L 244.946364 -119.156749 
L 247.200909 -120.59045 
L 249.455455 -122.541152 
L 251.71 -119.448867 
L 253.964545 -121.371967 
L 256.219091 -120.353994 
L 258.473636 -116.963954 
L 260.728182 -118.772844 
L 262.982727 -119.954741 
L 265.237273 -116.944007 
L 267.491818 -115.923442 
L 269.746364 -116.802732 
L 272.000909 -116.662538 
L 274.255455 -117.840311 
L 276.51 -116.031036 
L 276.51 -236.649816 
L 276.51 -236.649816 
L 274.255455 -235.370587 
L 272.000909 -233.427151 
L 269.746364 -240.575885 
L 267.491818 -240.130511 
L 265.237273 -243.458256 
L 262.982727 -243.054577 
L 260.728182 -242.941545 
L 258.473636 -241.843046 
L 256.219091 -248.175933 
L 253.964545 -250.948227 
L 251.71 -243.190513 
L 249.455455 -252.255638 
L 247.200909 -246.953203 
L 244.946364 -247.864864 
L 242.691818 -249.580257 
L 240.437273 -246.070263 
L 238.182727 -246.802854 
L 235.928182 -244.819653 
L 233.673636 -246.324446 
L 231.419091 -243.141326 
L 229.164545 -250.97968 
L 226.91 -243.315698 
L 224.655455 -247.045627 
L 222.400909 -253.785668 
L 220.146364 -246.790113 
L 217.891818 -243.620968 
L 215.637273 -248.836709 
L 213.382727 -247.018673 
L 211.128182 -245.37659 
L 208.873636 -246.99901 
L 206.619091 -249.003243 
L 204.364545 -250.494729 
L 202.11 -245.778962 
L 199.855455 -248.418347 
L 197.600909 -245.775551 
L 195.346364 -249.590991 
L 193.091818 -243.716897 
L 190.837273 -242.593545 
L 188.582727 -243.277096 
L 186.328182 -250.395855 
L 184.073636 -246.841376 
L 181.819091 -246.212394 
L 179.564545 -242.608339 
L 177.31 -237.868086 
L 175.055455 -242.654996 
L 172.800909 -236.944995 
L 170.546364 -243.058725 
L 168.291818 -235.6493 
L 166.037273 -233.128739 
L 163.782727 -230.278883 
L 161.528182 -229.531091 
L 159.273636 -223.274527 
L 157.019091 -226.07767 
L 154.764545 -227.003597 
L 152.51 -226.790759 
L 150.255455 -209.95204 
L 148.000909 -215.90704 
L 145.746364 -215.104808 
L 143.491818 -209.108329 
L 141.237273 -206.74856 
L 138.982727 -199.090311 
L 136.728182 -198.035872 
L 134.473636 -190.203682 
L 132.219091 -189.696572 
L 129.964545 -183.153791 
L 127.71 -173.360577 
L 125.455455 -167.497199 
L 123.200909 -156.357652 
L 120.946364 -158.595375 
L 118.691818 -139.602825 
L 116.437273 -140.944528 
L 114.182727 -124.232888 
L 111.928182 -118.412465 
L 109.673636 -105.130535 
L 107.419091 -97.915489 
L 105.164545 -84.91191 
L 102.91 -89.056687 
L 100.655455 -72.034059 
L 98.400909 -65.880594 
L 96.146364 -65.299256 
L 93.891818 -58.384036 
L 91.637273 -55.032792 
L 89.382727 -57.895293 
L 87.128182 -53.78937 
L 84.873636 -56.395644 
L 82.619091 -53.159459 
L 80.364545 -53.146271 
L 78.11 -53.157175 
L 75.855455 -53.213981 
L 73.600909 -53.231739 
L 71.346364 -53.749409 
L 69.091818 -53.204373 
L 66.837273 -53.212292 
L 64.582727 -53.232293 
L 62.328182 -53.25216 
L 60.073636 -53.290387 
L 57.819091 -53.236513 
L 55.564545 -53.234167 
L 53.31 -53.220491 
z
" id="m883b202f96" style="stroke:#ffffff;stroke-opacity:0.2;"/>
    </defs>
    <g clip-path="url(#p415586a246)">
     <use style="fill:#4c72b0;fill-opacity:0.2;stroke:#ffffff;stroke-opacity:0.2;" x="0" xlink:href="#m883b202f96" y="277.919688"/>
    </g>
   </g>
   <g id="PolyCollection_2">
    <defs>
     <path d="M 53.31 -53.220491 
L 53.31 -53.204576 
L 55.564545 -53.208067 
L 57.819091 -53.217257 
L 60.073636 -53.268649 
L 62.328182 -53.233368 
L 64.582727 -53.21412 
L 66.837273 -53.201857 
L 69.091818 -53.189412 
L 71.346364 -53.254592 
L 73.600909 -53.19049 
L 75.855455 -53.162258 
L 78.11 -53.129957 
L 80.364545 -53.102482 
L 82.619091 -53.092146 
L 84.873636 -53.123294 
L 87.128182 -53.296461 
L 89.382727 -53.309155 
L 91.637273 -53.245746 
L 93.891818 -55.257245 
L 96.146364 -58.818575 
L 98.400909 -57.159323 
L 100.655455 -60.914113 
L 102.91 -67.073911 
L 105.164545 -66.206479 
L 107.419091 -70.47531 
L 109.673636 -73.476772 
L 111.928182 -80.680726 
L 114.182727 -80.094263 
L 116.437273 -87.439048 
L 118.691818 -90.94524 
L 120.946364 -91.997338 
L 123.200909 -90.169833 
L 125.455455 -95.729574 
L 127.71 -99.315208 
L 129.964545 -100.466723 
L 132.219091 -101.889246 
L 134.473636 -103.857429 
L 136.728182 -104.849713 
L 138.982727 -103.328275 
L 141.237273 -105.858545 
L 143.491818 -105.787143 
L 145.746364 -108.586647 
L 148.000909 -110.873659 
L 150.255455 -109.009558 
L 152.51 -114.657964 
L 154.764545 -112.869759 
L 157.019091 -113.471906 
L 159.273636 -115.94816 
L 161.528182 -118.902075 
L 163.782727 -117.059394 
L 166.037273 -122.217318 
L 168.291818 -122.676176 
L 170.546364 -125.008202 
L 172.800909 -134.272463 
L 175.055455 -137.142758 
L 177.31 -137.904286 
L 179.564545 -141.089025 
L 181.819091 -147.144246 
L 184.073636 -157.539543 
L 186.328182 -164.144918 
L 188.582727 -162.394558 
L 190.837273 -161.327836 
L 193.091818 -169.505324 
L 195.346364 -173.144329 
L 197.600909 -182.123925 
L 199.855455 -186.749142 
L 202.11 -190.496087 
L 204.364545 -193.356982 
L 206.619091 -197.467545 
L 208.873636 -192.663555 
L 211.128182 -192.430077 
L 213.382727 -198.914865 
L 215.637273 -197.492997 
L 217.891818 -211.115458 
L 220.146364 -199.838564 
L 222.400909 -207.868607 
L 224.655455 -207.052655 
L 226.91 -207.299788 
L 229.164545 -220.295036 
L 231.419091 -217.489442 
L 233.673636 -210.134358 
L 235.928182 -213.60523 
L 238.182727 -210.106839 
L 240.437273 -204.456047 
L 242.691818 -208.895443 
L 244.946364 -220.745847 
L 247.200909 -212.403535 
L 249.455455 -223.045078 
L 251.71 -216.020256 
L 253.964545 -218.331073 
L 256.219091 -218.470169 
L 258.473636 -214.322875 
L 260.728182 -221.679417 
L 262.982727 -210.325297 
L 265.237273 -214.349858 
L 267.491818 -220.266103 
L 269.746364 -212.488275 
L 272.000909 -209.290953 
L 274.255455 -212.481062 
L 276.51 -215.947942 
L 276.51 -227.263449 
L 276.51 -227.263449 
L 274.255455 -229.953608 
L 272.000909 -225.684214 
L 269.746364 -232.133091 
L 267.491818 -229.470715 
L 265.237273 -236.410024 
L 262.982727 -232.957608 
L 260.728182 -235.566225 
L 258.473636 -235.372471 
L 256.219091 -242.742736 
L 253.964545 -243.825458 
L 251.71 -238.788903 
L 249.455455 -245.776743 
L 247.200909 -242.157915 
L 244.946364 -243.611104 
L 242.691818 -245.654491 
L 240.437273 -243.471352 
L 238.182727 -244.12047 
L 235.928182 -243.643957 
L 233.673636 -245.406728 
L 231.419091 -243.387183 
L 229.164545 -252.130812 
L 226.91 -243.036831 
L 224.655455 -246.895209 
L 222.400909 -254.639687 
L 220.146364 -246.634946 
L 217.891818 -243.205085 
L 215.637273 -248.714477 
L 213.382727 -247.766523 
L 211.128182 -246.123085 
L 208.873636 -247.770497 
L 206.619091 -247.366855 
L 204.364545 -250.465902 
L 202.11 -244.01339 
L 199.855455 -248.818732 
L 197.600909 -241.675297 
L 195.346364 -250.865044 
L 193.091818 -242.704026 
L 190.837273 -243.250003 
L 188.582727 -243.043321 
L 186.328182 -246.762774 
L 184.073636 -245.42272 
L 181.819091 -243.49206 
L 179.564545 -239.026933 
L 177.31 -238.622506 
L 175.055455 -239.978857 
L 172.800909 -235.573881 
L 170.546364 -241.002612 
L 168.291818 -232.061316 
L 166.037273 -229.281165 
L 163.782727 -227.987799 
L 161.528182 -226.457856 
L 159.273636 -218.641341 
L 157.019091 -222.872857 
L 154.764545 -223.276383 
L 152.51 -223.839153 
L 150.255455 -206.871063 
L 148.000909 -214.125065 
L 145.746364 -214.010009 
L 143.491818 -209.120301 
L 141.237273 -205.075677 
L 138.982727 -196.902806 
L 136.728182 -195.075766 
L 134.473636 -188.67154 
L 132.219091 -187.774259 
L 129.964545 -182.526749 
L 127.71 -174.160103 
L 125.455455 -165.703996 
L 123.200909 -154.17931 
L 120.946364 -157.570962 
L 118.691818 -139.490155 
L 116.437273 -139.406884 
L 114.182727 -123.864409 
L 111.928182 -116.228836 
L 109.673636 -101.780333 
L 107.419091 -97.29213 
L 105.164545 -81.431599 
L 102.91 -87.003275 
L 100.655455 -70.986527 
L 98.400909 -64.729967 
L 96.146364 -64.09846 
L 93.891818 -57.653977 
L 91.637273 -54.013657 
L 89.382727 -57.391193 
L 87.128182 -54.056828 
L 84.873636 -56.404848 
L 82.619091 -53.158663 
L 80.364545 -53.15225 
L 78.11 -53.157619 
L 75.855455 -53.211478 
L 73.600909 -53.234484 
L 71.346364 -53.749323 
L 69.091818 -53.203567 
L 66.837273 -53.213228 
L 64.582727 -53.231734 
L 62.328182 -53.251785 
L 60.073636 -53.289798 
L 57.819091 -53.236288 
L 55.564545 -53.234121 
L 53.31 -53.220491 
z
" id="m8ac3d48d1f" style="stroke:#ffffff;stroke-opacity:0.2;"/>
    </defs>
    <g clip-path="url(#p415586a246)">
     <use style="fill:#dd8452;fill-opacity:0.2;stroke:#ffffff;stroke-opacity:0.2;" x="0" xlink:href="#m8ac3d48d1f" y="277.919688"/>
    </g>
   </g>
   <g id="line2d_12">
    <path clip-path="url(#p415586a246)" d="M 53.31 224.707154 
L 55.564545 224.699194 
L 57.819091 224.693371 
L 60.073636 224.641 
L 62.328182 224.677967 
L 64.582727 224.69773 
L 66.837273 224.713132 
L 69.091818 224.724879 
L 71.346364 224.419485 
L 73.600909 224.70897 
L 75.855455 224.734191 
L 78.11 224.7792 
L 80.364545 224.797289 
L 82.619091 224.80081 
L 84.873636 223.164176 
L 87.128182 224.382459 
L 89.382727 222.452197 
L 91.637273 223.783495 
L 93.891818 221.477194 
L 96.146364 216.862157 
L 98.400909 215.815969 
L 100.655455 211.460324 
L 102.91 200.76392 
L 105.164545 203.209305 
L 107.419091 194.184258 
L 109.673636 190.048518 
L 111.928182 180.908812 
L 114.182727 176.73602 
L 116.437273 166.203113 
L 118.691818 164.537494 
L 120.946364 154.062652 
L 123.200909 155.374969 
L 125.455455 148.260211 
L 127.71 143.662966 
L 129.964545 137.998383 
L 132.219091 133.493959 
L 134.473636 132.454093 
L 136.728182 127.574148 
L 138.982727 127.161359 
L 141.237273 121.802242 
L 143.491818 119.67321 
L 145.746364 116.340006 
L 148.000909 116.175689 
L 150.255455 119.04426 
L 152.51 108.020316 
L 154.764545 108.409173 
L 157.019091 108.963642 
L 159.273636 110.756017 
L 161.528182 105.894687 
L 163.782727 106.553188 
L 166.037273 103.960365 
L 168.291818 101.687277 
L 170.546364 97.725728 
L 172.800909 102.009784 
L 175.055455 97.840076 
L 177.31 100.054635 
L 179.564545 98.383069 
L 181.819091 95.827066 
L 184.073636 95.189944 
L 186.328182 93.155782 
L 188.582727 97.55117 
L 190.837273 97.487708 
L 193.091818 97.00118 
L 195.346364 92.396325 
L 197.600909 95.581698 
L 199.855455 93.570095 
L 202.11 95.776944 
L 204.364545 92.278055 
L 206.619091 93.964252 
L 208.873636 94.59258 
L 211.128182 95.515369 
L 213.382727 93.627513 
L 215.637273 93.471873 
L 217.891818 95.369133 
L 220.146364 93.851519 
L 222.400909 89.838132 
L 224.655455 93.32852 
L 226.91 95.789537 
L 229.164545 90.166069 
L 231.419091 94.529903 
L 233.673636 94.726089 
L 235.928182 94.890646 
L 238.182727 94.967786 
L 240.437273 94.777115 
L 242.691818 93.658311 
L 244.946364 94.408881 
L 247.200909 94.147861 
L 249.455455 90.521293 
L 251.71 96.599997 
L 253.964545 91.759591 
L 256.219091 93.654724 
L 258.473636 98.516187 
L 260.728182 97.062493 
L 262.982727 96.415029 
L 265.237273 97.718556 
L 267.491818 99.892711 
L 269.746364 99.230379 
L 272.000909 102.874843 
L 274.255455 101.314239 
L 276.51 101.579262 
" style="fill:none;stroke:#4c72b0;stroke-linecap:round;stroke-width:1.5;"/>
   </g>
   <g id="line2d_13">
    <path clip-path="url(#p415586a246)" d="M 53.31 224.707154 
L 55.564545 224.698594 
L 57.819091 224.692915 
L 60.073636 224.640464 
L 62.328182 224.677111 
L 64.582727 224.69676 
L 66.837273 224.712145 
L 69.091818 224.723198 
L 71.346364 224.41773 
L 73.600909 224.707201 
L 75.855455 224.732819 
L 78.11 224.7759 
L 80.364545 224.792321 
L 82.619091 224.794283 
L 84.873636 223.155617 
L 87.128182 224.243043 
L 89.382727 222.569513 
L 91.637273 224.289986 
L 93.891818 221.464077 
L 96.146364 216.46117 
L 98.400909 216.975042 
L 100.655455 211.969368 
L 102.91 200.881094 
L 105.164545 204.100648 
L 107.419091 194.035967 
L 109.673636 190.291135 
L 111.928182 179.464906 
L 114.182727 175.940351 
L 116.437273 164.496721 
L 118.691818 162.70199 
L 120.946364 153.135537 
L 123.200909 155.745116 
L 125.455455 147.202903 
L 127.71 141.182032 
L 129.964545 136.422951 
L 132.219091 133.087935 
L 134.473636 131.655203 
L 136.728182 127.956948 
L 138.982727 127.804147 
L 141.237273 122.452577 
L 143.491818 120.465966 
L 145.746364 116.62136 
L 148.000909 115.420325 
L 150.255455 119.979377 
L 152.51 108.671129 
L 154.764545 109.846616 
L 157.019091 109.747306 
L 159.273636 110.624937 
L 161.528182 105.239722 
L 163.782727 105.396091 
L 166.037273 102.170446 
L 168.291818 100.550942 
L 170.546364 94.91428 
L 172.800909 92.996516 
L 175.055455 89.35888 
L 177.31 89.656292 
L 179.564545 87.861709 
L 181.819091 82.601534 
L 184.073636 76.438556 
L 186.328182 72.465841 
L 188.582727 75.200748 
L 190.837273 75.630768 
L 193.091818 71.815012 
L 195.346364 65.915001 
L 197.600909 66.020076 
L 199.855455 60.135751 
L 202.11 60.664949 
L 204.364545 56.008245 
L 206.619091 55.502488 
L 208.873636 57.702661 
L 211.128182 58.643107 
L 213.382727 54.578994 
L 215.637273 54.81595 
L 217.891818 50.759416 
L 220.146364 54.682933 
L 222.400909 46.66554 
L 224.655455 50.945756 
L 226.91 52.751378 
L 229.164545 41.706764 
L 231.419091 47.481375 
L 233.673636 50.149144 
L 235.928182 49.295094 
L 238.182727 50.806033 
L 240.437273 53.955988 
L 242.691818 50.64472 
L 244.946364 45.741212 
L 247.200909 50.638962 
L 249.455455 43.508777 
L 251.71 50.515108 
L 253.964545 46.841422 
L 256.219091 47.313235 
L 258.473636 53.072014 
L 260.728182 49.296867 
L 262.982727 56.278235 
L 265.237273 52.539746 
L 267.491818 53.051278 
L 269.746364 55.609005 
L 272.000909 60.432104 
L 274.255455 56.702353 
L 276.51 56.313992 
" style="fill:none;stroke:#dd8452;stroke-linecap:round;stroke-width:1.5;"/>
   </g>
   <g id="patch_3">
    <path d="M 53.31 234.96 
L 53.31 13.2 
" style="fill:none;stroke:#ffffff;stroke-linecap:square;stroke-linejoin:miter;stroke-width:1.25;"/>
   </g>
   <g id="patch_4">
    <path d="M 276.51 234.96 
L 276.51 13.2 
" style="fill:none;stroke:#ffffff;stroke-linecap:square;stroke-linejoin:miter;stroke-width:1.25;"/>
   </g>
   <g id="patch_5">
    <path d="M 53.31 234.96 
L 276.51 234.96 
" style="fill:none;stroke:#ffffff;stroke-linecap:square;stroke-linejoin:miter;stroke-width:1.25;"/>
   </g>
   <g id="patch_6">
    <path d="M 53.31 13.2 
L 276.51 13.2 
" style="fill:none;stroke:#ffffff;stroke-linecap:square;stroke-linejoin:miter;stroke-width:1.25;"/>
   </g>
   <g id="legend_1">
    <g id="patch_7">
     <path d="M 184.388205 39.541605 
L 271.6464 39.541605 
Q 273.036 39.541605 273.036 38.152005 
L 273.036 18.0636 
Q 273.036 16.674 271.6464 16.674 
L 184.388205 16.674 
Q 182.998605 16.674 182.998605 18.0636 
L 182.998605 38.152005 
Q 182.998605 39.541605 184.388205 39.541605 
z
" style="fill:#eaeaf2;opacity:0.8;stroke:#cccccc;stroke-linejoin:miter;"/>
    </g>
    <g id="line2d_14">
     <path d="M 185.777805 22.300794 
L 199.673805 22.300794 
" style="fill:none;stroke:#4c72b0;stroke-linecap:round;stroke-width:1.5;"/>
    </g>
    <g id="line2d_15"/>
    <g id="text_14">
     <!-- PM_bc0_s8 -->
     <defs>
      <path d="M 19.671875 64.796875 
L 19.671875 37.40625 
L 32.078125 37.40625 
Q 38.96875 37.40625 42.71875 40.96875 
Q 46.484375 44.53125 46.484375 51.125 
Q 46.484375 57.671875 42.71875 61.234375 
Q 38.96875 64.796875 32.078125 64.796875 
z
M 9.8125 72.90625 
L 32.078125 72.90625 
Q 44.34375 72.90625 50.609375 67.359375 
Q 56.890625 61.8125 56.890625 51.125 
Q 56.890625 40.328125 50.609375 34.8125 
Q 44.34375 29.296875 32.078125 29.296875 
L 19.671875 29.296875 
L 19.671875 0 
L 9.8125 0 
z
" id="DejaVuSans-80"/>
      <path d="M 9.8125 72.90625 
L 24.515625 72.90625 
L 43.109375 23.296875 
L 61.8125 72.90625 
L 76.515625 72.90625 
L 76.515625 0 
L 66.890625 0 
L 66.890625 64.015625 
L 48.09375 14.015625 
L 38.1875 14.015625 
L 19.390625 64.015625 
L 19.390625 0 
L 9.8125 0 
z
" id="DejaVuSans-77"/>
      <path d="M 50.984375 -16.609375 
L 50.984375 -23.578125 
L -0.984375 -23.578125 
L -0.984375 -16.609375 
z
" id="DejaVuSans-95"/>
      <path d="M 48.6875 27.296875 
Q 48.6875 37.203125 44.609375 42.84375 
Q 40.53125 48.484375 33.40625 48.484375 
Q 26.265625 48.484375 22.1875 42.84375 
Q 18.109375 37.203125 18.109375 27.296875 
Q 18.109375 17.390625 22.1875 11.75 
Q 26.265625 6.109375 33.40625 6.109375 
Q 40.53125 6.109375 44.609375 11.75 
Q 48.6875 17.390625 48.6875 27.296875 
z
M 18.109375 46.390625 
Q 20.953125 51.265625 25.265625 53.625 
Q 29.59375 56 35.59375 56 
Q 45.5625 56 51.78125 48.09375 
Q 58.015625 40.1875 58.015625 27.296875 
Q 58.015625 14.40625 51.78125 6.484375 
Q 45.5625 -1.421875 35.59375 -1.421875 
Q 29.59375 -1.421875 25.265625 0.953125 
Q 20.953125 3.328125 18.109375 8.203125 
L 18.109375 0 
L 9.078125 0 
L 9.078125 75.984375 
L 18.109375 75.984375 
z
" id="DejaVuSans-98"/>
      <path d="M 48.78125 52.59375 
L 48.78125 44.1875 
Q 44.96875 46.296875 41.140625 47.34375 
Q 37.3125 48.390625 33.40625 48.390625 
Q 24.65625 48.390625 19.8125 42.84375 
Q 14.984375 37.3125 14.984375 27.296875 
Q 14.984375 17.28125 19.8125 11.734375 
Q 24.65625 6.203125 33.40625 6.203125 
Q 37.3125 6.203125 41.140625 7.25 
Q 44.96875 8.296875 48.78125 10.40625 
L 48.78125 2.09375 
Q 45.015625 0.34375 40.984375 -0.53125 
Q 36.96875 -1.421875 32.421875 -1.421875 
Q 20.0625 -1.421875 12.78125 6.34375 
Q 5.515625 14.109375 5.515625 27.296875 
Q 5.515625 40.671875 12.859375 48.328125 
Q 20.21875 56 33.015625 56 
Q 37.15625 56 41.109375 55.140625 
Q 45.0625 54.296875 48.78125 52.59375 
z
" id="DejaVuSans-99"/>
      <path d="M 44.28125 53.078125 
L 44.28125 44.578125 
Q 40.484375 46.53125 36.375 47.5 
Q 32.28125 48.484375 27.875 48.484375 
Q 21.1875 48.484375 17.84375 46.4375 
Q 14.5 44.390625 14.5 40.28125 
Q 14.5 37.15625 16.890625 35.375 
Q 19.28125 33.59375 26.515625 31.984375 
L 29.59375 31.296875 
Q 39.15625 29.25 43.1875 25.515625 
Q 47.21875 21.78125 47.21875 15.09375 
Q 47.21875 7.46875 41.1875 3.015625 
Q 35.15625 -1.421875 24.609375 -1.421875 
Q 20.21875 -1.421875 15.453125 -0.5625 
Q 10.6875 0.296875 5.421875 2 
L 5.421875 11.28125 
Q 10.40625 8.6875 15.234375 7.390625 
Q 20.0625 6.109375 24.8125 6.109375 
Q 31.15625 6.109375 34.5625 8.28125 
Q 37.984375 10.453125 37.984375 14.40625 
Q 37.984375 18.0625 35.515625 20.015625 
Q 33.0625 21.96875 24.703125 23.78125 
L 21.578125 24.515625 
Q 13.234375 26.265625 9.515625 29.90625 
Q 5.8125 33.546875 5.8125 39.890625 
Q 5.8125 47.609375 11.28125 51.796875 
Q 16.75 56 26.8125 56 
Q 31.78125 56 36.171875 55.265625 
Q 40.578125 54.546875 44.28125 53.078125 
z
" id="DejaVuSans-115"/>
     </defs>
     <g style="fill:#262626;" transform="translate(205.232205 24.732594)scale(0.06948 -0.06948)">
      <use xlink:href="#DejaVuSans-80"/>
      <use x="60.302734" xlink:href="#DejaVuSans-77"/>
      <use x="146.582031" xlink:href="#DejaVuSans-95"/>
      <use x="196.582031" xlink:href="#DejaVuSans-98"/>
      <use x="260.058594" xlink:href="#DejaVuSans-99"/>
      <use x="315.039062" xlink:href="#DejaVuSans-48"/>
      <use x="378.662109" xlink:href="#DejaVuSans-95"/>
      <use x="428.662109" xlink:href="#DejaVuSans-115"/>
      <use x="480.761719" xlink:href="#DejaVuSans-56"/>
     </g>
    </g>
    <g id="line2d_16">
     <path d="M 185.777805 32.692397 
L 199.673805 32.692397 
" style="fill:none;stroke:#dd8452;stroke-linecap:round;stroke-width:1.5;"/>
    </g>
    <g id="line2d_17"/>
    <g id="text_15">
     <!-- PM_hist_bc0.01_s8 -->
     <defs>
      <path d="M 54.890625 33.015625 
L 54.890625 0 
L 45.90625 0 
L 45.90625 32.71875 
Q 45.90625 40.484375 42.875 44.328125 
Q 39.84375 48.1875 33.796875 48.1875 
Q 26.515625 48.1875 22.3125 43.546875 
Q 18.109375 38.921875 18.109375 30.90625 
L 18.109375 0 
L 9.078125 0 
L 9.078125 75.984375 
L 18.109375 75.984375 
L 18.109375 46.1875 
Q 21.34375 51.125 25.703125 53.5625 
Q 30.078125 56 35.796875 56 
Q 45.21875 56 50.046875 50.171875 
Q 54.890625 44.34375 54.890625 33.015625 
z
" id="DejaVuSans-104"/>
      <path d="M 10.6875 12.40625 
L 21 12.40625 
L 21 0 
L 10.6875 0 
z
" id="DejaVuSans-46"/>
     </defs>
     <g style="fill:#262626;" transform="translate(205.232205 35.124197)scale(0.06948 -0.06948)">
      <use xlink:href="#DejaVuSans-80"/>
      <use x="60.302734" xlink:href="#DejaVuSans-77"/>
      <use x="146.582031" xlink:href="#DejaVuSans-95"/>
      <use x="196.582031" xlink:href="#DejaVuSans-104"/>
      <use x="259.960938" xlink:href="#DejaVuSans-105"/>
      <use x="287.744141" xlink:href="#DejaVuSans-115"/>
      <use x="339.84375" xlink:href="#DejaVuSans-116"/>
      <use x="379.052734" xlink:href="#DejaVuSans-95"/>
      <use x="429.052734" xlink:href="#DejaVuSans-98"/>
      <use x="492.529297" xlink:href="#DejaVuSans-99"/>
      <use x="547.509766" xlink:href="#DejaVuSans-48"/>
      <use x="611.132812" xlink:href="#DejaVuSans-46"/>
      <use x="642.919922" xlink:href="#DejaVuSans-48"/>
      <use x="706.542969" xlink:href="#DejaVuSans-49"/>
      <use x="770.166016" xlink:href="#DejaVuSans-95"/>
      <use x="820.166016" xlink:href="#DejaVuSans-115"/>
      <use x="872.265625" xlink:href="#DejaVuSans-56"/>
     </g>
    </g>
   </g>
  </g>
 </g>
 <defs>
  <clipPath id="p415586a246">
   <rect height="221.76" width="223.2" x="53.31" y="13.2"/>
  </clipPath>
 </defs>
</svg>
