<?xml version="1.0" encoding="utf-8" standalone="no"?>
<!DOCTYPE svg PUBLIC "-//W3C//DTD SVG 1.1//EN"
  "http://www.w3.org/Graphics/SVG/1.1/DTD/svg11.dtd">
<!-- Created with matplotlib (https://matplotlib.org/) -->
<svg height="277.919688pt" version="1.1" viewBox="0 0 289.71 277.919688" width="289.71pt" xmlns="http://www.w3.org/2000/svg" xmlns:xlink="http://www.w3.org/1999/xlink">
 <defs>
  <style type="text/css">
*{stroke-linecap:butt;stroke-linejoin:round;}
  </style>
 </defs>
 <g id="figure_1">
  <g id="patch_1">
   <path d="M 0 277.919688 
L 289.71 277.919688 
L 289.71 0 
L 0 0 
z
" style="fill:#ffffff;"/>
  </g>
  <g id="axes_1">
   <g id="patch_2">
    <path d="M 53.31 234.96 
L 276.51 234.96 
L 276.51 13.2 
L 53.31 13.2 
z
" style="fill:#eaeaf2;"/>
   </g>
   <g id="matplotlib.axis_1">
    <g id="xtick_1">
     <g id="line2d_1">
      <path clip-path="url(#pc479c6e20a)" d="M 53.31 234.96 
L 53.31 13.2 
" style="fill:none;stroke:#ffffff;stroke-linecap:round;"/>
     </g>
     <g id="text_1">
      <!-- 0 -->
      <defs>
       <path d="M 31.78125 66.40625 
Q 24.171875 66.40625 20.328125 58.90625 
Q 16.5 51.421875 16.5 36.375 
Q 16.5 21.390625 20.328125 13.890625 
Q 24.171875 6.390625 31.78125 6.390625 
Q 39.453125 6.390625 43.28125 13.890625 
Q 47.125 21.390625 47.125 36.375 
Q 47.125 51.421875 43.28125 58.90625 
Q 39.453125 66.40625 31.78125 66.40625 
z
M 31.78125 74.21875 
Q 44.046875 74.21875 50.515625 64.515625 
Q 56.984375 54.828125 56.984375 36.375 
Q 56.984375 17.96875 50.515625 8.265625 
Q 44.046875 -1.421875 31.78125 -1.421875 
Q 19.53125 -1.421875 13.0625 8.265625 
Q 6.59375 17.96875 6.59375 36.375 
Q 6.59375 54.828125 13.0625 64.515625 
Q 19.53125 74.21875 31.78125 74.21875 
z
" id="DejaVuSans-48"/>
      </defs>
      <g style="fill:#262626;" transform="translate(49.810625 252.818281)scale(0.11 -0.11)">
       <use xlink:href="#DejaVuSans-48"/>
      </g>
     </g>
    </g>
    <g id="xtick_2">
     <g id="line2d_2">
      <path clip-path="url(#pc479c6e20a)" d="M 98.400909 234.96 
L 98.400909 13.2 
" style="fill:none;stroke:#ffffff;stroke-linecap:round;"/>
     </g>
     <g id="text_2">
      <!-- 20 -->
      <defs>
       <path d="M 19.1875 8.296875 
L 53.609375 8.296875 
L 53.609375 0 
L 7.328125 0 
L 7.328125 8.296875 
Q 12.9375 14.109375 22.625 23.890625 
Q 32.328125 33.6875 34.8125 36.53125 
Q 39.546875 41.84375 41.421875 45.53125 
Q 43.3125 49.21875 43.3125 52.78125 
Q 43.3125 58.59375 39.234375 62.25 
Q 35.15625 65.921875 28.609375 65.921875 
Q 23.96875 65.921875 18.8125 64.3125 
Q 13.671875 62.703125 7.8125 59.421875 
L 7.8125 69.390625 
Q 13.765625 71.78125 18.9375 73 
Q 24.125 74.21875 28.421875 74.21875 
Q 39.75 74.21875 46.484375 68.546875 
Q 53.21875 62.890625 53.21875 53.421875 
Q 53.21875 48.921875 51.53125 44.890625 
Q 49.859375 40.875 45.40625 35.40625 
Q 44.1875 33.984375 37.640625 27.21875 
Q 31.109375 20.453125 19.1875 8.296875 
z
" id="DejaVuSans-50"/>
      </defs>
      <g style="fill:#262626;" transform="translate(91.402159 252.818281)scale(0.11 -0.11)">
       <use xlink:href="#DejaVuSans-50"/>
       <use x="63.623047" xlink:href="#DejaVuSans-48"/>
      </g>
     </g>
    </g>
    <g id="xtick_3">
     <g id="line2d_3">
      <path clip-path="url(#pc479c6e20a)" d="M 143.491818 234.96 
L 143.491818 13.2 
" style="fill:none;stroke:#ffffff;stroke-linecap:round;"/>
     </g>
     <g id="text_3">
      <!-- 40 -->
      <defs>
       <path d="M 37.796875 64.3125 
L 12.890625 25.390625 
L 37.796875 25.390625 
z
M 35.203125 72.90625 
L 47.609375 72.90625 
L 47.609375 25.390625 
L 58.015625 25.390625 
L 58.015625 17.1875 
L 47.609375 17.1875 
L 47.609375 0 
L 37.796875 0 
L 37.796875 17.1875 
L 4.890625 17.1875 
L 4.890625 26.703125 
z
" id="DejaVuSans-52"/>
      </defs>
      <g style="fill:#262626;" transform="translate(136.493068 252.818281)scale(0.11 -0.11)">
       <use xlink:href="#DejaVuSans-52"/>
       <use x="63.623047" xlink:href="#DejaVuSans-48"/>
      </g>
     </g>
    </g>
    <g id="xtick_4">
     <g id="line2d_4">
      <path clip-path="url(#pc479c6e20a)" d="M 188.582727 234.96 
L 188.582727 13.2 
" style="fill:none;stroke:#ffffff;stroke-linecap:round;"/>
     </g>
     <g id="text_4">
      <!-- 60 -->
      <defs>
       <path d="M 33.015625 40.375 
Q 26.375 40.375 22.484375 35.828125 
Q 18.609375 31.296875 18.609375 23.390625 
Q 18.609375 15.53125 22.484375 10.953125 
Q 26.375 6.390625 33.015625 6.390625 
Q 39.65625 6.390625 43.53125 10.953125 
Q 47.40625 15.53125 47.40625 23.390625 
Q 47.40625 31.296875 43.53125 35.828125 
Q 39.65625 40.375 33.015625 40.375 
z
M 52.59375 71.296875 
L 52.59375 62.3125 
Q 48.875 64.0625 45.09375 64.984375 
Q 41.3125 65.921875 37.59375 65.921875 
Q 27.828125 65.921875 22.671875 59.328125 
Q 17.53125 52.734375 16.796875 39.40625 
Q 19.671875 43.65625 24.015625 45.921875 
Q 28.375 48.1875 33.59375 48.1875 
Q 44.578125 48.1875 50.953125 41.515625 
Q 57.328125 34.859375 57.328125 23.390625 
Q 57.328125 12.15625 50.6875 5.359375 
Q 44.046875 -1.421875 33.015625 -1.421875 
Q 20.359375 -1.421875 13.671875 8.265625 
Q 6.984375 17.96875 6.984375 36.375 
Q 6.984375 53.65625 15.1875 63.9375 
Q 23.390625 74.21875 37.203125 74.21875 
Q 40.921875 74.21875 44.703125 73.484375 
Q 48.484375 72.75 52.59375 71.296875 
z
" id="DejaVuSans-54"/>
      </defs>
      <g style="fill:#262626;" transform="translate(181.583977 252.818281)scale(0.11 -0.11)">
       <use xlink:href="#DejaVuSans-54"/>
       <use x="63.623047" xlink:href="#DejaVuSans-48"/>
      </g>
     </g>
    </g>
    <g id="xtick_5">
     <g id="line2d_5">
      <path clip-path="url(#pc479c6e20a)" d="M 233.673636 234.96 
L 233.673636 13.2 
" style="fill:none;stroke:#ffffff;stroke-linecap:round;"/>
     </g>
     <g id="text_5">
      <!-- 80 -->
      <defs>
       <path d="M 31.78125 34.625 
Q 24.75 34.625 20.71875 30.859375 
Q 16.703125 27.09375 16.703125 20.515625 
Q 16.703125 13.921875 20.71875 10.15625 
Q 24.75 6.390625 31.78125 6.390625 
Q 38.8125 6.390625 42.859375 10.171875 
Q 46.921875 13.96875 46.921875 20.515625 
Q 46.921875 27.09375 42.890625 30.859375 
Q 38.875 34.625 31.78125 34.625 
z
M 21.921875 38.8125 
Q 15.578125 40.375 12.03125 44.71875 
Q 8.5 49.078125 8.5 55.328125 
Q 8.5 64.0625 14.71875 69.140625 
Q 20.953125 74.21875 31.78125 74.21875 
Q 42.671875 74.21875 48.875 69.140625 
Q 55.078125 64.0625 55.078125 55.328125 
Q 55.078125 49.078125 51.53125 44.71875 
Q 48 40.375 41.703125 38.8125 
Q 48.828125 37.15625 52.796875 32.3125 
Q 56.78125 27.484375 56.78125 20.515625 
Q 56.78125 9.90625 50.3125 4.234375 
Q 43.84375 -1.421875 31.78125 -1.421875 
Q 19.734375 -1.421875 13.25 4.234375 
Q 6.78125 9.90625 6.78125 20.515625 
Q 6.78125 27.484375 10.78125 32.3125 
Q 14.796875 37.15625 21.921875 38.8125 
z
M 18.3125 54.390625 
Q 18.3125 48.734375 21.84375 45.5625 
Q 25.390625 42.390625 31.78125 42.390625 
Q 38.140625 42.390625 41.71875 45.5625 
Q 45.3125 48.734375 45.3125 54.390625 
Q 45.3125 60.0625 41.71875 63.234375 
Q 38.140625 66.40625 31.78125 66.40625 
Q 25.390625 66.40625 21.84375 63.234375 
Q 18.3125 60.0625 18.3125 54.390625 
z
" id="DejaVuSans-56"/>
      </defs>
      <g style="fill:#262626;" transform="translate(226.674886 252.818281)scale(0.11 -0.11)">
       <use xlink:href="#DejaVuSans-56"/>
       <use x="63.623047" xlink:href="#DejaVuSans-48"/>
      </g>
     </g>
    </g>
    <g id="text_6">
     <!-- Iteration -->
     <defs>
      <path d="M 9.8125 72.90625 
L 19.671875 72.90625 
L 19.671875 0 
L 9.8125 0 
z
" id="DejaVuSans-73"/>
      <path d="M 18.3125 70.21875 
L 18.3125 54.6875 
L 36.8125 54.6875 
L 36.8125 47.703125 
L 18.3125 47.703125 
L 18.3125 18.015625 
Q 18.3125 11.328125 20.140625 9.421875 
Q 21.96875 7.515625 27.59375 7.515625 
L 36.8125 7.515625 
L 36.8125 0 
L 27.59375 0 
Q 17.1875 0 13.234375 3.875 
Q 9.28125 7.765625 9.28125 18.015625 
L 9.28125 47.703125 
L 2.6875 47.703125 
L 2.6875 54.6875 
L 9.28125 54.6875 
L 9.28125 70.21875 
z
" id="DejaVuSans-116"/>
      <path d="M 56.203125 29.59375 
L 56.203125 25.203125 
L 14.890625 25.203125 
Q 15.484375 15.921875 20.484375 11.0625 
Q 25.484375 6.203125 34.421875 6.203125 
Q 39.59375 6.203125 44.453125 7.46875 
Q 49.3125 8.734375 54.109375 11.28125 
L 54.109375 2.78125 
Q 49.265625 0.734375 44.1875 -0.34375 
Q 39.109375 -1.421875 33.890625 -1.421875 
Q 20.796875 -1.421875 13.15625 6.1875 
Q 5.515625 13.8125 5.515625 26.8125 
Q 5.515625 40.234375 12.765625 48.109375 
Q 20.015625 56 32.328125 56 
Q 43.359375 56 49.78125 48.890625 
Q 56.203125 41.796875 56.203125 29.59375 
z
M 47.21875 32.234375 
Q 47.125 39.59375 43.09375 43.984375 
Q 39.0625 48.390625 32.421875 48.390625 
Q 24.90625 48.390625 20.390625 44.140625 
Q 15.875 39.890625 15.1875 32.171875 
z
" id="DejaVuSans-101"/>
      <path d="M 41.109375 46.296875 
Q 39.59375 47.171875 37.8125 47.578125 
Q 36.03125 48 33.890625 48 
Q 26.265625 48 22.1875 43.046875 
Q 18.109375 38.09375 18.109375 28.8125 
L 18.109375 0 
L 9.078125 0 
L 9.078125 54.6875 
L 18.109375 54.6875 
L 18.109375 46.1875 
Q 20.953125 51.171875 25.484375 53.578125 
Q 30.03125 56 36.53125 56 
Q 37.453125 56 38.578125 55.875 
Q 39.703125 55.765625 41.0625 55.515625 
z
" id="DejaVuSans-114"/>
      <path d="M 34.28125 27.484375 
Q 23.390625 27.484375 19.1875 25 
Q 14.984375 22.515625 14.984375 16.5 
Q 14.984375 11.71875 18.140625 8.90625 
Q 21.296875 6.109375 26.703125 6.109375 
Q 34.1875 6.109375 38.703125 11.40625 
Q 43.21875 16.703125 43.21875 25.484375 
L 43.21875 27.484375 
z
M 52.203125 31.203125 
L 52.203125 0 
L 43.21875 0 
L 43.21875 8.296875 
Q 40.140625 3.328125 35.546875 0.953125 
Q 30.953125 -1.421875 24.3125 -1.421875 
Q 15.921875 -1.421875 10.953125 3.296875 
Q 6 8.015625 6 15.921875 
Q 6 25.140625 12.171875 29.828125 
Q 18.359375 34.515625 30.609375 34.515625 
L 43.21875 34.515625 
L 43.21875 35.40625 
Q 43.21875 41.609375 39.140625 45 
Q 35.0625 48.390625 27.6875 48.390625 
Q 23 48.390625 18.546875 47.265625 
Q 14.109375 46.140625 10.015625 43.890625 
L 10.015625 52.203125 
Q 14.9375 54.109375 19.578125 55.046875 
Q 24.21875 56 28.609375 56 
Q 40.484375 56 46.34375 49.84375 
Q 52.203125 43.703125 52.203125 31.203125 
z
" id="DejaVuSans-97"/>
      <path d="M 9.421875 54.6875 
L 18.40625 54.6875 
L 18.40625 0 
L 9.421875 0 
z
M 9.421875 75.984375 
L 18.40625 75.984375 
L 18.40625 64.59375 
L 9.421875 64.59375 
z
" id="DejaVuSans-105"/>
      <path d="M 30.609375 48.390625 
Q 23.390625 48.390625 19.1875 42.75 
Q 14.984375 37.109375 14.984375 27.296875 
Q 14.984375 17.484375 19.15625 11.84375 
Q 23.34375 6.203125 30.609375 6.203125 
Q 37.796875 6.203125 41.984375 11.859375 
Q 46.1875 17.53125 46.1875 27.296875 
Q 46.1875 37.015625 41.984375 42.703125 
Q 37.796875 48.390625 30.609375 48.390625 
z
M 30.609375 56 
Q 42.328125 56 49.015625 48.375 
Q 55.71875 40.765625 55.71875 27.296875 
Q 55.71875 13.875 49.015625 6.21875 
Q 42.328125 -1.421875 30.609375 -1.421875 
Q 18.84375 -1.421875 12.171875 6.21875 
Q 5.515625 13.875 5.515625 27.296875 
Q 5.515625 40.765625 12.171875 48.375 
Q 18.84375 56 30.609375 56 
z
" id="DejaVuSans-111"/>
      <path d="M 54.890625 33.015625 
L 54.890625 0 
L 45.90625 0 
L 45.90625 32.71875 
Q 45.90625 40.484375 42.875 44.328125 
Q 39.84375 48.1875 33.796875 48.1875 
Q 26.515625 48.1875 22.3125 43.546875 
Q 18.109375 38.921875 18.109375 30.90625 
L 18.109375 0 
L 9.078125 0 
L 9.078125 54.6875 
L 18.109375 54.6875 
L 18.109375 46.1875 
Q 21.34375 51.125 25.703125 53.5625 
Q 30.078125 56 35.796875 56 
Q 45.21875 56 50.046875 50.171875 
Q 54.890625 44.34375 54.890625 33.015625 
z
" id="DejaVuSans-110"/>
     </defs>
     <g style="fill:#262626;" transform="translate(139.459688 268.224063)scale(0.12 -0.12)">
      <use xlink:href="#DejaVuSans-73"/>
      <use x="29.492188" xlink:href="#DejaVuSans-116"/>
      <use x="68.701172" xlink:href="#DejaVuSans-101"/>
      <use x="130.224609" xlink:href="#DejaVuSans-114"/>
      <use x="171.337891" xlink:href="#DejaVuSans-97"/>
      <use x="232.617188" xlink:href="#DejaVuSans-116"/>
      <use x="271.826172" xlink:href="#DejaVuSans-105"/>
      <use x="299.609375" xlink:href="#DejaVuSans-111"/>
      <use x="360.791016" xlink:href="#DejaVuSans-110"/>
     </g>
    </g>
   </g>
   <g id="matplotlib.axis_2">
    <g id="ytick_1">
     <g id="line2d_6">
      <path clip-path="url(#pc479c6e20a)" d="M 53.31 223.937569 
L 276.51 223.937569 
" style="fill:none;stroke:#ffffff;stroke-linecap:round;"/>
     </g>
     <g id="text_7">
      <!-- 0 -->
      <g style="fill:#262626;" transform="translate(36.81125 228.116709)scale(0.11 -0.11)">
       <use xlink:href="#DejaVuSans-48"/>
      </g>
     </g>
    </g>
    <g id="ytick_2">
     <g id="line2d_7">
      <path clip-path="url(#pc479c6e20a)" d="M 53.31 187.624513 
L 276.51 187.624513 
" style="fill:none;stroke:#ffffff;stroke-linecap:round;"/>
     </g>
     <g id="text_8">
      <!-- 20 -->
      <g style="fill:#262626;" transform="translate(29.8125 191.803654)scale(0.11 -0.11)">
       <use xlink:href="#DejaVuSans-50"/>
       <use x="63.623047" xlink:href="#DejaVuSans-48"/>
      </g>
     </g>
    </g>
    <g id="ytick_3">
     <g id="line2d_8">
      <path clip-path="url(#pc479c6e20a)" d="M 53.31 151.311458 
L 276.51 151.311458 
" style="fill:none;stroke:#ffffff;stroke-linecap:round;"/>
     </g>
     <g id="text_9">
      <!-- 40 -->
      <g style="fill:#262626;" transform="translate(29.8125 155.490598)scale(0.11 -0.11)">
       <use xlink:href="#DejaVuSans-52"/>
       <use x="63.623047" xlink:href="#DejaVuSans-48"/>
      </g>
     </g>
    </g>
    <g id="ytick_4">
     <g id="line2d_9">
      <path clip-path="url(#pc479c6e20a)" d="M 53.31 114.998402 
L 276.51 114.998402 
" style="fill:none;stroke:#ffffff;stroke-linecap:round;"/>
     </g>
     <g id="text_10">
      <!-- 60 -->
      <g style="fill:#262626;" transform="translate(29.8125 119.177543)scale(0.11 -0.11)">
       <use xlink:href="#DejaVuSans-54"/>
       <use x="63.623047" xlink:href="#DejaVuSans-48"/>
      </g>
     </g>
    </g>
    <g id="ytick_5">
     <g id="line2d_10">
      <path clip-path="url(#pc479c6e20a)" d="M 53.31 78.685347 
L 276.51 78.685347 
" style="fill:none;stroke:#ffffff;stroke-linecap:round;"/>
     </g>
     <g id="text_11">
      <!-- 80 -->
      <g style="fill:#262626;" transform="translate(29.8125 82.864487)scale(0.11 -0.11)">
       <use xlink:href="#DejaVuSans-56"/>
       <use x="63.623047" xlink:href="#DejaVuSans-48"/>
      </g>
     </g>
    </g>
    <g id="ytick_6">
     <g id="line2d_11">
      <path clip-path="url(#pc479c6e20a)" d="M 53.31 42.372291 
L 276.51 42.372291 
" style="fill:none;stroke:#ffffff;stroke-linecap:round;"/>
     </g>
     <g id="text_12">
      <!-- 100 -->
      <defs>
       <path d="M 12.40625 8.296875 
L 28.515625 8.296875 
L 28.515625 63.921875 
L 10.984375 60.40625 
L 10.984375 69.390625 
L 28.421875 72.90625 
L 38.28125 72.90625 
L 38.28125 8.296875 
L 54.390625 8.296875 
L 54.390625 0 
L 12.40625 0 
z
" id="DejaVuSans-49"/>
      </defs>
      <g style="fill:#262626;" transform="translate(22.81375 46.551432)scale(0.11 -0.11)">
       <use xlink:href="#DejaVuSans-49"/>
       <use x="63.623047" xlink:href="#DejaVuSans-48"/>
       <use x="127.246094" xlink:href="#DejaVuSans-48"/>
      </g>
     </g>
    </g>
    <g id="text_13">
     <!-- AverageReturn -->
     <defs>
      <path d="M 34.1875 63.1875 
L 20.796875 26.90625 
L 47.609375 26.90625 
z
M 28.609375 72.90625 
L 39.796875 72.90625 
L 67.578125 0 
L 57.328125 0 
L 50.6875 18.703125 
L 17.828125 18.703125 
L 11.1875 0 
L 0.78125 0 
z
" id="DejaVuSans-65"/>
      <path d="M 2.984375 54.6875 
L 12.5 54.6875 
L 29.59375 8.796875 
L 46.6875 54.6875 
L 56.203125 54.6875 
L 35.6875 0 
L 23.484375 0 
z
" id="DejaVuSans-118"/>
      <path d="M 45.40625 27.984375 
Q 45.40625 37.75 41.375 43.109375 
Q 37.359375 48.484375 30.078125 48.484375 
Q 22.859375 48.484375 18.828125 43.109375 
Q 14.796875 37.75 14.796875 27.984375 
Q 14.796875 18.265625 18.828125 12.890625 
Q 22.859375 7.515625 30.078125 7.515625 
Q 37.359375 7.515625 41.375 12.890625 
Q 45.40625 18.265625 45.40625 27.984375 
z
M 54.390625 6.78125 
Q 54.390625 -7.171875 48.1875 -13.984375 
Q 42 -20.796875 29.203125 -20.796875 
Q 24.46875 -20.796875 20.265625 -20.09375 
Q 16.0625 -19.390625 12.109375 -17.921875 
L 12.109375 -9.1875 
Q 16.0625 -11.328125 19.921875 -12.34375 
Q 23.78125 -13.375 27.78125 -13.375 
Q 36.625 -13.375 41.015625 -8.765625 
Q 45.40625 -4.15625 45.40625 5.171875 
L 45.40625 9.625 
Q 42.625 4.78125 38.28125 2.390625 
Q 33.9375 0 27.875 0 
Q 17.828125 0 11.671875 7.65625 
Q 5.515625 15.328125 5.515625 27.984375 
Q 5.515625 40.671875 11.671875 48.328125 
Q 17.828125 56 27.875 56 
Q 33.9375 56 38.28125 53.609375 
Q 42.625 51.21875 45.40625 46.390625 
L 45.40625 54.6875 
L 54.390625 54.6875 
z
" id="DejaVuSans-103"/>
      <path d="M 44.390625 34.1875 
Q 47.5625 33.109375 50.5625 29.59375 
Q 53.5625 26.078125 56.59375 19.921875 
L 66.609375 0 
L 56 0 
L 46.6875 18.703125 
Q 43.0625 26.03125 39.671875 28.421875 
Q 36.28125 30.8125 30.421875 30.8125 
L 19.671875 30.8125 
L 19.671875 0 
L 9.8125 0 
L 9.8125 72.90625 
L 32.078125 72.90625 
Q 44.578125 72.90625 50.734375 67.671875 
Q 56.890625 62.453125 56.890625 51.90625 
Q 56.890625 45.015625 53.6875 40.46875 
Q 50.484375 35.9375 44.390625 34.1875 
z
M 19.671875 64.796875 
L 19.671875 38.921875 
L 32.078125 38.921875 
Q 39.203125 38.921875 42.84375 42.21875 
Q 46.484375 45.515625 46.484375 51.90625 
Q 46.484375 58.296875 42.84375 61.546875 
Q 39.203125 64.796875 32.078125 64.796875 
z
" id="DejaVuSans-82"/>
      <path d="M 8.5 21.578125 
L 8.5 54.6875 
L 17.484375 54.6875 
L 17.484375 21.921875 
Q 17.484375 14.15625 20.5 10.265625 
Q 23.53125 6.390625 29.59375 6.390625 
Q 36.859375 6.390625 41.078125 11.03125 
Q 45.3125 15.671875 45.3125 23.6875 
L 45.3125 54.6875 
L 54.296875 54.6875 
L 54.296875 0 
L 45.3125 0 
L 45.3125 8.40625 
Q 42.046875 3.421875 37.71875 1 
Q 33.40625 -1.421875 27.6875 -1.421875 
Q 18.265625 -1.421875 13.375 4.4375 
Q 8.5 10.296875 8.5 21.578125 
z
M 31.109375 56 
z
" id="DejaVuSans-117"/>
     </defs>
     <g style="fill:#262626;" transform="translate(16.318125 169.347187)rotate(-90)scale(0.12 -0.12)">
      <use xlink:href="#DejaVuSans-65"/>
      <use x="68.330078" xlink:href="#DejaVuSans-118"/>
      <use x="127.509766" xlink:href="#DejaVuSans-101"/>
      <use x="189.033203" xlink:href="#DejaVuSans-114"/>
      <use x="230.146484" xlink:href="#DejaVuSans-97"/>
      <use x="291.425781" xlink:href="#DejaVuSans-103"/>
      <use x="354.902344" xlink:href="#DejaVuSans-101"/>
      <use x="416.425781" xlink:href="#DejaVuSans-82"/>
      <use x="485.845703" xlink:href="#DejaVuSans-101"/>
      <use x="547.369141" xlink:href="#DejaVuSans-116"/>
      <use x="586.578125" xlink:href="#DejaVuSans-117"/>
      <use x="649.957031" xlink:href="#DejaVuSans-114"/>
      <use x="691.054688" xlink:href="#DejaVuSans-110"/>
     </g>
    </g>
   </g>
   <g id="PolyCollection_1">
    <defs>
     <path d="M 53.31 -53.215362 
L 53.31 -53.199899 
L 55.564545 -53.202079 
L 57.819091 -53.211115 
L 60.073636 -53.260541 
L 62.328182 -53.225847 
L 64.582727 -53.206746 
L 66.837273 -53.196248 
L 69.091818 -53.181116 
L 71.346364 -53.245003 
L 73.600909 -53.185442 
L 75.855455 -53.153685 
L 78.11 -53.121415 
L 80.364545 -53.096858 
L 82.619091 -53.0772 
L 84.873636 -53.113232 
L 87.128182 -53.278127 
L 89.382727 -53.039688 
L 91.637273 -53.233923 
L 93.891818 -54.459503 
L 96.146364 -56.708699 
L 98.400909 -58.176878 
L 100.655455 -60.662151 
L 102.91 -64.908376 
L 105.164545 -64.183541 
L 107.419091 -69.086916 
L 109.673636 -70.113385 
L 111.928182 -74.969118 
L 114.182727 -77.422654 
L 116.437273 -81.653328 
L 118.691818 -86.193723 
L 120.946364 -88.095344 
L 123.200909 -87.719408 
L 125.455455 -90.721733 
L 127.71 -93.958361 
L 129.964545 -95.450747 
L 132.219091 -97.846866 
L 134.473636 -99.374882 
L 136.728182 -101.247904 
L 138.982727 -101.025534 
L 141.237273 -103.998726 
L 143.491818 -105.843176 
L 145.746364 -106.494104 
L 148.000909 -106.033938 
L 150.255455 -106.245617 
L 152.51 -111.307034 
L 154.764545 -110.344576 
L 157.019091 -110.166757 
L 159.273636 -109.407321 
L 161.528182 -112.775102 
L 163.782727 -110.768874 
L 166.037273 -113.038412 
L 168.291818 -115.006572 
L 170.546364 -115.505675 
L 172.800909 -113.120911 
L 175.055455 -115.675745 
L 177.31 -116.023387 
L 179.564545 -114.665896 
L 181.819091 -116.131073 
L 184.073636 -116.758032 
L 186.328182 -117.257303 
L 188.582727 -115.632712 
L 190.837273 -116.420199 
L 193.091818 -116.274165 
L 195.346364 -119.51517 
L 197.600909 -117.032342 
L 199.855455 -118.373597 
L 202.11 -116.649612 
L 204.364545 -118.866896 
L 206.619091 -117.039339 
L 208.873636 -117.765712 
L 211.128182 -117.548884 
L 213.382727 -119.621993 
L 215.637273 -118.157975 
L 217.891818 -119.538885 
L 220.146364 -119.408766 
L 222.400909 -120.410734 
L 224.655455 -120.176828 
L 226.91 -119.018537 
L 229.164545 -122.499862 
L 231.419091 -121.635773 
L 233.673636 -118.161698 
L 235.928182 -119.30403 
L 238.182727 -117.227176 
L 240.437273 -118.309514 
L 242.691818 -117.073218 
L 244.946364 -117.281393 
L 247.200909 -118.674429 
L 249.455455 -120.5698 
L 251.71 -117.565226 
L 253.964545 -119.433779 
L 256.219091 -118.44468 
L 258.473636 -115.150795 
L 260.728182 -116.908377 
L 262.982727 -118.056751 
L 265.237273 -115.131414 
L 267.491818 -114.139797 
L 269.746364 -114.994146 
L 272.000909 -114.857928 
L 274.255455 -116.002295 
L 276.51 -114.244338 
L 276.51 -231.441867 
L 276.51 -231.441867 
L 274.255455 -230.198922 
L 272.000909 -228.31061 
L 269.746364 -235.256576 
L 267.491818 -234.823835 
L 265.237273 -238.057191 
L 262.982727 -237.664962 
L 260.728182 -237.555136 
L 258.473636 -236.487796 
L 256.219091 -242.641055 
L 253.964545 -245.334715 
L 251.71 -237.797043 
L 249.455455 -246.605043 
L 247.200909 -241.453007 
L 244.946364 -242.338809 
L 242.691818 -244.005547 
L 240.437273 -240.595111 
L 238.182727 -241.306922 
L 235.928182 -239.379973 
L 233.673636 -240.842084 
L 231.419091 -237.749251 
L 229.164545 -245.365276 
L 226.91 -237.918677 
L 224.655455 -241.542809 
L 222.400909 -248.091675 
L 220.146364 -241.294543 
L 217.891818 -238.215288 
L 215.637273 -243.283089 
L 213.382727 -241.51662 
L 211.128182 -239.921113 
L 208.873636 -241.497515 
L 206.619091 -243.444899 
L 204.364545 -244.89408 
L 202.11 -240.312072 
L 199.855455 -242.876594 
L 197.600909 -240.308758 
L 195.346364 -244.015976 
L 193.091818 -238.308496 
L 190.837273 -237.217007 
L 188.582727 -237.88117 
L 186.328182 -244.798011 
L 184.073636 -241.344352 
L 181.819091 -240.733211 
L 179.564545 -237.231381 
L 177.31 -232.625581 
L 175.055455 -237.276715 
L 172.800909 -231.728673 
L 170.546364 -237.668993 
L 168.291818 -230.46973 
L 166.037273 -228.020662 
L 163.782727 -225.251641 
L 161.528182 -224.525059 
L 159.273636 -218.445957 
L 157.019091 -221.169591 
L 154.764545 -222.069255 
L 152.51 -221.862454 
L 150.255455 -205.501351 
L 148.000909 -211.287443 
L 145.746364 -210.507965 
L 143.491818 -204.681572 
L 141.237273 -202.388735 
L 138.982727 -194.947706 
L 136.728182 -193.923175 
L 134.473636 -186.313139 
L 132.219091 -185.820413 
L 129.964545 -179.463212 
L 127.71 -169.947774 
L 125.455455 -164.250706 
L 123.200909 -153.427123 
L 120.946364 -155.601376 
L 118.691818 -137.147534 
L 116.437273 -138.45118 
L 114.182727 -122.213552 
L 111.928182 -116.55822 
L 109.673636 -103.653021 
L 107.419091 -96.642624 
L 105.164545 -84.007881 
L 102.91 -88.035094 
L 100.655455 -71.495299 
L 98.400909 -65.516372 
L 96.146364 -64.951524 
L 93.891818 -58.232448 
L 91.637273 -54.976259 
L 89.382727 -57.757568 
L 87.128182 -53.768106 
L 84.873636 -56.300455 
L 82.619091 -53.156062 
L 80.364545 -53.143247 
L 78.11 -53.153842 
L 75.855455 -53.209037 
L 73.600909 -53.226291 
L 71.346364 -53.729278 
L 69.091818 -53.199701 
L 66.837273 -53.207397 
L 64.582727 -53.22683 
L 62.328182 -53.246134 
L 60.073636 -53.283276 
L 57.819091 -53.23093 
L 55.564545 -53.228651 
L 53.31 -53.215362 
z
" id="m8e0b3f2bd4" style="stroke:#ffffff;stroke-opacity:0.2;"/>
    </defs>
    <g clip-path="url(#pc479c6e20a)">
     <use style="fill:#4c72b0;fill-opacity:0.2;stroke:#ffffff;stroke-opacity:0.2;" x="0" xlink:href="#m8e0b3f2bd4" y="277.919688"/>
    </g>
   </g>
   <g id="PolyCollection_2">
    <defs>
     <path d="M 53.31 -53.215362 
L 53.31 -53.199899 
L 55.564545 -53.20408 
L 57.819091 -53.213814 
L 60.073636 -53.264419 
L 62.328182 -53.232763 
L 64.582727 -53.217106 
L 66.837273 -53.206066 
L 69.091818 -53.191992 
L 71.346364 -53.25533 
L 73.600909 -53.202091 
L 75.855455 -53.176698 
L 78.11 -53.139114 
L 80.364545 -53.267857 
L 82.619091 -53.123918 
L 84.873636 -53.137539 
L 87.128182 -53.929202 
L 89.382727 -53.846563 
L 91.637273 -53.290816 
L 93.891818 -56.797838 
L 96.146364 -60.813219 
L 98.400909 -61.047174 
L 100.655455 -62.001182 
L 102.91 -67.697924 
L 105.164545 -68.626684 
L 107.419091 -73.888361 
L 109.673636 -74.763479 
L 111.928182 -79.382378 
L 114.182727 -83.422989 
L 116.437273 -86.75309 
L 118.691818 -89.450392 
L 120.946364 -94.06181 
L 123.200909 -91.650904 
L 125.455455 -94.894957 
L 127.71 -96.374522 
L 129.964545 -98.996529 
L 132.219091 -101.042414 
L 134.473636 -102.343079 
L 136.728182 -103.15759 
L 138.982727 -103.677297 
L 141.237273 -105.890038 
L 143.491818 -108.134404 
L 145.746364 -108.644274 
L 148.000909 -107.522987 
L 150.255455 -107.196276 
L 152.51 -112.816139 
L 154.764545 -111.726441 
L 157.019091 -111.06854 
L 159.273636 -110.844267 
L 161.528182 -114.241182 
L 163.782727 -112.425733 
L 166.037273 -113.9787 
L 168.291818 -115.306231 
L 170.546364 -117.137788 
L 172.800909 -114.894302 
L 175.055455 -115.575292 
L 177.31 -117.758575 
L 179.564545 -116.88951 
L 181.819091 -117.481334 
L 184.073636 -118.079443 
L 186.328182 -118.19811 
L 188.582727 -116.443842 
L 190.837273 -117.754766 
L 193.091818 -117.231236 
L 195.346364 -120.217958 
L 197.600909 -117.164808 
L 199.855455 -119.207983 
L 202.11 -116.403078 
L 204.364545 -119.583009 
L 206.619091 -117.455402 
L 208.873636 -118.836392 
L 211.128182 -118.231987 
L 213.382727 -121.047514 
L 215.637273 -119.196939 
L 217.891818 -120.072636 
L 220.146364 -120.057481 
L 222.400909 -121.811746 
L 224.655455 -121.445797 
L 226.91 -120.160102 
L 229.164545 -123.378013 
L 231.419091 -123.269285 
L 233.673636 -119.54535 
L 235.928182 -121.44465 
L 238.182727 -119.493099 
L 240.437273 -121.703826 
L 242.691818 -119.666535 
L 244.946364 -120.546219 
L 247.200909 -122.426795 
L 249.455455 -123.684531 
L 251.71 -121.433294 
L 253.964545 -124.175561 
L 256.219091 -123.067178 
L 258.473636 -121.655204 
L 260.728182 -123.282193 
L 262.982727 -124.545569 
L 265.237273 -124.197496 
L 267.491818 -123.679524 
L 269.746364 -121.579389 
L 272.000909 -124.669476 
L 274.255455 -124.044467 
L 276.51 -123.910791 
L 276.51 -253.835571 
L 276.51 -253.835571 
L 274.255455 -249.206413 
L 272.000909 -247.076519 
L 269.746364 -253.759096 
L 267.491818 -252.163668 
L 265.237273 -254.639688 
L 262.982727 -250.804702 
L 260.728182 -247.804644 
L 258.473636 -247.627555 
L 256.219091 -252.404754 
L 253.964545 -253.469887 
L 251.71 -244.562672 
L 249.455455 -250.348501 
L 247.200909 -245.838516 
L 244.946364 -245.477329 
L 242.691818 -246.56983 
L 240.437273 -242.873707 
L 238.182727 -242.212615 
L 235.928182 -239.658258 
L 233.673636 -240.621317 
L 231.419091 -236.769957 
L 229.164545 -243.884493 
L 226.91 -236.695234 
L 224.655455 -241.960862 
L 222.400909 -247.627997 
L 220.146364 -239.06585 
L 217.891818 -236.869717 
L 215.637273 -242.440661 
L 213.382727 -242.059336 
L 211.128182 -239.45647 
L 208.873636 -241.91523 
L 206.619091 -244.78606 
L 204.364545 -245.182621 
L 202.11 -241.809716 
L 199.855455 -244.299257 
L 197.600909 -241.427957 
L 195.346364 -245.81369 
L 193.091818 -239.6032 
L 190.837273 -239.896252 
L 188.582727 -239.297411 
L 186.328182 -245.327374 
L 184.073636 -243.765465 
L 181.819091 -242.900851 
L 179.564545 -240.288356 
L 177.31 -235.675255 
L 175.055455 -239.400502 
L 172.800909 -235.533277 
L 170.546364 -239.832234 
L 168.291818 -232.723226 
L 166.037273 -231.159698 
L 163.782727 -229.187588 
L 161.528182 -229.175073 
L 159.273636 -223.602447 
L 157.019091 -226.068702 
L 154.764545 -226.712464 
L 152.51 -226.382543 
L 150.255455 -211.538651 
L 148.000909 -215.768628 
L 145.746364 -217.336508 
L 143.491818 -212.393008 
L 141.237273 -208.211201 
L 138.982727 -199.004752 
L 136.728182 -200.965261 
L 134.473636 -196.131511 
L 132.219091 -193.869644 
L 129.964545 -188.164708 
L 127.71 -179.764666 
L 125.455455 -174.359048 
L 123.200909 -164.795118 
L 120.946364 -167.722104 
L 118.691818 -150.752218 
L 116.437273 -149.963994 
L 114.182727 -134.350729 
L 111.928182 -128.562522 
L 109.673636 -112.157464 
L 107.419091 -104.771335 
L 105.164545 -92.016072 
L 102.91 -94.921935 
L 100.655455 -79.333367 
L 98.400909 -72.087766 
L 96.146364 -71.02715 
L 93.891818 -63.30667 
L 91.637273 -61.05086 
L 89.382727 -60.550402 
L 87.128182 -55.178494 
L 84.873636 -57.322577 
L 82.619091 -53.145035 
L 80.364545 -53.505207 
L 78.11 -53.169134 
L 75.855455 -53.212378 
L 73.600909 -53.239838 
L 71.346364 -53.741504 
L 69.091818 -53.208832 
L 66.837273 -53.211889 
L 64.582727 -53.227614 
L 62.328182 -53.24879 
L 60.073636 -53.282905 
L 57.819091 -53.231058 
L 55.564545 -53.228629 
L 53.31 -53.215362 
z
" id="m2fef374dac" style="stroke:#ffffff;stroke-opacity:0.2;"/>
    </defs>
    <g clip-path="url(#pc479c6e20a)">
     <use style="fill:#dd8452;fill-opacity:0.2;stroke:#ffffff;stroke-opacity:0.2;" x="0" xlink:href="#m2fef374dac" y="277.919688"/>
    </g>
   </g>
   <g id="line2d_12">
    <path clip-path="url(#pc479c6e20a)" d="M 53.31 224.712057 
L 55.564545 224.704323 
L 57.819091 224.698665 
L 60.073636 224.647779 
L 62.328182 224.683697 
L 64.582727 224.7029 
L 66.837273 224.717865 
L 69.091818 224.729279 
L 71.346364 224.432547 
L 73.600909 224.713821 
L 75.855455 224.738326 
L 78.11 224.782059 
L 80.364545 224.799635 
L 82.619091 224.803057 
L 84.873636 223.212844 
L 87.128182 224.396571 
L 89.382727 222.52106 
L 91.637273 223.814597 
L 93.891818 221.573712 
L 96.146364 217.089576 
L 98.400909 216.073063 
L 100.655455 211.840962 
L 102.91 201.447952 
L 105.164545 203.823976 
L 107.419091 195.054918 
L 109.673636 191.036484 
L 111.928182 182.156018 
L 114.182727 178.101584 
L 116.437273 167.867434 
L 118.691818 166.249059 
L 120.946364 156.071327 
L 123.200909 157.346422 
L 125.455455 150.433468 
L 127.71 145.96662 
L 129.964545 140.462708 
L 132.219091 136.086048 
L 134.473636 135.075677 
L 136.728182 130.334148 
L 138.982727 129.933068 
L 141.237273 124.725957 
L 143.491818 122.657313 
L 145.746364 119.418653 
L 148.000909 119.258997 
L 150.255455 122.046203 
L 152.51 111.334944 
L 154.764545 111.712772 
L 157.019091 112.251514 
L 159.273636 113.993049 
L 161.528182 109.269607 
L 163.782727 109.90943 
L 166.037273 107.39015 
L 168.291818 105.181537 
L 170.546364 101.332354 
L 172.800909 105.494895 
L 175.055455 101.443458 
L 177.31 103.595203 
L 179.564545 101.971049 
L 181.819091 99.487546 
L 184.073636 98.868495 
L 186.328182 96.892031 
L 188.582727 101.162747 
L 190.837273 101.101085 
L 193.091818 100.628357 
L 195.346364 96.154114 
L 197.600909 99.249137 
L 199.855455 97.294592 
L 202.11 99.438846 
L 204.364545 96.039199 
L 206.619091 97.677569 
L 208.873636 98.288074 
L 211.128182 99.184689 
L 213.382727 97.350381 
L 215.637273 97.199155 
L 217.891818 99.042601 
L 220.146364 97.568033 
L 222.400909 93.668483 
L 224.655455 97.059869 
L 226.91 99.451081 
L 229.164545 93.987118 
L 231.419091 98.227176 
L 233.673636 98.417796 
L 235.928182 98.577686 
L 238.182727 98.652638 
L 240.437273 98.467375 
L 242.691818 97.380305 
L 244.946364 98.109586 
L 247.200909 97.85597 
L 249.455455 94.332266 
L 251.71 100.238553 
L 253.964545 95.535441 
L 256.219091 97.37682 
L 258.473636 102.100392 
L 260.728182 100.687931 
L 262.982727 100.058831 
L 265.237273 101.325385 
L 267.491818 103.437872 
L 269.746364 102.794326 
L 272.000909 106.335418 
L 274.255455 104.819079 
L 276.51 105.076585 
" style="fill:none;stroke:#4c72b0;stroke-linecap:round;stroke-width:1.5;"/>
   </g>
   <g id="line2d_13">
    <path clip-path="url(#pc479c6e20a)" d="M 53.31 224.712057 
L 55.564545 224.703333 
L 57.819091 224.697251 
L 60.073636 224.646026 
L 62.328182 224.678911 
L 64.582727 224.697328 
L 66.837273 224.71071 
L 69.091818 224.719275 
L 71.346364 224.42127 
L 73.600909 224.698723 
L 75.855455 224.725149 
L 78.11 224.765564 
L 80.364545 224.533155 
L 82.619091 224.785211 
L 84.873636 222.68963 
L 87.128182 223.365839 
L 89.382727 220.721205 
L 91.637273 220.748849 
L 93.891818 217.867434 
L 96.146364 211.999503 
L 98.400909 211.352218 
L 100.655455 207.252413 
L 102.91 196.609758 
L 105.164545 197.59831 
L 107.419091 188.589839 
L 109.673636 184.459216 
L 111.928182 173.947238 
L 114.182727 169.032828 
L 116.437273 159.561145 
L 118.691818 157.818383 
L 120.946364 147.02773 
L 123.200909 149.696677 
L 125.455455 143.292685 
L 127.71 139.850093 
L 129.964545 134.339069 
L 132.219091 130.463659 
L 134.473636 128.682392 
L 136.728182 125.858262 
L 138.982727 126.578663 
L 141.237273 120.869068 
L 143.491818 117.655982 
L 145.746364 114.929296 
L 148.000909 116.27388 
L 150.255455 118.552224 
L 152.51 108.320346 
L 154.764545 108.700235 
L 157.019091 109.351066 
L 159.273636 110.696331 
L 161.528182 106.21156 
L 163.782727 107.113027 
L 166.037273 105.350488 
L 168.291818 103.904959 
L 170.546364 99.434677 
L 172.800909 102.705898 
L 175.055455 100.43179 
L 177.31 101.202773 
L 179.564545 99.330754 
L 181.819091 97.728595 
L 184.073636 96.997234 
L 186.328182 96.156946 
L 188.582727 100.049061 
L 190.837273 99.094179 
L 193.091818 99.502469 
L 195.346364 94.903863 
L 197.600909 98.623305 
L 199.855455 96.166068 
L 202.11 98.813291 
L 204.364545 95.536872 
L 206.619091 96.798956 
L 208.873636 97.543877 
L 211.128182 99.075459 
L 213.382727 96.366262 
L 215.637273 97.100887 
L 217.891818 99.448511 
L 220.146364 98.358022 
L 222.400909 93.199816 
L 224.655455 96.216358 
L 226.91 99.492019 
L 229.164545 94.288434 
L 231.419091 97.900067 
L 233.673636 97.836354 
L 235.928182 97.368233 
L 238.182727 97.06683 
L 240.437273 95.630921 
L 242.691818 94.801505 
L 244.946364 94.907914 
L 247.200909 93.787032 
L 249.455455 90.903171 
L 251.71 94.921704 
L 253.964545 89.096964 
L 256.219091 90.183721 
L 258.473636 93.278308 
L 260.728182 92.376269 
L 262.982727 90.244552 
L 265.237273 88.501096 
L 267.491818 89.998091 
L 269.746364 90.250445 
L 272.000909 92.04669 
L 274.255455 91.294248 
L 276.51 89.046506 
" style="fill:none;stroke:#dd8452;stroke-linecap:round;stroke-width:1.5;"/>
   </g>
   <g id="patch_3">
    <path d="M 53.31 234.96 
L 53.31 13.2 
" style="fill:none;stroke:#ffffff;stroke-linecap:square;stroke-linejoin:miter;stroke-width:1.25;"/>
   </g>
   <g id="patch_4">
    <path d="M 276.51 234.96 
L 276.51 13.2 
" style="fill:none;stroke:#ffffff;stroke-linecap:square;stroke-linejoin:miter;stroke-width:1.25;"/>
   </g>
   <g id="patch_5">
    <path d="M 53.31 234.96 
L 276.51 234.96 
" style="fill:none;stroke:#ffffff;stroke-linecap:square;stroke-linejoin:miter;stroke-width:1.25;"/>
   </g>
   <g id="patch_6">
    <path d="M 53.31 13.2 
L 276.51 13.2 
" style="fill:none;stroke:#ffffff;stroke-linecap:square;stroke-linejoin:miter;stroke-width:1.25;"/>
   </g>
   <g id="legend_1">
    <g id="patch_7">
     <path d="M 162.867861 39.541605 
L 271.6464 39.541605 
Q 273.036 39.541605 273.036 38.152005 
L 273.036 18.0636 
Q 273.036 16.674 271.6464 16.674 
L 162.867861 16.674 
Q 161.478261 16.674 161.478261 18.0636 
L 161.478261 38.152005 
Q 161.478261 39.541605 162.867861 39.541605 
z
" style="fill:#eaeaf2;opacity:0.8;stroke:#cccccc;stroke-linejoin:miter;"/>
    </g>
    <g id="line2d_14">
     <path d="M 164.257461 22.300794 
L 178.153461 22.300794 
" style="fill:none;stroke:#4c72b0;stroke-linecap:round;stroke-width:1.5;"/>
    </g>
    <g id="line2d_15"/>
    <g id="text_14">
     <!-- PM_bc0_s8 -->
     <defs>
      <path d="M 19.671875 64.796875 
L 19.671875 37.40625 
L 32.078125 37.40625 
Q 38.96875 37.40625 42.71875 40.96875 
Q 46.484375 44.53125 46.484375 51.125 
Q 46.484375 57.671875 42.71875 61.234375 
Q 38.96875 64.796875 32.078125 64.796875 
z
M 9.8125 72.90625 
L 32.078125 72.90625 
Q 44.34375 72.90625 50.609375 67.359375 
Q 56.890625 61.8125 56.890625 51.125 
Q 56.890625 40.328125 50.609375 34.8125 
Q 44.34375 29.296875 32.078125 29.296875 
L 19.671875 29.296875 
L 19.671875 0 
L 9.8125 0 
z
" id="DejaVuSans-80"/>
      <path d="M 9.8125 72.90625 
L 24.515625 72.90625 
L 43.109375 23.296875 
L 61.8125 72.90625 
L 76.515625 72.90625 
L 76.515625 0 
L 66.890625 0 
L 66.890625 64.015625 
L 48.09375 14.015625 
L 38.1875 14.015625 
L 19.390625 64.015625 
L 19.390625 0 
L 9.8125 0 
z
" id="DejaVuSans-77"/>
      <path d="M 50.984375 -16.609375 
L 50.984375 -23.578125 
L -0.984375 -23.578125 
L -0.984375 -16.609375 
z
" id="DejaVuSans-95"/>
      <path d="M 48.6875 27.296875 
Q 48.6875 37.203125 44.609375 42.84375 
Q 40.53125 48.484375 33.40625 48.484375 
Q 26.265625 48.484375 22.1875 42.84375 
Q 18.109375 37.203125 18.109375 27.296875 
Q 18.109375 17.390625 22.1875 11.75 
Q 26.265625 6.109375 33.40625 6.109375 
Q 40.53125 6.109375 44.609375 11.75 
Q 48.6875 17.390625 48.6875 27.296875 
z
M 18.109375 46.390625 
Q 20.953125 51.265625 25.265625 53.625 
Q 29.59375 56 35.59375 56 
Q 45.5625 56 51.78125 48.09375 
Q 58.015625 40.1875 58.015625 27.296875 
Q 58.015625 14.40625 51.78125 6.484375 
Q 45.5625 -1.421875 35.59375 -1.421875 
Q 29.59375 -1.421875 25.265625 0.953125 
Q 20.953125 3.328125 18.109375 8.203125 
L 18.109375 0 
L 9.078125 0 
L 9.078125 75.984375 
L 18.109375 75.984375 
z
" id="DejaVuSans-98"/>
      <path d="M 48.78125 52.59375 
L 48.78125 44.1875 
Q 44.96875 46.296875 41.140625 47.34375 
Q 37.3125 48.390625 33.40625 48.390625 
Q 24.65625 48.390625 19.8125 42.84375 
Q 14.984375 37.3125 14.984375 27.296875 
Q 14.984375 17.28125 19.8125 11.734375 
Q 24.65625 6.203125 33.40625 6.203125 
Q 37.3125 6.203125 41.140625 7.25 
Q 44.96875 8.296875 48.78125 10.40625 
L 48.78125 2.09375 
Q 45.015625 0.34375 40.984375 -0.53125 
Q 36.96875 -1.421875 32.421875 -1.421875 
Q 20.0625 -1.421875 12.78125 6.34375 
Q 5.515625 14.109375 5.515625 27.296875 
Q 5.515625 40.671875 12.859375 48.328125 
Q 20.21875 56 33.015625 56 
Q 37.15625 56 41.109375 55.140625 
Q 45.0625 54.296875 48.78125 52.59375 
z
" id="DejaVuSans-99"/>
      <path d="M 44.28125 53.078125 
L 44.28125 44.578125 
Q 40.484375 46.53125 36.375 47.5 
Q 32.28125 48.484375 27.875 48.484375 
Q 21.1875 48.484375 17.84375 46.4375 
Q 14.5 44.390625 14.5 40.28125 
Q 14.5 37.15625 16.890625 35.375 
Q 19.28125 33.59375 26.515625 31.984375 
L 29.59375 31.296875 
Q 39.15625 29.25 43.1875 25.515625 
Q 47.21875 21.78125 47.21875 15.09375 
Q 47.21875 7.46875 41.1875 3.015625 
Q 35.15625 -1.421875 24.609375 -1.421875 
Q 20.21875 -1.421875 15.453125 -0.5625 
Q 10.6875 0.296875 5.421875 2 
L 5.421875 11.28125 
Q 10.40625 8.6875 15.234375 7.390625 
Q 20.0625 6.109375 24.8125 6.109375 
Q 31.15625 6.109375 34.5625 8.28125 
Q 37.984375 10.453125 37.984375 14.40625 
Q 37.984375 18.0625 35.515625 20.015625 
Q 33.0625 21.96875 24.703125 23.78125 
L 21.578125 24.515625 
Q 13.234375 26.265625 9.515625 29.90625 
Q 5.8125 33.546875 5.8125 39.890625 
Q 5.8125 47.609375 11.28125 51.796875 
Q 16.75 56 26.8125 56 
Q 31.78125 56 36.171875 55.265625 
Q 40.578125 54.546875 44.28125 53.078125 
z
" id="DejaVuSans-115"/>
     </defs>
     <g style="fill:#262626;" transform="translate(183.711861 24.732594)scale(0.06948 -0.06948)">
      <use xlink:href="#DejaVuSans-80"/>
      <use x="60.302734" xlink:href="#DejaVuSans-77"/>
      <use x="146.582031" xlink:href="#DejaVuSans-95"/>
      <use x="196.582031" xlink:href="#DejaVuSans-98"/>
      <use x="260.058594" xlink:href="#DejaVuSans-99"/>
      <use x="315.039062" xlink:href="#DejaVuSans-48"/>
      <use x="378.662109" xlink:href="#DejaVuSans-95"/>
      <use x="428.662109" xlink:href="#DejaVuSans-115"/>
      <use x="480.761719" xlink:href="#DejaVuSans-56"/>
     </g>
    </g>
    <g id="line2d_16">
     <path d="M 164.257461 32.692397 
L 178.153461 32.692397 
" style="fill:none;stroke:#dd8452;stroke-linecap:round;stroke-width:1.5;"/>
    </g>
    <g id="line2d_17"/>
    <g id="text_15">
     <!-- PM_rbf_bc0.01_s8_sig0.2 -->
     <defs>
      <path d="M 37.109375 75.984375 
L 37.109375 68.5 
L 28.515625 68.5 
Q 23.6875 68.5 21.796875 66.546875 
Q 19.921875 64.59375 19.921875 59.515625 
L 19.921875 54.6875 
L 34.71875 54.6875 
L 34.71875 47.703125 
L 19.921875 47.703125 
L 19.921875 0 
L 10.890625 0 
L 10.890625 47.703125 
L 2.296875 47.703125 
L 2.296875 54.6875 
L 10.890625 54.6875 
L 10.890625 58.5 
Q 10.890625 67.625 15.140625 71.796875 
Q 19.390625 75.984375 28.609375 75.984375 
z
" id="DejaVuSans-102"/>
      <path d="M 10.6875 12.40625 
L 21 12.40625 
L 21 0 
L 10.6875 0 
z
" id="DejaVuSans-46"/>
     </defs>
     <g style="fill:#262626;" transform="translate(183.711861 35.124197)scale(0.06948 -0.06948)">
      <use xlink:href="#DejaVuSans-80"/>
      <use x="60.302734" xlink:href="#DejaVuSans-77"/>
      <use x="146.582031" xlink:href="#DejaVuSans-95"/>
      <use x="196.582031" xlink:href="#DejaVuSans-114"/>
      <use x="237.695312" xlink:href="#DejaVuSans-98"/>
      <use x="301.171875" xlink:href="#DejaVuSans-102"/>
      <use x="336.376953" xlink:href="#DejaVuSans-95"/>
      <use x="386.376953" xlink:href="#DejaVuSans-98"/>
      <use x="449.853516" xlink:href="#DejaVuSans-99"/>
      <use x="504.833984" xlink:href="#DejaVuSans-48"/>
      <use x="568.457031" xlink:href="#DejaVuSans-46"/>
      <use x="600.244141" xlink:href="#DejaVuSans-48"/>
      <use x="663.867188" xlink:href="#DejaVuSans-49"/>
      <use x="727.490234" xlink:href="#DejaVuSans-95"/>
      <use x="777.490234" xlink:href="#DejaVuSans-115"/>
      <use x="829.589844" xlink:href="#DejaVuSans-56"/>
      <use x="893.212891" xlink:href="#DejaVuSans-95"/>
      <use x="943.212891" xlink:href="#DejaVuSans-115"/>
      <use x="995.3125" xlink:href="#DejaVuSans-105"/>
      <use x="1023.095703" xlink:href="#DejaVuSans-103"/>
      <use x="1086.572266" xlink:href="#DejaVuSans-48"/>
      <use x="1150.195312" xlink:href="#DejaVuSans-46"/>
      <use x="1181.982422" xlink:href="#DejaVuSans-50"/>
     </g>
    </g>
   </g>
  </g>
 </g>
 <defs>
  <clipPath id="pc479c6e20a">
   <rect height="221.76" width="223.2" x="53.31" y="13.2"/>
  </clipPath>
 </defs>
</svg>
