<?xml version="1.0" encoding="utf-8" standalone="no"?>
<!DOCTYPE svg PUBLIC "-//W3C//DTD SVG 1.1//EN"
  "http://www.w3.org/Graphics/SVG/1.1/DTD/svg11.dtd">
<!-- Created with matplotlib (https://matplotlib.org/) -->
<svg height="277.919688pt" version="1.1" viewBox="0 0 289.71 277.919688" width="289.71pt" xmlns="http://www.w3.org/2000/svg" xmlns:xlink="http://www.w3.org/1999/xlink">
 <defs>
  <style type="text/css">
*{stroke-linecap:butt;stroke-linejoin:round;}
  </style>
 </defs>
 <g id="figure_1">
  <g id="patch_1">
   <path d="M 0 277.919688 
L 289.71 277.919688 
L 289.71 0 
L 0 0 
z
" style="fill:#ffffff;"/>
  </g>
  <g id="axes_1">
   <g id="patch_2">
    <path d="M 53.31 234.96 
L 276.51 234.96 
L 276.51 13.2 
L 53.31 13.2 
z
" style="fill:#eaeaf2;"/>
   </g>
   <g id="matplotlib.axis_1">
    <g id="xtick_1">
     <g id="line2d_1">
      <path clip-path="url(#p8baeac34ce)" d="M 53.31 234.96 
L 53.31 13.2 
" style="fill:none;stroke:#ffffff;stroke-linecap:round;"/>
     </g>
     <g id="text_1">
      <!-- 0 -->
      <defs>
       <path d="M 31.78125 66.40625 
Q 24.171875 66.40625 20.328125 58.90625 
Q 16.5 51.421875 16.5 36.375 
Q 16.5 21.390625 20.328125 13.890625 
Q 24.171875 6.390625 31.78125 6.390625 
Q 39.453125 6.390625 43.28125 13.890625 
Q 47.125 21.390625 47.125 36.375 
Q 47.125 51.421875 43.28125 58.90625 
Q 39.453125 66.40625 31.78125 66.40625 
z
M 31.78125 74.21875 
Q 44.046875 74.21875 50.515625 64.515625 
Q 56.984375 54.828125 56.984375 36.375 
Q 56.984375 17.96875 50.515625 8.265625 
Q 44.046875 -1.421875 31.78125 -1.421875 
Q 19.53125 -1.421875 13.0625 8.265625 
Q 6.59375 17.96875 6.59375 36.375 
Q 6.59375 54.828125 13.0625 64.515625 
Q 19.53125 74.21875 31.78125 74.21875 
z
" id="DejaVuSans-48"/>
      </defs>
      <g style="fill:#262626;" transform="translate(49.810625 252.818281)scale(0.11 -0.11)">
       <use xlink:href="#DejaVuSans-48"/>
      </g>
     </g>
    </g>
    <g id="xtick_2">
     <g id="line2d_2">
      <path clip-path="url(#p8baeac34ce)" d="M 98.400909 234.96 
L 98.400909 13.2 
" style="fill:none;stroke:#ffffff;stroke-linecap:round;"/>
     </g>
     <g id="text_2">
      <!-- 20 -->
      <defs>
       <path d="M 19.1875 8.296875 
L 53.609375 8.296875 
L 53.609375 0 
L 7.328125 0 
L 7.328125 8.296875 
Q 12.9375 14.109375 22.625 23.890625 
Q 32.328125 33.6875 34.8125 36.53125 
Q 39.546875 41.84375 41.421875 45.53125 
Q 43.3125 49.21875 43.3125 52.78125 
Q 43.3125 58.59375 39.234375 62.25 
Q 35.15625 65.921875 28.609375 65.921875 
Q 23.96875 65.921875 18.8125 64.3125 
Q 13.671875 62.703125 7.8125 59.421875 
L 7.8125 69.390625 
Q 13.765625 71.78125 18.9375 73 
Q 24.125 74.21875 28.421875 74.21875 
Q 39.75 74.21875 46.484375 68.546875 
Q 53.21875 62.890625 53.21875 53.421875 
Q 53.21875 48.921875 51.53125 44.890625 
Q 49.859375 40.875 45.40625 35.40625 
Q 44.1875 33.984375 37.640625 27.21875 
Q 31.109375 20.453125 19.1875 8.296875 
z
" id="DejaVuSans-50"/>
      </defs>
      <g style="fill:#262626;" transform="translate(91.402159 252.818281)scale(0.11 -0.11)">
       <use xlink:href="#DejaVuSans-50"/>
       <use x="63.623047" xlink:href="#DejaVuSans-48"/>
      </g>
     </g>
    </g>
    <g id="xtick_3">
     <g id="line2d_3">
      <path clip-path="url(#p8baeac34ce)" d="M 143.491818 234.96 
L 143.491818 13.2 
" style="fill:none;stroke:#ffffff;stroke-linecap:round;"/>
     </g>
     <g id="text_3">
      <!-- 40 -->
      <defs>
       <path d="M 37.796875 64.3125 
L 12.890625 25.390625 
L 37.796875 25.390625 
z
M 35.203125 72.90625 
L 47.609375 72.90625 
L 47.609375 25.390625 
L 58.015625 25.390625 
L 58.015625 17.1875 
L 47.609375 17.1875 
L 47.609375 0 
L 37.796875 0 
L 37.796875 17.1875 
L 4.890625 17.1875 
L 4.890625 26.703125 
z
" id="DejaVuSans-52"/>
      </defs>
      <g style="fill:#262626;" transform="translate(136.493068 252.818281)scale(0.11 -0.11)">
       <use xlink:href="#DejaVuSans-52"/>
       <use x="63.623047" xlink:href="#DejaVuSans-48"/>
      </g>
     </g>
    </g>
    <g id="xtick_4">
     <g id="line2d_4">
      <path clip-path="url(#p8baeac34ce)" d="M 188.582727 234.96 
L 188.582727 13.2 
" style="fill:none;stroke:#ffffff;stroke-linecap:round;"/>
     </g>
     <g id="text_4">
      <!-- 60 -->
      <defs>
       <path d="M 33.015625 40.375 
Q 26.375 40.375 22.484375 35.828125 
Q 18.609375 31.296875 18.609375 23.390625 
Q 18.609375 15.53125 22.484375 10.953125 
Q 26.375 6.390625 33.015625 6.390625 
Q 39.65625 6.390625 43.53125 10.953125 
Q 47.40625 15.53125 47.40625 23.390625 
Q 47.40625 31.296875 43.53125 35.828125 
Q 39.65625 40.375 33.015625 40.375 
z
M 52.59375 71.296875 
L 52.59375 62.3125 
Q 48.875 64.0625 45.09375 64.984375 
Q 41.3125 65.921875 37.59375 65.921875 
Q 27.828125 65.921875 22.671875 59.328125 
Q 17.53125 52.734375 16.796875 39.40625 
Q 19.671875 43.65625 24.015625 45.921875 
Q 28.375 48.1875 33.59375 48.1875 
Q 44.578125 48.1875 50.953125 41.515625 
Q 57.328125 34.859375 57.328125 23.390625 
Q 57.328125 12.15625 50.6875 5.359375 
Q 44.046875 -1.421875 33.015625 -1.421875 
Q 20.359375 -1.421875 13.671875 8.265625 
Q 6.984375 17.96875 6.984375 36.375 
Q 6.984375 53.65625 15.1875 63.9375 
Q 23.390625 74.21875 37.203125 74.21875 
Q 40.921875 74.21875 44.703125 73.484375 
Q 48.484375 72.75 52.59375 71.296875 
z
" id="DejaVuSans-54"/>
      </defs>
      <g style="fill:#262626;" transform="translate(181.583977 252.818281)scale(0.11 -0.11)">
       <use xlink:href="#DejaVuSans-54"/>
       <use x="63.623047" xlink:href="#DejaVuSans-48"/>
      </g>
     </g>
    </g>
    <g id="xtick_5">
     <g id="line2d_5">
      <path clip-path="url(#p8baeac34ce)" d="M 233.673636 234.96 
L 233.673636 13.2 
" style="fill:none;stroke:#ffffff;stroke-linecap:round;"/>
     </g>
     <g id="text_5">
      <!-- 80 -->
      <defs>
       <path d="M 31.78125 34.625 
Q 24.75 34.625 20.71875 30.859375 
Q 16.703125 27.09375 16.703125 20.515625 
Q 16.703125 13.921875 20.71875 10.15625 
Q 24.75 6.390625 31.78125 6.390625 
Q 38.8125 6.390625 42.859375 10.171875 
Q 46.921875 13.96875 46.921875 20.515625 
Q 46.921875 27.09375 42.890625 30.859375 
Q 38.875 34.625 31.78125 34.625 
z
M 21.921875 38.8125 
Q 15.578125 40.375 12.03125 44.71875 
Q 8.5 49.078125 8.5 55.328125 
Q 8.5 64.0625 14.71875 69.140625 
Q 20.953125 74.21875 31.78125 74.21875 
Q 42.671875 74.21875 48.875 69.140625 
Q 55.078125 64.0625 55.078125 55.328125 
Q 55.078125 49.078125 51.53125 44.71875 
Q 48 40.375 41.703125 38.8125 
Q 48.828125 37.15625 52.796875 32.3125 
Q 56.78125 27.484375 56.78125 20.515625 
Q 56.78125 9.90625 50.3125 4.234375 
Q 43.84375 -1.421875 31.78125 -1.421875 
Q 19.734375 -1.421875 13.25 4.234375 
Q 6.78125 9.90625 6.78125 20.515625 
Q 6.78125 27.484375 10.78125 32.3125 
Q 14.796875 37.15625 21.921875 38.8125 
z
M 18.3125 54.390625 
Q 18.3125 48.734375 21.84375 45.5625 
Q 25.390625 42.390625 31.78125 42.390625 
Q 38.140625 42.390625 41.71875 45.5625 
Q 45.3125 48.734375 45.3125 54.390625 
Q 45.3125 60.0625 41.71875 63.234375 
Q 38.140625 66.40625 31.78125 66.40625 
Q 25.390625 66.40625 21.84375 63.234375 
Q 18.3125 60.0625 18.3125 54.390625 
z
" id="DejaVuSans-56"/>
      </defs>
      <g style="fill:#262626;" transform="translate(226.674886 252.818281)scale(0.11 -0.11)">
       <use xlink:href="#DejaVuSans-56"/>
       <use x="63.623047" xlink:href="#DejaVuSans-48"/>
      </g>
     </g>
    </g>
    <g id="text_6">
     <!-- Iteration -->
     <defs>
      <path d="M 9.8125 72.90625 
L 19.671875 72.90625 
L 19.671875 0 
L 9.8125 0 
z
" id="DejaVuSans-73"/>
      <path d="M 18.3125 70.21875 
L 18.3125 54.6875 
L 36.8125 54.6875 
L 36.8125 47.703125 
L 18.3125 47.703125 
L 18.3125 18.015625 
Q 18.3125 11.328125 20.140625 9.421875 
Q 21.96875 7.515625 27.59375 7.515625 
L 36.8125 7.515625 
L 36.8125 0 
L 27.59375 0 
Q 17.1875 0 13.234375 3.875 
Q 9.28125 7.765625 9.28125 18.015625 
L 9.28125 47.703125 
L 2.6875 47.703125 
L 2.6875 54.6875 
L 9.28125 54.6875 
L 9.28125 70.21875 
z
" id="DejaVuSans-116"/>
      <path d="M 56.203125 29.59375 
L 56.203125 25.203125 
L 14.890625 25.203125 
Q 15.484375 15.921875 20.484375 11.0625 
Q 25.484375 6.203125 34.421875 6.203125 
Q 39.59375 6.203125 44.453125 7.46875 
Q 49.3125 8.734375 54.109375 11.28125 
L 54.109375 2.78125 
Q 49.265625 0.734375 44.1875 -0.34375 
Q 39.109375 -1.421875 33.890625 -1.421875 
Q 20.796875 -1.421875 13.15625 6.1875 
Q 5.515625 13.8125 5.515625 26.8125 
Q 5.515625 40.234375 12.765625 48.109375 
Q 20.015625 56 32.328125 56 
Q 43.359375 56 49.78125 48.890625 
Q 56.203125 41.796875 56.203125 29.59375 
z
M 47.21875 32.234375 
Q 47.125 39.59375 43.09375 43.984375 
Q 39.0625 48.390625 32.421875 48.390625 
Q 24.90625 48.390625 20.390625 44.140625 
Q 15.875 39.890625 15.1875 32.171875 
z
" id="DejaVuSans-101"/>
      <path d="M 41.109375 46.296875 
Q 39.59375 47.171875 37.8125 47.578125 
Q 36.03125 48 33.890625 48 
Q 26.265625 48 22.1875 43.046875 
Q 18.109375 38.09375 18.109375 28.8125 
L 18.109375 0 
L 9.078125 0 
L 9.078125 54.6875 
L 18.109375 54.6875 
L 18.109375 46.1875 
Q 20.953125 51.171875 25.484375 53.578125 
Q 30.03125 56 36.53125 56 
Q 37.453125 56 38.578125 55.875 
Q 39.703125 55.765625 41.0625 55.515625 
z
" id="DejaVuSans-114"/>
      <path d="M 34.28125 27.484375 
Q 23.390625 27.484375 19.1875 25 
Q 14.984375 22.515625 14.984375 16.5 
Q 14.984375 11.71875 18.140625 8.90625 
Q 21.296875 6.109375 26.703125 6.109375 
Q 34.1875 6.109375 38.703125 11.40625 
Q 43.21875 16.703125 43.21875 25.484375 
L 43.21875 27.484375 
z
M 52.203125 31.203125 
L 52.203125 0 
L 43.21875 0 
L 43.21875 8.296875 
Q 40.140625 3.328125 35.546875 0.953125 
Q 30.953125 -1.421875 24.3125 -1.421875 
Q 15.921875 -1.421875 10.953125 3.296875 
Q 6 8.015625 6 15.921875 
Q 6 25.140625 12.171875 29.828125 
Q 18.359375 34.515625 30.609375 34.515625 
L 43.21875 34.515625 
L 43.21875 35.40625 
Q 43.21875 41.609375 39.140625 45 
Q 35.0625 48.390625 27.6875 48.390625 
Q 23 48.390625 18.546875 47.265625 
Q 14.109375 46.140625 10.015625 43.890625 
L 10.015625 52.203125 
Q 14.9375 54.109375 19.578125 55.046875 
Q 24.21875 56 28.609375 56 
Q 40.484375 56 46.34375 49.84375 
Q 52.203125 43.703125 52.203125 31.203125 
z
" id="DejaVuSans-97"/>
      <path d="M 9.421875 54.6875 
L 18.40625 54.6875 
L 18.40625 0 
L 9.421875 0 
z
M 9.421875 75.984375 
L 18.40625 75.984375 
L 18.40625 64.59375 
L 9.421875 64.59375 
z
" id="DejaVuSans-105"/>
      <path d="M 30.609375 48.390625 
Q 23.390625 48.390625 19.1875 42.75 
Q 14.984375 37.109375 14.984375 27.296875 
Q 14.984375 17.484375 19.15625 11.84375 
Q 23.34375 6.203125 30.609375 6.203125 
Q 37.796875 6.203125 41.984375 11.859375 
Q 46.1875 17.53125 46.1875 27.296875 
Q 46.1875 37.015625 41.984375 42.703125 
Q 37.796875 48.390625 30.609375 48.390625 
z
M 30.609375 56 
Q 42.328125 56 49.015625 48.375 
Q 55.71875 40.765625 55.71875 27.296875 
Q 55.71875 13.875 49.015625 6.21875 
Q 42.328125 -1.421875 30.609375 -1.421875 
Q 18.84375 -1.421875 12.171875 6.21875 
Q 5.515625 13.875 5.515625 27.296875 
Q 5.515625 40.765625 12.171875 48.375 
Q 18.84375 56 30.609375 56 
z
" id="DejaVuSans-111"/>
      <path d="M 54.890625 33.015625 
L 54.890625 0 
L 45.90625 0 
L 45.90625 32.71875 
Q 45.90625 40.484375 42.875 44.328125 
Q 39.84375 48.1875 33.796875 48.1875 
Q 26.515625 48.1875 22.3125 43.546875 
Q 18.109375 38.921875 18.109375 30.90625 
L 18.109375 0 
L 9.078125 0 
L 9.078125 54.6875 
L 18.109375 54.6875 
L 18.109375 46.1875 
Q 21.34375 51.125 25.703125 53.5625 
Q 30.078125 56 35.796875 56 
Q 45.21875 56 50.046875 50.171875 
Q 54.890625 44.34375 54.890625 33.015625 
z
" id="DejaVuSans-110"/>
     </defs>
     <g style="fill:#262626;" transform="translate(139.459688 268.224063)scale(0.12 -0.12)">
      <use xlink:href="#DejaVuSans-73"/>
      <use x="29.492188" xlink:href="#DejaVuSans-116"/>
      <use x="68.701172" xlink:href="#DejaVuSans-101"/>
      <use x="130.224609" xlink:href="#DejaVuSans-114"/>
      <use x="171.337891" xlink:href="#DejaVuSans-97"/>
      <use x="232.617188" xlink:href="#DejaVuSans-116"/>
      <use x="271.826172" xlink:href="#DejaVuSans-105"/>
      <use x="299.609375" xlink:href="#DejaVuSans-111"/>
      <use x="360.791016" xlink:href="#DejaVuSans-110"/>
     </g>
    </g>
   </g>
   <g id="matplotlib.axis_2">
    <g id="ytick_1">
     <g id="line2d_6">
      <path clip-path="url(#p8baeac34ce)" d="M 53.31 223.905931 
L 276.51 223.905931 
" style="fill:none;stroke:#ffffff;stroke-linecap:round;"/>
     </g>
     <g id="text_7">
      <!-- 0 -->
      <g style="fill:#262626;" transform="translate(36.81125 228.085072)scale(0.11 -0.11)">
       <use xlink:href="#DejaVuSans-48"/>
      </g>
     </g>
    </g>
    <g id="ytick_2">
     <g id="line2d_7">
      <path clip-path="url(#p8baeac34ce)" d="M 53.31 186.373824 
L 276.51 186.373824 
" style="fill:none;stroke:#ffffff;stroke-linecap:round;"/>
     </g>
     <g id="text_8">
      <!-- 20 -->
      <g style="fill:#262626;" transform="translate(29.8125 190.552965)scale(0.11 -0.11)">
       <use xlink:href="#DejaVuSans-50"/>
       <use x="63.623047" xlink:href="#DejaVuSans-48"/>
      </g>
     </g>
    </g>
    <g id="ytick_3">
     <g id="line2d_8">
      <path clip-path="url(#p8baeac34ce)" d="M 53.31 148.841718 
L 276.51 148.841718 
" style="fill:none;stroke:#ffffff;stroke-linecap:round;"/>
     </g>
     <g id="text_9">
      <!-- 40 -->
      <g style="fill:#262626;" transform="translate(29.8125 153.020858)scale(0.11 -0.11)">
       <use xlink:href="#DejaVuSans-52"/>
       <use x="63.623047" xlink:href="#DejaVuSans-48"/>
      </g>
     </g>
    </g>
    <g id="ytick_4">
     <g id="line2d_9">
      <path clip-path="url(#p8baeac34ce)" d="M 53.31 111.309611 
L 276.51 111.309611 
" style="fill:none;stroke:#ffffff;stroke-linecap:round;"/>
     </g>
     <g id="text_10">
      <!-- 60 -->
      <g style="fill:#262626;" transform="translate(29.8125 115.488751)scale(0.11 -0.11)">
       <use xlink:href="#DejaVuSans-54"/>
       <use x="63.623047" xlink:href="#DejaVuSans-48"/>
      </g>
     </g>
    </g>
    <g id="ytick_5">
     <g id="line2d_10">
      <path clip-path="url(#p8baeac34ce)" d="M 53.31 73.777504 
L 276.51 73.777504 
" style="fill:none;stroke:#ffffff;stroke-linecap:round;"/>
     </g>
     <g id="text_11">
      <!-- 80 -->
      <g style="fill:#262626;" transform="translate(29.8125 77.956645)scale(0.11 -0.11)">
       <use xlink:href="#DejaVuSans-56"/>
       <use x="63.623047" xlink:href="#DejaVuSans-48"/>
      </g>
     </g>
    </g>
    <g id="ytick_6">
     <g id="line2d_11">
      <path clip-path="url(#p8baeac34ce)" d="M 53.31 36.245397 
L 276.51 36.245397 
" style="fill:none;stroke:#ffffff;stroke-linecap:round;"/>
     </g>
     <g id="text_12">
      <!-- 100 -->
      <defs>
       <path d="M 12.40625 8.296875 
L 28.515625 8.296875 
L 28.515625 63.921875 
L 10.984375 60.40625 
L 10.984375 69.390625 
L 28.421875 72.90625 
L 38.28125 72.90625 
L 38.28125 8.296875 
L 54.390625 8.296875 
L 54.390625 0 
L 12.40625 0 
z
" id="DejaVuSans-49"/>
      </defs>
      <g style="fill:#262626;" transform="translate(22.81375 40.424538)scale(0.11 -0.11)">
       <use xlink:href="#DejaVuSans-49"/>
       <use x="63.623047" xlink:href="#DejaVuSans-48"/>
       <use x="127.246094" xlink:href="#DejaVuSans-48"/>
      </g>
     </g>
    </g>
    <g id="text_13">
     <!-- AverageReturn -->
     <defs>
      <path d="M 34.1875 63.1875 
L 20.796875 26.90625 
L 47.609375 26.90625 
z
M 28.609375 72.90625 
L 39.796875 72.90625 
L 67.578125 0 
L 57.328125 0 
L 50.6875 18.703125 
L 17.828125 18.703125 
L 11.1875 0 
L 0.78125 0 
z
" id="DejaVuSans-65"/>
      <path d="M 2.984375 54.6875 
L 12.5 54.6875 
L 29.59375 8.796875 
L 46.6875 54.6875 
L 56.203125 54.6875 
L 35.6875 0 
L 23.484375 0 
z
" id="DejaVuSans-118"/>
      <path d="M 45.40625 27.984375 
Q 45.40625 37.75 41.375 43.109375 
Q 37.359375 48.484375 30.078125 48.484375 
Q 22.859375 48.484375 18.828125 43.109375 
Q 14.796875 37.75 14.796875 27.984375 
Q 14.796875 18.265625 18.828125 12.890625 
Q 22.859375 7.515625 30.078125 7.515625 
Q 37.359375 7.515625 41.375 12.890625 
Q 45.40625 18.265625 45.40625 27.984375 
z
M 54.390625 6.78125 
Q 54.390625 -7.171875 48.1875 -13.984375 
Q 42 -20.796875 29.203125 -20.796875 
Q 24.46875 -20.796875 20.265625 -20.09375 
Q 16.0625 -19.390625 12.109375 -17.921875 
L 12.109375 -9.1875 
Q 16.0625 -11.328125 19.921875 -12.34375 
Q 23.78125 -13.375 27.78125 -13.375 
Q 36.625 -13.375 41.015625 -8.765625 
Q 45.40625 -4.15625 45.40625 5.171875 
L 45.40625 9.625 
Q 42.625 4.78125 38.28125 2.390625 
Q 33.9375 0 27.875 0 
Q 17.828125 0 11.671875 7.65625 
Q 5.515625 15.328125 5.515625 27.984375 
Q 5.515625 40.671875 11.671875 48.328125 
Q 17.828125 56 27.875 56 
Q 33.9375 56 38.28125 53.609375 
Q 42.625 51.21875 45.40625 46.390625 
L 45.40625 54.6875 
L 54.390625 54.6875 
z
" id="DejaVuSans-103"/>
      <path d="M 44.390625 34.1875 
Q 47.5625 33.109375 50.5625 29.59375 
Q 53.5625 26.078125 56.59375 19.921875 
L 66.609375 0 
L 56 0 
L 46.6875 18.703125 
Q 43.0625 26.03125 39.671875 28.421875 
Q 36.28125 30.8125 30.421875 30.8125 
L 19.671875 30.8125 
L 19.671875 0 
L 9.8125 0 
L 9.8125 72.90625 
L 32.078125 72.90625 
Q 44.578125 72.90625 50.734375 67.671875 
Q 56.890625 62.453125 56.890625 51.90625 
Q 56.890625 45.015625 53.6875 40.46875 
Q 50.484375 35.9375 44.390625 34.1875 
z
M 19.671875 64.796875 
L 19.671875 38.921875 
L 32.078125 38.921875 
Q 39.203125 38.921875 42.84375 42.21875 
Q 46.484375 45.515625 46.484375 51.90625 
Q 46.484375 58.296875 42.84375 61.546875 
Q 39.203125 64.796875 32.078125 64.796875 
z
" id="DejaVuSans-82"/>
      <path d="M 8.5 21.578125 
L 8.5 54.6875 
L 17.484375 54.6875 
L 17.484375 21.921875 
Q 17.484375 14.15625 20.5 10.265625 
Q 23.53125 6.390625 29.59375 6.390625 
Q 36.859375 6.390625 41.078125 11.03125 
Q 45.3125 15.671875 45.3125 23.6875 
L 45.3125 54.6875 
L 54.296875 54.6875 
L 54.296875 0 
L 45.3125 0 
L 45.3125 8.40625 
Q 42.046875 3.421875 37.71875 1 
Q 33.40625 -1.421875 27.6875 -1.421875 
Q 18.265625 -1.421875 13.375 4.4375 
Q 8.5 10.296875 8.5 21.578125 
z
M 31.109375 56 
z
" id="DejaVuSans-117"/>
     </defs>
     <g style="fill:#262626;" transform="translate(16.318125 169.347187)rotate(-90)scale(0.12 -0.12)">
      <use xlink:href="#DejaVuSans-65"/>
      <use x="68.330078" xlink:href="#DejaVuSans-118"/>
      <use x="127.509766" xlink:href="#DejaVuSans-101"/>
      <use x="189.033203" xlink:href="#DejaVuSans-114"/>
      <use x="230.146484" xlink:href="#DejaVuSans-97"/>
      <use x="291.425781" xlink:href="#DejaVuSans-103"/>
      <use x="354.902344" xlink:href="#DejaVuSans-101"/>
      <use x="416.425781" xlink:href="#DejaVuSans-82"/>
      <use x="485.845703" xlink:href="#DejaVuSans-101"/>
      <use x="547.369141" xlink:href="#DejaVuSans-116"/>
      <use x="586.578125" xlink:href="#DejaVuSans-117"/>
      <use x="649.957031" xlink:href="#DejaVuSans-114"/>
      <use x="691.054688" xlink:href="#DejaVuSans-110"/>
     </g>
    </g>
   </g>
   <g id="PolyCollection_1">
    <defs>
     <path d="M 53.31 -53.22126 
L 53.31 -53.205278 
L 55.564545 -53.20753 
L 57.819091 -53.21687 
L 60.073636 -53.267955 
L 62.328182 -53.232097 
L 64.582727 -53.212354 
L 66.837273 -53.201503 
L 69.091818 -53.185864 
L 71.346364 -53.251896 
L 73.600909 -53.190335 
L 75.855455 -53.157512 
L 78.11 -53.124159 
L 80.364545 -53.098777 
L 82.619091 -53.078459 
L 84.873636 -53.115701 
L 87.128182 -53.286131 
L 89.382727 -53.039688 
L 91.637273 -53.240443 
L 93.891818 -54.507167 
L 96.146364 -56.83187 
L 98.400909 -58.349336 
L 100.655455 -60.918042 
L 102.91 -65.306815 
L 105.164545 -64.557647 
L 107.419091 -69.625631 
L 109.673636 -70.686559 
L 111.928182 -75.705302 
L 114.182727 -78.241205 
L 116.437273 -82.613905 
L 118.691818 -87.306724 
L 120.946364 -89.272184 
L 123.200909 -88.883627 
L 125.455455 -91.986742 
L 127.71 -95.332025 
L 129.964545 -96.874512 
L 132.219091 -99.351069 
L 134.473636 -100.930383 
L 136.728182 -102.866283 
L 138.982727 -102.636448 
L 141.237273 -105.709451 
L 143.491818 -107.615821 
L 145.746364 -108.288601 
L 148.000909 -107.812987 
L 150.255455 -108.031772 
L 152.51 -113.263104 
L 154.764545 -112.268336 
L 157.019091 -112.084547 
L 159.273636 -111.299616 
L 161.528182 -114.780456 
L 163.782727 -112.706878 
L 166.037273 -115.052605 
L 168.291818 -117.086837 
L 170.546364 -117.602696 
L 172.800909 -115.137874 
L 175.055455 -117.778475 
L 177.31 -118.137788 
L 179.564545 -116.734724 
L 181.819091 -118.249088 
L 184.073636 -118.897095 
L 186.328182 -119.413127 
L 188.582727 -117.733997 
L 190.837273 -118.547921 
L 193.091818 -118.396984 
L 195.346364 -121.746792 
L 197.600909 -119.180614 
L 199.855455 -120.566896 
L 202.11 -118.785035 
L 204.364545 -121.076755 
L 206.619091 -119.187845 
L 208.873636 -119.938603 
L 211.128182 -119.714497 
L 213.382727 -121.857201 
L 215.637273 -120.344035 
L 217.891818 -121.771303 
L 220.146364 -121.636816 
L 222.400909 -122.67242 
L 224.655455 -122.430662 
L 226.91 -121.233487 
L 229.164545 -124.831682 
L 231.419091 -123.938585 
L 233.673636 -120.347883 
L 235.928182 -121.528564 
L 238.182727 -119.381988 
L 240.437273 -120.500661 
L 242.691818 -119.222862 
L 244.946364 -119.438026 
L 247.200909 -120.877827 
L 249.455455 -122.836827 
L 251.71 -119.731387 
L 253.964545 -121.662668 
L 256.219091 -120.640365 
L 258.473636 -117.235903 
L 260.728182 -119.052487 
L 262.982727 -120.239413 
L 265.237273 -117.215871 
L 267.491818 -116.190964 
L 269.746364 -117.073995 
L 272.000909 -116.933204 
L 274.255455 -118.115987 
L 276.51 -116.299015 
L 276.51 -237.430935 
L 276.51 -237.430935 
L 274.255455 -236.146264 
L 272.000909 -234.19456 
L 269.746364 -241.373707 
L 267.491818 -240.926438 
L 265.237273 -244.26834 
L 262.982727 -243.862944 
L 260.728182 -243.749431 
L 258.473636 -242.646259 
L 256.219091 -249.006087 
L 253.964545 -251.790175 
L 251.71 -243.999458 
L 249.455455 -253.103148 
L 247.200909 -247.778155 
L 244.946364 -248.693695 
L 242.691818 -250.416386 
L 240.437273 -246.891459 
L 238.182727 -247.627167 
L 235.928182 -245.635529 
L 233.673636 -247.146724 
L 231.419091 -243.950062 
L 229.164545 -251.821762 
L 226.91 -244.125175 
L 224.655455 -247.870972 
L 222.400909 -254.639688 
L 220.146364 -247.614371 
L 217.891818 -244.431744 
L 215.637273 -249.669675 
L 213.382727 -247.843904 
L 211.128182 -246.194835 
L 208.873636 -247.824157 
L 206.619091 -249.836916 
L 204.364545 -251.334748 
L 202.11 -246.598918 
L 199.855455 -249.249533 
L 197.600909 -246.595494 
L 195.346364 -250.427165 
L 193.091818 -244.528081 
L 190.837273 -243.39995 
L 188.582727 -244.08641 
L 186.328182 -251.235453 
L 184.073636 -247.665853 
L 181.819091 -247.034195 
L 179.564545 -243.414807 
L 177.31 -238.654388 
L 175.055455 -243.461663 
L 172.800909 -237.72737 
L 170.546364 -243.86711 
L 168.291818 -236.426163 
L 166.037273 -233.894879 
L 163.782727 -231.032899 
L 161.528182 -230.281926 
L 159.273636 -223.998745 
L 157.019091 -226.813813 
L 154.764545 -227.743679 
L 152.51 -227.529935 
L 150.255455 -210.619581 
L 148.000909 -216.599915 
L 145.746364 -215.79427 
L 143.491818 -209.772281 
L 141.237273 -207.402472 
L 138.982727 -199.711643 
L 136.728182 -198.652719 
L 134.473636 -190.787209 
L 132.219091 -190.277942 
L 129.964545 -183.707326 
L 127.71 -173.872449 
L 125.455455 -167.984127 
L 123.200909 -156.79719 
L 120.946364 -159.044433 
L 118.691818 -139.971085 
L 116.437273 -141.318495 
L 114.182727 -124.535761 
L 111.928182 -118.690575 
L 109.673636 -105.352141 
L 107.419091 -98.106401 
L 105.164545 -85.047502 
L 102.91 -89.209911 
L 100.655455 -72.114865 
L 98.400909 -65.935222 
L 96.146364 -65.351411 
L 93.891818 -58.406772 
L 91.637273 -55.041271 
L 89.382727 -57.91595 
L 87.128182 -53.792559 
L 84.873636 -56.409921 
L 82.619091 -53.159968 
L 80.364545 -53.146724 
L 78.11 -53.157675 
L 75.855455 -53.214723 
L 73.600909 -53.232556 
L 71.346364 -53.752428 
L 69.091818 -53.205073 
L 66.837273 -53.213027 
L 64.582727 -53.233112 
L 62.328182 -53.253064 
L 60.073636 -53.291453 
L 57.819091 -53.23735 
L 55.564545 -53.234994 
L 53.31 -53.22126 
z
" id="m7c2831b30a" style="stroke:#ffffff;stroke-opacity:0.2;"/>
    </defs>
    <g clip-path="url(#p8baeac34ce)">
     <use style="fill:#4c72b0;fill-opacity:0.2;stroke:#ffffff;stroke-opacity:0.2;" x="0" xlink:href="#m7c2831b30a" y="277.919688"/>
    </g>
   </g>
   <g id="PolyCollection_2">
    <defs>
     <path d="M 53.31 -53.22126 
L 53.31 -53.205278 
L 55.564545 -53.211896 
L 57.819091 -53.222379 
L 60.073636 -53.273982 
L 62.328182 -53.241729 
L 64.582727 -53.231002 
L 66.837273 -53.219356 
L 69.091818 -53.206448 
L 71.346364 -53.290999 
L 73.600909 -53.24424 
L 75.855455 -53.222854 
L 78.11 -53.162469 
L 80.364545 -53.151075 
L 82.619091 -53.21872 
L 84.873636 -53.221426 
L 87.128182 -53.910723 
L 89.382727 -54.170801 
L 91.637273 -53.572472 
L 93.891818 -59.520106 
L 96.146364 -66.477475 
L 98.400909 -68.203558 
L 100.655455 -70.475317 
L 102.91 -78.07717 
L 105.164545 -76.532813 
L 107.419091 -84.411138 
L 109.673636 -89.339016 
L 111.928182 -94.699845 
L 114.182727 -98.362893 
L 116.437273 -107.007414 
L 118.691818 -109.712319 
L 120.946364 -119.969194 
L 123.200909 -117.685608 
L 125.455455 -128.027923 
L 127.71 -145.731842 
L 129.964545 -158.059087 
L 132.219091 -160.480708 
L 134.473636 -164.139294 
L 136.728182 -159.205939 
L 138.982727 -160.760172 
L 141.237273 -173.542484 
L 143.491818 -186.944307 
L 145.746364 -183.123397 
L 148.000909 -182.770241 
L 150.255455 -187.917709 
L 152.51 -198.392655 
L 154.764545 -195.391789 
L 157.019091 -205.977897 
L 159.273636 -208.165663 
L 161.528182 -214.498604 
L 163.782727 -207.674933 
L 166.037273 -210.699033 
L 168.291818 -210.834453 
L 170.546364 -213.845255 
L 172.800909 -218.968126 
L 175.055455 -210.151809 
L 177.31 -215.846413 
L 179.564545 -210.429379 
L 181.819091 -208.796446 
L 184.073636 -210.422556 
L 186.328182 -213.588336 
L 188.582727 -202.899107 
L 190.837273 -202.15716 
L 193.091818 -193.780329 
L 195.346364 -199.078109 
L 197.600909 -187.19798 
L 199.855455 -185.03816 
L 202.11 -176.209601 
L 204.364545 -165.917732 
L 206.619091 -174.540902 
L 208.873636 -163.366271 
L 211.128182 -155.806298 
L 213.382727 -168.743337 
L 215.637273 -163.458537 
L 217.891818 -167.292041 
L 220.146364 -170.366391 
L 222.400909 -176.199636 
L 224.655455 -171.785204 
L 226.91 -172.428109 
L 229.164545 -192.515988 
L 231.419091 -183.833782 
L 233.673636 -184.309862 
L 235.928182 -178.79095 
L 238.182727 -183.564593 
L 240.437273 -190.506619 
L 242.691818 -192.13731 
L 244.946364 -187.212307 
L 247.200909 -189.685341 
L 249.455455 -201.927989 
L 251.71 -186.061722 
L 253.964545 -202.618835 
L 256.219091 -196.320918 
L 258.473636 -189.335327 
L 260.728182 -200.036869 
L 262.982727 -202.002856 
L 265.237273 -193.382723 
L 267.491818 -195.905305 
L 269.746364 -195.298398 
L 272.000909 -194.581908 
L 274.255455 -205.941097 
L 276.51 -203.484074 
L 276.51 -247.473388 
L 276.51 -247.473388 
L 274.255455 -246.868333 
L 272.000909 -242.671347 
L 269.746364 -244.611815 
L 267.491818 -250.957757 
L 265.237273 -242.79453 
L 262.982727 -236.081068 
L 260.728182 -244.768955 
L 258.473636 -241.115643 
L 256.219091 -246.199886 
L 253.964545 -243.211518 
L 251.71 -241.958399 
L 249.455455 -245.927353 
L 247.200909 -234.443204 
L 244.946364 -246.726837 
L 242.691818 -237.714146 
L 240.437273 -230.104783 
L 238.182727 -236.56901 
L 235.928182 -233.9536 
L 233.673636 -238.992121 
L 231.419091 -234.682572 
L 229.164545 -241.759388 
L 226.91 -232.834387 
L 224.655455 -232.139934 
L 222.400909 -235.789262 
L 220.146364 -227.585732 
L 217.891818 -238.752183 
L 215.637273 -232.325718 
L 213.382727 -233.191221 
L 211.128182 -232.175921 
L 208.873636 -230.38614 
L 206.619091 -239.736813 
L 204.364545 -240.478799 
L 202.11 -235.662823 
L 199.855455 -233.559598 
L 197.600909 -234.883335 
L 195.346364 -229.719177 
L 193.091818 -232.97507 
L 190.837273 -228.644774 
L 188.582727 -232.565717 
L 186.328182 -243.998032 
L 184.073636 -239.881051 
L 181.819091 -241.892877 
L 179.564545 -237.738393 
L 177.31 -235.689555 
L 175.055455 -238.037238 
L 172.800909 -239.302445 
L 170.546364 -240.331971 
L 168.291818 -236.657373 
L 166.037273 -233.751691 
L 163.782727 -231.330488 
L 161.528182 -234.747558 
L 159.273636 -228.702606 
L 157.019091 -228.742859 
L 154.764545 -239.705318 
L 152.51 -234.124367 
L 150.255455 -220.591517 
L 148.000909 -221.598842 
L 145.746364 -225.656294 
L 143.491818 -225.557209 
L 141.237273 -216.80855 
L 138.982727 -210.044608 
L 136.728182 -211.33682 
L 134.473636 -203.994288 
L 132.219091 -202.698204 
L 129.964545 -200.558248 
L 127.71 -189.292358 
L 125.455455 -189.276489 
L 123.200909 -183.308189 
L 120.946364 -187.356693 
L 118.691818 -164.904687 
L 116.437273 -173.163777 
L 114.182727 -163.827166 
L 111.928182 -157.336103 
L 109.673636 -145.713286 
L 107.419091 -134.589176 
L 105.164545 -116.08642 
L 102.91 -117.671355 
L 100.655455 -90.058804 
L 98.400909 -84.175327 
L 96.146364 -80.450494 
L 93.891818 -67.004987 
L 91.637273 -62.609932 
L 89.382727 -61.336347 
L 87.128182 -54.843198 
L 84.873636 -57.732826 
L 82.619091 -53.410063 
L 80.364545 -53.238376 
L 78.11 -53.227099 
L 75.855455 -53.23475 
L 73.600909 -53.259085 
L 71.346364 -53.777682 
L 69.091818 -53.234138 
L 66.837273 -53.231186 
L 64.582727 -53.237237 
L 62.328182 -53.264215 
L 60.073636 -53.292028 
L 57.819091 -53.237871 
L 55.564545 -53.235142 
L 53.31 -53.22126 
z
" id="m96df0a17fa" style="stroke:#ffffff;stroke-opacity:0.2;"/>
    </defs>
    <g clip-path="url(#p8baeac34ce)">
     <use style="fill:#dd8452;fill-opacity:0.2;stroke:#ffffff;stroke-opacity:0.2;" x="0" xlink:href="#m96df0a17fa" y="277.919688"/>
    </g>
   </g>
   <g id="line2d_12">
    <path clip-path="url(#p8baeac34ce)" d="M 53.31 224.706419 
L 55.564545 224.698425 
L 57.819091 224.692577 
L 60.073636 224.639983 
L 62.328182 224.677107 
L 64.582727 224.696954 
L 66.837273 224.712422 
L 69.091818 224.724219 
L 71.346364 224.417525 
L 73.600909 224.708242 
L 75.855455 224.73357 
L 78.11 224.778771 
L 80.364545 224.796937 
L 82.619091 224.800474 
L 84.873636 223.156877 
L 87.128182 224.380342 
L 89.382727 222.441869 
L 91.637273 223.778831 
L 93.891818 221.462718 
L 96.146364 216.828047 
L 98.400909 215.777408 
L 100.655455 211.403234 
L 102.91 200.661324 
L 105.164545 203.117113 
L 107.419091 194.053672 
L 109.673636 189.900337 
L 111.928182 180.721749 
L 114.182727 176.531205 
L 116.437273 165.953488 
L 118.691818 164.280783 
L 120.946364 153.761379 
L 123.200909 155.079279 
L 125.455455 147.934253 
L 127.71 143.31745 
L 129.964545 137.628768 
L 132.219091 133.105182 
L 134.473636 132.060892 
L 136.728182 127.160187 
L 138.982727 126.745642 
L 141.237273 121.363726 
L 143.491818 119.225636 
L 145.746364 115.878252 
L 148.000909 115.713236 
L 150.255455 118.594011 
L 152.51 107.523168 
L 154.764545 107.91368 
L 157.019091 108.470508 
L 159.273636 110.270507 
L 161.528182 105.388497 
L 163.782727 106.049799 
L 166.037273 103.445945 
L 168.291818 101.163187 
L 170.546364 97.184785 
L 172.800909 101.487066 
L 175.055455 97.299619 
L 177.31 99.523599 
L 179.564545 97.844922 
L 181.819091 95.278046 
L 184.073636 94.638213 
L 186.328182 92.595398 
L 188.582727 97.009484 
L 190.837273 96.945752 
L 193.091818 96.457155 
L 195.346364 91.832709 
L 197.600909 95.031633 
L 199.855455 93.011473 
L 202.11 95.227711 
L 204.364545 91.713936 
L 206.619091 93.407307 
L 208.873636 94.038307 
L 211.128182 94.965022 
L 213.382727 93.069135 
L 215.637273 92.912833 
L 217.891818 94.818164 
L 220.146364 93.294094 
L 222.400909 89.263634 
L 224.655455 92.76887 
L 226.91 95.240356 
L 229.164545 89.592966 
L 231.419091 93.975364 
L 233.673636 94.172384 
L 235.928182 94.337641 
L 238.182727 94.41511 
L 240.437273 94.223627 
L 242.691818 93.100063 
L 244.946364 93.853827 
L 247.200909 93.591696 
L 249.455455 89.9497 
L 251.71 96.054265 
L 253.964545 91.193266 
L 256.219091 93.096462 
L 258.473636 97.978607 
L 260.728182 96.518728 
L 262.982727 95.868509 
L 265.237273 97.177582 
L 267.491818 99.360986 
L 269.746364 98.695837 
L 272.000909 102.355805 
L 274.255455 100.788562 
L 276.51 101.054712 
" style="fill:none;stroke:#4c72b0;stroke-linecap:round;stroke-width:1.5;"/>
   </g>
   <g id="line2d_13">
    <path clip-path="url(#p8baeac34ce)" d="M 53.31 224.706419 
L 55.564545 224.696169 
L 57.819091 224.689562 
L 60.073636 224.636683 
L 62.328182 224.666715 
L 64.582727 224.685568 
L 66.837273 224.694416 
L 69.091818 224.699395 
L 71.346364 224.385347 
L 73.600909 224.668025 
L 75.855455 224.690886 
L 78.11 224.724903 
L 80.364545 224.724962 
L 82.619091 224.605296 
L 84.873636 222.442562 
L 87.128182 223.542727 
L 89.382727 220.166114 
L 91.637273 219.828485 
L 93.891818 214.657141 
L 96.146364 204.455703 
L 98.400909 201.730245 
L 100.655455 197.652627 
L 102.91 180.045425 
L 105.164545 181.610071 
L 107.419091 168.41953 
L 109.673636 160.393536 
L 111.928182 151.901713 
L 114.182727 146.824658 
L 116.437273 137.834092 
L 118.691818 140.611185 
L 120.946364 124.256744 
L 123.200909 127.422789 
L 125.455455 119.267481 
L 127.71 110.407587 
L 129.964545 98.61102 
L 132.219091 96.330231 
L 134.473636 93.852896 
L 136.728182 92.648308 
L 138.982727 92.517298 
L 141.237273 82.74417 
L 143.491818 71.66893 
L 145.746364 73.529842 
L 148.000909 75.735146 
L 150.255455 73.665074 
L 152.51 61.661177 
L 154.764545 60.371134 
L 157.019091 60.559309 
L 159.273636 59.485553 
L 161.528182 53.296606 
L 163.782727 58.416977 
L 166.037273 55.694326 
L 168.291818 54.173774 
L 170.546364 50.831075 
L 172.800909 48.784402 
L 175.055455 53.825164 
L 177.31 52.151704 
L 179.564545 53.835801 
L 181.819091 52.575026 
L 184.073636 52.767884 
L 186.328182 49.126503 
L 188.582727 60.187275 
L 190.837273 62.51872 
L 193.091818 64.541988 
L 195.346364 63.521044 
L 197.600909 66.87903 
L 199.855455 68.620808 
L 202.11 71.983476 
L 204.364545 74.721422 
L 206.619091 70.78083 
L 208.873636 81.043482 
L 211.128182 83.928578 
L 213.382727 76.952409 
L 215.637273 80.02756 
L 217.891818 74.897575 
L 220.146364 78.943626 
L 222.400909 71.925238 
L 224.655455 75.957119 
L 226.91 75.288439 
L 229.164545 60.782 
L 231.419091 68.661511 
L 233.673636 66.268696 
L 235.928182 71.547413 
L 238.182727 67.852886 
L 240.437273 67.613987 
L 242.691818 62.993959 
L 244.946364 60.950115 
L 247.200909 65.855415 
L 249.455455 53.992016 
L 251.71 63.909627 
L 253.964545 55.004511 
L 256.219091 56.659285 
L 258.473636 62.694202 
L 260.728182 55.516776 
L 262.982727 58.877726 
L 265.237273 59.831061 
L 267.491818 54.488157 
L 269.746364 57.964581 
L 272.000909 59.29306 
L 274.255455 51.514972 
L 276.51 52.440956 
" style="fill:none;stroke:#dd8452;stroke-linecap:round;stroke-width:1.5;"/>
   </g>
   <g id="patch_3">
    <path d="M 53.31 234.96 
L 53.31 13.2 
" style="fill:none;stroke:#ffffff;stroke-linecap:square;stroke-linejoin:miter;stroke-width:1.25;"/>
   </g>
   <g id="patch_4">
    <path d="M 276.51 234.96 
L 276.51 13.2 
" style="fill:none;stroke:#ffffff;stroke-linecap:square;stroke-linejoin:miter;stroke-width:1.25;"/>
   </g>
   <g id="patch_5">
    <path d="M 53.31 234.96 
L 276.51 234.96 
" style="fill:none;stroke:#ffffff;stroke-linecap:square;stroke-linejoin:miter;stroke-width:1.25;"/>
   </g>
   <g id="patch_6">
    <path d="M 53.31 13.2 
L 276.51 13.2 
" style="fill:none;stroke:#ffffff;stroke-linecap:square;stroke-linejoin:miter;stroke-width:1.25;"/>
   </g>
   <g id="legend_1">
    <g id="patch_7">
     <path d="M 84.288152 39.541605 
L 271.6464 39.541605 
Q 273.036 39.541605 273.036 38.152005 
L 273.036 18.0636 
Q 273.036 16.674 271.6464 16.674 
L 84.288152 16.674 
Q 82.898552 16.674 82.898552 18.0636 
L 82.898552 38.152005 
Q 82.898552 39.541605 84.288152 39.541605 
z
" style="fill:#eaeaf2;opacity:0.8;stroke:#cccccc;stroke-linejoin:miter;"/>
    </g>
    <g id="line2d_14">
     <path d="M 85.677752 22.300794 
L 99.573752 22.300794 
" style="fill:none;stroke:#4c72b0;stroke-linecap:round;stroke-width:1.5;"/>
    </g>
    <g id="line2d_15"/>
    <g id="text_14">
     <!-- PM_bc0_s8 -->
     <defs>
      <path d="M 19.671875 64.796875 
L 19.671875 37.40625 
L 32.078125 37.40625 
Q 38.96875 37.40625 42.71875 40.96875 
Q 46.484375 44.53125 46.484375 51.125 
Q 46.484375 57.671875 42.71875 61.234375 
Q 38.96875 64.796875 32.078125 64.796875 
z
M 9.8125 72.90625 
L 32.078125 72.90625 
Q 44.34375 72.90625 50.609375 67.359375 
Q 56.890625 61.8125 56.890625 51.125 
Q 56.890625 40.328125 50.609375 34.8125 
Q 44.34375 29.296875 32.078125 29.296875 
L 19.671875 29.296875 
L 19.671875 0 
L 9.8125 0 
z
" id="DejaVuSans-80"/>
      <path d="M 9.8125 72.90625 
L 24.515625 72.90625 
L 43.109375 23.296875 
L 61.8125 72.90625 
L 76.515625 72.90625 
L 76.515625 0 
L 66.890625 0 
L 66.890625 64.015625 
L 48.09375 14.015625 
L 38.1875 14.015625 
L 19.390625 64.015625 
L 19.390625 0 
L 9.8125 0 
z
" id="DejaVuSans-77"/>
      <path d="M 50.984375 -16.609375 
L 50.984375 -23.578125 
L -0.984375 -23.578125 
L -0.984375 -16.609375 
z
" id="DejaVuSans-95"/>
      <path d="M 48.6875 27.296875 
Q 48.6875 37.203125 44.609375 42.84375 
Q 40.53125 48.484375 33.40625 48.484375 
Q 26.265625 48.484375 22.1875 42.84375 
Q 18.109375 37.203125 18.109375 27.296875 
Q 18.109375 17.390625 22.1875 11.75 
Q 26.265625 6.109375 33.40625 6.109375 
Q 40.53125 6.109375 44.609375 11.75 
Q 48.6875 17.390625 48.6875 27.296875 
z
M 18.109375 46.390625 
Q 20.953125 51.265625 25.265625 53.625 
Q 29.59375 56 35.59375 56 
Q 45.5625 56 51.78125 48.09375 
Q 58.015625 40.1875 58.015625 27.296875 
Q 58.015625 14.40625 51.78125 6.484375 
Q 45.5625 -1.421875 35.59375 -1.421875 
Q 29.59375 -1.421875 25.265625 0.953125 
Q 20.953125 3.328125 18.109375 8.203125 
L 18.109375 0 
L 9.078125 0 
L 9.078125 75.984375 
L 18.109375 75.984375 
z
" id="DejaVuSans-98"/>
      <path d="M 48.78125 52.59375 
L 48.78125 44.1875 
Q 44.96875 46.296875 41.140625 47.34375 
Q 37.3125 48.390625 33.40625 48.390625 
Q 24.65625 48.390625 19.8125 42.84375 
Q 14.984375 37.3125 14.984375 27.296875 
Q 14.984375 17.28125 19.8125 11.734375 
Q 24.65625 6.203125 33.40625 6.203125 
Q 37.3125 6.203125 41.140625 7.25 
Q 44.96875 8.296875 48.78125 10.40625 
L 48.78125 2.09375 
Q 45.015625 0.34375 40.984375 -0.53125 
Q 36.96875 -1.421875 32.421875 -1.421875 
Q 20.0625 -1.421875 12.78125 6.34375 
Q 5.515625 14.109375 5.515625 27.296875 
Q 5.515625 40.671875 12.859375 48.328125 
Q 20.21875 56 33.015625 56 
Q 37.15625 56 41.109375 55.140625 
Q 45.0625 54.296875 48.78125 52.59375 
z
" id="DejaVuSans-99"/>
      <path d="M 44.28125 53.078125 
L 44.28125 44.578125 
Q 40.484375 46.53125 36.375 47.5 
Q 32.28125 48.484375 27.875 48.484375 
Q 21.1875 48.484375 17.84375 46.4375 
Q 14.5 44.390625 14.5 40.28125 
Q 14.5 37.15625 16.890625 35.375 
Q 19.28125 33.59375 26.515625 31.984375 
L 29.59375 31.296875 
Q 39.15625 29.25 43.1875 25.515625 
Q 47.21875 21.78125 47.21875 15.09375 
Q 47.21875 7.46875 41.1875 3.015625 
Q 35.15625 -1.421875 24.609375 -1.421875 
Q 20.21875 -1.421875 15.453125 -0.5625 
Q 10.6875 0.296875 5.421875 2 
L 5.421875 11.28125 
Q 10.40625 8.6875 15.234375 7.390625 
Q 20.0625 6.109375 24.8125 6.109375 
Q 31.15625 6.109375 34.5625 8.28125 
Q 37.984375 10.453125 37.984375 14.40625 
Q 37.984375 18.0625 35.515625 20.015625 
Q 33.0625 21.96875 24.703125 23.78125 
L 21.578125 24.515625 
Q 13.234375 26.265625 9.515625 29.90625 
Q 5.8125 33.546875 5.8125 39.890625 
Q 5.8125 47.609375 11.28125 51.796875 
Q 16.75 56 26.8125 56 
Q 31.78125 56 36.171875 55.265625 
Q 40.578125 54.546875 44.28125 53.078125 
z
" id="DejaVuSans-115"/>
     </defs>
     <g style="fill:#262626;" transform="translate(105.132152 24.732594)scale(0.06948 -0.06948)">
      <use xlink:href="#DejaVuSans-80"/>
      <use x="60.302734" xlink:href="#DejaVuSans-77"/>
      <use x="146.582031" xlink:href="#DejaVuSans-95"/>
      <use x="196.582031" xlink:href="#DejaVuSans-98"/>
      <use x="260.058594" xlink:href="#DejaVuSans-99"/>
      <use x="315.039062" xlink:href="#DejaVuSans-48"/>
      <use x="378.662109" xlink:href="#DejaVuSans-95"/>
      <use x="428.662109" xlink:href="#DejaVuSans-115"/>
      <use x="480.761719" xlink:href="#DejaVuSans-56"/>
     </g>
    </g>
    <g id="line2d_16">
     <path d="M 85.677752 32.692397 
L 99.573752 32.692397 
" style="fill:none;stroke:#dd8452;stroke-linecap:round;stroke-width:1.5;"/>
    </g>
    <g id="line2d_17"/>
    <g id="text_15">
     <!-- PM_ex2_s8_bc0.05_kl0.1_dlr0.001_dh8_dti1000 -->
     <defs>
      <path d="M 54.890625 54.6875 
L 35.109375 28.078125 
L 55.90625 0 
L 45.3125 0 
L 29.390625 21.484375 
L 13.484375 0 
L 2.875 0 
L 24.125 28.609375 
L 4.6875 54.6875 
L 15.28125 54.6875 
L 29.78125 35.203125 
L 44.28125 54.6875 
z
" id="DejaVuSans-120"/>
      <path d="M 10.6875 12.40625 
L 21 12.40625 
L 21 0 
L 10.6875 0 
z
" id="DejaVuSans-46"/>
      <path d="M 10.796875 72.90625 
L 49.515625 72.90625 
L 49.515625 64.59375 
L 19.828125 64.59375 
L 19.828125 46.734375 
Q 21.96875 47.46875 24.109375 47.828125 
Q 26.265625 48.1875 28.421875 48.1875 
Q 40.625 48.1875 47.75 41.5 
Q 54.890625 34.8125 54.890625 23.390625 
Q 54.890625 11.625 47.5625 5.09375 
Q 40.234375 -1.421875 26.90625 -1.421875 
Q 22.3125 -1.421875 17.546875 -0.640625 
Q 12.796875 0.140625 7.71875 1.703125 
L 7.71875 11.625 
Q 12.109375 9.234375 16.796875 8.0625 
Q 21.484375 6.890625 26.703125 6.890625 
Q 35.15625 6.890625 40.078125 11.328125 
Q 45.015625 15.765625 45.015625 23.390625 
Q 45.015625 31 40.078125 35.4375 
Q 35.15625 39.890625 26.703125 39.890625 
Q 22.75 39.890625 18.8125 39.015625 
Q 14.890625 38.140625 10.796875 36.28125 
z
" id="DejaVuSans-53"/>
      <path d="M 9.078125 75.984375 
L 18.109375 75.984375 
L 18.109375 31.109375 
L 44.921875 54.6875 
L 56.390625 54.6875 
L 27.390625 29.109375 
L 57.625 0 
L 45.90625 0 
L 18.109375 26.703125 
L 18.109375 0 
L 9.078125 0 
z
" id="DejaVuSans-107"/>
      <path d="M 9.421875 75.984375 
L 18.40625 75.984375 
L 18.40625 0 
L 9.421875 0 
z
" id="DejaVuSans-108"/>
      <path d="M 45.40625 46.390625 
L 45.40625 75.984375 
L 54.390625 75.984375 
L 54.390625 0 
L 45.40625 0 
L 45.40625 8.203125 
Q 42.578125 3.328125 38.25 0.953125 
Q 33.9375 -1.421875 27.875 -1.421875 
Q 17.96875 -1.421875 11.734375 6.484375 
Q 5.515625 14.40625 5.515625 27.296875 
Q 5.515625 40.1875 11.734375 48.09375 
Q 17.96875 56 27.875 56 
Q 33.9375 56 38.25 53.625 
Q 42.578125 51.265625 45.40625 46.390625 
z
M 14.796875 27.296875 
Q 14.796875 17.390625 18.875 11.75 
Q 22.953125 6.109375 30.078125 6.109375 
Q 37.203125 6.109375 41.296875 11.75 
Q 45.40625 17.390625 45.40625 27.296875 
Q 45.40625 37.203125 41.296875 42.84375 
Q 37.203125 48.484375 30.078125 48.484375 
Q 22.953125 48.484375 18.875 42.84375 
Q 14.796875 37.203125 14.796875 27.296875 
z
" id="DejaVuSans-100"/>
      <path d="M 54.890625 33.015625 
L 54.890625 0 
L 45.90625 0 
L 45.90625 32.71875 
Q 45.90625 40.484375 42.875 44.328125 
Q 39.84375 48.1875 33.796875 48.1875 
Q 26.515625 48.1875 22.3125 43.546875 
Q 18.109375 38.921875 18.109375 30.90625 
L 18.109375 0 
L 9.078125 0 
L 9.078125 75.984375 
L 18.109375 75.984375 
L 18.109375 46.1875 
Q 21.34375 51.125 25.703125 53.5625 
Q 30.078125 56 35.796875 56 
Q 45.21875 56 50.046875 50.171875 
Q 54.890625 44.34375 54.890625 33.015625 
z
" id="DejaVuSans-104"/>
     </defs>
     <g style="fill:#262626;" transform="translate(105.132152 35.124197)scale(0.06948 -0.06948)">
      <use xlink:href="#DejaVuSans-80"/>
      <use x="60.302734" xlink:href="#DejaVuSans-77"/>
      <use x="146.582031" xlink:href="#DejaVuSans-95"/>
      <use x="196.582031" xlink:href="#DejaVuSans-101"/>
      <use x="258.089844" xlink:href="#DejaVuSans-120"/>
      <use x="317.269531" xlink:href="#DejaVuSans-50"/>
      <use x="380.892578" xlink:href="#DejaVuSans-95"/>
      <use x="430.892578" xlink:href="#DejaVuSans-115"/>
      <use x="482.992188" xlink:href="#DejaVuSans-56"/>
      <use x="546.615234" xlink:href="#DejaVuSans-95"/>
      <use x="596.615234" xlink:href="#DejaVuSans-98"/>
      <use x="660.091797" xlink:href="#DejaVuSans-99"/>
      <use x="715.072266" xlink:href="#DejaVuSans-48"/>
      <use x="778.695312" xlink:href="#DejaVuSans-46"/>
      <use x="810.482422" xlink:href="#DejaVuSans-48"/>
      <use x="874.105469" xlink:href="#DejaVuSans-53"/>
      <use x="937.728516" xlink:href="#DejaVuSans-95"/>
      <use x="987.728516" xlink:href="#DejaVuSans-107"/>
      <use x="1045.638672" xlink:href="#DejaVuSans-108"/>
      <use x="1073.421875" xlink:href="#DejaVuSans-48"/>
      <use x="1137.044922" xlink:href="#DejaVuSans-46"/>
      <use x="1168.832031" xlink:href="#DejaVuSans-49"/>
      <use x="1232.455078" xlink:href="#DejaVuSans-95"/>
      <use x="1282.455078" xlink:href="#DejaVuSans-100"/>
      <use x="1345.931641" xlink:href="#DejaVuSans-108"/>
      <use x="1373.714844" xlink:href="#DejaVuSans-114"/>
      <use x="1414.828125" xlink:href="#DejaVuSans-48"/>
      <use x="1478.451172" xlink:href="#DejaVuSans-46"/>
      <use x="1510.238281" xlink:href="#DejaVuSans-48"/>
      <use x="1573.861328" xlink:href="#DejaVuSans-48"/>
      <use x="1637.484375" xlink:href="#DejaVuSans-49"/>
      <use x="1701.107422" xlink:href="#DejaVuSans-95"/>
      <use x="1751.107422" xlink:href="#DejaVuSans-100"/>
      <use x="1814.583984" xlink:href="#DejaVuSans-104"/>
      <use x="1877.962891" xlink:href="#DejaVuSans-56"/>
      <use x="1941.585938" xlink:href="#DejaVuSans-95"/>
      <use x="1991.585938" xlink:href="#DejaVuSans-100"/>
      <use x="2055.0625" xlink:href="#DejaVuSans-116"/>
      <use x="2094.271484" xlink:href="#DejaVuSans-105"/>
      <use x="2122.054688" xlink:href="#DejaVuSans-49"/>
      <use x="2185.677734" xlink:href="#DejaVuSans-48"/>
      <use x="2249.300781" xlink:href="#DejaVuSans-48"/>
      <use x="2312.923828" xlink:href="#DejaVuSans-48"/>
     </g>
    </g>
   </g>
  </g>
 </g>
 <defs>
  <clipPath id="p8baeac34ce">
   <rect height="221.76" width="223.2" x="53.31" y="13.2"/>
  </clipPath>
 </defs>
</svg>
