<?xml version="1.0" encoding="utf-8" standalone="no"?>
<!DOCTYPE svg PUBLIC "-//W3C//DTD SVG 1.1//EN"
  "http://www.w3.org/Graphics/SVG/1.1/DTD/svg11.dtd">
<!-- Created with matplotlib (https://matplotlib.org/) -->
<svg height="277.919688pt" version="1.1" viewBox="0 0 282.71125 277.919688" width="282.71125pt" xmlns="http://www.w3.org/2000/svg" xmlns:xlink="http://www.w3.org/1999/xlink">
 <defs>
  <style type="text/css">
*{stroke-linecap:butt;stroke-linejoin:round;}
  </style>
 </defs>
 <g id="figure_1">
  <g id="patch_1">
   <path d="M 0 277.919688 
L 282.71125 277.919688 
L 282.71125 0 
L 0 0 
z
" style="fill:#ffffff;"/>
  </g>
  <g id="axes_1">
   <g id="patch_2">
    <path d="M 46.31125 234.96 
L 269.51125 234.96 
L 269.51125 13.2 
L 46.31125 13.2 
z
" style="fill:#eaeaf2;"/>
   </g>
   <g id="matplotlib.axis_1">
    <g id="xtick_1">
     <g id="line2d_1">
      <path clip-path="url(#paf3606ff24)" d="M 46.31125 234.96 
L 46.31125 13.2 
" style="fill:none;stroke:#ffffff;stroke-linecap:round;"/>
     </g>
     <g id="text_1">
      <!-- 0 -->
      <defs>
       <path d="M 31.78125 66.40625 
Q 24.171875 66.40625 20.328125 58.90625 
Q 16.5 51.421875 16.5 36.375 
Q 16.5 21.390625 20.328125 13.890625 
Q 24.171875 6.390625 31.78125 6.390625 
Q 39.453125 6.390625 43.28125 13.890625 
Q 47.125 21.390625 47.125 36.375 
Q 47.125 51.421875 43.28125 58.90625 
Q 39.453125 66.40625 31.78125 66.40625 
z
M 31.78125 74.21875 
Q 44.046875 74.21875 50.515625 64.515625 
Q 56.984375 54.828125 56.984375 36.375 
Q 56.984375 17.96875 50.515625 8.265625 
Q 44.046875 -1.421875 31.78125 -1.421875 
Q 19.53125 -1.421875 13.0625 8.265625 
Q 6.59375 17.96875 6.59375 36.375 
Q 6.59375 54.828125 13.0625 64.515625 
Q 19.53125 74.21875 31.78125 74.21875 
z
" id="DejaVuSans-48"/>
      </defs>
      <g style="fill:#262626;" transform="translate(42.811875 252.818281)scale(0.11 -0.11)">
       <use xlink:href="#DejaVuSans-48"/>
      </g>
     </g>
    </g>
    <g id="xtick_2">
     <g id="line2d_2">
      <path clip-path="url(#paf3606ff24)" d="M 91.402159 234.96 
L 91.402159 13.2 
" style="fill:none;stroke:#ffffff;stroke-linecap:round;"/>
     </g>
     <g id="text_2">
      <!-- 20 -->
      <defs>
       <path d="M 19.1875 8.296875 
L 53.609375 8.296875 
L 53.609375 0 
L 7.328125 0 
L 7.328125 8.296875 
Q 12.9375 14.109375 22.625 23.890625 
Q 32.328125 33.6875 34.8125 36.53125 
Q 39.546875 41.84375 41.421875 45.53125 
Q 43.3125 49.21875 43.3125 52.78125 
Q 43.3125 58.59375 39.234375 62.25 
Q 35.15625 65.921875 28.609375 65.921875 
Q 23.96875 65.921875 18.8125 64.3125 
Q 13.671875 62.703125 7.8125 59.421875 
L 7.8125 69.390625 
Q 13.765625 71.78125 18.9375 73 
Q 24.125 74.21875 28.421875 74.21875 
Q 39.75 74.21875 46.484375 68.546875 
Q 53.21875 62.890625 53.21875 53.421875 
Q 53.21875 48.921875 51.53125 44.890625 
Q 49.859375 40.875 45.40625 35.40625 
Q 44.1875 33.984375 37.640625 27.21875 
Q 31.109375 20.453125 19.1875 8.296875 
z
" id="DejaVuSans-50"/>
      </defs>
      <g style="fill:#262626;" transform="translate(84.403409 252.818281)scale(0.11 -0.11)">
       <use xlink:href="#DejaVuSans-50"/>
       <use x="63.623047" xlink:href="#DejaVuSans-48"/>
      </g>
     </g>
    </g>
    <g id="xtick_3">
     <g id="line2d_3">
      <path clip-path="url(#paf3606ff24)" d="M 136.493068 234.96 
L 136.493068 13.2 
" style="fill:none;stroke:#ffffff;stroke-linecap:round;"/>
     </g>
     <g id="text_3">
      <!-- 40 -->
      <defs>
       <path d="M 37.796875 64.3125 
L 12.890625 25.390625 
L 37.796875 25.390625 
z
M 35.203125 72.90625 
L 47.609375 72.90625 
L 47.609375 25.390625 
L 58.015625 25.390625 
L 58.015625 17.1875 
L 47.609375 17.1875 
L 47.609375 0 
L 37.796875 0 
L 37.796875 17.1875 
L 4.890625 17.1875 
L 4.890625 26.703125 
z
" id="DejaVuSans-52"/>
      </defs>
      <g style="fill:#262626;" transform="translate(129.494318 252.818281)scale(0.11 -0.11)">
       <use xlink:href="#DejaVuSans-52"/>
       <use x="63.623047" xlink:href="#DejaVuSans-48"/>
      </g>
     </g>
    </g>
    <g id="xtick_4">
     <g id="line2d_4">
      <path clip-path="url(#paf3606ff24)" d="M 181.583977 234.96 
L 181.583977 13.2 
" style="fill:none;stroke:#ffffff;stroke-linecap:round;"/>
     </g>
     <g id="text_4">
      <!-- 60 -->
      <defs>
       <path d="M 33.015625 40.375 
Q 26.375 40.375 22.484375 35.828125 
Q 18.609375 31.296875 18.609375 23.390625 
Q 18.609375 15.53125 22.484375 10.953125 
Q 26.375 6.390625 33.015625 6.390625 
Q 39.65625 6.390625 43.53125 10.953125 
Q 47.40625 15.53125 47.40625 23.390625 
Q 47.40625 31.296875 43.53125 35.828125 
Q 39.65625 40.375 33.015625 40.375 
z
M 52.59375 71.296875 
L 52.59375 62.3125 
Q 48.875 64.0625 45.09375 64.984375 
Q 41.3125 65.921875 37.59375 65.921875 
Q 27.828125 65.921875 22.671875 59.328125 
Q 17.53125 52.734375 16.796875 39.40625 
Q 19.671875 43.65625 24.015625 45.921875 
Q 28.375 48.1875 33.59375 48.1875 
Q 44.578125 48.1875 50.953125 41.515625 
Q 57.328125 34.859375 57.328125 23.390625 
Q 57.328125 12.15625 50.6875 5.359375 
Q 44.046875 -1.421875 33.015625 -1.421875 
Q 20.359375 -1.421875 13.671875 8.265625 
Q 6.984375 17.96875 6.984375 36.375 
Q 6.984375 53.65625 15.1875 63.9375 
Q 23.390625 74.21875 37.203125 74.21875 
Q 40.921875 74.21875 44.703125 73.484375 
Q 48.484375 72.75 52.59375 71.296875 
z
" id="DejaVuSans-54"/>
      </defs>
      <g style="fill:#262626;" transform="translate(174.585227 252.818281)scale(0.11 -0.11)">
       <use xlink:href="#DejaVuSans-54"/>
       <use x="63.623047" xlink:href="#DejaVuSans-48"/>
      </g>
     </g>
    </g>
    <g id="xtick_5">
     <g id="line2d_5">
      <path clip-path="url(#paf3606ff24)" d="M 226.674886 234.96 
L 226.674886 13.2 
" style="fill:none;stroke:#ffffff;stroke-linecap:round;"/>
     </g>
     <g id="text_5">
      <!-- 80 -->
      <defs>
       <path d="M 31.78125 34.625 
Q 24.75 34.625 20.71875 30.859375 
Q 16.703125 27.09375 16.703125 20.515625 
Q 16.703125 13.921875 20.71875 10.15625 
Q 24.75 6.390625 31.78125 6.390625 
Q 38.8125 6.390625 42.859375 10.171875 
Q 46.921875 13.96875 46.921875 20.515625 
Q 46.921875 27.09375 42.890625 30.859375 
Q 38.875 34.625 31.78125 34.625 
z
M 21.921875 38.8125 
Q 15.578125 40.375 12.03125 44.71875 
Q 8.5 49.078125 8.5 55.328125 
Q 8.5 64.0625 14.71875 69.140625 
Q 20.953125 74.21875 31.78125 74.21875 
Q 42.671875 74.21875 48.875 69.140625 
Q 55.078125 64.0625 55.078125 55.328125 
Q 55.078125 49.078125 51.53125 44.71875 
Q 48 40.375 41.703125 38.8125 
Q 48.828125 37.15625 52.796875 32.3125 
Q 56.78125 27.484375 56.78125 20.515625 
Q 56.78125 9.90625 50.3125 4.234375 
Q 43.84375 -1.421875 31.78125 -1.421875 
Q 19.734375 -1.421875 13.25 4.234375 
Q 6.78125 9.90625 6.78125 20.515625 
Q 6.78125 27.484375 10.78125 32.3125 
Q 14.796875 37.15625 21.921875 38.8125 
z
M 18.3125 54.390625 
Q 18.3125 48.734375 21.84375 45.5625 
Q 25.390625 42.390625 31.78125 42.390625 
Q 38.140625 42.390625 41.71875 45.5625 
Q 45.3125 48.734375 45.3125 54.390625 
Q 45.3125 60.0625 41.71875 63.234375 
Q 38.140625 66.40625 31.78125 66.40625 
Q 25.390625 66.40625 21.84375 63.234375 
Q 18.3125 60.0625 18.3125 54.390625 
z
" id="DejaVuSans-56"/>
      </defs>
      <g style="fill:#262626;" transform="translate(219.676136 252.818281)scale(0.11 -0.11)">
       <use xlink:href="#DejaVuSans-56"/>
       <use x="63.623047" xlink:href="#DejaVuSans-48"/>
      </g>
     </g>
    </g>
    <g id="text_6">
     <!-- Iteration -->
     <defs>
      <path d="M 9.8125 72.90625 
L 19.671875 72.90625 
L 19.671875 0 
L 9.8125 0 
z
" id="DejaVuSans-73"/>
      <path d="M 18.3125 70.21875 
L 18.3125 54.6875 
L 36.8125 54.6875 
L 36.8125 47.703125 
L 18.3125 47.703125 
L 18.3125 18.015625 
Q 18.3125 11.328125 20.140625 9.421875 
Q 21.96875 7.515625 27.59375 7.515625 
L 36.8125 7.515625 
L 36.8125 0 
L 27.59375 0 
Q 17.1875 0 13.234375 3.875 
Q 9.28125 7.765625 9.28125 18.015625 
L 9.28125 47.703125 
L 2.6875 47.703125 
L 2.6875 54.6875 
L 9.28125 54.6875 
L 9.28125 70.21875 
z
" id="DejaVuSans-116"/>
      <path d="M 56.203125 29.59375 
L 56.203125 25.203125 
L 14.890625 25.203125 
Q 15.484375 15.921875 20.484375 11.0625 
Q 25.484375 6.203125 34.421875 6.203125 
Q 39.59375 6.203125 44.453125 7.46875 
Q 49.3125 8.734375 54.109375 11.28125 
L 54.109375 2.78125 
Q 49.265625 0.734375 44.1875 -0.34375 
Q 39.109375 -1.421875 33.890625 -1.421875 
Q 20.796875 -1.421875 13.15625 6.1875 
Q 5.515625 13.8125 5.515625 26.8125 
Q 5.515625 40.234375 12.765625 48.109375 
Q 20.015625 56 32.328125 56 
Q 43.359375 56 49.78125 48.890625 
Q 56.203125 41.796875 56.203125 29.59375 
z
M 47.21875 32.234375 
Q 47.125 39.59375 43.09375 43.984375 
Q 39.0625 48.390625 32.421875 48.390625 
Q 24.90625 48.390625 20.390625 44.140625 
Q 15.875 39.890625 15.1875 32.171875 
z
" id="DejaVuSans-101"/>
      <path d="M 41.109375 46.296875 
Q 39.59375 47.171875 37.8125 47.578125 
Q 36.03125 48 33.890625 48 
Q 26.265625 48 22.1875 43.046875 
Q 18.109375 38.09375 18.109375 28.8125 
L 18.109375 0 
L 9.078125 0 
L 9.078125 54.6875 
L 18.109375 54.6875 
L 18.109375 46.1875 
Q 20.953125 51.171875 25.484375 53.578125 
Q 30.03125 56 36.53125 56 
Q 37.453125 56 38.578125 55.875 
Q 39.703125 55.765625 41.0625 55.515625 
z
" id="DejaVuSans-114"/>
      <path d="M 34.28125 27.484375 
Q 23.390625 27.484375 19.1875 25 
Q 14.984375 22.515625 14.984375 16.5 
Q 14.984375 11.71875 18.140625 8.90625 
Q 21.296875 6.109375 26.703125 6.109375 
Q 34.1875 6.109375 38.703125 11.40625 
Q 43.21875 16.703125 43.21875 25.484375 
L 43.21875 27.484375 
z
M 52.203125 31.203125 
L 52.203125 0 
L 43.21875 0 
L 43.21875 8.296875 
Q 40.140625 3.328125 35.546875 0.953125 
Q 30.953125 -1.421875 24.3125 -1.421875 
Q 15.921875 -1.421875 10.953125 3.296875 
Q 6 8.015625 6 15.921875 
Q 6 25.140625 12.171875 29.828125 
Q 18.359375 34.515625 30.609375 34.515625 
L 43.21875 34.515625 
L 43.21875 35.40625 
Q 43.21875 41.609375 39.140625 45 
Q 35.0625 48.390625 27.6875 48.390625 
Q 23 48.390625 18.546875 47.265625 
Q 14.109375 46.140625 10.015625 43.890625 
L 10.015625 52.203125 
Q 14.9375 54.109375 19.578125 55.046875 
Q 24.21875 56 28.609375 56 
Q 40.484375 56 46.34375 49.84375 
Q 52.203125 43.703125 52.203125 31.203125 
z
" id="DejaVuSans-97"/>
      <path d="M 9.421875 54.6875 
L 18.40625 54.6875 
L 18.40625 0 
L 9.421875 0 
z
M 9.421875 75.984375 
L 18.40625 75.984375 
L 18.40625 64.59375 
L 9.421875 64.59375 
z
" id="DejaVuSans-105"/>
      <path d="M 30.609375 48.390625 
Q 23.390625 48.390625 19.1875 42.75 
Q 14.984375 37.109375 14.984375 27.296875 
Q 14.984375 17.484375 19.15625 11.84375 
Q 23.34375 6.203125 30.609375 6.203125 
Q 37.796875 6.203125 41.984375 11.859375 
Q 46.1875 17.53125 46.1875 27.296875 
Q 46.1875 37.015625 41.984375 42.703125 
Q 37.796875 48.390625 30.609375 48.390625 
z
M 30.609375 56 
Q 42.328125 56 49.015625 48.375 
Q 55.71875 40.765625 55.71875 27.296875 
Q 55.71875 13.875 49.015625 6.21875 
Q 42.328125 -1.421875 30.609375 -1.421875 
Q 18.84375 -1.421875 12.171875 6.21875 
Q 5.515625 13.875 5.515625 27.296875 
Q 5.515625 40.765625 12.171875 48.375 
Q 18.84375 56 30.609375 56 
z
" id="DejaVuSans-111"/>
      <path d="M 54.890625 33.015625 
L 54.890625 0 
L 45.90625 0 
L 45.90625 32.71875 
Q 45.90625 40.484375 42.875 44.328125 
Q 39.84375 48.1875 33.796875 48.1875 
Q 26.515625 48.1875 22.3125 43.546875 
Q 18.109375 38.921875 18.109375 30.90625 
L 18.109375 0 
L 9.078125 0 
L 9.078125 54.6875 
L 18.109375 54.6875 
L 18.109375 46.1875 
Q 21.34375 51.125 25.703125 53.5625 
Q 30.078125 56 35.796875 56 
Q 45.21875 56 50.046875 50.171875 
Q 54.890625 44.34375 54.890625 33.015625 
z
" id="DejaVuSans-110"/>
     </defs>
     <g style="fill:#262626;" transform="translate(132.460938 268.224063)scale(0.12 -0.12)">
      <use xlink:href="#DejaVuSans-73"/>
      <use x="29.492188" xlink:href="#DejaVuSans-116"/>
      <use x="68.701172" xlink:href="#DejaVuSans-101"/>
      <use x="130.224609" xlink:href="#DejaVuSans-114"/>
      <use x="171.337891" xlink:href="#DejaVuSans-97"/>
      <use x="232.617188" xlink:href="#DejaVuSans-116"/>
      <use x="271.826172" xlink:href="#DejaVuSans-105"/>
      <use x="299.609375" xlink:href="#DejaVuSans-111"/>
      <use x="360.791016" xlink:href="#DejaVuSans-110"/>
     </g>
    </g>
   </g>
   <g id="matplotlib.axis_2">
    <g id="ytick_1">
     <g id="line2d_6">
      <path clip-path="url(#paf3606ff24)" d="M 46.31125 224.88 
L 269.51125 224.88 
" style="fill:none;stroke:#ffffff;stroke-linecap:round;"/>
     </g>
     <g id="text_7">
      <!-- 0 -->
      <g style="fill:#262626;" transform="translate(29.8125 229.059141)scale(0.11 -0.11)">
       <use xlink:href="#DejaVuSans-48"/>
      </g>
     </g>
    </g>
    <g id="ytick_2">
     <g id="line2d_7">
      <path clip-path="url(#paf3606ff24)" d="M 46.31125 194.750525 
L 269.51125 194.750525 
" style="fill:none;stroke:#ffffff;stroke-linecap:round;"/>
     </g>
     <g id="text_8">
      <!-- 5 -->
      <defs>
       <path d="M 10.796875 72.90625 
L 49.515625 72.90625 
L 49.515625 64.59375 
L 19.828125 64.59375 
L 19.828125 46.734375 
Q 21.96875 47.46875 24.109375 47.828125 
Q 26.265625 48.1875 28.421875 48.1875 
Q 40.625 48.1875 47.75 41.5 
Q 54.890625 34.8125 54.890625 23.390625 
Q 54.890625 11.625 47.5625 5.09375 
Q 40.234375 -1.421875 26.90625 -1.421875 
Q 22.3125 -1.421875 17.546875 -0.640625 
Q 12.796875 0.140625 7.71875 1.703125 
L 7.71875 11.625 
Q 12.109375 9.234375 16.796875 8.0625 
Q 21.484375 6.890625 26.703125 6.890625 
Q 35.15625 6.890625 40.078125 11.328125 
Q 45.015625 15.765625 45.015625 23.390625 
Q 45.015625 31 40.078125 35.4375 
Q 35.15625 39.890625 26.703125 39.890625 
Q 22.75 39.890625 18.8125 39.015625 
Q 14.890625 38.140625 10.796875 36.28125 
z
" id="DejaVuSans-53"/>
      </defs>
      <g style="fill:#262626;" transform="translate(29.8125 198.929666)scale(0.11 -0.11)">
       <use xlink:href="#DejaVuSans-53"/>
      </g>
     </g>
    </g>
    <g id="ytick_3">
     <g id="line2d_8">
      <path clip-path="url(#paf3606ff24)" d="M 46.31125 164.62105 
L 269.51125 164.62105 
" style="fill:none;stroke:#ffffff;stroke-linecap:round;"/>
     </g>
     <g id="text_9">
      <!-- 10 -->
      <defs>
       <path d="M 12.40625 8.296875 
L 28.515625 8.296875 
L 28.515625 63.921875 
L 10.984375 60.40625 
L 10.984375 69.390625 
L 28.421875 72.90625 
L 38.28125 72.90625 
L 38.28125 8.296875 
L 54.390625 8.296875 
L 54.390625 0 
L 12.40625 0 
z
" id="DejaVuSans-49"/>
      </defs>
      <g style="fill:#262626;" transform="translate(22.81375 168.800191)scale(0.11 -0.11)">
       <use xlink:href="#DejaVuSans-49"/>
       <use x="63.623047" xlink:href="#DejaVuSans-48"/>
      </g>
     </g>
    </g>
    <g id="ytick_4">
     <g id="line2d_9">
      <path clip-path="url(#paf3606ff24)" d="M 46.31125 134.491575 
L 269.51125 134.491575 
" style="fill:none;stroke:#ffffff;stroke-linecap:round;"/>
     </g>
     <g id="text_10">
      <!-- 15 -->
      <g style="fill:#262626;" transform="translate(22.81375 138.670716)scale(0.11 -0.11)">
       <use xlink:href="#DejaVuSans-49"/>
       <use x="63.623047" xlink:href="#DejaVuSans-53"/>
      </g>
     </g>
    </g>
    <g id="ytick_5">
     <g id="line2d_10">
      <path clip-path="url(#paf3606ff24)" d="M 46.31125 104.362101 
L 269.51125 104.362101 
" style="fill:none;stroke:#ffffff;stroke-linecap:round;"/>
     </g>
     <g id="text_11">
      <!-- 20 -->
      <g style="fill:#262626;" transform="translate(22.81375 108.541241)scale(0.11 -0.11)">
       <use xlink:href="#DejaVuSans-50"/>
       <use x="63.623047" xlink:href="#DejaVuSans-48"/>
      </g>
     </g>
    </g>
    <g id="ytick_6">
     <g id="line2d_11">
      <path clip-path="url(#paf3606ff24)" d="M 46.31125 74.232626 
L 269.51125 74.232626 
" style="fill:none;stroke:#ffffff;stroke-linecap:round;"/>
     </g>
     <g id="text_12">
      <!-- 25 -->
      <g style="fill:#262626;" transform="translate(22.81375 78.411766)scale(0.11 -0.11)">
       <use xlink:href="#DejaVuSans-50"/>
       <use x="63.623047" xlink:href="#DejaVuSans-53"/>
      </g>
     </g>
    </g>
    <g id="ytick_7">
     <g id="line2d_12">
      <path clip-path="url(#paf3606ff24)" d="M 46.31125 44.103151 
L 269.51125 44.103151 
" style="fill:none;stroke:#ffffff;stroke-linecap:round;"/>
     </g>
     <g id="text_13">
      <!-- 30 -->
      <defs>
       <path d="M 40.578125 39.3125 
Q 47.65625 37.796875 51.625 33 
Q 55.609375 28.21875 55.609375 21.1875 
Q 55.609375 10.40625 48.1875 4.484375 
Q 40.765625 -1.421875 27.09375 -1.421875 
Q 22.515625 -1.421875 17.65625 -0.515625 
Q 12.796875 0.390625 7.625 2.203125 
L 7.625 11.71875 
Q 11.71875 9.328125 16.59375 8.109375 
Q 21.484375 6.890625 26.8125 6.890625 
Q 36.078125 6.890625 40.9375 10.546875 
Q 45.796875 14.203125 45.796875 21.1875 
Q 45.796875 27.640625 41.28125 31.265625 
Q 36.765625 34.90625 28.71875 34.90625 
L 20.21875 34.90625 
L 20.21875 43.015625 
L 29.109375 43.015625 
Q 36.375 43.015625 40.234375 45.921875 
Q 44.09375 48.828125 44.09375 54.296875 
Q 44.09375 59.90625 40.109375 62.90625 
Q 36.140625 65.921875 28.71875 65.921875 
Q 24.65625 65.921875 20.015625 65.03125 
Q 15.375 64.15625 9.8125 62.3125 
L 9.8125 71.09375 
Q 15.4375 72.65625 20.34375 73.4375 
Q 25.25 74.21875 29.59375 74.21875 
Q 40.828125 74.21875 47.359375 69.109375 
Q 53.90625 64.015625 53.90625 55.328125 
Q 53.90625 49.265625 50.4375 45.09375 
Q 46.96875 40.921875 40.578125 39.3125 
z
" id="DejaVuSans-51"/>
      </defs>
      <g style="fill:#262626;" transform="translate(22.81375 48.282292)scale(0.11 -0.11)">
       <use xlink:href="#DejaVuSans-51"/>
       <use x="63.623047" xlink:href="#DejaVuSans-48"/>
      </g>
     </g>
    </g>
    <g id="ytick_8">
     <g id="line2d_13">
      <path clip-path="url(#paf3606ff24)" d="M 46.31125 13.973676 
L 269.51125 13.973676 
" style="fill:none;stroke:#ffffff;stroke-linecap:round;"/>
     </g>
     <g id="text_14">
      <!-- 35 -->
      <g style="fill:#262626;" transform="translate(22.81375 18.152817)scale(0.11 -0.11)">
       <use xlink:href="#DejaVuSans-51"/>
       <use x="63.623047" xlink:href="#DejaVuSans-53"/>
      </g>
     </g>
    </g>
    <g id="text_15">
     <!-- AverageReturn -->
     <defs>
      <path d="M 34.1875 63.1875 
L 20.796875 26.90625 
L 47.609375 26.90625 
z
M 28.609375 72.90625 
L 39.796875 72.90625 
L 67.578125 0 
L 57.328125 0 
L 50.6875 18.703125 
L 17.828125 18.703125 
L 11.1875 0 
L 0.78125 0 
z
" id="DejaVuSans-65"/>
      <path d="M 2.984375 54.6875 
L 12.5 54.6875 
L 29.59375 8.796875 
L 46.6875 54.6875 
L 56.203125 54.6875 
L 35.6875 0 
L 23.484375 0 
z
" id="DejaVuSans-118"/>
      <path d="M 45.40625 27.984375 
Q 45.40625 37.75 41.375 43.109375 
Q 37.359375 48.484375 30.078125 48.484375 
Q 22.859375 48.484375 18.828125 43.109375 
Q 14.796875 37.75 14.796875 27.984375 
Q 14.796875 18.265625 18.828125 12.890625 
Q 22.859375 7.515625 30.078125 7.515625 
Q 37.359375 7.515625 41.375 12.890625 
Q 45.40625 18.265625 45.40625 27.984375 
z
M 54.390625 6.78125 
Q 54.390625 -7.171875 48.1875 -13.984375 
Q 42 -20.796875 29.203125 -20.796875 
Q 24.46875 -20.796875 20.265625 -20.09375 
Q 16.0625 -19.390625 12.109375 -17.921875 
L 12.109375 -9.1875 
Q 16.0625 -11.328125 19.921875 -12.34375 
Q 23.78125 -13.375 27.78125 -13.375 
Q 36.625 -13.375 41.015625 -8.765625 
Q 45.40625 -4.15625 45.40625 5.171875 
L 45.40625 9.625 
Q 42.625 4.78125 38.28125 2.390625 
Q 33.9375 0 27.875 0 
Q 17.828125 0 11.671875 7.65625 
Q 5.515625 15.328125 5.515625 27.984375 
Q 5.515625 40.671875 11.671875 48.328125 
Q 17.828125 56 27.875 56 
Q 33.9375 56 38.28125 53.609375 
Q 42.625 51.21875 45.40625 46.390625 
L 45.40625 54.6875 
L 54.390625 54.6875 
z
" id="DejaVuSans-103"/>
      <path d="M 44.390625 34.1875 
Q 47.5625 33.109375 50.5625 29.59375 
Q 53.5625 26.078125 56.59375 19.921875 
L 66.609375 0 
L 56 0 
L 46.6875 18.703125 
Q 43.0625 26.03125 39.671875 28.421875 
Q 36.28125 30.8125 30.421875 30.8125 
L 19.671875 30.8125 
L 19.671875 0 
L 9.8125 0 
L 9.8125 72.90625 
L 32.078125 72.90625 
Q 44.578125 72.90625 50.734375 67.671875 
Q 56.890625 62.453125 56.890625 51.90625 
Q 56.890625 45.015625 53.6875 40.46875 
Q 50.484375 35.9375 44.390625 34.1875 
z
M 19.671875 64.796875 
L 19.671875 38.921875 
L 32.078125 38.921875 
Q 39.203125 38.921875 42.84375 42.21875 
Q 46.484375 45.515625 46.484375 51.90625 
Q 46.484375 58.296875 42.84375 61.546875 
Q 39.203125 64.796875 32.078125 64.796875 
z
" id="DejaVuSans-82"/>
      <path d="M 8.5 21.578125 
L 8.5 54.6875 
L 17.484375 54.6875 
L 17.484375 21.921875 
Q 17.484375 14.15625 20.5 10.265625 
Q 23.53125 6.390625 29.59375 6.390625 
Q 36.859375 6.390625 41.078125 11.03125 
Q 45.3125 15.671875 45.3125 23.6875 
L 45.3125 54.6875 
L 54.296875 54.6875 
L 54.296875 0 
L 45.3125 0 
L 45.3125 8.40625 
Q 42.046875 3.421875 37.71875 1 
Q 33.40625 -1.421875 27.6875 -1.421875 
Q 18.265625 -1.421875 13.375 4.4375 
Q 8.5 10.296875 8.5 21.578125 
z
M 31.109375 56 
z
" id="DejaVuSans-117"/>
     </defs>
     <g style="fill:#262626;" transform="translate(16.318125 169.347187)rotate(-90)scale(0.12 -0.12)">
      <use xlink:href="#DejaVuSans-65"/>
      <use x="68.330078" xlink:href="#DejaVuSans-118"/>
      <use x="127.509766" xlink:href="#DejaVuSans-101"/>
      <use x="189.033203" xlink:href="#DejaVuSans-114"/>
      <use x="230.146484" xlink:href="#DejaVuSans-97"/>
      <use x="291.425781" xlink:href="#DejaVuSans-103"/>
      <use x="354.902344" xlink:href="#DejaVuSans-101"/>
      <use x="416.425781" xlink:href="#DejaVuSans-82"/>
      <use x="485.845703" xlink:href="#DejaVuSans-101"/>
      <use x="547.369141" xlink:href="#DejaVuSans-116"/>
      <use x="586.578125" xlink:href="#DejaVuSans-117"/>
      <use x="649.957031" xlink:href="#DejaVuSans-114"/>
      <use x="691.054688" xlink:href="#DejaVuSans-110"/>
     </g>
    </g>
   </g>
   <g id="PolyCollection_1">
    <defs>
     <path d="M 46.31125 -53.039687 
L 46.31125 -53.039687 
L 48.565795 -53.039687 
L 50.820341 -53.039687 
L 53.074886 -53.039687 
L 55.329432 -53.039687 
L 57.583977 -53.039687 
L 59.838523 -53.039687 
L 62.093068 -53.039687 
L 64.347614 -53.039687 
L 66.602159 -53.039687 
L 68.856705 -53.039687 
L 71.11125 -53.039687 
L 73.365795 -53.039687 
L 75.620341 -53.039687 
L 77.874886 -53.039687 
L 80.129432 -53.039687 
L 82.383977 -53.039687 
L 84.638523 -53.039687 
L 86.893068 -53.039687 
L 89.147614 -53.039687 
L 91.402159 -53.039687 
L 93.656705 -53.039687 
L 95.91125 -53.039687 
L 98.165795 -53.039687 
L 100.420341 -53.039687 
L 102.674886 -53.039687 
L 104.929432 -53.039687 
L 107.183977 -53.039687 
L 109.438523 -53.039687 
L 111.693068 -53.039687 
L 113.947614 -53.039687 
L 116.202159 -53.039687 
L 118.456705 -53.039687 
L 120.71125 -53.039687 
L 122.965795 -53.039687 
L 125.220341 -53.039687 
L 127.474886 -53.039687 
L 129.729432 -53.039687 
L 131.983977 -53.039687 
L 134.238523 -53.039687 
L 136.493068 -53.039687 
L 138.747614 -53.039687 
L 141.002159 -53.039687 
L 143.256705 -53.039687 
L 145.51125 -53.039687 
L 147.765795 -53.039687 
L 150.020341 -53.039687 
L 152.274886 -53.039687 
L 154.529432 -53.039687 
L 156.783977 -53.039687 
L 159.038523 -53.039687 
L 161.293068 -53.039687 
L 163.547614 -53.039687 
L 165.802159 -53.039687 
L 168.056705 -53.039687 
L 170.31125 -53.039687 
L 172.565795 -53.039687 
L 174.820341 -53.039687 
L 177.074886 -53.039687 
L 179.329432 -53.039687 
L 181.583977 -53.039687 
L 183.838523 -53.039687 
L 186.093068 -53.039687 
L 188.347614 -53.039687 
L 190.602159 -53.039687 
L 192.856705 -53.039687 
L 195.11125 -53.039687 
L 197.365795 -53.039687 
L 199.620341 -53.039687 
L 201.874886 -53.039687 
L 204.129432 -53.039687 
L 206.383977 -53.039687 
L 208.638523 -53.039687 
L 210.893068 -53.039687 
L 213.147614 -53.039687 
L 215.402159 -53.039687 
L 217.656705 -53.039687 
L 219.91125 -53.039687 
L 222.165795 -53.039687 
L 224.420341 -53.039687 
L 226.674886 -53.039687 
L 228.929432 -53.039687 
L 231.183977 -53.039687 
L 233.438523 -53.039687 
L 235.693068 -53.039687 
L 237.947614 -53.039687 
L 240.202159 -53.039687 
L 242.456705 -53.039687 
L 244.71125 -53.039687 
L 246.965795 -53.039687 
L 249.220341 -53.039687 
L 251.474886 -53.039687 
L 253.729432 -53.039687 
L 255.983977 -53.039687 
L 258.238523 -53.039687 
L 260.493068 -53.039687 
L 262.747614 -53.039687 
L 265.002159 -53.039687 
L 267.256705 -53.039687 
L 269.51125 -53.039687 
L 269.51125 -53.039687 
L 269.51125 -53.039687 
L 267.256705 -53.039687 
L 265.002159 -53.24156 
L 262.747614 -53.746241 
L 260.493068 -53.039687 
L 258.238523 -53.039687 
L 255.983977 -54.331672 
L 253.729432 -53.180998 
L 251.474886 -53.948114 
L 249.220341 -53.039687 
L 246.965795 -53.160811 
L 244.71125 -53.039687 
L 242.456705 -54.674855 
L 240.202159 -53.665492 
L 237.947614 -55.30066 
L 235.693068 -53.382871 
L 233.438523 -54.170174 
L 231.183977 -55.401596 
L 228.929432 -56.370584 
L 226.674886 -56.370584 
L 224.420341 -61.033839 
L 222.165795 -58.490246 
L 219.91125 -56.148524 
L 217.656705 -57.420322 
L 215.402159 -57.743318 
L 213.147614 -56.673393 
L 210.893068 -56.532082 
L 208.638523 -57.258823 
L 206.383977 -59.741856 
L 204.129432 -59.317923 
L 201.874886 -59.519796 
L 199.620341 -58.187437 
L 197.365795 -54.977664 
L 195.11125 -56.47152 
L 192.856705 -56.592644 
L 190.602159 -57.58182 
L 188.347614 -54.573919 
L 186.093068 -56.653206 
L 183.838523 -57.1377 
L 181.583977 -57.299198 
L 179.329432 -57.258823 
L 177.074886 -58.409497 
L 174.820341 -60.185975 
L 172.565795 -59.78223 
L 170.31125 -56.289835 
L 168.056705 -57.279011 
L 165.802159 -54.392233 
L 163.547614 -59.418859 
L 161.293068 -57.218449 
L 159.038523 -57.884628 
L 156.783977 -54.614293 
L 154.529432 -58.227812 
L 152.274886 -58.732493 
L 150.020341 -56.10815 
L 147.765795 -54.896915 
L 145.51125 -54.412421 
L 143.256705 -55.401596 
L 141.002159 -53.039687 
L 138.747614 -53.766429 
L 136.493068 -54.190361 
L 134.238523 -53.039687 
L 131.983977 -53.039687 
L 129.729432 -53.080062 
L 127.474886 -53.039687 
L 125.220341 -53.100249 
L 122.965795 -53.039687 
L 120.71125 -53.201186 
L 118.456705 -53.039687 
L 116.202159 -53.039687 
L 113.947614 -53.039687 
L 111.693068 -53.039687 
L 109.438523 -53.039687 
L 107.183977 -53.039687 
L 104.929432 -56.289835 
L 102.674886 -54.210548 
L 100.420341 -53.039687 
L 98.165795 -53.039687 
L 95.91125 -53.039687 
L 93.656705 -53.080062 
L 91.402159 -53.524182 
L 89.147614 -53.948114 
L 86.893068 -53.039687 
L 84.638523 -53.039687 
L 82.383977 -53.322309 
L 80.129432 -53.46362 
L 77.874886 -53.604931 
L 75.620341 -53.281935 
L 73.365795 -53.140624 
L 71.11125 -53.483807 
L 68.856705 -53.039687 
L 66.602159 -53.039687 
L 64.347614 -53.039687 
L 62.093068 -53.039687 
L 59.838523 -53.039687 
L 57.583977 -53.039687 
L 55.329432 -53.039687 
L 53.074886 -53.039687 
L 50.820341 -53.039687 
L 48.565795 -53.039687 
L 46.31125 -53.039687 
z
" id="m9b5afc57b2" style="stroke:#ffffff;stroke-opacity:0.2;"/>
    </defs>
    <g clip-path="url(#paf3606ff24)">
     <use style="fill:#4c72b0;fill-opacity:0.2;stroke:#ffffff;stroke-opacity:0.2;" x="0" xlink:href="#m9b5afc57b2" y="277.919688"/>
    </g>
   </g>
   <g id="PolyCollection_2">
    <defs>
     <path d="M 46.31125 -53.039687 
L 46.31125 -53.039687 
L 48.565795 -53.039687 
L 50.820341 -53.039687 
L 53.074886 -53.039687 
L 55.329432 -53.039687 
L 57.583977 -53.039687 
L 59.838523 -53.039687 
L 62.093068 -53.039687 
L 64.347614 -53.100249 
L 66.602159 -53.039687 
L 68.856705 -53.039687 
L 71.11125 -53.039687 
L 73.365795 -53.039687 
L 75.620341 -53.039687 
L 77.874886 -53.039687 
L 80.129432 -53.039687 
L 82.383977 -53.281935 
L 84.638523 -54.069237 
L 86.893068 -53.039687 
L 89.147614 -53.039687 
L 91.402159 -53.039687 
L 93.656705 -53.039687 
L 95.91125 -53.039687 
L 98.165795 -53.039687 
L 100.420341 -53.039687 
L 102.674886 -53.039687 
L 104.929432 -53.160811 
L 107.183977 -53.039687 
L 109.438523 -53.059875 
L 111.693068 -53.120437 
L 113.947614 -53.039687 
L 116.202159 -53.039687 
L 118.456705 -53.039687 
L 120.71125 -53.039687 
L 122.965795 -53.039687 
L 125.220341 -53.059875 
L 127.474886 -53.039687 
L 129.729432 -53.140624 
L 131.983977 -53.039687 
L 134.238523 -53.039687 
L 136.493068 -53.039687 
L 138.747614 -53.039687 
L 141.002159 -54.069237 
L 143.256705 -53.039687 
L 145.51125 -53.039687 
L 147.765795 -53.948114 
L 150.020341 -59.257361 
L 152.274886 -88.972999 
L 154.529432 -92.808574 
L 156.783977 -112.612268 
L 159.038523 -122.574679 
L 161.293068 -129.145628 
L 163.547614 -129.892558 
L 165.802159 -128.842823 
L 168.056705 -131.325849 
L 170.31125 -129.468628 
L 172.565795 -128.98413 
L 174.820341 -129.448437 
L 177.074886 -129.024512 
L 179.329432 -130.790898 
L 181.583977 -129.488812 
L 183.838523 -128.640951 
L 186.093068 -129.145628 
L 188.347614 -128.217018 
L 190.602159 -124.825562 
L 192.856705 -127.712336 
L 195.11125 -128.499638 
L 197.365795 -127.056251 
L 199.620341 -127.964678 
L 201.874886 -131.235013 
L 204.129432 -130.932201 
L 206.383977 -132.092967 
L 208.638523 -130.417426 
L 210.893068 -137.028752 
L 213.147614 -142.30772 
L 215.402159 -149.342974 
L 217.656705 -164.443043 
L 219.91125 -164.412763 
L 222.165795 -175.192754 
L 224.420341 -197.247324 
L 226.674886 -195.410288 
L 228.929432 -190.716753 
L 231.183977 -185.760783 
L 233.438523 -184.539449 
L 235.693068 -188.798961 
L 237.947614 -198.125472 
L 240.202159 -210.066235 
L 242.456705 -158.053775 
L 244.71125 -139.138321 
L 246.965795 -130.074245 
L 249.220341 -127.409525 
L 251.474886 -128.610665 
L 253.729432 -130.11462 
L 255.983977 -126.319411 
L 258.238523 -129.73106 
L 260.493068 -129.710876 
L 262.747614 -129.145628 
L 265.002159 -128.015146 
L 267.256705 -128.640951 
L 269.51125 -129.892558 
L 269.51125 -216.83906 
L 269.51125 -216.83906 
L 267.256705 -216.637184 
L 265.002159 -215.829698 
L 262.747614 -217.101487 
L 260.493068 -216.152693 
L 258.238523 -217.989736 
L 255.983977 -214.27527 
L 253.729432 -216.19306 
L 251.474886 -217.474955 
L 249.220341 -216.717937 
L 246.965795 -217.929162 
L 244.71125 -222.814481 
L 242.456705 -243.990899 
L 240.202159 -253.630326 
L 237.947614 -253.620237 
L 235.693068 -253.095365 
L 233.438523 -252.691622 
L 231.183977 -254.498376 
L 228.929432 -253.176114 
L 226.674886 -252.055709 
L 224.420341 -254.639688 
L 222.165795 -251.722628 
L 219.91125 -253.357805 
L 217.656705 -250.945424 
L 215.402159 -236.874907 
L 213.147614 -229.920397 
L 210.893068 -227.386902 
L 208.638523 -218.09067 
L 206.383977 -217.202414 
L 204.129432 -216.687649 
L 201.874886 -216.586713 
L 199.620341 -217.252894 
L 197.365795 -217.474957 
L 195.11125 -215.890256 
L 192.856705 -217.42449 
L 190.602159 -216.011373 
L 188.347614 -217.182234 
L 186.093068 -217.040927 
L 183.838523 -216.09213 
L 181.583977 -214.719383 
L 179.329432 -214.810244 
L 177.074886 -216.152694 
L 174.820341 -215.042391 
L 172.565795 -217.222616 
L 170.31125 -213.689846 
L 168.056705 -213.124605 
L 165.802159 -211.711489 
L 163.547614 -209.854264 
L 161.293068 -205.594756 
L 159.038523 -197.106013 
L 156.783977 -185.770875 
L 154.529432 -166.532422 
L 152.274886 -125.713797 
L 150.020341 -127.086532 
L 147.765795 -122.948144 
L 145.51125 -120.04118 
L 143.256705 -119.496122 
L 141.002159 -77.062518 
L 138.747614 -53.080062 
L 136.493068 -53.039687 
L 134.238523 -53.039687 
L 131.983977 -53.039687 
L 129.729432 -53.625118 
L 127.474886 -53.140624 
L 125.220341 -53.160811 
L 122.965795 -53.080062 
L 120.71125 -53.544369 
L 118.456705 -53.746241 
L 116.202159 -53.483807 
L 113.947614 -53.604931 
L 111.693068 -53.907739 
L 109.438523 -53.68568 
L 107.183977 -53.039687 
L 104.929432 -53.483807 
L 102.674886 -53.322309 
L 100.420341 -53.039687 
L 98.165795 -53.039687 
L 95.91125 -53.261747 
L 93.656705 -53.080062 
L 91.402159 -53.039687 
L 89.147614 -53.988488 
L 86.893068 -53.039687 
L 84.638523 -55.30066 
L 82.383977 -53.766429 
L 80.129432 -53.82699 
L 77.874886 -53.847178 
L 75.620341 -53.180998 
L 73.365795 -53.705867 
L 71.11125 -53.120437 
L 68.856705 -53.039687 
L 66.602159 -53.039687 
L 64.347614 -53.180998 
L 62.093068 -53.039687 
L 59.838523 -53.039687 
L 57.583977 -53.039687 
L 55.329432 -53.039687 
L 53.074886 -53.039687 
L 50.820341 -53.039687 
L 48.565795 -53.039687 
L 46.31125 -53.039687 
z
" id="mb4fc601d7f" style="stroke:#ffffff;stroke-opacity:0.2;"/>
    </defs>
    <g clip-path="url(#paf3606ff24)">
     <use style="fill:#dd8452;fill-opacity:0.2;stroke:#ffffff;stroke-opacity:0.2;" x="0" xlink:href="#mb4fc601d7f" y="277.919688"/>
    </g>
   </g>
   <g id="PolyCollection_3">
    <defs>
     <path d="M 46.31125 -53.039687 
L 46.31125 -53.039687 
L 48.565795 -53.039687 
L 50.820341 -53.039687 
L 53.074886 -53.039687 
L 55.329432 -53.039687 
L 57.583977 -53.039687 
L 59.838523 -53.039687 
L 62.093068 -53.039687 
L 64.347614 -53.039687 
L 66.602159 -53.039687 
L 68.856705 -53.039687 
L 71.11125 -53.039687 
L 73.365795 -53.039687 
L 75.620341 -53.039687 
L 77.874886 -53.039687 
L 80.129432 -53.039687 
L 82.383977 -53.039687 
L 84.638523 -53.039687 
L 86.893068 -53.039687 
L 89.147614 -53.039687 
L 91.402159 -53.039687 
L 93.656705 -53.039687 
L 95.91125 -53.039687 
L 98.165795 -53.039687 
L 100.420341 -53.039687 
L 102.674886 -53.039687 
L 104.929432 -53.039687 
L 107.183977 -53.039687 
L 109.438523 -53.039687 
L 111.693068 -53.039687 
L 113.947614 -53.039687 
L 116.202159 -53.039687 
L 118.456705 -53.039687 
L 120.71125 -53.039687 
L 122.965795 -53.039687 
L 125.220341 -53.645305 
L 127.474886 -53.140624 
L 129.729432 -53.039687 
L 131.983977 -53.039687 
L 134.238523 -53.766429 
L 136.493068 -54.291297 
L 138.747614 -53.059875 
L 141.002159 -53.140624 
L 143.256705 -53.039687 
L 145.51125 -53.039687 
L 147.765795 -53.564556 
L 150.020341 -53.039687 
L 152.274886 -54.04905 
L 154.529432 -53.68568 
L 156.783977 -53.039687 
L 159.038523 -54.63448 
L 161.293068 -54.553731 
L 163.547614 -53.756335 
L 165.802159 -53.140624 
L 168.056705 -53.039687 
L 170.31125 -53.342496 
L 172.565795 -53.584743 
L 174.820341 -53.039687 
L 177.074886 -53.039687 
L 179.329432 -53.160811 
L 181.583977 -53.302122 
L 183.838523 -53.746241 
L 186.093068 -54.089425 
L 188.347614 -53.039687 
L 190.602159 -53.524182 
L 192.856705 -53.039687 
L 195.11125 -54.149986 
L 197.365795 -53.483807 
L 199.620341 -53.887552 
L 201.874886 -54.04905 
L 204.129432 -53.039687 
L 206.383977 -53.039687 
L 208.638523 -53.039687 
L 210.893068 -54.614293 
L 213.147614 -53.201186 
L 215.402159 -54.74551 
L 217.656705 -54.71523 
L 219.91125 -53.816897 
L 222.165795 -53.100249 
L 224.420341 -53.998582 
L 226.674886 -53.039687 
L 228.929432 -55.018038 
L 231.183977 -54.351859 
L 233.438523 -54.028863 
L 235.693068 -54.341765 
L 237.947614 -54.866634 
L 240.202159 -54.977664 
L 242.456705 -54.573919 
L 244.71125 -54.190361 
L 246.965795 -55.946652 
L 249.220341 -55.068506 
L 251.474886 -53.584743 
L 253.729432 -55.058413 
L 255.983977 -54.170174 
L 258.238523 -54.533544 
L 260.493068 -54.392233 
L 262.747614 -54.250923 
L 265.002159 -53.887552 
L 267.256705 -54.755604 
L 269.51125 -54.816166 
L 269.51125 -220.553518 
L 269.51125 -220.553518 
L 267.256705 -216.071947 
L 265.002159 -208.986218 
L 262.747614 -207.774989 
L 260.493068 -207.149179 
L 258.238523 -197.58042 
L 255.983977 -198.852213 
L 253.729432 -198.670524 
L 251.474886 -179.250394 
L 249.220341 -175.990149 
L 246.965795 -140.228438 
L 244.71125 -102.801266 
L 242.456705 -74.438175 
L 240.202159 -64.748294 
L 237.947614 -59.065582 
L 235.693068 -59.105957 
L 233.438523 -61.255899 
L 231.183977 -66.605521 
L 228.929432 -73.973868 
L 226.674886 -84.067495 
L 224.420341 -110.421953 
L 222.165795 -141.257982 
L 219.91125 -177.039882 
L 217.656705 -197.640984 
L 215.402159 -202.536388 
L 213.147614 -206.664685 
L 210.893068 -210.015778 
L 208.638523 -211.36831 
L 206.383977 -208.481529 
L 204.129432 -208.723786 
L 201.874886 -207.734607 
L 199.620341 -208.01723 
L 197.365795 -207.795171 
L 195.11125 -207.330864 
L 192.856705 -207.653868 
L 190.602159 -209.410135 
L 188.347614 -206.099436 
L 186.093068 -205.45344 
L 183.838523 -205.675511 
L 181.583977 -208.097977 
L 179.329432 -202.142737 
L 177.074886 -204.928573 
L 174.820341 -201.67843 
L 172.565795 -200.527765 
L 170.31125 -198.872396 
L 168.056705 -199.336703 
L 165.802159 -198.246603 
L 163.547614 -197.287698 
L 161.293068 -199.478026 
L 159.038523 -199.922135 
L 156.783977 -201.496741 
L 154.529432 -199.356894 
L 152.274886 -198.387906 
L 150.020341 -197.58042 
L 147.765795 -201.032434 
L 145.51125 -197.459299 
L 143.256705 -197.378552 
L 141.002159 -196.005813 
L 138.747614 -198.56959 
L 136.493068 -194.511954 
L 134.238523 -196.308614 
L 131.983977 -191.100305 
L 129.729432 -180.461631 
L 127.474886 -166.572799 
L 125.220341 -148.62633 
L 122.965795 -147.717902 
L 120.71125 -145.275246 
L 118.456705 -134.394319 
L 116.202159 -88.952808 
L 113.947614 -56.007214 
L 111.693068 -53.039687 
L 109.438523 -53.039687 
L 107.183977 -53.039687 
L 104.929432 -53.039687 
L 102.674886 -53.039687 
L 100.420341 -53.039687 
L 98.165795 -53.039687 
L 95.91125 -53.059875 
L 93.656705 -53.039687 
L 91.402159 -53.039687 
L 89.147614 -53.039687 
L 86.893068 -53.039687 
L 84.638523 -53.039687 
L 82.383977 -53.039687 
L 80.129432 -53.039687 
L 77.874886 -53.039687 
L 75.620341 -53.039687 
L 73.365795 -53.039687 
L 71.11125 -53.039687 
L 68.856705 -53.180998 
L 66.602159 -53.039687 
L 64.347614 -53.039687 
L 62.093068 -53.039687 
L 59.838523 -53.039687 
L 57.583977 -53.039687 
L 55.329432 -53.039687 
L 53.074886 -53.039687 
L 50.820341 -53.039687 
L 48.565795 -53.039687 
L 46.31125 -53.039687 
z
" id="m331ad46deb" style="stroke:#ffffff;stroke-opacity:0.2;"/>
    </defs>
    <g clip-path="url(#paf3606ff24)">
     <use style="fill:#55a868;fill-opacity:0.2;stroke:#ffffff;stroke-opacity:0.2;" x="0" xlink:href="#m331ad46deb" y="277.919688"/>
    </g>
   </g>
   <g id="line2d_14">
    <path clip-path="url(#paf3606ff24)" d="M 46.31125 224.88 
L 48.565795 224.88 
L 50.820341 224.88 
L 53.074886 224.88 
L 55.329432 224.88 
L 57.583977 224.88 
L 59.838523 224.88 
L 62.093068 224.88 
L 64.347614 224.88 
L 66.602159 224.88 
L 68.856705 224.88 
L 71.11125 224.65794 
L 73.365795 224.829532 
L 75.620341 224.758876 
L 77.874886 224.597378 
L 80.129432 224.668034 
L 82.383977 224.738689 
L 84.638523 224.88 
L 86.893068 224.88 
L 89.147614 224.425787 
L 91.402159 224.637753 
L 93.656705 224.859813 
L 95.91125 224.88 
L 98.165795 224.88 
L 100.420341 224.88 
L 102.674886 224.29457 
L 104.929432 223.254926 
L 107.183977 224.88 
L 109.438523 224.88 
L 111.693068 224.88 
L 113.947614 224.88 
L 116.202159 224.88 
L 118.456705 224.88 
L 120.71125 224.799251 
L 122.965795 224.88 
L 125.220341 224.849719 
L 127.474886 224.88 
L 129.729432 224.859813 
L 131.983977 224.88 
L 134.238523 224.88 
L 136.493068 224.304663 
L 138.747614 224.516629 
L 141.002159 224.88 
L 143.256705 223.699046 
L 145.51125 224.193633 
L 147.765795 223.951386 
L 150.020341 223.345769 
L 152.274886 222.033597 
L 154.529432 222.285938 
L 156.783977 224.092697 
L 159.038523 222.45753 
L 161.293068 222.790619 
L 163.547614 221.690414 
L 165.802159 224.203727 
L 168.056705 222.760338 
L 170.31125 223.254926 
L 172.565795 221.508729 
L 174.820341 221.306856 
L 177.074886 222.195095 
L 179.329432 222.770432 
L 181.583977 222.750245 
L 183.838523 222.830994 
L 186.093068 223.073241 
L 188.347614 224.112884 
L 190.602159 222.608934 
L 192.856705 223.103522 
L 195.11125 223.164084 
L 197.365795 223.911012 
L 199.620341 222.306125 
L 201.874886 221.639946 
L 204.129432 221.740882 
L 206.383977 221.528916 
L 208.638523 222.770432 
L 210.893068 223.133803 
L 213.147614 223.063147 
L 215.402159 222.528185 
L 217.656705 222.689683 
L 219.91125 223.325582 
L 222.165795 222.154721 
L 224.420341 220.882924 
L 226.674886 223.214552 
L 228.929432 223.214552 
L 231.183977 223.699046 
L 233.438523 224.314757 
L 235.693068 224.708408 
L 237.947614 223.749514 
L 240.202159 224.567098 
L 242.456705 224.062416 
L 244.71125 224.88 
L 246.965795 224.819438 
L 249.220341 224.88 
L 251.474886 224.425787 
L 253.729432 224.809345 
L 255.983977 224.234008 
L 258.238523 224.88 
L 260.493068 224.88 
L 262.747614 224.526723 
L 265.002159 224.779064 
L 267.256705 224.88 
L 269.51125 224.88 
" style="fill:none;stroke:#4c72b0;stroke-linecap:round;stroke-width:1.5;"/>
   </g>
   <g id="line2d_15">
    <path clip-path="url(#paf3606ff24)" d="M 46.31125 224.88 
L 48.565795 224.88 
L 50.820341 224.88 
L 53.074886 224.88 
L 55.329432 224.88 
L 57.583977 224.88 
L 59.838523 224.88 
L 62.093068 224.88 
L 64.347614 224.779064 
L 66.602159 224.88 
L 68.856705 224.88 
L 71.11125 224.839625 
L 73.365795 224.54691 
L 75.620341 224.809345 
L 77.874886 224.476255 
L 80.129432 224.486349 
L 82.383977 224.395506 
L 84.638523 223.234739 
L 86.893068 224.88 
L 89.147614 224.4056 
L 91.402159 224.88 
L 93.656705 224.859813 
L 95.91125 224.76897 
L 98.165795 224.88 
L 100.420341 224.88 
L 102.674886 224.738689 
L 104.929432 224.597378 
L 107.183977 224.88 
L 109.438523 224.54691 
L 111.693068 224.4056 
L 113.947614 224.597378 
L 116.202159 224.65794 
L 118.456705 224.526723 
L 120.71125 224.627659 
L 122.965795 224.859813 
L 125.220341 224.809345 
L 127.474886 224.829532 
L 129.729432 224.536817 
L 131.983977 224.88 
L 134.238523 224.88 
L 136.493068 224.88 
L 138.747614 224.859813 
L 141.002159 212.35381 
L 143.256705 191.651783 
L 145.51125 191.379254 
L 147.765795 189.471559 
L 150.020341 184.747741 
L 152.274886 170.57629 
L 154.529432 148.24919 
L 156.783977 128.728116 
L 159.038523 118.079341 
L 161.293068 110.549496 
L 163.547614 108.046277 
L 165.802159 107.642532 
L 168.056705 105.69446 
L 170.31125 106.34045 
L 172.565795 104.816315 
L 174.820341 105.674273 
L 177.074886 105.331085 
L 179.329432 105.119116 
L 181.583977 105.81559 
L 183.838523 105.553147 
L 186.093068 104.82641 
L 188.347614 105.220062 
L 190.602159 107.50122 
L 192.856705 105.351275 
L 195.11125 105.724741 
L 197.365795 105.654083 
L 199.620341 105.310902 
L 201.874886 104.008824 
L 204.129432 104.109762 
L 206.383977 103.271997 
L 208.638523 103.66564 
L 210.893068 95.711861 
L 213.147614 91.805629 
L 215.402159 84.810747 
L 217.656705 70.225454 
L 219.91125 69.034404 
L 222.165795 64.461997 
L 224.420341 51.976182 
L 226.674886 54.186689 
L 228.929432 55.973254 
L 231.183977 57.790108 
L 233.438523 59.304152 
L 235.693068 56.972524 
L 237.947614 52.046833 
L 240.202159 46.071407 
L 242.456705 76.897351 
L 244.71125 96.943286 
L 246.965795 103.917984 
L 249.220341 105.855957 
L 251.474886 104.876878 
L 253.729432 104.765848 
L 255.983977 107.622347 
L 258.238523 104.059289 
L 260.493068 104.987903 
L 262.747614 104.79613 
L 265.002159 105.997265 
L 267.256705 105.28062 
L 269.51125 104.553879 
" style="fill:none;stroke:#dd8452;stroke-linecap:round;stroke-width:1.5;"/>
   </g>
   <g id="line2d_16">
    <path clip-path="url(#paf3606ff24)" d="M 46.31125 224.88 
L 48.565795 224.88 
L 50.820341 224.88 
L 53.074886 224.88 
L 55.329432 224.88 
L 57.583977 224.88 
L 59.838523 224.88 
L 62.093068 224.88 
L 64.347614 224.88 
L 66.602159 224.88 
L 68.856705 224.809345 
L 71.11125 224.88 
L 73.365795 224.88 
L 75.620341 224.88 
L 77.874886 224.88 
L 80.129432 224.88 
L 82.383977 224.88 
L 84.638523 224.88 
L 86.893068 224.88 
L 89.147614 224.88 
L 91.402159 224.88 
L 93.656705 224.88 
L 95.91125 224.869906 
L 98.165795 224.88 
L 100.420341 224.88 
L 102.674886 224.88 
L 104.929432 224.88 
L 107.183977 224.88 
L 109.438523 224.88 
L 111.693068 224.88 
L 113.947614 223.396237 
L 116.202159 206.92344 
L 118.456705 184.202684 
L 120.71125 178.762221 
L 122.965795 177.540893 
L 125.220341 176.78387 
L 127.474886 168.062976 
L 129.729432 161.169028 
L 131.983977 155.849691 
L 134.238523 152.882166 
L 136.493068 153.518062 
L 138.747614 152.104955 
L 141.002159 153.346469 
L 143.256705 152.710568 
L 145.51125 152.670194 
L 147.765795 150.621192 
L 150.020341 152.609634 
L 152.274886 151.70121 
L 154.529432 151.398401 
L 156.783977 150.651473 
L 159.038523 150.64138 
L 161.293068 150.903809 
L 163.547614 152.397671 
L 165.802159 152.226074 
L 168.056705 151.731492 
L 170.31125 151.812241 
L 172.565795 150.863433 
L 174.820341 150.560629 
L 177.074886 148.935557 
L 179.329432 150.267913 
L 181.583977 147.219638 
L 183.838523 148.208812 
L 186.093068 148.148255 
L 188.347614 148.350126 
L 190.602159 146.452529 
L 192.856705 147.57291 
L 195.11125 147.179262 
L 197.365795 147.280198 
L 199.620341 146.967297 
L 201.874886 147.027859 
L 204.129432 147.037951 
L 206.383977 147.159079 
L 208.638523 145.715689 
L 210.893068 145.604652 
L 213.147614 147.986752 
L 215.402159 149.278738 
L 217.656705 151.741581 
L 219.91125 162.491298 
L 222.165795 180.740572 
L 224.420341 195.70942 
L 226.674886 209.366096 
L 228.929432 213.423734 
L 231.183977 217.440997 
L 233.438523 220.277307 
L 235.693068 221.195826 
L 237.947614 220.953579 
L 240.202159 218.056709 
L 242.456705 213.413641 
L 244.71125 199.423874 
L 246.965795 179.832143 
L 249.220341 162.39036 
L 251.474886 161.502119 
L 253.729432 151.055219 
L 255.983977 151.408494 
L 258.238523 151.862706 
L 260.493068 147.148981 
L 262.747614 146.906732 
L 265.002159 146.482803 
L 267.256705 142.505912 
L 269.51125 140.234846 
" style="fill:none;stroke:#55a868;stroke-linecap:round;stroke-width:1.5;"/>
   </g>
   <g id="patch_3">
    <path d="M 46.31125 234.96 
L 46.31125 13.2 
" style="fill:none;stroke:#ffffff;stroke-linecap:square;stroke-linejoin:miter;stroke-width:1.25;"/>
   </g>
   <g id="patch_4">
    <path d="M 269.51125 234.96 
L 269.51125 13.2 
" style="fill:none;stroke:#ffffff;stroke-linecap:square;stroke-linejoin:miter;stroke-width:1.25;"/>
   </g>
   <g id="patch_5">
    <path d="M 46.31125 234.96 
L 269.51125 234.96 
" style="fill:none;stroke:#ffffff;stroke-linecap:square;stroke-linejoin:miter;stroke-width:1.25;"/>
   </g>
   <g id="patch_6">
    <path d="M 46.31125 13.2 
L 269.51125 13.2 
" style="fill:none;stroke:#ffffff;stroke-linecap:square;stroke-linejoin:miter;stroke-width:1.25;"/>
   </g>
   <g id="legend_1">
    <g id="patch_7">
     <path d="M 51.17485 49.933207 
L 207.183505 49.933207 
Q 208.573105 49.933207 208.573105 48.543607 
L 208.573105 18.0636 
Q 208.573105 16.674 207.183505 16.674 
L 51.17485 16.674 
Q 49.78525 16.674 49.78525 18.0636 
L 49.78525 48.543607 
Q 49.78525 49.933207 51.17485 49.933207 
z
" style="fill:#eaeaf2;opacity:0.8;stroke:#cccccc;stroke-linejoin:miter;"/>
    </g>
    <g id="line2d_17">
     <path d="M 52.56445 22.300794 
L 66.46045 22.300794 
" style="fill:none;stroke:#4c72b0;stroke-linecap:round;stroke-width:1.5;"/>
    </g>
    <g id="line2d_18"/>
    <g id="text_16">
     <!-- HC_bc0.0001_kl0.1_dlr0.005_dti10000 -->
     <defs>
      <path d="M 9.8125 72.90625 
L 19.671875 72.90625 
L 19.671875 43.015625 
L 55.515625 43.015625 
L 55.515625 72.90625 
L 65.375 72.90625 
L 65.375 0 
L 55.515625 0 
L 55.515625 34.71875 
L 19.671875 34.71875 
L 19.671875 0 
L 9.8125 0 
z
" id="DejaVuSans-72"/>
      <path d="M 64.40625 67.28125 
L 64.40625 56.890625 
Q 59.421875 61.53125 53.78125 63.8125 
Q 48.140625 66.109375 41.796875 66.109375 
Q 29.296875 66.109375 22.65625 58.46875 
Q 16.015625 50.828125 16.015625 36.375 
Q 16.015625 21.96875 22.65625 14.328125 
Q 29.296875 6.6875 41.796875 6.6875 
Q 48.140625 6.6875 53.78125 8.984375 
Q 59.421875 11.28125 64.40625 15.921875 
L 64.40625 5.609375 
Q 59.234375 2.09375 53.4375 0.328125 
Q 47.65625 -1.421875 41.21875 -1.421875 
Q 24.65625 -1.421875 15.125 8.703125 
Q 5.609375 18.84375 5.609375 36.375 
Q 5.609375 53.953125 15.125 64.078125 
Q 24.65625 74.21875 41.21875 74.21875 
Q 47.75 74.21875 53.53125 72.484375 
Q 59.328125 70.75 64.40625 67.28125 
z
" id="DejaVuSans-67"/>
      <path d="M 50.984375 -16.609375 
L 50.984375 -23.578125 
L -0.984375 -23.578125 
L -0.984375 -16.609375 
z
" id="DejaVuSans-95"/>
      <path d="M 48.6875 27.296875 
Q 48.6875 37.203125 44.609375 42.84375 
Q 40.53125 48.484375 33.40625 48.484375 
Q 26.265625 48.484375 22.1875 42.84375 
Q 18.109375 37.203125 18.109375 27.296875 
Q 18.109375 17.390625 22.1875 11.75 
Q 26.265625 6.109375 33.40625 6.109375 
Q 40.53125 6.109375 44.609375 11.75 
Q 48.6875 17.390625 48.6875 27.296875 
z
M 18.109375 46.390625 
Q 20.953125 51.265625 25.265625 53.625 
Q 29.59375 56 35.59375 56 
Q 45.5625 56 51.78125 48.09375 
Q 58.015625 40.1875 58.015625 27.296875 
Q 58.015625 14.40625 51.78125 6.484375 
Q 45.5625 -1.421875 35.59375 -1.421875 
Q 29.59375 -1.421875 25.265625 0.953125 
Q 20.953125 3.328125 18.109375 8.203125 
L 18.109375 0 
L 9.078125 0 
L 9.078125 75.984375 
L 18.109375 75.984375 
z
" id="DejaVuSans-98"/>
      <path d="M 48.78125 52.59375 
L 48.78125 44.1875 
Q 44.96875 46.296875 41.140625 47.34375 
Q 37.3125 48.390625 33.40625 48.390625 
Q 24.65625 48.390625 19.8125 42.84375 
Q 14.984375 37.3125 14.984375 27.296875 
Q 14.984375 17.28125 19.8125 11.734375 
Q 24.65625 6.203125 33.40625 6.203125 
Q 37.3125 6.203125 41.140625 7.25 
Q 44.96875 8.296875 48.78125 10.40625 
L 48.78125 2.09375 
Q 45.015625 0.34375 40.984375 -0.53125 
Q 36.96875 -1.421875 32.421875 -1.421875 
Q 20.0625 -1.421875 12.78125 6.34375 
Q 5.515625 14.109375 5.515625 27.296875 
Q 5.515625 40.671875 12.859375 48.328125 
Q 20.21875 56 33.015625 56 
Q 37.15625 56 41.109375 55.140625 
Q 45.0625 54.296875 48.78125 52.59375 
z
" id="DejaVuSans-99"/>
      <path d="M 10.6875 12.40625 
L 21 12.40625 
L 21 0 
L 10.6875 0 
z
" id="DejaVuSans-46"/>
      <path d="M 9.078125 75.984375 
L 18.109375 75.984375 
L 18.109375 31.109375 
L 44.921875 54.6875 
L 56.390625 54.6875 
L 27.390625 29.109375 
L 57.625 0 
L 45.90625 0 
L 18.109375 26.703125 
L 18.109375 0 
L 9.078125 0 
z
" id="DejaVuSans-107"/>
      <path d="M 9.421875 75.984375 
L 18.40625 75.984375 
L 18.40625 0 
L 9.421875 0 
z
" id="DejaVuSans-108"/>
      <path d="M 45.40625 46.390625 
L 45.40625 75.984375 
L 54.390625 75.984375 
L 54.390625 0 
L 45.40625 0 
L 45.40625 8.203125 
Q 42.578125 3.328125 38.25 0.953125 
Q 33.9375 -1.421875 27.875 -1.421875 
Q 17.96875 -1.421875 11.734375 6.484375 
Q 5.515625 14.40625 5.515625 27.296875 
Q 5.515625 40.1875 11.734375 48.09375 
Q 17.96875 56 27.875 56 
Q 33.9375 56 38.25 53.625 
Q 42.578125 51.265625 45.40625 46.390625 
z
M 14.796875 27.296875 
Q 14.796875 17.390625 18.875 11.75 
Q 22.953125 6.109375 30.078125 6.109375 
Q 37.203125 6.109375 41.296875 11.75 
Q 45.40625 17.390625 45.40625 27.296875 
Q 45.40625 37.203125 41.296875 42.84375 
Q 37.203125 48.484375 30.078125 48.484375 
Q 22.953125 48.484375 18.875 42.84375 
Q 14.796875 37.203125 14.796875 27.296875 
z
" id="DejaVuSans-100"/>
     </defs>
     <g style="fill:#262626;" transform="translate(72.01885 24.732594)scale(0.06948 -0.06948)">
      <use xlink:href="#DejaVuSans-72"/>
      <use x="75.195312" xlink:href="#DejaVuSans-67"/>
      <use x="145.019531" xlink:href="#DejaVuSans-95"/>
      <use x="195.019531" xlink:href="#DejaVuSans-98"/>
      <use x="258.496094" xlink:href="#DejaVuSans-99"/>
      <use x="313.476562" xlink:href="#DejaVuSans-48"/>
      <use x="377.099609" xlink:href="#DejaVuSans-46"/>
      <use x="408.886719" xlink:href="#DejaVuSans-48"/>
      <use x="472.509766" xlink:href="#DejaVuSans-48"/>
      <use x="536.132812" xlink:href="#DejaVuSans-48"/>
      <use x="599.755859" xlink:href="#DejaVuSans-49"/>
      <use x="663.378906" xlink:href="#DejaVuSans-95"/>
      <use x="713.378906" xlink:href="#DejaVuSans-107"/>
      <use x="771.289062" xlink:href="#DejaVuSans-108"/>
      <use x="799.072266" xlink:href="#DejaVuSans-48"/>
      <use x="862.695312" xlink:href="#DejaVuSans-46"/>
      <use x="894.482422" xlink:href="#DejaVuSans-49"/>
      <use x="958.105469" xlink:href="#DejaVuSans-95"/>
      <use x="1008.105469" xlink:href="#DejaVuSans-100"/>
      <use x="1071.582031" xlink:href="#DejaVuSans-108"/>
      <use x="1099.365234" xlink:href="#DejaVuSans-114"/>
      <use x="1140.478516" xlink:href="#DejaVuSans-48"/>
      <use x="1204.101562" xlink:href="#DejaVuSans-46"/>
      <use x="1235.888672" xlink:href="#DejaVuSans-48"/>
      <use x="1299.511719" xlink:href="#DejaVuSans-48"/>
      <use x="1363.134766" xlink:href="#DejaVuSans-53"/>
      <use x="1426.757812" xlink:href="#DejaVuSans-95"/>
      <use x="1476.757812" xlink:href="#DejaVuSans-100"/>
      <use x="1540.234375" xlink:href="#DejaVuSans-116"/>
      <use x="1579.443359" xlink:href="#DejaVuSans-105"/>
      <use x="1607.226562" xlink:href="#DejaVuSans-49"/>
      <use x="1670.849609" xlink:href="#DejaVuSans-48"/>
      <use x="1734.472656" xlink:href="#DejaVuSans-48"/>
      <use x="1798.095703" xlink:href="#DejaVuSans-48"/>
      <use x="1861.71875" xlink:href="#DejaVuSans-48"/>
     </g>
    </g>
    <g id="line2d_19">
     <path d="M 52.56445 32.692397 
L 66.46045 32.692397 
" style="fill:none;stroke:#dd8452;stroke-linecap:round;stroke-width:1.5;"/>
    </g>
    <g id="line2d_20"/>
    <g id="text_17">
     <!-- HC_bc0.001_kl0.1_dlr0.005_dti1000 -->
     <g style="fill:#262626;" transform="translate(72.01885 35.124197)scale(0.06948 -0.06948)">
      <use xlink:href="#DejaVuSans-72"/>
      <use x="75.195312" xlink:href="#DejaVuSans-67"/>
      <use x="145.019531" xlink:href="#DejaVuSans-95"/>
      <use x="195.019531" xlink:href="#DejaVuSans-98"/>
      <use x="258.496094" xlink:href="#DejaVuSans-99"/>
      <use x="313.476562" xlink:href="#DejaVuSans-48"/>
      <use x="377.099609" xlink:href="#DejaVuSans-46"/>
      <use x="408.886719" xlink:href="#DejaVuSans-48"/>
      <use x="472.509766" xlink:href="#DejaVuSans-48"/>
      <use x="536.132812" xlink:href="#DejaVuSans-49"/>
      <use x="599.755859" xlink:href="#DejaVuSans-95"/>
      <use x="649.755859" xlink:href="#DejaVuSans-107"/>
      <use x="707.666016" xlink:href="#DejaVuSans-108"/>
      <use x="735.449219" xlink:href="#DejaVuSans-48"/>
      <use x="799.072266" xlink:href="#DejaVuSans-46"/>
      <use x="830.859375" xlink:href="#DejaVuSans-49"/>
      <use x="894.482422" xlink:href="#DejaVuSans-95"/>
      <use x="944.482422" xlink:href="#DejaVuSans-100"/>
      <use x="1007.958984" xlink:href="#DejaVuSans-108"/>
      <use x="1035.742188" xlink:href="#DejaVuSans-114"/>
      <use x="1076.855469" xlink:href="#DejaVuSans-48"/>
      <use x="1140.478516" xlink:href="#DejaVuSans-46"/>
      <use x="1172.265625" xlink:href="#DejaVuSans-48"/>
      <use x="1235.888672" xlink:href="#DejaVuSans-48"/>
      <use x="1299.511719" xlink:href="#DejaVuSans-53"/>
      <use x="1363.134766" xlink:href="#DejaVuSans-95"/>
      <use x="1413.134766" xlink:href="#DejaVuSans-100"/>
      <use x="1476.611328" xlink:href="#DejaVuSans-116"/>
      <use x="1515.820312" xlink:href="#DejaVuSans-105"/>
      <use x="1543.603516" xlink:href="#DejaVuSans-49"/>
      <use x="1607.226562" xlink:href="#DejaVuSans-48"/>
      <use x="1670.849609" xlink:href="#DejaVuSans-48"/>
      <use x="1734.472656" xlink:href="#DejaVuSans-48"/>
     </g>
    </g>
    <g id="line2d_21">
     <path d="M 52.56445 43.083999 
L 66.46045 43.083999 
" style="fill:none;stroke:#55a868;stroke-linecap:round;stroke-width:1.5;"/>
    </g>
    <g id="line2d_22"/>
    <g id="text_18">
     <!-- HC_bc0 -->
     <g style="fill:#262626;" transform="translate(72.01885 45.515799)scale(0.06948 -0.06948)">
      <use xlink:href="#DejaVuSans-72"/>
      <use x="75.195312" xlink:href="#DejaVuSans-67"/>
      <use x="145.019531" xlink:href="#DejaVuSans-95"/>
      <use x="195.019531" xlink:href="#DejaVuSans-98"/>
      <use x="258.496094" xlink:href="#DejaVuSans-99"/>
      <use x="313.476562" xlink:href="#DejaVuSans-48"/>
     </g>
    </g>
   </g>
  </g>
 </g>
 <defs>
  <clipPath id="paf3606ff24">
   <rect height="221.76" width="223.2" x="46.31125" y="13.2"/>
  </clipPath>
 </defs>
</svg>
